<svg width="75" height="24" viewBox="0 0 75 24" xmlns="http://www.w3.org/2000/svg"><g fill="none" fill-rule="evenodd"><path d="M9.487 18.618C4.334 18.618 0 14.441 0 9.31 0 4.18 4.334 0 9.487 0c2.852 0 4.881 1.113 6.41 2.566L14.094 4.36C13 3.34 11.517 2.543 9.487 2.543c-3.763 0-6.705 3.02-6.705 6.766 0 3.747 2.942 6.767 6.705 6.767 2.44 0 3.832-.977 4.722-1.862.73-.727 1.21-1.77 1.39-3.202H9.487V8.47h8.6c.09.454.136 1 .136 1.59 0 1.907-.525 4.268-2.213 5.95-1.642 1.701-3.74 2.61-6.523 2.61" fill="#4285F4"/><path d="M28.925 12.624c0-2.157-1.546-3.633-3.337-3.633-1.791 0-3.337 1.476-3.337 3.633 0 2.134 1.546 3.633 3.337 3.633 1.79 0 3.337-1.499 3.337-3.633m2.598 0c0 3.452-2.665 5.995-5.935 5.995-3.27 0-5.934-2.543-5.934-5.995 0-3.474 2.665-5.994 5.934-5.994 3.27 0 5.935 2.52 5.935 5.994" fill="#EA4335"/><path d="M42.227 12.624c0-2.157-1.544-3.633-3.336-3.633-1.791 0-3.337 1.476-3.337 3.633 0 2.134 1.545 3.633 3.337 3.633 1.791 0 3.337-1.499 3.337-3.633m2.597 0c0 3.452-2.665 5.995-5.934 5.995-3.268 0-5.934-2.543-5.934-5.995 0-3.474 2.666-5.994 5.934-5.994 3.27 0 5.934 2.52 5.934 5.994" fill="#FBBC04"/><path d="M55.47 12.647c0-2.111-1.414-3.656-3.215-3.656-1.825 0-3.353 1.545-3.353 3.656 0 2.089 1.528 3.61 3.353 3.61 1.8 0 3.215-1.521 3.215-3.61zm2.326-5.654v10.763c0 4.428-2.622 6.244-5.724 6.244-2.92 0-4.675-1.953-5.336-3.542l2.302-.954c.41.976 1.414 2.134 3.034 2.134 1.984 0 3.216-1.225 3.216-3.519v-.863h-.091c-.593.727-1.734 1.362-3.17 1.362-3.011 0-5.771-2.61-5.771-5.971 0-3.383 2.76-6.017 5.77-6.017 1.437 0 2.578.636 3.17 1.34h.092v-.977h2.508z" fill="#4285F4"/><path fill="#34A853" d="M59.787 18.255h2.646V.636h-2.646z"/><path d="M66.516 12.443l5.383-2.225c-.297-.75-1.186-1.272-2.236-1.272-1.345 0-3.214 1.18-3.147 3.497m6.317 2.157l2.053 1.362c-.66.977-2.258 2.656-5.017 2.656-3.42 0-5.891-2.633-5.891-5.993 0-3.565 2.492-5.994 5.595-5.994 3.125 0 4.653 2.474 5.154 3.813l.273.682-8.05 3.315c.616 1.203 1.573 1.816 2.919 1.816 1.345 0 2.28-.658 2.964-1.657" fill="#EA4335"/></g></svg>