<?xml version="1.0" encoding="UTF-8"?>
<svg width="8px" height="7px" viewBox="0 0 8 7" version="1.1" xmlns="http://www.w3.org/2000/svg" xmlns:xlink="http://www.w3.org/1999/xlink">
    <!-- Generator: Sketch 51.3 (57544) - http://www.bohemiancoding.com/sketch -->
    <title>Shape</title>
    <desc>Created with Sketch.</desc>
    <defs></defs>
    <g id="Page-1" stroke="none" stroke-width="1" fill="none" fill-rule="evenodd">
        <path d="M0.460984155,3.96079581 L5.61017717,3.96079581 L3.36057449,6.21039849 C3.18067514,6.39151711 3.18067514,6.68387737 3.36057449,6.86499599 C3.44664652,6.95141866 3.5635959,7 3.68556832,7 C3.80754075,7 3.92449012,6.95141866 4.01056215,6.86499599 L7.04844774,3.82711041 C7.13487041,3.74103838 7.18345175,3.624089 7.18345175,3.50211658 C7.18345175,3.38014415 7.13487041,3.26319477 7.04844774,3.17712275 L4.01517199,0.13462732 C3.89906288,0.018518208 3.72983016,-0.0268275622 3.57122217,0.0156713225 C3.41261417,0.0581702072 3.28872722,0.182057155 3.24622834,0.340665152 C3.20372945,0.499273149 3.24907522,0.668505867 3.36518433,0.784614979 L5.61017717,3.0388275 L0.460984155,3.0388275 C0.20744287,3.0388275 0,3.24627037 0,3.49981166 C0,3.75335294 0.20744287,3.96079581 0.460984155,3.96079581 Z" id="Shape" fill="#FFFFFF" fill-rule="nonzero"></path>
    </g>
</svg>