<?xml version="1.0" encoding="UTF-8"?>
<svg width="13px" height="13px" viewBox="0 0 13 13" version="1.1" xmlns="http://www.w3.org/2000/svg" xmlns:xlink="http://www.w3.org/1999/xlink">
    <!-- Generator: Sketch 52.5 (67469) - http://www.bohemiancoding.com/sketch -->
    <title>arrow</title>
    <desc>Created with Sketch.</desc>
    <g id="Page-1" stroke="none" stroke-width="1" fill="none" fill-rule="evenodd">
        <g id="arrow">
            <circle id="Oval" fill="#1A73E8" cx="6.5" cy="6.5" r="6.5"></circle>
            <path d="M3.46098416,6.96079581 L8.61017717,6.96079581 L6.36057449,9.21039849 C6.18067514,9.39151711 6.18067514,9.68387737 6.36057449,9.86499599 C6.44664652,9.95141866 6.5635959,10 6.68556832,10 C6.80754075,10 6.92449012,9.95141866 7.01056215,9.86499599 L10.0484477,6.82711041 C10.1348704,6.74103838 10.1834517,6.624089 10.1834517,6.50211658 C10.1834517,6.38014415 10.1348704,6.26319477 10.0484477,6.17712275 L7.01517199,3.13462732 C6.89906288,3.01851821 6.72983016,2.97317244 6.57122217,3.01567132 C6.41261417,3.05817021 6.28872722,3.18205716 6.24622834,3.34066515 C6.20372945,3.49927315 6.24907522,3.66850587 6.36518433,3.78461498 L8.61017717,6.0388275 L3.46098416,6.0388275 C3.20744287,6.0388275 3,6.24627037 3,6.49981166 C3,6.75335294 3.20744287,6.96079581 3.46098416,6.96079581 Z" id="Shape" fill="#FFFFFF"></path>
        </g>
    </g>
</svg>