<svg width="10" height="14" viewBox="0 0 10 14" fill="none" xmlns="http://www.w3.org/2000/svg">
<path d="M3.00004 13C3.00004 13.3667 3.30004 13.6667 3.66671 13.6667H6.33337C6.70004 13.6667 7.00004 13.3667 7.00004 13V12.3334H3.00004V13ZM5.00004 0.333374C2.42671 0.333374 0.333374 2.42671 0.333374 5.00004C0.333374 6.58671 1.12671 7.98004 2.33337 8.82671V10.3334C2.33337 10.7 2.63337 11 3.00004 11H7.00004C7.36671 11 7.66671 10.7 7.66671 10.3334V8.82671C8.87337 7.98004 9.66671 6.58671 9.66671 5.00004C9.66671 2.42671 7.57337 0.333374 5.00004 0.333374ZM6.90004 7.73337L6.33337 8.13337V9.66671H3.66671V8.13337L3.10004 7.73337C2.65837 7.42718 2.29733 7.01867 2.04774 6.54271C1.79815 6.06675 1.66742 5.53747 1.66671 5.00004C1.66671 3.16004 3.16004 1.66671 5.00004 1.66671C6.84004 1.66671 8.33337 3.16004 8.33337 5.00004C8.33337 6.08671 7.80004 7.10671 6.90004 7.73337Z" fill="#1A73E8"/>
</svg>
