<svg width="144" height="144" viewBox="0 0 144 144" fill="none" xmlns="http://www.w3.org/2000/svg">
<circle cx="72" cy="72" r="72" fill="#FDE9CC"/>
<g clip-path="url(#clip0)">
<path fill-rule="evenodd" clip-rule="evenodd" d="M74.7555 64.3926C76.5986 65.5728 77.1764 68.0181 76.0842 69.9119L76.0122 70.032L67.5672 83.6003L79.0187 83.6005C82.3328 83.6005 84.2133 87.42 82.2733 90.1007L82.1968 90.2032L68.1835 108.426C66.8144 110.206 64.2817 110.524 62.5264 109.135C60.8086 107.776 60.4722 105.286 61.7422 103.512L61.8273 103.397L70.7626 91.7768L60.2563 91.777C57.1259 91.777 55.2068 88.3252 56.7805 85.6187L56.8481 85.5063L69.1957 65.6672C70.384 63.7579 72.8732 63.1873 74.7555 64.3926ZM90.7755 45.952L90.8188 45.979L90.8417 45.9935C92.7238 47.1864 93.2973 49.6707 92.1285 51.5679L87.816 58.5682C86.6586 60.447 84.1973 61.0317 82.3185 59.8743L82.2752 59.8473L82.2523 59.8327C80.3702 58.6398 79.7967 56.1556 80.9655 54.2584L85.278 47.2581C86.4355 45.3793 88.8967 44.7946 90.7755 45.952ZM53.9383 45.952C55.817 44.7946 58.2783 45.3793 59.4358 47.2581L63.7483 54.2584C64.9171 56.1556 64.3436 58.6398 62.4614 59.8327L62.4385 59.8473L62.3953 59.8743C60.5165 61.0317 58.0552 60.447 56.8978 58.5682L52.5853 51.5679C51.4165 49.6707 51.99 47.1864 53.8721 45.9935L53.895 45.979L53.9383 45.952ZM72.3395 34C74.5219 34 76.2992 35.7593 76.3681 37.956L76.3701 38.0883V52.2256C76.3701 54.4835 74.5656 56.3138 72.3395 56.3138C70.1572 56.3138 68.3799 54.5545 68.311 52.3579L68.3089 52.2256V38.0883C68.3089 35.8304 70.1135 34 72.3395 34Z" fill="url(#paint0_linear)"/>
</g>
<defs>
<linearGradient id="paint0_linear" x1="76.5631" y1="27.8165" x2="53.1234" y2="106.964" gradientUnits="userSpaceOnUse">
<stop stop-color="#FAA900"/>
<stop offset="1" stop-color="#F57F00"/>
</linearGradient>
<clipPath id="clip0">
<rect width="40.7143" height="76" fill="white" transform="translate(52 34)"/>
</clipPath>
</defs>
</svg>
