<svg width="148" height="146" viewBox="0 0 148 146" fill="none" xmlns="http://www.w3.org/2000/svg">
<path d="M47.4798 60.2041C42.7942 61.5658 37.8549 64.1436 35.6091 68.7135C33.2365 73.5372 35.0645 79.3419 39.4106 82.3861" stroke="#EE675C" stroke-width="9.2703" stroke-miterlimit="10" stroke-linejoin="round"/>
<path d="M100.521 60.2041C105.206 61.5658 110.145 64.1436 112.391 68.7135C114.764 73.5372 112.936 79.3419 108.59 82.3861" stroke="#EE675C" stroke-width="9.2703" stroke-miterlimit="10" stroke-linejoin="round"/>
<path d="M73.9997 144.881C90.3814 144.881 103.661 143.501 103.661 141.799C103.661 140.097 90.3814 138.718 73.9997 138.718C57.6179 138.718 44.3379 140.097 44.3379 141.799C44.3379 143.501 57.6179 144.881 73.9997 144.881Z" fill="#F1F3F4"/>
<path d="M74 3.11914V14.8406" stroke="#E8EAED" stroke-width="6" stroke-miterlimit="10" stroke-linecap="round"/>
<path d="M38.5596 12.6172L44.4203 22.7643" stroke="#E8EAED" stroke-width="6" stroke-miterlimit="10" stroke-linecap="round"/>
<path d="M12.6172 38.5596L22.7643 44.4203" stroke="#E8EAED" stroke-width="6" stroke-miterlimit="10" stroke-linecap="round"/>
<path d="M3.11914 74H14.8406" stroke="#E8EAED" stroke-width="6" stroke-miterlimit="10" stroke-linecap="round"/>
<path d="M12.6172 109.44L22.7643 103.58" stroke="#E8EAED" stroke-width="6" stroke-miterlimit="10" stroke-linecap="round"/>
<path d="M135.383 109.44L125.235 103.58" stroke="#E8EAED" stroke-width="6" stroke-miterlimit="10" stroke-linecap="round"/>
<path d="M144.881 74H133.159" stroke="#E8EAED" stroke-width="6" stroke-miterlimit="10" stroke-linecap="round"/>
<path d="M135.383 38.5596L125.235 44.4203" stroke="#E8EAED" stroke-width="6" stroke-miterlimit="10" stroke-linecap="round"/>
<path d="M109.441 12.6172L103.58 22.7643" stroke="#E8EAED" stroke-width="6" stroke-miterlimit="10" stroke-linecap="round"/>
<path d="M80.2523 74.6719C80.2523 74.6719 56.1789 88.2922 51.3964 101.472C49.6355 106.329 52.7132 111.683 57.839 112.31C62.0583 112.824 68.4339 111.134 77.6335 103.229V114.932" stroke="#C5221F" stroke-width="9.2703" stroke-miterlimit="10" stroke-linejoin="round"/>
<path d="M80.2525 74.6719C80.2525 74.6719 67.1172 82.1032 58.3242 91.2953" stroke="#B31412" stroke-width="9.2703" stroke-miterlimit="10" stroke-linejoin="round"/>
<path d="M81.0801 74.5488V141.151H92.0927" stroke="#C5221F" stroke-width="9.2703" stroke-miterlimit="10" stroke-linejoin="round"/>
<path d="M81.0801 74.5488V92.269" stroke="#B31412" stroke-width="9.2703" stroke-miterlimit="10" stroke-linejoin="round"/>
<path d="M73.9998 90.3364C90.7812 90.3364 104.385 76.7324 104.385 59.9509C104.385 43.1695 90.7812 29.5654 73.9998 29.5654C57.2183 29.5654 43.6143 43.1695 43.6143 59.9509C43.6143 76.7324 57.2183 90.3364 73.9998 90.3364Z" fill="#D93025"/>
<path d="M76.3731 57.6529C69.5349 61.5439 60.6972 59.9174 57.627 50.3447" stroke="white" stroke-width="6.6216" stroke-miterlimit="10"/>
<path d="M60.6671 50.7664C58.7197 49.7628 57.3096 49.7143 54.6348 50.4269" stroke="white" stroke-width="6.6216" stroke-miterlimit="10"/>
<path d="M39.4102 82.3863C49.9901 89.799 67.7886 79.6668 72.5078 69.2622" stroke="#EE675C" stroke-width="9.2703" stroke-miterlimit="10" stroke-linejoin="round"/>
<path d="M108.59 82.3863C98.0099 89.799 80.2114 79.6668 75.4922 69.2622" stroke="#EE675C" stroke-width="9.2703" stroke-miterlimit="10" stroke-linejoin="round"/>
</svg>
