<svg width="148" height="146" viewBox="0 0 148 146" fill="none" xmlns="http://www.w3.org/2000/svg">
<path d="M64.8638 144.881C86.2914 144.881 103.662 143.501 103.662 141.799C103.662 140.097 86.2914 138.718 64.8638 138.718C43.4363 138.718 26.0659 140.097 26.0659 141.799C26.0659 143.501 43.4363 144.881 64.8638 144.881Z" fill="#F1F3F4"/>
<path d="M74 3.11914V14.8406" stroke="#E8EAED" stroke-width="6" stroke-miterlimit="10" stroke-linecap="round"/>
<path d="M38.5596 12.6172L44.4203 22.7643" stroke="#E8EAED" stroke-width="6" stroke-miterlimit="10" stroke-linecap="round"/>
<path d="M12.6172 38.5596L22.7643 44.4203" stroke="#E8EAED" stroke-width="6" stroke-miterlimit="10" stroke-linecap="round"/>
<path d="M3.11914 74H14.8406" stroke="#E8EAED" stroke-width="6" stroke-miterlimit="10" stroke-linecap="round"/>
<path d="M12.6172 109.44L22.7643 103.58" stroke="#E8EAED" stroke-width="6" stroke-miterlimit="10" stroke-linecap="round"/>
<path d="M135.383 109.44L125.236 103.58" stroke="#E8EAED" stroke-width="6" stroke-miterlimit="10" stroke-linecap="round"/>
<path d="M144.881 74H133.159" stroke="#E8EAED" stroke-width="6" stroke-miterlimit="10" stroke-linecap="round"/>
<path d="M135.383 38.5596L125.236 44.4203" stroke="#E8EAED" stroke-width="6" stroke-miterlimit="10" stroke-linecap="round"/>
<path d="M109.44 12.6172L103.58 22.7643" stroke="#E8EAED" stroke-width="6" stroke-miterlimit="10" stroke-linecap="round"/>
<path d="M74.6899 88.5122L97.6889 116.141C99.8452 118.73 99.9981 122.442 98.062 125.199L86.8702 141.151H98.8566" stroke="#1967D2" stroke-width="9.2703" stroke-miterlimit="10" stroke-linejoin="round"/>
<path d="M79.2339 82.2598L41.9282 141.151H30.8857" stroke="#1967D2" stroke-width="9.2703" stroke-miterlimit="10" stroke-linejoin="round"/>
<path d="M74.6899 88.5122L92.1154 109.441" stroke="#185ABC" stroke-width="9.2703" stroke-miterlimit="10" stroke-linejoin="round"/>
<path d="M79.234 82.2598L62.0137 109.441" stroke="#185ABC" stroke-width="9.2703" stroke-miterlimit="10" stroke-linejoin="round"/>
<path d="M47.5914 85.1285L43.2266 69.2139C41.1897 61.79 43.9243 53.8775 50.1095 49.2964L70.6239 34.098C71.5752 33.393 72.1348 32.2812 72.1348 31.0987V22.4102" stroke="#4285F4" stroke-width="9.2703" stroke-miterlimit="10" stroke-linejoin="round"/>
<path d="M100.409 85.1285L104.773 69.2139C106.81 61.79 104.076 53.8775 97.8905 49.2964L77.3761 34.098C76.4248 33.393 75.8652 32.2812 75.8652 31.0987V22.4102" stroke="#4285F4" stroke-width="9.2703" stroke-miterlimit="10" stroke-linejoin="round"/>
<path d="M73.9513 107.355C90.7314 107.382 104.359 93.7985 104.385 77.0184L43.6143 76.9214C43.5882 93.7015 57.1675 107.329 73.9513 107.355Z" fill="#1A73E8"/>
<path d="M63.8755 95.2231C68.867 101.371 77.7458 103.076 84.125 95.2231" stroke="white" stroke-width="6.6641" stroke-miterlimit="10"/>
</svg>
