<svg width="23" height="30" viewBox="0 0 23 30" fill="none" xmlns="http://www.w3.org/2000/svg">
    <path d="M20 10H18.5714V7.14286C18.5714 3.2 15.3714 0 11.4286 0C7.48571 0 4.28571 3.2 4.28571 7.14286V10H2.85714C1.28571 10 0 11.2857 0 12.8571V27.1429C0 28.7143 1.28571 30 2.85714 30H20C21.5714 30 22.8571 28.7143 22.8571 27.1429V12.8571C22.8571 11.2857 21.5714 10 20 10ZM11.4286 22.8571C9.85714 22.8571 8.57143 21.5714 8.57143 20C8.57143 18.4286 9.85714 17.1429 11.4286 17.1429C13 17.1429 14.2857 18.4286 14.2857 20C14.2857 21.5714 13 22.8571 11.4286 22.8571ZM15.8571 10H7V7.14286C7 4.7 8.98571 2.71429 11.4286 2.71429C13.8714 2.71429 15.8571 4.7 15.8571 7.14286V10Z" fill="#3C4043"/>
</svg>
