<?xml version="1.0" encoding="UTF-8"?>
<svg width="169px" height="23px" viewBox="0 0 169 23" version="1.1" xmlns="http://www.w3.org/2000/svg" xmlns:xlink="http://www.w3.org/1999/xlink">
    <!-- Generator: Sketch 55.2 (78181) - https://sketchapp.com -->
    <title>logo-sitekit-beta</title>
    <desc>Created with Sketch.</desc>
    <g id="Page-1" stroke="none" stroke-width="1" fill="none" fill-rule="evenodd">
        <g id="logo-sitekit-beta" fill="#5F6368" fill-rule="nonzero">
            <polygon id="Path" points="62.0891 1.66406 65.1276 1.66406 65.1276 1.76387 58.3409 9.59293 65.5823 19.8173 65.5823 19.9171 62.699 19.9171 56.7552 11.4005 53.9496 14.6386 53.9496 19.9171 51.5986 19.9171 51.5986 1.66406 53.9496 1.66406 53.9496 11.0789 54.0494 11.0789"></polygon>
            <path d="M69.9845,3.11652 C69.9845,3.57119 69.8182,3.9704 69.4966,4.29199 C69.175,4.61358 68.7869,4.77992 68.3211,4.77992 C67.8664,4.77992 67.4672,4.61358 67.1456,4.29199 C66.8241,3.9704 66.6577,3.58228 66.6577,3.11652 C66.6577,2.65077 66.8241,2.26265 67.1456,1.94106 C67.4672,1.61946 67.8554,1.45312 68.3211,1.45312 C68.7758,1.45312 69.175,1.61946 69.4966,1.94106 C69.8293,2.27374 69.9845,2.66186 69.9845,3.11652 Z M69.5077,7.43027 L69.5077,19.9279 L67.1567,19.9279 L67.1567,7.43027 L69.5077,7.43027 Z" id="Shape"></path>
            <path d="M77.0155,20.1276 C75.9953,20.1276 75.1525,19.8171 74.476,19.185 C73.7996,18.5529 73.4558,17.6768 73.4447,16.5568 L73.4447,9.57055 L71.249,9.57055 L71.249,7.43031 L73.4447,7.43031 L73.4447,3.60449 L75.7956,3.60449 L75.7956,7.43031 L78.8563,7.43031 L78.8563,9.57055 L75.7956,9.57055 L75.7956,15.7917 C75.7956,16.6234 75.962,17.1889 76.2836,17.4883 C76.6052,17.7877 76.9711,17.9319 77.3814,17.9319 C77.5699,17.9319 77.7474,17.9097 77.9359,17.8654 C78.1244,17.821 78.2797,17.7656 78.4349,17.699 L79.1779,19.7949 C78.5458,20.0167 77.8361,20.1276 77.0155,20.1276 Z" id="Path"></path>
            <path d="M2.67253,18.9517 C1.37508,18.0091 0.48793,16.6783 0,14.9706 L2.88322,13.7951 C3.17155,14.8708 3.68166,15.7358 4.42464,16.4233 C5.15654,17.0997 6.04368,17.4435 7.07499,17.4435 C8.03976,17.4435 8.84928,17.1995 9.52573,16.7005 C10.2022,16.2015 10.5349,15.514 10.5349,14.649 C10.5349,13.8506 10.2354,13.1963 9.64771,12.6751 C9.05998,12.1539 8.02867,11.6327 6.55379,11.1115 L5.33396,10.679 C4.02542,10.2244 2.92758,9.57009 2.04044,8.71621 C1.15329,7.86233 0.709717,6.74231 0.709717,5.34505 C0.709717,4.38028 0.975861,3.49314 1.49706,2.67253 C2.01826,1.85192 2.75015,1.20874 3.69274,0.720806 C4.62425,0.243965 5.67773,0 6.86429,0 C8.57205,0 9.93603,0.410305 10.9452,1.242 C11.9654,2.0737 12.6418,2.99412 12.9856,4.03651 L10.2354,5.20089 C10.0358,4.57989 9.6588,4.03651 9.09325,3.57076 C8.52769,3.09392 7.80688,2.86105 6.91974,2.86105 C6.03259,2.86105 5.27852,3.08283 4.66861,3.53749 C4.05869,3.99216 3.75928,4.5688 3.75928,5.27852 C3.75928,5.95497 4.03651,6.49834 4.57989,6.94192 C5.12327,7.3744 5.97715,7.7958 7.14152,8.19501 L8.36135,8.60532 C10.0358,9.18196 11.3222,9.94713 12.2426,10.8786 C13.163,11.8101 13.6177,13.0632 13.6177,14.6268 C13.6177,15.9021 13.2961,16.9667 12.6418,17.8205 C11.9876,18.6744 11.1559,19.3176 10.1467,19.739 C9.1376,20.1604 8.09521,20.36 7.03063,20.36 C5.41159,20.36 3.95889,19.8942 2.67253,18.9517 Z" id="Path"></path>
            <path d="M15.9686,3.44878 C15.5805,3.06065 15.3809,2.58381 15.3809,2.01826 C15.3809,1.4527 15.5805,0.97586 15.9686,0.587734 C16.3567,0.199608 16.8336,0 17.3991,0 C17.9647,0 18.4415,0.199608 18.8296,0.587734 C19.2178,0.97586 19.4174,1.4527 19.4174,2.01826 C19.4174,2.58381 19.2178,3.06065 18.8296,3.44878 C18.4415,3.83691 17.9647,4.03651 17.3991,4.03651 C16.8336,4.02542 16.3567,3.83691 15.9686,3.44878 Z M15.9021,6.04368 L18.8962,6.04368 L18.8962,19.9275 L15.9021,19.9275 L15.9021,6.04368 Z" id="Shape"></path>
            <path d="M25.4055,19.8496 C24.8621,19.65 24.4185,19.3839 24.0747,19.0623 C23.2985,18.2861 22.8993,17.2215 22.8993,15.8797 L22.8993,8.6827 L20.4707,8.6827 L20.4707,6.04344 L22.8993,6.04344 L22.8993,2.12891 L25.8934,2.12891 L25.8934,6.05453 L29.2645,6.05453 L29.2645,8.69379 L25.8934,8.69379 L25.8934,15.2254 C25.8934,15.9684 26.0375,16.5007 26.3259,16.8001 C26.6031,17.166 27.0689,17.3435 27.7453,17.3435 C28.0558,17.3435 28.3219,17.2991 28.5659,17.2215 C28.7988,17.1439 29.0538,17.0108 29.3311,16.8223 L29.3311,19.7388 C28.7322,20.016 28.0114,20.1491 27.1576,20.1491 C26.5255,20.1491 25.9488,20.0493 25.4055,19.8496 Z" id="Path"></path>
            <path d="M33.6227,19.4068 C32.5471,18.7747 31.6932,17.8986 31.0944,16.7786 C30.4845,15.6586 30.1851,14.4055 30.1851,13.0083 C30.1851,11.6775 30.4845,10.4577 31.0722,9.31551 C31.6599,8.1844 32.4805,7.27507 33.534,6.60971 C34.5875,5.94435 35.7852,5.60059 37.127,5.60059 C38.5242,5.60059 39.733,5.91109 40.7643,6.521 C41.7845,7.142 42.5718,7.98479 43.1041,9.04937 C43.6364,10.125 43.9025,11.3227 43.9025,12.6756 C43.9025,12.9306 43.8804,13.2522 43.8249,13.6293 L33.1792,13.6293 C33.2901,14.9156 33.7447,15.9137 34.5543,16.6123 C35.3638,17.3109 36.2953,17.6547 37.3709,17.6547 C38.2248,17.6547 38.9678,17.4662 39.5888,17.0669 C40.2209,16.6788 40.7199,16.1465 41.097,15.4701 L43.6253,16.6677 C42.971,17.8099 42.1172,18.7082 41.0637,19.3624 C40.0102,20.0167 38.746,20.3383 37.2822,20.3383 C35.9182,20.3605 34.6984,20.05 33.6227,19.4068 Z M40.853,11.3559 C40.8197,10.868 40.6645,10.3801 40.3872,9.90324 C40.11,9.4264 39.6997,9.0161 39.1452,8.69451 C38.5908,8.37292 37.9143,8.20658 37.1159,8.20658 C36.1511,8.20658 35.3416,8.4949 34.6762,9.06046 C34.0109,9.62601 33.5562,10.4023 33.3012,11.3559 L40.853,11.3559 Z" id="Shape"></path>
            <path d="M86,19.942623 L86,10.9918033 L88.5266393,10.9918033 C89.3053318,10.9918033 89.9938495,11.1639327 90.5922131,11.5081967 C91.1905768,11.8524607 91.6526623,12.3422099 91.9784836,12.977459 C92.3043049,13.6127081 92.4692623,14.342209 92.4733607,15.1659836 L92.4733607,15.7377049 C92.4733607,16.5819714 92.3104524,17.3217181 91.9846311,17.9569672 C91.6588098,18.5922163 91.1936506,19.0799163 90.5891393,19.420082 C89.9846281,19.7602476 89.2807417,19.9344262 88.477459,19.942623 L86,19.942623 Z M87.1803279,11.9631148 L87.1803279,18.977459 L88.4221311,18.977459 C89.3319718,18.977459 90.0399565,18.694675 90.5461066,18.1290984 C91.0522566,17.5635218 91.3053279,16.7582019 91.3053279,15.7131148 L91.3053279,15.1905738 C91.3053279,14.1741752 91.0666007,13.3842241 90.5891393,12.8206967 C90.1116779,12.2571693 89.4344306,11.9713115 88.557377,11.9631148 L87.1803279,11.9631148 Z M96.8381148,20.0655738 C95.9364709,20.0655738 95.2028717,19.7694702 94.6372951,19.1772541 C94.0717185,18.585038 93.7889344,17.7930377 93.7889344,16.8012295 L93.7889344,16.5922131 C93.7889344,15.9323738 93.9149578,15.3432403 94.1670082,14.8247951 C94.4190586,14.3063499 94.7715141,13.9006162 95.2243852,13.607582 C95.6772564,13.3145477 96.1680301,13.1680328 96.6967213,13.1680328 C97.5614797,13.1680328 98.2336042,13.452866 98.7131148,14.022541 C99.1926253,14.592216 99.432377,15.4077816 99.432377,16.4692623 L99.432377,16.942623 L94.9262295,16.942623 C94.942623,17.5983639 95.1342195,18.1280718 95.5010246,18.5317623 C95.8678297,18.9354528 96.3340136,19.1372951 96.8995902,19.1372951 C97.3012315,19.1372951 97.641392,19.0553287 97.920082,18.8913934 C98.1987719,18.7274582 98.4426219,18.5102473 98.6516393,18.2397541 L99.3463115,18.7807377 C98.7889344,19.6372994 97.9528744,20.0655738 96.8381148,20.0655738 Z M96.6967213,14.102459 C96.2377026,14.102459 95.8524606,14.2694655 95.5409836,14.6034836 C95.2295066,14.9375017 95.0368856,15.4057347 94.9631148,16.0081967 L98.295082,16.0081967 L98.295082,15.9221311 C98.2622949,15.3442594 98.1065588,14.896518 97.8278689,14.5788934 C97.5491789,14.2612689 97.1721335,14.102459 96.6967213,14.102459 Z M102.942623,18.3995902 L104.590164,13.2909836 L105.752049,13.2909836 L103.366803,19.942623 L102.5,19.942623 L100.090164,13.2909836 L101.252049,13.2909836 L102.942623,18.3995902 Z M109.606557,20.0655738 C108.704914,20.0655738 107.971314,19.7694702 107.405738,19.1772541 C106.840161,18.585038 106.557377,17.7930377 106.557377,16.8012295 L106.557377,16.5922131 C106.557377,15.9323738 106.6834,15.3432403 106.935451,14.8247951 C107.187501,14.3063499 107.539957,13.9006162 107.992828,13.607582 C108.445699,13.3145477 108.936473,13.1680328 109.465164,13.1680328 C110.329922,13.1680328 111.002047,13.452866 111.481557,14.022541 C111.961068,14.592216 112.20082,15.4077816 112.20082,16.4692623 L112.20082,16.942623 L107.694672,16.942623 C107.711066,17.5983639 107.902662,18.1280718 108.269467,18.5317623 C108.636272,18.9354528 109.102456,19.1372951 109.668033,19.1372951 C110.069674,19.1372951 110.409835,19.0553287 110.688525,18.8913934 C110.967215,18.7274582 111.211065,18.5102473 111.420082,18.2397541 L112.114754,18.7807377 C111.557377,19.6372994 110.721317,20.0655738 109.606557,20.0655738 Z M109.465164,14.102459 C109.006145,14.102459 108.620903,14.2694655 108.309426,14.6034836 C107.997949,14.9375017 107.805328,15.4057347 107.731557,16.0081967 L111.063525,16.0081967 L111.063525,15.9221311 C111.030738,15.3442594 110.875001,14.896518 110.596311,14.5788934 C110.317622,14.2612689 109.940576,14.102459 109.465164,14.102459 Z M114.752049,19.942623 L113.614754,19.942623 L113.614754,10.5 L114.752049,10.5 L114.752049,19.942623 Z M116.270492,16.5553279 C116.270492,15.9036853 116.398564,15.3176256 116.654713,14.7971311 C116.910862,14.2766367 117.267416,13.8750014 117.724385,13.5922131 C118.181355,13.3094248 118.702866,13.1680328 119.288934,13.1680328 C120.194677,13.1680328 120.927251,13.4815542 121.48668,14.1086066 C122.046109,14.7356589 122.32582,15.5696669 122.32582,16.6106557 L122.32582,16.6905738 C122.32582,17.338118 122.201846,17.9190548 121.953893,18.4334016 C121.705941,18.9477485 121.351437,19.3483592 120.890369,19.6352459 C120.429301,19.9221326 119.899593,20.0655738 119.30123,20.0655738 C118.399586,20.0655738 117.66906,19.7520523 117.109631,19.125 C116.550202,18.4979477 116.270492,17.6680328 116.270492,16.6352459 L116.270492,16.5553279 Z M117.413934,16.6905738 C117.413934,17.4282824 117.585039,18.0204896 117.927254,18.4672131 C118.269469,18.9139367 118.727456,19.1372951 119.30123,19.1372951 C119.879101,19.1372951 120.338113,18.9108629 120.678279,18.4579918 C121.018444,18.0051207 121.188525,17.3709057 121.188525,16.5553279 C121.188525,15.825816 121.015371,15.2346334 120.669057,14.7817623 C120.322744,14.3288912 119.862708,14.102459 119.288934,14.102459 C118.727456,14.102459 118.274592,14.3258174 117.930328,14.772541 C117.586064,15.2192645 117.413934,15.8586024 117.413934,16.6905738 Z M129.370902,16.6905738 C129.370902,17.7028739 129.139347,18.5184395 128.67623,19.1372951 C128.213112,19.7561506 127.58607,20.0655738 126.795082,20.0655738 C125.987701,20.0655738 125.352461,19.8094288 124.889344,19.2971311 L124.889344,22.5 L123.752049,22.5 L123.752049,13.2909836 L124.790984,13.2909836 L124.846311,14.0286885 C125.309429,13.4549152 125.952865,13.1680328 126.776639,13.1680328 C127.575824,13.1680328 128.207989,13.4692593 128.673156,14.0717213 C129.138322,14.6741833 129.370902,15.5122897 129.370902,16.5860656 L129.370902,16.6905738 Z M128.233607,16.5614754 C128.233607,15.8114717 128.073772,15.2192645 127.754098,14.7848361 C127.434425,14.3504077 126.995904,14.1331967 126.438525,14.1331967 C125.749997,14.1331967 125.233608,14.4385215 124.889344,15.0491803 L124.889344,18.227459 C125.22951,18.8340194 125.749996,19.1372951 126.45082,19.1372951 C126.995904,19.1372951 127.429302,18.9211087 127.751025,18.4887295 C128.072748,18.0563503 128.233607,17.4139387 128.233607,16.5614754 Z M133.57582,20.0655738 C132.674176,20.0655738 131.940577,19.7694702 131.375,19.1772541 C130.809423,18.585038 130.526639,17.7930377 130.526639,16.8012295 L130.526639,16.5922131 C130.526639,15.9323738 130.652663,15.3432403 130.904713,14.8247951 C131.156764,14.3063499 131.509219,13.9006162 131.96209,13.607582 C132.414961,13.3145477 132.905735,13.1680328 133.434426,13.1680328 C134.299185,13.1680328 134.971309,13.452866 135.45082,14.022541 C135.93033,14.592216 136.170082,15.4077816 136.170082,16.4692623 L136.170082,16.942623 L131.663934,16.942623 C131.680328,17.5983639 131.871924,18.1280718 132.23873,18.5317623 C132.605535,18.9354528 133.071718,19.1372951 133.637295,19.1372951 C134.038936,19.1372951 134.379097,19.0553287 134.657787,18.8913934 C134.936477,18.7274582 135.180327,18.5102473 135.389344,18.2397541 L136.084016,18.7807377 C135.526639,19.6372994 134.690579,20.0655738 133.57582,20.0655738 Z M133.434426,14.102459 C132.975408,14.102459 132.590165,14.2694655 132.278689,14.6034836 C131.967212,14.9375017 131.774591,15.4057347 131.70082,16.0081967 L135.032787,16.0081967 L135.032787,15.9221311 C135,15.3442594 134.844264,14.896518 134.565574,14.5788934 C134.286884,14.2612689 133.909838,14.102459 133.434426,14.102459 Z M140.70082,14.3114754 C140.528688,14.2827867 140.342214,14.2684426 140.141393,14.2684426 C139.395488,14.2684426 138.889346,14.5860624 138.622951,15.2213115 L138.622951,19.942623 L137.485656,19.942623 L137.485656,13.2909836 L138.592213,13.2909836 L138.610656,14.0594262 C138.983608,13.465161 139.512292,13.1680328 140.196721,13.1680328 C140.418034,13.1680328 140.586065,13.196721 140.70082,13.2540984 L140.70082,14.3114754 Z M145.040984,19.942623 L145.040984,10.9918033 L147.967213,10.9918033 C148.938529,10.9918033 149.669055,11.1926209 150.158811,11.5942623 C150.648568,11.9959036 150.893443,12.59016 150.893443,13.3770492 C150.893443,13.7950841 150.774591,14.1649574 150.536885,14.4866803 C150.299179,14.8084032 149.975412,15.0573762 149.565574,15.2336066 C150.049183,15.3688531 150.431351,15.6260227 150.71209,16.005123 C150.992829,16.3842232 151.133197,16.836063 151.133197,17.3606557 C151.133197,18.1639384 150.872953,18.7950797 150.352459,19.2540984 C149.831965,19.713117 149.096316,19.942623 148.145492,19.942623 L145.040984,19.942623 Z M146.221311,15.7561475 L146.221311,18.977459 L148.170082,18.977459 C148.719265,18.977459 149.152662,18.8350424 149.470287,18.5502049 C149.787911,18.2653674 149.946721,17.8729533 149.946721,17.3729508 C149.946721,16.2950766 149.360662,15.7561475 148.188525,15.7561475 L146.221311,15.7561475 Z M146.221311,14.8094262 L148.004098,14.8094262 C148.520494,14.8094262 148.9334,14.6803292 149.242828,14.4221311 C149.552256,14.1639331 149.706967,13.8135268 149.706967,13.3709016 C149.706967,12.8790959 149.563526,12.5215175 149.276639,12.2981557 C148.989753,12.074794 148.553282,11.9631148 147.967213,11.9631148 L146.221311,11.9631148 L146.221311,14.8094262 Z M155.461066,20.0655738 C154.559422,20.0655738 153.825823,19.7694702 153.260246,19.1772541 C152.694669,18.585038 152.411885,17.7930377 152.411885,16.8012295 L152.411885,16.5922131 C152.411885,15.9323738 152.537909,15.3432403 152.789959,14.8247951 C153.042009,14.3063499 153.394465,13.9006162 153.847336,13.607582 C154.300207,13.3145477 154.790981,13.1680328 155.319672,13.1680328 C156.184431,13.1680328 156.856555,13.452866 157.336066,14.022541 C157.815576,14.592216 158.055328,15.4077816 158.055328,16.4692623 L158.055328,16.942623 L153.54918,16.942623 C153.565574,17.5983639 153.75717,18.1280718 154.123975,18.5317623 C154.490781,18.9354528 154.956964,19.1372951 155.522541,19.1372951 C155.924182,19.1372951 156.264343,19.0553287 156.543033,18.8913934 C156.821723,18.7274582 157.065573,18.5102473 157.27459,18.2397541 L157.969262,18.7807377 C157.411885,19.6372994 156.575825,20.0655738 155.461066,20.0655738 Z M155.319672,14.102459 C154.860653,14.102459 154.475411,14.2694655 154.163934,14.6034836 C153.852457,14.9375017 153.659836,15.4057347 153.586066,16.0081967 L156.918033,16.0081967 L156.918033,15.9221311 C156.885246,15.3442594 156.72951,14.896518 156.45082,14.5788934 C156.17213,14.2612689 155.795084,14.102459 155.319672,14.102459 Z M160.913934,11.6803279 L160.913934,13.2909836 L162.155738,13.2909836 L162.155738,14.170082 L160.913934,14.170082 L160.913934,18.295082 C160.913934,18.5614767 160.969262,18.7612698 161.079918,18.8944672 C161.190574,19.0276646 161.379097,19.0942623 161.645492,19.0942623 C161.77664,19.0942623 161.956966,19.0696724 162.186475,19.0204918 L162.186475,19.942623 C161.887294,20.0245906 161.596313,20.0655738 161.313525,20.0655738 C160.805325,20.0655738 160.422132,19.9118868 160.163934,19.6045082 C159.905736,19.2971296 159.776639,18.8606586 159.776639,18.295082 L159.776639,14.170082 L158.565574,14.170082 L158.565574,13.2909836 L159.776639,13.2909836 L159.776639,11.6803279 L160.913934,11.6803279 Z M167.590164,19.942623 C167.52459,19.8114748 167.471312,19.5778705 167.430328,19.2418033 C166.901637,19.7909864 166.270495,20.0655738 165.536885,20.0655738 C164.881144,20.0655738 164.34324,19.8801248 163.923156,19.5092213 C163.503072,19.1383178 163.293033,18.6680328 163.293033,18.0983607 C163.293033,17.4057342 163.55635,16.8678298 164.082992,16.4846311 C164.609634,16.1014325 165.350405,15.9098361 166.305328,15.9098361 L167.411885,15.9098361 L167.411885,15.3872951 C167.411885,14.9897521 167.293033,14.6731569 167.055328,14.4375 C166.817622,14.2018431 166.467215,14.0840164 166.004098,14.0840164 C165.598359,14.0840164 165.258198,14.1864744 164.983607,14.3913934 C164.709015,14.5963125 164.571721,14.8442608 164.571721,15.1352459 L163.428279,15.1352459 C163.428279,14.803277 163.546105,14.4825835 163.781762,14.1731557 C164.017419,13.863728 164.337088,13.6188534 164.740779,13.4385246 C165.144469,13.2581958 165.588112,13.1680328 166.071721,13.1680328 C166.838119,13.1680328 167.438522,13.3596292 167.872951,13.7428279 C168.307379,14.1260265 168.532787,14.6536852 168.54918,15.3258197 L168.54918,18.3872951 C168.54918,18.9979539 168.627048,19.4836048 168.782787,19.8442623 L168.782787,19.942623 L167.590164,19.942623 Z M165.702869,19.0758197 C166.059428,19.0758197 166.397539,18.9836075 166.717213,18.7991803 C167.036887,18.6147532 167.268442,18.3750015 167.411885,18.079918 L167.411885,16.7151639 L166.520492,16.7151639 C165.127042,16.7151639 164.430328,17.1229467 164.430328,17.9385246 C164.430328,18.2950838 164.549179,18.5737695 164.786885,18.7745902 C165.024591,18.9754108 165.329916,19.0758197 165.702869,19.0758197 Z" id="DeveloperBeta"></path>
        </g>
    </g>
</svg>