<?xml version="1.0" encoding="UTF-8"?>
<svg width="43px" height="44px" viewBox="0 0 43 44" version="1.1" xmlns="http://www.w3.org/2000/svg" xmlns:xlink="http://www.w3.org/1999/xlink">
    <!-- Generator: Sketch 52.4 (67378) - http://www.bohemiancoding.com/sketch -->
    <title>a</title>
    <desc>Created with Sketch.</desc>
    <defs>
        <path d="M42.5,18 L22,18 L22,26.5 L33.8,26.5 C32.7,31.9 28.1,35 22,35 C14.8,35 9,29.2 9,22 C9,14.8 14.8,9 22,9 C25.1,9 27.9,10.1 30.1,11.9 L36.5,5.5 C32.6,2.1 27.6,0 22,0 C9.8,0 0,9.8 0,22 C0,34.2 9.8,44 22,44 C33,44 43,36 43,22 C43,20.7 42.8,19.3 42.5,18 Z" id="path-1"></path>
    </defs>
    <g id="Page-1" stroke="none" stroke-width="1" fill="none" fill-rule="evenodd">
        <mask id="mask-2" fill="white">
            <use xlink:href="#path-1"></use>
        </mask>
        <use id="a" fill="#FFFFFF" xlink:href="#path-1"></use>
    </g>
</svg>