<svg width="80" height="21" viewBox="0 0 80 21" fill="none" xmlns="http://www.w3.org/2000/svg">
    <path d="M62.0891 1.66406H65.1276V1.76387L58.3409 9.59293L65.5823 19.8173V19.9171H62.699L56.7552 11.4005L53.9496 14.6386V19.9171H51.5986V1.66406H53.9496V11.0789H54.0494L62.0891 1.66406Z" fill="#5F6368"/>
    <path d="M69.9845 3.11652C69.9845 3.57119 69.8182 3.9704 69.4966 4.29199C69.175 4.61358 68.7869 4.77992 68.3211 4.77992C67.8664 4.77992 67.4672 4.61358 67.1456 4.29199C66.8241 3.9704 66.6577 3.58228 66.6577 3.11652C66.6577 2.65077 66.8241 2.26265 67.1456 1.94106C67.4672 1.61946 67.8554 1.45312 68.3211 1.45312C68.7758 1.45312 69.175 1.61946 69.4966 1.94106C69.8293 2.27374 69.9845 2.66186 69.9845 3.11652ZM69.5077 7.43027V19.9279H67.1567V7.43027H69.5077Z" fill="#5F6368"/>
    <path d="M77.0155 20.1276C75.9953 20.1276 75.1525 19.8171 74.476 19.185C73.7996 18.5529 73.4558 17.6768 73.4447 16.5568V9.57055H71.249V7.43031H73.4447V3.60449H75.7956V7.43031H78.8563V9.57055H75.7956V15.7917C75.7956 16.6234 75.962 17.1889 76.2836 17.4883C76.6052 17.7877 76.9711 17.9319 77.3814 17.9319C77.5699 17.9319 77.7474 17.9097 77.9359 17.8654C78.1244 17.821 78.2797 17.7656 78.4349 17.699L79.1779 19.7949C78.5458 20.0167 77.8361 20.1276 77.0155 20.1276Z" fill="#5F6368"/>
    <path d="M2.67253 18.9517C1.37508 18.0091 0.48793 16.6783 0 14.9706L2.88322 13.7951C3.17155 14.8708 3.68166 15.7358 4.42464 16.4233C5.15654 17.0997 6.04368 17.4435 7.07499 17.4435C8.03976 17.4435 8.84928 17.1995 9.52573 16.7005C10.2022 16.2015 10.5349 15.514 10.5349 14.649C10.5349 13.8506 10.2354 13.1963 9.64771 12.6751C9.05998 12.1539 8.02867 11.6327 6.55379 11.1115L5.33396 10.679C4.02542 10.2244 2.92758 9.57009 2.04044 8.71621C1.15329 7.86233 0.709717 6.74231 0.709717 5.34505C0.709717 4.38028 0.975861 3.49314 1.49706 2.67253C2.01826 1.85192 2.75015 1.20874 3.69274 0.720806C4.62425 0.243965 5.67773 0 6.86429 0C8.57205 0 9.93603 0.410305 10.9452 1.242C11.9654 2.0737 12.6418 2.99412 12.9856 4.03651L10.2354 5.20089C10.0358 4.57989 9.6588 4.03651 9.09325 3.57076C8.52769 3.09392 7.80688 2.86105 6.91974 2.86105C6.03259 2.86105 5.27852 3.08283 4.66861 3.53749C4.05869 3.99216 3.75928 4.5688 3.75928 5.27852C3.75928 5.95497 4.03651 6.49834 4.57989 6.94192C5.12327 7.3744 5.97715 7.7958 7.14152 8.19501L8.36135 8.60532C10.0358 9.18196 11.3222 9.94713 12.2426 10.8786C13.163 11.8101 13.6177 13.0632 13.6177 14.6268C13.6177 15.9021 13.2961 16.9667 12.6418 17.8205C11.9876 18.6744 11.1559 19.3176 10.1467 19.739C9.1376 20.1604 8.09521 20.36 7.03063 20.36C5.41159 20.36 3.95889 19.8942 2.67253 18.9517Z" fill="#5F6368"/>
    <path d="M15.9686 3.44878C15.5805 3.06065 15.3809 2.58381 15.3809 2.01826C15.3809 1.4527 15.5805 0.97586 15.9686 0.587734C16.3567 0.199608 16.8336 0 17.3991 0C17.9647 0 18.4415 0.199608 18.8296 0.587734C19.2178 0.97586 19.4174 1.4527 19.4174 2.01826C19.4174 2.58381 19.2178 3.06065 18.8296 3.44878C18.4415 3.83691 17.9647 4.03651 17.3991 4.03651C16.8336 4.02542 16.3567 3.83691 15.9686 3.44878ZM15.9021 6.04368H18.8962V19.9275H15.9021V6.04368Z" fill="#5F6368"/>
    <path d="M25.4055 19.8496C24.8621 19.65 24.4185 19.3839 24.0747 19.0623C23.2985 18.2861 22.8993 17.2215 22.8993 15.8797V8.6827H20.4707V6.04344H22.8993V2.12891H25.8934V6.05453H29.2645V8.69379H25.8934V15.2254C25.8934 15.9684 26.0375 16.5007 26.3259 16.8001C26.6031 17.166 27.0689 17.3435 27.7453 17.3435C28.0558 17.3435 28.3219 17.2991 28.5659 17.2215C28.7988 17.1439 29.0538 17.0108 29.3311 16.8223V19.7388C28.7322 20.016 28.0114 20.1491 27.1576 20.1491C26.5255 20.1491 25.9488 20.0493 25.4055 19.8496Z" fill="#5F6368"/>
    <path d="M33.6227 19.4068C32.5471 18.7747 31.6932 17.8986 31.0944 16.7786C30.4845 15.6586 30.1851 14.4055 30.1851 13.0083C30.1851 11.6775 30.4845 10.4577 31.0722 9.31551C31.6599 8.1844 32.4805 7.27507 33.534 6.60971C34.5875 5.94435 35.7852 5.60059 37.127 5.60059C38.5242 5.60059 39.733 5.91109 40.7643 6.521C41.7845 7.142 42.5718 7.98479 43.1041 9.04937C43.6364 10.125 43.9025 11.3227 43.9025 12.6756C43.9025 12.9306 43.8804 13.2522 43.8249 13.6293H33.1792C33.2901 14.9156 33.7447 15.9137 34.5543 16.6123C35.3638 17.3109 36.2953 17.6547 37.3709 17.6547C38.2248 17.6547 38.9678 17.4662 39.5888 17.0669C40.2209 16.6788 40.7199 16.1465 41.097 15.4701L43.6253 16.6677C42.971 17.8099 42.1172 18.7082 41.0637 19.3624C40.0102 20.0167 38.746 20.3383 37.2822 20.3383C35.9182 20.3605 34.6984 20.05 33.6227 19.4068ZM40.853 11.3559C40.8197 10.868 40.6645 10.3801 40.3872 9.90324C40.11 9.4264 39.6997 9.0161 39.1452 8.69451C38.5908 8.37292 37.9143 8.20658 37.1159 8.20658C36.1511 8.20658 35.3416 8.4949 34.6762 9.06046C34.0109 9.62601 33.5562 10.4023 33.3012 11.3559H40.853Z" fill="#5F6368"/>
</svg>
