<?xml version="1.0" encoding="UTF-8"?>
<svg width="75px" height="24px" viewBox="0 0 75 24" version="1.1" xmlns="http://www.w3.org/2000/svg" xmlns:xlink="http://www.w3.org/1999/xlink">
    <!-- Generator: Sketch 51.3 (57544) - http://www.bohemiancoding.com/sketch -->
    <title>Group</title>
    <desc>Created with Sketch.</desc>
    <defs></defs>
    <g id="Page-1" stroke="none" stroke-width="1" fill="none" fill-rule="evenodd">
        <g id="lockup_Google_Product_160x24px_clr-copy">
            <g id="Group-14">
                <g id="Group">
                    <path d="M9.4873,18.6181 C4.3343,18.6181 0.0003,14.4411 0.0003,9.3091 C0.0003,4.1781 4.3343,0.0001 9.4873,0.0001 C12.3393,0.0001 14.3683,1.1131 15.8973,2.5661 L14.0943,4.3591 C13.0003,3.3381 11.5173,2.5431 9.4873,2.5431 C5.7243,2.5431 2.7823,5.5631 2.7823,9.3091 C2.7823,13.0561 5.7243,16.0761 9.4873,16.0761 C11.9273,16.0761 13.3193,15.0991 14.2093,14.2141 C14.9383,13.4871 15.4183,12.4431 15.5993,11.0121 L9.4873,11.0121 L9.4873,8.4691 L18.0863,8.4691 C18.1773,8.9231 18.2233,9.4691 18.2233,10.0591 C18.2233,11.9661 17.6983,14.3271 16.0103,16.0081 C14.3683,17.7101 12.2703,18.6181 9.4873,18.6181" id="Fill-3" fill="#4285F4"></path>
                    <path d="M28.9248,12.6245 C28.9248,10.4675 27.3788,8.9915 25.5878,8.9915 C23.7968,8.9915 22.2508,10.4675 22.2508,12.6245 C22.2508,14.7585 23.7968,16.2575 25.5878,16.2575 C27.3788,16.2575 28.9248,14.7585 28.9248,12.6245 M31.5228,12.6245 C31.5228,16.0755 28.8578,18.6185 25.5878,18.6185 C22.3188,18.6185 19.6538,16.0755 19.6538,12.6245 C19.6538,9.1505 22.3188,6.6305 25.5878,6.6305 C28.8578,6.6305 31.5228,9.1505 31.5228,12.6245" id="Fill-5" fill="#EA4335"></path>
                    <path d="M42.2275,12.6245 C42.2275,10.4675 40.6825,8.9915 38.8905,8.9915 C37.0995,8.9915 35.5545,10.4675 35.5545,12.6245 C35.5545,14.7585 37.0995,16.2575 38.8905,16.2575 C40.6825,16.2575 42.2275,14.7585 42.2275,12.6245 M44.8255,12.6245 C44.8255,16.0755 42.1605,18.6185 38.8905,18.6185 C35.6225,18.6185 32.9565,16.0755 32.9565,12.6245 C32.9565,9.1505 35.6225,6.6305 38.8905,6.6305 C42.1605,6.6305 44.8255,9.1505 44.8255,12.6245" id="Fill-7" fill="#FBBC04"></path>
                    <path d="M55.4697,12.647 C55.4697,10.536 54.0557,8.991 52.2547,8.991 C50.4297,8.991 48.9017,10.536 48.9017,12.647 C48.9017,14.736 50.4297,16.257 52.2547,16.257 C54.0557,16.257 55.4697,14.736 55.4697,12.647 Z M57.7957,6.993 L57.7957,17.756 C57.7957,22.184 55.1737,24 52.0717,24 C49.1527,24 47.3967,22.047 46.7357,20.458 L49.0377,19.504 C49.4487,20.48 50.4517,21.638 52.0717,21.638 C54.0557,21.638 55.2877,20.413 55.2877,18.119 L55.2877,17.256 L55.1967,17.256 C54.6037,17.983 53.4627,18.618 52.0267,18.618 C49.0157,18.618 46.2557,16.008 46.2557,12.647 C46.2557,9.264 49.0157,6.63 52.0267,6.63 C53.4627,6.63 54.6037,7.266 55.1967,7.97 L55.2877,7.97 L55.2877,6.993 L57.7957,6.993 Z" id="Fill-9" fill="#4285F4"></path>
                    <polygon id="Fill-11" fill="#34A853" points="59.787 18.255 62.433 18.255 62.433 0.636 59.787 0.636"></polygon>
                    <path d="M66.5156,12.4429 L71.8986,10.2179 C71.6016,9.4689 70.7126,8.9459 69.6626,8.9459 C68.3176,8.9459 66.4486,10.1269 66.5156,12.4429 M72.8326,14.5999 L74.8856,15.9619 C74.2256,16.9389 72.6276,18.6179 69.8686,18.6179 C66.4486,18.6179 63.9776,15.9849 63.9776,12.6249 C63.9776,9.0599 66.4696,6.6309 69.5726,6.6309 C72.6976,6.6309 74.2256,9.1049 74.7266,10.4439 L74.9996,11.1259 L66.9496,14.4409 C67.5656,15.6439 68.5226,16.2569 69.8686,16.2569 C71.2136,16.2569 72.1496,15.5989 72.8326,14.5999" id="Fill-13" fill="#EA4335"></path>
                </g>
            </g>
        </g>
    </g>
</svg>