<?xml version="1.0" encoding="UTF-8"?>
<svg width="169px" height="48px" viewBox="0 0 169 48" version="1.1" xmlns="http://www.w3.org/2000/svg" xmlns:xlink="http://www.w3.org/1999/xlink">
    <!-- Generator: Sketch 55.2 (78181) - https://sketchapp.com -->
    <title>logo-g-beta</title>
    <desc>Created with Sketch.</desc>
    <g id="Page-1" stroke="none" stroke-width="1" fill="none" fill-rule="evenodd">
        <g id="logo-g-beta" fill-rule="nonzero">
            <path d="M2.25253805,12.2519409 L9.65186195,17.9102474 C9.228777,19.1952969 9,20.5700374 9,22 C9,23.4299626 9.228777,24.8047031 9.65186195,26.0897526 L2.25253805,31.7480591 C0.809393905,28.8140208 0,25.5061199 0,22 C0,18.4938801 0.809393905,15.1859792 2.25253805,12.2519409 Z" id="Combined-Shape" fill="#FBBC05"></path>
            <path d="M9.65186195,17.9102474 L2.25253805,12.2519409 C5.83100163,4.97661119 13.3061199,0 22,0 C27.6,0 32.6,2.1 36.5,5.5 L30.1,11.9 C27.9,10.1 25.1,9 22,9 C16.2299626,9 11.3590507,12.7249484 9.65186195,17.9102474 Z" id="Combined-Shape" fill="#EA4335"></path>
            <path d="M2.24956066,31.7420035 L9.64586796,26.0715012 C11.3476258,31.2663086 16.223195,35 22,35 C28.1,35 32.7,31.9 33.8,26.5 L22,26.5 L22,18 L42.5,18 C42.8,19.3 43,20.7 43,22 C43,36 33,44 22,44 C13.3037079,44 5.82685413,39.0206271 2.24956066,31.7420035 Z" id="Combined-Shape" fill="#34A853"></path>
            <path d="M36.3394527,38.5208666 L29.3149064,33.0825082 C31.6117078,31.6329963 33.209743,29.3976252 33.8,26.5 L22,26.5 L22,18 L42.5,18 C42.8,19.3 43,20.7 43,22 C43,29.170479 40.3767465,34.7670059 36.3394527,38.5208666 Z" id="Combined-Shape" fill="#4285F4"></path>
            <path d="M51,43.8770492 L51,31.1967213 L54.5794057,31.1967213 C55.6825533,31.1967213 56.6579534,31.4405713 57.5056352,31.9282787 C58.3533171,32.415986 59.0079383,33.1097974 59.4695184,34.0097336 C59.9310986,34.9096698 60.1647882,35.9431294 60.1705943,37.1101434 L60.1705943,37.920082 C60.1705943,39.1161262 59.9398076,40.1641007 59.4782275,41.0640369 C59.0166473,41.9639731 58.3576716,42.6548815 57.5012807,43.1367828 C56.6448898,43.6186841 55.6477174,43.8654371 54.5097336,43.8770492 L51,43.8770492 Z M52.6721311,32.5727459 L52.6721311,42.5097336 L54.4313525,42.5097336 C55.7202933,42.5097336 56.7232717,42.1091229 57.4403176,41.3078893 C58.1573636,40.5066558 58.5158811,39.3657861 58.5158811,37.8852459 L58.5158811,37.1449795 C58.5158811,35.7050816 58.1776844,34.5859842 57.5012807,33.7876537 C56.8248771,32.9893232 55.8654434,32.584358 54.6229508,32.5727459 L52.6721311,32.5727459 Z M66.3539959,44.0512295 C65.0766671,44.0512295 64.0374015,43.6317494 63.236168,42.7927766 C62.4349345,41.9538039 62.0343238,40.8318035 62.0343238,39.4267418 L62.0343238,39.1306352 C62.0343238,38.1958628 62.2128568,37.3612571 62.5699283,36.626793 C62.9269997,35.892329 63.4263117,35.3175396 64.0678791,34.9024078 C64.7094465,34.4872759 65.4047094,34.2797131 66.1536885,34.2797131 C67.378763,34.2797131 68.3309392,34.6832268 69.0102459,35.4902664 C69.6895526,36.2973059 70.0292008,37.4526906 70.0292008,38.9564549 L70.0292008,39.6270492 L63.6454918,39.6270492 C63.668716,40.5560156 63.9401443,41.306435 64.4597848,41.8783299 C64.9794254,42.4502249 65.6398526,42.736168 66.4410861,42.736168 C67.010078,42.736168 67.4919721,42.620049 67.8867828,42.3878074 C68.2815935,42.1555658 68.6270477,41.8478503 68.9231557,41.4646516 L69.9072746,42.2310451 C69.1176532,43.4445074 67.9332388,44.0512295 66.3539959,44.0512295 Z M66.1536885,35.6034836 C65.503412,35.6034836 64.9576525,35.8400762 64.5163934,36.3132684 C64.0751344,36.7864607 63.8022546,37.4497908 63.6977459,38.3032787 L68.4180328,38.3032787 L68.4180328,38.1813525 C68.3715845,37.3627008 68.1509583,36.7284005 67.7561475,36.2784324 C67.3613368,35.8284643 66.8271892,35.6034836 66.1536885,35.6034836 Z M75.0020492,41.6910861 L77.3360656,34.4538934 L78.9820697,34.4538934 L75.6029713,43.8770492 L74.375,43.8770492 L70.9610656,34.4538934 L72.6070697,34.4538934 L75.0020492,41.6910861 Z M84.442623,44.0512295 C83.1652942,44.0512295 82.1260286,43.6317494 81.3247951,42.7927766 C80.5235616,41.9538039 80.1229508,40.8318035 80.1229508,39.4267418 L80.1229508,39.1306352 C80.1229508,38.1958628 80.3014839,37.3612571 80.6585553,36.626793 C81.0156268,35.892329 81.5149387,35.3175396 82.1565061,34.9024078 C82.7980736,34.4872759 83.4933364,34.2797131 84.2423156,34.2797131 C85.46739,34.2797131 86.4195663,34.6832268 87.098873,35.4902664 C87.7781796,36.2973059 88.1178279,37.4526906 88.1178279,38.9564549 L88.1178279,39.6270492 L81.7341189,39.6270492 C81.757343,40.5560156 82.0287713,41.306435 82.5484119,41.8783299 C83.0680525,42.4502249 83.7284796,42.736168 84.5297131,42.736168 C85.098705,42.736168 85.5805991,42.620049 85.9754098,42.3878074 C86.3702206,42.1555658 86.7156747,41.8478503 87.0117828,41.4646516 L87.9959016,42.2310451 C87.2062802,43.4445074 86.0218658,44.0512295 84.442623,44.0512295 Z M84.2423156,35.6034836 C83.5920391,35.6034836 83.0462795,35.8400762 82.6050205,36.3132684 C82.1637615,36.7864607 81.8908817,37.4497908 81.786373,38.3032787 L86.5066598,38.3032787 L86.5066598,38.1813525 C86.4602115,37.3627008 86.2395853,36.7284005 85.8447746,36.2784324 C85.4499639,35.8284643 84.9158162,35.6034836 84.2423156,35.6034836 Z M91.7320697,43.8770492 L90.1209016,43.8770492 L90.1209016,30.5 L91.7320697,30.5 L91.7320697,43.8770492 Z M93.8831967,39.0783811 C93.8831967,38.1552208 94.0646327,37.3249695 94.4275102,36.5876025 C94.7903877,35.8502354 95.2955056,35.281252 95.9428791,34.8806352 C96.5902526,34.4800185 97.3290601,34.2797131 98.1593238,34.2797131 C99.4424586,34.2797131 100.480273,34.7238685 101.272797,35.6121926 C102.065322,36.5005167 102.461578,37.6820281 102.461578,39.1567623 L102.461578,39.2699795 C102.461578,40.1873338 102.285948,41.0103276 101.934682,41.7389857 C101.583417,42.4676437 101.081202,43.0351756 100.428023,43.4415984 C99.774843,43.8480212 99.0244236,44.0512295 98.1767418,44.0512295 C96.899413,44.0512295 95.8645019,43.6070741 95.0719775,42.71875 C94.279453,41.8304259 93.8831967,40.6547204 93.8831967,39.1915984 L93.8831967,39.0783811 Z M95.5030738,39.2699795 C95.5030738,40.3150667 95.7454723,41.1540269 96.2302766,41.7868852 C96.715081,42.4197436 97.3638962,42.736168 98.1767418,42.736168 C98.9953934,42.736168 99.6456602,42.4153891 100.127561,41.7738217 C100.609463,41.1322543 100.85041,40.2337831 100.85041,39.0783811 C100.85041,38.044906 100.605108,37.2073973 100.114498,36.5658299 C99.6238876,35.9242625 98.9721694,35.6034836 98.1593238,35.6034836 C97.3638963,35.6034836 96.7223385,35.919908 96.2346311,36.5527664 C95.7469238,37.1856247 95.5030738,38.0913534 95.5030738,39.2699795 Z M112.442111,39.2699795 C112.442111,40.7040714 112.114074,41.859456 111.457992,42.736168 C110.801909,43.6128801 109.913598,44.0512295 108.793033,44.0512295 C107.649243,44.0512295 106.74932,43.6883575 106.093238,42.9626025 L106.093238,47.5 L104.48207,47.5 L104.48207,34.4538934 L105.953893,34.4538934 L106.032275,35.4989754 C106.688357,34.6861298 107.599892,34.2797131 108.766906,34.2797131 C109.899084,34.2797131 110.794652,34.7064507 111.453637,35.5599385 C112.112623,36.4134264 112.442111,37.6007438 112.442111,39.1219262 L112.442111,39.2699795 Z M110.830943,39.0870902 C110.830943,38.0245849 110.60451,37.1856247 110.151639,36.5701844 C109.698768,35.9547442 109.077531,35.6470287 108.28791,35.6470287 C107.312495,35.6470287 106.580945,36.0795722 106.093238,36.9446721 L106.093238,41.4472336 C106.575139,42.3065275 107.312495,42.736168 108.305328,42.736168 C109.077531,42.736168 109.691511,42.429904 110.147285,41.8173668 C110.603059,41.2048296 110.830943,40.2947465 110.830943,39.0870902 Z M118.399078,44.0512295 C117.121749,44.0512295 116.082484,43.6317494 115.28125,42.7927766 C114.480016,41.9538039 114.079406,40.8318035 114.079406,39.4267418 L114.079406,39.1306352 C114.079406,38.1958628 114.257939,37.3612571 114.61501,36.626793 C114.972082,35.892329 115.471394,35.3175396 116.112961,34.9024078 C116.754528,34.4872759 117.449791,34.2797131 118.19877,34.2797131 C119.423845,34.2797131 120.376021,34.6832268 121.055328,35.4902664 C121.734635,36.2973059 122.074283,37.4526906 122.074283,38.9564549 L122.074283,39.6270492 L115.690574,39.6270492 C115.713798,40.5560156 115.985226,41.306435 116.504867,41.8783299 C117.024507,42.4502249 117.684935,42.736168 118.486168,42.736168 C119.05516,42.736168 119.537054,42.620049 119.931865,42.3878074 C120.326675,42.1555658 120.67213,41.8478503 120.968238,41.4646516 L121.952357,42.2310451 C121.162735,43.4445074 119.978321,44.0512295 118.399078,44.0512295 Z M118.19877,35.6034836 C117.548494,35.6034836 117.002734,35.8400762 116.561475,36.3132684 C116.120216,36.7864607 115.847337,37.4497908 115.742828,38.3032787 L120.463115,38.3032787 L120.463115,38.1813525 C120.416666,37.3627008 120.19604,36.7284005 119.80123,36.2784324 C119.406419,35.8284643 118.872271,35.6034836 118.19877,35.6034836 Z M128.492828,35.8995902 C128.248974,35.8589479 127.984803,35.838627 127.700307,35.838627 C126.643608,35.838627 125.926573,36.2885884 125.54918,37.1885246 L125.54918,43.8770492 L123.938012,43.8770492 L123.938012,34.4538934 L125.505635,34.4538934 L125.531762,35.5425205 C126.060112,34.7006447 126.80908,34.2797131 127.778689,34.2797131 C128.092215,34.2797131 128.330259,34.3203548 128.492828,34.4016393 L128.492828,35.8995902 Z M134.641393,43.8770492 L134.641393,31.1967213 L138.786885,31.1967213 C140.162917,31.1967213 141.197828,31.481213 141.89165,32.0502049 C142.585471,32.6191968 142.932377,33.46106 142.932377,34.5758197 C142.932377,35.1680357 142.764004,35.692023 142.427254,36.1477971 C142.090504,36.6035713 141.631834,36.9562829 141.05123,37.2059426 C141.736342,37.3975419 142.277747,37.7618655 142.675461,38.2989242 C143.073175,38.8359829 143.272029,39.4760892 143.272029,40.2192623 C143.272029,41.3572461 142.903351,42.2513629 142.165984,42.9016393 C141.428617,43.5519158 140.386448,43.8770492 139.039447,43.8770492 L134.641393,43.8770492 Z M136.313525,37.946209 L136.313525,42.5097336 L139.074283,42.5097336 C139.852292,42.5097336 140.466272,42.3079767 140.91624,41.904457 C141.366208,41.5009372 141.591189,40.9450172 141.591189,40.2366803 C141.591189,38.7096918 140.760937,37.946209 139.10041,37.946209 L136.313525,37.946209 Z M136.313525,36.6050205 L138.839139,36.6050205 C139.5707,36.6050205 140.15565,36.422133 140.594006,36.0563525 C141.032362,35.6905719 141.251537,35.194163 141.251537,34.5671107 C141.251537,33.8703859 141.048329,33.3638165 140.641906,33.0473873 C140.235483,32.7309581 139.617149,32.5727459 138.786885,32.5727459 L136.313525,32.5727459 L136.313525,36.6050205 Z M149.403176,44.0512295 C148.125847,44.0512295 147.086582,43.6317494 146.285348,42.7927766 C145.484115,41.9538039 145.083504,40.8318035 145.083504,39.4267418 L145.083504,39.1306352 C145.083504,38.1958628 145.262037,37.3612571 145.619109,36.626793 C145.97618,35.892329 146.475492,35.3175396 147.117059,34.9024078 C147.758627,34.4872759 148.45389,34.2797131 149.202869,34.2797131 C150.427943,34.2797131 151.38012,34.6832268 152.059426,35.4902664 C152.738733,36.2973059 153.078381,37.4526906 153.078381,38.9564549 L153.078381,39.6270492 L146.694672,39.6270492 C146.717896,40.5560156 146.989325,41.306435 147.508965,41.8783299 C148.028606,42.4502249 148.689033,42.736168 149.490266,42.736168 C150.059258,42.736168 150.541152,42.620049 150.935963,42.3878074 C151.330774,42.1555658 151.676228,41.8478503 151.972336,41.4646516 L152.956455,42.2310451 C152.166833,43.4445074 150.982419,44.0512295 149.403176,44.0512295 Z M149.202869,35.6034836 C148.552592,35.6034836 148.006833,35.8400762 147.565574,36.3132684 C147.124315,36.7864607 146.851435,37.4497908 146.746926,38.3032787 L151.467213,38.3032787 L151.467213,38.1813525 C151.420765,37.3627008 151.200139,36.7284005 150.805328,36.2784324 C150.410517,35.8284643 149.876369,35.6034836 149.202869,35.6034836 Z M157.128074,32.1721311 L157.128074,34.4538934 L158.887295,34.4538934 L158.887295,35.6992828 L157.128074,35.6992828 L157.128074,41.5430328 C157.128074,41.9204254 157.206454,42.2034656 157.363217,42.3921619 C157.51998,42.5808582 157.787054,42.6752049 158.164447,42.6752049 C158.35024,42.6752049 158.605702,42.6403692 158.93084,42.5706967 L158.93084,43.8770492 C158.506999,43.99317 158.094777,44.0512295 157.69416,44.0512295 C156.974211,44.0512295 156.431354,43.8335063 156.065574,43.3980533 C155.699793,42.9626003 155.516906,42.3442663 155.516906,41.5430328 L155.516906,35.6992828 L153.80123,35.6992828 L153.80123,34.4538934 L155.516906,34.4538934 L155.516906,32.1721311 L157.128074,32.1721311 Z M166.586066,43.8770492 C166.493169,43.6912559 166.417692,43.3603166 166.359631,42.8842213 C165.610652,43.6622307 164.716535,44.0512295 163.677254,44.0512295 C162.748288,44.0512295 161.986256,43.7885101 161.391137,43.2630635 C160.796018,42.7376169 160.498463,42.0713838 160.498463,41.2643443 C160.498463,40.2831235 160.871496,39.5210922 161.617572,38.9782275 C162.363648,38.4353627 163.413074,38.1639344 164.765881,38.1639344 L166.333504,38.1639344 L166.333504,37.423668 C166.333504,36.8604822 166.165131,36.4119723 165.828381,36.078125 C165.491631,35.7442777 164.995222,35.5773566 164.339139,35.5773566 C163.764341,35.5773566 163.282447,35.7225054 162.893443,36.0128074 C162.504438,36.3031094 162.309939,36.6543695 162.309939,37.0665984 L160.690061,37.0665984 C160.690061,36.5963091 160.856983,36.1419933 161.19083,35.7036373 C161.524677,35.2652813 161.977542,34.9183756 162.549436,34.6629098 C163.121331,34.4074441 163.749826,34.2797131 164.434939,34.2797131 C165.520668,34.2797131 166.37124,34.5511414 166.98668,35.0940061 C167.602121,35.6368709 167.921448,36.3843873 167.944672,37.3365779 L167.944672,41.673668 C167.944672,42.538768 168.054985,43.2267734 168.275615,43.7377049 L168.275615,43.8770492 L166.586066,43.8770492 Z M163.912398,42.6490779 C164.417523,42.6490779 164.896514,42.5184439 165.349385,42.2571721 C165.802256,41.9959003 166.130293,41.6562521 166.333504,41.2382172 L166.333504,39.3048156 L165.070697,39.3048156 C163.096643,39.3048156 162.109631,39.8825079 162.109631,41.0379098 C162.109631,41.5430353 162.278004,41.9378401 162.614754,42.2223361 C162.951504,42.506832 163.384048,42.6490779 163.912398,42.6490779 Z" id="DeveloperBeta" fill="#5F6368"></path>
        </g>
    </g>
</svg>