<?xml version="1.0" encoding="UTF-8"?>
<svg width="33px" height="27px" viewBox="0 0 33 27" version="1.1" xmlns="http://www.w3.org/2000/svg" xmlns:xlink="http://www.w3.org/1999/xlink">
    <!-- Generator: Sketch 54.1 (76490) - https://sketchapp.com -->
    <title>cloud-logo</title>
    <desc>Created with Sketch.</desc>
    <g id="Page-1" stroke="none" stroke-width="1" fill="none" fill-rule="evenodd">
        <g id="cloud-logo" fill-rule="nonzero">
            <path d="M20.85,7.41 L21.85,7.41 L24.7,4.56 L24.84,3.35 C21.5207195,0.420285245 16.9239369,-0.587799792 12.6832551,0.68399778 C8.44257327,1.95579535 5.15920783,5.32716855 4,9.6 C4.31750276,9.46986151 4.66921446,9.44875881 5,9.54 L10.7,8.6 C10.7,8.6 10.99,8.12 11.14,8.15 C13.6755028,5.36536669 17.9425338,5.04084429 20.87,7.41 L20.85,7.41 Z" id="Path" fill="#EA4335"></path>
            <path d="M28.76,9.6 C28.1049134,7.18763302 26.7599089,5.01894352 24.89,3.36 L20.89,7.36 C22.5790647,8.74012497 23.5411792,10.8191771 23.5,13 L23.5,13.71 C25.4661337,13.71 27.06,15.3038663 27.06,17.27 C27.06,19.2361337 25.4661337,20.83 23.5,20.83 L16.38,20.83 L15.67,21.55 L15.67,25.82 L16.38,26.53 L23.5,26.53 C27.5823399,26.561783 31.2038479,23.9163624 32.4151182,20.0177302 C33.6263884,16.1190979 32.1416027,11.8871974 28.76,9.6 Z" id="Path" fill="#4285F4"></path>
            <path d="M9.25,26.49 L16.37,26.49 L16.37,20.79 L9.25,20.79 C8.74273225,20.7898879 8.24141303,20.6807572 7.78,20.47 L6.78,20.78 L3.91,23.63 L3.66,24.63 C5.26943185,25.845307 7.23327855,26.4987515 9.25,26.49 L9.25,26.49 Z" id="Path" fill="#34A853"></path>
            <path d="M9.25,8 C5.295083,8.02362503 1.79172214,10.5564433 0.529535678,14.3046177 C-0.732650788,18.0527922 0.524982496,22.1888609 3.66,24.6 L7.79,20.47 C6.34703215,19.8180715 5.50807443,18.2914532 5.73129932,16.7238634 C5.9545242,15.1562737 7.18627368,13.9245242 8.75386343,13.7012993 C10.3214532,13.4780744 11.8480715,14.3170322 12.5,15.76 L16.63,11.63 C14.8727872,9.33277236 12.1422215,7.98968922 9.25,8 Z" id="Path" fill="#FBBC05"></path>
        </g>
    </g>
</svg>