<svg width="16" height="16" viewBox="0 0 16 16" fill="none" xmlns="http://www.w3.org/2000/svg">
<path fill-rule="evenodd" clip-rule="evenodd" d="M10.7581 9.39508L16 14.6369L14.6369 16L9.39508 10.7581C8.41624 11.4626 7.23613 11.8925 5.94625 11.8925C2.66209 11.8925 0 9.23042 0 5.94625C0 2.66209 2.66209 0 5.94625 0C9.23042 0 11.8925 2.66209 11.8925 5.94625C11.8925 7.23613 11.4626 8.41624 10.7581 9.39508ZM5.94625 1.82962C3.66838 1.82962 1.82962 3.66838 1.82962 5.94625C1.82962 8.22413 3.66838 10.0629 5.94625 10.0629C8.22413 10.0629 10.0629 8.22413 10.0629 5.94625C10.0629 3.66838 8.22413 1.82962 5.94625 1.82962Z" fill="#2E2E2E"/>
</svg>
