<svg id="_1_Step_Darker" data-name="1 Step Darker" xmlns="http://www.w3.org/2000/svg" xmlns:xlink="http://www.w3.org/1999/xlink" viewBox="0 0 300 300"><defs><style>.cls-1,.cls-10,.cls-4,.cls-6,.cls-7,.cls-9{fill:none;}.cls-2{fill:#d2e3fc;}.cls-3{fill:#fbbc04;}.cls-4{stroke:#4285f4;stroke-linecap:square;}.cls-10,.cls-4,.cls-6,.cls-7{stroke-linejoin:round;stroke-width:6px;}.cls-5{clip-path:url(#clip-path);}.cls-6{stroke:#1967d2;}.cls-7{stroke:#185abc;}.cls-8{fill:#1a73e8;}.cls-9{stroke:#fff;stroke-miterlimit:10;stroke-width:3px;}.cls-10{stroke:#feefc3;stroke-linecap:round;}</style><clipPath id="clip-path"><circle class="cls-1" cx="150" cy="150" r="100"/></clipPath></defs><circle class="cls-2" cx="150" cy="150" r="100"/><path class="cls-3" d="M154.32,135.43c-10.56,8.65-20.59,16.68-30.15,23.63-5.07,3.7-14.21-1.31-15.28-8.16-1.86-12.85-3-26.17-3.63-39.8-12.15-7.93-24.13-15.53-35.44-22.35-6.11-3.63-4.22-12.48,3-15.39,13.28-5.23,26.64-10.44,40-15.38,4.23-13.83,8.45-27.77,12.11-41.4,2-7.39,10.41-8.93,14.89-2.73,8.25,11.45,17.13,23,26,34.42,14.22-.1,28.56,0,42.84.22,7.73.18,12.64,7.79,8.2,13.35-8.15,10.38-16.67,21.73-25.21,33.45,4.25,13,7.89,25.84,10.7,38.51,1.43,6.79-5.34,14.71-11.39,13C179.47,143.74,167.25,139.77,154.32,135.43Z"/><path class="cls-4" d="M205.44,73.7c10.67,26.59,20.64,47.74,16.58,76.8-4.67,33.43-33.31,70.54-68.1,75.46-17.34,2.45-35.57-2.42-47.85-15-12-12.26-18.78-29.18-21.81-45.85-3.25-17.94-2.2-36.87,3.91-54.11a77.26,77.26,0,0,1,4.71-10.76"/><g class="cls-5"><path class="cls-6" d="M151.73,225.81,144,246.63a35.18,35.18,0,0,0,.07,24.7l6.51,12.51h-8.34"/><line class="cls-7" x1="151.73" y1="225.81" x2="146.13" y2="240.85"/><polyline class="cls-6" points="164.04 231.67 164.04 283.84 171.8 283.84"/><line class="cls-7" x1="164.04" y1="221.67" x2="164.04" y2="241.77"/></g><path class="cls-8" d="M161.08,235.06a36.17,36.17,0,0,0,26.08-44L117.07,209A36.17,36.17,0,0,0,161.08,235.06Z"/><path class="cls-9" d="M142.64,217.51c5.53,7.83,16.11,10.61,24.45,1.64"/><path class="cls-9" d="M145.07,215.59c-2.58.66-2.41,3.54-5.51,4.88"/><line class="cls-10" x1="101.3" y1="47.04" x2="75.8" y2="22.68"/><line class="cls-10" x1="60.45" y1="68.72" x2="26.08" y2="61.81"/><line class="cls-10" x1="208.28" y1="22.68" x2="189.42" y2="40.55"/><line class="cls-10" x1="265.17" y1="73.7" x2="232.81" y2="76.72"/><line class="cls-10" x1="66.15" y1="109.02" x2="17.14" y2="124.38"/></svg>