<svg width="20" height="16" viewBox="0 0 20 16" fill="none" xmlns="http://www.w3.org/2000/svg">
  <path d="M18.3779 4.54281L17.1459 6.39721C17.74 7.58309 18.0309 8.89797 17.9924 10.224C17.954 11.55 17.5874 12.8458 16.9255 13.9952H3.0429C2.18267 12.5018 1.82622 10.7707 2.02639 9.05859C2.22656 7.34647 2.9727 5.74449 4.15419 4.49011C5.33569 3.23574 6.88964 2.39576 8.58567 2.0947C10.2817 1.79364 12.0295 2.04753 13.5701 2.81872L15.4231 1.5858C13.5365 0.375141 11.2987 -0.167357 9.06761 0.0450785C6.83654 0.257514 4.74112 1.21261 3.11652 2.75759C1.49192 4.30257 0.432011 6.34816 0.106336 8.56717C-0.219339 10.7862 0.208035 13.0504 1.3201 14.9976C1.49489 15.3006 1.74588 15.5525 2.04811 15.7284C2.35035 15.9042 2.69331 15.9979 3.0429 16H16.9155C17.2685 16.0014 17.6156 15.9094 17.9217 15.7334C18.2277 15.5574 18.4819 15.3035 18.6583 14.9976C19.5812 13.3977 20.0444 11.5738 19.9967 9.72706C19.9489 7.88036 19.3922 6.08278 18.3879 4.53279L18.3779 4.54281Z" fill="currentColor"/>
  <path d="M8.57191 11.3989C8.75796 11.5853 8.97889 11.7331 9.22208 11.834C9.46528 11.9349 9.72596 11.9868 9.98922 11.9868C10.2525 11.9868 10.5132 11.9349 10.7563 11.834C10.9995 11.7331 11.2205 11.5853 11.4065 11.3989L17.0758 2.88867L8.57191 8.56213C8.38565 8.74832 8.23789 8.96942 8.13708 9.21279C8.03627 9.45616 7.98437 9.71704 7.98438 9.98049C7.98438 10.2439 8.03627 10.5048 8.13708 10.7482C8.23789 10.9916 8.38565 11.2127 8.57191 11.3989Z" fill="currentColor"/>
</svg>
