<svg id="_1_Step_Darker" data-name="1 Step Darker" xmlns="http://www.w3.org/2000/svg" xmlns:xlink="http://www.w3.org/1999/xlink" viewBox="0 0 300 300"><defs><style>.cls-1,.cls-4,.cls-5,.cls-6,.cls-7,.cls-9{fill:none;}.cls-2{fill:#d2e3fc;}.cls-3{clip-path:url(#clip-path);}.cls-4{stroke:#4285f4;}.cls-4,.cls-5,.cls-6,.cls-7,.cls-9{stroke-miterlimit:10;}.cls-4,.cls-5{stroke-width:15px;}.cls-5{stroke:#1a73e8;}.cls-6,.cls-9{stroke:#c5221f;}.cls-6,.cls-7{stroke-width:10px;}.cls-7{stroke:#a50e0e;}.cls-8{fill:#d93025;}.cls-9{stroke-width:2px;}.cls-10{fill:#fff;}</style><clipPath id="clip-path"><circle class="cls-1" cx="150" cy="150" r="100"/></clipPath></defs><circle class="cls-2" cx="150" cy="150" r="100"/><g class="cls-3"><path class="cls-4" d="M9.05,157.71c13.32,18.56,38.17,25.89,61,24.15s44.18-11.1,65.14-20.18c9.91-4.3,20.07-8.62,30.85-9.31s22.46,2.9,28.7,11.71a24,24,0,0,1,3.78,17.65"/><path class="cls-5" d="M9.05,157.71c13.32,18.56,38.17,25.89,61,24.15"/></g><line class="cls-6" x1="225.13" y1="32.33" x2="157.27" y2="288.56"/><line class="cls-7" x1="225.13" y1="32.33" x2="193.97" y2="150"/><path class="cls-8" d="M221.3,13,126.61,108.2a10,10,0,0,0,4.53,16.72L261,159.3A10,10,0,0,0,273.18,147L238,17.39A10,10,0,0,0,221.3,13Z"/><path class="cls-9" d="M137.37,111.56l87.36-87.87a3,3,0,0,1,5,1.33l32.42,119.6a3,3,0,0,1-3.66,3.68L138.73,116.58A3,3,0,0,1,137.37,111.56Z"/><path class="cls-10" d="M196.78,118.35a7.38,7.38,0,0,1-.78-5.84,7.25,7.25,0,0,1,3.56-4.64,7.46,7.46,0,0,1,5.83-.73,7.51,7.51,0,0,1,5.4,9.29,7.51,7.51,0,0,1-3.52,4.7,7.27,7.27,0,0,1-5.8.8A7.44,7.44,0,0,1,196.78,118.35Zm12.05-46.1,5.56-21,10.82,2.87-5.55,21-8,25.41-8.6-2.28Z"/><path class="cls-4" d="M198.47,181.73a23.18,23.18,0,0,1-8.2,14.28c-9.2,7.58-24.24,6.67-32.46-2"/></svg>