<svg width="696" height="411" viewBox="0 0 696 411" fill="none" xmlns="http://www.w3.org/2000/svg">
<g clip-path="url(#clip0)">
<path d="M451.548 144.242C449.262 142.753 447.035 141.163 444.876 139.478C427.383 125.816 418.433 104.346 403.396 88.3251C388.68 72.6481 371.776 57.4448 353.704 45.7964C315.824 21.3792 271.306 12.5888 230.24 24.1142C186.367 36.4299 148.628 69.2435 129.54 110.772C110.447 152.301 110.122 201.735 127.972 243.387C144.319 281.538 177.28 317.65 217.051 331.108C247.312 341.349 279.321 337.895 309.375 331.933C350.973 323.682 390.298 315.083 434.062 320.118C461.064 323.224 486.004 329.004 511.911 321.548C535.989 314.618 556.242 294.915 567.947 273.197C579.311 252.106 583.161 226.273 576.882 201.755C572.133 183.2 559.717 164.155 541.286 158.985C529.076 155.562 516.678 158.787 504.333 159.302C486.16 160.062 467.432 154.583 451.548 144.242Z" fill="#F8F9FA"/>
</g>
<g clip-path="url(#clip1)">
<path fill-rule="evenodd" clip-rule="evenodd" d="M248.838 153.937C248.838 153.937 267.174 177.066 271.996 178.945C276.818 180.824 328.904 180.223 332.709 179.778C336.513 179.332 335.82 182.235 339.26 182.42C342.822 182.617 344.874 179.465 345.36 177.875C347.534 180.292 351.368 184.01 353.883 182.715C355.664 181.79 355.687 180.98 354.461 179.703C356.196 180.703 359.33 182.172 360.596 181.183C362.632 179.598 362.822 178.118 362.134 176.887C360.012 173.076 353.178 167.681 351.553 167.057C349.679 166.317 343.972 168.352 341.226 168.52C328.777 169.289 297.386 161.546 287.087 161.078C285.573 158.187 269.874 139.204 268.66 137.308C264.352 140.991 248.838 153.937 248.838 153.937Z" fill="#F3B091"/>
<path fill-rule="evenodd" clip-rule="evenodd" d="M331.2 177.894C331.2 173.962 337.387 170.782 345.013 170.782C352.64 170.782 358.827 173.962 358.827 177.894C358.827 181.826 352.64 185.001 345.013 185.001C337.387 185.001 331.2 181.832 331.2 177.894Z" fill="#AECBFA"/>
<path fill-rule="evenodd" clip-rule="evenodd" d="M309.613 343.154L313.805 356.649L331.198 352.677L329.492 335.516L309.613 343.154Z" fill="#F3B091"/>
<path fill-rule="evenodd" clip-rule="evenodd" d="M263.448 178.977H527.971C529.383 178.977 530.527 180.121 530.527 181.532V186.158C530.527 187.57 529.383 188.714 527.971 188.714H263.448C262.037 188.714 260.893 187.57 260.893 186.158V181.532C260.893 180.121 262.037 178.977 263.448 178.977Z" fill="#D2E3FC"/>
<path fill-rule="evenodd" clip-rule="evenodd" d="M250.446 324.433L246.74 338.071L263.548 344.053L271.319 328.657L250.446 324.433Z" fill="#F3B091"/>
<path fill-rule="evenodd" clip-rule="evenodd" d="M247.445 335.504L263.433 343.674C263.433 343.674 290.341 367.885 291.863 369.474C293.385 371.063 290.903 375.693 287.517 376.679C286.019 377.125 260.203 364.828 260.203 364.828L254.227 361.749L238.049 354.175L247.445 335.504Z" fill="#1E8E3E"/>
<path fill-rule="evenodd" clip-rule="evenodd" d="M208.878 204.96C247.162 194.176 302.081 200.149 313.929 216.6C318.161 222.474 316.727 231.668 315.663 235.131C314.6 238.595 269.799 334.712 269.799 334.712L249.712 327.074L269.452 249.014C269.452 249.014 204.12 206.29 208.878 204.96Z" fill="#BDC1C6"/>
<path fill-rule="evenodd" clip-rule="evenodd" d="M313.46 355.405L330.726 350.479C330.726 350.479 366.917 349.84 369.114 349.964C371.311 350.089 372.653 355.168 370.849 358.198C370.056 359.545 342.788 368.155 342.788 368.155L336.317 369.977L319.32 375.469L313.46 355.405Z" fill="#1E8E3E"/>
<path fill-rule="evenodd" clip-rule="evenodd" d="M177.503 252.159H265.277C271.545 252.159 276.627 257.241 276.627 263.51C276.627 269.778 271.545 274.86 265.277 274.86H177.503C171.235 274.86 166.153 269.778 166.153 263.51C166.153 257.241 171.235 252.159 177.503 252.159Z" fill="#D2E3FC"/>
<path fill-rule="evenodd" clip-rule="evenodd" d="M217.573 266.829H225.174C226.428 266.829 227.445 268.037 227.445 269.527V369.366C227.445 370.857 226.428 372.065 225.174 372.065H217.573C216.319 372.065 215.302 370.857 215.302 369.366V269.527C215.302 268.037 216.319 266.829 217.573 266.829Z" fill="#D2E3FC"/>
<path fill-rule="evenodd" clip-rule="evenodd" d="M485.865 182.987H493.466C494.72 182.987 495.737 185.211 495.737 187.954V371.723C495.737 374.466 494.72 376.69 493.466 376.69H485.865C484.611 376.69 483.594 374.466 483.594 371.723V187.954C483.594 185.211 484.611 182.987 485.865 182.987Z" fill="#D2E3FC"/>
<path fill-rule="evenodd" clip-rule="evenodd" d="M203.653 365.704H239.172C244.511 365.704 248.839 366.402 248.839 367.262V375.71C248.839 376.126 247.81 376.524 245.981 376.816C244.151 377.109 241.672 377.272 239.095 377.268H203.576C198.237 377.268 193.909 376.571 193.909 375.71V367.262C193.909 366.847 194.938 366.449 196.767 366.156C198.597 365.864 201.076 365.701 203.653 365.704Z" fill="#D2E3FC"/>
<path fill-rule="evenodd" clip-rule="evenodd" d="M180.793 182.334C145.77 255.49 216.457 257.462 241.263 257.098C266.068 256.733 272.596 254.866 279.309 253.241C281.454 259.74 307.168 343.905 307.168 343.905L329.747 337.082C329.747 337.082 312.487 230.158 308.59 222.936C297.887 203.081 234.578 202.005 226.57 202.485C218.562 202.965 185.233 173.059 180.793 182.334Z" fill="#DADCE0"/>
<path fill-rule="evenodd" clip-rule="evenodd" d="M223.207 68.8941C223.207 64.0478 226.126 59.6789 230.604 57.8249C235.081 55.9708 240.235 56.9969 243.661 60.4245C247.087 63.8522 248.11 69.0062 246.254 73.4829C244.398 77.9596 240.028 80.8771 235.181 80.8748C232.004 80.8748 228.958 79.6123 226.712 77.3653C224.466 75.1184 223.205 72.071 223.207 68.8941Z" fill="#B83428"/>
<path fill-rule="evenodd" clip-rule="evenodd" d="M224.621 92.1602C186.21 92.2064 173.374 182.362 177.387 188.543C180.33 193.076 215.173 206.404 227.113 202.311C231.329 200.865 242.297 178.343 248.507 155.62C255.128 150.184 267.658 139.892 269.699 137.909C269.121 133.555 259.054 116.012 248.629 108.24C245.027 100.012 238.342 92.1602 224.621 92.1602Z" fill="#FCC934"/>
<path fill-rule="evenodd" clip-rule="evenodd" d="M234.555 153.418C234.555 153.418 252.89 176.546 257.713 178.426C262.535 180.305 314.621 179.703 318.426 179.258C322.23 178.813 321.536 181.716 324.977 181.901C328.539 182.097 330.591 178.946 331.077 177.356C333.251 179.773 337.085 183.491 339.6 182.196C341.381 181.27 341.404 180.461 340.178 179.183C341.913 180.183 345.047 181.652 346.313 180.663C348.348 179.079 348.539 177.599 347.851 176.367C345.729 172.557 338.894 167.162 337.27 166.537C335.396 165.797 329.689 167.833 326.943 168C314.494 168.769 283.102 161.027 272.804 160.559C271.289 157.668 255.591 138.685 254.376 136.788C250.069 140.471 234.555 153.418 234.555 153.418Z" fill="#F3B091"/>
<path fill-rule="evenodd" clip-rule="evenodd" d="M229.438 73.6179C229.435 66.2594 233.866 59.6243 240.664 56.8072C247.462 53.9902 255.288 55.5461 260.491 60.7494C265.694 65.9526 267.25 73.7782 264.433 80.5761C261.616 87.374 254.981 91.8052 247.622 91.8029C237.58 91.7997 229.441 83.6599 229.438 73.6179Z" fill="#F3B091"/>
<path fill-rule="evenodd" clip-rule="evenodd" d="M231.88 69.6567C231.955 72.4842 226.034 90.3626 223.698 93.7857C224.854 96.5207 236.17 103.378 241.368 101.915C241.946 98.4461 243.883 91.4728 245.08 89.9232C246.277 88.3736 231.804 66.8061 231.88 69.6567Z" fill="#F3B091"/>
<path fill-rule="evenodd" clip-rule="evenodd" d="M252.666 35.2764C249.167 35.2871 245.85 36.8347 243.594 39.5089C242.098 38.945 240.514 38.6513 238.916 38.6416C234.57 38.5798 230.458 40.6048 227.858 44.0874C225.258 47.5699 224.485 52.0878 225.779 56.2368C224.145 57.7397 223.214 59.8571 223.211 62.0768C223.238 65.9737 226.029 69.3027 229.861 70.0099C229.953 69.5647 229.953 69.2524 230.098 68.7436C230.491 67.3906 236.377 64.9158 237.037 65.361C237.555 65.7333 238.146 65.9933 238.771 66.1243C238.825 66.1274 238.879 66.1274 238.933 66.1243C243.911 66.1115 248.491 63.3999 250.896 59.0411C251.487 59.1449 252.084 59.2048 252.683 59.2204C252.683 65.8371 258.047 71.201 264.664 71.201C271.281 71.201 276.644 65.8371 276.644 59.2204C276.644 52.6036 271.281 47.2397 264.664 47.2397C264.659 44.0622 263.393 41.0167 261.143 38.7732C258.892 36.5296 255.843 35.2718 252.666 35.2764Z" fill="#B83428"/>
<path fill-rule="evenodd" clip-rule="evenodd" d="M224.618 62.5957C224.627 58.7084 227.785 55.564 231.672 55.5703C235.559 55.5767 238.706 58.7315 238.703 62.6188C238.7 66.5061 235.548 69.6557 231.66 69.6557C229.79 69.6557 227.996 68.9113 226.674 67.5868C225.353 66.2623 224.613 64.4665 224.618 62.5957Z" fill="#F3B091"/>
<path d="M257.268 74.0967C257.089 75.6983 257.441 79.3006 258.65 80.8734" stroke="#B83428" stroke-width="1.22045" stroke-linecap="round" stroke-linejoin="round"/>
<path fill-rule="evenodd" clip-rule="evenodd" d="M247.519 71.9708C248.097 70.6004 249.253 69.7736 250.057 70.1263C250.861 70.479 251.023 71.8609 250.427 73.2429C249.832 74.6248 248.693 75.4401 247.889 75.0874C247.085 74.7347 246.917 73.347 247.519 71.9708Z" fill="#B83428"/>
<path fill-rule="evenodd" clip-rule="evenodd" d="M261.251 75.0973C261.829 73.727 262.986 72.9001 263.79 73.247C264.593 73.594 264.755 74.9817 264.16 76.3636C263.564 77.7456 262.425 78.5609 261.621 78.2081C260.818 77.8554 260.65 76.4619 261.251 75.0973Z" fill="#B83428"/>
<path d="M247.452 85.1585C245.182 84.4385 243.565 82.4293 243.346 80.0586" stroke="#B83428" stroke-width="1.22045" stroke-linecap="round" stroke-linejoin="round"/>
<path d="M292.204 163.495L272.967 160.558L261.026 145.224" stroke="#B83428" stroke-width="1.22045" stroke-linecap="round" stroke-linejoin="round"/>
<path fill-rule="evenodd" clip-rule="evenodd" d="M354.652 82.6094H437.563C441.136 82.6094 444.033 85.5062 444.033 89.0796V157.546C444.033 161.12 441.136 164.017 437.563 164.017H354.652C351.083 164.01 348.193 161.115 348.193 157.546V89.0796C348.193 85.5107 351.083 82.6158 354.652 82.6094Z" fill="#D2E3FC"/>
<path fill-rule="evenodd" clip-rule="evenodd" d="M384.616 143.83H412.608L428.283 179.483H399.303L384.616 143.83Z" fill="#AECBFA"/>
<path fill-rule="evenodd" clip-rule="evenodd" d="M297.944 182.987H305.545C306.799 182.987 307.816 185.218 307.816 187.969V372.287C307.816 375.038 306.799 377.268 305.545 377.268H297.944C296.69 377.268 295.673 375.038 295.673 372.287V187.969C295.673 185.218 296.69 182.987 297.944 182.987Z" fill="#D2E3FC"/>
</g>
<defs>
<clipPath id="clip0">
<rect width="464.992" height="318.538" fill="white" transform="translate(114.894 19.0977)"/>
</clipPath>
<clipPath id="clip1">
<rect width="363.695" height="341.726" fill="white" transform="translate(166.153 34.9639)"/>
</clipPath>
</defs>
</svg>
