<svg width="570" height="337" viewBox="0 0 570 337" fill="none" xmlns="http://www.w3.org/2000/svg">
<path d="M98.5542 198.905C107.662 220.92 128.695 234.67 152.217 236.698C152.22 236.701 152.224 236.705 152.231 236.706C226.85 245.599 266.412 238.969 317.732 260.523C317.753 260.508 317.775 260.491 317.794 260.476C344.153 272.262 376.139 273.358 406.15 260.943C461.414 238.077 489.052 178.058 467.879 126.884C446.706 75.7125 384.742 52.7667 329.476 75.6324C268.097 102.077 180.16 102.113 162.571 105.47C152.718 107.35 139.904 110.201 123.612 120.861C98.9242 137.021 86.7318 170.329 98.5542 198.905Z" fill="#F8F9FA"/>
<path fill-rule="evenodd" clip-rule="evenodd" d="M168.163 267.324C165.574 269.203 157.735 275.54 157.31 277.26C156.885 278.98 161.164 290.436 162.082 291.264C162.999 292.093 172.091 294.294 172.524 294.882C172.957 295.47 172.609 297.268 172.176 298.152C171.744 299.036 157.835 298.037 157.835 298.037C157.835 298.037 139.78 280.201 140.006 278.876C140.232 277.552 160.487 259.271 160.487 259.271C160.487 259.271 170.745 265.449 168.163 267.324Z" fill="#B03F3C"/>
<path fill-rule="evenodd" clip-rule="evenodd" d="M148.11 270.698C148.802 275.373 151.251 282.427 158.926 283.785C160.117 287.255 161.582 290.813 162.085 291.264C163.002 292.089 172.091 294.294 172.524 294.882C172.957 295.47 172.601 297.268 172.176 298.152C171.751 299.036 157.839 298.037 157.839 298.037C157.839 298.037 139.772 280.208 140.002 278.884C140.098 278.325 143.923 274.634 148.11 270.698Z" fill="#DADCE0"/>
<path fill-rule="evenodd" clip-rule="evenodd" d="M257.761 283.015C258.679 285.449 268.514 308.753 269.557 309.242C270.601 309.73 299.738 295.518 299.96 294.116C300.182 292.714 298.85 289.74 297.8 289.955C286.669 292.174 273.127 292.932 271.651 290.125C270.175 287.317 268.278 280.792 268.278 280.792C268.278 280.792 256.829 280.6 257.761 283.015Z" fill="#B03F3C"/>
<path fill-rule="evenodd" clip-rule="evenodd" d="M297.803 289.955C298.868 289.744 300.196 292.718 299.963 294.116C299.73 295.515 270.608 309.741 269.561 309.238C269.099 309.012 266.827 304.111 264.441 298.707C273.434 300.064 278.217 295.851 280.244 291.912C286.143 291.781 292.02 291.127 297.803 289.955Z" fill="#DADCE0"/>
<path fill-rule="evenodd" clip-rule="evenodd" d="M230.229 215.934C200.511 252.78 171.633 272.411 171.633 272.411L156.26 256.875L200.648 205.229C200.648 205.229 197.008 165.361 204.717 158.048C212.426 150.735 248.917 192.767 230.229 215.934Z" fill="#1A73E8"/>
<path fill-rule="evenodd" clip-rule="evenodd" d="M242.75 155.661L273.23 280.23L256.707 288.368C256.707 288.368 229.034 215.497 224.943 211.058C216.524 201.94 202.86 169.148 204.055 156.457C205.25 143.765 242.75 155.661 242.75 155.661Z" fill="#1A73E8"/>
<path fill-rule="evenodd" clip-rule="evenodd" d="M189.651 164.365C188.945 166.722 186.655 171.623 188.834 180.393C184.706 186.774 186.633 191.268 196.088 192.397C197.678 190.455 199.276 189.178 201.048 186.378C201.625 183.856 201.573 179.983 201.625 178.932C201.725 176.809 197.412 167.417 198.185 163.644C198.958 159.871 190.362 162.005 189.651 164.365Z" fill="#B03F3C"/>
<path d="M188.159 189.422C189.145 188.379 190.029 187.243 190.797 186.03" stroke="#442C2C" stroke-linecap="round" stroke-linejoin="round"/>
<path d="M192.248 191.638C193.802 190.136 196.073 186.966 197.238 185.065" stroke="#442C2C" stroke-linecap="round" stroke-linejoin="round"/>
<path fill-rule="evenodd" clip-rule="evenodd" d="M268.259 155.022C270.227 156.616 272.269 158.51 274.891 159.501C278.812 160.448 285.988 168.316 285.988 170.01C285.988 171.616 284.557 172.156 283.665 172.23C282.896 172.278 281.257 170.498 280.843 169.992C281.557 171.619 281.953 173.824 281.18 174.516C280.406 175.207 279.249 175.448 278.476 174.553C277.196 173.073 277.51 171.394 277.392 170.41C276.763 169.208 275.05 166.533 274.325 166.208C273.818 166.234 273.056 166.411 272.912 167.221C272.768 168.031 274.651 169.84 274.862 170.595C274.862 171.553 273.818 172.77 272.912 172.529C271.884 172.256 268.703 169.167 268 168.323C267.053 167.188 266.624 164.709 266.117 163.885C265.61 163.06 263.642 161.295 263.276 160.925C262.91 160.555 266.295 153.431 268.259 155.022Z" fill="#B03F3C"/>
<path d="M273.357 166.492C275.687 164.557 279.323 168.519 280.977 170.117" stroke="#442C2C" stroke-linecap="round" stroke-linejoin="round"/>
<path fill-rule="evenodd" clip-rule="evenodd" d="M237.709 91.6201C245.329 98.9035 249.062 117.143 251.089 128.884C257.773 135.461 271.234 150.024 271.223 153.52C271.212 157.015 264.642 162.852 262.97 162.812C261.298 162.771 245.733 145.737 243.313 143.747C240.894 141.757 235.893 89.8778 237.709 91.6201Z" fill="#DADCE0"/>
<path fill-rule="evenodd" clip-rule="evenodd" d="M220.867 73.7275C221.484 76.2206 221.573 86.885 221.115 90.4435C223.212 91.949 231.017 91.7751 232.644 90.1438C232.152 85.7494 232.152 81.8395 232.644 79.9382C233.136 78.0369 220.249 71.2343 220.867 73.7275Z" fill="#B03F3C"/>
<path fill-rule="evenodd" clip-rule="evenodd" d="M243.881 65.9046C243.881 57.3672 237.703 50.4463 230.08 50.4463C222.456 50.4463 216.279 57.3672 216.279 65.9046C216.279 74.442 222.456 81.3592 230.08 81.3592C237.703 81.3592 243.881 74.4383 243.881 65.9046Z" fill="#B03F3C"/>
<path fill-rule="evenodd" clip-rule="evenodd" d="M227.377 80.5449C227.58 77.9038 229.751 72.1666 230.883 71.4823C232.015 70.798 240.9 69.7474 243.882 65.3086C245.398 66.5626 246.641 68.893 246.519 69.3775C246.268 70.38 243.889 72.0778 243.889 72.0778C243.889 72.0778 243.353 78.5068 238.71 81.3735C235.355 83.4524 228.716 81.7545 227.377 80.5449Z" fill="#B03F3C"/>
<path d="M196.331 45.7688C195.29 49.698 197.668 51.9764 197.668 51.9764C197.668 51.9764 195.591 53.3666 195.676 57.1511C195.752 60.4794 198.51 62.7191 198.51 62.7191C198.51 62.7191 196.554 66.5591 199.814 71.1448C201.704 73.8046 205.673 73.8094 205.673 73.8094C205.673 73.8094 207.306 77.0267 211.176 77.9438C215.436 78.9575 217.812 77.4418 217.812 77.4418C217.812 77.4418 219.434 78.7306 221.501 78.581C223.569 78.4314 224.484 77.869 224.484 77.869C224.484 77.869 224.166 75.7813 223.621 74.408C223.206 73.3581 222.696 72.5254 222.696 72.5254C222.696 72.5254 221.027 73.4015 219.413 72.2213C217.938 71.1424 217.765 69.1706 218.403 68.1014C219.206 66.7522 220.257 66.5422 220.724 66.4915C221.191 66.4384 221.542 66.5832 221.542 66.5832C221.542 66.5832 224.062 65.5237 224.543 62.9508C225.025 60.378 224.728 59.1109 224.728 59.1109C224.728 59.1109 227.009 58.7488 228.403 56.8952C229.722 55.143 229.428 53.4221 229.428 53.4221C229.428 53.4221 231.607 54.6144 233.304 53.8011C235.002 52.9877 235.621 51.9812 235.621 51.9812C235.621 51.9812 238.725 53.8916 239.835 55.1032C239.835 55.1032 245.299 48.0713 243.094 44.2699C241.143 40.9079 237.831 40.2996 237.831 40.2996C237.831 40.2996 238.964 36.158 234.919 33.3245C231.559 30.9713 228.188 32.849 228.188 32.849C228.188 32.849 227.329 29.6148 223.958 28.9439C219.865 28.1281 217.715 30.9182 217.715 30.9182C217.715 30.9182 215.23 29.0187 212.447 29.5569C207.913 30.4354 206.946 33.9423 206.946 33.9423C206.946 33.9423 203.797 32.9335 201.229 35.8346C199.034 38.3157 200.072 41.504 200.188 41.5426C200.305 41.5812 197.322 42.0253 196.331 45.7688Z" fill="#2C2927"/>
<path fill-rule="evenodd" clip-rule="evenodd" d="M226.334 69.7476C226.334 67.6142 225.049 65.6908 223.078 64.8743C221.107 64.0579 218.838 64.5092 217.329 66.0178C215.821 67.5264 215.369 69.7952 216.186 71.7662C217.002 73.7373 218.926 75.0225 221.059 75.0225C223.972 75.0204 226.332 72.66 226.334 69.7476Z" fill="#B03F3C"/>
<path fill-rule="evenodd" clip-rule="evenodd" d="M237.896 64.8316C237.896 63.7625 237.427 62.897 236.85 62.897C236.273 62.897 235.799 63.7625 235.799 64.8316C235.799 65.9006 236.269 66.7662 236.85 66.7662C237.43 66.7662 237.896 65.9006 237.896 64.8316Z" fill="#442C2C"/>
<path fill-rule="evenodd" clip-rule="evenodd" d="M226.744 84.6621C204.095 84.6621 188.315 127.608 186.672 134.122C185.03 140.636 186.303 164.387 186.891 166.193C189.136 166.633 197.248 165.146 198.935 164.132C200.414 161.661 200.958 142.933 201.561 141.235C201.986 139.806 202.735 138.495 203.751 137.403C203.092 142.441 203.806 154.811 204.243 156.616C204.679 158.421 239.835 158.336 242.502 157.219C244.174 156.52 245.354 155.791 245.591 154.104C245.961 151.319 244.829 149.477 245.136 147.15C245.443 144.823 246.749 144.464 247.144 140.677C247.555 136.711 244.881 131.429 245.757 127.515C250.388 106.812 239.284 84.6621 226.744 84.6621Z" fill="#DADCE0"/>
<path fill-rule="evenodd" clip-rule="evenodd" d="M231.615 84.5215H221.887C221.313 84.5215 220.847 85.1799 220.847 86.0011V90.0183C220.847 90.8283 221.313 91.4979 221.887 91.4979H231.615C232.192 91.4979 232.658 90.8394 232.658 90.0183V85.99C232.658 85.1799 232.192 84.5215 231.615 84.5215Z" fill="#DADCE0"/>
<path d="M228.656 218.19C226.929 214.373 225.616 211.783 224.957 211.055C217.452 202.917 205.774 175.977 204.176 161.232" stroke="#1967D2" stroke-linecap="round" stroke-linejoin="round"/>
<path d="M203.748 138.513C204.961 136.523 219.084 114.24 219.816 113.359" stroke="#BDC1C6" stroke-linecap="round" stroke-linejoin="round"/>
<path d="M237.119 76.6553C237.88 77.15 238.607 77.5575 239.517 77.707C240.095 77.802 240.645 77.763 241.221 77.7281" stroke="#442C2C" stroke-linecap="round" stroke-linejoin="round"/>
<path fill-rule="evenodd" clip-rule="evenodd" d="M397.87 232.794H404.13C405.163 232.794 406 233.667 406 234.743V306.846C406 307.922 405.163 308.794 404.13 308.794H397.87C396.837 308.794 396 307.922 396 306.846V234.743C396 233.667 396.837 232.794 397.87 232.794Z" fill="#D2E3FC"/>
<rect x="355" y="206.794" width="90.52" height="45" rx="4" fill="#D2E3FC"/>
<path d="M417.46 224.544V219.794L427 229.294L417.46 238.794V234.044H376L376 224.544H417.46Z" fill="#AECBFA"/>
</svg>
