<?xml version="1.0" encoding="UTF-8" standalone="no"?>
<svg
   xmlns:dc="http://purl.org/dc/elements/1.1/"
   xmlns:cc="http://creativecommons.org/ns#"
   xmlns:rdf="http://www.w3.org/1999/02/22-rdf-syntax-ns#"
   xmlns:svg="http://www.w3.org/2000/svg"
   xmlns="http://www.w3.org/2000/svg"
   xmlns:sodipodi="http://sodipodi.sourceforge.net/DTD/sodipodi-0.dtd"
   xmlns:inkscape="http://www.inkscape.org/namespaces/inkscape"
   width="185.33107"
   height="153.99446"
   viewBox="0 0 185.33107 153.99446"
   fill="none"
   version="1.1"
   id="svg718"
   sodipodi:docname="rocket.svg"
   inkscape:version="1.0.2 (e86c8708, 2021-01-15)">
  <metadata
     id="metadata722">
    <rdf:RDF>
      <cc:Work
         rdf:about="">
        <dc:format>image/svg+xml</dc:format>
        <dc:type
           rdf:resource="http://purl.org/dc/dcmitype/StillImage" />
        <dc:title></dc:title>
      </cc:Work>
    </rdf:RDF>
  </metadata>
  <sodipodi:namedview
     pagecolor="#ffffff"
     bordercolor="#666666"
     borderopacity="1"
     objecttolerance="10"
     gridtolerance="10"
     guidetolerance="10"
     inkscape:pageopacity="0"
     inkscape:pageshadow="2"
     inkscape:window-width="1187"
     inkscape:window-height="742"
     id="namedview720"
     showgrid="false"
     inkscape:zoom="3.5449102"
     inkscape:cx="84.073407"
     inkscape:cy="26.977332"
     inkscape:window-x="-15"
     inkscape:window-y="58"
     inkscape:window-maximized="0"
     inkscape:current-layer="svg718"
     inkscape:document-rotation="0"
     fit-margin-top="0"
     fit-margin-left="0"
     fit-margin-right="0"
     fit-margin-bottom="0"
     lock-margins="true" />
  <g
     id="g278"
     transform="matrix(0.9266554,0,0,0.9266554,-9.7368316e-6,0)">
    <g
       id="g1191"
       transform="matrix(1.3532715,0,0,1.3532715,-35.327142,-5.3746348e-8)">
      <g
         opacity="0.7"
         id="g387"
         transform="translate(26.105)">
        <path
           opacity="0.7"
           d="m 93.3837,55.2734 c 0.0128,-3.8858 -0.919,-7.7167 -2.7156,-11.1638 -0.8531,-1.6187 -1.631,-2.6251 -2.2364,-3.2423 -0.2283,-0.2417 -0.5265,-0.4062 -0.853,-0.4706 -0.3265,-0.0643 -0.6649,-0.0252 -0.9681,0.1118 -0.2423,0.0854 -0.4611,0.2263 -0.639,0.4115 -0.8099,0.8372 -1.5415,1.944 -2.1804,3.1226 -1.8902,3.5276 -2.8712,7.4694 -2.8546,11.47 v 2.4018 H 79.3935 V 30.005 c 0,-5.8498 -1.3115,-11.6215 -3.8802,-16.7457 C 74.2961,10.8336 73.1859,9.32649 72.3313,8.39989 72.1242,8.16434 71.8692,7.97561 71.5833,7.84632 71.2973,7.71703 70.9871,7.65015 70.6731,7.65015 c -0.3139,0 -0.6241,0.06688 -0.9101,0.19617 -0.2859,0.12929 -0.5409,0.31802 -0.748,0.55357 -1.1565,1.25513 -2.1996,2.91371 -3.1118,4.67761 -2.7012,5.2294 -4.0734,11.1638 -4.0734,17.1874 V 57.9144 H 60.496 v -2.5166 c 0.0165,-4.0006 -0.9645,-7.9424 -2.8546,-11.47 -0.639,-1.177 -1.3706,-2.2838 -2.1805,-3.1227 -0.2331,-0.2451 -0.5382,-0.41 -0.8713,-0.4707 -0.333,-0.0608 -0.6768,-0.0143 -0.9817,0.1326 l 0.0559,0.0303 c -0.1956,0.0863 -0.3725,0.2098 -0.5207,0.3636 -0.5991,0.6172 -1.377,1.6236 -2.2364,3.2423 -1.7966,3.4471 -2.7285,7.278 -2.7157,11.1638 v 41.727 h 4.7604 l -0.5192,3.43 v 10.257 h 3.8913 v -10.257 l -0.5191,-3.43 H 60.496 V 58.9941 h 1.3338 v 37.8292 h 3.8019 l -0.5463,3.5997 v 10.258 h 3.8929 V 100.424 L 68.432,96.8249 h 5.1229 l -0.5463,3.5991 v 10.257 h 3.8929 v -10.257 l -0.5463,-3.5991 h 3.0351 V 58.9941 h 1.5431 v 38.0573 h 1.2508 V 96.994 h 4.1357 l -0.5192,3.43 v 10.257 h 3.8929 v -10.257 l -0.5191,-3.43 h 4.2092 z"
           fill="url(#paint0_linear)"
           id="path385"
           style="fill:url(#paint0_linear)" />
      </g>
      <path
         d="m 83.2028,98.4246 h -3.6852 l 0.6581,-4.4671 h 2.369 z"
         fill="#535461"
         id="path389" />
      <g
         opacity="0.1"
         id="g393"
         transform="translate(26.105)">
        <path
           opacity="0.1"
           d="m 53.8877,95.7306 h 2.7364 l -0.1837,-1.2488 h -2.369 z"
           fill="#000000"
           id="path391" />
      </g>
      <path
         d="m 114.7937,98.4246 h -3.6853 l 0.6582,-4.4671 h 2.3689 z"
         fill="#535461"
         id="path395" />
      <g
         opacity="0.1"
         id="g399"
         transform="translate(26.105)">
        <path
           opacity="0.1"
           d="m 85.478,95.7306 h 2.7364 l -0.1837,-1.2488 h -2.369 z"
           fill="#000000"
           id="path397" />
      </g>
      <path
         d="m 95.182,98.4246 h -3.6869 l 0.6582,-4.4671 h 2.3705 z"
         fill="#535461"
         id="path401" />
      <g
         opacity="0.1"
         id="g405"
         transform="translate(26.105)">
        <path
           opacity="0.1"
           d="m 65.8647,95.7306 h 2.738 L 68.419,94.4818 h -2.3706 z"
           fill="#000000"
           id="path403" />
      </g>
      <path
         d="M 102.6843,98.4246 H 98.999 l 0.6582,-4.4671 h 2.369 z"
         fill="#535461"
         id="path407" />
      <g
         opacity="0.1"
         id="g411"
         transform="translate(26.105)">
        <path
           opacity="0.1"
           d="m 73.3682,95.7306 h 2.7379 l -0.1853,-1.2488 h -2.3689 z"
           fill="#000000"
           id="path409" />
      </g>
      <path
         d="M 109.5286,57.0289 H 83.2031 v 1.051 h 26.3255 z"
         fill="#535461"
         id="path413" />
      <path
         d="m 113.5988,40.4222 c -0.1391,-0.1533 -0.3089,-0.2759 -0.4983,-0.3597 -0.1894,-0.0839 -0.3943,-0.1272 -0.6015,-0.1272 -0.2072,0 -0.4122,0.0433 -0.6016,0.1272 -0.1894,0.0838 -0.3591,0.2064 -0.4983,0.3597 -0.7667,0.8149 -1.4584,1.8931 -2.0638,3.0397 -1.7916,3.4484 -2.7185,7.2792 -2.7013,11.1638 v 40.4591 h 11.65 V 54.4582 c 0.0147,-3.7781 -0.8672,-7.5059 -2.5734,-10.8782 -0.8083,-1.5757 -1.5447,-2.5566 -2.1118,-3.1578 z"
         fill="#e0e0e0"
         id="path415" />
      <path
         d="m 80.192,40.4222 c 0.1392,-0.1533 0.3089,-0.2759 0.4983,-0.3597 0.1894,-0.0839 0.3944,-0.1272 0.6016,-0.1272 0.2072,0 0.4121,0.0433 0.6015,0.1272 0.1894,0.0838 0.3592,0.2064 0.4983,0.3597 0.7668,0.8149 1.4584,1.8931 2.0639,3.0397 1.7915,3.4484 2.7184,7.2792 2.7012,11.1638 V 95.0848 H 75.5036 V 54.4582 c -0.0146,-3.7781 0.8673,-7.5059 2.5735,-10.8782 0.8067,-1.5757 1.5431,-2.5566 2.1149,-3.1578 z"
         fill="#e0e0e0"
         id="path417" />
      <path
         d="m 75.5694,55.3215 2.7635,0.0128 v 3.4034 h -2.7635 z"
         fill="#535461"
         id="path419" />
      <path
         d="m 84.3887,55.3215 2.7635,0.0128 v 3.4034 h -2.7635 z"
         fill="#535461"
         id="path421" />
      <path
         d="m 106.6323,55.3215 2.7652,0.0128 v 3.4034 h -2.7652 z"
         fill="#535461"
         id="path423" />
      <path
         d="m 115.4522,55.3215 2.7651,0.0128 v 3.4034 h -2.7651 z"
         fill="#535461"
         id="path425" />
      <g
         opacity="0.1"
         id="g429"
         transform="translate(26.105)">
        <path
           opacity="0.1"
           d="m 58.3459,43.4099 c -0.6038,-1.1467 -1.2971,-2.2248 -2.0638,-3.0398 -0.2167,-0.2389 -0.5057,-0.4005 -0.823,-0.4601 -0.3173,-0.0596 -0.6454,-0.014 -0.9342,0.13 0.1664,0.0829 0.3168,0.1947 0.4441,0.3301 0.7667,0.815 1.4584,1.8931 2.0639,3.0398 1.7915,3.4483 2.7184,7.2791 2.7012,11.1637 v 40.4559 h 1.3163 V 54.5784 c 0.017,-3.8865 -0.911,-7.719 -2.7045,-11.1685 z"
           fill="#000000"
           id="path427" />
      </g>
      <g
         opacity="0.1"
         id="g433"
         transform="translate(26.105)">
        <path
           opacity="0.1"
           d="m 84.2782,43.5217 c 0.6039,-1.1467 1.2971,-2.2248 2.0639,-3.0398 0.1436,-0.1542 0.3169,-0.2779 0.5096,-0.3636 -0.2848,-0.1245 -0.6016,-0.1564 -0.9055,-0.0911 -0.3039,0.0653 -0.5795,0.2244 -0.7878,0.4547 -0.7668,0.815 -1.4584,1.8931 -2.0639,3.0398 -1.7915,3.4483 -2.7184,7.2791 -2.7012,11.1637 v 40.456 h 1.1853 V 54.6918 c -0.0188,-3.8866 0.9076,-7.7197 2.6996,-11.1701 z"
           fill="#000000"
           id="path431" />
      </g>
      <path
         d="m 83.2028,98.4243 h -3.6852 v 9.9867 h 3.6852 z"
         fill="url(#paint1_linear)"
         id="path435"
         style="fill:url(#paint1_linear)" />
      <path
         d="m 95.1804,98.4243 h -3.6853 v 9.9867 h 3.6853 z"
         fill="url(#paint2_linear)"
         id="path437"
         style="fill:url(#paint2_linear)" />
      <path
         d="M 102.6843,98.4243 H 98.999 v 9.9867 h 3.6853 z"
         fill="url(#paint3_linear)"
         id="path439"
         style="fill:url(#paint3_linear)" />
      <path
         d="m 114.7937,98.4243 h -3.6853 v 9.9867 h 3.6853 z"
         fill="url(#paint4_linear)"
         id="path441"
         style="fill:url(#paint4_linear)" />
      <path
         d="M 98.3548,8.70132 C 98.1623,8.47286 97.9221,8.2892 97.651,8.16321 97.3798,8.03721 97.0844,7.97192 96.7854,7.97192 c -0.2991,0 -0.5945,0.06529 -0.8656,0.19129 -0.2711,0.12599 -0.5114,0.30965 -0.7039,0.53811 -1.0942,1.22163 -2.0766,2.83718 -2.9456,4.55638 -2.5559,5.0939 -3.8562,10.8751 -3.8562,16.7377 v 64.9237 h 16.6275 V 29.7339 c 0,-5.6968 -1.2412,-11.3233 -3.674,-16.3007 -1.1518,-2.362 -2.2029,-3.82921 -3.0128,-4.73188 z"
         fill="#eeeeee"
         id="path443" />
      <path
         d="m 99.1933,15.9132 h -5.1612 c -0.9705,0 -1.7572,0.7854 -1.7572,1.7543 v 0.4609 c 0,0.9689 0.7867,1.7543 1.7572,1.7543 h 5.1612 c 0.9705,0 1.7572,-0.7854 1.7572,-1.7543 v -0.4609 c 0,-0.9689 -0.7867,-1.7543 -1.7572,-1.7543 z"
         fill="#b5c3e7"
         id="path445" />
      <g
         opacity="0.7"
         id="g453"
         transform="translate(26.105)">
        <g
           opacity="0.7"
           id="g451">
          <path
             d="m 109.358,107.32 c -0.546,-3.284 -2.311,-6.243 -4.944,-8.2858 -2.633,-2.043 -5.9408,-3.0203 -9.2635,-2.7372 -3.3226,0.283 -6.4164,1.8058 -8.6647,4.265 -2.2483,2.458 -3.486,5.673 -3.4663,9.002 0,0.066 0,0.129 0,0.195 -0.4904,0.074 -0.9758,0.178 -1.4536,0.311 -0.612,-2.433 -1.9664,-4.616 -3.8759,-6.247 -1.9095,-1.63 -4.2795,-2.627 -6.7819,-2.854 -2.5024,-0.226 -5.0132,0.33 -7.185,1.592 -2.1717,1.262 -3.8968,3.166 -4.9365,5.45 -1.0715,-0.413 -2.197,-0.67 -3.3418,-0.763 -0.1825,-1.034 -0.4887,-2.044 -0.9121,-3.006 -0.1987,-3.035 -1.5364,-5.8846 -3.7463,-7.9789 -2.2099,-2.0944 -5.1294,-3.28 -8.1761,-3.3203 -3.0468,-0.0402 -5.9967,1.0678 -8.2613,3.1031 -2.2646,2.0352 -3.6774,4.8481 -3.9565,7.8771 -0.6272,1.326 -1.0279,2.748 -1.1853,4.206 -2.7729,1.152 -5.0187,3.29 -6.3023,6.001 -1.2835,2.711 -1.5133,5.801 -0.6449,8.671 h 97.056 c 0.506,-1.674 0.642,-3.438 0.4,-5.17 -0.243,-1.732 -0.859,-3.39 -1.805,-4.862 -0.947,-1.471 -2.201,-2.72 -3.678,-3.661 -1.477,-0.941 -3.14,-1.551 -4.875,-1.788 z"
             fill="url(#paint5_linear)"
             id="path447"
             style="fill:url(#paint5_linear)" />
          <path
             d="m 109.358,107.32 c -0.546,-3.284 -2.311,-6.243 -4.944,-8.2858 -2.633,-2.043 -5.9408,-3.0203 -9.2635,-2.7372 -3.3226,0.283 -6.4164,1.8058 -8.6647,4.265 -2.2483,2.458 -3.486,5.673 -3.4663,9.002 0,0.066 0,0.129 0,0.195 -0.4904,0.074 -0.9758,0.178 -1.4536,0.311 -0.612,-2.433 -1.9664,-4.616 -3.8759,-6.247 -1.9095,-1.63 -4.2795,-2.627 -6.7819,-2.854 -2.5024,-0.226 -5.0132,0.33 -7.185,1.592 -2.1717,1.262 -3.8968,3.166 -4.9365,5.45 -1.0715,-0.413 -2.197,-0.67 -3.3418,-0.763 -0.1825,-1.034 -0.4887,-2.044 -0.9121,-3.006 -0.1987,-3.035 -1.5364,-5.8846 -3.7463,-7.9789 -2.2099,-2.0944 -5.1294,-3.28 -8.1761,-3.3203 -3.0468,-0.0402 -5.9967,1.0678 -8.2613,3.1031 -2.2646,2.0352 -3.6774,4.8481 -3.9565,7.8771 -0.6272,1.326 -1.0279,2.748 -1.1853,4.206 -2.7729,1.152 -5.0187,3.29 -6.3023,6.001 -1.2835,2.711 -1.5133,5.801 -0.6449,8.671 h 97.056 c 0.506,-1.674 0.642,-3.438 0.4,-5.17 -0.243,-1.732 -0.859,-3.39 -1.805,-4.862 -0.947,-1.471 -2.201,-2.72 -3.678,-3.661 -1.477,-0.941 -3.14,-1.551 -4.875,-1.788 z"
             fill="#dadada"
             id="path449" />
        </g>
      </g>
      <path
         d="m 69.6677,116.762 c 6.4253,0 11.634,-5.2 11.634,-11.615 0,-6.4149 -5.2087,-11.6151 -11.634,-11.6151 -6.4253,0 -11.634,5.2002 -11.634,11.6151 0,6.415 5.2087,11.615 11.634,11.615 z"
         fill="url(#paint6_linear)"
         id="path455"
         style="fill:url(#paint6_linear)" />
      <path
         d="m 69.6105,122.221 c 7.0358,0 12.7395,-5.694 12.7395,-12.718 0,-7.025 -5.7037,-12.7192 -12.7395,-12.7192 -7.0358,0 -12.7394,5.6942 -12.7394,12.7192 0,7.024 5.7036,12.718 12.7394,12.718 z"
         fill="url(#paint7_linear)"
         id="path457"
         style="fill:url(#paint7_linear)" />
      <path
         d="m 121.383,122.221 c 7.036,0 12.739,-5.694 12.739,-12.718 0,-7.025 -5.703,-12.7192 -12.739,-12.7192 -7.0358,0 -12.7394,5.6942 -12.7394,12.7192 0,7.024 5.7036,12.718 12.7394,12.718 z"
         fill="url(#paint8_linear)"
         id="path459"
         style="fill:url(#paint8_linear)" />
      <path
         d="m 120.7424,122.221 c 6.4256,0 11.6336,-5.201 11.6336,-11.615 0,-6.415 -5.208,-11.6155 -11.6336,-11.6155 -6.4253,0 -11.634,5.2005 -11.634,11.6155 0,6.414 5.2087,11.615 11.634,11.615 z"
         fill="url(#paint9_linear)"
         id="path461"
         style="fill:url(#paint9_linear)" />
      <path
         d="m 107.5956,112.814 c 0.002,1.836 -0.4333,3.647 -1.2698,5.283 -0.8366,1.636 -2.0504,3.05 -3.5416,4.126 H 89.1374 c -1.6152,-1.166 -2.9036,-2.726 -3.7417,-4.531 -0.8381,-1.805 -1.1979,-3.795 -1.0449,-5.779 0.153,-1.984 0.8137,-3.895 1.9188,-5.551 1.1051,-1.656 2.6176,-3 4.3925,-3.905 1.7749,-0.905 3.7529,-1.34 5.7443,-1.263 1.9915,0.077 3.9298,0.664 5.6291,1.703 1.6994,1.04 3.103,2.497 4.0763,4.234 0.9732,1.736 1.4836,3.693 1.4822,5.683 z"
         fill="url(#paint10_linear)"
         id="path463"
         style="fill:url(#paint10_linear)" />
      <path
         d="m 122.024,121.176 c 0,0.348 -0.0154,0.692 -0.0463,1.032 0.001,0.005 0.001,0.01 0,0.014 H 98.8023 c -0.0319,-0.344 -0.0479,-0.693 -0.0479,-1.044 -0.002,-2.78 0.9953,-5.467 2.8106,-7.575 1.8152,-2.107 4.3278,-3.494 7.0806,-3.908 0.5753,-0.086 1.1563,-0.13 1.738,-0.131 0.2972,0 0.5927,0.011 0.885,0.032 2.0852,0.159 4.089,0.876 5.8008,2.076 1.7119,1.199 3.0685,2.837 3.9275,4.74 0.0479,0.106 0.0942,0.212 0.1374,0.319 0.5875,1.409 0.8899,2.919 0.8897,4.445 z"
         fill="url(#paint11_linear)"
         id="path465"
         style="fill:url(#paint11_linear)" />
      <path
         d="m 144.012,118.853 c 0.001,1.141 -0.167,2.276 -0.498,3.368 h -22.2683 c -0.5384,-1.786 -0.6408,-3.675 -0.2987,-5.508 0.0191,-0.101 0.0383,-0.203 0.0607,-0.302 0.5605,-2.596 1.9954,-4.923 4.0655,-6.592 2.0698,-1.669 4.6508,-2.579 7.3118,-2.579 0.365,0 0.725,0.015 1.081,0.051 0.16,0.012 0.319,0.031 0.479,0.052 2.789,0.379 5.345,1.754 7.196,3.87 1.851,2.116 2.871,4.831 2.871,7.64 z"
         fill="url(#paint12_linear)"
         id="path467"
         style="fill:url(#paint12_linear)" />
      <path
         d="m 72.5452,122.222 c 0.0384,-0.121 0.0719,-0.242 0.1055,-0.365 0.5296,-1.977 0.5267,-4.059 -0.0085,-6.036 -0.5351,-1.976 -1.5835,-3.776 -3.0391,-5.217 -1.4555,-1.442 -3.2667,-2.474 -5.2502,-2.993 -1.9835,-0.519 -4.069,-0.505 -6.0455,0.04 -0.4628,0.126 -0.9169,0.283 -1.3594,0.468 -2.6644,1.107 -4.8223,3.162 -6.0554,5.767 -1.2331,2.605 -1.4536,5.574 -0.6186,8.332 h 22.2712 z"
         fill="url(#paint13_linear)"
         id="path469"
         style="fill:url(#paint13_linear)" />
      <g
         opacity="0.7"
         id="g473"
         transform="translate(26.105)">
        <path
           opacity="0.7"
           d="m 113.486,98.3339 c 1.178,0 2.134,-0.954 2.134,-2.1307 0,-1.1767 -0.956,-2.1307 -2.134,-2.1307 -1.179,0 -2.134,0.954 -2.134,2.1307 0,1.1767 0.955,2.1307 2.134,2.1307 z"
           fill="url(#paint14_linear)"
           id="path471"
           style="fill:url(#paint14_linear)" />
      </g>
      <path
         d="m 139.59,98.1769 c 1.093,0 1.978,-0.8839 1.978,-1.9744 0,-1.0904 -0.885,-1.9744 -1.978,-1.9744 -1.092,0 -1.977,0.884 -1.977,1.9744 0,1.0905 0.885,1.9744 1.977,1.9744 z"
         fill="url(#paint15_linear)"
         id="path475"
         style="fill:url(#paint15_linear)" />
      <g
         opacity="0.7"
         id="g479"
         transform="translate(26.105)">
        <path
           opacity="0.7"
           d="m 123.259,119.085 c 1.285,0 2.327,-1.04 2.327,-2.323 0,-1.284 -1.042,-2.324 -2.327,-2.324 -1.286,0 -2.328,1.04 -2.328,2.324 0,1.283 1.042,2.323 2.328,2.323 z"
           fill="url(#paint16_linear)"
           id="path477"
           style="fill:url(#paint16_linear)" />
      </g>
      <path
         d="m 149.364,118.969 c 1.221,0 2.211,-0.988 2.211,-2.207 0,-1.219 -0.99,-2.208 -2.211,-2.208 -1.221,0 -2.211,0.989 -2.211,2.208 0,1.219 0.99,2.207 2.211,2.207 z"
         fill="url(#paint17_linear)"
         id="path481"
         style="fill:url(#paint17_linear)" />
      <g
         opacity="0.7"
         id="g485"
         transform="translate(26.105)">
        <path
           opacity="0.7"
           d="m 23.6688,106.074 c 1.4125,0 2.5575,-1.143 2.5575,-2.554 0,-1.41 -1.145,-2.553 -2.5575,-2.553 -1.4125,0 -2.5575,1.143 -2.5575,2.553 0,1.411 1.145,2.554 2.5575,2.554 z"
           fill="url(#paint18_linear)"
           id="path483"
           style="fill:url(#paint18_linear)" />
      </g>
      <path
         d="m 49.7735,105.959 c 1.349,0 2.4425,-1.092 2.4425,-2.439 0,-1.347 -1.0935,-2.438 -2.4425,-2.438 -1.3489,0 -2.4424,1.091 -2.4424,2.438 0,1.347 1.0935,2.439 2.4424,2.439 z"
         fill="url(#paint19_linear)"
         id="path487"
         style="fill:url(#paint19_linear)" />
      <g
         opacity="0.4"
         id="g491"
         transform="translate(26.105)">
        <path
           opacity="0.4"
           d="M 120.017,2.77816 C 119.451,2.03029 118.74,1.4025 117.928,0.931353 116.996,0.396726 115.954,0.0829879 114.881,0.0143473 113.809,-0.0542933 112.735,0.124 111.742,0.535467 c -0.993,0.411468 -1.877,1.045113 -2.586,1.852033 -0.708,0.80692 -1.221,1.76555 -1.5,2.80191 -0.278,1.03636 -0.315,2.12275 -0.106,3.17534 0.209,1.05258 0.657,2.04325 1.31,2.89545 0.653,0.8523 1.493,1.5434 2.456,2.0199 0.963,0.4766 2.023,0.726 3.098,0.7288 0.148,0 0.297,0 0.444,-0.0143 1.264,-0.0797 2.484,-0.4998 3.528,-1.2157 1.045,-0.7159 1.875,-1.7009 2.404,-2.85043 0.529,-1.14949 0.736,-2.42052 0.6,-3.67809 -0.137,-1.25756 -0.612,-2.4547 -1.376,-3.46425 z"
           fill="url(#paint20_linear)"
           id="path489"
           style="fill:url(#paint20_linear)" />
      </g>
      <path
         opacity="0.2"
         d="m 147.152,6.99682 c 0.001,1.68325 -0.642,3.30338 -1.795,4.53078 -1.154,1.2274 -2.733,1.9699 -4.415,2.0766 -0.139,0.0095 -0.28,0.0143 -0.42,0.0143 -1.017,-6e-4 -2.02,-0.2346 -2.932,-0.684 -0.912,-0.4494 -1.708,-1.1021 -2.326,-1.9076 -0.619,-0.8056 -1.044,-1.74239 -1.242,-2.73804 -0.198,-0.99565 -0.165,-2.02348 0.099,-3.00401 0.263,-0.98053 0.748,-1.8875 1.419,-2.65079 0.67,-0.7633 1.507,-1.36246 2.446,-1.75117704 0.94,-0.388716 1.956,-0.556571 2.97,-0.490586 1.015,0.06599 2.001,0.364041 2.882,0.87112304 0.768,0.44542 1.44,1.03907 1.976,1.74634 0.87,1.14729 1.341,2.54771 1.338,3.98706 z"
         fill="#b5c3e7"
         id="path493" />
      <path
         opacity="0.05"
         d="m 138.889,2.79716 c -0.343,0.14754 -0.673,0.32136 -0.989,0.51992 -0.211,0.11671 -0.392,0.28045 -0.529,0.47844 -0.067,0.0993 -0.103,0.21577 -0.106,0.33543 -0.002,0.11966 0.03,0.23743 0.093,0.33918 0.16,0.22009 0.48,0.25518 0.746,0.26953 0.246,0.05198 0.5,0.03803 0.738,-0.04042 0.238,-0.07846 0.451,-0.21862 0.617,-0.40613 l 0.57,-0.51673 c 0.198,-0.17862 0.416,-0.42581 0.329,-0.6778 -0.065,-0.19297 -0.282,-0.28706 -0.479,-0.31896 -0.49,-0.09631 -0.998,-0.007 -1.426,0.25039"
         fill="#f55f44"
         id="path495" />
      <path
         opacity="0.05"
         d="m 136.507,9.95767 c 0.193,0 0.349,-0.15566 0.349,-0.34767 0,-0.19201 -0.156,-0.34767 -0.349,-0.34767 -0.192,0 -0.348,0.15566 -0.348,0.34767 0,0.19201 0.156,0.34767 0.348,0.34767 z"
         fill="#f55f44"
         id="path497" />
      <path
         opacity="0.05"
         d="m 143.605,8.6804 c 0.706,0 1.279,-0.57194 1.279,-1.27746 0,-0.70552 -0.573,-1.27745 -1.279,-1.27745 -0.707,0 -1.28,0.57193 -1.28,1.27745 0,0.70552 0.573,1.27746 1.28,1.27746 z"
         fill="#f55f44"
         id="path499" />
      <path
         opacity="0.05"
         d="m 145.816,3.00748 c -0.005,0.33379 -0.106,0.65911 -0.291,0.93729 -0.185,0.27817 -0.446,0.4975 -0.752,0.63192 -0.306,0.13442 -0.644,0.17826 -0.974,0.12632 -0.331,-0.05194 -0.639,-0.19747 -0.889,-0.4193 -0.25,-0.22184 -0.431,-0.51064 -0.521,-0.83207 -0.09,-0.32144 -0.086,-0.66199 0.012,-0.98118 0.098,-0.31918 0.285,-0.60357 0.541,-0.81936 0.255,-0.21579 0.567,-0.35391 0.898,-0.39793 0.769,0.44776 1.441,1.04417 1.976,1.75431 z"
         fill="#f55f44"
         id="path501" />
      <path
         opacity="0.05"
         d="m 145.944,10.8102 c -0.571,0.8103 -1.317,1.4822 -2.182,1.9659 -0.866,0.4837 -1.83,0.7667 -2.82,0.8282 -0.008,-0.0909 -0.013,-0.1834 -0.013,-0.2759 0,-0.5811 0.162,-1.1507 0.468,-1.6454 0.305,-0.4946 0.742,-0.8948 1.262,-1.1559 0.52,-0.2611 1.103,-0.3729 1.683,-0.323 0.579,0.05 1.134,0.2598 1.602,0.6061 z"
         fill="#f55f44"
         id="path503" />
      <path
         opacity="0.25"
         d="m 141.569,55.7821 c 0.45,0 0.814,-0.3641 0.814,-0.8133 0,-0.4492 -0.364,-0.8134 -0.814,-0.8134 -0.45,0 -0.815,0.3642 -0.815,0.8134 0,0.4492 0.365,0.8133 0.815,0.8133 z"
         fill="#535461"
         id="path505" />
      <path
         opacity="0.25"
         d="m 32.94312,77.153 c 0.44994,0 0.81469,-0.3642 0.81469,-0.8134 0,-0.4492 -0.36475,-0.8134 -0.81469,-0.8134 -0.44994,0 -0.81468,0.3642 -0.81468,0.8134 0,0.4492 0.36474,0.8134 0.81468,0.8134 z"
         fill="#535461"
         id="path507" />
      <path
         opacity="0.25"
         d="m 173.037,81.7782 c 0.45,0 0.815,-0.3641 0.815,-0.8133 0,-0.4493 -0.365,-0.8134 -0.815,-0.8134 -0.45,0 -0.814,0.3641 -0.814,0.8134 0,0.4492 0.364,0.8133 0.814,0.8133 z"
         fill="#535461"
         id="path509" />
      <path
         opacity="0.25"
         d="m 72.2278,43.2373 c 0.4499,0 0.8147,-0.3641 0.8147,-0.8133 0,-0.4492 -0.3648,-0.8134 -0.8147,-0.8134 -0.4499,0 -0.8147,0.3642 -0.8147,0.8134 0,0.4492 0.3648,0.8133 0.8147,0.8133 z"
         fill="#535461"
         id="path511" />
      <path
         opacity="0.25"
         d="m 69.552,24.5361 c 0.4499,0 0.8147,-0.3641 0.8147,-0.8133 0,-0.4492 -0.3648,-0.8134 -0.8147,-0.8134 -0.4499,0 -0.8147,0.3642 -0.8147,0.8134 0,0.4492 0.3648,0.8133 0.8147,0.8133 z"
         fill="#535461"
         id="path513" />
      <path
         opacity="0.25"
         d="m 46.5154,61.5886 c 0.4499,0 0.8147,-0.3641 0.8147,-0.8133 0,-0.4492 -0.3648,-0.8134 -0.8147,-0.8134 -0.45,0 -0.8147,0.3642 -0.8147,0.8134 0,0.4492 0.3647,0.8133 0.8147,0.8133 z"
         fill="#535461"
         id="path515" />
      <path
         opacity="0.25"
         d="m 161.755,61.7306 h -0.725 v -0.7224 h -0.295 v 0.7224 h -0.726 v 0.2967 h 0.726 v 0.7224 h 0.295 v -0.7224 h 0.725 z"
         fill="#535461"
         id="path517" />
      <path
         opacity="0.25"
         d="m 173.895,36.6921 h -0.725 v -0.7225 h -0.296 v 0.7225 h -0.725 v 0.2966 h 0.725 v 0.7225 h 0.296 v -0.7225 h 0.725 z"
         fill="#535461"
         id="path519" />
      <path
         opacity="0.25"
         d="m 122.1977,22.7042 h -0.7253 v -0.7241 h -0.2955 v 0.7241 h -0.7252 v 0.295 h 0.7252 v 0.724 h 0.2955 v -0.724 h 0.7253 z"
         fill="#535461"
         id="path521" />
      <path
         opacity="0.25"
         d="m 153.843,57.6658 h -0.726 v -0.7224 h -0.295 v 0.7224 h -0.724 v 0.2967 h 0.724 v 0.7224 h 0.295 v -0.7224 h 0.726 z"
         fill="#535461"
         id="path523" />
      <path
         opacity="0.25"
         d="m 127.316,81.7089 h -0.723 v -0.7224 h -0.296 v 0.7224 h -0.7252 v 0.2966 h 0.7252 v 0.7225 h 0.296 v -0.7225 h 0.723 z"
         fill="#535461"
         id="path525" />
      <path
         opacity="0.25"
         d="M 53.0902,32.1117 H 52.365 v -0.7224 h -0.2955 v 0.7224 h -0.7252 v 0.2951 h 0.7252 v 0.724 h 0.2955 v -0.724 h 0.7252 z"
         fill="#535461"
         id="path527" />
      <path
         opacity="0.25"
         d="M 27.85098,41.521 H 27.12575 V 40.7986 H 26.830229 V 41.521 H 26.105 v 0.2951 h 0.725229 v 0.724 h 0.295521 v -0.724 h 0.72523 z"
         fill="#535461"
         id="path529" />
      <path
         opacity="0.25"
         d="m 63.0945,71.1399 h -0.7252 v -0.724 h -0.2956 v 0.724 h -0.7236 v 0.2951 h 0.7236 v 0.724 h 0.2956 v -0.724 h 0.7252 z"
         fill="#535461"
         id="path531" />
      <path
         d="m 149.364,118.969 c 1.221,0 2.211,-0.988 2.211,-2.207 0,-1.219 -0.99,-2.208 -2.211,-2.208 -1.221,0 -2.211,0.989 -2.211,2.208 0,1.219 0.99,2.207 2.211,2.207 z"
         fill="url(#paint21_linear)"
         id="path533"
         style="fill:url(#paint21_linear)" />
      <g
         opacity="0.4"
         id="g537"
         transform="translate(26.105)">
        <path
           opacity="0.4"
           d="m 42.9644,55.5433 c -0.2699,-0.3564 -0.6082,-0.6557 -0.9952,-0.8803 -0.4438,-0.2579 -0.9412,-0.4102 -1.4535,-0.4452 -0.5123,-0.0349 -1.0258,0.0485 -1.5006,0.2438 -0.4748,0.1953 -0.8982,0.4973 -1.2372,0.8824 -0.339,0.3851 -0.5845,0.843 -0.7175,1.3382 -0.1331,0.4952 -0.15,1.0143 -0.0495,1.5171 0.1005,0.5028 0.3156,0.9756 0.6288,1.3819 0.3132,0.4064 0.716,0.7351 1.1771,0.9609 0.461,0.2257 0.968,0.3423 1.4815,0.3407 0.0703,0 0.1422,0 0.2109,0 0.6019,-0.0384 1.1822,-0.2388 1.6794,-0.5799 0.4971,-0.341 0.8924,-0.8101 1.1442,-1.3573 0.2517,-0.5473 0.3503,-1.1523 0.2855,-1.7511 -0.0649,-0.5987 -0.2908,-1.1687 -0.6539,-1.6496 z"
           fill="url(#paint22_linear)"
           id="path535"
           style="fill:url(#paint22_linear)" />
      </g>
      <path
         opacity="0.2"
         d="m 69.5591,57.5524 c 0,0.8017 -0.3059,1.5733 -0.8555,2.1578 -0.5496,0.5845 -1.3015,0.9381 -2.1029,0.9888 -0.0655,0 -0.1326,0 -0.1997,0 -0.4842,-5e-4 -0.9617,-0.1121 -1.3958,-0.3262 -0.434,-0.2142 -0.813,-0.5251 -1.1075,-0.9087 -0.2945,-0.3837 -0.4968,-0.8298 -0.5911,-1.3039 -0.0943,-0.4741 -0.0782,-0.9635 0.0472,-1.4304 0.1253,-0.4669 0.3565,-0.8988 0.6757,-1.2623 0.3191,-0.3634 0.7177,-0.6488 1.165,-0.8339 0.4472,-0.1852 0.9311,-0.2652 1.4142,-0.2339 0.4832,0.0313 0.9526,0.1731 1.3722,0.4144 0.3656,0.2121 0.6854,0.4945 0.9408,0.8309 0.4164,0.5488 0.6403,1.219 0.6374,1.9074 z"
         fill="#b5c3e7"
         id="path539" />
      <path
         opacity="0.1"
         d="m 65.6239,55.5522 c -0.1659,0.0697 -0.3262,0.1524 -0.4792,0.2472 -0.1003,0.0547 -0.1866,0.1316 -0.2524,0.2249 -0.0304,0.0476 -0.0466,0.1029 -0.0466,0.1594 0,0.0566 0.0162,0.1119 0.0466,0.1595 0.0465,0.0455 0.1022,0.0805 0.1634,0.1025 0.0612,0.022 0.1264,0.0306 0.1912,0.0251 0.1158,0.0237 0.2358,0.0165 0.348,-0.0207 0.1121,-0.0372 0.2125,-0.1032 0.291,-0.1914 l 0.2716,-0.2456 c 0.0942,-0.0861 0.1981,-0.2025 0.1597,-0.319 -0.0214,-0.044 -0.0538,-0.0818 -0.0941,-0.1097 -0.0403,-0.028 -0.0871,-0.0451 -0.1359,-0.0497 -0.2333,-0.0456 -0.4753,-0.003 -0.6789,0.1196"
         fill="#f55f44"
         id="path541" />
      <path
         opacity="0.1"
         d="m 64.4894,58.9623 c 0.0917,0 0.1661,-0.0742 0.1661,-0.1658 0,-0.0916 -0.0744,-0.1659 -0.1661,-0.1659 -0.0918,0 -0.1661,0.0743 -0.1661,0.1659 0,0.0916 0.0743,0.1658 0.1661,0.1658 z"
         fill="#f55f44"
         id="path543" />
      <path
         opacity="0.1"
         d="m 67.87,58.3542 c 0.337,0 0.6102,-0.2728 0.6102,-0.6092 0,-0.3365 -0.2732,-0.6093 -0.6102,-0.6093 -0.337,0 -0.6102,0.2728 -0.6102,0.6093 0,0.3364 0.2732,0.6092 0.6102,0.6092 z"
         fill="#f55f44"
         id="path545" />
      <path
         opacity="0.1"
         d="m 68.9225,55.6589 c -0.002,0.1589 -0.0497,0.3138 -0.1374,0.4464 -0.0877,0.1326 -0.2116,0.2372 -0.3572,0.3015 -0.1455,0.0643 -0.3065,0.0855 -0.4637,0.061 -0.1572,-0.0244 -0.3041,-0.0934 -0.4232,-0.1988 -0.1191,-0.1053 -0.2054,-0.2427 -0.2486,-0.3956 -0.0432,-0.1529 -0.0414,-0.315 0.005,-0.4669 0.0464,-0.152 0.1356,-0.2874 0.2569,-0.3903 0.1213,-0.1028 0.2696,-0.1687 0.4273,-0.1898 0.3658,0.2126 0.6856,0.4955 0.9409,0.8325 z"
         fill="#f55f44"
         id="path547" />
      <path
         opacity="0.1"
         d="m 68.9848,59.3689 c -0.2715,0.3861 -0.6266,0.7063 -1.0389,0.9368 -0.4123,0.2305 -0.8712,0.3655 -1.3428,0.3949 0,-0.0431 0,-0.0877 0,-0.1324 -9e-4,-0.278 0.0759,-0.5508 0.2218,-0.7877 0.1459,-0.2368 0.3551,-0.4283 0.6041,-0.5529 0.249,-0.1246 0.5279,-0.1774 0.8053,-0.1525 0.2773,0.025 0.5423,0.1268 0.7649,0.2938 z"
         fill="#f55f44"
         id="path549" />
      <g
         opacity="0.1"
         id="g553"
         transform="translate(26.105)">
        <path
           opacity="0.1"
           d="M 78.8475,32.2152 H 62.394 v 0.6379 h 16.4535 z"
           fill="#000000"
           id="path551" />
      </g>
    </g>
  </g>
  <defs
     id="defs716">
    <linearGradient
       id="paint0_linear"
       x1="70.7882"
       y1="110.681"
       x2="70.7882"
       y2="7.6551099"
       gradientUnits="userSpaceOnUse">
      <stop
         stop-color="#808080"
         stop-opacity="0.25"
         id="stop555" />
      <stop
         offset="0.54"
         stop-color="#808080"
         stop-opacity="0.12"
         id="stop557" />
      <stop
         offset="1"
         stop-color="#808080"
         stop-opacity="0.1"
         id="stop559" />
    </linearGradient>
    <linearGradient
       id="paint1_linear"
       x1="55.254398"
       y1="98.424301"
       x2="55.254398"
       y2="108.413"
       gradientUnits="userSpaceOnUse"
       gradientTransform="translate(26.105)">
      <stop
         stop-color="#E0E0E0"
         id="stop562" />
      <stop
         offset="0.31"
         stop-color="#FCCC63"
         id="stop564" />
      <stop
         offset="0.77"
         stop-color="#F55F44"
         id="stop566" />
    </linearGradient>
    <linearGradient
       id="paint2_linear"
       x1="1616.48"
       y1="6262.27"
       x2="1616.48"
       y2="6887.7402"
       gradientUnits="userSpaceOnUse"
       gradientTransform="translate(26.105)">
      <stop
         stop-color="#E0E0E0"
         id="stop569" />
      <stop
         offset="0.31"
         stop-color="#FCCC63"
         id="stop571" />
      <stop
         offset="0.77"
         stop-color="#F55F44"
         id="stop573" />
    </linearGradient>
    <linearGradient
       id="paint3_linear"
       x1="1797.08"
       y1="6262.27"
       x2="1797.08"
       y2="6887.7402"
       gradientUnits="userSpaceOnUse"
       gradientTransform="translate(26.105)">
      <stop
         stop-color="#E0E0E0"
         id="stop576" />
      <stop
         offset="0.31"
         stop-color="#FCCC63"
         id="stop578" />
      <stop
         offset="0.77"
         stop-color="#F55F44"
         id="stop580" />
    </linearGradient>
    <linearGradient
       id="paint4_linear"
       x1="2088.5601"
       y1="6262.27"
       x2="2088.5601"
       y2="6887.7402"
       gradientUnits="userSpaceOnUse"
       gradientTransform="translate(26.105)">
      <stop
         stop-color="#E0E0E0"
         id="stop583" />
      <stop
         offset="0.31"
         stop-color="#FCCC63"
         id="stop585" />
      <stop
         offset="0.77"
         stop-color="#F55F44"
         id="stop587" />
    </linearGradient>
    <linearGradient
       id="paint5_linear"
       x1="56968.102"
       y1="25027.1"
       x2="56968.102"
       y2="19435.6"
       gradientUnits="userSpaceOnUse">
      <stop
         stop-color="#808080"
         stop-opacity="0.25"
         id="stop590" />
      <stop
         offset="0.54"
         stop-color="#808080"
         stop-opacity="0.12"
         id="stop592" />
      <stop
         offset="1"
         stop-color="#808080"
         stop-opacity="0.1"
         id="stop594" />
    </linearGradient>
    <linearGradient
       id="paint6_linear"
       x1="43.562698"
       y1="93.531898"
       x2="43.562698"
       y2="116.762"
       gradientUnits="userSpaceOnUse"
       gradientTransform="translate(26.105)">
      <stop
         stop-color="#F2F2F2"
         id="stop597" />
      <stop
         offset="0.31"
         stop-color="#E6E6E6"
         id="stop599" />
      <stop
         offset="0.77"
         stop-color="#CCCCCC"
         id="stop601" />
    </linearGradient>
    <linearGradient
       id="paint7_linear"
       x1="6969.9302"
       y1="15535"
       x2="6969.9302"
       y2="19592.301"
       gradientUnits="userSpaceOnUse"
       gradientTransform="translate(26.105)">
      <stop
         stop-color="#F2F2F2"
         id="stop604" />
      <stop
         offset="0.31"
         stop-color="#E6E6E6"
         id="stop606" />
      <stop
         offset="0.77"
         stop-color="#CCCCCC"
         id="stop608" />
    </linearGradient>
    <linearGradient
       id="paint8_linear"
       x1="15279.4"
       y1="15535"
       x2="15279.4"
       y2="19592.301"
       gradientUnits="userSpaceOnUse"
       gradientTransform="translate(26.105)">
      <stop
         stop-color="#F2F2F2"
         id="stop611" />
      <stop
         offset="0.31"
         stop-color="#E6E6E6"
         id="stop613" />
      <stop
         offset="0.77"
         stop-color="#CCCCCC"
         id="stop615" />
    </linearGradient>
    <linearGradient
       id="paint9_linear"
       x1="13867.9"
       y1="14519.1"
       x2="13867.9"
       y2="17902.9"
       gradientUnits="userSpaceOnUse"
       gradientTransform="translate(26.105)">
      <stop
         stop-color="#F2F2F2"
         id="stop618" />
      <stop
         offset="0.31"
         stop-color="#E6E6E6"
         id="stop620" />
      <stop
         offset="0.77"
         stop-color="#CCCCCC"
         id="stop622" />
    </linearGradient>
    <linearGradient
       id="paint10_linear"
       x1="13437.2"
       y1="14817.7"
       x2="13437.2"
       y2="17591.1"
       gradientUnits="userSpaceOnUse"
       gradientTransform="translate(26.105)">
      <stop
         stop-color="#F2F2F2"
         id="stop625" />
      <stop
         offset="0.31"
         stop-color="#E6E6E6"
         id="stop627" />
      <stop
         offset="0.77"
         stop-color="#CCCCCC"
         id="stop629" />
    </linearGradient>
    <linearGradient
       id="paint11_linear"
       x1="15547.6"
       y1="9628.2197"
       x2="15547.6"
       y2="10633.1"
       gradientUnits="userSpaceOnUse"
       gradientTransform="translate(26.105)">
      <stop
         stop-color="#F2F2F2"
         id="stop632" />
      <stop
         offset="0.31"
         stop-color="#E6E6E6"
         id="stop634" />
      <stop
         offset="0.77"
         stop-color="#CCCCCC"
         id="stop636" />
    </linearGradient>
    <linearGradient
       id="paint12_linear"
       x1="18767.699"
       y1="11155"
       x2="18767.699"
       y2="12562.6"
       gradientUnits="userSpaceOnUse"
       gradientTransform="translate(26.105)">
      <stop
         stop-color="#F2F2F2"
         id="stop639" />
      <stop
         offset="0.31"
         stop-color="#E6E6E6"
         id="stop641" />
      <stop
         offset="0.77"
         stop-color="#CCCCCC"
         id="stop643" />
    </linearGradient>
    <linearGradient
       id="paint13_linear"
       x1="8363.8096"
       y1="11161.4"
       x2="8363.8096"
       y2="12569.9"
       gradientUnits="userSpaceOnUse"
       gradientTransform="translate(26.105)">
      <stop
         stop-color="#F2F2F2"
         id="stop646" />
      <stop
         offset="0.31"
         stop-color="#E6E6E6"
         id="stop648" />
      <stop
         offset="0.77"
         stop-color="#CCCCCC"
         id="stop650" />
    </linearGradient>
    <linearGradient
       id="paint14_linear"
       x1="3143.6799"
       y1="2721.77"
       x2="3143.6799"
       y2="2607.8999"
       gradientUnits="userSpaceOnUse">
      <stop
         stop-color="#808080"
         stop-opacity="0.25"
         id="stop653" />
      <stop
         offset="0.54"
         stop-color="#808080"
         stop-opacity="0.12"
         id="stop655" />
      <stop
         offset="1"
         stop-color="#808080"
         stop-opacity="0.1"
         id="stop657" />
    </linearGradient>
    <linearGradient
       id="paint15_linear"
       x1="2921.4099"
       y1="2427.53"
       x2="2921.4099"
       y2="2525.3"
       gradientUnits="userSpaceOnUse"
       gradientTransform="translate(26.105)">
      <stop
         stop-color="#F2F2F2"
         id="stop660" />
      <stop
         offset="0.31"
         stop-color="#E6E6E6"
         id="stop662" />
      <stop
         offset="0.77"
         stop-color="#CCCCCC"
         id="stop664" />
    </linearGradient>
    <linearGradient
       id="paint16_linear"
       x1="3712.6899"
       y1="3584.8201"
       x2="3712.6899"
       y2="3449.45"
       gradientUnits="userSpaceOnUse">
      <stop
         stop-color="#808080"
         stop-opacity="0.25"
         id="stop667" />
      <stop
         offset="0.54"
         stop-color="#808080"
         stop-opacity="0.12"
         id="stop669" />
      <stop
         offset="1"
         stop-color="#808080"
         stop-opacity="0.1"
         id="stop671" />
    </linearGradient>
    <linearGradient
       id="paint17_linear"
       x1="123.259"
       y1="114.554"
       x2="123.259"
       y2="118.969"
       gradientUnits="userSpaceOnUse"
       gradientTransform="translate(26.105)">
      <stop
         stop-color="#F2F2F2"
         id="stop674" />
      <stop
         offset="0.31"
         stop-color="#E0E0E0"
         id="stop676" />
      <stop
         offset="0.77"
         stop-color="#B3B3B3"
         id="stop678" />
    </linearGradient>
    <linearGradient
       id="paint18_linear"
       x1="778.992"
       y1="3497.6899"
       x2="778.992"
       y2="3334.1699"
       gradientUnits="userSpaceOnUse">
      <stop
         stop-color="#808080"
         stop-opacity="0.25"
         id="stop681" />
      <stop
         offset="0.54"
         stop-color="#808080"
         stop-opacity="0.12"
         id="stop683" />
      <stop
         offset="1"
         stop-color="#808080"
         stop-opacity="0.1"
         id="stop685" />
    </linearGradient>
    <linearGradient
       id="paint19_linear"
       x1="745.02399"
       y1="3192.3999"
       x2="745.02399"
       y2="3341.5901"
       gradientUnits="userSpaceOnUse"
       gradientTransform="translate(26.105)">
      <stop
         stop-color="#F2F2F2"
         id="stop688" />
      <stop
         offset="0.31"
         stop-color="#E6E6E6"
         id="stop690" />
      <stop
         offset="0.77"
         stop-color="#CCCCCC"
         id="stop692" />
    </linearGradient>
    <linearGradient
       id="paint20_linear"
       x1="12070.7"
       y1="2140.4199"
       x2="12070.7"
       y2="909.87903"
       gradientUnits="userSpaceOnUse">
      <stop
         stop-color="#808080"
         stop-opacity="0.25"
         id="stop695" />
      <stop
         offset="0.54"
         stop-color="#808080"
         stop-opacity="0.12"
         id="stop697" />
      <stop
         offset="1"
         stop-color="#808080"
         stop-opacity="0.1"
         id="stop699" />
    </linearGradient>
    <linearGradient
       id="paint21_linear"
       x1="3532.8401"
       y1="3285.6499"
       x2="3532.8401"
       y2="3407.8401"
       gradientUnits="userSpaceOnUse"
       gradientTransform="translate(26.105)">
      <stop
         stop-color="#F2F2F2"
         id="stop702" />
      <stop
         offset="0.31"
         stop-color="#E6E6E6"
         id="stop704" />
      <stop
         offset="0.77"
         stop-color="#CCCCCC"
         id="stop706" />
    </linearGradient>
    <linearGradient
       id="paint22_linear"
       x1="2644.3799"
       y1="3035.53"
       x2="2644.3799"
       y2="2756.3401"
       gradientUnits="userSpaceOnUse">
      <stop
         stop-color="#808080"
         stop-opacity="0.25"
         id="stop709" />
      <stop
         offset="0.54"
         stop-color="#808080"
         stop-opacity="0.12"
         id="stop711" />
      <stop
         offset="1"
         stop-color="#808080"
         stop-opacity="0.1"
         id="stop713" />
    </linearGradient>
  </defs>
</svg>
