<svg width="148" height="123" viewBox="0 0 148 123" fill="none" xmlns="http://www.w3.org/2000/svg">
<g opacity="0.7">
<path opacity="0.7" d="M93.3837 55.2734C93.3965 51.3876 92.4647 47.5567 90.6681 44.1096C89.815 42.4909 89.0371 41.4845 88.4317 40.8673C88.2034 40.6256 87.9052 40.4611 87.5787 40.3967C87.2522 40.3324 86.9138 40.3715 86.6106 40.5085C86.3683 40.5939 86.1495 40.7348 85.9716 40.92C85.1617 41.7572 84.4301 42.864 83.7912 44.0426C81.901 47.5702 80.92 51.512 80.9366 55.5126V57.9144H79.3935V30.005C79.3935 24.1552 78.082 18.3835 75.5133 13.2593C74.2961 10.8336 73.1859 9.32649 72.3313 8.39989C72.1242 8.16434 71.8692 7.97561 71.5833 7.84632C71.2973 7.71703 70.9871 7.65015 70.6731 7.65015C70.3592 7.65015 70.049 7.71703 69.763 7.84632C69.4771 7.97561 69.2221 8.16434 69.015 8.39989C67.8585 9.65502 66.8154 11.3136 65.9032 13.0775C63.202 18.3069 61.8298 24.2413 61.8298 30.2649V57.9144H60.496V55.3978C60.5125 51.3972 59.5315 47.4554 57.6414 43.9278C57.0024 42.7508 56.2708 41.644 55.4609 40.8051C55.2278 40.56 54.9227 40.3951 54.5896 40.3344C54.2566 40.2736 53.9128 40.3201 53.6079 40.467L53.6638 40.4973C53.4682 40.5836 53.2913 40.7071 53.1431 40.8609C52.544 41.4781 51.7661 42.4845 50.9067 44.1032C49.1101 47.5503 48.1782 51.3812 48.191 55.267V96.994H52.9514L52.4322 100.424V110.681H56.3235V100.424L55.8044 96.994H60.496V58.9941H61.8298V96.8233H65.6317L65.0854 100.423V110.681H68.9783V100.424L68.432 96.8249H73.5549L73.0086 100.424V110.681H76.9015V100.424L76.3552 96.8249H79.3903V58.9941H80.9334V97.0514H82.1842V96.994H86.3199L85.8007 100.424V110.681H89.6936V100.424L89.1745 96.994H93.3837V55.2734Z" fill="url(#paint0_linear)"/>
</g>
<path d="M57.0978 98.4246H53.4126L54.0707 93.9575H56.4397L57.0978 98.4246Z" fill="#535461"/>
<g opacity="0.1">
<path opacity="0.1" d="M53.8877 95.7306H56.6241L56.4404 94.4818H54.0714L53.8877 95.7306Z" fill="black"/>
</g>
<path d="M88.6887 98.4246H85.0034L85.6616 93.9575H88.0305L88.6887 98.4246Z" fill="#535461"/>
<g opacity="0.1">
<path opacity="0.1" d="M85.478 95.7306H88.2144L88.0307 94.4818H85.6617L85.478 95.7306Z" fill="black"/>
</g>
<path d="M69.077 98.4246H65.3901L66.0483 93.9575H68.4188L69.077 98.4246Z" fill="#535461"/>
<g opacity="0.1">
<path opacity="0.1" d="M65.8647 95.7306H68.6027L68.419 94.4818H66.0484L65.8647 95.7306Z" fill="black"/>
</g>
<path d="M76.5793 98.4246H72.894L73.5522 93.9575H75.9212L76.5793 98.4246Z" fill="#535461"/>
<g opacity="0.1">
<path opacity="0.1" d="M73.3682 95.7306H76.1061L75.9208 94.4818H73.5519L73.3682 95.7306Z" fill="black"/>
</g>
<path d="M83.4236 57.0289H57.0981V58.0799H83.4236V57.0289Z" fill="#535461"/>
<path d="M87.4938 40.4222C87.3547 40.2689 87.1849 40.1463 86.9955 40.0625C86.8061 39.9786 86.6012 39.9353 86.394 39.9353C86.1868 39.9353 85.9818 39.9786 85.7924 40.0625C85.603 40.1463 85.4333 40.2689 85.2941 40.4222C84.5274 41.2371 83.8357 42.3153 83.2303 43.4619C81.4387 46.9103 80.5118 50.7411 80.529 54.6257V95.0848H92.179V54.4582C92.1937 50.6801 91.3118 46.9523 89.6056 43.58C88.7973 42.0043 88.0609 41.0234 87.4938 40.4222Z" fill="#E0E0E0"/>
<path d="M54.087 40.4222C54.2262 40.2689 54.3959 40.1463 54.5853 40.0625C54.7747 39.9786 54.9797 39.9353 55.1869 39.9353C55.3941 39.9353 55.599 39.9786 55.7884 40.0625C55.9778 40.1463 56.1476 40.2689 56.2867 40.4222C57.0535 41.2371 57.7451 42.3153 58.3506 43.4619C60.1421 46.9103 61.069 50.7411 61.0518 54.6257V95.0848H49.3986V54.4582C49.384 50.6801 50.2659 46.9523 51.9721 43.58C52.7788 42.0043 53.5152 41.0234 54.087 40.4222Z" fill="#E0E0E0"/>
<path d="M49.4644 55.3215L52.2279 55.3343V58.7377H49.4644V55.3215Z" fill="#535461"/>
<path d="M58.2837 55.3215L61.0472 55.3343V58.7377H58.2837V55.3215Z" fill="#535461"/>
<path d="M80.5273 55.3215L83.2925 55.3343V58.7377H80.5273V55.3215Z" fill="#535461"/>
<path d="M89.3472 55.3215L92.1123 55.3343V58.7377H89.3472V55.3215Z" fill="#535461"/>
<g opacity="0.1">
<path opacity="0.1" d="M58.3459 43.4099C57.7421 42.2632 57.0488 41.1851 56.2821 40.3701C56.0654 40.1312 55.7764 39.9696 55.4591 39.91C55.1418 39.8504 54.8137 39.896 54.5249 40.04C54.6913 40.1229 54.8417 40.2347 54.969 40.3701C55.7357 41.1851 56.4274 42.2632 57.0329 43.4099C58.8244 46.8582 59.7513 50.689 59.7341 54.5736V95.0295H61.0504V54.5784C61.0674 50.6919 60.1394 46.8594 58.3459 43.4099Z" fill="black"/>
</g>
<g opacity="0.1">
<path opacity="0.1" d="M84.2782 43.5217C84.8821 42.375 85.5753 41.2969 86.3421 40.4819C86.4857 40.3277 86.659 40.204 86.8517 40.1183C86.5669 39.9938 86.2501 39.9619 85.9462 40.0272C85.6423 40.0925 85.3667 40.2516 85.1584 40.4819C84.3916 41.2969 83.7 42.375 83.0945 43.5217C81.303 46.97 80.3761 50.8008 80.3933 54.6854V95.1414H81.5786V54.6918C81.5598 50.8052 82.4862 46.9721 84.2782 43.5217Z" fill="black"/>
</g>
<path d="M57.0978 98.4243H53.4126V108.411H57.0978V98.4243Z" fill="url(#paint1_linear)"/>
<path d="M69.0754 98.4243H65.3901V108.411H69.0754V98.4243Z" fill="url(#paint2_linear)"/>
<path d="M76.5793 98.4243H72.894V108.411H76.5793V98.4243Z" fill="url(#paint3_linear)"/>
<path d="M88.6887 98.4243H85.0034V108.411H88.6887V98.4243Z" fill="url(#paint4_linear)"/>
<path d="M72.2498 8.70132C72.0573 8.47286 71.8171 8.2892 71.546 8.16321C71.2748 8.03721 70.9794 7.97192 70.6804 7.97192C70.3813 7.97192 70.0859 8.03721 69.8148 8.16321C69.5437 8.2892 69.3034 8.47286 69.1109 8.70132C68.0167 9.92295 67.0343 11.5385 66.1653 13.2577C63.6094 18.3516 62.3091 24.1328 62.3091 29.9954V94.9191H78.9366V29.7339C78.9366 24.0371 77.6954 18.4106 75.2626 13.4332C74.1108 11.0712 73.0597 9.60399 72.2498 8.70132Z" fill="#EEEEEE"/>
<path d="M73.0883 15.9132H67.9271C66.9566 15.9132 66.1699 16.6986 66.1699 17.6675V18.1284C66.1699 19.0973 66.9566 19.8827 67.9271 19.8827H73.0883C74.0588 19.8827 74.8455 19.0973 74.8455 18.1284V17.6675C74.8455 16.6986 74.0588 15.9132 73.0883 15.9132Z" fill="#B5C3E7"/>
<g opacity="0.7">
<g opacity="0.7">
<path d="M109.358 107.32C108.812 104.036 107.047 101.077 104.414 99.0342C101.781 96.9912 98.4732 96.0139 95.1505 96.297C91.8279 96.58 88.7341 98.1028 86.4858 100.562C84.2375 103.02 82.9998 106.235 83.0195 109.564C83.0195 109.63 83.0195 109.693 83.0195 109.759C82.5291 109.833 82.0437 109.937 81.5659 110.07C80.9539 107.637 79.5995 105.454 77.69 103.823C75.7805 102.193 73.4105 101.196 70.9081 100.969C68.4057 100.743 65.8949 101.299 63.7231 102.561C61.5514 103.823 59.8263 105.727 58.7866 108.011C57.7151 107.598 56.5896 107.341 55.4448 107.248C55.2623 106.214 54.9561 105.204 54.5327 104.242C54.334 101.207 52.9963 98.3574 50.7864 96.2631C48.5765 94.1687 45.657 92.9831 42.6103 92.9428C39.5635 92.9026 36.6136 94.0106 34.349 96.0459C32.0844 98.0811 30.6716 100.894 30.3925 103.923C29.7653 105.249 29.3646 106.671 29.2072 108.129C26.4343 109.281 24.1885 111.419 22.9049 114.13C21.6214 116.841 21.3916 119.931 22.26 122.801H119.316C119.822 121.127 119.958 119.363 119.716 117.631C119.473 115.899 118.857 114.241 117.911 112.769C116.964 111.298 115.71 110.049 114.233 109.108C112.756 108.167 111.093 107.557 109.358 107.32Z" fill="url(#paint5_linear)"/>
<path d="M109.358 107.32C108.812 104.036 107.047 101.077 104.414 99.0342C101.781 96.9912 98.4732 96.0139 95.1505 96.297C91.8279 96.58 88.7341 98.1028 86.4858 100.562C84.2375 103.02 82.9998 106.235 83.0195 109.564C83.0195 109.63 83.0195 109.693 83.0195 109.759C82.5291 109.833 82.0437 109.937 81.5659 110.07C80.9539 107.637 79.5995 105.454 77.69 103.823C75.7805 102.193 73.4105 101.196 70.9081 100.969C68.4057 100.743 65.8949 101.299 63.7231 102.561C61.5514 103.823 59.8263 105.727 58.7866 108.011C57.7151 107.598 56.5896 107.341 55.4448 107.248C55.2623 106.214 54.9561 105.204 54.5327 104.242C54.334 101.207 52.9963 98.3574 50.7864 96.2631C48.5765 94.1687 45.657 92.9831 42.6103 92.9428C39.5635 92.9026 36.6136 94.0106 34.349 96.0459C32.0844 98.0811 30.6716 100.894 30.3925 103.923C29.7653 105.249 29.3646 106.671 29.2072 108.129C26.4343 109.281 24.1885 111.419 22.9049 114.13C21.6214 116.841 21.3916 119.931 22.26 122.801H119.316C119.822 121.127 119.958 119.363 119.716 117.631C119.473 115.899 118.857 114.241 117.911 112.769C116.964 111.298 115.71 110.049 114.233 109.108C112.756 108.167 111.093 107.557 109.358 107.32Z" fill="#DADADA"/>
</g>
</g>
<path d="M43.5627 116.762C49.988 116.762 55.1967 111.562 55.1967 105.147C55.1967 98.7321 49.988 93.5319 43.5627 93.5319C37.1374 93.5319 31.9287 98.7321 31.9287 105.147C31.9287 111.562 37.1374 116.762 43.5627 116.762Z" fill="url(#paint6_linear)"/>
<path d="M43.5055 122.221C50.5413 122.221 56.245 116.527 56.245 109.503C56.245 102.478 50.5413 96.7838 43.5055 96.7838C36.4697 96.7838 30.7661 102.478 30.7661 109.503C30.7661 116.527 36.4697 122.221 43.5055 122.221Z" fill="url(#paint7_linear)"/>
<path d="M95.278 122.221C102.314 122.221 108.017 116.527 108.017 109.503C108.017 102.478 102.314 96.7838 95.278 96.7838C88.2422 96.7838 82.5386 102.478 82.5386 109.503C82.5386 116.527 88.2422 122.221 95.278 122.221Z" fill="url(#paint8_linear)"/>
<path d="M94.6374 122.221C101.063 122.221 106.271 117.02 106.271 110.606C106.271 104.191 101.063 98.9905 94.6374 98.9905C88.2121 98.9905 83.0034 104.191 83.0034 110.606C83.0034 117.02 88.2121 122.221 94.6374 122.221Z" fill="url(#paint9_linear)"/>
<path d="M81.4906 112.814C81.4925 114.65 81.0573 116.461 80.2208 118.097C79.3842 119.733 78.1704 121.147 76.6792 122.223H63.0324C61.4172 121.057 60.1288 119.497 59.2907 117.692C58.4526 115.887 58.0928 113.897 58.2458 111.913C58.3988 109.929 59.0595 108.018 60.1646 106.362C61.2697 104.706 62.7822 103.362 64.5571 102.457C66.332 101.552 68.31 101.117 70.3014 101.194C72.2929 101.271 74.2312 101.858 75.9305 102.897C77.6299 103.937 79.0335 105.394 80.0068 107.131C80.98 108.867 81.4904 110.824 81.489 112.814H81.4906Z" fill="url(#paint10_linear)"/>
<path d="M95.919 121.176C95.919 121.524 95.9036 121.868 95.8727 122.208C95.8739 122.213 95.8739 122.218 95.8727 122.222H72.6973C72.6654 121.878 72.6494 121.529 72.6494 121.178C72.6474 118.398 73.6447 115.711 75.46 113.603C77.2752 111.496 79.7878 110.109 82.5406 109.695C83.1159 109.609 83.6969 109.565 84.2786 109.564C84.5758 109.564 84.8713 109.575 85.1636 109.596C87.2488 109.755 89.2526 110.472 90.9644 111.672C92.6763 112.871 94.0329 114.509 94.8919 116.412C94.9398 116.518 94.9861 116.624 95.0293 116.731C95.6168 118.14 95.9192 119.65 95.919 121.176Z" fill="url(#paint11_linear)"/>
<path d="M117.907 118.853C117.908 119.994 117.74 121.129 117.409 122.221H95.1407C94.6023 120.435 94.4999 118.546 94.842 116.713C94.8611 116.612 94.8803 116.51 94.9027 116.411C95.4632 113.815 96.8981 111.488 98.9682 109.819C101.038 108.15 103.619 107.24 106.28 107.24C106.645 107.24 107.005 107.255 107.361 107.291C107.521 107.303 107.68 107.322 107.84 107.343C110.629 107.722 113.185 109.097 115.036 111.213C116.887 113.329 117.907 116.044 117.907 118.853Z" fill="url(#paint12_linear)"/>
<path d="M46.4402 122.222C46.4786 122.101 46.5121 121.98 46.5457 121.857C47.0753 119.88 47.0724 117.798 46.5372 115.821C46.0021 113.845 44.9537 112.045 43.4981 110.604C42.0426 109.162 40.2314 108.13 38.2479 107.611C36.2644 107.092 34.1789 107.106 32.2024 107.651C31.7396 107.777 31.2855 107.934 30.843 108.119C28.1786 109.226 26.0207 111.281 24.7876 113.886C23.5545 116.491 23.334 119.46 24.169 122.218H46.4402V122.222Z" fill="url(#paint13_linear)"/>
<g opacity="0.7">
<path opacity="0.7" d="M113.486 98.3339C114.664 98.3339 115.62 97.3799 115.62 96.2032C115.62 95.0265 114.664 94.0725 113.486 94.0725C112.307 94.0725 111.352 95.0265 111.352 96.2032C111.352 97.3799 112.307 98.3339 113.486 98.3339Z" fill="url(#paint14_linear)"/>
</g>
<path d="M113.485 98.1769C114.578 98.1769 115.463 97.293 115.463 96.2025C115.463 95.1121 114.578 94.2281 113.485 94.2281C112.393 94.2281 111.508 95.1121 111.508 96.2025C111.508 97.293 112.393 98.1769 113.485 98.1769Z" fill="url(#paint15_linear)"/>
<g opacity="0.7">
<path opacity="0.7" d="M123.259 119.085C124.544 119.085 125.586 118.045 125.586 116.762C125.586 115.478 124.544 114.438 123.259 114.438C121.973 114.438 120.931 115.478 120.931 116.762C120.931 118.045 121.973 119.085 123.259 119.085Z" fill="url(#paint16_linear)"/>
</g>
<path d="M123.259 118.969C124.48 118.969 125.47 117.981 125.47 116.762C125.47 115.543 124.48 114.554 123.259 114.554C122.038 114.554 121.048 115.543 121.048 116.762C121.048 117.981 122.038 118.969 123.259 118.969Z" fill="url(#paint17_linear)"/>
<g opacity="0.7">
<path opacity="0.7" d="M23.6688 106.074C25.0813 106.074 26.2263 104.931 26.2263 103.52C26.2263 102.11 25.0813 100.967 23.6688 100.967C22.2563 100.967 21.1113 102.11 21.1113 103.52C21.1113 104.931 22.2563 106.074 23.6688 106.074Z" fill="url(#paint18_linear)"/>
</g>
<path d="M23.6685 105.959C25.0175 105.959 26.111 104.867 26.111 103.52C26.111 102.173 25.0175 101.082 23.6685 101.082C22.3196 101.082 21.2261 102.173 21.2261 103.52C21.2261 104.867 22.3196 105.959 23.6685 105.959Z" fill="url(#paint19_linear)"/>
<g opacity="0.4">
<path opacity="0.4" d="M120.017 2.77816C119.451 2.03029 118.74 1.4025 117.928 0.931353C116.996 0.396726 115.954 0.0829879 114.881 0.0143473C113.809 -0.0542933 112.735 0.124 111.742 0.535467C110.749 0.946935 109.865 1.58058 109.156 2.3875C108.448 3.19442 107.935 4.15305 107.656 5.18941C107.378 6.22577 107.341 7.31216 107.55 8.36475C107.759 9.41733 108.207 10.408 108.86 11.2602C109.513 12.1125 110.353 12.8036 111.316 13.2801C112.279 13.7567 113.339 14.0061 114.414 14.0089C114.562 14.0089 114.711 14.0089 114.858 13.9946C116.122 13.9149 117.342 13.4948 118.386 12.7789C119.431 12.063 120.261 11.078 120.79 9.92847C121.319 8.77898 121.526 7.50795 121.39 6.25038C121.253 4.99282 120.778 3.79568 120.014 2.78613L120.017 2.77816Z" fill="url(#paint20_linear)"/>
</g>
<path opacity="0.2" d="M121.047 6.99682C121.048 8.68007 120.405 10.3002 119.252 11.5276C118.098 12.755 116.519 13.4975 114.837 13.6042C114.698 13.6137 114.557 13.6185 114.417 13.6185C113.4 13.6179 112.397 13.3839 111.485 12.9345C110.573 12.4851 109.777 11.8324 109.159 11.0269C108.54 10.2213 108.115 9.28451 107.917 8.28886C107.719 7.29321 107.752 6.26538 108.016 5.28485C108.279 4.30432 108.764 3.39735 109.435 2.63406C110.105 1.87076 110.942 1.2716 111.881 0.882883C112.821 0.494167 113.837 0.326312 114.851 0.392297C115.866 0.458282 116.852 0.756338 117.733 1.26342C118.501 1.70884 119.173 2.30249 119.709 3.00976C120.579 4.15705 121.05 5.55747 121.047 6.99682Z" fill="#B5C3E7"/>
<path opacity="0.05" d="M112.784 2.79716C112.441 2.9447 112.111 3.11852 111.795 3.31708C111.584 3.43379 111.403 3.59753 111.266 3.79552C111.199 3.89482 111.163 4.01129 111.16 4.13095C111.158 4.25061 111.19 4.36838 111.253 4.47013C111.413 4.69022 111.733 4.72531 111.999 4.73966C112.245 4.79164 112.499 4.77769 112.737 4.69924C112.975 4.62078 113.188 4.48062 113.354 4.29311L113.924 3.77638C114.122 3.59776 114.34 3.35057 114.253 3.09858C114.188 2.90561 113.971 2.81152 113.774 2.77962C113.284 2.68331 112.776 2.77257 112.348 3.03001" fill="#F55F44"/>
<path opacity="0.05" d="M110.402 9.95767C110.595 9.95767 110.751 9.80201 110.751 9.61C110.751 9.41799 110.595 9.26233 110.402 9.26233C110.21 9.26233 110.054 9.41799 110.054 9.61C110.054 9.80201 110.21 9.95767 110.402 9.95767Z" fill="#F55F44"/>
<path opacity="0.05" d="M117.5 8.6804C118.206 8.6804 118.779 8.10846 118.779 7.40294C118.779 6.69742 118.206 6.12549 117.5 6.12549C116.793 6.12549 116.22 6.69742 116.22 7.40294C116.22 8.10846 116.793 8.6804 117.5 8.6804Z" fill="#F55F44"/>
<path opacity="0.05" d="M119.711 3.00748C119.706 3.34127 119.605 3.66659 119.42 3.94477C119.235 4.22294 118.974 4.44227 118.668 4.57669C118.362 4.71111 118.024 4.75495 117.694 4.70301C117.363 4.65107 117.055 4.50554 116.805 4.28371C116.555 4.06187 116.374 3.77307 116.284 3.45164C116.194 3.1302 116.198 2.78965 116.296 2.47046C116.394 2.15128 116.581 1.86689 116.837 1.6511C117.092 1.43531 117.404 1.29719 117.735 1.25317C118.504 1.70093 119.176 2.29734 119.711 3.00748Z" fill="#F55F44"/>
<path opacity="0.05" d="M119.839 10.8102C119.268 11.6205 118.522 12.2924 117.657 12.7761C116.791 13.2598 115.827 13.5428 114.837 13.6043C114.829 13.5134 114.824 13.4209 114.824 13.3284C114.824 12.7473 114.986 12.1777 115.292 11.683C115.597 11.1884 116.034 10.7882 116.554 10.5271C117.074 10.266 117.657 10.1542 118.237 10.2041C118.816 10.2541 119.371 10.4639 119.839 10.8102Z" fill="#F55F44"/>
<path opacity="0.25" d="M115.464 55.7821C115.914 55.7821 116.278 55.418 116.278 54.9688C116.278 54.5196 115.914 54.1554 115.464 54.1554C115.014 54.1554 114.649 54.5196 114.649 54.9688C114.649 55.418 115.014 55.7821 115.464 55.7821Z" fill="#535461"/>
<path opacity="0.25" d="M6.83812 77.153C7.28806 77.153 7.65281 76.7888 7.65281 76.3396C7.65281 75.8904 7.28806 75.5262 6.83812 75.5262C6.38818 75.5262 6.02344 75.8904 6.02344 76.3396C6.02344 76.7888 6.38818 77.153 6.83812 77.153Z" fill="#535461"/>
<path opacity="0.25" d="M146.932 81.7782C147.382 81.7782 147.747 81.4141 147.747 80.9649C147.747 80.5156 147.382 80.1515 146.932 80.1515C146.482 80.1515 146.118 80.5156 146.118 80.9649C146.118 81.4141 146.482 81.7782 146.932 81.7782Z" fill="#535461"/>
<path opacity="0.25" d="M46.1228 43.2373C46.5727 43.2373 46.9375 42.8732 46.9375 42.424C46.9375 41.9748 46.5727 41.6106 46.1228 41.6106C45.6729 41.6106 45.3081 41.9748 45.3081 42.424C45.3081 42.8732 45.6729 43.2373 46.1228 43.2373Z" fill="#535461"/>
<path opacity="0.25" d="M43.447 24.5361C43.8969 24.5361 44.2617 24.172 44.2617 23.7228C44.2617 23.2736 43.8969 22.9094 43.447 22.9094C42.9971 22.9094 42.6323 23.2736 42.6323 23.7228C42.6323 24.172 42.9971 24.5361 43.447 24.5361Z" fill="#535461"/>
<path opacity="0.25" d="M20.4104 61.5886C20.8603 61.5886 21.2251 61.2245 21.2251 60.7753C21.2251 60.3261 20.8603 59.9619 20.4104 59.9619C19.9604 59.9619 19.5957 60.3261 19.5957 60.7753C19.5957 61.2245 19.9604 61.5886 20.4104 61.5886Z" fill="#535461"/>
<path opacity="0.25" d="M135.65 61.7306H134.925V61.0082H134.63V61.7306H133.904V62.0273H134.63V62.7497H134.925V62.0273H135.65V61.7306Z" fill="#535461"/>
<path opacity="0.25" d="M147.79 36.6921H147.065V35.9696H146.769V36.6921H146.044V36.9887H146.769V37.7112H147.065V36.9887H147.79V36.6921Z" fill="#535461"/>
<path opacity="0.25" d="M96.0927 22.7042H95.3674V21.9801H95.0719V22.7042H94.3467V22.9992H95.0719V23.7232H95.3674V22.9992H96.0927V22.7042Z" fill="#535461"/>
<path opacity="0.25" d="M127.738 57.6658H127.012V56.9434H126.717V57.6658H125.993V57.9625H126.717V58.6849H127.012V57.9625H127.738V57.6658Z" fill="#535461"/>
<path opacity="0.25" d="M101.211 81.7089H100.488V80.9865H100.192V81.7089H99.4668V82.0055H100.192V82.728H100.488V82.0055H101.211V81.7089Z" fill="#535461"/>
<path opacity="0.25" d="M26.9852 32.1117H26.26V31.3893H25.9645V32.1117H25.2393V32.4068H25.9645V33.1308H26.26V32.4068H26.9852V32.1117Z" fill="#535461"/>
<path opacity="0.25" d="M1.74598 41.521H1.02075V40.7986H0.725229V41.521H0V41.8161H0.725229V42.5401H1.02075V41.8161H1.74598V41.521Z" fill="#535461"/>
<path opacity="0.25" d="M36.9895 71.1399H36.2643V70.4159H35.9687V71.1399H35.2451V71.435H35.9687V72.159H36.2643V71.435H36.9895V71.1399Z" fill="#535461"/>
<path d="M123.259 118.969C124.48 118.969 125.47 117.981 125.47 116.762C125.47 115.543 124.48 114.554 123.259 114.554C122.038 114.554 121.048 115.543 121.048 116.762C121.048 117.981 122.038 118.969 123.259 118.969Z" fill="url(#paint21_linear)"/>
<g opacity="0.4">
<path opacity="0.4" d="M42.9644 55.5433C42.6945 55.1869 42.3562 54.8876 41.9692 54.663C41.5254 54.4051 41.028 54.2528 40.5157 54.2178C40.0034 54.1829 39.4899 54.2663 39.0151 54.4616C38.5403 54.6569 38.1169 54.9589 37.7779 55.344C37.4389 55.7291 37.1934 56.187 37.0604 56.6822C36.9273 57.1774 36.9104 57.6965 37.0109 58.1993C37.1114 58.7021 37.3265 59.1749 37.6397 59.5812C37.9529 59.9876 38.3557 60.3163 38.8168 60.5421C39.2778 60.7678 39.7848 60.8844 40.2983 60.8828C40.3686 60.8828 40.4405 60.8828 40.5092 60.8828C41.1111 60.8444 41.6914 60.644 42.1886 60.3029C42.6857 59.9619 43.081 59.4928 43.3328 58.9456C43.5845 58.3983 43.6831 57.7933 43.6183 57.1945C43.5534 56.5958 43.3275 56.0258 42.9644 55.5449V55.5433Z" fill="url(#paint22_linear)"/>
</g>
<path opacity="0.2" d="M43.4541 57.5524C43.4541 58.3541 43.1482 59.1257 42.5986 59.7102C42.049 60.2947 41.2971 60.6483 40.4957 60.699C40.4302 60.699 40.3631 60.699 40.296 60.699C39.8118 60.6985 39.3343 60.5869 38.9002 60.3728C38.4662 60.1586 38.0872 59.8477 37.7927 59.4641C37.4982 59.0804 37.2959 58.6343 37.2016 58.1602C37.1073 57.6861 37.1234 57.1967 37.2488 56.7298C37.3741 56.2629 37.6053 55.831 37.9245 55.4675C38.2436 55.1041 38.6422 54.8187 39.0895 54.6336C39.5367 54.4484 40.0206 54.3684 40.5037 54.3997C40.9869 54.431 41.4563 54.5728 41.8759 54.8141C42.2415 55.0262 42.5613 55.3086 42.8167 55.645C43.2331 56.1938 43.457 56.864 43.4541 57.5524Z" fill="#B5C3E7"/>
<path opacity="0.1" d="M39.5189 55.5522C39.353 55.6219 39.1927 55.7046 39.0397 55.7994C38.9394 55.8541 38.8531 55.931 38.7873 56.0243C38.7569 56.0719 38.7407 56.1272 38.7407 56.1837C38.7407 56.2403 38.7569 56.2956 38.7873 56.3432C38.8338 56.3887 38.8895 56.4237 38.9507 56.4457C39.0119 56.4677 39.0771 56.4763 39.1419 56.4708C39.2577 56.4945 39.3777 56.4873 39.4899 56.4501C39.602 56.4129 39.7024 56.3469 39.7809 56.2587L40.0525 56.0131C40.1467 55.927 40.2506 55.8106 40.2122 55.6941C40.1908 55.6501 40.1584 55.6123 40.1181 55.5844C40.0778 55.5564 40.031 55.5393 39.9822 55.5347C39.7489 55.4891 39.5069 55.5317 39.3033 55.6543" fill="#F55F44"/>
<path opacity="0.1" d="M38.3844 58.9623C38.4761 58.9623 38.5505 58.8881 38.5505 58.7965C38.5505 58.7049 38.4761 58.6306 38.3844 58.6306C38.2926 58.6306 38.2183 58.7049 38.2183 58.7965C38.2183 58.8881 38.2926 58.9623 38.3844 58.9623Z" fill="#F55F44"/>
<path opacity="0.1" d="M41.765 58.3542C42.102 58.3542 42.3752 58.0814 42.3752 57.745C42.3752 57.4085 42.102 57.1357 41.765 57.1357C41.428 57.1357 41.1548 57.4085 41.1548 57.745C41.1548 58.0814 41.428 58.3542 41.765 58.3542Z" fill="#F55F44"/>
<path opacity="0.1" d="M42.8175 55.6589C42.8155 55.8178 42.7678 55.9727 42.6801 56.1053C42.5924 56.2379 42.4685 56.3425 42.3229 56.4068C42.1774 56.4711 42.0164 56.4923 41.8592 56.4678C41.702 56.4434 41.5551 56.3744 41.436 56.269C41.3169 56.1637 41.2306 56.0263 41.1874 55.8734C41.1442 55.7205 41.146 55.5584 41.1924 55.4065C41.2388 55.2545 41.328 55.1191 41.4493 55.0162C41.5706 54.9134 41.7189 54.8475 41.8766 54.8264C42.2424 55.039 42.5622 55.3219 42.8175 55.6589Z" fill="#F55F44"/>
<path opacity="0.1" d="M42.8798 59.3689C42.6083 59.755 42.2532 60.0752 41.8409 60.3057C41.4286 60.5362 40.9697 60.6712 40.4981 60.7006C40.4981 60.6575 40.4981 60.6129 40.4981 60.5682C40.4972 60.2902 40.574 60.0174 40.7199 59.7805C40.8658 59.5437 41.075 59.3522 41.324 59.2276C41.573 59.103 41.8519 59.0502 42.1293 59.0751C42.4066 59.1001 42.6716 59.2019 42.8942 59.3689H42.8798Z" fill="#F55F44"/>
<g opacity="0.1">
<path opacity="0.1" d="M78.8475 32.2152H62.394V32.8531H78.8475V32.2152Z" fill="black"/>
</g>
<defs>
<linearGradient id="paint0_linear" x1="70.7882" y1="110.681" x2="70.7882" y2="7.65511" gradientUnits="userSpaceOnUse">
<stop stop-color="#808080" stop-opacity="0.25"/>
<stop offset="0.54" stop-color="#808080" stop-opacity="0.12"/>
<stop offset="1" stop-color="#808080" stop-opacity="0.1"/>
</linearGradient>
<linearGradient id="paint1_linear" x1="55.2544" y1="98.4243" x2="55.2544" y2="108.413" gradientUnits="userSpaceOnUse">
<stop stop-color="#E0E0E0"/>
<stop offset="0.31" stop-color="#FCCC63"/>
<stop offset="0.77" stop-color="#F55F44"/>
</linearGradient>
<linearGradient id="paint2_linear" x1="1616.48" y1="6262.27" x2="1616.48" y2="6887.74" gradientUnits="userSpaceOnUse">
<stop stop-color="#E0E0E0"/>
<stop offset="0.31" stop-color="#FCCC63"/>
<stop offset="0.77" stop-color="#F55F44"/>
</linearGradient>
<linearGradient id="paint3_linear" x1="1797.08" y1="6262.27" x2="1797.08" y2="6887.74" gradientUnits="userSpaceOnUse">
<stop stop-color="#E0E0E0"/>
<stop offset="0.31" stop-color="#FCCC63"/>
<stop offset="0.77" stop-color="#F55F44"/>
</linearGradient>
<linearGradient id="paint4_linear" x1="2088.56" y1="6262.27" x2="2088.56" y2="6887.74" gradientUnits="userSpaceOnUse">
<stop stop-color="#E0E0E0"/>
<stop offset="0.31" stop-color="#FCCC63"/>
<stop offset="0.77" stop-color="#F55F44"/>
</linearGradient>
<linearGradient id="paint5_linear" x1="56968.1" y1="25027.1" x2="56968.1" y2="19435.6" gradientUnits="userSpaceOnUse">
<stop stop-color="#808080" stop-opacity="0.25"/>
<stop offset="0.54" stop-color="#808080" stop-opacity="0.12"/>
<stop offset="1" stop-color="#808080" stop-opacity="0.1"/>
</linearGradient>
<linearGradient id="paint6_linear" x1="43.5627" y1="93.5319" x2="43.5627" y2="116.762" gradientUnits="userSpaceOnUse">
<stop stop-color="#F2F2F2"/>
<stop offset="0.31" stop-color="#E6E6E6"/>
<stop offset="0.77" stop-color="#CCCCCC"/>
</linearGradient>
<linearGradient id="paint7_linear" x1="6969.93" y1="15535" x2="6969.93" y2="19592.3" gradientUnits="userSpaceOnUse">
<stop stop-color="#F2F2F2"/>
<stop offset="0.31" stop-color="#E6E6E6"/>
<stop offset="0.77" stop-color="#CCCCCC"/>
</linearGradient>
<linearGradient id="paint8_linear" x1="15279.4" y1="15535" x2="15279.4" y2="19592.3" gradientUnits="userSpaceOnUse">
<stop stop-color="#F2F2F2"/>
<stop offset="0.31" stop-color="#E6E6E6"/>
<stop offset="0.77" stop-color="#CCCCCC"/>
</linearGradient>
<linearGradient id="paint9_linear" x1="13867.9" y1="14519.1" x2="13867.9" y2="17902.9" gradientUnits="userSpaceOnUse">
<stop stop-color="#F2F2F2"/>
<stop offset="0.31" stop-color="#E6E6E6"/>
<stop offset="0.77" stop-color="#CCCCCC"/>
</linearGradient>
<linearGradient id="paint10_linear" x1="13437.2" y1="14817.7" x2="13437.2" y2="17591.1" gradientUnits="userSpaceOnUse">
<stop stop-color="#F2F2F2"/>
<stop offset="0.31" stop-color="#E6E6E6"/>
<stop offset="0.77" stop-color="#CCCCCC"/>
</linearGradient>
<linearGradient id="paint11_linear" x1="15547.6" y1="9628.22" x2="15547.6" y2="10633.1" gradientUnits="userSpaceOnUse">
<stop stop-color="#F2F2F2"/>
<stop offset="0.31" stop-color="#E6E6E6"/>
<stop offset="0.77" stop-color="#CCCCCC"/>
</linearGradient>
<linearGradient id="paint12_linear" x1="18767.7" y1="11155" x2="18767.7" y2="12562.6" gradientUnits="userSpaceOnUse">
<stop stop-color="#F2F2F2"/>
<stop offset="0.31" stop-color="#E6E6E6"/>
<stop offset="0.77" stop-color="#CCCCCC"/>
</linearGradient>
<linearGradient id="paint13_linear" x1="8363.81" y1="11161.4" x2="8363.81" y2="12569.9" gradientUnits="userSpaceOnUse">
<stop stop-color="#F2F2F2"/>
<stop offset="0.31" stop-color="#E6E6E6"/>
<stop offset="0.77" stop-color="#CCCCCC"/>
</linearGradient>
<linearGradient id="paint14_linear" x1="3143.68" y1="2721.77" x2="3143.68" y2="2607.9" gradientUnits="userSpaceOnUse">
<stop stop-color="#808080" stop-opacity="0.25"/>
<stop offset="0.54" stop-color="#808080" stop-opacity="0.12"/>
<stop offset="1" stop-color="#808080" stop-opacity="0.1"/>
</linearGradient>
<linearGradient id="paint15_linear" x1="2921.41" y1="2427.53" x2="2921.41" y2="2525.3" gradientUnits="userSpaceOnUse">
<stop stop-color="#F2F2F2"/>
<stop offset="0.31" stop-color="#E6E6E6"/>
<stop offset="0.77" stop-color="#CCCCCC"/>
</linearGradient>
<linearGradient id="paint16_linear" x1="3712.69" y1="3584.82" x2="3712.69" y2="3449.45" gradientUnits="userSpaceOnUse">
<stop stop-color="#808080" stop-opacity="0.25"/>
<stop offset="0.54" stop-color="#808080" stop-opacity="0.12"/>
<stop offset="1" stop-color="#808080" stop-opacity="0.1"/>
</linearGradient>
<linearGradient id="paint17_linear" x1="123.259" y1="114.554" x2="123.259" y2="118.969" gradientUnits="userSpaceOnUse">
<stop stop-color="#F2F2F2"/>
<stop offset="0.31" stop-color="#E0E0E0"/>
<stop offset="0.77" stop-color="#B3B3B3"/>
</linearGradient>
<linearGradient id="paint18_linear" x1="778.992" y1="3497.69" x2="778.992" y2="3334.17" gradientUnits="userSpaceOnUse">
<stop stop-color="#808080" stop-opacity="0.25"/>
<stop offset="0.54" stop-color="#808080" stop-opacity="0.12"/>
<stop offset="1" stop-color="#808080" stop-opacity="0.1"/>
</linearGradient>
<linearGradient id="paint19_linear" x1="745.024" y1="3192.4" x2="745.024" y2="3341.59" gradientUnits="userSpaceOnUse">
<stop stop-color="#F2F2F2"/>
<stop offset="0.31" stop-color="#E6E6E6"/>
<stop offset="0.77" stop-color="#CCCCCC"/>
</linearGradient>
<linearGradient id="paint20_linear" x1="12070.7" y1="2140.42" x2="12070.7" y2="909.879" gradientUnits="userSpaceOnUse">
<stop stop-color="#808080" stop-opacity="0.25"/>
<stop offset="0.54" stop-color="#808080" stop-opacity="0.12"/>
<stop offset="1" stop-color="#808080" stop-opacity="0.1"/>
</linearGradient>
<linearGradient id="paint21_linear" x1="3532.84" y1="3285.65" x2="3532.84" y2="3407.84" gradientUnits="userSpaceOnUse">
<stop stop-color="#F2F2F2"/>
<stop offset="0.31" stop-color="#E6E6E6"/>
<stop offset="0.77" stop-color="#CCCCCC"/>
</linearGradient>
<linearGradient id="paint22_linear" x1="2644.38" y1="3035.53" x2="2644.38" y2="2756.34" gradientUnits="userSpaceOnUse">
<stop stop-color="#808080" stop-opacity="0.25"/>
<stop offset="0.54" stop-color="#808080" stop-opacity="0.12"/>
<stop offset="1" stop-color="#808080" stop-opacity="0.1"/>
</linearGradient>
</defs>
</svg>
