<svg width="400" height="400" viewBox="0 0 400 400" fill="none" xmlns="http://www.w3.org/2000/svg">
    <line x1="200" y1="10" x2="200" y2="41.42" fill="none" stroke="#E8EAED" stroke-linecap="round" stroke-miterlimit="10" stroke-width="6px"/>
    <line x1="105" y1="35.46" x2="120.71" y2="62.66" fill="none" stroke="#E8EAED" stroke-linecap="round" stroke-miterlimit="10" stroke-width="6px"/>
    <line x1="35.46" y1="105" x2="62.66" y2="120.71" fill="none" stroke="#E8EAED" stroke-linecap="round" stroke-miterlimit="10" stroke-width="6px"/>
    <line x1="10" y1="200" x2="41.42" y2="200" fill="none" stroke="#E8EAED" stroke-linecap="round" stroke-miterlimit="10" stroke-width="6px"/>
    <line x1="35.46" y1="295" x2="62.66" y2="279.29" fill="none" stroke="#E8EAED" stroke-linecap="round" stroke-miterlimit="10" stroke-width="6px"/>
    <line x1="364.54" y1="295" x2="337.34" y2="279.29" fill="none" stroke="#E8EAED" stroke-linecap="round" stroke-miterlimit="10" stroke-width="6px"/>
    <line x1="390" y1="200" x2="358.58" y2="200" fill="none" stroke="#E8EAED" stroke-linecap="round" stroke-miterlimit="10" stroke-width="6px"/>
    <line x1="364.54" y1="105" x2="337.34" y2="120.71" fill="none" stroke="#E8EAED" stroke-linecap="round" stroke-miterlimit="10" stroke-width="6px"/>
    <line x1="295" y1="35.46" x2="279.29" y2="62.66" fill="none" stroke="#E8EAED" stroke-linecap="round" stroke-miterlimit="10" stroke-width="6px"/>
    <path d="M251.2,51.21c-.67-1,10.33-9.56,11.16-10.16,5.81-4.22,12.64-8,19.94-8.46,7.91-.53,15.45,2.58,23,4.58,10.31,2.77,21.44,3.8,32.09,1.69,9.59-1.9,20.83-5.9,27.87-12.93-.24.24.3,2.83.33,3.18a65.31,65.31,0,0,1,0,8.51,59.1,59.1,0,0,1-7,25.06,43.41,43.41,0,0,1-18.94,18.13C329.14,86,317.78,88.93,307,93.41c-6.7,2.79-18.11,7.23-18.11,16.07Z" fill="#F439A0"/>
    <line x1="248.83" y1="47.55" x2="342.46" y2="192.24" fill="none" stroke="#DADCE0" stroke-miterlimit="10" stroke-width="7px"/>
    <path d="M279.89,172.88c18.52,6.68,53.35,9.87,64.53-10.87,14.77-27.39-23.47-38.52-43.87-34.53" fill="none" stroke="#34A853" stroke-linejoin="round" stroke-width="9px"/>
    <path d="M88.94,145C13,233.15,70,296.93,119,267.62" fill="none" stroke="#34A853" stroke-linejoin="round" stroke-width="9px"/>
    <path d="M234.54,260.65c59.23,111,7.37,98-23.53,93.23l2,20.19" fill="none" stroke="#188038" stroke-linejoin="round" stroke-width="9px"/>
    <path d="M186.58,274.6c31.93,144.76-28.4,65.93-35.58,53.33l-12.25,14.36" fill="none" stroke="#188038" stroke-linejoin="round" stroke-width="9px"/>
    <path d="M234.54,260.65q3.92,7.32,7.19,14" fill="none" stroke="#137333" stroke-linejoin="round" stroke-width="9px"/>
    <path d="M186.58,274.6q2.19,9.88,3.81,18.42" fill="none" stroke="#137333" stroke-linejoin="round" stroke-width="9px"/>
    <polygon points="170.71 172.85 72.71 212.2 112.06 310.2 210.06 270.85 308.06 231.5 268.71 133.5 170.71 172.85" fill="#1E8E3E"/>
    <path d="M158.45,268.63C142.2,271,125.93,263.43,114.7,250l83.92-22.8" fill="none" stroke="#FFF" stroke-miterlimit="10" stroke-width="6px"/>
    <line x1="316.62" y1="152.31" x2="342.46" y2="192.24" fill="none" stroke="#DADCE0" stroke-miterlimit="10" stroke-width="7px"/>
</svg>