<svg width="197" height="134" viewBox="0 0 197 134" fill="none" xmlns="http://www.w3.org/2000/svg">
<path d="M70.789 120.99C104.269 120.99 131.41 93.9057 131.41 60.4951C131.41 27.0846 104.269 0 70.789 0C37.3088 0 10.1677 27.0846 10.1677 60.4951C10.1677 93.9057 37.3088 120.99 70.789 120.99Z" fill="url(#paint0_linear)"/>
<path d="M2.01971 134C0.390107 134 -0.587656 132.048 0.390107 130.747C9.5159 118.063 32.3304 73.1793 64.1077 73.1793C67.041 73.1793 73.7223 75.2934 78.2852 76.757C80.8926 77.5701 83.8259 76.757 85.6185 74.6429L104.685 50.9002C114.299 38.3784 129.618 30.4099 146.729 30.8978C173.291 31.5483 195.454 52.8517 196.92 79.5216C198.55 109.281 174.921 133.837 145.425 133.837L2.01971 134Z" fill="url(#paint1_linear)"/>
<defs>
<linearGradient id="paint0_linear" x1="27.8913" y1="103.315" x2="113.45" y2="17.5887" gradientUnits="userSpaceOnUse">
<stop stop-color="#FABB05"/>
<stop offset="0.1101" stop-color="#FABC0A"/>
<stop offset="0.2353" stop-color="#FAC017"/>
<stop offset="0.3679" stop-color="#FBC62E"/>
<stop offset="0.5057" stop-color="#FBCF4E"/>
<stop offset="0.6476" stop-color="#FCDA77"/>
<stop offset="0.7928" stop-color="#FDE8AA"/>
<stop offset="0.9381" stop-color="#FEF8E4"/>
<stop offset="1" stop-color="white"/>
</linearGradient>
<linearGradient id="paint1_linear" x1="150.992" y1="149.397" x2="61.0712" y2="59.2894" gradientUnits="userSpaceOnUse">
<stop offset="0.00664063" stop-color="#FDDF87" stop-opacity="0.2"/>
<stop offset="0.1696" stop-color="#FDE294" stop-opacity="0.2164"/>
<stop offset="0.4701" stop-color="#FEEBB6" stop-opacity="0.2467"/>
<stop offset="0.8721" stop-color="#FFFAEC" stop-opacity="0.2871"/>
<stop offset="1" stop-color="white" stop-opacity="0.3"/>
</linearGradient>
</defs>
</svg>
