<svg width="30" height="30" fill="none" xmlns="http://www.w3.org/2000/svg"><path fill-rule="evenodd" clip-rule="evenodd" d="M30 15c0 8.28-6.72 15-15.015 15C6.705 30 0 23.28 0 15 0 6.72 6.705 0 14.985 0 23.28 0 30 6.72 30 15zM9.75 9A2.247 2.247 0 0112 11.25a2.247 2.247 0 01-2.25 2.25 2.247 2.247 0 01-2.25-2.25A2.247 2.247 0 019.75 9zm10.5 0A2.247 2.247 0 0018 11.25a2.247 2.247 0 002.25 2.25 2.247 2.247 0 002.25-2.25A2.247 2.247 0 0020.25 9zM10.5 22.5v-3h9v3h-9zM15 3c6.63 0 12 5.37 12 12s-5.37 12-12 12S3 21.63 3 15 8.37 3 15 3z" fill="currentColor"/></svg>