<svg width="30" height="30" fill="none" xmlns="http://www.w3.org/2000/svg"><path fill-rule="evenodd" clip-rule="evenodd" d="M30 15c0 8.28-6.72 15-15.015 15C6.705 30 0 23.28 0 15 0 6.72 6.705 0 14.985 0 23.28 0 30 6.72 30 15zm-9.75-1.5a2.247 2.247 0 002.25-2.25A2.247 2.247 0 0020.25 9 2.247 2.247 0 0018 11.25a2.247 2.247 0 002.25 2.25zm3.225 4.5c-1.245 3.495-4.56 6-8.49 6-3.915 0-7.23-2.505-8.475-6h3.315c1.035 1.785 2.955 3 5.16 3 2.22 0 4.125-1.215 5.175-3h3.315zM12 11.25a2.247 2.247 0 01-2.25 2.25 2.247 2.247 0 01-2.25-2.25A2.247 2.247 0 019.75 9 2.247 2.247 0 0112 11.25zM15 3c6.63 0 12 5.37 12 12s-5.37 12-12 12S3 21.63 3 15 8.37 3 15 3z" fill="currentColor"/></svg>