<svg id="_1_Step_Darker" data-name="1 Step Darker" xmlns="http://www.w3.org/2000/svg" viewBox="0 0 570 336"><defs><style>.cls-1,.cls-11,.cls-12,.cls-13,.cls-14,.cls-16,.cls-17,.cls-18,.cls-19,.cls-23,.cls-3,.cls-4,.cls-6,.cls-7,.cls-8,.cls-9{fill:none;}.cls-1,.cls-14{stroke:#4285f4;}.cls-1,.cls-11,.cls-12,.cls-13,.cls-14,.cls-16,.cls-17,.cls-18,.cls-19,.cls-3,.cls-4,.cls-7,.cls-8,.cls-9{stroke-linejoin:round;stroke-width:7px;}.cls-2{fill:#f1f3f4;}.cls-3{stroke:#1a73e8;}.cls-4{stroke:#1967d2;}.cls-5{fill:#1a73e8;}.cls-6{stroke:#fff;stroke-width:5px;}.cls-23,.cls-6{stroke-miterlimit:10;}.cls-7{stroke:#fbbc04;}.cls-8{stroke:#f29900;}.cls-9{stroke:#ea8600;}.cls-10{fill:#f9ab00;}.cls-11{stroke:#34a853;}.cls-12{stroke:#188038;}.cls-13{stroke:#137333;}.cls-14{stroke-linecap:round;}.cls-15{fill:#1e8e3e;}.cls-16{stroke:#e94235;}.cls-17{stroke:#d93025;}.cls-18{stroke:#c5221f;}.cls-19{stroke:#b31412;}.cls-20{fill:#d93025;}.cls-21{fill:#80868b;}.cls-22{fill:#dadce0;}.cls-23{stroke:#bdc1c6;stroke-width:0.44px;}.cls-24{fill:#5f6368;}.cls-25{fill:#24c1e0;}.cls-26{fill:#bdc1c6;}.cls-27{fill:#f8f9fa;}.cls-28{fill:#9aa0a6;}</style></defs><path class="cls-1" d="M170.78,167.21c11.36-5.5,21.2,1.59,22.73,7"/><ellipse class="cls-2" cx="292.73" cy="307.44" rx="252.51" ry="10.01"/><path class="cls-1" d="M93.23,212.44c-6,6.78-17,9.12-25.62,8.24-14.77-1.52-23-11-28.38-24"/><path class="cls-3" d="M93.23,212.44a24.66,24.66,0,0,1-11.81,7"/><path class="cls-4" d="M125.33,206.44,112.12,242a60,60,0,0,0,.12,42.15l11.09,21.34H109.11"/><line class="cls-4" x1="125.33" y1="206.44" x2="115.78" y2="232.11"/><polyline class="cls-4" points="146.34 216.44 146.34 305.44 159.57 305.44"/><path class="cls-4" d="M125.33,206.44a72.1,72.1,0,0,0-5.25,13.5"/><line class="cls-4" x1="146.34" y1="216.44" x2="146.34" y2="223.44"/><path class="cls-5" d="M142.65,219.64a61.5,61.5,0,0,1-80.49-33l113.46-47.52A61.51,61.51,0,0,1,142.65,219.64Z"/><path class="cls-6" d="M146.93,202c7.74-4.34,12.25-12.92,12.66-22.39l-43.54,17.79"/><path class="cls-7" d="M385.07,137.93c18,7.48,43.08,2.83,56-12.14,11.22-13,11.51-31.12,6.34-46.75"/><path class="cls-7" d="M322.39,152.05c-24.41,12-41.12,72.46-24.79,98"/><path class="cls-7" d="M365.34,177.13c2.77,13.29,5.23,29.83,9.9,45.42"/><path class="cls-8" d="M366,239.9l3.21,28.92a29.93,29.93,0,0,1-3.14,17L356,305.44h14.22"/><polyline class="cls-8" points="341.55 234.9 341.55 305.44 328.32 305.44"/><line class="cls-9" x1="366.02" y1="239.9" x2="367.18" y2="250.34"/><line class="cls-9" x1="341.55" y1="234.9" x2="341.55" y2="250.34"/><polygon class="cls-10" points="396.25 159.92 399.43 77.98 317.49 74.81 314.31 156.75 311.13 238.69 393.08 241.87 396.25 159.92"/><path class="cls-6" d="M335.08,118.92c5,15.13,20.44,24.7,38.06,14.51"/><path class="cls-6" d="M340,115c-2.94,3.32-5.56,4.45-11.13,5.07"/><path class="cls-11" d="M326.51,226.26c9.21,1.09,46.63,9.81,36.62-24"/><path class="cls-12" d="M255.19,243.91c-1.95,22.25-1.06,43.25,6,61.53H277"/><path class="cls-12" d="M227.09,243.91c-2,21.75-.54,42.43,6,61.53H218.47"/><path class="cls-13" d="M255.19,243.91a212.54,212.54,0,0,0-.86,22.78"/><path class="cls-13" d="M227.09,243.91q-.75,8.16-.82,16.11"/><path class="cls-14" d="M193.58,180c-2.07,8.2-14.68,10.84-20.68,15.6-1.52,1.21-3.64,2.28-4.66,4a5,5,0,0,0-.6,1.84"/><path class="cls-11" d="M163.46,270.46c-9.77-6.25-16-20.14-13.11-31.58,2.53-9.9,14-22.34,23.45-25.13"/><polygon class="cls-15" points="256.35 176.56 174.84 167.6 165.88 249.12 247.39 258.08 328.91 267.04 337.87 185.53 256.35 176.56"/><path class="cls-6" d="M221.29,221.77C234.34,238,260,245,280.76,228.31"/><path class="cls-16" d="M486.65,220.21C504,231,522.5,249.9,535.85,213.92"/><path class="cls-17" d="M486.65,220.21c4.33,2.7,8.74,5.9,13.12,8.63"/><path class="cls-16" d="M392.08,212.43c2.38,17.25,3.91,37.24,0,54.26"/><path class="cls-17" d="M392.08,212.43c1,7.16,1.82,14.78,2.19,22.47"/><polyline class="cls-18" points="430.17 218.39 421.63 305.44 399.33 305.44"/><polyline class="cls-18" points="469.93 218.39 461.39 305.44 482.13 305.44"/><line class="cls-19" x1="430.17" y1="218.39" x2="426.5" y2="255.77"/><line class="cls-19" x1="469.93" y1="218.39" x2="466.6" y2="252.34"/><circle class="cls-20" cx="444.5" cy="188.84" r="61.5"/><path class="cls-6" d="M464.88,219.51c-9.5,12.78-27.2,17-40.68,1.74"/><path class="cls-6" d="M430.17,219.55c-4.42-.27-7.08.79-11.45,4.29"/><path class="cls-1" d="M167.64,201.39a8.07,8.07,0,0,0,2.46,7.06c3.38,3,10.33,1.86,12-2.55"/><path class="cls-21" d="M517.93,197.07l-.44,2.26a3,3,0,0,0,.93,2.81l4.27,3.85a6,6,0,0,1,1.53,6.75l-4.56,11.07a20.08,20.08,0,0,0-1.5,8.14l.31,12.64a2,2,0,0,0,1.62,1.91l2.75.54a2,2,0,0,0,2.22-1.16l5.06-11.58a20,20,0,0,0,1.68-8.11l0-12a6,6,0,0,1,4-5.68l5.4-1.95a3,3,0,0,0,1.93-2.25l.44-2.26Z"/><rect class="cls-22" x="519.03" y="185.68" width="26.05" height="14.03" transform="translate(46.97 -98.7) rotate(11.08)"/><line class="cls-23" x1="520.05" y1="186.25" x2="545.61" y2="191.26"/><line class="cls-23" x1="518.51" y1="194.12" x2="544.07" y2="199.13"/><path class="cls-24" d="M523.09,164H548a.59.59,0,0,1,.59.59V186a0,0,0,0,1,0,0H522.5a0,0,0,0,1,0,0V164.56a.59.59,0,0,1,.59-.59Z" transform="translate(43.64 -99.7) rotate(11.08)"/><line class="cls-23" x1="523.58" y1="183.88" x2="527.81" y2="162.25"/><line class="cls-23" x1="527.51" y1="184.65" x2="531.75" y2="163.02"/><line class="cls-23" x1="531.44" y1="185.42" x2="535.68" y2="163.79"/><line class="cls-23" x1="535.37" y1="186.19" x2="539.61" y2="164.56"/><line class="cls-23" x1="539.31" y1="186.96" x2="543.55" y2="165.33"/><line class="cls-23" x1="543.24" y1="187.73" x2="547.48" y2="166.1"/><path class="cls-25" d="M549.45,166.49l-23.6-4.63a1,1,0,0,0-1.18.79l-1.35,6.89,2.56,9.24a3,3,0,0,0,4.38,1.82l8.63-4.89a6,6,0,0,1,7.33,1.1l1.84,1.95,2.18-11.1A1,1,0,0,0,549.45,166.49Z"/><path class="cls-26" d="M91.3,137.33,77.09,125.86l-57,70.65a9.12,9.12,0,0,0,1.38,12.84h0A9.12,9.12,0,0,0,34.33,208Zm-60.91,61a5,5,0,1,1-7.09.76A5,5,0,0,1,30.39,198.31Z"/><path class="cls-22" d="M83.68,117.3l15.58,9.54,10-16.37a22.82,22.82,0,1,1-15.38-9.85Z"/><polygon class="cls-22" points="81.24 122.25 75.23 127.87 91.48 137.82 97.42 132.17 81.24 122.25"/><polygon class="cls-27" points="95.68 131.1 89.67 136.71 91.42 137.78 97.42 132.17 95.68 131.1"/><polygon class="cls-27" points="92.07 128.89 86.06 134.5 87.81 135.57 93.81 129.96 92.07 128.89"/><polygon class="cls-27" points="88.46 126.67 82.45 132.29 84.2 133.36 90.2 127.74 88.46 126.67"/><polygon class="cls-27" points="84.85 124.46 78.84 130.08 80.59 131.15 86.59 125.53 84.85 124.46"/><polygon class="cls-27" points="81.24 122.25 75.23 127.87 76.98 128.94 82.98 123.32 81.24 122.25"/><polygon class="cls-26" points="466.08 97.09 461.17 99.63 427.6 28.96 432.51 26.42 466.08 97.09"/><polygon class="cls-22" points="437.63 33.71 430.06 37.63 424.44 21.95 429.07 19.55 437.63 33.71"/><path class="cls-21" d="M466.83,105.11h0A7.34,7.34,0,0,1,456.69,102l-15.25-32.1,13.88-7.18,15.24,32.1A8,8,0,0,1,466.83,105.11Z"/><path class="cls-24" d="M464.56,100.33h0A4,4,0,0,1,459,98.6L444.59,68.22l7.58-3.92L466.6,94.68A4.35,4.35,0,0,1,464.56,100.33Z"/><rect class="cls-26" x="142.69" y="257.09" width="61.38" height="12.69" transform="translate(-127.38 168.57) rotate(-39.14)"/><rect class="cls-28" x="192.5" y="239.38" width="5.27" height="12.69" transform="translate(-111.32 178.33) rotate(-39.14)"/><rect class="cls-26" x="205.54" y="244.6" width="12.9" height="9.56" transform="translate(271.58 -72.46) rotate(50.86)"/><rect class="cls-22" x="209.99" y="252.12" width="16.52" height="9.9" rx="1.53" transform="translate(549.8 318.67) rotate(140.86)"/><path class="cls-22" d="M175.87,220.73c4.56-.39,13.4-.24,24.73,4.4a14.61,14.61,0,0,1,5.8,4.3l9,11.11a1.53,1.53,0,0,1-.22,2.16l-10.44,8.5a1.53,1.53,0,0,1-2.15-.23l-8-9.81A44.24,44.24,0,0,1,189.9,234c-1.21-2.28-4.66-6.23-14.42-11.22A1.06,1.06,0,0,1,175.87,220.73Z"/><rect class="cls-26" x="158.98" y="236.29" width="3.47" height="74.9" rx="1.73" transform="translate(271.56 -23.71) rotate(50.86)"/><path class="cls-24" d="M166.85,260.56l-38.79,31.57a6.34,6.34,0,0,0,8,9.84l38.79-31.57Z"/><path class="cls-11" d="M163.46,270.46c-9.77-6.25-16-20.14-13.11-31.58"/></svg>