<svg width="400" height="400" viewBox="0 0 400 400" fill="none" xmlns="http://www.w3.org/2000/svg">
    <path d="M281.11,316.17a16,16,0,0,1-20.69,15.23" fill="none" stroke="#F29900" stroke-linejoin="round" stroke-width="9.4px"/>
    <path d="M118.86,316.17a16,16,0,0,0,20.69,15.23" fill="none" stroke="#F29900" stroke-linejoin="round" stroke-width="9.4px"/>
    <path d="M201,300.22H134.81a16,16,0,0,0-16,15.95h0" fill="none" stroke="#F29900" stroke-linejoin="round" stroke-width="9.4px"/>
    <path d="M198.06,300.22h67.1a16,16,0,0,1,15.95,15.95h0" fill="none" stroke="#F29900" stroke-linejoin="round" stroke-width="9.4px"/>
    <path d="M249.64,206.74c-1.42,24.59,12.3,59.39,35.05,71.31,15.3,8,34.85,1.6,37.66-16.54C324.46,247.84,316.82,233,308,223c0,0,14.73-2.8,14.73-21.22" fill="none" stroke="#FBBC04" stroke-linejoin="round" stroke-width="9.4px"/>
    <path d="M150.36,206.74c1.42,24.59-12.3,59.39-35.05,71.31-15.3,8-34.85,1.6-37.66-16.54C75.54,247.84,83.18,233,92,223c0,0-14.73-2.8-14.73-21.22" fill="none" stroke="#FBBC04" stroke-linejoin="round" stroke-width="9.4px"/>
    <rect x="145.23" y="76.68" width="109.53" height="219.7" fill="#F9AB00"/>
    <path d="M172.74,142.94c13.38,16.48,37.19,21.05,54.28,0" fill="none" stroke="#FFF" stroke-miterlimit="10" stroke-width="6.66px"/>
    <polyline points="260.42 331.4 118.86 286.37 108.46 314.45" fill="none" stroke="#F29900" stroke-linejoin="round" stroke-width="9.4px"/>
    <polyline points="139.55 331.4 281.11 286.37 291.51 314.45" fill="none" stroke="#F29900" stroke-linejoin="round" stroke-width="9.4px"/>
    <ellipse cx="200" cy="381.74" rx="79.51" ry="8.26" fill="#F1F3F4"/>
    <line x1="200" y1="10" x2="200" y2="41.42" fill="none" stroke="#E8EAED" stroke-linecap="round" stroke-miterlimit="10" stroke-width="6px"/>
    <line x1="105" y1="35.46" x2="120.71" y2="62.66" fill="none" stroke="#E8EAED" stroke-linecap="round" stroke-miterlimit="10" stroke-width="6px"/>
    <line x1="35.46" y1="105" x2="62.66" y2="120.71" fill="none" stroke="#E8EAED" stroke-linecap="round" stroke-miterlimit="10" stroke-width="6px"/>
    <line x1="10" y1="200" x2="41.42" y2="200" fill="none" stroke="#E8EAED" stroke-linecap="round" stroke-miterlimit="10" stroke-width="6px"/>
    <line x1="35.46" y1="295" x2="62.66" y2="279.29" fill="none" stroke="#E8EAED" stroke-linecap="round" stroke-miterlimit="10" stroke-width="6px"/>
    <line x1="364.54" y1="295" x2="337.34" y2="279.29" fill="none" stroke="#E8EAED" stroke-linecap="round" stroke-miterlimit="10" stroke-width="6px"/>
    <line x1="390" y1="200" x2="358.58" y2="200" fill="none" stroke="#E8EAED" stroke-linecap="round" stroke-miterlimit="10" stroke-width="6px"/>
    <line x1="364.54" y1="105" x2="337.34" y2="120.71" fill="none" stroke="#E8EAED" stroke-linecap="round" stroke-miterlimit="10" stroke-width="6px"/>
    <line x1="295" y1="35.46" x2="279.29" y2="62.66" fill="none" stroke="#E8EAED" stroke-linecap="round" stroke-miterlimit="10" stroke-width="6px"/>
</svg>
