<svg width="80" height="21" viewBox="0 0 80 21" fill="none" xmlns="http://www.w3.org/2000/svg"><path d="M62.09 1.664h3.038v.1L58.34 9.593l7.241 10.224v.1H62.7L56.755 11.4 53.95 14.64v5.278h-2.351V1.664h2.35v9.415h.1l8.04-9.415zM69.984 3.117c0 .454-.166.853-.487 1.175-.322.322-.71.488-1.176.488-.455 0-.854-.166-1.175-.488a1.599 1.599 0 01-.488-1.175c0-.466.166-.854.488-1.176.321-.322.71-.488 1.175-.488.455 0 .854.166 1.176.488.332.333.487.72.487 1.176zm-.476 4.313v12.498h-2.351V7.43h2.35zM77.016 20.128c-1.02 0-1.864-.31-2.54-.943-.676-.632-1.02-1.508-1.031-2.628V9.57h-2.196V7.43h2.196V3.603h2.35V7.43h3.061v2.14h-3.06v6.222c0 .831.166 1.397.488 1.696.321.3.687.444 1.097.444.189 0 .366-.022.555-.067.188-.044.344-.1.499-.166l.743 2.096c-.632.222-1.342.333-2.162.333zM2.673 18.952C1.375 18.009.488 16.678 0 14.97l2.883-1.176c.289 1.076.799 1.94 1.542 2.628.732.677 1.619 1.02 2.65 1.02.965 0 1.774-.244 2.45-.742.677-.5 1.01-1.187 1.01-2.052 0-.798-.3-1.453-.887-1.974-.588-.521-1.62-1.042-3.094-1.564l-1.22-.432C4.025 10.224 2.928 9.57 2.04 8.716 1.153 7.862.71 6.742.71 5.346c0-.966.266-1.853.787-2.673C2.018 1.852 2.75 1.209 3.693.72 4.624.244 5.678 0 6.864 0c1.708 0 3.072.41 4.081 1.242 1.02.832 1.697 1.752 2.04 2.795L10.236 5.2c-.2-.621-.576-1.164-1.142-1.63-.565-.477-1.286-.71-2.173-.71s-1.641.222-2.251.676c-.61.455-.91 1.032-.91 1.742 0 .676.278 1.22.82 1.663.544.432 1.398.854 2.563 1.253l1.22.41c1.674.577 2.96 1.342 3.88 2.274.921.931 1.376 2.184 1.376 3.748 0 1.275-.322 2.34-.976 3.193a6.01 6.01 0 01-2.495 1.919 8.014 8.014 0 01-3.116.621c-1.62 0-3.072-.466-4.358-1.408zM15.969 3.449a1.95 1.95 0 01-.588-1.43c0-.566.2-1.043.588-1.431A1.95 1.95 0 0117.399 0c.566 0 1.043.2 1.43.588.389.388.588.865.588 1.43 0 .566-.2 1.043-.587 1.43a1.95 1.95 0 01-1.43.589c-.566-.012-1.043-.2-1.431-.588zm-.067 2.595h2.994v13.883h-2.994V6.044zM25.405 19.85c-.543-.2-.986-.466-1.33-.788-.776-.776-1.176-1.84-1.176-3.182V8.683h-2.428v-2.64h2.428V2.13h2.994v3.926h3.372v2.639h-3.372v6.531c0 .743.145 1.276.433 1.575.277.366.743.543 1.42.543.31 0 .576-.044.82-.122.233-.077.488-.21.765-.399v2.917c-.599.277-1.32.41-2.173.41a5.01 5.01 0 01-1.753-.3zM33.623 19.407a6.63 6.63 0 01-2.529-2.628c-.61-1.12-.909-2.373-.909-3.77 0-1.332.3-2.551.887-3.693.588-1.132 1.409-2.04 2.462-2.706 1.053-.666 2.251-1.01 3.593-1.01 1.397 0 2.606.311 3.637.921a6.123 6.123 0 012.34 2.528c.532 1.076.799 2.274.799 3.627 0 .255-.023.576-.078.953H33.179c.111 1.287.566 2.285 1.375 2.983a4.162 4.162 0 002.817 1.043c.854 0 1.597-.189 2.218-.588a4.266 4.266 0 001.508-1.597l2.528 1.198c-.654 1.142-1.508 2.04-2.561 2.694-1.054.655-2.318.976-3.782.976-1.364.022-2.584-.288-3.66-.931zm7.23-8.051a3.332 3.332 0 00-.466-1.453c-.277-.477-.687-.887-1.242-1.208-.554-.322-1.23-.488-2.03-.488-.964 0-1.773.288-2.439.853-.665.566-1.12 1.342-1.375 2.296h7.552z" fill="#5F6368"/></svg>