<svg width="341" height="340" viewBox="0 0 341 340" fill="none" xmlns="http://www.w3.org/2000/svg">
<path d="M336.63 173.377C326.849 220.472 281.542 262.567 230.414 249.352C179.286 236.136 178.495 189.969 147.979 176.773C117.463 163.577 101.868 189.017 65.3173 179.298C28.7662 169.58 -0.00345163 137.651 3.10603e-07 88.3442C0.00345225 39.0376 47.355 -3.84895 89.4176 0.274832C131.48 4.39861 146.326 33.2635 178.492 40.6872C210.657 48.1108 227.976 29.9657 262.615 34.9146C344.69 46.641 346.41 126.281 336.63 173.377Z" fill="#D0FBE1"/>
<g filter="url(#filter0_d_5019_16548)">
<rect x="48.7656" y="90" width="229.378" height="230.334" rx="12.5128" fill="#EBEEF0"/>
<mask id="mask0_5019_16548" style="mask-type:alpha" maskUnits="userSpaceOnUse" x="48" y="90" width="231" height="234">
<rect x="48.7656" y="90" width="229.378" height="233.201" rx="12.5128" fill="#DEE3E6"/>
</mask>
<g mask="url(#mask0_5019_16548)">
<rect x="195.842" y="126.21" width="65.8597" height="64.7434" rx="4.05035" fill="white"/>
<rect x="220.082" y="179.097" width="17.5515" height="4.05035" rx="1.35012" fill="#BED4FF"/>
<circle cx="228.858" cy="154.12" r="14.1762" stroke="#BED4FF" stroke-width="4.05035"/>
<path d="M243.034 154.12C243.034 161.949 236.687 168.296 228.858 168.296C221.029 168.296 214.682 161.949 214.682 154.12C214.682 146.291 221.029 139.944 228.858 139.944" stroke="#7F9CD4" stroke-width="4.05035" stroke-linecap="round"/>
<rect x="63.0068" y="199.883" width="65.8597" height="64.7434" rx="4.05035" fill="white"/>
<rect x="87.8232" y="252.004" width="17.5515" height="4.05035" rx="1.35012" fill="#BED4FF"/>
<circle cx="96.5991" cy="227.026" r="14.1762" stroke="#BED4FF" stroke-width="4.34738"/>
<path d="M91.8281 240.375C84.4556 237.74 80.6153 229.627 83.2505 222.255C85.8857 214.882 93.9986 211.042 101.371 213.677" stroke="#7F9CD4" stroke-width="4.05035" stroke-linecap="round"/>
<rect x="63.0068" y="126.21" width="122.789" height="64.7434" rx="4.05035" fill="white"/>
<rect x="69.8574" y="135.894" width="58.055" height="4.05035" rx="1.35012" fill="#BED4FF"/>
<rect x="69.8574" y="143.995" width="37.8033" height="4.05035" rx="1.35012" fill="#BED4FF"/>
<mask id="mask1_5019_16548" style="mask-type:alpha" maskUnits="userSpaceOnUse" x="69" y="153" width="111" height="32">
<rect x="69.7051" y="153" width="109.394" height="31.2554" rx="2.70023" fill="white"/>
</mask>
<g mask="url(#mask1_5019_16548)">
<path d="M83.9782 178.875C73.3822 178.875 69.1474 176.414 66.3574 173.952V188.72H181.333V162.823C180.452 161.045 178.305 156.349 170.801 156.349C161.109 156.349 153.247 175.183 138.766 175.183C124.284 175.183 122.529 166.158 114.191 166.158C103.659 166.158 97.6342 178.875 83.9782 178.875Z" fill="#BED4FF" stroke="#7F9CD4" stroke-width="4.05035"/>
<path d="M117.994 165.596C117.994 167.833 116.181 169.646 113.944 169.646C111.707 169.646 109.894 167.833 109.894 165.596C109.894 163.359 111.707 161.545 113.944 161.545C116.181 161.545 117.994 163.359 117.994 165.596Z" fill="#7F9CD4"/>
</g>
<rect x="138.913" y="199.883" width="122.789" height="64.7434" rx="4.05035" fill="white"/>
<rect x="145.879" y="208.8" width="25.6522" height="4.05035" rx="1.35012" fill="#BED4FF"/>
<rect x="145.879" y="216.901" width="13.5012" height="4.05035" rx="1.35012" fill="#BED4FF"/>
<rect x="153.277" y="254.704" width="16.2014" height="4.05035" rx="1.35012" transform="rotate(-90 153.277 254.704)" fill="#BED4FF"/>
<rect x="164.078" y="254.704" width="8.1007" height="4.05035" rx="1.35012" transform="rotate(-90 164.078 254.704)" fill="#BED4FF"/>
<rect x="174.88" y="254.704" width="8.1007" height="4.05035" rx="1.35012" transform="rotate(-90 174.88 254.704)" fill="#BED4FF"/>
<rect x="185.681" y="254.704" width="10.8009" height="4.05035" rx="1.35012" transform="rotate(-90 185.681 254.704)" fill="#7F9CD4"/>
<rect x="196.481" y="254.704" width="16.2014" height="4.05035" rx="1.35012" transform="rotate(-90 196.481 254.704)" fill="#7F9CD4"/>
<rect x="207.282" y="254.704" width="20.2518" height="4.05035" rx="1.35012" transform="rotate(-90 207.282 254.704)" fill="#7F9CD4"/>
<rect x="218.084" y="254.704" width="24.3021" height="4.05035" rx="1.35012" transform="rotate(-90 218.084 254.704)" fill="#7F9CD4"/>
<rect x="228.885" y="254.704" width="20.2518" height="4.05035" rx="1.35012" transform="rotate(-90 228.885 254.704)" fill="#7F9CD4"/>
<rect x="239.685" y="254.704" width="12.1511" height="4.05035" rx="1.35012" transform="rotate(-90 239.685 254.704)" fill="#7F9CD4"/>
</g>
<path d="M48.5625 103.073C48.5625 96.1627 54.1647 90.5605 61.0753 90.5605H265.144C272.055 90.5605 277.657 96.1627 277.657 103.073V109.52H48.5625V103.073Z" fill="white"/>
<rect x="58.2451" y="96.3794" width="6.31985" height="6.31985" rx="3.15993" fill="#F3F5F7"/>
<rect x="67.7256" y="96.3794" width="6.31985" height="6.31985" rx="3.15993" fill="#F3F5F7"/>
<rect x="77.2822" y="96.3794" width="6.31985" height="6.31985" rx="3.15993" fill="#F3F5F7"/>
</g>
<defs>
<filter id="filter0_d_5019_16548" x="33.2706" y="78.5311" width="260.165" height="260.918" filterUnits="userSpaceOnUse" color-interpolation-filters="sRGB">
<feFlood flood-opacity="0" result="BackgroundImageFix"/>
<feColorMatrix in="SourceAlpha" type="matrix" values="0 0 0 0 0 0 0 0 0 0 0 0 0 0 0 0 0 0 127 0" result="hardAlpha"/>
<feOffset dy="3.82297"/>
<feGaussianBlur stdDeviation="7.64594"/>
<feComposite in2="hardAlpha" operator="out"/>
<feColorMatrix type="matrix" values="0 0 0 0 0 0 0 0 0 0 0 0 0 0 0 0 0 0 0.15 0"/>
<feBlend mode="normal" in2="BackgroundImageFix" result="effect1_dropShadow_5019_16548"/>
<feBlend mode="normal" in="SourceGraphic" in2="effect1_dropShadow_5019_16548" result="shape"/>
</filter>
</defs>
</svg>
