<svg width="463" height="300" viewBox="0 0 463 300" fill="none" xmlns="http://www.w3.org/2000/svg">
<path d="M434.63 173.377C424.849 220.472 379.542 262.567 328.414 249.352C277.286 236.136 276.495 189.969 245.979 176.773C215.463 163.577 199.868 189.017 163.317 179.298C126.766 169.58 97.9965 137.651 98 88.3442C98.0035 39.0376 145.355 -3.84895 187.418 0.274832C229.48 4.39861 244.326 33.2635 276.492 40.6872C308.657 48.1108 325.976 29.9657 360.615 34.9146C442.69 46.641 444.41 126.281 434.63 173.377Z" fill="#D0FBE1"/>
<g filter="url(#filter0_d_5019_16548)">
<rect x="147" y="90" width="229" height="190" rx="12.5128" fill="#EBEEF0"/>
<mask id="mask0_5019_16548" style="mask-type:alpha" maskUnits="userSpaceOnUse" x="146" y="90" width="231" height="234">
<rect x="146.766" y="90" width="229.378" height="233.201" rx="12.5128" fill="#DEE3E6"/>
</mask>
<g mask="url(#mask0_5019_16548)">
<rect x="293.842" y="126.21" width="65.8597" height="64.7434" rx="4.05035" fill="white"/>
<rect x="318.082" y="179.097" width="17.5515" height="4.05035" rx="1.35012" fill="#BED4FF"/>
<circle cx="326.858" cy="154.12" r="14.1762" stroke="#BED4FF" stroke-width="4.05035"/>
<path d="M341.034 154.12C341.034 161.949 334.687 168.296 326.858 168.296C319.029 168.296 312.682 161.949 312.682 154.12C312.682 146.291 319.029 139.944 326.858 139.944" stroke="#7F9CD4" stroke-width="4.05035" stroke-linecap="round"/>
<rect x="161.006" y="199.883" width="65.8597" height="64.7434" rx="4.05035" fill="white"/>
<rect x="185.823" y="252.004" width="17.5515" height="4.05035" rx="1.35012" fill="#BED4FF"/>
<circle cx="194.599" cy="227.026" r="14.1762" stroke="#BED4FF" stroke-width="4.34738"/>
<path d="M189.828 240.375C182.456 237.74 178.615 229.627 181.251 222.255C183.886 214.882 191.999 211.042 199.371 213.677" stroke="#7F9CD4" stroke-width="4.05035" stroke-linecap="round"/>
<rect x="161.006" y="126.21" width="122.789" height="64.7434" rx="4.05035" fill="white"/>
<rect x="167.857" y="135.894" width="58.055" height="4.05035" rx="1.35012" fill="#BED4FF"/>
<rect x="167.857" y="143.995" width="37.8033" height="4.05035" rx="1.35012" fill="#BED4FF"/>
<mask id="mask1_5019_16548" style="mask-type:alpha" maskUnits="userSpaceOnUse" x="167" y="153" width="111" height="32">
<rect x="167.704" y="153" width="109.394" height="31.2554" rx="2.70023" fill="white"/>
</mask>
<g mask="url(#mask1_5019_16548)">
<path d="M181.977 178.875C171.381 178.875 167.146 176.414 164.356 173.952V188.72H279.332V162.823C278.451 161.045 276.304 156.349 268.8 156.349C259.108 156.349 251.246 175.183 236.765 175.183C222.283 175.183 220.528 166.158 212.19 166.158C201.658 166.158 195.633 178.875 181.977 178.875Z" fill="#BED4FF" stroke="#7F9CD4" stroke-width="4.05035"/>
<path d="M215.993 165.596C215.993 167.833 214.18 169.646 211.943 169.646C209.706 169.646 207.893 167.833 207.893 165.596C207.893 163.359 209.706 161.545 211.943 161.545C214.18 161.545 215.993 163.359 215.993 165.596Z" fill="#7F9CD4"/>
</g>
<rect x="236.912" y="199.883" width="122.789" height="64.7434" rx="4.05035" fill="white"/>
<rect x="243.878" y="208.8" width="25.6522" height="4.05035" rx="1.35012" fill="#BED4FF"/>
<rect x="243.878" y="216.901" width="13.5012" height="4.05035" rx="1.35012" fill="#BED4FF"/>
<rect x="251.276" y="254.704" width="16.2014" height="4.05035" rx="1.35012" transform="rotate(-90 251.276 254.704)" fill="#BED4FF"/>
<rect x="262.077" y="254.704" width="8.1007" height="4.05035" rx="1.35012" transform="rotate(-90 262.077 254.704)" fill="#BED4FF"/>
<rect x="272.879" y="254.704" width="8.1007" height="4.05035" rx="1.35012" transform="rotate(-90 272.879 254.704)" fill="#BED4FF"/>
<rect x="283.68" y="254.704" width="10.8009" height="4.05035" rx="1.35012" transform="rotate(-90 283.68 254.704)" fill="#7F9CD4"/>
<rect x="294.48" y="254.704" width="16.2014" height="4.05035" rx="1.35012" transform="rotate(-90 294.48 254.704)" fill="#7F9CD4"/>
<rect x="305.281" y="254.704" width="20.2518" height="4.05035" rx="1.35012" transform="rotate(-90 305.281 254.704)" fill="#7F9CD4"/>
<rect x="316.083" y="254.704" width="24.3021" height="4.05035" rx="1.35012" transform="rotate(-90 316.083 254.704)" fill="#7F9CD4"/>
<rect x="326.884" y="254.704" width="20.2518" height="4.05035" rx="1.35012" transform="rotate(-90 326.884 254.704)" fill="#7F9CD4"/>
<rect x="337.684" y="254.704" width="12.1511" height="4.05035" rx="1.35012" transform="rotate(-90 337.684 254.704)" fill="#7F9CD4"/>
</g>
<path d="M146.562 103.073C146.562 96.1627 152.165 90.5605 159.075 90.5605H363.144C370.055 90.5605 375.657 96.1627 375.657 103.073V109.52H146.562V103.073Z" fill="white"/>
<rect x="156.245" y="96.3794" width="6.31985" height="6.31985" rx="3.15993" fill="#F3F5F7"/>
<rect x="165.726" y="96.3794" width="6.31985" height="6.31985" rx="3.15993" fill="#F3F5F7"/>
<rect x="175.282" y="96.3794" width="6.31985" height="6.31985" rx="3.15993" fill="#F3F5F7"/>
</g>
<defs>
<filter id="filter0_d_5019_16548" x="131.271" y="78.5311" width="260.021" height="220.584" filterUnits="userSpaceOnUse" color-interpolation-filters="sRGB">
<feFlood flood-opacity="0" result="BackgroundImageFix"/>
<feColorMatrix in="SourceAlpha" type="matrix" values="0 0 0 0 0 0 0 0 0 0 0 0 0 0 0 0 0 0 127 0" result="hardAlpha"/>
<feOffset dy="3.82297"/>
<feGaussianBlur stdDeviation="7.64594"/>
<feComposite in2="hardAlpha" operator="out"/>
<feColorMatrix type="matrix" values="0 0 0 0 0 0 0 0 0 0 0 0 0 0 0 0 0 0 0.15 0"/>
<feBlend mode="normal" in2="BackgroundImageFix" result="effect1_dropShadow_5019_16548"/>
<feBlend mode="normal" in="SourceGraphic" in2="effect1_dropShadow_5019_16548" result="shape"/>
</filter>
</defs>
</svg>
