<svg width="223" height="135" viewBox="0 0 223 135" fill="none" xmlns="http://www.w3.org/2000/svg">
<path d="M12.8995 14.7294C14.4579 13.3188 16.1017 12.019 17.8203 10.8385C34.3328 -0.533234 47.9752 -0.514969 66.8625 1.5605C79.6309 2.96315 90.7109 9.61362 104.141 8.96603C117.571 8.31845 136.137 4.31456 150.954 5.17999C167.822 6.16525 172.11 7.88944 187.107 14.7294C200.986 21.0598 213.588 32.1816 219.921 46.89C230.776 72.1012 211.421 117.476 185.465 119.616C166.657 121.167 151.135 102.88 132.151 107.115C120.457 109.724 113.521 120.669 104.499 127.892C93.9724 136.32 76.9383 135.79 64.6128 131.293C52.8671 127.007 44.2403 118.521 40.4042 106.011C37.4838 96.4845 37.7769 86.9419 30.7637 79.4794C20.8687 68.9493 5.39316 66.5121 0.732319 46.89C-2.21802 34.4692 4.12981 22.6869 12.8995 14.7294Z" fill="#F3F5F7"/>
<g filter="url(#filter0_d_766_3674)">
<path d="M48.9668 34.5315C48.9668 29.3629 53.1568 25.1729 58.3255 25.1729H165.525C170.694 25.1729 174.884 29.3629 174.884 34.5315V105.18C174.884 110.348 170.694 114.538 165.525 114.538H58.3255C53.1568 114.538 48.9668 110.348 48.9668 105.18V34.5315Z" fill="white"/>
<path d="M49.3922 34.5315C49.3922 29.5978 53.3918 25.5982 58.3255 25.5982H165.525C170.459 25.5982 174.458 29.5978 174.458 34.5315V105.18C174.458 110.113 170.459 114.113 165.525 114.113H58.3255C53.3918 114.113 49.3922 110.113 49.3922 105.18V34.5315Z" stroke="#CBD0D3" stroke-width="0.850789"/>
</g>
<rect x="70.4473" y="59.9851" width="82.2163" height="4.44412" rx="2.22206" fill="#EBEEF0"/>
<rect x="89.7051" y="85.1686" width="45.1819" height="19.2579" rx="9.62893" fill="#77AD8C"/>
<circle cx="111.926" cy="42.2087" r="8.14756" fill="#EBEEF0"/>
<path d="M106.74 94.5454L110.997 98.8022L119.075 90.7238" stroke="white" stroke-width="2.55237"/>
<rect x="68.9658" y="70.3547" width="83.6976" height="4.44412" rx="2.22206" fill="#EBEEF0"/>
<defs>
<filter id="filter0_d_766_3674" x="48.9668" y="25.1729" width="129.32" height="93.6195" filterUnits="userSpaceOnUse" color-interpolation-filters="sRGB">
<feFlood flood-opacity="0" result="BackgroundImageFix"/>
<feColorMatrix in="SourceAlpha" type="matrix" values="0 0 0 0 0 0 0 0 0 0 0 0 0 0 0 0 0 0 127 0" result="hardAlpha"/>
<feOffset dx="3.40316" dy="4.25395"/>
<feComposite in2="hardAlpha" operator="out"/>
<feColorMatrix type="matrix" values="0 0 0 0 0.796078 0 0 0 0 0.815686 0 0 0 0 0.827451 0 0 0 1 0"/>
<feBlend mode="normal" in2="BackgroundImageFix" result="effect1_dropShadow_766_3674"/>
<feBlend mode="normal" in="SourceGraphic" in2="effect1_dropShadow_766_3674" result="shape"/>
</filter>
</defs>
</svg>
