<svg width="343" height="143" viewBox="0 0 343 143" fill="none" xmlns="http://www.w3.org/2000/svg">
<g clip-path="url(#clip0_1458_2897)">
<path d="M313.084 67.6642C315.319 93.4693 304.691 112 291.639 135.722C278.587 159.444 308.535 203.015 282.286 237.745C251.059 279.061 106.441 280.933 76.3639 267.231C46.2867 253.529 20.6171 219.561 24.0009 187C28.5933 142.81 40.3641 139.5 56.5 105C72.6359 70.5 56.5 50.5 81.5 25.5C106.5 0.499989 131.994 15.3643 153 18.5C181.261 22.7187 187.5 10.1324 210 5.49999C242.5 -1.1912 260.868 3.72865 282.5 15C300.5 24.379 311.467 49 313.084 67.6642Z" fill="#B8E6CA"/>
<rect x="131.898" y="35.1663" width="81.2599" height="5.46285" rx="2.73142" fill="#F3F5F7"/>
<g filter="url(#filter0_d_1458_2897)">
<rect x="127.711" y="5.27524" width="89.6323" height="145.725" rx="11.5655" fill="white"/>
<rect x="138.119" y="15.1059" width="68.8145" height="12.1437" rx="2.31309" fill="#F3F5F7"/>
<rect x="138.119" y="48.0674" width="68.8145" height="75.1755" rx="2.31309" fill="#F3F5F7"/>
<rect x="138.119" y="127.869" width="68.8145" height="4.62618" rx="2.31309" fill="#F3F5F7"/>
<rect x="150.842" y="33.0323" width="43.3705" height="6.93927" rx="3.46964" fill="#F3F5F7"/>
<rect x="138.119" y="33.6106" width="8.67409" height="1.15655" rx="0.578273" fill="#DEE3E6"/>
<rect x="138.119" y="35.9237" width="8.67409" height="1.15655" rx="0.578273" fill="#DEE3E6"/>
<rect x="138.119" y="38.2368" width="8.67409" height="1.15655" rx="0.578273" fill="#DEE3E6"/>
<circle cx="293.882" cy="30.2652" r="12.2914" fill="#6380B8"/>
<circle cx="292.91" cy="28.9926" r="3.30652" stroke="white" stroke-width="1.41029"/>
<path d="M295.199 31.7905L297.979 35.0728" stroke="white" stroke-width="1.41029" stroke-linecap="round" stroke-linejoin="round"/>
<circle cx="272.906" cy="70.408" r="9.55999" fill="#6380B8"/>
<circle cx="272.15" cy="69.4182" r="2.57173" stroke="white" stroke-width="1.41029"/>
<path d="M273.93 71.5943L276.092 74.1472" stroke="white" stroke-width="1.41029" stroke-linecap="round" stroke-linejoin="round"/>
<circle cx="58.3175" cy="107.082" r="17.0714" fill="#6380B8"/>
<circle cx="56.9684" cy="105.315" r="4.59238" stroke="white" stroke-width="1.41029"/>
<path d="M60.1475 109.201L64.0081 113.759" stroke="white" stroke-width="1.41029" stroke-linecap="round" stroke-linejoin="round"/>
</g>
<g filter="url(#filter1_d_1458_2897)">
<path d="M101.17 52.0177C101.17 49.0006 103.616 46.5548 106.633 46.5548H163.31C166.327 46.5548 168.773 49.0006 168.773 52.0177V77.2833H101.17V52.0177Z" fill="#9BB8F0"/>
<path d="M101.17 81.7219H168.773V111.426C168.773 114.443 166.327 116.889 163.31 116.889H106.633C103.616 116.889 101.17 114.443 101.17 111.426V81.7219Z" fill="white"/>
<rect x="101.17" y="77.2833" width="67.6028" height="12.9743" fill="#F3F5F7"/>
<rect x="107.315" y="81.3805" width="42.3371" height="4.77999" rx="2.39" fill="#DEE3E6"/>
<rect x="107.315" y="97.769" width="36.8742" height="3.41428" rx="1.70714" fill="#EBEEF0"/>
<rect x="107.315" y="103.915" width="24.5828" height="3.41428" rx="1.70714" fill="#EBEEF0"/>
<circle cx="157.164" cy="102.549" r="5.46285" fill="#EBEEF0"/>
<path d="M156.384 100.208L158.725 102.549L156.384 104.89" stroke="white" stroke-width="1.56081" stroke-linecap="round" stroke-linejoin="round"/>
</g>
<g filter="url(#filter2_d_1458_2897)">
<path d="M176.284 52.0177C176.284 49.0006 178.73 46.5548 181.747 46.5548H238.424C241.441 46.5548 243.887 49.0006 243.887 52.0177V77.2833H176.284V52.0177Z" fill="#9BB8F0"/>
<path d="M176.284 81.7219H243.887V111.426C243.887 114.443 241.441 116.889 238.424 116.889H181.747C178.73 116.889 176.284 114.443 176.284 111.426V81.7219Z" fill="white"/>
<rect x="176.284" y="77.2833" width="67.6028" height="12.9743" fill="#F3F5F7"/>
<rect x="182.43" y="81.3805" width="42.3371" height="4.77999" rx="2.39" fill="#DEE3E6"/>
<rect x="182.43" y="97.769" width="36.8742" height="3.41428" rx="1.70714" fill="#EBEEF0"/>
<rect x="182.43" y="103.915" width="24.5828" height="3.41428" rx="1.70714" fill="#EBEEF0"/>
<circle cx="232.278" cy="102.549" r="5.46285" fill="#EBEEF0"/>
<path d="M231.498 100.208L233.839 102.549L231.498 104.89" stroke="white" stroke-width="1.56081" stroke-linecap="round" stroke-linejoin="round"/>
</g>
</g>
<defs>
<filter id="filter0_d_1458_2897" x="30.3204" y="-60.949" width="286.779" height="225.606" filterUnits="userSpaceOnUse" color-interpolation-filters="sRGB">
<feFlood flood-opacity="0" result="BackgroundImageFix"/>
<feColorMatrix in="SourceAlpha" type="matrix" values="0 0 0 0 0 0 0 0 0 0 0 0 0 0 0 0 0 0 127 0" result="hardAlpha"/>
<feOffset dy="2.73142"/>
<feGaussianBlur stdDeviation="5.46285"/>
<feComposite in2="hardAlpha" operator="out"/>
<feColorMatrix type="matrix" values="0 0 0 0 0 0 0 0 0 0 0 0 0 0 0 0 0 0 0.15 0"/>
<feBlend mode="normal" in2="BackgroundImageFix" result="effect1_dropShadow_1458_2897"/>
<feBlend mode="normal" in="SourceGraphic" in2="effect1_dropShadow_1458_2897" result="shape"/>
</filter>
<filter id="filter1_d_1458_2897" x="90.2442" y="41.092" width="89.4539" height="92.1856" filterUnits="userSpaceOnUse" color-interpolation-filters="sRGB">
<feFlood flood-opacity="0" result="BackgroundImageFix"/>
<feColorMatrix in="SourceAlpha" type="matrix" values="0 0 0 0 0 0 0 0 0 0 0 0 0 0 0 0 0 0 127 0" result="hardAlpha"/>
<feOffset dy="5.46285"/>
<feGaussianBlur stdDeviation="5.46285"/>
<feComposite in2="hardAlpha" operator="out"/>
<feColorMatrix type="matrix" values="0 0 0 0 0 0 0 0 0 0 0 0 0 0 0 0 0 0 0.15 0"/>
<feBlend mode="normal" in2="BackgroundImageFix" result="effect1_dropShadow_1458_2897"/>
<feBlend mode="normal" in="SourceGraphic" in2="effect1_dropShadow_1458_2897" result="shape"/>
</filter>
<filter id="filter2_d_1458_2897" x="165.358" y="41.092" width="89.4539" height="92.1856" filterUnits="userSpaceOnUse" color-interpolation-filters="sRGB">
<feFlood flood-opacity="0" result="BackgroundImageFix"/>
<feColorMatrix in="SourceAlpha" type="matrix" values="0 0 0 0 0 0 0 0 0 0 0 0 0 0 0 0 0 0 127 0" result="hardAlpha"/>
<feOffset dy="5.46285"/>
<feGaussianBlur stdDeviation="5.46285"/>
<feComposite in2="hardAlpha" operator="out"/>
<feColorMatrix type="matrix" values="0 0 0 0 0 0 0 0 0 0 0 0 0 0 0 0 0 0 0.15 0"/>
<feBlend mode="normal" in2="BackgroundImageFix" result="effect1_dropShadow_1458_2897"/>
<feBlend mode="normal" in="SourceGraphic" in2="effect1_dropShadow_1458_2897" result="shape"/>
</filter>
<clipPath id="clip0_1458_2897">
<rect width="343" height="143" fill="white"/>
</clipPath>
</defs>
</svg>
