<svg width="40" height="40" viewBox="0 0 40 40" fill="none" xmlns="http://www.w3.org/2000/svg">
<g clip-path="url(#clip0_13_5816)">
<path d="M13.6119 5.60192C13.9985 4.58704 14.5302 3.65271 15.3195 2.89558C18.4769 -0.181275 23.6963 0.591966 25.8388 4.45817C27.4497 7.39004 29.1573 10.2575 30.8165 13.1571C33.5873 17.9738 36.3903 22.7904 39.1289 27.6232C41.4325 31.6666 38.9356 36.7732 34.3606 37.4659C31.5576 37.8847 28.9318 36.596 27.4819 34.083C25.0495 29.8463 22.6009 25.6095 20.1684 21.3889C20.12 21.2923 20.0556 21.2117 19.9912 21.1312C19.7334 20.9218 19.6207 20.6157 19.4596 20.3418C18.3802 18.4409 17.2687 16.5562 16.1894 14.6714C15.4967 13.4471 14.7718 12.2389 14.0791 11.0146C13.4508 9.91919 13.1609 8.72711 13.1931 7.47059C13.2414 6.82622 13.322 6.18185 13.6119 5.60192Z" fill="#3C8BD9"/>
<path d="M13.6119 5.60194C13.467 6.18187 13.3381 6.76181 13.3059 7.37395C13.2575 8.72713 13.5958 9.98364 14.2724 11.1596C16.0444 14.2043 17.8164 17.265 19.5723 20.3257C19.7334 20.5996 19.8623 20.8735 20.0234 21.1312C19.0568 22.8066 18.0903 24.4658 17.1076 26.1412C15.7545 28.477 14.4013 30.8289 13.032 33.1648C12.9676 33.1648 12.9515 33.1325 12.9354 33.0842C12.9192 32.9553 12.9676 32.8426 12.9998 32.7137C13.6603 30.2973 13.1126 28.1548 11.4533 26.3184C10.4384 25.2068 9.1497 24.5786 7.66765 24.3692C5.73455 24.0953 4.02697 24.5947 2.4966 25.8029C2.22274 26.0123 2.04554 26.3184 1.72336 26.4795C1.65892 26.4795 1.6267 26.4472 1.6106 26.3989C2.38384 25.0618 3.14097 23.7248 3.91421 22.3877C7.10383 16.8462 10.2934 11.3046 13.4992 5.77915C13.5314 5.71471 13.5797 5.66638 13.6119 5.60194Z" fill="#FABC04"/>
<path d="M1.675 26.4472C1.98107 26.1734 2.27104 25.8834 2.59322 25.6256C6.50776 22.5327 12.3876 24.7719 13.2414 29.669C13.4508 30.845 13.3381 31.9727 12.9837 33.1003C12.9675 33.197 12.9514 33.2775 12.9192 33.3742C12.7742 33.6319 12.6454 33.9058 12.4843 34.1635C11.0505 36.5316 8.94024 37.7075 6.16946 37.5303C2.99595 37.3048 0.499028 34.9206 0.0640801 31.7632C-0.145339 30.2329 0.160735 28.7991 0.950086 27.4782C1.11118 27.1882 1.30449 26.9305 1.48169 26.6405C1.56223 26.5761 1.53002 26.4472 1.675 26.4472Z" fill="#34A852"/>
<path d="M1.67507 26.4472C1.61063 26.5116 1.61063 26.6244 1.49786 26.6405C1.48176 26.5277 1.54619 26.4633 1.61063 26.3828L1.67507 26.4472Z" fill="#FABC04"/>
<path d="M12.9193 33.3742C12.8548 33.2614 12.9193 33.1809 12.9837 33.1003C12.9998 33.1164 13.032 33.1487 13.0481 33.1648L12.9193 33.3742Z" fill="#E1C025"/>
</g>
<defs>
<clipPath id="clip0_13_5816">
<rect width="40" height="40" fill="white"/>
</clipPath>
</defs>
</svg>
