<svg width="52" height="52" viewBox="0 0 52 52" fill="none" xmlns="http://www.w3.org/2000/svg">
<circle cx="26" cy="26" r="26" fill="white"/>
<path d="M30.5144 38.167C32.0978 38.167 33.6402 37.3564 34.5053 35.8962L39.3548 27.8838C40.6564 25.6856 39.9275 22.8511 37.7264 21.552C35.5252 20.2516 32.6838 20.9803 31.3822 23.1772L26.5327 31.1896C25.2311 33.3878 25.96 36.2223 28.1611 37.5214C28.9006 37.9584 29.7128 38.167 30.5144 38.167Z" fill="#547EC0"/>
<path d="M15.9089 38.1711C15.1073 38.1711 14.2951 37.9638 13.5556 37.5268C11.3545 36.2264 10.6256 33.3918 11.9273 31.195L21.1856 15.2704C22.4873 13.0736 25.3274 12.3448 27.5299 13.6439C29.731 14.943 30.4612 17.7789 29.1582 19.9757L19.8999 35.9003C19.0361 37.3591 17.4937 38.1711 15.9089 38.1711Z" fill="#F9B918"/>
<path d="M15.8865 38.171C18.4296 38.171 20.4912 36.1135 20.4912 33.5753C20.4912 31.0372 18.4296 28.9796 15.8865 28.9796C13.3433 28.9796 11.2817 31.0372 11.2817 33.5753C11.2817 36.1135 13.3433 38.171 15.8865 38.171Z" fill="#31A751"/>
</svg>
