<svg viewBox="0 0 418 300" fill="none" xmlns="http://www.w3.org/2000/svg"><path d="M209 300c82.843 0 150-67.157 150-150S291.843 0 209 0 59 67.157 59 150s67.157 150 150 150Z" fill="#F1F3F4"/><g clip-path="url(#a)"><rect x="279.244" y="58" width="143" height="120" rx="8" transform="rotate(15 279.244 58)" fill="#E8EAED"/><circle cx="290.557" cy="77.596" r="8" transform="rotate(15 290.557 77.596)" fill="#BDC1C6"/><path fill="#BDC1C6" d="m270.96 88.91 138.128 37.011-15.529 57.956-138.127-37.011z"/><rect x="133" y="62" width="151" height="111" rx="10" fill="#000" fill-opacity=".04"/><g clip-path="url(#b)"><path d="m308.107 138.168-.776 2.898a1.999 1.999 0 0 0 1.414 2.45l40.569 10.87a2 2 0 0 0 2.449-1.414l.777-2.898-44.433-11.906Z" fill="#fff"/><path d="m352.092 141.701-7.041-5.021-10.935-13.283-4.153-1.113-.393.309s-3.54 2.778-7.887 1.614c-4.346-1.165-6.023-5.341-6.023-5.341l-.186-.464-.966-.259a1 1 0 0 0-1.225.707l-5.176 19.318 44.433 11.906 1.093-4.081a4 4 0 0 0-1.541-4.292Z" fill="#9AA0A6"/><path d="m334.117 123.397-4.154-1.113-.393.309s-1.329 1.093-3.423 1.567l-1.559.411 8 8.611c.129.138.293.236.474.285l11.893 3.187-10.838-13.257Z" fill="#5F6368"/><path d="m335.827 125.512-2.817 1.626a.967.967 0 0 0-.362 1.352c.141.245.405.42.599.471.193.052.508.033.753-.108l3.185-1.839-1.358-1.502ZM336.386 132.701c.289.078.508.033.753-.108l3.062-1.768-1.235-1.573-2.817 1.626a.967.967 0 0 0-.362 1.352c.142.245.405.419.599.471Z" fill="#fff"/></g></g><g clip-path="url(#c)"><rect y="95.011" width="143" height="120" rx="8" transform="rotate(-15 0 95.01)" fill="#E8EAED"/><circle cx="19.596" cy="106.324" r="8" transform="rotate(-15 19.596 106.324)" fill="#BDC1C6"/><path fill="#BDC1C6" d="M8.282 125.92 146.409 88.91l15.53 57.955L23.81 183.876z"/><rect x="133" y="62" width="151" height="111" rx="10" fill="#000" fill-opacity=".04"/><g clip-path="url(#d)"><path d="M87.582 121.975a5.84 5.84 0 0 0-4.012-4.102 5.846 5.846 0 0 0-3.62 11.109l1.353 5.05 6.453-1.729-1.353-5.05a5.832 5.832 0 0 0 1.179-5.278Z" fill="#fff"/><path d="M85.178 135.587a10.02 10.02 0 1 0 12.272 7.085 10.03 10.03 0 0 0-12.272-7.085Zm4.538 16.938a7.511 7.511 0 0 1-7.907-2.684 7.52 7.52 0 0 1-.546-8.333 7.518 7.518 0 0 1 13.768 1.813 7.522 7.522 0 0 1-5.315 9.204Z" fill="#9AA0A6"/><path d="m97.334 135.787-22.584 6.052a.835.835 0 0 1-1.022-.591l-1.297-4.839a.836.836 0 0 1 .59-1.023l22.584-6.051a.83.83 0 0 1 1.023.59l1.297 4.84a.832.832 0 0 1-.59 1.022Z" fill="#5F6368"/></g></g><rect x="137" y="49" width="143" height="120" rx="8" fill="#fff"/><circle cx="153" cy="65" r="8" fill="#639AF8"/><path fill="#BDC1C6" d="M167 63h98v4h-98zM145 149h127v4H145zM145 157h60v4h-60z"/><path fill="#639AF8" d="M137 81h143v60H137z"/><path d="M201.999 105a1 1 0 0 1-.969-.757l-2-8a1 1 0 1 1 1.94-.486l2 8a1 1 0 0 1-.971 1.243Z" fill="#F1F3F4"/><path d="M223 127c-5.514 0-10-4.486-10-10s4.486-10 10-10 10 4.486 10 10-4.486 10-10 10Zm0-18c-4.411 0-8 3.589-8 8s3.589 8 8 8 8-3.589 8-8-3.589-8-8-8ZM195 127c-5.514 0-10-4.486-10-10s4.486-10 10-10 10 4.486 10 10-4.486 10-10 10Zm0-18c-4.411 0-8 3.589-8 8s3.589 8 8 8 8-3.589 8-8-3.589-8-8-8ZM204 97h-7a1 1 0 1 1 0-2h7a1 1 0 1 1 0 2Z" fill="#3C4043"/><path d="M222.999 118a1 1 0 0 1-.961-.726l-6-21a1 1 0 0 1 1.924-.549l6 21.001a1 1 0 0 1-.963 1.274Z" fill="#1A73E8"/><path d="M207 118h-12a.999.999 0 0 1-.881-1.474l7-13c.154-.285.436-.478.757-.518l16-2a.99.99 0 0 1 .986.486 1 1 0 0 1-.055 1.097l-11 15.001A1.002 1.002 0 0 1 207 118Zm-10.326-2h9.819l9.328-12.72-13.185 1.648L196.674 116Z" fill="#1A73E8"/><path d="M224 97h-7a1 1 0 1 1 0-2h7a1 1 0 1 1 0 2Z" fill="#F1F3F4"/><mask id="e" style="mask-type:alpha" maskUnits="userSpaceOnUse" x="59" y="0" width="300" height="300"><path d="M209 300c82.843 0 150-67.157 150-150S291.843 0 209 0 59 67.157 59 150s67.157 150 150 150Z" fill="#F1F3F4"/></mask><g mask="url(#e)"><path d="M258.62 132.984 273 122.283M247.499 120.119 251.145 104M230.589 125.226l-6.832-16.572" stroke="#fff" stroke-width="4" stroke-miterlimit="10"/><path d="M60.003 241.137c15.963 10.802 40.713 10.518 61.838 3.924 21.125-6.593 39.544-18.571 57.603-30.242 8.538-5.513 17.31-11.108 27.325-14.135 10.015-3.026 21.683-3.038 29.185 2.108 4.31 2.96 6.616 7.529 6.813 12.333" stroke="#34A853" stroke-width="12" stroke-linejoin="round"/><path d="m243.565 133.87-24.368 91.183" stroke="#fff" stroke-width="12" stroke-miterlimit="10" stroke-linecap="round"/><path d="M241.207 142.517 216.839 233.7" stroke="#5F6368" stroke-width="12" stroke-miterlimit="10"/></g><defs><clipPath id="a"><rect x="279.244" y="58" width="143" height="120" rx="8" transform="rotate(15 279.244 58)" fill="#fff"/></clipPath><clipPath id="b"><path fill="#fff" transform="rotate(15 -248.661 1251.438)" d="M0 0h48v48H0z"/></clipPath><clipPath id="c"><rect y="95.011" width="143" height="120" rx="8" transform="rotate(-15 0 95.01)" fill="#fff"/></clipPath><clipPath id="d"><path fill="#fff" transform="rotate(-15 494.609 -169.986)" d="M0 0h40.081v40.081H0z"/></clipPath></defs></svg>