<svg viewBox="0 0 455 281" fill="none" xmlns="http://www.w3.org/2000/svg"><path d="M63 281c34.794 0 63-4.702 63-10.5 0-5.799-28.206-10.5-63-10.5s-63 4.701-63 10.5c0 5.798 28.206 10.5 63 10.5Z" fill="#F1F3F4"/><path d="M119.47 249.471c14.62 0 26.471-4.346 26.471-9.706v-3.53H93v3.53c0 5.36 11.851 9.706 26.47 9.706Z" fill="#F9AB00"/><ellipse cx="119.47" cy="236.235" rx="26.471" ry="9.706" fill="#FDD663"/><path d="M119.471 242.411c14.619 0 26.47-4.345 26.47-9.706v-3.529h-52.94v3.529c0 5.361 11.85 9.706 26.47 9.706Z" fill="#F9AB00"/><ellipse cx="119.471" cy="229.176" rx="26.471" ry="9.706" fill="#FDD663"/><path d="M119.47 235.352c14.62 0 26.471-4.345 26.471-9.706v-3.529H93v3.529c0 5.361 11.851 9.706 26.47 9.706Z" fill="#F9AB00"/><ellipse cx="119.47" cy="222.117" rx="26.471" ry="9.706" fill="#FDD663"/><path d="M119.471 228.294c14.619 0 26.47-4.346 26.47-9.706v-3.529h-52.94v3.529c0 5.36 11.85 9.706 26.47 9.706Z" fill="#F9AB00"/><ellipse cx="119.471" cy="215.059" rx="26.471" ry="9.706" fill="#FDD663"/><path d="M119.471 221.234c14.619 0 26.47-4.346 26.47-9.706v-3.529h-52.94v3.529c0 5.36 11.85 9.706 26.47 9.706Z" fill="#F9AB00"/><ellipse cx="119.471" cy="207.999" rx="26.471" ry="9.706" fill="#FDD663"/><path d="M119.47 214.176c14.62 0 26.471-4.345 26.471-9.705v-3.53H93v3.53c0 5.36 11.851 9.705 26.47 9.705Z" fill="#F9AB00"/><ellipse cx="119.471" cy="200.941" rx="26.471" ry="9.706" fill="#FDD663"/><path d="M118.669 204v-.591a5.576 5.576 0 0 1-1.11-.19 3.601 3.601 0 0 1-.948-.421 1.753 1.753 0 0 1-.611-.658l1.172-.258c.1.199.283.378.549.536.275.159.591.26.948.306v-1.507l-.037-.014c-.665-.135-1.214-.312-1.647-.529-.432-.222-.648-.505-.648-.848 0-.204.091-.396.274-.577.191-.181.462-.331.811-.448a4.403 4.403 0 0 1 1.247-.218V198h.998v.597c.433.036.794.106 1.086.21.299.1.532.215.698.347.175.131.295.255.362.373l-1.148.271a1.077 1.077 0 0 0-.349-.298c-.158-.1-.374-.174-.649-.224v1.425c.449.1.849.211 1.198.333.349.117.624.26.823.427a.748.748 0 0 1 .312.611c0 .267-.112.493-.337.679-.216.185-.503.332-.861.441a5.092 5.092 0 0 1-1.135.21V204h-.998Zm-1.047-4.174c0 .144.087.267.262.366.182.095.444.188.785.278v-1.221a2.213 2.213 0 0 0-.761.21c-.191.104-.286.226-.286.367Zm3.081 2.253c0-.154-.092-.278-.275-.373a3.459 3.459 0 0 0-.761-.272v1.283c.3-.041.545-.115.736-.224.2-.109.3-.247.3-.414Z" fill="#F29900"/><path d="M141.412 200.941c0 .675-.393 1.463-1.436 2.317-1.036.848-2.595 1.656-4.611 2.353-4.021 1.392-9.64 2.271-15.894 2.271-6.255 0-11.874-.879-15.895-2.271-2.015-.697-3.575-1.505-4.61-2.353-1.043-.854-1.437-1.642-1.437-2.317 0-.675.394-1.464 1.437-2.317 1.035-.848 2.595-1.656 4.61-2.353 4.021-1.392 9.64-2.271 15.895-2.271 6.254 0 11.873.879 15.894 2.271 2.016.697 3.575 1.505 4.611 2.353 1.043.853 1.436 1.642 1.436 2.317Z" stroke="#F9AB00" stroke-width="2"/><rect x="123" y="51.824" width="292.941" height="200.008" rx="8" fill="#F1F3F4"/><path fill="#fff" d="M138.883 92.23h88.892v143.44h-88.892z"/><circle cx="163.126" cy="116.473" r="12.122" fill="#D9DBDF"/><path d="M164.438 150.312 146.964 169h72.73l-26.448-28.284-18.89 20.202-9.918-10.606Z" fill="#D9DBDF"/><rect x="167.166" y="211.426" width="32.325" height="16.162" rx="8.081" fill="#639AF8"/><path fill-rule="evenodd" clip-rule="evenodd" d="M219.694 190.457h-72.73v-10.589h72.73v10.589ZM219.694 203.089h-72.73v-3.53h72.73v3.53Z" fill="#E7E9EC"/><path d="M123 59.824a8 8 0 0 1 8-8h276.941a8 8 0 0 1 8 8v16.243H123V59.824Z" fill="#3C4043"/><rect x="135.122" y="59.904" width="8.081" height="8.081" rx="4.041" fill="#fff"/><rect x="147.244" y="59.904" width="8.081" height="8.081" rx="4.041" fill="#fff"/><rect x="159" y="59.904" width="8.081" height="8.081" rx="4.041" fill="#fff"/><path fill="#fff" d="M251.824 92.23h142.43v48.487h-142.43z"/><path fill="#E6E8EB" d="M251.824 156.879h105.055v16.162H251.824zM251.824 181.121h123.237v4.041H251.824zM251.824 193.244h105.055v4.041H251.824zM251.824 205.365h142.43v4.041h-142.43z"/><path d="M62.118 214.177 60.38 221.5l-5.308 22.368-5.307 22.367H33" stroke="#C5221F" stroke-width="4"/><path d="M62.118 214.176 60.38 221.5" stroke="#B31412" stroke-width="4"/><path d="m81.53 214.177 6.176 15-10.588 37.058h15" stroke="#C5221F" stroke-width="4"/><path d="m81.53 214.176 3.088 7.5" stroke="#B31412" stroke-width="4"/><path d="M111.412 184.576c7.157.828 36.234 7.419 28.459-18.151l6.835-1.66" stroke="#E94235" stroke-width="4" stroke-linejoin="round"/><path d="M37.662 185.927c.868 11.581 1.05 24.942-2.262 36.106" stroke="#E94235" stroke-width="4" stroke-miterlimit="10"/><circle cx="73.588" cy="178.882" r="38.824" fill="#D93025"/><path d="M85.941 193c-5.771 7.852-16.52 10.425-24.706 1.069" stroke="#fff" stroke-width="4" stroke-miterlimit="10"/><path d="M424.765 258.293c14.619 0 26.47-4.345 26.47-9.706v-3.529h-52.941v3.529c0 5.361 11.851 9.706 26.471 9.706Z" fill="#F9AB00"/><ellipse cx="424.765" cy="245.058" rx="26.471" ry="9.706" fill="#FDD663"/><path d="M428.294 249.471c14.619 0 26.471-4.346 26.471-9.706v-3.53h-52.941v3.53c0 5.36 11.851 9.706 26.47 9.706Z" fill="#F9AB00"/><ellipse cx="428.294" cy="236.235" rx="26.471" ry="9.706" fill="#FDD663"/><path d="M423 242.411c14.619 0 26.471-4.345 26.471-9.705v-3.53H396.53v3.53c0 5.36 11.851 9.705 26.47 9.705Z" fill="#F9AB00"/><ellipse cx="423" cy="229.176" rx="26.471" ry="9.706" fill="#FDD663"/><path d="M444.941 229.177c0 .674-.393 1.463-1.436 2.317-1.036.847-2.595 1.655-4.61 2.353-4.021 1.392-9.641 2.271-15.895 2.271s-11.874-.879-15.895-2.271c-2.015-.698-3.574-1.506-4.61-2.353-1.043-.854-1.436-1.643-1.436-2.317 0-.675.393-1.464 1.436-2.318 1.036-.847 2.595-1.655 4.61-2.353 4.021-1.392 9.641-2.271 15.895-2.271s11.874.879 15.895 2.271c2.015.698 3.574 1.506 4.61 2.353 1.043.854 1.436 1.643 1.436 2.318Z" stroke="#F9AB00" stroke-width="2"/><path d="m190.059 51.824 6.301 7.088a3 3 0 0 1 .758 1.993V80.06h10.588" stroke="#1967D2" stroke-width="4"/><path d="M190.059 51.824 195 57.499" stroke="#185ABC" stroke-width="4"/><path d="m207.706 49.058 6.048 6.805a4 4 0 0 1 1.011 2.657v18.773h10.588" stroke="#1967D2" stroke-width="4"/><path d="m207.706 49.058 3.529 3.97" stroke="#185ABC" stroke-width="4"/><path d="M230.647 26.458c15.346 3.878 28.408-9.969 26.233-25.117-.032-.232-.07-.464-.114-.694" stroke="#4285F4" stroke-width="4" stroke-miterlimit="10"/><path d="m130.059 32.7.549-.13a6.333 6.333 0 0 1 3.775.299c1.189.481 2.177 1.313 2.811 2.367 3.157 5.17 7.698 8.75 14.807 9.43 5.087.487 11.596-.803 15.117-4.53" stroke="#4285F4" stroke-width="4" stroke-linejoin="round"/><path d="M204.078 51.725c20.711-5.55 33.002-26.838 27.453-47.55l-75.002 20.097c5.55 20.711 26.838 33.002 47.549 27.453Z" fill="#1A73E8"/><path d="M206.515 33.52a20.239 20.239 0 0 1-2.436 1.853 17.86 17.86 0 0 1-3.224 1.662 16.883 16.883 0 0 1-7.035 1.148 18.474 18.474 0 0 1-2.589-.314" stroke="#fff" stroke-width="4" stroke-miterlimit="10"/></svg>