<svg width="343" height="195" viewBox="0 0 343 195" fill="none" xmlns="http://www.w3.org/2000/svg">
<path d="M4.84391 147.762C7.03759 153.839 10.1609 159.417 14.0665 164.234C29.4174 182.993 52.0987 184.583 72.9004 179.889C93.9621 175.105 113.819 164.961 131.006 150.205C140.896 141.701 150.666 131.148 163.762 130.677C168.679 130.502 173.764 132.074 177.478 135.782C185.197 143.441 185.06 156.536 191.083 165.612C199.094 177.683 210.616 181.421 223.184 182.814C258.691 186.745 300.985 173.847 325.409 142.463C347.216 114.446 349.833 69.8647 323.437 44.3233C311.378 32.6538 294.841 27.3078 279.232 30.0319C267.304 32.1141 255.193 38.4484 242.845 40.2098C228.301 42.2884 219.311 35.1992 207.544 26.9431C187.041 12.5934 159.936 7.07955 136.727 15.405C114.51 23.373 98.5202 45.1292 76.9011 54.6872C58.2206 62.9506 36.1531 61.6925 19.9213 75.1525C0.715996 91.0739 -4.11156 123.22 4.84391 147.762Z" fill="#F3F5F7"/>
<path d="M82.6118 161.531C91.8294 161.531 99.3017 158.791 99.3017 155.411V153.186H65.9219V155.411C65.9219 158.791 73.3942 161.531 82.6118 161.531Z" fill="#C59539"/>
<ellipse cx="82.6118" cy="153.185" rx="16.6899" ry="6.11964" fill="#E1B155"/>
<path d="M82.612 157.08C91.8296 157.08 99.302 154.34 99.302 150.96V148.735H65.9221V150.96C65.9221 154.34 73.3945 157.08 82.612 157.08Z" fill="#C59539"/>
<ellipse cx="82.612" cy="148.735" rx="16.6899" ry="6.11964" fill="#E1B155"/>
<path d="M82.6118 152.629C91.8294 152.629 99.3017 149.889 99.3017 146.509V144.284H65.9219V146.509C65.9219 149.889 73.3942 152.629 82.6118 152.629Z" fill="#C59539"/>
<ellipse cx="82.6118" cy="144.284" rx="16.6899" ry="6.11964" fill="#E1B155"/>
<path d="M82.612 148.179C91.8296 148.179 99.302 145.439 99.302 142.059V139.834H65.9221V142.059C65.9221 145.439 73.3945 148.179 82.612 148.179Z" fill="#C59539"/>
<ellipse cx="82.612" cy="139.834" rx="16.6899" ry="6.11964" fill="#E1B155"/>
<path d="M82.612 143.727C91.8296 143.727 99.302 140.987 99.302 137.608V135.382H65.9221V137.608C65.9221 140.987 73.3945 143.727 82.612 143.727Z" fill="#C59539"/>
<ellipse cx="82.612" cy="135.382" rx="16.6899" ry="6.11964" fill="#E1B155"/>
<path d="M82.6119 139.277C91.8294 139.277 99.3018 136.538 99.3018 133.158V130.932H65.9219V133.158C65.9219 136.538 73.3943 139.277 82.6119 139.277Z" fill="#C59539"/>
<ellipse cx="82.6119" cy="130.932" rx="16.6899" ry="6.11964" fill="#E1B155"/>
<path d="M82.1067 132.861V132.489C81.8656 132.471 81.6322 132.432 81.4068 132.369C81.1813 132.303 80.9821 132.215 80.809 132.103C80.636 131.989 80.5075 131.851 80.4236 131.688L81.163 131.526C81.2259 131.651 81.3412 131.764 81.509 131.864C81.682 131.964 81.8813 132.028 82.1067 132.056V131.106L82.0832 131.098C81.6637 131.012 81.3176 130.901 81.045 130.764C80.7723 130.624 80.636 130.446 80.636 130.229C80.636 130.101 80.6937 129.979 80.809 129.865C80.9296 129.751 81.1 129.657 81.3203 129.583C81.5405 129.506 81.8026 129.46 82.1067 129.446V129.078H82.7359V129.454C83.0086 129.477 83.2367 129.522 83.4202 129.587C83.609 129.65 83.7558 129.723 83.8606 129.805C83.9707 129.888 84.0468 129.967 84.0887 130.041L83.3651 130.212C83.3232 130.149 83.2498 130.086 83.1449 130.024C83.0453 129.961 82.909 129.914 82.7359 129.882V130.781C83.0191 130.844 83.2708 130.914 83.491 130.991C83.7112 131.065 83.8842 131.155 84.0101 131.26C84.1412 131.363 84.2067 131.492 84.2067 131.646C84.2067 131.814 84.1359 131.957 83.9943 132.074C83.858 132.19 83.6771 132.283 83.4517 132.352C83.2314 132.42 82.9929 132.464 82.7359 132.484V132.861H82.1067ZM81.4461 130.229C81.4461 130.32 81.5011 130.397 81.6113 130.46C81.7266 130.52 81.8918 130.579 82.1067 130.636V129.865C81.9127 129.888 81.7528 129.932 81.627 129.998C81.5064 130.064 81.4461 130.141 81.4461 130.229ZM83.3887 131.65C83.3887 131.553 83.3311 131.474 83.2157 131.414C83.1056 131.355 82.9457 131.297 82.7359 131.243V132.052C82.9247 132.026 83.0794 131.979 83.2 131.911C83.3258 131.842 83.3887 131.755 83.3887 131.65Z" fill="#AA7A1E"/>
<path d="M96.4461 130.932C96.4461 131.358 96.1983 131.855 95.5406 132.393C94.8875 132.928 93.9044 133.437 92.6338 133.877C90.0986 134.754 86.5553 135.309 82.612 135.309C78.6687 135.309 75.1254 134.754 72.5902 133.877C71.3196 133.437 70.3365 132.928 69.6834 132.393C69.0257 131.855 68.7779 131.358 68.7779 130.932C68.7779 130.507 69.0257 130.01 69.6834 129.471C70.3365 128.937 71.3196 128.427 72.5902 127.988C75.1254 127.11 78.6687 126.556 82.612 126.556C86.5553 126.556 90.0986 127.11 92.6338 127.988C93.9044 128.427 94.8875 128.937 95.5406 129.471C96.1983 130.01 96.4461 130.507 96.4461 130.932Z" stroke="#C59539" stroke-width="1.26102"/>
<g filter="url(#filter0_d_368_3243)">
<rect x="84.8373" y="36.9126" width="184.702" height="126.107" rx="10.0881" fill="white"/>
<rect x="84.3373" y="36.4126" width="185.702" height="127.107" rx="10.5881" stroke="#CBD0D3"/>
</g>
<rect x="94.8513" y="62.389" width="56.0474" height="90.4402" rx="3.78305" fill="#EE92DA"/>
<circle cx="110.137" cy="77.6748" r="7.64283" fill="#B75BA2"/>
<path d="M110.964 99.0104L99.9465 110.793H145.804L129.128 92.9598L117.217 105.698L110.964 99.0104Z" fill="#B75BA2"/>
<rect x="112.685" y="137.543" width="20.3809" height="10.1904" rx="5.09522" fill="#FFB6EF"/>
<path fill-rule="evenodd" clip-rule="evenodd" d="M145.804 124.322H99.9465V117.646H145.804V124.322Z" fill="#FFB6EF"/>
<path fill-rule="evenodd" clip-rule="evenodd" d="M145.804 132.287H99.9465V130.061H145.804V132.287Z" fill="#FFB6EF"/>
<path d="M84.8373 47.0007C84.8373 41.4292 89.354 36.9126 94.9255 36.9126H259.451C265.023 36.9126 269.539 41.4292 269.539 47.0007V52.1983H84.8373V47.0007Z" fill="#EBEEF0"/>
<rect x="92.4801" y="42.0077" width="5.09522" height="5.09522" rx="2.54761" fill="#CBD0D3"/>
<rect x="100.123" y="42.0077" width="5.09522" height="5.09522" rx="2.54761" fill="#CBD0D3"/>
<rect x="166.062" y="62.389" width="89.8033" height="30.5713" rx="4" fill="#EBEEF0"/>
<rect x="166.062" y="101.151" width="66.2379" height="10.1904" rx="5.09522" fill="#EBEEF0"/>
<rect x="166.062" y="117.436" width="77.7021" height="4" rx="2" fill="#EBEEF0"/>
<rect x="166.062" y="127.079" width="66.2379" height="4" rx="2" fill="#EBEEF0"/>
<rect x="166.062" y="136.722" width="89.8033" height="4" rx="2" fill="#EBEEF0"/>
<path d="M39.2937 137.925L30.4721 175.101H18.5" stroke="black" stroke-width="2.85651" stroke-linecap="round"/>
<path d="M53.1561 137.925L57.5669 148.636L50.0056 175.101H60.7175" stroke="black" stroke-width="2.85651" stroke-linecap="round"/>
<path d="M75.21 116.786C80.3214 117.377 101.086 122.084 95.5334 103.824L100.414 102.638" stroke="#161B18" stroke-width="2.85651" stroke-linecap="round" stroke-linejoin="round"/>
<path d="M21.829 117.751C22.449 126.021 22.5789 135.562 20.2138 143.535" stroke="#161B18" stroke-width="2.85651" stroke-miterlimit="10" stroke-linecap="round"/>
<circle cx="47.4852" cy="112.72" r="27.7249" fill="#77AD8C"/>
<path d="M56.3067 122.802C52.1852 128.409 44.509 130.246 38.6636 123.565" stroke="#161B18" stroke-width="2.85651" stroke-miterlimit="10" stroke-linecap="round"/>
<path fill-rule="evenodd" clip-rule="evenodd" d="M44.3345 137.924C59.9945 137.924 72.6895 125.229 72.6895 109.569C72.6895 103.989 71.0772 98.7843 68.293 94.397C72.5982 99.2824 75.2099 105.696 75.2099 112.72C75.2099 128.032 62.797 140.444 47.485 140.444C40.4625 140.444 34.0498 137.834 29.1647 133.53C33.5515 136.313 38.7547 137.924 44.3345 137.924Z" fill="#59866A"/>
<path d="M275.102 167.093C284.32 167.093 291.792 164.354 291.792 160.974V158.748H258.412V160.974C258.412 164.354 265.885 167.093 275.102 167.093Z" fill="#C59539"/>
<ellipse cx="275.102" cy="158.749" rx="16.6899" ry="6.11964" fill="#FCC934"/>
<path d="M277.328 161.531C286.545 161.531 294.018 158.791 294.018 155.411V153.186H260.638V155.411C260.638 158.791 268.11 161.531 277.328 161.531Z" fill="#C59539"/>
<ellipse cx="277.328" cy="153.186" rx="16.6899" ry="6.11964" fill="#FCC934"/>
<path d="M273.99 157.08C283.207 157.08 290.68 154.34 290.68 150.96V148.735H257.3V150.96C257.3 154.34 264.772 157.08 273.99 157.08Z" fill="#C59539"/>
<ellipse cx="273.99" cy="148.735" rx="16.6899" ry="6.11964" fill="#FCC934"/>
<path d="M287.824 148.735C287.824 149.161 287.576 149.658 286.918 150.196C286.265 150.73 285.282 151.24 284.012 151.68C281.476 152.557 277.933 153.111 273.99 153.111C270.046 153.111 266.503 152.557 263.968 151.68C262.697 151.24 261.714 150.73 261.061 150.196C260.403 149.658 260.156 149.161 260.156 148.735C260.156 148.309 260.403 147.812 261.061 147.274C261.714 146.74 262.697 146.23 263.968 145.79C266.503 144.913 270.046 144.359 273.99 144.359C277.933 144.359 281.476 144.913 284.012 145.79C285.282 146.23 286.265 146.74 286.918 147.274C287.576 147.812 287.824 148.309 287.824 148.735Z" stroke="#C59539" stroke-width="1.26102"/>
<defs>
<filter id="filter0_d_368_3243" x="83.8373" y="35.9126" width="190.702" height="133.107" filterUnits="userSpaceOnUse" color-interpolation-filters="sRGB">
<feFlood flood-opacity="0" result="BackgroundImageFix"/>
<feColorMatrix in="SourceAlpha" type="matrix" values="0 0 0 0 0 0 0 0 0 0 0 0 0 0 0 0 0 0 127 0" result="hardAlpha"/>
<feOffset dx="4" dy="5"/>
<feComposite in2="hardAlpha" operator="out"/>
<feColorMatrix type="matrix" values="0 0 0 0 0.796078 0 0 0 0 0.815686 0 0 0 0 0.827451 0 0 0 1 0"/>
<feBlend mode="normal" in2="BackgroundImageFix" result="effect1_dropShadow_368_3243"/>
<feBlend mode="normal" in="SourceGraphic" in2="effect1_dropShadow_368_3243" result="shape"/>
</filter>
</defs>
</svg>
