<?xml version="1.0" encoding="UTF-8"?>
<svg width="173px" height="152px" viewBox="0 0 173 152" version="1.1" xmlns="http://www.w3.org/2000/svg" xmlns:xlink="http://www.w3.org/1999/xlink">
    <!-- Generator: Sketch 52.5 (67469) - http://www.bohemiancoding.com/sketch -->
    <title>Group</title>
    <desc>Created with Sketch.</desc>
    <g id="Page-1" stroke="none" stroke-width="1" fill="none" fill-rule="evenodd">
        <g id="Group" transform="translate(-1.000000, 0.000000)">
            <path d="M108.91,41.72 C116.64,28.5 112.05,11.6 98.67,3.97 C85.29,-3.66 68.18,0.87 60.45,14.09 C60.1,14.68 59.79,15.29 59.49,15.9 L33.39,60.56 C33.1,61 32.82,61.45 32.55,61.91 C32.28,62.37 32.03,62.84 31.79,63.31 L4.67,110.1 L53.12,137.26 L80.1,90.86 C80.39,90.42 80.67,89.97 80.94,89.51 C81.21,89.05 81.46,88.58 81.7,88.12 L107.81,43.45 C108.19,42.88 108.57,42.31 108.91,41.72 Z" id="Path" fill="#FBBC04"></path>
            <path d="M53.34,137.11 C45.66,150.54 28.34,155.49 15.03,147.73 C1.72,139.97 -2.99,123.16 4.69,109.73 C12.37,96.3 29.55,91.34 42.85,99.09 C56.15,106.84 61.03,123.68 53.34,137.11 Z" id="Path" fill="#34A853"></path>
            <path d="M159.79,51.86 C146.56,44.24 129.64,48.76 122,61.96 L94.34,109.76 C86.7,122.96 91.23,139.84 104.47,147.46 C117.7,155.08 134.62,150.56 142.26,137.36 L169.92,89.56 C177.55,76.36 173.02,59.48 159.79,51.86 Z" id="Path" fill="#4285F4"></path>
        </g>
    </g>
</svg>