<svg width="343" height="123" viewBox="0 0 343 123" fill="none" xmlns="http://www.w3.org/2000/svg">
<g clip-path="url(#clip0_413_2382)">
<path d="M311.553 64.3649C313.953 87.0957 306.75 97.1449 288.528 124.315C270.306 151.484 295.932 183.591 267.749 214.183C234.221 250.577 117.063 253.547 66.5167 238.395C15.9706 223.242 2.9363 191.922 6.56939 163.24C11.5001 124.315 38.5181 112.077 51.5 93C70.7757 64.6749 48.6874 38.2141 86 15.5C123.313 -7.21406 166.086 22.1966 206.326 19.8881C229.542 18.5562 252.343 14.2613 272.952 20.8564C293.784 27.5232 309.671 46.2838 311.553 64.3649Z" fill="#B8E6CA"/>
<g filter="url(#filter0_d_413_2382)">
<rect x="56" y="14" width="209.444" height="143" rx="11.4395" fill="white"/>
<rect x="67.6353" y="43.0895" width="186.173" height="39.0631" rx="4.28983" fill="#DCE8FF"/>
<rect x="73.4536" y="109.58" width="24.9339" height="2.49339" rx="1.24669" fill="#9BB8F0"/>
<rect x="73.4536" y="114.567" width="33.2452" height="2.49339" rx="1.24669" fill="#9BB8F0"/>
<path d="M177.792 64.5801L193.967 82.1526H126.645L151.126 55.5564L168.612 74.5537L177.792 64.5801Z" fill="#9BB8F0"/>
<path d="M56 25.4395C56 19.1217 61.1217 14 67.4395 14H254.005C260.323 14 265.444 19.1217 265.444 25.4395V31.3333H56V25.4395Z" fill="#EBEEF0"/>
<rect x="64.6665" y="19.7776" width="5.77778" height="5.77778" rx="2.88889" fill="#CBD0D3"/>
<rect x="73.333" y="19.7776" width="5.77778" height="5.77778" rx="2.88889" fill="#CBD0D3"/>
<rect x="67.6353" y="90.4639" width="49.0366" height="45.7121" rx="4.53584" fill="#EBEEF0"/>
<rect x="126.646" y="90.4639" width="44.881" height="8.31129" rx="4.15564" fill="#EBEEF0"/>
<rect x="126.646" y="106.255" width="127.163" height="4.15564" rx="2.07782" fill="#EBEEF0"/>
<rect x="126.646" y="117.06" width="127.163" height="4.15564" rx="2.07782" fill="#EBEEF0"/>
<path d="M235.947 131.708C245.811 131.708 253.808 128.776 253.808 125.159V122.778H218.086V125.159C218.086 128.776 226.083 131.708 235.947 131.708Z" fill="#E1B155"/>
<ellipse cx="235.947" cy="121.947" rx="17.8609" ry="6.54901" fill="#FECE72"/>
<path d="M235.406 124.011V123.612C235.148 123.594 234.898 123.551 234.657 123.484C234.416 123.414 234.203 123.319 234.017 123.2C233.832 123.078 233.695 122.93 233.605 122.756L234.396 122.582C234.463 122.716 234.587 122.837 234.766 122.943C234.952 123.05 235.165 123.119 235.406 123.15V122.133L235.381 122.124C234.932 122.032 234.562 121.913 234.27 121.766C233.978 121.617 233.832 121.426 233.832 121.194C233.832 121.057 233.894 120.927 234.017 120.805C234.146 120.683 234.329 120.582 234.564 120.502C234.8 120.42 235.081 120.371 235.406 120.356V119.962H236.08V120.365C236.371 120.389 236.615 120.437 236.812 120.507C237.014 120.574 237.171 120.652 237.283 120.741C237.401 120.829 237.482 120.913 237.527 120.992L236.753 121.176C236.708 121.109 236.629 121.041 236.517 120.974C236.411 120.907 236.265 120.857 236.08 120.823V121.785C236.383 121.852 236.652 121.927 236.888 122.009C237.123 122.089 237.308 122.185 237.443 122.298C237.583 122.408 237.653 122.545 237.653 122.71C237.653 122.89 237.578 123.043 237.426 123.168C237.28 123.293 237.087 123.392 236.845 123.466C236.61 123.539 236.354 123.586 236.08 123.608V124.011H235.406ZM234.699 121.194C234.699 121.292 234.758 121.374 234.876 121.441C234.999 121.505 235.176 121.568 235.406 121.629V120.805C235.199 120.829 235.027 120.876 234.893 120.947C234.764 121.017 234.699 121.099 234.699 121.194ZM236.778 122.714C236.778 122.611 236.716 122.527 236.593 122.463C236.475 122.398 236.304 122.337 236.08 122.279V123.145C236.282 123.117 236.447 123.067 236.576 122.994C236.711 122.921 236.778 122.827 236.778 122.714Z" fill="#AA7A1E"/>
<path d="M235.947 126.722C245.811 126.722 253.808 123.79 253.808 120.173V117.791H218.086V120.173C218.086 123.79 226.083 126.722 235.947 126.722Z" fill="#E1B155"/>
<ellipse cx="235.947" cy="116.96" rx="17.8609" ry="6.54901" fill="#FECE72"/>
<path d="M235.406 119.024V118.625C235.148 118.607 234.898 118.564 234.657 118.497C234.416 118.427 234.203 118.332 234.017 118.213C233.832 118.091 233.695 117.943 233.605 117.769L234.396 117.595C234.463 117.729 234.587 117.85 234.766 117.957C234.952 118.064 235.165 118.132 235.406 118.163V117.146L235.381 117.137C234.932 117.045 234.562 116.926 234.27 116.78C233.978 116.63 233.832 116.439 233.832 116.207C233.832 116.07 233.894 115.94 234.017 115.818C234.146 115.696 234.329 115.595 234.564 115.516C234.8 115.433 235.081 115.384 235.406 115.369V114.975H236.08V115.378C236.371 115.403 236.615 115.45 236.812 115.52C237.014 115.587 237.171 115.665 237.283 115.754C237.401 115.842 237.482 115.926 237.527 116.006L236.753 116.189C236.708 116.122 236.629 116.055 236.517 115.987C236.411 115.92 236.265 115.87 236.08 115.836V116.798C236.383 116.865 236.652 116.94 236.888 117.022C237.123 117.102 237.308 117.198 237.443 117.311C237.583 117.421 237.653 117.558 237.653 117.723C237.653 117.903 237.578 118.056 237.426 118.181C237.28 118.306 237.087 118.405 236.845 118.479C236.61 118.552 236.354 118.599 236.08 118.621V119.024H235.406ZM234.699 116.207C234.699 116.305 234.758 116.387 234.876 116.455C234.999 116.519 235.176 116.581 235.406 116.642V115.818C235.199 115.842 235.027 115.89 234.893 115.96C234.764 116.03 234.699 116.113 234.699 116.207ZM236.778 117.728C236.778 117.624 236.716 117.54 236.593 117.476C236.475 117.412 236.304 117.351 236.08 117.293V118.158C236.282 118.131 236.447 118.08 236.576 118.007C236.711 117.934 236.778 117.841 236.778 117.728Z" fill="#AA7A1E"/>
<path d="M235.947 121.735C245.811 121.735 253.808 118.803 253.808 115.186V112.804H218.086V115.186C218.086 118.803 226.083 121.735 235.947 121.735Z" fill="#E1B155"/>
<ellipse cx="235.947" cy="111.973" rx="17.8609" ry="6.54901" fill="#FECE72"/>
<path d="M235.406 114.037V113.639C235.148 113.62 234.898 113.577 234.657 113.51C234.416 113.44 234.203 113.345 234.017 113.226C233.832 113.104 233.695 112.956 233.605 112.782L234.396 112.608C234.463 112.742 234.587 112.863 234.766 112.97C234.952 113.077 235.165 113.145 235.406 113.176V112.159L235.381 112.15C234.932 112.059 234.562 111.939 234.27 111.793C233.978 111.643 233.832 111.452 233.832 111.22C233.832 111.083 233.894 110.953 234.017 110.831C234.146 110.709 234.329 110.608 234.564 110.529C234.8 110.446 235.081 110.398 235.406 110.382V109.989H236.08V110.392C236.371 110.416 236.615 110.463 236.812 110.533C237.014 110.601 237.171 110.679 237.283 110.767C237.401 110.856 237.482 110.94 237.527 111.019L236.753 111.202C236.708 111.135 236.629 111.068 236.517 111.001C236.411 110.933 236.265 110.883 236.08 110.849V111.811C236.383 111.878 236.652 111.953 236.888 112.036C237.123 112.115 237.308 112.211 237.443 112.324C237.583 112.434 237.653 112.571 237.653 112.736C237.653 112.916 237.578 113.069 237.426 113.194C237.28 113.319 237.087 113.419 236.845 113.492C236.61 113.565 236.354 113.613 236.08 113.634V114.037H235.406ZM234.699 111.22C234.699 111.318 234.758 111.401 234.876 111.468C234.999 111.532 235.176 111.594 235.406 111.656V110.831C235.199 110.856 235.027 110.903 234.893 110.973C234.764 111.043 234.699 111.126 234.699 111.22ZM236.778 112.741C236.778 112.637 236.716 112.553 236.593 112.489C236.475 112.425 236.304 112.364 236.08 112.306V113.171C236.282 113.144 236.447 113.094 236.576 113.02C236.711 112.947 236.778 112.854 236.778 112.741Z" fill="#AA7A1E"/>
<path d="M235.947 116.748C245.811 116.748 253.808 113.816 253.808 110.199V107.818H218.086V110.199C218.086 113.816 226.083 116.748 235.947 116.748Z" fill="#E1B155"/>
<ellipse cx="235.947" cy="106.986" rx="17.8609" ry="6.54901" fill="#FECE72"/>
<path d="M235.406 109.05V108.652C235.148 108.633 234.898 108.591 234.657 108.524C234.416 108.453 234.203 108.359 234.017 108.24C233.832 108.117 233.695 107.969 233.605 107.795L234.396 107.621C234.463 107.756 234.587 107.876 234.766 107.983C234.952 108.09 235.165 108.159 235.406 108.189V107.173L235.381 107.163C234.932 107.072 234.562 106.953 234.27 106.806C233.978 106.657 233.832 106.466 233.832 106.234C233.832 106.096 233.894 105.967 234.017 105.844C234.146 105.722 234.329 105.622 234.564 105.542C234.8 105.46 235.081 105.411 235.406 105.396V105.002H236.08V105.405C236.371 105.429 236.615 105.476 236.812 105.547C237.014 105.614 237.171 105.692 237.283 105.78C237.401 105.869 237.482 105.953 237.527 106.032L236.753 106.215C236.708 106.148 236.629 106.081 236.517 106.014C236.411 105.947 236.265 105.896 236.08 105.863V106.824C236.383 106.892 236.652 106.966 236.888 107.049C237.123 107.128 237.308 107.224 237.443 107.337C237.583 107.447 237.653 107.585 237.653 107.75C237.653 107.93 237.578 108.082 237.426 108.208C237.28 108.333 237.087 108.432 236.845 108.505C236.61 108.578 236.354 108.626 236.08 108.647V109.05H235.406ZM234.699 106.234C234.699 106.331 234.758 106.414 234.876 106.481C234.999 106.545 235.176 106.608 235.406 106.669V105.844C235.199 105.869 235.027 105.916 234.893 105.986C234.764 106.057 234.699 106.139 234.699 106.234ZM236.778 107.754C236.778 107.65 236.716 107.566 236.593 107.502C236.475 107.438 236.304 107.377 236.08 107.319V108.185C236.282 108.157 236.447 108.107 236.576 108.034C236.711 107.96 236.778 107.867 236.778 107.754Z" fill="#AA7A1E"/>
<path d="M235.947 111.761C245.811 111.761 253.808 108.829 253.808 105.212V102.831H218.086V105.212C218.086 108.829 226.083 111.761 235.947 111.761Z" fill="#E1B155"/>
<ellipse cx="235.947" cy="102" rx="17.8609" ry="6.54901" fill="#FECE72"/>
<path d="M235.406 104.063V103.665C235.148 103.647 234.898 103.604 234.657 103.537C234.416 103.467 234.203 103.372 234.017 103.253C233.832 103.131 233.695 102.983 233.605 102.809L234.396 102.635C234.463 102.769 234.587 102.89 234.766 102.996C234.952 103.103 235.165 103.172 235.406 103.202V102.186L235.381 102.177C234.932 102.085 234.562 101.966 234.27 101.819C233.978 101.67 233.832 101.479 233.832 101.247C233.832 101.11 233.894 100.98 234.017 100.858C234.146 100.736 234.329 100.635 234.564 100.555C234.8 100.473 235.081 100.424 235.406 100.409V100.015H236.08V100.418C236.371 100.442 236.615 100.49 236.812 100.56C237.014 100.627 237.171 100.705 237.283 100.794C237.401 100.882 237.482 100.966 237.527 101.045L236.753 101.229C236.708 101.161 236.629 101.094 236.517 101.027C236.411 100.96 236.265 100.91 236.08 100.876V101.838C236.383 101.905 236.652 101.98 236.888 102.062C237.123 102.141 237.308 102.238 237.443 102.351C237.583 102.461 237.653 102.598 237.653 102.763C237.653 102.943 237.578 103.096 237.426 103.221C237.28 103.346 237.087 103.445 236.845 103.518C236.61 103.592 236.354 103.639 236.08 103.66V104.063H235.406ZM234.699 101.247C234.699 101.345 234.758 101.427 234.876 101.494C234.999 101.558 235.176 101.621 235.406 101.682V100.858C235.199 100.882 235.027 100.929 234.893 101C234.764 101.07 234.699 101.152 234.699 101.247ZM236.778 102.767C236.778 102.664 236.716 102.58 236.593 102.515C236.475 102.451 236.304 102.39 236.08 102.332V103.198C236.282 103.17 236.447 103.12 236.576 103.047C236.711 102.973 236.778 102.88 236.778 102.767Z" fill="#AA7A1E"/>
<path d="M235.947 106.775C245.811 106.775 253.808 103.842 253.808 100.226V97.8441H218.086V100.226C218.086 103.842 226.083 106.775 235.947 106.775Z" fill="#E1B155"/>
<ellipse cx="235.947" cy="97.0129" rx="17.8609" ry="6.54901" fill="#FECE72"/>
<path d="M235.406 99.0767V98.6782C235.148 98.6599 234.898 98.6172 234.657 98.55C234.416 98.4798 234.203 98.3851 234.017 98.266C233.832 98.1439 233.695 97.9958 233.605 97.8218L234.396 97.6478C234.463 97.7821 234.587 97.9027 234.766 98.0096C234.952 98.1164 235.165 98.1851 235.406 98.2157V97.199L235.381 97.1898C234.932 97.0982 234.562 96.9791 234.27 96.8326C233.978 96.683 233.832 96.4922 233.832 96.2601C233.832 96.1227 233.894 95.993 234.017 95.8709C234.146 95.7487 234.329 95.648 234.564 95.5686C234.8 95.4862 235.081 95.4373 235.406 95.422V95.0282H236.08V95.4312C236.371 95.4556 236.615 95.5029 236.812 95.5732C237.014 95.6403 237.171 95.7182 237.283 95.8067C237.401 95.8953 237.482 95.9792 237.527 96.0586L236.753 96.2418C236.708 96.1746 236.629 96.1075 236.517 96.0403C236.411 95.9731 236.265 95.9228 236.08 95.8892V96.8509C236.383 96.9181 236.652 96.9929 236.888 97.0753C237.123 97.1547 237.308 97.2509 237.443 97.3638C237.583 97.4738 237.653 97.6111 237.653 97.776C237.653 97.9562 237.578 98.1088 237.426 98.234C237.28 98.3592 237.087 98.4584 236.845 98.5317C236.61 98.6049 236.354 98.6523 236.08 98.6736V99.0767H235.406ZM234.699 96.2601C234.699 96.3578 234.758 96.4403 234.876 96.5074C234.999 96.5716 235.176 96.6341 235.406 96.6952V95.8709C235.199 95.8953 235.027 95.9426 234.893 96.0128C234.764 96.083 234.699 96.1655 234.699 96.2601ZM236.778 97.7806C236.778 97.6768 236.716 97.5928 236.593 97.5287C236.475 97.4646 236.304 97.4035 236.08 97.3455V98.2111C236.282 98.1836 236.447 98.1332 236.576 98.06C236.711 97.9867 236.778 97.8936 236.778 97.7806Z" fill="#AA7A1E"/>
<path d="M250.751 97.0127C250.751 97.4681 250.486 98.0002 249.782 98.5763C249.084 99.1482 248.031 99.6933 246.672 100.164C243.959 101.103 240.167 101.696 235.947 101.696C231.727 101.696 227.935 101.103 225.222 100.164C223.862 99.6933 222.81 99.1482 222.111 98.5763C221.407 98.0002 221.142 97.4681 221.142 97.0127C221.142 96.5574 221.407 96.0252 222.111 95.4492C222.81 94.8773 223.862 94.3322 225.222 93.8615C227.935 92.9223 231.727 92.3292 235.947 92.3292C240.167 92.3292 243.959 92.9223 246.672 93.8615C248.031 94.3322 249.084 94.8773 249.782 95.4492C250.486 96.0252 250.751 96.5574 250.751 97.0127Z" stroke="#E1B155" stroke-width="1.34949"/>
<ellipse cx="211.845" cy="127.765" rx="17.8609" ry="6.54901" fill="#FECE72"/>
<ellipse cx="211.845" cy="122.778" rx="17.8609" ry="6.54901" fill="#FECE72"/>
<path d="M211.304 124.842V124.443C211.046 124.425 210.796 124.382 210.555 124.315C210.314 124.245 210.101 124.15 209.915 124.031C209.73 123.909 209.593 123.761 209.503 123.587L210.294 123.413C210.361 123.547 210.485 123.668 210.664 123.775C210.85 123.881 211.063 123.95 211.304 123.981V122.964L211.279 122.955C210.83 122.863 210.46 122.744 210.168 122.598C209.876 122.448 209.73 122.257 209.73 122.025C209.73 121.888 209.792 121.758 209.915 121.636C210.044 121.514 210.227 121.413 210.462 121.334C210.698 121.251 210.979 121.202 211.304 121.187V120.793H211.977V121.196C212.269 121.221 212.513 121.268 212.71 121.338C212.912 121.405 213.069 121.483 213.181 121.572C213.299 121.66 213.38 121.744 213.425 121.824L212.651 122.007C212.606 121.94 212.527 121.872 212.415 121.805C212.309 121.738 212.163 121.688 211.977 121.654V122.616C212.28 122.683 212.55 122.758 212.785 122.84C213.021 122.92 213.206 123.016 213.341 123.129C213.481 123.239 213.551 123.376 213.551 123.541C213.551 123.721 213.476 123.874 213.324 123.999C213.178 124.124 212.985 124.223 212.743 124.297C212.508 124.37 212.252 124.417 211.977 124.439V124.842H211.304ZM210.597 122.025C210.597 122.123 210.656 122.205 210.774 122.272C210.897 122.337 211.074 122.399 211.304 122.46V121.636C211.097 121.66 210.925 121.708 210.791 121.778C210.662 121.848 210.597 121.93 210.597 122.025ZM212.676 123.546C212.676 123.442 212.614 123.358 212.491 123.294C212.373 123.23 212.202 123.169 211.977 123.111V123.976C212.179 123.949 212.345 123.898 212.474 123.825C212.609 123.752 212.676 123.659 212.676 123.546Z" fill="#AA7A1E"/>
<path d="M211.845 127.553C221.709 127.553 229.706 124.621 229.706 121.004V118.622H193.984V121.004C193.984 124.621 201.98 127.553 211.845 127.553Z" fill="#E1B155"/>
<ellipse cx="211.845" cy="117.791" rx="17.8609" ry="6.54901" fill="#FECE72"/>
<path d="M211.304 119.855V119.456C211.046 119.438 210.796 119.395 210.555 119.328C210.314 119.258 210.101 119.163 209.915 119.044C209.73 118.922 209.593 118.774 209.503 118.6L210.294 118.426C210.361 118.56 210.485 118.681 210.664 118.788C210.85 118.895 211.063 118.963 211.304 118.994V117.977L211.279 117.968C210.83 117.876 210.46 117.757 210.168 117.611C209.876 117.461 209.73 117.27 209.73 117.038C209.73 116.901 209.792 116.771 209.915 116.649C210.044 116.527 210.227 116.426 210.462 116.347C210.698 116.264 210.979 116.216 211.304 116.2V115.806H211.977V116.209C212.269 116.234 212.513 116.281 212.71 116.351C212.912 116.419 213.069 116.496 213.181 116.585C213.299 116.674 213.38 116.757 213.425 116.837L212.651 117.02C212.606 116.953 212.527 116.886 212.415 116.819C212.309 116.751 212.163 116.701 211.977 116.667V117.629C212.28 117.696 212.55 117.771 212.785 117.854C213.021 117.933 213.206 118.029 213.341 118.142C213.481 118.252 213.551 118.389 213.551 118.554C213.551 118.734 213.476 118.887 213.324 119.012C213.178 119.137 212.985 119.237 212.743 119.31C212.508 119.383 212.252 119.43 211.977 119.452V119.855H211.304ZM210.597 117.038C210.597 117.136 210.656 117.218 210.774 117.286C210.897 117.35 211.074 117.412 211.304 117.473V116.649C211.097 116.674 210.925 116.721 210.791 116.791C210.662 116.861 210.597 116.944 210.597 117.038ZM212.676 118.559C212.676 118.455 212.614 118.371 212.491 118.307C212.373 118.243 212.202 118.182 211.977 118.124V118.989C212.179 118.962 212.345 118.911 212.474 118.838C212.609 118.765 212.676 118.672 212.676 118.559Z" fill="#AA7A1E"/>
<path d="M211.845 122.566C221.709 122.566 229.706 119.634 229.706 116.017V113.636H193.984V116.017C193.984 119.634 201.98 122.566 211.845 122.566Z" fill="#E1B155"/>
<ellipse cx="211.845" cy="112.804" rx="17.8609" ry="6.54901" fill="#FECE72"/>
<path d="M211.304 114.868V114.47C211.046 114.451 210.796 114.409 210.555 114.341C210.314 114.271 210.101 114.177 209.915 114.057C209.73 113.935 209.593 113.787 209.503 113.613L210.294 113.439C210.361 113.574 210.485 113.694 210.664 113.801C210.85 113.908 211.063 113.977 211.304 114.007V112.99L211.279 112.981C210.83 112.89 210.46 112.771 210.168 112.624C209.876 112.474 209.73 112.284 209.73 112.052C209.73 111.914 209.792 111.784 209.915 111.662C210.044 111.54 210.227 111.439 210.462 111.36C210.698 111.278 210.979 111.229 211.304 111.213V110.82H211.977V111.223C212.269 111.247 212.513 111.294 212.71 111.365C212.912 111.432 213.069 111.51 213.181 111.598C213.299 111.687 213.38 111.771 213.425 111.85L212.651 112.033C212.606 111.966 212.527 111.899 212.415 111.832C212.309 111.765 212.163 111.714 211.977 111.681V112.642C212.28 112.71 212.55 112.784 212.785 112.867C213.021 112.946 213.206 113.042 213.341 113.155C213.481 113.265 213.551 113.403 213.551 113.567C213.551 113.748 213.476 113.9 213.324 114.025C213.178 114.151 212.985 114.25 212.743 114.323C212.508 114.396 212.252 114.444 211.977 114.465V114.868H211.304ZM210.597 112.052C210.597 112.149 210.656 112.232 210.774 112.299C210.897 112.363 211.074 112.426 211.304 112.487V111.662C211.097 111.687 210.925 111.734 210.791 111.804C210.662 111.874 210.597 111.957 210.597 112.052ZM212.676 113.572C212.676 113.468 212.614 113.384 212.491 113.32C212.373 113.256 212.202 113.195 211.977 113.137V114.003C212.179 113.975 212.345 113.925 212.474 113.851C212.609 113.778 212.676 113.685 212.676 113.572Z" fill="#AA7A1E"/>
<path d="M226.649 112.804C226.649 113.26 226.384 113.792 225.68 114.368C224.982 114.94 223.929 115.485 222.57 115.955C219.857 116.895 216.065 117.488 211.845 117.488C207.625 117.488 203.833 116.895 201.12 115.955C199.76 115.485 198.708 114.94 198.009 114.368C197.305 113.792 197.04 113.26 197.04 112.804C197.04 112.349 197.305 111.817 198.009 111.241C198.708 110.669 199.76 110.124 201.12 109.653C203.833 108.714 207.625 108.121 211.845 108.121C216.065 108.121 219.857 108.714 222.57 109.653C223.929 110.124 224.982 110.669 225.68 111.241C226.384 111.817 226.649 112.349 226.649 112.804Z" stroke="#E1B155" stroke-width="1.34949"/>
</g>
</g>
<defs>
<filter id="filter0_d_413_2382" x="42.7019" y="4.02645" width="236.04" height="169.596" filterUnits="userSpaceOnUse" color-interpolation-filters="sRGB">
<feFlood flood-opacity="0" result="BackgroundImageFix"/>
<feColorMatrix in="SourceAlpha" type="matrix" values="0 0 0 0 0 0 0 0 0 0 0 0 0 0 0 0 0 0 127 0" result="hardAlpha"/>
<feOffset dy="3.32452"/>
<feGaussianBlur stdDeviation="6.64903"/>
<feComposite in2="hardAlpha" operator="out"/>
<feColorMatrix type="matrix" values="0 0 0 0 0 0 0 0 0 0 0 0 0 0 0 0 0 0 0.15 0"/>
<feBlend mode="normal" in2="BackgroundImageFix" result="effect1_dropShadow_413_2382"/>
<feBlend mode="normal" in="SourceGraphic" in2="effect1_dropShadow_413_2382" result="shape"/>
</filter>
<clipPath id="clip0_413_2382">
<rect width="343" height="123" fill="white"/>
</clipPath>
</defs>
</svg>
