<?xml version="1.0" encoding="UTF-8"?>
<svg width="48px" height="53px" viewBox="0 0 48 53" version="1.1" xmlns="http://www.w3.org/2000/svg" xmlns:xlink="http://www.w3.org/1999/xlink">
    <!-- Generator: Sketch 52.5 (67469) - http://www.bohemiancoding.com/sketch -->
    <title>analytics</title>
    <desc>Created with Sketch.</desc>
    <g id="Page-1" stroke="none" stroke-width="1" fill="none" fill-rule="evenodd">
        <g id="analytics">
            <path d="M47.9999331,46.3763718 C48.0083927,48.2665575 47.2147506,50.0695235 45.8204959,51.327534 C44.4262413,52.5855445 42.5654651,53.1776117 40.71058,52.9534218 C37.3709977,52.4580673 34.9214534,49.5195774 35.0019264,46.1052822 L35.0019264,6.89113315 C34.9250484,3.47484623 37.3789498,0.537328292 40.7208844,0.0450788354 C42.5739684,-0.175185101 44.4315035,0.418591722 45.8232095,1.67608025 C47.2149155,2.93356878 48.0073661,4.73421041 47.9999331,6.62212888 L47.9999331,46.3763718 Z" id="Path" fill="#F9AB00"></path>
            <path d="M6.5,40.0020671 C8.22262448,40.0004241 9.87531633,40.6843861 11.0943622,41.9034315 C12.3134081,43.1224768 12.9989074,44.7767048 13,46.5020641 C12.998361,48.2270657 12.3126206,49.8807634 11.093634,51.0993624 C9.87464738,52.3179614 8.22226769,53.0016402 6.5,52.999997 C4.77773231,53.0016402 3.12535262,52.3179614 1.90636599,51.0993624 C0.687379359,49.8807634 0.00163895381,48.2270657 0,46.5020641 C0.000546023892,44.7763471 0.685804082,43.1215887 1.90490926,41.9020969 C3.12401445,40.6826052 4.77701861,39.9983598 6.5,40.000003 L6.5,40.0020671 Z" id="Path" fill="#E37400" fill-rule="nonzero"></path>
            <path d="M24.3477157,20.0020863 C20.7288351,20.1994611 17.9193407,23.2577067 18.0017681,26.909901 L18.0017681,44.5539325 C18.0017681,49.3441295 20.0943164,52.2503771 23.1617314,52.8679286 C25.0861227,53.2621882 27.0843982,52.763442 28.6039437,51.5096161 C30.1234892,50.2557902 31.0032715,48.379758 30.9999909,46.4003281 L30.9999909,26.6052978 C31.0021879,24.8549545 30.3142028,23.1754818 29.0875007,21.9366278 C27.8607986,20.6977738 26.1959501,20.0011057 24.4594839,20 L24.3477157,20.0020863 Z" id="Path" fill="#E37400" fill-rule="nonzero"></path>
        </g>
    </g>
</svg>