<svg width="190" height="142" viewBox="0 0 190 142" fill="none" xmlns="http://www.w3.org/2000/svg">
<path d="M11.7551 110.799C13.1667 112.284 14.6557 113.651 16.2125 114.894C31.17 126.859 43.5277 126.84 60.6364 124.656C76.498 122.631 78.498 113.733 95.998 113.733C113.498 113.733 121.663 120.113 141.998 118.733C162.333 117.353 180.079 94.9718 186.755 76.9588C196.588 50.4306 182.236 19.3627 161.935 10.8627C143.236 2.3627 130.498 10.8736 110.498 7.23291C84.998 2.59098 79.998 -4.05119 60.6364 4C40.1061 12.7013 40.1809 27.5328 27.937 42.6669C18.9738 53.7472 4.95559 56.3117 0.733668 76.9587C-1.93883 90.0285 3.81121 102.426 11.7551 110.799Z" fill="#F3F5F7"/>
<g style="mix-blend-mode:multiply" opacity="0.1">
<path d="M96.0703 141.772C135.835 141.772 168.07 139.758 168.07 137.272C168.07 134.787 135.835 132.772 96.0703 132.772C56.3058 132.772 24.0703 134.787 24.0703 137.272C24.0703 139.758 56.3058 141.772 96.0703 141.772Z" fill="#161B18"/>
</g>
<path d="M96.0703 141.772C135.835 141.772 168.07 139.758 168.07 137.272C168.07 134.787 135.835 132.772 96.0703 132.772C56.3058 132.772 24.0703 134.787 24.0703 137.272C24.0703 139.758 56.3058 141.772 96.0703 141.772Z" fill="#CBD0D3"/>
<path d="M72.6571 62.8262C74.7978 70.7659 82.2467 76.3791 90.1449 78.6734C98.0431 80.9678 106.44 80.5192 114.655 80.1084C118.538 79.9157 122.51 79.7451 126.231 80.8718C129.951 81.9985 133.433 84.693 134.422 88.4516C134.99 90.6121 134.569 92.9421 133.463 94.8763" stroke="#161B18" stroke-width="1.7" stroke-linecap="round" stroke-linejoin="round"/>
<path d="M57.3061 76.3477C56.0693 95.9303 49.2531 113.498 53.8094 135.572H48.6211" stroke="#161B18" stroke-width="1.70517" stroke-linecap="round" stroke-linejoin="round"/>
<path d="M63.171 135.572H57.9805L67.1543 76.3477" stroke="#161B18" stroke-width="1.70517" stroke-linecap="round" stroke-linejoin="round"/>
<path d="M40.7539 70.1738C36.3252 72.1738 27.8247 76.629 27.8252 85.6738" stroke="black" stroke-width="1.7" stroke-linecap="round"/>
<path d="M76.8038 102.64L73.2024 102.967L51.2262 104.955L38.3806 106.115L37.1619 77.4985L35.043 27.6989L75.135 26.2393L75.9444 63.327L76.0535 68.3195L76.7992 102.524L76.8038 102.64Z" fill="#CBD0D3"/>
<path d="M73.2033 102.967L75.27 102.779L76.8069 102.64L75.1359 26.2368L72.8328 26.342L74.0723 98.7725L38.2109 102.165L38.336 105.017L38.3837 106.112L51.2294 104.953L73.2056 102.964L73.2033 102.967Z" fill="#999F9B"/>
<path d="M27.8271 85.674C27.8274 90.9383 33.8165 94.7336 38.0886 92.8773" stroke="black" stroke-width="1.7" stroke-linecap="round"/>
<path d="M145.07 26.7725L117.07 135.272" stroke="#7B807D" stroke-width="4.39346" stroke-miterlimit="10" stroke-linecap="round"/>
<path d="M143.121 18.3742L101.519 60.2198C100.975 60.7668 100.585 61.4472 100.388 62.1927C100.191 62.9382 100.194 63.7225 100.395 64.4667C100.597 65.2109 100.992 65.8889 101.539 66.4324C102.086 66.976 102.766 67.3661 103.511 67.5634L160.549 82.6682C161.295 82.8659 162.08 82.8636 162.825 82.6615C163.57 82.4594 164.248 82.0647 164.792 81.5171C165.336 80.9695 165.726 80.2883 165.923 79.5421C166.12 78.7959 166.117 78.011 165.914 77.2664L150.475 20.3227C150.273 19.5786 149.879 18.9008 149.332 18.3572C148.786 17.8137 148.105 17.4236 147.36 17.2261C146.615 17.0287 145.831 17.0308 145.087 17.2323C144.342 17.4339 143.664 17.8277 143.121 18.3742Z" fill="#E77D5B"/>
<path d="M138.137 42.5559L140.577 33.3397L145.333 34.5992L142.893 43.8154L139.392 54.9778L135.612 53.977L138.137 42.5559ZM134.836 64.6336C133.93 64.3937 133.234 63.8761 132.748 63.0807C132.297 62.2646 132.192 61.4035 132.432 60.4974C132.672 59.5914 133.185 58.9094 133.973 58.4514C134.789 58.0009 135.651 57.8956 136.557 58.1355C137.463 58.3754 138.145 58.8893 138.603 59.6771C139.061 60.4649 139.17 61.3119 138.93 62.2179C138.69 63.124 138.172 63.8202 137.377 64.3065C136.589 64.7644 135.742 64.8735 134.836 64.6336Z" fill="#962C0A"/>
<path d="M133.461 94.8757C132.452 96.6496 130.828 97.9923 128.896 98.6498C124.833 100.04 119.883 97.8308 118.202 93.8802" stroke="#161B18" stroke-width="1.7" stroke-linecap="round" stroke-linejoin="round"/>
</svg>
