<svg width="296" height="163" viewBox="0 0 296 163" fill="none" xmlns="http://www.w3.org/2000/svg">
<g clip-path="url(#clip0_50_9707)">
<path d="M0 16C0 7.16344 7.16344 0 16 0H280C288.837 0 296 7.16344 296 16V163H0V16Z" fill="#B8E6CA"/>
<g filter="url(#filter0_d_50_9707)">
<rect x="22" y="30" width="252" height="172.055" rx="13.7639" fill="white"/>
<rect x="36" y="65" width="224" height="47" rx="5.16145" fill="#DCE8FF"/>
<rect x="43" y="145" width="30" height="3" rx="1.5" fill="#9BB8F0"/>
<rect x="43" y="151" width="40" height="3" rx="1.5" fill="#9BB8F0"/>
<path d="M168.539 90.8571L188 112H107L136.455 80L157.494 102.857L168.539 90.8571Z" fill="#9BB8F0"/>
<path d="M22 43.7639C22 36.1623 28.1623 30 35.7639 30H260.236C267.838 30 274 36.1623 274 43.7639V50.8552H22V43.7639Z" fill="#EBEEF0"/>
<rect x="32.4274" y="36.9515" width="6.95172" height="6.95172" rx="3.47586" fill="#CBD0D3"/>
<rect x="42.8551" y="36.9515" width="6.95172" height="6.95172" rx="3.47586" fill="#CBD0D3"/>
<rect x="36" y="122" width="59" height="55" rx="5.45745" fill="#EBEEF0"/>
<rect x="107" y="122" width="54" height="10" rx="5" fill="#EBEEF0"/>
<rect x="107" y="141" width="153" height="5" rx="2.5" fill="#EBEEF0"/>
<rect x="107" y="154" width="153" height="5" rx="2.5" fill="#EBEEF0"/>
<path d="M238.51 171.625C250.378 171.625 260 168.097 260 163.745V160.88H217.02V163.745C217.02 168.097 226.641 171.625 238.51 171.625Z" fill="#E1B155"/>
<ellipse cx="238.51" cy="159.88" rx="21.49" ry="7.87965" fill="#FECE72"/>
<path d="M237.859 162.363V161.883C237.549 161.861 237.248 161.81 236.958 161.729C236.668 161.645 236.411 161.531 236.188 161.387C235.966 161.241 235.8 161.062 235.692 160.853L236.644 160.644C236.725 160.805 236.874 160.95 237.09 161.079C237.312 161.207 237.569 161.29 237.859 161.327V160.104L237.829 160.093C237.289 159.982 236.843 159.839 236.492 159.663C236.141 159.483 235.966 159.253 235.966 158.974C235.966 158.809 236.04 158.653 236.188 158.506C236.344 158.359 236.563 158.237 236.847 158.142C237.13 158.043 237.468 157.984 237.859 157.966V157.492H238.669V157.977C239.021 158.006 239.314 158.063 239.551 158.147C239.794 158.228 239.983 158.322 240.118 158.428C240.259 158.535 240.357 158.636 240.411 158.732L239.48 158.952C239.426 158.871 239.331 158.79 239.196 158.709C239.068 158.629 238.892 158.568 238.669 158.528V159.685C239.034 159.766 239.358 159.856 239.642 159.955C239.925 160.05 240.148 160.166 240.31 160.302C240.479 160.434 240.563 160.6 240.563 160.798C240.563 161.015 240.472 161.198 240.29 161.349C240.114 161.5 239.881 161.619 239.591 161.707C239.307 161.795 239 161.852 238.669 161.878V162.363H237.859ZM237.009 158.974C237.009 159.092 237.08 159.191 237.221 159.272C237.37 159.349 237.583 159.424 237.859 159.497V158.506C237.61 158.535 237.404 158.592 237.242 158.676C237.086 158.761 237.009 158.86 237.009 158.974ZM239.51 160.803C239.51 160.678 239.436 160.577 239.287 160.5C239.145 160.423 238.94 160.35 238.669 160.28V161.321C238.913 161.288 239.112 161.228 239.267 161.14C239.429 161.051 239.51 160.939 239.51 160.803Z" fill="#AA7A1E"/>
<path d="M238.51 165.625C250.378 165.625 260 162.097 260 157.745V154.88H217.02V157.745C217.02 162.097 226.641 165.625 238.51 165.625Z" fill="#E1B155"/>
<ellipse cx="238.51" cy="153.88" rx="21.49" ry="7.87965" fill="#FECE72"/>
<path d="M237.859 156.363V155.883C237.549 155.861 237.248 155.81 236.958 155.729C236.668 155.645 236.411 155.531 236.188 155.387C235.966 155.241 235.8 155.062 235.692 154.853L236.644 154.644C236.725 154.805 236.874 154.95 237.09 155.079C237.312 155.207 237.569 155.29 237.859 155.327V154.104L237.829 154.093C237.289 153.982 236.843 153.839 236.492 153.663C236.141 153.483 235.966 153.253 235.966 152.974C235.966 152.809 236.04 152.653 236.188 152.506C236.344 152.359 236.563 152.237 236.847 152.142C237.13 152.043 237.468 151.984 237.859 151.966V151.492H238.669V151.977C239.021 152.006 239.314 152.063 239.551 152.147C239.794 152.228 239.983 152.322 240.118 152.428C240.259 152.535 240.357 152.636 240.411 152.732L239.48 152.952C239.426 152.871 239.331 152.79 239.196 152.709C239.068 152.629 238.892 152.568 238.669 152.528V153.685C239.034 153.766 239.358 153.856 239.642 153.955C239.925 154.05 240.148 154.166 240.31 154.302C240.479 154.434 240.563 154.6 240.563 154.798C240.563 155.015 240.472 155.198 240.29 155.349C240.114 155.5 239.881 155.619 239.591 155.707C239.307 155.795 239 155.852 238.669 155.878V156.363H237.859ZM237.009 152.974C237.009 153.092 237.08 153.191 237.221 153.272C237.37 153.349 237.583 153.424 237.859 153.497V152.506C237.61 152.535 237.404 152.592 237.242 152.676C237.086 152.761 237.009 152.86 237.009 152.974ZM239.51 154.803C239.51 154.678 239.436 154.577 239.287 154.5C239.145 154.423 238.94 154.35 238.669 154.28V155.321C238.913 155.288 239.112 155.228 239.267 155.14C239.429 155.051 239.51 154.939 239.51 154.803Z" fill="#AA7A1E"/>
<path d="M238.51 159.625C250.378 159.625 260 156.097 260 151.745V148.88H217.02V151.745C217.02 156.097 226.641 159.625 238.51 159.625Z" fill="#E1B155"/>
<ellipse cx="238.51" cy="147.88" rx="21.49" ry="7.87965" fill="#FECE72"/>
<path d="M237.859 150.363V149.883C237.549 149.861 237.248 149.81 236.958 149.729C236.668 149.645 236.411 149.531 236.188 149.387C235.966 149.241 235.8 149.062 235.692 148.853L236.644 148.644C236.725 148.805 236.874 148.95 237.09 149.079C237.312 149.207 237.569 149.29 237.859 149.327V148.104L237.829 148.093C237.289 147.982 236.843 147.839 236.492 147.663C236.141 147.483 235.966 147.253 235.966 146.974C235.966 146.809 236.04 146.653 236.188 146.506C236.344 146.359 236.563 146.237 236.847 146.142C237.13 146.043 237.468 145.984 237.859 145.966V145.492H238.669V145.977C239.021 146.006 239.314 146.063 239.551 146.147C239.794 146.228 239.983 146.322 240.118 146.428C240.259 146.535 240.357 146.636 240.411 146.732L239.48 146.952C239.426 146.871 239.331 146.79 239.196 146.709C239.068 146.629 238.892 146.568 238.669 146.528V147.685C239.034 147.766 239.358 147.856 239.642 147.955C239.925 148.05 240.148 148.166 240.31 148.302C240.479 148.434 240.563 148.6 240.563 148.798C240.563 149.015 240.472 149.198 240.29 149.349C240.114 149.5 239.881 149.619 239.591 149.707C239.307 149.795 239 149.852 238.669 149.878V150.363H237.859ZM237.009 146.974C237.009 147.092 237.08 147.191 237.221 147.272C237.37 147.349 237.583 147.424 237.859 147.497V146.506C237.61 146.535 237.404 146.592 237.242 146.676C237.086 146.761 237.009 146.86 237.009 146.974ZM239.51 148.803C239.51 148.678 239.436 148.577 239.287 148.5C239.145 148.423 238.94 148.35 238.669 148.28V149.321C238.913 149.288 239.112 149.228 239.267 149.14C239.429 149.051 239.51 148.939 239.51 148.803Z" fill="#AA7A1E"/>
<path d="M238.51 153.625C250.378 153.625 260 150.097 260 145.745V142.88H217.02V145.745C217.02 150.097 226.641 153.625 238.51 153.625Z" fill="#E1B155"/>
<ellipse cx="238.51" cy="141.88" rx="21.49" ry="7.87965" fill="#FECE72"/>
<path d="M237.859 144.363V143.883C237.549 143.861 237.248 143.81 236.958 143.729C236.668 143.645 236.411 143.531 236.188 143.387C235.966 143.241 235.8 143.062 235.692 142.853L236.644 142.644C236.725 142.805 236.874 142.95 237.09 143.079C237.312 143.207 237.569 143.29 237.859 143.327V142.104L237.829 142.093C237.289 141.982 236.843 141.839 236.492 141.663C236.141 141.483 235.966 141.253 235.966 140.974C235.966 140.809 236.04 140.653 236.188 140.506C236.344 140.359 236.563 140.237 236.847 140.142C237.13 140.043 237.468 139.984 237.859 139.966V139.492H238.669V139.977C239.021 140.006 239.314 140.063 239.551 140.147C239.794 140.228 239.983 140.322 240.118 140.428C240.259 140.535 240.357 140.636 240.411 140.732L239.48 140.952C239.426 140.871 239.331 140.79 239.196 140.709C239.068 140.629 238.892 140.568 238.669 140.528V141.685C239.034 141.766 239.358 141.856 239.642 141.955C239.925 142.05 240.148 142.166 240.31 142.302C240.479 142.434 240.563 142.6 240.563 142.798C240.563 143.015 240.472 143.198 240.29 143.349C240.114 143.5 239.881 143.619 239.591 143.707C239.307 143.795 239 143.852 238.669 143.878V144.363H237.859ZM237.009 140.974C237.009 141.092 237.08 141.191 237.221 141.272C237.37 141.349 237.583 141.424 237.859 141.497V140.506C237.61 140.535 237.404 140.592 237.242 140.676C237.086 140.761 237.009 140.86 237.009 140.974ZM239.51 142.803C239.51 142.678 239.436 142.577 239.287 142.5C239.145 142.423 238.94 142.35 238.669 142.28V143.321C238.913 143.288 239.112 143.228 239.267 143.14C239.429 143.051 239.51 142.939 239.51 142.803Z" fill="#AA7A1E"/>
<path d="M238.51 147.625C250.378 147.625 260 144.097 260 139.745V136.88H217.02V139.745C217.02 144.097 226.641 147.625 238.51 147.625Z" fill="#E1B155"/>
<ellipse cx="238.51" cy="135.88" rx="21.49" ry="7.87965" fill="#FECE72"/>
<path d="M237.859 138.363V137.883C237.549 137.861 237.248 137.81 236.958 137.729C236.668 137.645 236.411 137.531 236.188 137.387C235.966 137.241 235.8 137.062 235.692 136.853L236.644 136.644C236.725 136.805 236.874 136.95 237.09 137.079C237.312 137.207 237.569 137.29 237.859 137.327V136.104L237.829 136.093C237.289 135.982 236.843 135.839 236.492 135.663C236.141 135.483 235.966 135.253 235.966 134.974C235.966 134.809 236.04 134.653 236.188 134.506C236.344 134.359 236.563 134.237 236.847 134.142C237.13 134.043 237.468 133.984 237.859 133.966V133.492H238.669V133.977C239.021 134.006 239.314 134.063 239.551 134.147C239.794 134.228 239.983 134.322 240.118 134.428C240.259 134.535 240.357 134.636 240.411 134.732L239.48 134.952C239.426 134.871 239.331 134.79 239.196 134.709C239.068 134.629 238.892 134.568 238.669 134.528V135.685C239.034 135.766 239.358 135.856 239.642 135.955C239.925 136.05 240.148 136.166 240.31 136.302C240.479 136.434 240.563 136.6 240.563 136.798C240.563 137.015 240.472 137.198 240.29 137.349C240.114 137.5 239.881 137.619 239.591 137.707C239.307 137.795 239 137.852 238.669 137.878V138.363H237.859ZM237.009 134.974C237.009 135.092 237.08 135.191 237.221 135.272C237.37 135.349 237.583 135.424 237.859 135.497V134.506C237.61 134.535 237.404 134.592 237.242 134.676C237.086 134.761 237.009 134.86 237.009 134.974ZM239.51 136.803C239.51 136.678 239.436 136.577 239.287 136.5C239.145 136.423 238.94 136.35 238.669 136.28V137.321C238.913 137.288 239.112 137.228 239.267 137.14C239.429 137.051 239.51 136.939 239.51 136.803Z" fill="#AA7A1E"/>
<path d="M238.51 141.625C250.378 141.625 260 138.097 260 133.745V130.88H217.02V133.745C217.02 138.097 226.641 141.625 238.51 141.625Z" fill="#E1B155"/>
<ellipse cx="238.51" cy="129.88" rx="21.49" ry="7.87965" fill="#FECE72"/>
<path d="M237.859 132.363V131.883C237.549 131.861 237.248 131.81 236.958 131.729C236.668 131.645 236.411 131.531 236.188 131.387C235.966 131.241 235.8 131.062 235.692 130.853L236.644 130.644C236.725 130.805 236.874 130.95 237.09 131.079C237.312 131.207 237.569 131.29 237.859 131.327V130.104L237.829 130.093C237.289 129.982 236.843 129.839 236.492 129.663C236.141 129.483 235.966 129.253 235.966 128.974C235.966 128.809 236.04 128.653 236.188 128.506C236.344 128.359 236.563 128.237 236.847 128.142C237.13 128.043 237.468 127.984 237.859 127.966V127.492H238.669V127.977C239.021 128.006 239.314 128.063 239.551 128.147C239.794 128.228 239.983 128.322 240.118 128.428C240.259 128.535 240.357 128.636 240.411 128.732L239.48 128.952C239.426 128.871 239.331 128.79 239.196 128.709C239.068 128.629 238.892 128.568 238.669 128.528V129.685C239.034 129.766 239.358 129.856 239.642 129.955C239.925 130.05 240.148 130.166 240.31 130.302C240.479 130.434 240.563 130.6 240.563 130.798C240.563 131.015 240.472 131.198 240.29 131.349C240.114 131.5 239.881 131.619 239.591 131.707C239.307 131.795 239 131.852 238.669 131.878V132.363H237.859ZM237.009 128.974C237.009 129.092 237.08 129.191 237.221 129.272C237.37 129.349 237.583 129.424 237.859 129.497V128.506C237.61 128.535 237.404 128.592 237.242 128.676C237.086 128.761 237.009 128.86 237.009 128.974ZM239.51 130.803C239.51 130.678 239.436 130.577 239.287 130.5C239.145 130.423 238.94 130.35 238.669 130.28V131.321C238.913 131.288 239.112 131.228 239.267 131.14C239.429 131.051 239.51 130.939 239.51 130.803Z" fill="#AA7A1E"/>
<path d="M256.323 129.88C256.323 130.427 256.004 131.068 255.157 131.761C254.316 132.449 253.05 133.105 251.414 133.671C248.15 134.801 243.587 135.515 238.51 135.515C233.432 135.515 228.87 134.801 225.606 133.671C223.97 133.105 222.704 132.449 221.863 131.761C221.016 131.068 220.697 130.427 220.697 129.88C220.697 129.332 221.016 128.691 221.863 127.998C222.704 127.31 223.97 126.654 225.606 126.088C228.87 124.958 233.432 124.244 238.51 124.244C243.587 124.244 248.15 124.958 251.414 126.088C253.05 126.654 254.316 127.31 255.157 127.998C256.004 128.691 256.323 129.332 256.323 129.88Z" stroke="#E1B155" stroke-width="1.62369"/>
<ellipse cx="209.51" cy="166.88" rx="21.49" ry="7.87965" fill="#FECE72"/>
<path d="M209.51 172.625C221.378 172.625 231 169.097 231 164.745V161.88H188.02V164.745C188.02 169.097 197.641 172.625 209.51 172.625Z" fill="#E1B155"/>
<ellipse cx="209.51" cy="160.88" rx="21.49" ry="7.87965" fill="#FECE72"/>
<path d="M208.859 163.363V162.883C208.549 162.861 208.248 162.81 207.958 162.729C207.668 162.645 207.411 162.531 207.188 162.387C206.966 162.241 206.8 162.062 206.692 161.853L207.644 161.644C207.725 161.805 207.874 161.95 208.09 162.079C208.312 162.207 208.569 162.29 208.859 162.327V161.104L208.829 161.093C208.289 160.982 207.843 160.839 207.492 160.663C207.141 160.483 206.966 160.253 206.966 159.974C206.966 159.809 207.04 159.653 207.188 159.506C207.344 159.359 207.563 159.237 207.847 159.142C208.13 159.043 208.468 158.984 208.859 158.966V158.492H209.669V158.977C210.021 159.006 210.314 159.063 210.551 159.147C210.794 159.228 210.983 159.322 211.118 159.428C211.259 159.535 211.357 159.636 211.411 159.732L210.48 159.952C210.426 159.871 210.331 159.79 210.196 159.709C210.068 159.629 209.892 159.568 209.669 159.528V160.685C210.034 160.766 210.358 160.856 210.642 160.955C210.925 161.05 211.148 161.166 211.31 161.302C211.479 161.434 211.563 161.6 211.563 161.798C211.563 162.015 211.472 162.198 211.29 162.349C211.114 162.5 210.881 162.619 210.591 162.707C210.307 162.795 210 162.852 209.669 162.878V163.363H208.859ZM208.009 159.974C208.009 160.092 208.08 160.191 208.221 160.272C208.37 160.349 208.583 160.424 208.859 160.497V159.506C208.61 159.535 208.404 159.592 208.242 159.676C208.086 159.761 208.009 159.86 208.009 159.974ZM210.51 161.803C210.51 161.678 210.436 161.577 210.287 161.5C210.145 161.423 209.94 161.35 209.669 161.28V162.321C209.913 162.288 210.112 162.228 210.267 162.14C210.429 162.051 210.51 161.939 210.51 161.803Z" fill="#AA7A1E"/>
<path d="M209.51 166.625C221.378 166.625 231 163.097 231 158.745V155.88H188.02V158.745C188.02 163.097 197.641 166.625 209.51 166.625Z" fill="#E1B155"/>
<ellipse cx="209.51" cy="154.88" rx="21.49" ry="7.87965" fill="#FECE72"/>
<path d="M208.859 157.363V156.883C208.549 156.861 208.248 156.81 207.958 156.729C207.668 156.645 207.411 156.531 207.188 156.387C206.966 156.241 206.8 156.062 206.692 155.853L207.644 155.644C207.725 155.805 207.874 155.95 208.09 156.079C208.312 156.207 208.569 156.29 208.859 156.327V155.104L208.829 155.093C208.289 154.982 207.843 154.839 207.492 154.663C207.141 154.483 206.966 154.253 206.966 153.974C206.966 153.809 207.04 153.653 207.188 153.506C207.344 153.359 207.563 153.237 207.847 153.142C208.13 153.043 208.468 152.984 208.859 152.966V152.492H209.669V152.977C210.021 153.006 210.314 153.063 210.551 153.147C210.794 153.228 210.983 153.322 211.118 153.428C211.259 153.535 211.357 153.636 211.411 153.732L210.48 153.952C210.426 153.871 210.331 153.79 210.196 153.709C210.068 153.629 209.892 153.568 209.669 153.528V154.685C210.034 154.766 210.358 154.856 210.642 154.955C210.925 155.05 211.148 155.166 211.31 155.302C211.479 155.434 211.563 155.6 211.563 155.798C211.563 156.015 211.472 156.198 211.29 156.349C211.114 156.5 210.881 156.619 210.591 156.707C210.307 156.795 210 156.852 209.669 156.878V157.363H208.859ZM208.009 153.974C208.009 154.092 208.08 154.191 208.221 154.272C208.37 154.349 208.583 154.424 208.859 154.497V153.506C208.61 153.535 208.404 153.592 208.242 153.676C208.086 153.761 208.009 153.86 208.009 153.974ZM210.51 155.803C210.51 155.678 210.436 155.577 210.287 155.5C210.145 155.423 209.94 155.35 209.669 155.28V156.321C209.913 156.288 210.112 156.228 210.267 156.14C210.429 156.051 210.51 155.939 210.51 155.803Z" fill="#AA7A1E"/>
<path d="M209.51 160.625C221.378 160.625 231 157.097 231 152.745V149.88H188.02V152.745C188.02 157.097 197.641 160.625 209.51 160.625Z" fill="#E1B155"/>
<ellipse cx="209.51" cy="148.88" rx="21.49" ry="7.87965" fill="#FECE72"/>
<path d="M208.859 151.363V150.883C208.549 150.861 208.248 150.81 207.958 150.729C207.668 150.645 207.411 150.531 207.188 150.387C206.966 150.241 206.8 150.062 206.692 149.853L207.644 149.644C207.725 149.805 207.874 149.95 208.09 150.079C208.312 150.207 208.569 150.29 208.859 150.327V149.104L208.829 149.093C208.289 148.982 207.843 148.839 207.492 148.663C207.141 148.483 206.966 148.253 206.966 147.974C206.966 147.809 207.04 147.653 207.188 147.506C207.344 147.359 207.563 147.237 207.847 147.142C208.13 147.043 208.468 146.984 208.859 146.966V146.492H209.669V146.977C210.021 147.006 210.314 147.063 210.551 147.147C210.794 147.228 210.983 147.322 211.118 147.428C211.259 147.535 211.357 147.636 211.411 147.732L210.48 147.952C210.426 147.871 210.331 147.79 210.196 147.709C210.068 147.629 209.892 147.568 209.669 147.528V148.685C210.034 148.766 210.358 148.856 210.642 148.955C210.925 149.05 211.148 149.166 211.31 149.302C211.479 149.434 211.563 149.6 211.563 149.798C211.563 150.015 211.472 150.198 211.29 150.349C211.114 150.5 210.881 150.619 210.591 150.707C210.307 150.795 210 150.852 209.669 150.878V151.363H208.859ZM208.009 147.974C208.009 148.092 208.08 148.191 208.221 148.272C208.37 148.349 208.583 148.424 208.859 148.497V147.506C208.61 147.535 208.404 147.592 208.242 147.676C208.086 147.761 208.009 147.86 208.009 147.974ZM210.51 149.803C210.51 149.678 210.436 149.577 210.287 149.5C210.145 149.423 209.94 149.35 209.669 149.28V150.321C209.913 150.288 210.112 150.228 210.267 150.14C210.429 150.051 210.51 149.939 210.51 149.803Z" fill="#AA7A1E"/>
<path d="M227.323 148.88C227.323 149.427 227.004 150.068 226.157 150.761C225.316 151.449 224.05 152.105 222.414 152.671C219.15 153.801 214.587 154.515 209.51 154.515C204.432 154.515 199.87 153.801 196.606 152.671C194.97 152.105 193.704 151.449 192.863 150.761C192.016 150.068 191.697 149.427 191.697 148.88C191.697 148.332 192.016 147.691 192.863 146.998C193.704 146.31 194.97 145.654 196.606 145.088C199.87 143.958 204.432 143.244 209.51 143.244C214.587 143.244 219.15 143.958 222.414 145.088C224.05 145.654 225.316 146.31 226.157 146.998C227.004 147.691 227.323 148.332 227.323 148.88Z" stroke="#E1B155" stroke-width="1.62369"/>
</g>
</g>
<defs>
<filter id="filter0_d_50_9707" x="6" y="18" width="284" height="204.055" filterUnits="userSpaceOnUse" color-interpolation-filters="sRGB">
<feFlood flood-opacity="0" result="BackgroundImageFix"/>
<feColorMatrix in="SourceAlpha" type="matrix" values="0 0 0 0 0 0 0 0 0 0 0 0 0 0 0 0 0 0 127 0" result="hardAlpha"/>
<feOffset dy="4"/>
<feGaussianBlur stdDeviation="8"/>
<feComposite in2="hardAlpha" operator="out"/>
<feColorMatrix type="matrix" values="0 0 0 0 0 0 0 0 0 0 0 0 0 0 0 0 0 0 0.15 0"/>
<feBlend mode="normal" in2="BackgroundImageFix" result="effect1_dropShadow_50_9707"/>
<feBlend mode="normal" in="SourceGraphic" in2="effect1_dropShadow_50_9707" result="shape"/>
</filter>
<clipPath id="clip0_50_9707">
<path d="M0 16C0 7.16344 7.16344 0 16 0H280C288.837 0 296 7.16344 296 16V163H0V16Z" fill="white"/>
</clipPath>
</defs>
</svg>
