<svg fill="none" xmlns="http://www.w3.org/2000/svg" viewBox="0 0 378 196"><g filter="url(#a)"><rect x="135" y="2" width="148" height="122" rx="3.976" fill="#fff"/></g><path d="M147.754 25.902v-7.98h1.939l2.118 5.607h.089l2.118-5.606h1.95v7.98h-1.494v-3.935l.09-1.326h-.09l-2.028 5.26h-1.17l-2.04-5.26h-.089l.089 1.326v3.934h-1.482Zm12.456.179c-.595 0-1.122-.13-1.583-.39a2.93 2.93 0 0 1-1.07-1.081 3.164 3.164 0 0 1-.379-1.55 3.1 3.1 0 0 1 .379-1.537c.26-.461.617-.822 1.07-1.082.461-.267.988-.4 1.583-.4.594 0 1.118.133 1.571.4a2.85 2.85 0 0 1 1.059 1.082c.26.453.39.965.39 1.537 0 .573-.13 1.089-.39 1.55a2.85 2.85 0 0 1-1.059 1.08c-.453.26-.977.39-1.571.39Zm0-1.36c.282 0 .538-.063.769-.19.237-.133.427-.323.568-.568.148-.252.223-.553.223-.903 0-.349-.075-.646-.223-.891a1.494 1.494 0 0 0-.568-.569 1.506 1.506 0 0 0-.769-.2 1.61 1.61 0 0 0-.781.2 1.573 1.573 0 0 0-.579.569c-.141.245-.212.542-.212.891 0 .35.071.65.212.903.148.245.342.435.579.569.246.126.506.189.781.189Zm6.244 1.36c-.49 0-.91-.07-1.259-.212a2.36 2.36 0 0 1-.836-.557 2.299 2.299 0 0 1-.479-.758l1.304-.569c.245.543.669.814 1.27.814.238 0 .454-.037.647-.111a.438.438 0 0 0 .29-.435.414.414 0 0 0-.156-.346.933.933 0 0 0-.368-.2 3.213 3.213 0 0 0-.457-.123l-.669-.145a2.524 2.524 0 0 1-.78-.312 2.04 2.04 0 0 1-.602-.58 1.508 1.508 0 0 1-.223-.813c0-.342.097-.639.29-.891.201-.253.468-.45.803-.591a2.916 2.916 0 0 1 1.125-.212c.565 0 1.048.1 1.449.301.401.2.702.513.903.936l-1.249.546a1.01 1.01 0 0 0-.468-.468 1.369 1.369 0 0 0-.601-.133c-.253 0-.454.048-.602.144-.149.097-.223.212-.223.346 0 .141.074.264.223.368.148.104.327.182.535.234l.836.2c.564.134.988.35 1.27.647.29.297.435.654.435 1.07 0 .371-.108.698-.323.98-.216.275-.506.49-.87.647a3.187 3.187 0 0 1-1.215.223Zm5.885-.09c-.587 0-1.048-.167-1.382-.501-.334-.342-.502-.81-.502-1.404v-2.62h-.991V20.22h.991v-1.605h1.46v1.605h1.393v1.248h-1.393v2.351c0 .26.056.46.168.602.111.134.297.2.557.2a.884.884 0 0 0 .368-.066 3.06 3.06 0 0 0 .345-.178v1.426c-.319.126-.658.19-1.014.19Zm4.751 2.319v-8.091h1.371v.69h.089c.141-.222.357-.423.647-.601.297-.179.65-.268 1.058-.268.521 0 .985.13 1.394.39.416.253.742.606.98 1.059.245.453.368.977.368 1.571 0 .595-.123 1.119-.368 1.572-.238.453-.564.81-.98 1.07a2.596 2.596 0 0 1-1.394.379c-.408 0-.761-.086-1.058-.257-.29-.178-.506-.379-.647-.602h-.089l.089.803v2.285h-1.46Zm2.909-3.578a1.481 1.481 0 0 0 1.326-.791 1.7 1.7 0 0 0 .223-.88c0-.342-.074-.636-.223-.881a1.488 1.488 0 0 0-.568-.568 1.464 1.464 0 0 0-1.516 0c-.23.133-.42.327-.568.58a1.714 1.714 0 0 0-.212.868c0 .335.071.628.212.88.148.246.338.44.568.58.238.142.491.212.758.212Zm6.842 1.349c-.594 0-1.121-.13-1.582-.39a2.93 2.93 0 0 1-1.07-1.081 3.164 3.164 0 0 1-.379-1.55 3.1 3.1 0 0 1 .379-1.537c.26-.461.617-.822 1.07-1.082.461-.267.988-.4 1.582-.4.595 0 1.119.133 1.572.4a2.85 2.85 0 0 1 1.059 1.082c.26.453.39.965.39 1.537 0 .573-.13 1.089-.39 1.55a2.85 2.85 0 0 1-1.059 1.08c-.453.26-.977.39-1.572.39Zm0-1.36c.283 0 .539-.063.769-.19a1.49 1.49 0 0 0 .569-.568c.148-.252.223-.553.223-.903 0-.349-.075-.646-.223-.891a1.49 1.49 0 0 0-.569-.569 1.604 1.604 0 0 0-1.549 0 1.573 1.573 0 0 0-.579.569c-.141.245-.212.542-.212.891 0 .35.071.65.212.903.148.245.342.435.579.569.245.126.505.189.78.189Zm4.039 3.589v-8.091h1.37v.69h.09c.141-.222.356-.423.646-.601.297-.179.65-.268 1.059-.268.52 0 .984.13 1.393.39.416.253.743.606.981 1.059.245.453.367.977.367 1.571 0 .595-.122 1.119-.367 1.572-.238.453-.565.81-.981 1.07a2.595 2.595 0 0 1-1.393.379c-.409 0-.762-.086-1.059-.257-.29-.178-.505-.379-.646-.602h-.09l.09.803v2.285h-1.46Zm2.908-3.578a1.481 1.481 0 0 0 1.327-.791 1.71 1.71 0 0 0 .223-.88c0-.342-.075-.636-.223-.881a1.49 1.49 0 0 0-.569-.568 1.457 1.457 0 0 0-1.515 0c-.231.133-.42.327-.569.58a1.714 1.714 0 0 0-.212.868c0 .335.071.628.212.88.149.246.338.44.569.58.237.142.49.212.757.212Zm6.12 1.349c-.699 0-1.223-.216-1.572-.647-.349-.43-.524-1.018-.524-1.76v-3.455h1.46v3.276c0 .386.093.691.279.914a.944.944 0 0 0 .736.323c.431 0 .765-.156 1.003-.468.237-.312.356-.695.356-1.148V20.22h1.46v5.683h-1.371v-.713h-.089a1.83 1.83 0 0 1-.724.658 2.194 2.194 0 0 1-1.014.234Zm4.632-.179v-7.98H206v7.98h-1.46Zm4.579.179c-.402 0-.758-.078-1.07-.234a1.88 1.88 0 0 1-.725-.68 1.877 1.877 0 0 1-.267-1.003c0-.394.1-.732.301-1.014.208-.283.483-.502.825-.658a2.806 2.806 0 0 1 1.159-.234c.349 0 .65.03.902.09.253.051.454.107.602.166v-.245a.93.93 0 0 0-.345-.746c-.231-.201-.546-.301-.948-.301-.267 0-.527.063-.78.189a1.788 1.788 0 0 0-.613.48l-.936-.736c.275-.357.62-.632 1.037-.825.416-.193.869-.29 1.359-.29.869 0 1.531.2 1.984.602.453.401.68.988.68 1.76v3.5h-1.438v-.58h-.089a1.955 1.955 0 0 1-.646.536c-.268.148-.599.223-.992.223Zm.345-1.137c.297 0 .546-.063.747-.19.208-.133.364-.304.468-.512.111-.208.167-.427.167-.658a2.331 2.331 0 0 0-.557-.19 2.61 2.61 0 0 0-.635-.077c-.431 0-.728.081-.892.245a.82.82 0 0 0-.245.602c0 .223.078.408.234.557.163.149.401.223.713.223Zm4.163.958V20.22h1.371v.757h.089c.141-.26.357-.479.647-.657.297-.178.627-.268.991-.268.149 0 .283.012.402.034.119.022.223.052.312.089v1.46a3.776 3.776 0 0 0-.468-.145 1.67 1.67 0 0 0-.48-.067c-.438 0-.783.16-1.036.48-.245.319-.368.709-.368 1.17v2.83h-1.46Zm-63.399 16.179c-.579 0-1.096-.127-1.549-.38a2.874 2.874 0 0 1-1.059-1.07c-.252-.46-.378-.984-.378-1.57 0-.587.126-1.108.378-1.56.261-.454.613-.81 1.059-1.07.453-.26.97-.39 1.549-.39.632 0 1.174.133 1.627.4.454.268.781.654.981 1.16l-1.337.557a1.183 1.183 0 0 0-.502-.569 1.49 1.49 0 0 0-.769-.19c-.431 0-.795.153-1.092.458-.29.297-.435.698-.435 1.203 0 .513.145.922.435 1.226.297.298.661.446 1.092.446.327 0 .598-.07.814-.212.215-.148.39-.349.524-.601l1.304.58a2.698 2.698 0 0 1-1.015 1.147c-.453.29-.995.435-1.627.435Zm6.379 0c-.594 0-1.122-.13-1.582-.39a2.922 2.922 0 0 1-1.07-1.081 3.164 3.164 0 0 1-.379-1.55 3.1 3.1 0 0 1 .379-1.538c.26-.46.616-.82 1.07-1.08.46-.268.988-.402 1.582-.402.594 0 1.118.134 1.571.401.454.268.807.628 1.059 1.081.26.454.39.966.39 1.538 0 .572-.13 1.089-.39 1.55a2.835 2.835 0 0 1-1.059 1.08c-.453.26-.977.39-1.571.39Zm0-1.36c.282 0 .539-.063.769-.19.238-.133.427-.323.568-.568.149-.252.223-.553.223-.903 0-.349-.074-.646-.223-.891a1.487 1.487 0 0 0-.568-.569 1.604 1.604 0 0 0-1.549 0 1.575 1.575 0 0 0-.58.569c-.141.245-.211.542-.211.891 0 .35.07.65.211.903.149.245.342.435.58.569.245.126.505.189.78.189Zm4.029 1.181V36.22h1.37v.713h.089c.171-.275.413-.49.725-.647.312-.163.65-.245 1.014-.245.698 0 1.222.212 1.571.636.35.423.524.988.524 1.694v3.532h-1.46v-3.354c0-.372-.096-.654-.289-.847-.186-.2-.443-.301-.769-.301-.409 0-.732.156-.97.468-.23.312-.346.69-.346 1.137v2.897h-1.459Zm8.862.09c-.587 0-1.047-.168-1.382-.502-.334-.342-.501-.81-.501-1.404v-2.62h-.992V36.22h.992v-1.605h1.46v1.605h1.393v1.248h-1.393v2.351c0 .26.055.46.167.602.111.134.297.2.557.2a.88.88 0 0 0 .368-.066 3.06 3.06 0 0 0 .345-.178v1.426a2.73 2.73 0 0 1-1.014.19Zm4.652.089c-.572 0-1.085-.13-1.538-.39a2.868 2.868 0 0 1-1.059-1.07 3.134 3.134 0 0 1-.379-1.55c0-.542.127-1.043.379-1.504.253-.46.598-.828 1.037-1.103.438-.283.94-.424 1.504-.424.609 0 1.122.13 1.538.39.416.26.732.61.947 1.048.216.43.324.91.324 1.438 0 .118-.004.223-.011.312a1.825 1.825 0 0 1-.023.178h-4.257c.067.446.245.788.535 1.025.29.238.631.357 1.025.357.349 0 .643-.074.881-.223.237-.156.423-.35.557-.58l1.181.58c-.267.468-.616.84-1.047 1.114-.431.268-.963.402-1.594.402Zm-.045-4.848c-.334 0-.631.1-.891.3-.26.201-.442.48-.546.837h2.83a1.108 1.108 0 0 0-.189-.513 1.344 1.344 0 0 0-.468-.446 1.422 1.422 0 0 0-.736-.178Zm3.922 4.67v-5.684h1.371v.713h.089c.171-.275.413-.49.725-.647.312-.163.65-.245 1.014-.245.698 0 1.222.212 1.571.636.349.423.524.988.524 1.694v3.532h-1.46v-3.354c0-.372-.096-.654-.29-.847-.185-.2-.442-.301-.769-.301-.408 0-.731.156-.969.468-.231.312-.346.69-.346 1.137v2.897h-1.46Zm8.863.089c-.587 0-1.048-.168-1.382-.502-.334-.342-.501-.81-.501-1.404v-2.62h-.992V36.22h.992v-1.605h1.46v1.605h1.393v1.248h-1.393v2.351c0 .26.055.46.167.602.111.134.297.2.557.2a.88.88 0 0 0 .368-.066 3.06 3.06 0 0 0 .345-.178v1.426a2.73 2.73 0 0 1-1.014.19Z" fill="#202124"/><path d="M149.749 64.817h-.742v-4.92l-1.488.546v-.67l2.115-.794h.115v5.838Zm1.381 15h-3.807v-.53l2.011-2.236c.298-.338.503-.612.615-.822.114-.213.172-.432.172-.658 0-.303-.092-.552-.276-.746-.183-.195-.428-.292-.734-.292-.367 0-.653.105-.858.316-.202.207-.303.497-.303.87h-.739c0-.535.172-.968.515-1.297.346-.33.808-.495 1.385-.495.54 0 .967.142 1.281.427.314.282.471.658.471 1.13 0 .571-.365 1.252-1.094 2.042l-1.556 1.688h2.917v.603Zm-2.733 11.736h.554c.349-.006.623-.097.822-.276.2-.178.3-.419.3-.722 0-.681-.339-1.022-1.018-1.022-.319 0-.575.092-.766.276-.189.18-.283.421-.283.722h-.739c0-.46.168-.842.503-1.145.338-.306.766-.46 1.285-.46.548 0 .978.146 1.289.436.311.29.467.693.467 1.209 0 .253-.082.497-.247.734a1.475 1.475 0 0 1-.667.53c.319.102.565.27.738.504.176.234.264.52.264.858 0 .521-.17.935-.511 1.24-.341.307-.784.46-1.329.46-.545 0-.99-.148-1.333-.443-.34-.296-.511-.685-.511-1.17h.743c0 .306.099.551.299.735.2.183.467.275.802.275.357 0 .629-.093.818-.28.189-.185.284-.453.284-.801 0-.338-.104-.598-.312-.778-.207-.181-.507-.275-.898-.28h-.554v-.602Zm2.043 16.312h.806v.603h-.806v1.349h-.742v-1.349h-2.646v-.435l2.602-4.026h.786v3.858Zm-2.55 0h1.808v-2.849l-.088.16-1.72 2.689Z" fill="#C7C7C7"/><path d="M149 62.227c0-1.23 1.104-2.227 2.465-2.227h51.464c1.362 0 2.465.997 2.465 2.227s-1.103 2.227-2.465 2.227h-51.464c-1.361 0-2.465-.997-2.465-2.227ZM149 77.076c0-1.23 1.104-2.227 2.465-2.227h80.07c1.361 0 2.465.997 2.465 2.227s-1.104 2.227-2.465 2.227h-80.07c-1.361 0-2.465-.997-2.465-2.227ZM149 91.924c0-1.23 1.104-2.227 2.465-2.227h44.109c1.361 0 2.464.997 2.464 2.227s-1.103 2.227-2.464 2.227h-44.109c-1.361 0-2.465-.997-2.465-2.227ZM149 106.773c0-1.23 1.104-2.228 2.465-2.228h59.637c1.362 0 2.465.998 2.465 2.228 0 1.23-1.103 2.227-2.465 2.227h-59.637c-1.361 0-2.465-.997-2.465-2.227Z" fill="#C7C7C7"/><g filter="url(#b)"><rect x="4" y="52" width="148" height="122" rx="3.976" fill="#fff"/></g><path d="M19.707 75.08c-.624 0-1.17-.133-1.638-.4a2.783 2.783 0 0 1-1.08-1.149c-.253-.505-.38-1.107-.38-1.805v-4.803h1.494v4.892c0 .528.133.966.4 1.315.276.35.677.524 1.204.524.528 0 .925-.174 1.193-.524.275-.349.412-.787.412-1.315v-4.892h1.494v4.803c0 .661-.127 1.245-.38 1.75-.252.505-.608.899-1.069 1.181-.46.282-1.01.424-1.65.424Zm4.585-.178V69.22h1.37v.713h.09c.17-.275.412-.49.724-.647.312-.163.65-.245 1.014-.245.699 0 1.223.212 1.572.635.349.424.523.989.523 1.695v3.532h-1.46v-3.354c0-.372-.096-.654-.29-.847-.185-.2-.441-.301-.768-.301-.409 0-.732.156-.97.468-.23.312-.345.69-.345 1.137v2.897h-1.46Zm7.496-6.308a.912.912 0 0 1-.669-.278.912.912 0 0 1-.278-.669c0-.26.093-.48.278-.657a.912.912 0 0 1 .669-.279c.26 0 .48.093.658.279a.876.876 0 0 1 .278.657c0 .26-.093.483-.278.669a.876.876 0 0 1-.658.278Zm-.736 6.308V69.22h1.46v5.683h-1.46Zm7.072 2.408v-2.285l.089-.803h-.09c-.14.223-.356.424-.645.602-.29.171-.643.257-1.06.257-.52 0-.987-.127-1.404-.38a2.811 2.811 0 0 1-.991-1.07c-.238-.452-.357-.976-.357-1.57 0-.595.119-1.119.357-1.572.245-.453.575-.806.991-1.059.417-.26.885-.39 1.405-.39.416 0 .769.09 1.059.268.29.178.505.379.646.601h.089v-.69h1.36v8.09h-1.45Zm-1.46-3.578c.275 0 .527-.07.758-.212.238-.14.427-.334.568-.58.149-.252.223-.545.223-.88 0-.334-.074-.624-.223-.869a1.471 1.471 0 0 0-.568-.58 1.46 1.46 0 0 0-1.516 0c-.23.134-.42.324-.568.569a1.736 1.736 0 0 0-.212.88c0 .335.07.628.212.88.148.254.338.45.568.591.238.134.49.201.758.201Zm6.352 1.349c-.698 0-1.222-.216-1.572-.647-.349-.43-.523-1.018-.523-1.76v-3.455h1.46v3.276c0 .386.093.691.278.914a.945.945 0 0 0 .736.323c.43 0 .765-.156 1.003-.468.238-.312.356-.695.356-1.148V69.22h1.46v5.683h-1.37v-.713h-.09a1.83 1.83 0 0 1-.724.658 2.192 2.192 0 0 1-1.014.234Zm7.23 0c-.572 0-1.085-.13-1.538-.39a2.868 2.868 0 0 1-1.059-1.07c-.252-.453-.379-.97-.379-1.55 0-.542.127-1.043.38-1.504.252-.46.597-.828 1.036-1.103.438-.283.94-.424 1.504-.424.61 0 1.122.13 1.538.39.416.26.732.61.947 1.048.216.43.324.91.324 1.438 0 .118-.004.222-.011.312a1.913 1.913 0 0 1-.023.178h-4.257c.067.446.245.787.535 1.025.29.238.631.357 1.025.357.35 0 .643-.074.88-.223.238-.156.424-.35.558-.58l1.181.58c-.267.468-.616.84-1.047 1.114-.431.268-.963.402-1.594.402Zm-.045-4.848c-.334 0-.631.1-.891.3-.26.201-.442.48-.546.837h2.83a1.114 1.114 0 0 0-.189-.513 1.35 1.35 0 0 0-.468-.446 1.42 1.42 0 0 0-.736-.178Zm8.306 4.67L56.1 69.218h1.66l1.438 3.7h.09l1.46-3.7h1.638l-2.43 5.683h-1.449Zm5.496-6.309a.912.912 0 0 1-.669-.278.912.912 0 0 1-.278-.669c0-.26.093-.48.279-.657a.912.912 0 0 1 .668-.279c.26 0 .48.093.658.279a.876.876 0 0 1 .278.657c0 .26-.093.483-.278.669a.876.876 0 0 1-.658.278Zm-.735 6.308V69.22h1.46v5.683h-1.46Zm5.142.179c-.49 0-.91-.07-1.26-.212a2.356 2.356 0 0 1-.836-.557 2.293 2.293 0 0 1-.479-.758l1.304-.569c.245.543.669.814 1.27.814.238 0 .454-.037.647-.111a.437.437 0 0 0 .29-.435.414.414 0 0 0-.156-.346.925.925 0 0 0-.368-.2 3.198 3.198 0 0 0-.457-.123l-.669-.145a2.526 2.526 0 0 1-.78-.312 2.04 2.04 0 0 1-.602-.58 1.504 1.504 0 0 1-.222-.813c0-.341.096-.639.29-.891.2-.253.467-.45.802-.591a2.92 2.92 0 0 1 1.125-.212c.565 0 1.048.1 1.45.301.4.2.701.513.902.936l-1.248.546a1.019 1.019 0 0 0-.468-.468 1.373 1.373 0 0 0-.602-.133c-.253 0-.453.048-.602.145-.149.096-.223.211-.223.345 0 .141.074.264.223.368.149.104.327.182.535.234l.836.2c.564.134.988.35 1.27.647.29.297.435.654.435 1.07 0 .371-.108.698-.323.98-.216.275-.505.49-.87.647a3.186 3.186 0 0 1-1.214.223Zm4.235-6.487a.912.912 0 0 1-.669-.278.912.912 0 0 1-.279-.669c0-.26.093-.48.279-.657a.912.912 0 0 1 .669-.279c.26 0 .479.093.657.279a.876.876 0 0 1 .279.657c0 .26-.093.483-.279.669a.876.876 0 0 1-.657.278Zm-.736 6.308V69.22h1.46v5.683h-1.46Zm5.4.09c-.587 0-1.048-.168-1.382-.502-.335-.342-.502-.81-.502-1.404v-2.62h-.992V69.22h.992v-1.605h1.46v1.605h1.393v1.248h-1.393v2.351c0 .26.056.46.167.602.112.134.298.2.558.2a.88.88 0 0 0 .368-.066 3.09 3.09 0 0 0 .345-.178v1.426c-.32.126-.658.19-1.014.19Zm4.707.089c-.594 0-1.122-.13-1.582-.39a2.929 2.929 0 0 1-1.07-1.081 3.168 3.168 0 0 1-.38-1.55c0-.572.127-1.084.38-1.538.26-.46.616-.82 1.07-1.08.46-.268.988-.402 1.582-.402.595 0 1.118.134 1.572.401.453.268.806.628 1.058 1.081.26.454.39.966.39 1.538 0 .572-.13 1.089-.39 1.55a2.844 2.844 0 0 1-1.058 1.08c-.454.26-.977.39-1.572.39Zm0-1.36c.282 0 .539-.063.77-.19a1.49 1.49 0 0 0 .567-.568 1.75 1.75 0 0 0 .223-.903c0-.349-.074-.646-.222-.891a1.49 1.49 0 0 0-.569-.569 1.605 1.605 0 0 0-1.55 0 1.573 1.573 0 0 0-.579.569c-.14.245-.211.542-.211.891 0 .35.07.65.212.903.148.245.341.435.58.569.244.126.504.189.78.189Zm4.029 1.181V69.22h1.37v.757h.09c.14-.26.356-.479.646-.657a1.89 1.89 0 0 1 .992-.268c.148 0 .282.011.401.034.119.022.223.052.312.089v1.46a3.772 3.772 0 0 0-.468-.145 1.663 1.663 0 0 0-.48-.067c-.438 0-.783.16-1.036.48-.245.319-.367.709-.367 1.17v2.83h-1.46Zm6.7.179c-.49 0-.91-.07-1.26-.212a2.356 2.356 0 0 1-.835-.557 2.293 2.293 0 0 1-.48-.758l1.305-.569c.245.543.668.814 1.27.814.238 0 .453-.037.646-.111a.437.437 0 0 0 .29-.435.414.414 0 0 0-.156-.346.924.924 0 0 0-.368-.2 3.196 3.196 0 0 0-.456-.123l-.67-.145a2.528 2.528 0 0 1-.78-.312 2.038 2.038 0 0 1-.601-.58 1.503 1.503 0 0 1-.223-.813c0-.341.097-.639.29-.891.2-.253.468-.45.802-.591a2.92 2.92 0 0 1 1.126-.212c.565 0 1.047.1 1.449.301.4.2.702.513.902.936l-1.248.546a1.018 1.018 0 0 0-.468-.468 1.374 1.374 0 0 0-.602-.133c-.252 0-.453.048-.602.145-.148.096-.222.211-.222.345 0 .141.074.264.222.368.149.104.327.182.535.234l.836.2c.565.134.988.35 1.27.647.29.297.435.654.435 1.07 0 .371-.107.698-.323.98-.215.275-.505.49-.87.647a3.187 3.187 0 0 1-1.214.223ZM17.166 88.902v-4.435h-1.014v-1.248h1.014v-.313c0-.66.197-1.17.591-1.526.394-.364.895-.546 1.505-.546.186 0 .36.01.524.033.163.022.297.052.4.09v1.426a5.375 5.375 0 0 0-.322-.112 1.206 1.206 0 0 0-.424-.067.847.847 0 0 0-.59.212c-.15.141-.224.335-.224.58v.223h1.394v1.248h-1.393v4.435h-1.46Zm3.991 0V83.22h1.371v.757h.09c.14-.26.356-.479.646-.657a1.89 1.89 0 0 1 .992-.268c.148 0 .282.011.4.034.12.022.224.052.313.089v1.46a3.778 3.778 0 0 0-.468-.145 1.663 1.663 0 0 0-.48-.067c-.438 0-.783.16-1.036.48-.245.319-.368.709-.368 1.17v2.83h-1.46Zm7.138.179c-.594 0-1.122-.13-1.582-.39a2.927 2.927 0 0 1-1.07-1.081 3.169 3.169 0 0 1-.38-1.55c0-.572.127-1.084.38-1.538.26-.46.616-.82 1.07-1.08.46-.268.988-.402 1.582-.402.595 0 1.118.134 1.572.401.453.268.806.628 1.058 1.081.26.454.39.966.39 1.538 0 .572-.13 1.089-.39 1.55a2.844 2.844 0 0 1-1.058 1.08c-.454.26-.977.39-1.572.39Zm0-1.36c.283 0 .539-.063.77-.19.237-.133.426-.323.568-.568a1.75 1.75 0 0 0 .223-.903c0-.349-.075-.646-.223-.891a1.492 1.492 0 0 0-.569-.569 1.606 1.606 0 0 0-1.55 0 1.572 1.572 0 0 0-.578.569c-.142.245-.212.542-.212.891 0 .35.07.65.212.903.148.245.341.435.58.569.244.126.504.189.78.189Zm4.029 1.181V83.22h1.37v.713h.09c.17-.268.405-.483.702-.647a2.093 2.093 0 0 1 1.025-.245c.416 0 .77.097 1.059.29.297.193.505.43.624.713.17-.275.412-.509.724-.702.32-.2.714-.3 1.182-.3.661 0 1.155.2 1.482.601.334.401.502.936.502 1.605v3.655h-1.45v-3.388c0-.364-.085-.639-.256-.824-.17-.194-.4-.29-.69-.29-.387 0-.692.152-.915.457-.222.304-.334.698-.334 1.181v2.864h-1.46v-3.388c0-.364-.089-.639-.267-.824-.171-.194-.416-.29-.736-.29-.364 0-.654.152-.87.457-.215.304-.322.698-.322 1.181v2.864h-1.46Zm14.917.179c-.49 0-.91-.07-1.26-.212a2.356 2.356 0 0 1-.835-.557 2.291 2.291 0 0 1-.48-.758l1.305-.569c.245.543.669.814 1.27.814.238 0 .453-.037.647-.111a.438.438 0 0 0 .29-.435.414.414 0 0 0-.157-.346.925.925 0 0 0-.367-.2 3.198 3.198 0 0 0-.457-.123l-.669-.145a2.527 2.527 0 0 1-.78-.312 2.038 2.038 0 0 1-.602-.58 1.503 1.503 0 0 1-.223-.813c0-.341.097-.639.29-.891.2-.253.468-.45.802-.591a2.92 2.92 0 0 1 1.126-.212c.565 0 1.048.1 1.449.301.401.2.702.513.902.936l-1.248.546a1.019 1.019 0 0 0-.468-.468 1.373 1.373 0 0 0-.602-.133c-.252 0-.453.048-.601.145-.149.096-.223.211-.223.345 0 .141.074.264.223.368.148.104.327.182.535.234l.835.2c.565.134.989.35 1.27.647.29.297.435.654.435 1.07 0 .371-.107.698-.323.98-.215.275-.505.49-.869.647a3.186 3.186 0 0 1-1.215.223Zm6.183 0c-.572 0-1.085-.13-1.538-.39a2.868 2.868 0 0 1-1.059-1.07c-.252-.453-.379-.97-.379-1.55 0-.542.127-1.043.38-1.504.252-.46.597-.828 1.036-1.103.438-.283.94-.424 1.504-.424.61 0 1.122.13 1.538.39.416.26.732.61.947 1.048.216.43.324.91.324 1.438 0 .118-.004.222-.011.312a1.913 1.913 0 0 1-.023.178h-4.257c.067.446.245.787.535 1.025.29.238.632.357 1.025.357.35 0 .643-.074.88-.223.238-.156.424-.35.558-.58l1.181.58c-.267.468-.616.84-1.047 1.114-.431.268-.962.402-1.594.402Zm-.045-4.848c-.334 0-.631.1-.891.3-.26.201-.442.48-.546.837h2.83a1.114 1.114 0 0 0-.189-.513 1.351 1.351 0 0 0-.468-.446 1.42 1.42 0 0 0-.736-.178Zm5.715 4.848a2.36 2.36 0 0 1-1.07-.234 1.876 1.876 0 0 1-.724-.68 1.875 1.875 0 0 1-.267-1.003c0-.394.1-.732.3-1.014a2.07 2.07 0 0 1 .825-.658c.35-.156.736-.234 1.16-.234.348 0 .65.03.902.09.253.051.453.107.602.166v-.245a.93.93 0 0 0-.346-.747c-.23-.2-.546-.3-.947-.3-.268 0-.528.063-.78.189-.245.119-.45.279-.613.48l-.936-.736a2.75 2.75 0 0 1 1.036-.825c.416-.193.87-.29 1.36-.29.87 0 1.53.2 1.984.602.453.401.68.988.68 1.76v3.5h-1.438v-.58h-.09a1.948 1.948 0 0 1-.646.536c-.267.148-.598.223-.992.223Zm.346-1.137c.297 0 .546-.063.747-.19.208-.133.364-.304.468-.512.111-.208.167-.427.167-.658a2.34 2.34 0 0 0-.558-.19 2.609 2.609 0 0 0-.635-.077c-.43 0-.728.082-.891.245a.818.818 0 0 0-.245.602c0 .223.078.408.234.557.163.149.4.223.713.223Zm4.163.958V83.22h1.37v.757h.09c.141-.26.356-.479.646-.657a1.89 1.89 0 0 1 .992-.268c.149 0 .282.011.401.034.12.022.223.052.312.089v1.46a3.778 3.778 0 0 0-.468-.145 1.663 1.663 0 0 0-.479-.067c-.438 0-.784.16-1.036.48-.246.319-.368.709-.368 1.17v2.83h-1.46Zm7.093.179c-.58 0-1.096-.127-1.549-.38a2.868 2.868 0 0 1-1.059-1.07c-.252-.46-.378-.984-.378-1.57 0-.588.126-1.108.379-1.56.26-.454.612-.81 1.058-1.07.453-.26.97-.39 1.55-.39.63 0 1.173.133 1.626.4.454.268.78.654.981 1.16l-1.337.557a1.184 1.184 0 0 0-.502-.569 1.494 1.494 0 0 0-.769-.19c-.43 0-.795.153-1.092.458-.29.297-.434.698-.434 1.203 0 .513.144.922.434 1.226.297.298.661.446 1.092.446.327 0 .598-.07.814-.212.215-.148.39-.349.524-.601l1.304.58a2.7 2.7 0 0 1-1.015 1.147c-.453.29-.995.435-1.627.435Zm3.714-.179v-7.98h1.46v2.018l-.089.992h.09c.163-.26.397-.472.701-.635a2.1 2.1 0 0 1 1.026-.257c.705 0 1.237.212 1.593.635.364.417.546.981.546 1.695v3.532h-1.46v-3.354c0-.372-.1-.654-.3-.847-.201-.2-.461-.301-.78-.301-.26 0-.491.074-.692.223-.2.14-.356.334-.468.58a1.944 1.944 0 0 0-.167.813v2.886h-1.46Z" fill="#202124"/><path d="m22.5 144.244 5.55-4.092 4.44 1.86 5.92-1.86 8.14 5.58 6.66-1.488 3.33-4.092 5.18 5.58 3.7-1.488 8.51 3.347 8.51-7.439 4.81 1.86 5.92-2.976 2.22 1.116h6.66l9.62-13.762 2.96 5.579 2.59-1.487 2.96 4.463 13.32-4.463" stroke="#CCC" stroke-width="1.486"/><g filter="url(#c)"><rect x="226" y="69" width="148" height="122" rx="3.976" fill="#fff"/></g><path d="M331.315 120.007a23.387 23.387 0 0 1 6.546-1.154l.216 8.328a15.2 15.2 0 0 0-4.255.75l-2.507-7.924Z" fill="#DEDEDE"/><path d="M319.491 128.654a23.758 23.758 0 0 1 11.122-8.405l2.753 7.839a15.44 15.44 0 0 0-7.229 5.464l-6.646-4.898Z" fill="#C6C6C6"/><path d="M319.348 156.639a23.871 23.871 0 0 1-4.426-13.619 24.068 24.068 0 0 1 4.141-13.754l6.795 4.683a15.646 15.646 0 0 0-2.691 8.94 15.51 15.51 0 0 0 2.877 8.852l-6.696 4.898Z" fill="#F1F1F1"/><path d="M352.229 161.904a23.453 23.453 0 0 1-17.188 4.31 23.358 23.358 0 0 1-15.25-8.976l6.541-5.107a15.182 15.182 0 0 0 9.912 5.834 15.24 15.24 0 0 0 11.173-2.801l4.812 6.74Z" fill="#959595"/><path d="M338.601 118.842c4.912 0 9.693 1.551 13.674 4.437a23.611 23.611 0 0 1 8.532 11.657 24.032 24.032 0 0 1 .208 14.531 23.977 23.977 0 0 1-8.192 11.989l-5.021-6.583a15.626 15.626 0 0 0 5.19-17.239 15.35 15.35 0 0 0-5.545-7.577 15.145 15.145 0 0 0-8.889-2.884l.043-8.331Z" fill="#C7C7C7"/><ellipse cx="327.009" cy="174.262" rx="1.85" ry="1.86" fill="#959595"/><ellipse cx="334.41" cy="174.262" rx="1.85" ry="1.86" fill="#C7C7C7"/><ellipse cx="341.81" cy="174.262" rx="1.85" ry="1.86" fill="#DEDEDE"/><ellipse cx="349.209" cy="174.262" rx="1.85" ry="1.86" fill="#F1F1F1"/><path stroke="#ECE9F1" stroke-width=".994" stroke-linecap="round" d="M238.336 175.624h58.206"/><path stroke="#ECE9F1" stroke-width=".497" stroke-linecap="round" d="M238.088 160.995h58.703M238.088 146.117h58.703M238.088 131.24h58.703"/><path opacity=".08" d="M264.829 164.08c-4.374-1.37-6.29-5.044-10.433-5.568-4.285-.542-7.612 13.315-16.557 14.64v2.97h59.2V150.691c-2.378-.516-4.616-19.012-9.777-17.643-5.162 1.369-8.961 22.202-13.073 15.493-4.111-6.71-4.985 16.908-9.36 15.539Z" fill="url(#d)"/><path d="M241.722 119.374h-2.434l-.547 1.516h-.79l2.219-5.81h.67l2.223 5.81h-.786l-.555-1.516Zm-2.203-.631h1.976l-.99-2.717-.986 2.717Zm5.013 2.147h-.739v-6.129h.739v6.129Zm1.987 0h-.738v-6.129h.738v6.129Zm5.878-.427c-.287.338-.709.507-1.265.507-.46 0-.811-.133-1.053-.399-.24-.269-.361-.665-.364-1.189v-2.809h.739v2.789c0 .654.266.982.798.982.564 0 .939-.211 1.125-.631v-3.14h.738v4.317h-.702l-.016-.427Zm4.358-.718a.537.537 0 0 0-.228-.463c-.149-.112-.411-.207-.786-.287a3.813 3.813 0 0 1-.89-.287 1.29 1.29 0 0 1-.487-.4.966.966 0 0 1-.155-.55c0-.354.149-.653.447-.898.3-.245.684-.367 1.149-.367.49 0 .886.126 1.189.379.306.253.459.576.459.97h-.742a.666.666 0 0 0-.259-.523.956.956 0 0 0-.647-.22c-.269 0-.479.059-.63.176a.552.552 0 0 0-.228.459c0 .178.071.312.212.403.141.09.395.177.762.259.37.083.669.181.898.296.228.114.397.252.507.415a1 1 0 0 1 .167.586c0 .386-.154.696-.463.93-.308.231-.709.347-1.201.347a2.18 2.18 0 0 1-.918-.183 1.514 1.514 0 0 1-.626-.511 1.254 1.254 0 0 1-.224-.714h.738a.773.773 0 0 0 .296.59c.186.144.431.216.734.216.279 0 .503-.056.67-.168a.524.524 0 0 0 .256-.455Zm3.492 1.225c-.586 0-1.062-.191-1.429-.574-.367-.386-.551-.901-.551-1.545v-.136c0-.428.081-.81.244-1.145.165-.338.393-.601.686-.79.295-.191.615-.287.958-.287.561 0 .998.185 1.309.554.311.37.467.9.467 1.589v.307h-2.925c.01.426.134.77.371 1.034.239.26.542.391.91.391.26 0 .481-.054.662-.16.181-.106.339-.247.475-.423l.451.351c-.362.556-.905.834-1.628.834Zm-.092-3.871a.979.979 0 0 0-.75.328c-.203.215-.328.518-.376.909h2.163v-.055c-.021-.376-.122-.666-.303-.87-.181-.208-.426-.312-.734-.312Zm4.721.136a2.175 2.175 0 0 0-.363-.028c-.485 0-.813.206-.986.619v3.064h-.738v-4.317h.718l.012.498c.242-.385.585-.578 1.03-.578.143 0 .252.018.327.056v.686Zm3.196 2.51a.539.539 0 0 0-.227-.463c-.149-.112-.411-.207-.786-.287a3.797 3.797 0 0 1-.89-.287 1.283 1.283 0 0 1-.487-.4.958.958 0 0 1-.156-.55c0-.354.149-.653.447-.898.301-.245.684-.367 1.149-.367.49 0 .886.126 1.19.379.306.253.459.576.459.97h-.743a.663.663 0 0 0-.259-.523.954.954 0 0 0-.647-.22c-.268 0-.478.059-.63.176a.552.552 0 0 0-.228.459c0 .178.071.312.212.403.141.09.395.177.762.259.37.083.669.181.898.296.229.114.398.252.507.415a.993.993 0 0 1 .167.586c0 .386-.154.696-.462.93-.309.231-.709.347-1.202.347-.345 0-.651-.061-.917-.183a1.524 1.524 0 0 1-.627-.511 1.253 1.253 0 0 1-.223-.714h.738a.772.772 0 0 0 .295.59c.186.144.431.216.734.216.28 0 .503-.056.671-.168a.525.525 0 0 0 .255-.455Z" fill="#B8B8B8"/><path d="M240.358 92.903V86.35h-2.229v-1.427h5.963v1.427h-2.229v6.553h-1.505Zm4.072 0v-5.684h1.37v.758h.09c.141-.26.356-.48.646-.658.297-.178.628-.267.992-.267.149 0 .282.01.401.033.119.022.223.052.312.09v1.46a3.743 3.743 0 0 0-.468-.146 1.654 1.654 0 0 0-.479-.067c-.438 0-.784.16-1.037.48-.245.32-.367.71-.367 1.17v2.83h-1.46Zm6.32.178c-.401 0-.758-.078-1.07-.234a1.877 1.877 0 0 1-.724-.68 1.878 1.878 0 0 1-.268-1.003c0-.394.101-.732.301-1.014.208-.282.483-.502.825-.658a2.81 2.81 0 0 1 1.159-.234c.349 0 .65.03.903.09.252.051.453.107.602.167v-.246a.931.931 0 0 0-.346-.746c-.23-.2-.546-.301-.947-.301-.268 0-.528.063-.78.19-.245.118-.45.278-.613.478l-.936-.735a2.75 2.75 0 0 1 1.036-.825 3.19 3.19 0 0 1 1.36-.29c.869 0 1.53.201 1.983.602.454.401.68.989.68 1.761v3.5h-1.437v-.58h-.09a1.946 1.946 0 0 1-.646.535c-.267.149-.598.223-.992.223Zm.346-1.137c.297 0 .546-.063.746-.19a1.29 1.29 0 0 0 .468-.512c.112-.208.168-.427.168-.657a2.355 2.355 0 0 0-.558-.19 2.604 2.604 0 0 0-.635-.078c-.431 0-.728.082-.891.245a.817.817 0 0 0-.246.602c0 .223.078.409.234.557.164.149.402.223.714.223Zm12.814-5.294a.932.932 0 0 1-.669-.267.933.933 0 0 1-.268-.669c0-.26.09-.479.268-.657a.913.913 0 0 1 .669-.279c.26 0 .479.093.657.279a.875.875 0 0 1 .279.657c0 .26-.093.483-.279.669a.892.892 0 0 1-.657.267Zm-8.147 6.253v-4.436h-1.014v-1.248h1.014v-.312c0-.661.197-1.17.591-1.527.393-.364.895-.546 1.504-.546a2.603 2.603 0 0 1 .624.067v1.404a6.55 6.55 0 0 0-.212-.056.961.961 0 0 0-.323-.044.713.713 0 0 0-.524.211c-.133.142-.2.335-.2.58v.223h2.251v-.312c0-.661.197-1.17.591-1.527.394-.364.895-.546 1.504-.546a2.593 2.593 0 0 1 .624.067v1.404a7.12 7.12 0 0 0-.211-.056.972.972 0 0 0-.324-.044.71.71 0 0 0-.523.211c-.134.142-.201.335-.201.58v.223h3.7v5.684h-1.449v-4.436h-2.251v4.436h-1.46v-4.436h-2.251v4.436h-1.46Zm13.01.178c-.579 0-1.095-.126-1.549-.379a2.873 2.873 0 0 1-1.058-1.07c-.253-.46-.379-.984-.379-1.571s.126-1.107.379-1.56c.26-.454.613-.81 1.058-1.07.454-.26.97-.39 1.549-.39.632 0 1.174.133 1.628.4.453.268.78.654.98 1.16l-1.337.557a1.183 1.183 0 0 0-.502-.568 1.49 1.49 0 0 0-.769-.19c-.43 0-.795.152-1.092.457-.29.297-.434.698-.434 1.204 0 .512.144.921.434 1.226.297.297.662.445 1.092.445.327 0 .599-.07.814-.211.215-.149.39-.35.524-.602l1.304.58a2.703 2.703 0 0 1-1.014 1.147c-.454.29-.996.435-1.628.435Z" fill="#202124"/><defs><filter id="a" x="132.515" y=".012" width="152.97" height="126.97" filterUnits="userSpaceOnUse" color-interpolation-filters="sRGB"><feFlood flood-opacity="0" result="BackgroundImageFix"/><feColorMatrix in="SourceAlpha" values="0 0 0 0 0 0 0 0 0 0 0 0 0 0 0 0 0 0 127 0" result="hardAlpha"/><feMorphology radius=".497" operator="dilate" in="SourceAlpha" result="effect1_dropShadow_532_12388"/><feOffset dy=".497"/><feGaussianBlur stdDeviation=".994"/><feColorMatrix values="0 0 0 0 0.423529 0 0 0 0 0.443137 0 0 0 0 0.458824 0 0 0 0.15 0"/><feBlend in2="BackgroundImageFix" result="effect1_dropShadow_532_12388"/><feColorMatrix in="SourceAlpha" values="0 0 0 0 0 0 0 0 0 0 0 0 0 0 0 0 0 0 127 0" result="hardAlpha"/><feOffset dy=".994"/><feGaussianBlur stdDeviation=".746"/><feColorMatrix values="0 0 0 0 0.337255 0 0 0 0 0.352941 0 0 0 0 0.360784 0 0 0 0.25 0"/><feBlend in2="effect1_dropShadow_532_12388" result="effect2_dropShadow_532_12388"/><feBlend in="SourceGraphic" in2="effect2_dropShadow_532_12388" result="shape"/></filter><filter id="b" x=".784" y="49.588" width="154.431" height="128.431" filterUnits="userSpaceOnUse" color-interpolation-filters="sRGB"><feFlood flood-opacity="0" result="BackgroundImageFix"/><feColorMatrix in="SourceAlpha" values="0 0 0 0 0 0 0 0 0 0 0 0 0 0 0 0 0 0 127 0" result="hardAlpha"/><feOffset dy=".804"/><feGaussianBlur stdDeviation="1.608"/><feColorMatrix values="0 0 0 0 0 0 0 0 0 0 0 0 0 0 0 0 0 0 0.2 0"/><feBlend in2="BackgroundImageFix" result="effect1_dropShadow_532_12388"/><feBlend in="SourceGraphic" in2="effect1_dropShadow_532_12388" result="shape"/></filter><filter id="c" x="222.784" y="66.588" width="154.431" height="128.431" filterUnits="userSpaceOnUse" color-interpolation-filters="sRGB"><feFlood flood-opacity="0" result="BackgroundImageFix"/><feColorMatrix in="SourceAlpha" values="0 0 0 0 0 0 0 0 0 0 0 0 0 0 0 0 0 0 127 0" result="hardAlpha"/><feOffset dy=".804"/><feGaussianBlur stdDeviation="1.608"/><feColorMatrix values="0 0 0 0 0 0 0 0 0 0 0 0 0 0 0 0 0 0 0.2 0"/><feBlend in2="BackgroundImageFix" result="effect1_dropShadow_532_12388"/><feBlend in="SourceGraphic" in2="effect1_dropShadow_532_12388" result="shape"/></filter><linearGradient id="d" x1="258.024" y1="132.976" x2="258.024" y2="184.15" gradientUnits="userSpaceOnUse"><stop stop-color="#4F4F4F"/><stop offset="1" stop-color="#4F4F4F" stop-opacity="0"/></linearGradient></defs></svg>