<svg width="109" height="94" viewBox="0 0 109 94" fill="none" xmlns="http://www.w3.org/2000/svg">
<path d="M54.3233 93.5289C76.2308 93.5289 93.9903 75.7693 93.9903 53.8618C93.9903 31.9544 76.2308 14.1948 54.3233 14.1948C32.4158 14.1948 14.6562 31.9544 14.6562 53.8618C14.6562 75.7693 32.4158 93.5289 54.3233 93.5289Z" fill="#EBEEF0"/>
<path d="M37.7168 38.4689L89.8789 56.9141C91.4829 57.4815 93.183 57.7274 94.8821 57.6377C96.5811 57.548 98.2459 57.1244 99.7812 56.3912C101.317 55.658 102.692 54.6295 103.83 53.3644C104.968 52.0994 105.845 50.6226 106.412 49.0184V49.0184C106.98 47.4137 107.226 45.713 107.136 44.0133C107.046 42.3136 106.622 40.6482 105.888 39.1125C105.154 37.5767 104.125 36.2006 102.859 35.0627C101.593 33.9249 100.116 33.0477 98.5105 32.4812L87.0229 28.4193L87.009 28.4609C87.3091 26.5843 87.3325 24.6739 87.0784 22.7905" stroke="#161B18" stroke-width="2.57836" stroke-linecap="round" stroke-linejoin="round"/>
<path d="M70.9468 38.4689L18.7847 56.9141C17.1807 57.4815 15.4806 57.7274 13.7815 57.6377C12.0825 57.548 10.4177 57.1244 8.8824 56.3912C7.34707 55.6579 5.97124 54.6294 4.83348 53.3644C3.69573 52.0993 2.81834 50.6225 2.25144 49.0183V49.0183C1.6838 47.4137 1.43793 45.7129 1.52786 44.0132C1.6178 42.3135 2.04179 40.6482 2.7756 39.1124C3.50941 37.5767 4.53866 36.2005 5.80453 35.0627C7.0704 33.9249 8.54808 33.0477 10.1531 32.4811L21.6387 28.4192L21.6546 28.4609C21.3545 26.585 21.3311 24.6752 21.5852 22.7925" stroke="#161B18" stroke-width="2.57836" stroke-linecap="round" stroke-linejoin="round"/>
<path d="M27.6094 0.509636L28.1072 83.6358C35.5513 90.2037 45.1895 93.7382 55.1148 93.5398C65.0402 93.3415 74.5295 89.4248 81.7053 82.5648L82.8953 0.454102L27.6094 0.509636Z" fill="#70B2F5"/>
<path d="M27.6094 0.509636L28.1072 83.6358C35.5513 90.2037 45.1895 93.7382 55.1148 93.5398C65.0402 93.3415 74.5295 89.4248 81.7053 82.5648L82.8953 0.454102L27.6094 0.509636Z" fill="#77AD8C"/>
<g style="mix-blend-mode:multiply" opacity="0.2">
<path d="M82.6482 17.1123L82.8881 0.452148H77.0353L76.002 87.0849C78.037 85.7537 79.9457 84.2387 81.7041 82.5589L82.6482 17.1123Z" fill="#77AD8C"/>
</g>
<path d="M44.7227 46.3765C49.6394 50.3233 56.591 51.2694 63.9413 46.6502" stroke="#161B18" stroke-width="1.78502" stroke-linecap="round" stroke-linejoin="round"/>
<path d="M80.3802 24.9924C80.3802 15.4286 68.9343 7.93555 54.321 7.93555C39.7076 7.93555 28.2617 15.4267 28.2617 24.9924H80.3802Z" fill="#7B807D"/>
<path d="M39.588 39.7365C47.731 39.7365 54.3322 33.1353 54.3322 24.9923C54.3322 16.8493 47.731 10.248 39.588 10.248C31.445 10.248 24.8438 16.8493 24.8438 24.9923C24.8438 33.1353 31.445 39.7365 39.588 39.7365Z" fill="white" stroke="#464B48" stroke-width="4.36337" stroke-linejoin="round"/>
<path d="M69.0763 39.7365C77.2193 39.7365 83.8205 33.1353 83.8205 24.9923C83.8205 16.8493 77.2193 10.248 69.0763 10.248C60.9333 10.248 54.332 16.8493 54.332 24.9923C54.332 33.1353 60.9333 39.7365 69.0763 39.7365Z" fill="white" stroke="#464B48" stroke-width="4.36337" stroke-linejoin="round"/>
<path d="M30.8594 24.9924C30.8625 22.6789 31.783 20.461 33.4189 18.8251C35.0548 17.1892 37.2726 16.2688 39.5861 16.2656" stroke="#B8BDB9" stroke-width="3.17336" stroke-linejoin="round"/>
<path d="M60.3477 24.9924C60.3508 22.6789 61.2712 20.461 62.9071 18.8251C64.543 17.1892 66.7609 16.2688 69.0744 16.2656" stroke="#B8BDB9" stroke-width="3.17336" stroke-linejoin="round"/>
</svg>
