<svg width="496" height="216" viewBox="0 0 496 216" fill="none" xmlns="http://www.w3.org/2000/svg">
<g clip-path="url(#clip0_1782_21770)">
<path d="M39.0303 49.7064C42.175 46.464 45.4921 43.4763 48.9601 40.763C82.2812 14.625 109.811 14.667 147.924 19.4375C173.69 22.6615 188.743 34.9294 223.871 33C259 31.0706 268 22.1391 311 24.9999C345.038 27.2646 360.308 33.9846 390.57 49.7064C418.577 64.2568 444.007 89.8203 456.786 123.628C478.692 181.576 439.634 285.871 387.256 290.788C349.303 294.353 317.981 252.32 279.673 262.055C256.074 268.053 242.078 293.21 223.871 309.812C202.63 329.183 156.872 327.965 132 317.628C108.298 307.777 85.241 288.254 77.5 259.5C71.6068 237.603 70 211.5 53.5 191.5C33.5324 167.296 21.3328 156.5 14.4776 123.628C8.52387 95.0784 21.3335 67.9967 39.0303 49.7064Z" fill="#B8E6CA"/>
<rect x="85" y="41" width="153" height="208" rx="11" fill="white"/>
<rect x="104.031" y="126.641" width="53.0156" height="9.51562" rx="4.75781" fill="#EBEEF0"/>
<rect x="104.031" y="111.688" width="19.0312" height="9.51562" rx="4.75781" fill="#EBEEF0"/>
<rect x="104.031" y="160.703" width="19.0312" height="9.51562" rx="4.75781" fill="#EBEEF0"/>
<rect x="104.031" y="207.703" width="19.0312" height="9.51562" rx="4.75781" fill="#EBEEF0"/>
<path d="M189.672 124.602C189.672 119.722 193.628 115.766 198.508 115.766H212.102C216.982 115.766 220.938 119.722 220.938 124.602C220.938 129.482 216.982 133.438 212.102 133.438H198.508C193.628 133.438 189.672 129.482 189.672 124.602Z" fill="#B8E6CA"/>
<rect x="104" y="62" width="36" height="9" rx="4.5" fill="#EBEEF0"/>
<path d="M189.672 173.617C189.672 168.737 193.628 164.781 198.508 164.781H212.102C216.982 164.781 220.938 168.737 220.938 173.617C220.938 178.497 216.982 182.453 212.102 182.453H198.508C193.628 182.453 189.672 178.497 189.672 173.617Z" fill="#FFDED3"/>
<path d="M189.672 220.617C189.672 215.737 193.628 211.781 198.508 211.781H212.102C216.982 211.781 220.938 215.737 220.938 220.617C220.938 225.497 216.982 229.453 212.102 229.453H198.508C193.628 229.453 189.672 225.497 189.672 220.617Z" fill="#B8E6CA"/>
<rect x="102.672" y="175.656" width="55.7344" height="9.51562" rx="4.75781" fill="#EBEEF0"/>
<path d="M238 89.5L86 89.5" stroke="#EBEEF0" stroke-width="2"/>
<rect x="258" y="41" width="153" height="208" rx="11" fill="white"/>
<rect x="276.955" y="126.641" width="52.8053" height="9.51562" rx="4.75781" fill="#EBEEF0"/>
<rect x="276.955" y="111.688" width="18.9557" height="9.51562" rx="4.75781" fill="#EBEEF0"/>
<rect x="276.955" y="160.703" width="18.9557" height="9.51562" rx="4.75781" fill="#EBEEF0"/>
<rect x="276.955" y="207.703" width="18.9557" height="9.51562" rx="4.75781" fill="#EBEEF0"/>
<path d="M362.256 124.602C362.256 119.722 366.212 115.766 371.092 115.766H384.562C389.441 115.766 393.397 119.722 393.397 124.602C393.397 129.482 389.441 133.438 384.562 133.438H371.092C366.212 133.438 362.256 129.482 362.256 124.602Z" fill="#B8E6CA"/>
<rect x="277" y="62" width="36" height="9" rx="4.5" fill="#EBEEF0"/>
<path d="M401 89.5L258 89.5" stroke="#EBEEF0" stroke-width="2"/>
<path d="M362.256 173.617C362.256 168.737 366.212 164.781 371.092 164.781H384.562C389.441 164.781 393.397 168.737 393.397 173.617C393.397 178.497 389.441 182.453 384.562 182.453H371.092C366.212 182.453 362.256 178.497 362.256 173.617Z" fill="#FFDED3"/>
<path d="M362.256 220.617C362.256 215.737 366.212 211.781 371.092 211.781H384.562C389.441 211.781 393.397 215.737 393.397 220.617C393.397 225.497 389.441 229.453 384.562 229.453H371.092C366.212 229.453 362.256 225.497 362.256 220.617Z" fill="#FFDED3"/>
<rect x="275.602" y="175.656" width="55.5133" height="9.51562" rx="4.75781" fill="#EBEEF0"/>
</g>
<defs>
<clipPath id="clip0_1782_21770">
<rect width="496" height="216" fill="white"/>
</clipPath>
</defs>
</svg>
