<svg width="553" height="146" viewBox="0 0 553 146" fill="none" xmlns="http://www.w3.org/2000/svg">
<g clip-path="url(#clip0_2898_16714)">
<path d="M67.7277 34.5897C70.0426 32.2029 72.4844 30.0036 75.0372 28.0063C99.5652 8.76588 119.83 8.79677 147.886 12.3084C166.852 14.6816 177.933 23.7121 203.791 22.2919C229.65 20.8716 234.5 10.1167 271 14.3084C307.5 18.5 322.5 -1.5 360.5 1.5C398.5 4.5 412.5 33.5 432.5 43.5C452.5 53.5 469.5 52 482.5 78.5C495.5 105 486.5 162 446.5 184.5C406.5 207 347.145 209.886 324.061 212.053C296.123 214.677 273.066 183.736 244.867 190.902C227.496 195.317 217.193 213.836 203.791 226.057C188.155 240.315 154.472 239.419 136.164 231.809C118.716 224.559 101.744 210.187 96.0457 189.021C91.7077 172.902 90.5249 153.688 78.379 138.965C63.6807 121.149 54.7004 113.202 49.6542 89.004C45.2716 67.9885 54.701 48.0534 67.7277 34.5897Z" fill="#B8E6CA"/>
<mask id="mask0_2898_16714" style="mask-type:alpha" maskUnits="userSpaceOnUse" x="48" y="1" width="441" height="237">
<path d="M67.7277 34.5897C70.0426 32.2029 72.4844 30.0036 75.0372 28.0063C99.5652 8.76588 119.83 8.79677 147.886 12.3084C166.852 14.6816 177.933 23.7121 203.791 22.2919C229.65 20.8716 234.5 10.1167 271 14.3084C307.5 18.5 322.5 -1.5 360.5 1.5C398.5 4.5 412.5 33.5 432.5 43.5C452.5 53.5 469.5 52 482.5 78.5C495.5 105 486.5 162 446.5 184.5C406.5 207 347.145 209.886 324.061 212.053C296.123 214.677 273.066 183.736 244.867 190.902C227.496 195.317 217.193 213.836 203.791 226.057C188.155 240.315 154.472 239.419 136.164 231.809C118.716 224.559 101.744 210.187 96.0457 189.021C91.7077 172.902 90.5249 153.688 78.379 138.965C63.6807 121.149 54.7004 113.202 49.6542 89.004C45.2716 67.9885 54.701 48.0534 67.7277 34.5897Z" fill="#B8E6CA"/>
</mask>
<g mask="url(#mask0_2898_16714)">
<g filter="url(#filter0_d_2898_16714)">
<rect x="93" y="29.1807" width="112.625" height="153.111" rx="8.09722" fill="white"/>
<rect x="107.008" y="92.2217" width="39.0254" height="7.00456" rx="3.50228" fill="#EBEEF0"/>
<rect x="107.008" y="81.2144" width="14.0091" height="7.00456" rx="3.50228" fill="#EBEEF0"/>
<rect x="107.008" y="117.295" width="14.0091" height="7.00456" rx="3.50228" fill="#EBEEF0"/>
<path d="M170.051 90.7205C170.051 87.1284 172.963 84.2163 176.555 84.2163H186.562C190.154 84.2163 193.066 87.1284 193.066 90.7205C193.066 94.3127 190.154 97.2248 186.562 97.2248H176.555C172.963 97.2248 170.051 94.3127 170.051 90.7205Z" fill="#B8E6CA"/>
<rect x="106.984" y="44.6392" width="26.5" height="6.625" rx="3.3125" fill="#EBEEF0"/>
<path d="M170.051 126.802C170.051 123.209 172.963 120.297 176.555 120.297H186.562C190.154 120.297 193.066 123.209 193.066 126.802C193.066 130.394 190.154 133.306 186.562 133.306H176.555C172.963 133.306 170.051 130.394 170.051 126.802Z" fill="#FFDED3"/>
<rect x="106.008" y="128.303" width="41.0267" height="7.00456" rx="3.50228" fill="#EBEEF0"/>
<path d="M205.625 64.8818L93.7361 64.8818" stroke="#EBEEF0" stroke-width="1.47222"/>
<rect x="220.348" y="29.1807" width="112.625" height="153.111" rx="8.09722" fill="white"/>
<rect x="234.301" y="92.2217" width="38.8706" height="7.00456" rx="3.50228" fill="#EBEEF0"/>
<rect x="234.301" y="81.2144" width="13.9535" height="7.00456" rx="3.50228" fill="#EBEEF0"/>
<rect x="234.301" y="117.295" width="13.9535" height="7.00456" rx="3.50228" fill="#EBEEF0"/>
<path d="M297.094 90.7205C297.094 87.1284 300.006 84.2163 303.598 84.2163H313.513C317.105 84.2163 320.017 87.1284 320.017 90.7205C320.017 94.3127 317.105 97.2248 313.513 97.2248H303.598C300.006 97.2248 297.094 94.3127 297.094 90.7205Z" fill="#B8E6CA"/>
<rect x="234.332" y="44.6392" width="26.5" height="6.625" rx="3.3125" fill="#EBEEF0"/>
<path d="M325.613 64.8818L220.349 64.8818" stroke="#EBEEF0" stroke-width="1.47222"/>
<path d="M297.094 126.802C297.094 123.209 300.006 120.297 303.598 120.297H313.513C317.105 120.297 320.017 123.209 320.017 126.802C320.017 130.394 317.105 133.306 313.513 133.306H303.598C300.006 133.306 297.094 130.394 297.094 126.802Z" fill="#FFDED3"/>
<rect x="233.305" y="128.303" width="40.8639" height="7.00456" rx="3.50228" fill="#EBEEF0"/>
<rect x="347.695" y="29.1807" width="112.625" height="153.111" rx="8.09722" fill="white"/>
<rect x="361.648" y="92.2217" width="38.8706" height="7.00456" rx="3.50228" fill="#EBEEF0"/>
<rect x="361.648" y="81.2144" width="13.9535" height="7.00456" rx="3.50228" fill="#EBEEF0"/>
<rect x="361.648" y="117.295" width="13.9535" height="7.00456" rx="3.50228" fill="#EBEEF0"/>
<path d="M424.441 90.7205C424.441 87.1284 427.353 84.2163 430.946 84.2163H440.861C444.453 84.2163 447.365 87.1284 447.365 90.7205C447.365 94.3127 444.453 97.2248 440.861 97.2248H430.946C427.353 97.2248 424.441 94.3127 424.441 90.7205Z" fill="#FFDED3"/>
<rect x="361.68" y="44.6392" width="26.5" height="6.625" rx="3.3125" fill="#EBEEF0"/>
<path d="M452.961 64.8818L347.697 64.8818" stroke="#EBEEF0" stroke-width="1.47222"/>
<path d="M424.441 126.802C424.441 123.209 427.353 120.297 430.946 120.297H440.861C444.453 120.297 447.365 123.209 447.365 126.802C447.365 130.394 444.453 133.306 440.861 133.306H430.946C427.353 133.306 424.441 130.394 424.441 126.802Z" fill="#B8E6CA"/>
<rect x="360.652" y="128.303" width="40.8639" height="7.00456" rx="3.50228" fill="#EBEEF0"/>
</g>
</g>
</g>
<defs>
<filter id="filter0_d_2898_16714" x="77" y="17.1807" width="399.32" height="185.111" filterUnits="userSpaceOnUse" color-interpolation-filters="sRGB">
<feFlood flood-opacity="0" result="BackgroundImageFix"/>
<feColorMatrix in="SourceAlpha" type="matrix" values="0 0 0 0 0 0 0 0 0 0 0 0 0 0 0 0 0 0 127 0" result="hardAlpha"/>
<feOffset dy="4"/>
<feGaussianBlur stdDeviation="8"/>
<feComposite in2="hardAlpha" operator="out"/>
<feColorMatrix type="matrix" values="0 0 0 0 0 0 0 0 0 0 0 0 0 0 0 0 0 0 0.15 0"/>
<feBlend mode="normal" in2="BackgroundImageFix" result="effect1_dropShadow_2898_16714"/>
<feBlend mode="normal" in="SourceGraphic" in2="effect1_dropShadow_2898_16714" result="shape"/>
</filter>
<clipPath id="clip0_2898_16714">
<rect width="553" height="158" fill="white"/>
</clipPath>
</defs>
</svg>
