<svg width="233" height="117" viewBox="0 0 233 117" fill="none" xmlns="http://www.w3.org/2000/svg">
<path d="M2.95559 80.0142C4.45014 83.5827 6.57805 86.8584 9.23893 89.6868C19.6975 100.702 35.1501 101.636 49.3223 98.8798C63.6716 96.0705 77.1998 90.1138 88.9096 81.449C95.6479 76.4553 102.304 70.2581 111.226 69.9819C114.576 69.8791 118.04 70.802 120.571 72.9798C125.83 77.4767 125.736 85.1664 129.84 90.4963C135.298 97.5842 143.148 99.7791 151.71 100.597C175.901 102.906 204.716 95.3315 221.356 76.9028C236.213 60.4506 237.996 34.2723 220.013 19.2741C211.797 12.4217 200.53 9.28248 189.896 10.8821C181.769 12.1048 173.518 15.8244 165.105 16.8587C155.197 18.0792 149.072 13.9164 141.055 9.06834C127.086 0.642027 108.62 -2.59573 92.8074 2.29303C77.671 6.97193 66.777 19.7474 52.048 25.3599C39.321 30.2123 24.2865 29.4735 13.2278 37.3773C0.143251 46.7266 -3.14575 65.6028 2.95559 80.0142Z" fill="#F3F5F7"/>
<g style="mix-blend-mode:multiply" opacity="0.1">
<path d="M118.945 116.194C151.587 116.194 178.049 114.54 178.049 112.5C178.049 110.46 151.587 108.806 118.945 108.806C86.3019 108.806 59.8398 110.46 59.8398 112.5C59.8398 114.54 86.3019 116.194 118.945 116.194Z" fill="#161B18"/>
</g>
<path d="M118.945 116.194C151.587 116.194 178.049 114.54 178.049 112.5C178.049 110.46 151.587 108.806 118.945 108.806C86.3019 108.806 59.8398 110.46 59.8398 112.5C59.8398 114.54 86.3019 116.194 118.945 116.194Z" fill="#CBD0D3"/>
<path d="M99.7254 51.3871C101.483 57.9048 107.597 62.5126 114.081 64.3961C120.565 66.2795 127.458 65.9113 134.201 65.574C137.389 65.4158 140.65 65.2758 143.704 66.2007C146.758 67.1256 149.616 69.3375 150.428 72.4229C150.894 74.1965 150.549 76.1092 149.641 77.697" stroke="#161B18" stroke-width="1.39553" stroke-linecap="round" stroke-linejoin="round"/>
<path d="M87.114 62.4871C86.0987 78.5624 80.5032 92.9838 84.2435 111.105H79.9844" stroke="#161B18" stroke-width="1.39977" stroke-linecap="round" stroke-linejoin="round"/>
<path d="M91.9289 111.105H87.668L95.1989 62.4871" stroke="#161B18" stroke-width="1.39977" stroke-linecap="round" stroke-linejoin="round"/>
<path d="M73.5273 57.4189C69.8918 59.0607 62.9136 62.718 62.914 70.1429" stroke="black" stroke-width="1.39553" stroke-linecap="round"/>
<path d="M103.118 84.0703L100.161 84.3386L82.1209 85.9706L71.5758 86.9226L70.5754 63.4316L68.8359 22.5513L101.748 21.353L102.412 51.7983L102.502 55.8966L103.114 83.9747L103.118 84.0703Z" fill="#CBD0D3"/>
<path d="M100.163 84.3385L101.86 84.1841L103.121 84.0702L101.75 21.3511L99.8589 21.4375L100.876 80.8955L71.4375 83.6806L71.5401 86.0219L71.5793 86.9206L82.1245 85.9687L100.165 84.3367L100.163 84.3385Z" fill="#999F9B"/>
<path d="M62.9122 70.1429C62.9124 74.4643 67.8289 77.5799 71.336 76.056" stroke="black" stroke-width="1.39553" stroke-linecap="round"/>
<path d="M159.169 21.7905L136.184 110.858" stroke="#7B807D" stroke-width="3.60658" stroke-miterlimit="10" stroke-linecap="round"/>
<path d="M157.57 14.8965L123.419 49.2474C122.973 49.6965 122.653 50.2551 122.491 50.867C122.329 51.479 122.331 52.1228 122.497 52.7337C122.663 53.3446 122.986 53.9012 123.435 54.3474C123.884 54.7936 124.443 55.1138 125.055 55.2758L171.877 67.6753C172.49 67.8376 173.134 67.8357 173.745 67.6698C174.357 67.5039 174.914 67.1799 175.36 66.7304C175.807 66.2809 176.127 65.7217 176.288 65.1091C176.45 64.4966 176.447 63.8522 176.281 63.241L163.607 16.496C163.442 15.8852 163.118 15.3287 162.669 14.8825C162.22 14.4363 161.662 14.1161 161.05 13.954C160.438 13.7919 159.795 13.7937 159.184 13.9591C158.573 14.1246 158.016 14.4479 157.57 14.8965Z" fill="#E77D5B"/>
<path d="M153.345 35.2519L155.348 27.6863L159.253 28.7202L157.25 36.2858L154.376 45.449L151.273 44.6274L153.345 35.2519ZM150.636 53.3754C149.892 53.1785 149.32 52.7536 148.921 52.1007C148.551 51.4307 148.465 50.7238 148.662 49.98C148.859 49.2363 149.281 48.6764 149.927 48.3004C150.597 47.9306 151.304 47.8442 152.048 48.0411C152.792 48.2381 153.352 48.6599 153.728 49.3066C154.103 49.9534 154.193 50.6486 153.996 51.3924C153.799 52.1362 153.374 52.7077 152.721 53.1069C152.075 53.4828 151.379 53.5723 150.636 53.3754Z" fill="#962C0A"/>
<path d="M149.639 77.6966C148.811 79.1528 147.478 80.255 145.892 80.7947C142.557 81.9359 138.493 80.1224 137.114 76.8794" stroke="#161B18" stroke-width="1.39553" stroke-linecap="round" stroke-linejoin="round"/>
</svg>
