<svg width="380" height="144" viewBox="0 0 380 144" fill="none" xmlns="http://www.w3.org/2000/svg">
<path d="M335.878 79.0336C357.308 119.118 349.94 177.093 304.85 198.473C259.759 219.854 223.573 183.297 202.554 184.519C181.534 185.74 178.945 206.648 154.742 221.62C130.54 236.593 61.8707 231.313 22.5309 200.078C-16.8089 168.843 2.12934 95.9274 36.8754 78.7403C71.6215 61.5532 82.057 80.3668 117.126 66.1815C152.195 51.9962 144.408 26.5354 176.054 10.8946C246.681 -24.0128 314.448 38.9488 335.878 79.0336Z" fill="#D0FBE1"/>
<g filter="url(#filter0_d_1843_53306)">
<rect x="81.207" y="16.8124" width="171.958" height="172.674" rx="9.38045" fill="#EBEEF0"/>
<mask id="mask0_1843_53306" style="mask-type:alpha" maskUnits="userSpaceOnUse" x="81" y="16" width="173" height="176">
<rect x="81.207" y="16.8124" width="171.958" height="174.824" rx="9.38045" fill="#DEE3E6"/>
</mask>
<g mask="url(#mask0_1843_53306)">
<rect x="91.9531" y="76.9977" width="70.216" height="95.2932" rx="5.03954" fill="white"/>
<rect x="100.672" y="116.233" width="24.2886" height="4.35949" rx="2.17975" fill="#EBEEF0"/>
<rect x="100.672" y="109.383" width="8.71898" height="4.35949" rx="2.17975" fill="#EBEEF0"/>
<rect x="100.672" y="131.839" width="8.71898" height="4.35949" rx="2.17975" fill="#EBEEF0"/>
<path d="M139.906 115.299C139.906 113.063 141.719 111.251 143.954 111.251H150.182C152.418 111.251 154.23 113.063 154.23 115.299C154.23 117.535 152.418 119.347 150.182 119.347H143.954C141.719 119.347 139.906 117.535 139.906 115.299Z" fill="#B8E6CA"/>
<rect x="100.656" y="86.6187" width="16.4931" height="4.12326" rx="2.06163" fill="#EBEEF0"/>
<path d="M139.906 137.755C139.906 135.519 141.719 133.707 143.954 133.707H150.182C152.418 133.707 154.23 135.519 154.23 137.755C154.23 139.991 152.418 141.803 150.182 141.803H143.954C141.719 141.803 139.906 139.991 139.906 137.755Z" fill="#FFDED3"/>
<rect x="100.051" y="138.689" width="25.5342" height="4.35949" rx="2.17975" fill="#EBEEF0"/>
<path d="M162.047 99.2175L92.4095 99.2175" stroke="#EBEEF0" stroke-width="0.916281"/>
<rect x="170.766" y="76.9977" width="70.216" height="95.2932" rx="5.03954" fill="white"/>
<rect x="179.91" y="116.233" width="24.2339" height="4.35949" rx="2.17975" fill="#EBEEF0"/>
<rect x="179.91" y="109.383" width="8.69933" height="4.35949" rx="2.17975" fill="#EBEEF0"/>
<rect x="179.91" y="131.839" width="8.69933" height="4.35949" rx="2.17975" fill="#EBEEF0"/>
<path d="M219.055 115.299C219.055 113.063 220.867 111.251 223.103 111.251H229.298C231.534 111.251 233.346 113.063 233.346 115.299C233.346 117.535 231.534 119.347 229.298 119.347H223.103C220.867 119.347 219.055 117.535 219.055 115.299Z" fill="#B8E6CA"/>
<rect x="179.93" y="86.6187" width="16.5214" height="4.12326" rx="2.06163" fill="#EBEEF0"/>
<path d="M240.98 99.2175L170.764 99.2175" stroke="#EBEEF0" stroke-width="0.916281"/>
<path d="M219.055 137.755C219.055 135.519 220.867 133.707 223.103 133.707H229.298C231.534 133.707 233.346 135.519 233.346 137.755C233.346 139.991 231.534 141.803 229.298 141.803H223.103C220.867 141.803 219.055 139.991 219.055 137.755Z" fill="#FFDED3"/>
<rect x="179.289" y="138.689" width="25.4766" height="4.35949" rx="2.17975" fill="#EBEEF0"/>
<rect width="46.6602" height="25.4531" rx="3.11094" transform="matrix(1 0 0 -1 194.324 66.7487)" fill="white"/>
<rect width="7.07032" height="2.2625" rx="1.13125" transform="matrix(1 0 0 -1 198.848 62.2237)" fill="#EBEEF0"/>
<rect width="14.1395" height="5.65625" rx="2.82813" transform="matrix(1 0 0 -1 198.848 57.4159)" fill="#FFDED3"/>
<rect width="37.611" height="2.2625" rx="1.13125" transform="matrix(1 0 0 -1 198.848 47.5175)" fill="#EBEEF0"/>
<path d="M201.392 55.4362L203.257 53.5715M203.257 53.5715L203.277 55.0426M203.257 53.5715L201.786 53.5508" stroke="white" stroke-width="0.424219" stroke-linecap="round" stroke-linejoin="round"/>
<rect width="5.65625" height="1.69688" rx="0.565625" transform="matrix(1 0 0 -1 205.07 55.4362)" fill="white"/>
<rect width="46.6602" height="25.4531" rx="3.11094" transform="matrix(1 0 0 -1 143.137 66.7487)" fill="white"/>
<rect width="29.6929" height="2.2625" rx="1.13125" transform="matrix(1 0 0 -1 147.66 62.2237)" fill="#EBEEF0"/>
<rect width="14.1395" height="5.65625" rx="2.82813" transform="matrix(1 0 0 -1 147.66 57.4159)" fill="#B8E6CA"/>
<rect width="37.611" height="2.2625" rx="1.13125" transform="matrix(1 0 0 -1 147.66 47.5175)" fill="#EBEEF0"/>
<path d="M150.207 53.5508L152.072 55.4155M152.072 55.4155L150.601 55.4362M152.072 55.4155L152.092 53.9445" stroke="white" stroke-width="0.424219" stroke-linecap="round" stroke-linejoin="round"/>
<rect width="5.65625" height="1.69688" rx="0.565625" transform="matrix(1 0 0 -1 153.883 55.4362)" fill="white"/>
<rect width="46.6602" height="25.4531" rx="3.11094" transform="matrix(1 0 0 -1 91.9531 66.7487)" fill="white"/>
<rect width="18.0985" height="2.2625" rx="1.13125" transform="matrix(1 0 0 -1 96.4766 62.2237)" fill="#EBEEF0"/>
<path d="M96.4766 54.5878C96.4766 56.1497 97.7428 57.4159 99.3047 57.4159H107.788C109.35 57.4159 110.616 56.1497 110.616 54.5878C110.616 53.0258 109.35 51.7596 107.788 51.7596H99.3047C97.7428 51.7596 96.4766 53.0258 96.4766 54.5878Z" fill="#B8E6CA"/>
<rect width="37.611" height="2.2625" rx="1.13125" transform="matrix(1 0 0 -1 96.4766 47.5175)" fill="#EBEEF0"/>
<path d="M99.0234 53.5508L100.888 55.4155M100.888 55.4155L99.4171 55.4362M100.888 55.4155L100.909 53.9445" stroke="white" stroke-width="0.424219" stroke-linecap="round" stroke-linejoin="round"/>
<rect width="5.65625" height="1.69688" rx="0.565625" transform="matrix(1 0 0 -1 102.699 55.4362)" fill="white"/>
</g>
<path d="M81.207 26.2378C81.207 21.0571 85.4068 16.8573 90.5875 16.8573H243.572C248.752 16.8573 252.952 21.0571 252.952 26.2378V31.0707H81.207V26.2378Z" fill="white"/>
<rect x="88.3125" y="21.5949" width="4.73779" height="4.73779" rx="2.3689" fill="#F3F5F7"/>
<rect x="95.4219" y="21.5949" width="4.73779" height="4.73779" rx="2.3689" fill="#F3F5F7"/>
<rect x="102.586" y="21.5949" width="4.73779" height="4.73779" rx="2.3689" fill="#F3F5F7"/>
</g>
<path d="M315.175 99.836C310.71 95.0744 309.52 77.8135 309.52 77.8135C309.52 77.8135 308.627 95.0744 304.163 99.836C299.699 104.598 286.902 105.49 286.902 105.49C286.902 105.49 301.187 107.276 304.461 112.335C307.734 117.395 309.52 133.465 309.52 133.465C309.52 133.465 310.71 115.906 315.175 111.442C319.639 106.978 332.435 105.49 332.435 105.49C332.435 105.49 319.639 104.598 315.175 99.836Z" fill="#FFFAEF"/>
<path d="M284.044 129.574C281.394 126.748 280.687 116.502 280.687 116.502C280.687 116.502 280.157 126.748 277.507 129.574C274.858 132.4 267.262 132.93 267.262 132.93C267.262 132.93 275.741 133.99 277.684 136.993C279.627 139.996 280.687 149.536 280.687 149.536C280.687 149.536 281.394 139.113 284.044 136.463C286.693 133.814 294.289 132.93 294.289 132.93C294.289 132.93 286.693 132.4 284.044 129.574Z" fill="#FFFAEF"/>
<path d="M297.137 67.6732C294.488 64.8468 293.781 54.601 293.781 54.601C293.781 54.601 293.251 64.8468 290.601 67.6732C287.951 70.4996 280.355 71.0296 280.355 71.0296C280.355 71.0296 288.835 72.0895 290.778 75.0926C292.721 78.0956 293.781 87.6348 293.781 87.6348C293.781 87.6348 294.488 77.2124 297.137 74.5626C299.787 71.9128 307.383 71.0296 307.383 71.0296C307.383 71.0296 299.787 70.4996 297.137 67.6732Z" fill="#FFFAEF"/>
<defs>
<filter id="filter0_d_1843_53306" x="69.7432" y="8.21456" width="194.885" height="195.602" filterUnits="userSpaceOnUse" color-interpolation-filters="sRGB">
<feFlood flood-opacity="0" result="BackgroundImageFix"/>
<feColorMatrix in="SourceAlpha" type="matrix" values="0 0 0 0 0 0 0 0 0 0 0 0 0 0 0 0 0 0 127 0" result="hardAlpha"/>
<feOffset dy="2.86596"/>
<feGaussianBlur stdDeviation="5.73192"/>
<feComposite in2="hardAlpha" operator="out"/>
<feColorMatrix type="matrix" values="0 0 0 0 0 0 0 0 0 0 0 0 0 0 0 0 0 0 0.15 0"/>
<feBlend mode="normal" in2="BackgroundImageFix" result="effect1_dropShadow_1843_53306"/>
<feBlend mode="normal" in="SourceGraphic" in2="effect1_dropShadow_1843_53306" result="shape"/>
</filter>
</defs>
</svg>
