<svg width="508" height="264" viewBox="0 0 508 264" fill="none" xmlns="http://www.w3.org/2000/svg">
<g clip-path="url(#clip0_1461_10788)">
<path d="M27.8435 -34.2841C31.0864 -37.6266 34.5072 -40.7065 38.0835 -43.5035C72.4453 -70.4482 100.835 -70.405 140.138 -65.4873C166.709 -62.1638 182.232 -49.5172 218.458 -51.5062C254.683 -53.4951 263.964 -62.7022 308.307 -59.7531C343.409 -57.4186 385.996 -59.2071 417.204 -43C446.086 -28.0005 466.663 -11.5544 472.647 58.4126C478.631 128.38 442.144 230.732 386.946 230.732C321.136 230.732 314.64 188.443 275.136 198.478C250.8 204.661 234.411 227.379 215.636 244.493C193.731 264.462 149.366 269.057 123.717 258.4C99.2743 248.246 75.4975 228.12 67.5147 198.478C61.4375 175.906 59.7805 148.997 42.7651 128.38C22.1739 103.429 9.5933 92.2994 2.52398 58.4126C-3.61571 28.982 9.59402 -15.4293 27.8435 -34.2841Z" fill="#B8E6CA"/>
<mask id="mask0_1461_10788" style="mask-type:alpha" maskUnits="userSpaceOnUse" x="1" y="-68" width="473" height="332">
<path d="M27.8435 -34.2841C31.0864 -37.6266 34.5072 -40.7065 38.0835 -43.5035C72.4453 -70.4482 100.835 -70.405 140.138 -65.4873C166.709 -62.1638 182.232 -49.5172 218.458 -51.5062C254.683 -53.4951 263.964 -62.7022 308.307 -59.7531C343.409 -57.4186 385.996 -59.2071 417.204 -43C446.086 -28.0005 466.663 -11.5544 472.647 58.4126C478.631 128.38 442.144 230.732 386.946 230.732C321.136 230.732 314.64 188.443 275.136 198.478C250.8 204.661 234.411 227.379 215.636 244.493C193.731 264.462 149.366 269.057 123.717 258.4C99.2743 248.246 75.4975 228.12 67.5147 198.478C61.4375 175.906 59.7805 148.997 42.7651 128.38C22.1739 103.429 9.5933 92.2994 2.52398 58.4126C-3.61571 28.982 9.59402 -15.4293 27.8435 -34.2841Z" fill="#B8E6CA"/>
</mask>
<g mask="url(#mask0_1461_10788)">
<g filter="url(#filter0_d_1461_10788)">
<rect x="127.534" y="40" width="239.703" height="163.659" rx="13.0922" fill="white"/>
<mask id="mask1_1461_10788" style="mask-type:alpha" maskUnits="userSpaceOnUse" x="127" y="40" width="241" height="164">
<rect x="127.534" y="40" width="239.703" height="163.659" rx="13.0922" fill="white"/>
</mask>
<g mask="url(#mask1_1461_10788)">
<path opacity="0.2" d="M390.687 201.635C390.687 203.216 390.582 208.552 390.219 209.135C389.855 209.717 389.75 210.135 387.24 211.635C382.172 214.391 374.682 216.135 366.327 216.135C351.062 216.135 331.136 210.659 331.136 203.479C331.136 201.319 330.654 193.282 332.636 191.49C337.241 187.324 354.963 185.99 365.636 185.99C380.901 185.99 390.687 194.455 390.687 201.635Z" fill="#B8BDB9"/>
</g>
<rect x="140.534" y="73" width="73" height="70" rx="4.90958" fill="#DCE8FF"/>
<path d="M140.534 77.9096C140.534 75.1981 142.732 73 145.444 73H208.625C211.336 73 213.534 75.1981 213.534 77.9096V113H140.534V77.9096Z" fill="#BED4FF"/>
<rect x="140.534" y="156" width="73" height="30" rx="4.90958" fill="#EBEEF0"/>
<circle cx="155.534" cy="88" r="5" fill="#7F9CD4"/>
<path d="M166.904 94.7679L157.534 106H196.534L182.352 89L172.222 101.143L166.904 94.7679Z" fill="#7F9CD4"/>
<rect x="164.534" y="130" width="24" height="7" rx="3.5" fill="#7F9CD4"/>
<path fill-rule="evenodd" clip-rule="evenodd" d="M196.534 122C196.534 123.105 195.639 124 194.534 124H159.534C158.43 124 157.534 123.105 157.534 122C157.534 120.895 158.43 120 159.534 120H194.534C195.639 120 196.534 120.895 196.534 122Z" fill="#BED4FF"/>
<path d="M127.534 53.1547C127.534 45.9241 133.396 40.0625 140.626 40.0625H354.145C361.376 40.0625 367.237 45.9241 367.237 53.1547V59.9H127.534V53.1547Z" fill="#EBEEF0"/>
<rect x="137.453" y="46.6748" width="6.6125" height="6.6125" rx="3.30625" fill="#CBD0D3"/>
<rect x="147.372" y="46.6748" width="6.6125" height="6.6125" rx="3.30625" fill="#CBD0D3"/>
<rect x="232.534" y="73" width="117" height="49" rx="5.19114" fill="#EBEEF0"/>
<rect x="232.534" y="132" width="86" height="11" rx="5.5" fill="#EBEEF0"/>
<rect x="232.534" y="156" width="94" height="5" rx="2.5" fill="#EBEEF0"/>
<rect x="232.534" y="169" width="109" height="5" rx="2.5" fill="#EBEEF0"/>
<rect x="232.534" y="181" width="80" height="5" rx="2.5" fill="#EBEEF0"/>
</g>
<path opacity="0.2" fill-rule="evenodd" clip-rule="evenodd" d="M330.921 203.649C330.983 203.762 331.055 203.875 331.136 203.99C333.636 207.5 351.011 221.98 366.276 221.98C374.631 221.98 382.121 220.236 387.189 217.48C389.489 216.105 389.769 215.639 390.08 215.123C390.108 215.076 390.137 215.028 390.167 214.98C390.531 214.397 390.636 209.061 390.636 207.48C390.636 200.3 381.541 195.98 366.276 195.98C366.239 195.98 366.203 195.979 366.167 195.979C364.105 200.504 359.543 203.649 354.247 203.649H330.921Z" fill="#144A29"/>
<path opacity="0.2" fill-rule="evenodd" clip-rule="evenodd" d="M418.167 202.979C418.531 202.397 418.636 197.061 418.636 195.479C418.636 188.3 409.54 183.979 394.275 183.979C379.01 183.979 366.636 189.8 366.636 196.979C366.636 204.159 379.01 209.979 394.275 209.979C402.631 209.979 410.121 208.236 415.189 205.479C417.489 204.105 417.769 203.639 418.08 203.123C418.108 203.076 418.137 203.028 418.167 202.979Z" fill="#144A29"/>
<path d="M398.024 207.614C409.893 207.614 419.514 204.087 419.514 199.735V196.87H376.534V199.735C376.534 204.087 386.156 207.614 398.024 207.614Z" fill="#E1B155"/>
<ellipse cx="398.024" cy="195.869" rx="21.49" ry="7.87965" fill="#FECE72"/>
<path d="M397.374 198.353V197.873C397.063 197.851 396.763 197.8 396.472 197.719C396.182 197.634 395.926 197.52 395.703 197.377C395.48 197.23 395.315 197.052 395.207 196.843L396.158 196.633C396.239 196.795 396.388 196.94 396.604 197.069C396.827 197.197 397.083 197.28 397.374 197.317V196.093L397.343 196.082C396.803 195.972 396.358 195.829 396.007 195.652C395.656 195.472 395.48 195.243 395.48 194.964C395.48 194.798 395.554 194.642 395.703 194.495C395.858 194.348 396.077 194.227 396.361 194.132C396.645 194.032 396.982 193.974 397.374 193.955V193.481H398.184V193.966C398.535 193.996 398.829 194.053 399.065 194.137C399.308 194.218 399.497 194.312 399.632 194.418C399.774 194.525 399.872 194.626 399.926 194.721L398.994 194.942C398.94 194.861 398.845 194.78 398.71 194.699C398.582 194.618 398.407 194.558 398.184 194.517V195.675C398.548 195.755 398.872 195.845 399.156 195.945C399.44 196.04 399.662 196.156 399.824 196.292C399.993 196.424 400.078 196.589 400.078 196.788C400.078 197.004 399.986 197.188 399.804 197.339C399.629 197.489 399.396 197.609 399.105 197.697C398.822 197.785 398.515 197.842 398.184 197.868V198.353H397.374ZM396.523 194.964C396.523 195.081 396.594 195.18 396.736 195.261C396.884 195.338 397.097 195.414 397.374 195.487V194.495C397.124 194.525 396.918 194.582 396.756 194.666C396.601 194.751 396.523 194.85 396.523 194.964ZM399.024 196.793C399.024 196.668 398.95 196.567 398.802 196.49C398.66 196.413 398.454 196.339 398.184 196.27V197.311C398.427 197.278 398.626 197.217 398.781 197.129C398.943 197.041 399.024 196.929 399.024 196.793Z" fill="#AA7A1E"/>
<path d="M398.024 201.614C409.893 201.614 419.514 198.087 419.514 193.735V190.87H376.534V193.735C376.534 198.087 386.156 201.614 398.024 201.614Z" fill="#E1B155"/>
<ellipse cx="398.024" cy="189.869" rx="21.49" ry="7.87965" fill="#FECE72"/>
<path d="M397.374 192.353V191.873C397.063 191.851 396.763 191.8 396.472 191.719C396.182 191.634 395.926 191.52 395.703 191.377C395.48 191.23 395.315 191.052 395.207 190.843L396.158 190.633C396.239 190.795 396.388 190.94 396.604 191.069C396.827 191.197 397.083 191.28 397.374 191.317V190.093L397.343 190.082C396.803 189.972 396.358 189.829 396.007 189.652C395.656 189.472 395.48 189.243 395.48 188.964C395.48 188.798 395.554 188.642 395.703 188.495C395.858 188.348 396.077 188.227 396.361 188.132C396.645 188.032 396.982 187.974 397.374 187.955V187.481H398.184V187.966C398.535 187.996 398.829 188.053 399.065 188.137C399.308 188.218 399.497 188.312 399.632 188.418C399.774 188.525 399.872 188.626 399.926 188.721L398.994 188.942C398.94 188.861 398.845 188.78 398.71 188.699C398.582 188.618 398.407 188.558 398.184 188.517V189.675C398.548 189.755 398.872 189.845 399.156 189.945C399.44 190.04 399.662 190.156 399.824 190.292C399.993 190.424 400.078 190.589 400.078 190.788C400.078 191.004 399.986 191.188 399.804 191.339C399.629 191.489 399.396 191.609 399.105 191.697C398.822 191.785 398.515 191.842 398.184 191.868V192.353H397.374ZM396.523 188.964C396.523 189.081 396.594 189.18 396.736 189.261C396.884 189.338 397.097 189.414 397.374 189.487V188.495C397.124 188.525 396.918 188.582 396.756 188.666C396.601 188.751 396.523 188.85 396.523 188.964ZM399.024 190.793C399.024 190.668 398.95 190.567 398.802 190.49C398.66 190.413 398.454 190.339 398.184 190.27V191.311C398.427 191.278 398.626 191.217 398.781 191.129C398.943 191.041 399.024 190.929 399.024 190.793Z" fill="#AA7A1E"/>
<path d="M398.024 195.614C409.893 195.614 419.514 192.087 419.514 187.735V184.87H376.534V187.735C376.534 192.087 386.156 195.614 398.024 195.614Z" fill="#E1B155"/>
<ellipse cx="398.024" cy="183.869" rx="21.49" ry="7.87965" fill="#FECE72"/>
<path d="M397.374 186.353V185.873C397.063 185.851 396.763 185.8 396.472 185.719C396.182 185.634 395.926 185.52 395.703 185.377C395.48 185.23 395.315 185.052 395.207 184.843L396.158 184.633C396.239 184.795 396.388 184.94 396.604 185.069C396.827 185.197 397.083 185.28 397.374 185.317V184.093L397.343 184.082C396.803 183.972 396.358 183.829 396.007 183.652C395.656 183.472 395.48 183.243 395.48 182.964C395.48 182.798 395.554 182.642 395.703 182.495C395.858 182.348 396.077 182.227 396.361 182.132C396.645 182.032 396.982 181.974 397.374 181.955V181.481H398.184V181.966C398.535 181.996 398.829 182.053 399.065 182.137C399.308 182.218 399.497 182.312 399.632 182.418C399.774 182.525 399.872 182.626 399.926 182.721L398.994 182.942C398.94 182.861 398.845 182.78 398.71 182.699C398.582 182.618 398.407 182.558 398.184 182.517V183.675C398.548 183.755 398.872 183.845 399.156 183.945C399.44 184.04 399.662 184.156 399.824 184.292C399.993 184.424 400.078 184.589 400.078 184.788C400.078 185.004 399.986 185.188 399.804 185.339C399.629 185.489 399.396 185.609 399.105 185.697C398.822 185.785 398.515 185.842 398.184 185.868V186.353H397.374ZM396.523 182.964C396.523 183.081 396.594 183.18 396.736 183.261C396.884 183.338 397.097 183.414 397.374 183.487V182.495C397.124 182.525 396.918 182.582 396.756 182.666C396.601 182.751 396.523 182.85 396.523 182.964ZM399.024 184.793C399.024 184.668 398.95 184.567 398.802 184.49C398.66 184.413 398.454 184.339 398.184 184.27V185.311C398.427 185.278 398.626 185.217 398.781 185.129C398.943 185.041 399.024 184.929 399.024 184.793Z" fill="#AA7A1E"/>
<path d="M398.024 189.614C409.893 189.614 419.514 186.087 419.514 181.735V178.87H376.534V181.735C376.534 186.087 386.156 189.614 398.024 189.614Z" fill="#E1B155"/>
<ellipse cx="398.024" cy="177.869" rx="21.49" ry="7.87965" fill="#FECE72"/>
<path d="M397.374 180.353V179.873C397.063 179.851 396.763 179.8 396.472 179.719C396.182 179.634 395.926 179.52 395.703 179.377C395.48 179.23 395.315 179.052 395.207 178.843L396.158 178.633C396.239 178.795 396.388 178.94 396.604 179.069C396.827 179.197 397.083 179.28 397.374 179.317V178.093L397.343 178.082C396.803 177.972 396.358 177.829 396.007 177.652C395.656 177.472 395.48 177.243 395.48 176.964C395.48 176.798 395.554 176.642 395.703 176.495C395.858 176.348 396.077 176.227 396.361 176.132C396.645 176.032 396.982 175.974 397.374 175.955V175.481H398.184V175.966C398.535 175.996 398.829 176.053 399.065 176.137C399.308 176.218 399.497 176.312 399.632 176.418C399.774 176.525 399.872 176.626 399.926 176.721L398.994 176.942C398.94 176.861 398.845 176.78 398.71 176.699C398.582 176.618 398.407 176.558 398.184 176.517V177.675C398.548 177.755 398.872 177.845 399.156 177.945C399.44 178.04 399.662 178.156 399.824 178.292C399.993 178.424 400.078 178.589 400.078 178.788C400.078 179.004 399.986 179.188 399.804 179.339C399.629 179.489 399.396 179.609 399.105 179.697C398.822 179.785 398.515 179.842 398.184 179.868V180.353H397.374ZM396.523 176.964C396.523 177.081 396.594 177.18 396.736 177.261C396.884 177.338 397.097 177.414 397.374 177.487V176.495C397.124 176.525 396.918 176.582 396.756 176.666C396.601 176.751 396.523 176.85 396.523 176.964ZM399.024 178.793C399.024 178.668 398.95 178.567 398.802 178.49C398.66 178.413 398.454 178.339 398.184 178.27V179.311C398.427 179.278 398.626 179.217 398.781 179.129C398.943 179.041 399.024 178.929 399.024 178.793Z" fill="#AA7A1E"/>
<path d="M398.024 183.614C409.893 183.614 419.514 180.087 419.514 175.735V172.87H376.534V175.735C376.534 180.087 386.156 183.614 398.024 183.614Z" fill="#E1B155"/>
<ellipse cx="398.024" cy="171.869" rx="21.49" ry="7.87965" fill="#FECE72"/>
<path d="M397.374 174.353V173.873C397.063 173.851 396.763 173.8 396.472 173.719C396.182 173.634 395.926 173.52 395.703 173.377C395.48 173.23 395.315 173.052 395.207 172.843L396.158 172.633C396.239 172.795 396.388 172.94 396.604 173.069C396.827 173.197 397.083 173.28 397.374 173.317V172.093L397.343 172.082C396.803 171.972 396.358 171.829 396.007 171.652C395.656 171.472 395.48 171.243 395.48 170.964C395.48 170.798 395.554 170.642 395.703 170.495C395.858 170.348 396.077 170.227 396.361 170.132C396.645 170.032 396.982 169.974 397.374 169.955V169.481H398.184V169.966C398.535 169.996 398.829 170.053 399.065 170.137C399.308 170.218 399.497 170.312 399.632 170.418C399.774 170.525 399.872 170.626 399.926 170.721L398.994 170.942C398.94 170.861 398.845 170.78 398.71 170.699C398.582 170.618 398.407 170.558 398.184 170.517V171.675C398.548 171.755 398.872 171.845 399.156 171.945C399.44 172.04 399.662 172.156 399.824 172.292C399.993 172.424 400.078 172.589 400.078 172.788C400.078 173.004 399.986 173.188 399.804 173.339C399.629 173.489 399.396 173.609 399.105 173.697C398.822 173.785 398.515 173.842 398.184 173.868V174.353H397.374ZM396.523 170.964C396.523 171.081 396.594 171.18 396.736 171.261C396.884 171.338 397.097 171.414 397.374 171.487V170.495C397.124 170.525 396.918 170.582 396.756 170.666C396.601 170.751 396.523 170.85 396.523 170.964ZM399.024 172.793C399.024 172.668 398.95 172.567 398.802 172.49C398.66 172.413 398.454 172.339 398.184 172.27V173.311C398.427 173.278 398.626 173.217 398.781 173.129C398.943 173.041 399.024 172.929 399.024 172.793Z" fill="#AA7A1E"/>
<path d="M398.024 177.614C409.893 177.614 419.514 174.087 419.514 169.735V166.87H376.534V169.735C376.534 174.087 386.156 177.614 398.024 177.614Z" fill="#E1B155"/>
<ellipse cx="398.024" cy="165.869" rx="21.49" ry="7.87965" fill="#FECE72"/>
<path d="M397.374 168.353V167.873C397.063 167.851 396.763 167.8 396.472 167.719C396.182 167.634 395.926 167.52 395.703 167.377C395.48 167.23 395.315 167.052 395.207 166.843L396.158 166.633C396.239 166.795 396.388 166.94 396.604 167.069C396.827 167.197 397.083 167.28 397.374 167.317V166.093L397.343 166.082C396.803 165.972 396.358 165.829 396.007 165.652C395.656 165.472 395.48 165.243 395.48 164.964C395.48 164.798 395.554 164.642 395.703 164.495C395.858 164.348 396.077 164.227 396.361 164.132C396.645 164.032 396.982 163.974 397.374 163.955V163.481H398.184V163.966C398.535 163.996 398.829 164.053 399.065 164.137C399.308 164.218 399.497 164.312 399.632 164.418C399.774 164.525 399.872 164.626 399.926 164.721L398.994 164.942C398.94 164.861 398.845 164.78 398.71 164.699C398.582 164.618 398.407 164.558 398.184 164.517V165.675C398.548 165.755 398.872 165.845 399.156 165.945C399.44 166.04 399.662 166.156 399.824 166.292C399.993 166.424 400.078 166.589 400.078 166.788C400.078 167.004 399.986 167.188 399.804 167.339C399.629 167.489 399.396 167.609 399.105 167.697C398.822 167.785 398.515 167.842 398.184 167.868V168.353H397.374ZM396.523 164.964C396.523 165.081 396.594 165.18 396.736 165.261C396.884 165.338 397.097 165.414 397.374 165.487V164.495C397.124 164.525 396.918 164.582 396.756 164.666C396.601 164.751 396.523 164.85 396.523 164.964ZM399.024 166.793C399.024 166.668 398.95 166.567 398.802 166.49C398.66 166.413 398.454 166.339 398.184 166.27V167.311C398.427 167.278 398.626 167.217 398.781 167.129C398.943 167.041 399.024 166.929 399.024 166.793Z" fill="#AA7A1E"/>
<path d="M415.837 165.869C415.837 166.417 415.518 167.057 414.671 167.75C413.83 168.439 412.564 169.094 410.928 169.661C407.664 170.791 403.102 171.504 398.024 171.504C392.947 171.504 388.384 170.791 385.12 169.661C383.484 169.094 382.218 168.439 381.377 167.75C380.53 167.057 380.211 166.417 380.211 165.869C380.211 165.321 380.53 164.681 381.377 163.988C382.218 163.3 383.484 162.644 385.12 162.078C388.384 160.948 392.947 160.234 398.024 160.234C403.102 160.234 407.664 160.948 410.928 162.078C412.564 162.644 413.83 163.3 414.671 163.988C415.518 164.681 415.837 165.321 415.837 165.869Z" stroke="#E1B155" stroke-width="1.62369"/>
<path d="M369.024 220.614C380.893 220.614 390.514 217.087 390.514 212.735V209.87H347.534V212.735C347.534 217.087 357.156 220.614 369.024 220.614Z" fill="#E1B155"/>
<ellipse cx="369.024" cy="208.869" rx="21.49" ry="7.87965" fill="#FECE72"/>
<path d="M368.374 211.353V210.873C368.063 210.851 367.763 210.8 367.472 210.719C367.182 210.634 366.926 210.52 366.703 210.377C366.48 210.23 366.315 210.052 366.207 209.843L367.158 209.633C367.239 209.795 367.388 209.94 367.604 210.069C367.827 210.197 368.083 210.28 368.374 210.317V209.093L368.343 209.082C367.803 208.972 367.358 208.829 367.007 208.652C366.656 208.472 366.48 208.243 366.48 207.964C366.48 207.798 366.554 207.642 366.703 207.495C366.858 207.348 367.077 207.227 367.361 207.132C367.645 207.032 367.982 206.974 368.374 206.955V206.481H369.184V206.966C369.535 206.996 369.829 207.053 370.065 207.137C370.308 207.218 370.497 207.312 370.632 207.418C370.774 207.525 370.872 207.626 370.926 207.721L369.994 207.942C369.94 207.861 369.845 207.78 369.71 207.699C369.582 207.618 369.407 207.558 369.184 207.517V208.675C369.548 208.755 369.872 208.845 370.156 208.945C370.44 209.04 370.662 209.156 370.824 209.292C370.993 209.424 371.078 209.589 371.078 209.788C371.078 210.004 370.986 210.188 370.804 210.339C370.629 210.489 370.396 210.609 370.105 210.697C369.822 210.785 369.515 210.842 369.184 210.868V211.353H368.374ZM367.523 207.964C367.523 208.081 367.594 208.18 367.736 208.261C367.884 208.338 368.097 208.414 368.374 208.487V207.495C368.124 207.525 367.918 207.582 367.756 207.666C367.601 207.751 367.523 207.85 367.523 207.964ZM370.024 209.793C370.024 209.668 369.95 209.567 369.802 209.49C369.66 209.413 369.454 209.339 369.184 209.27V210.311C369.427 210.278 369.626 210.217 369.781 210.129C369.943 210.041 370.024 209.929 370.024 209.793Z" fill="#AA7A1E"/>
<path d="M369.024 214.614C380.893 214.614 390.514 211.087 390.514 206.735V203.87H347.534V206.735C347.534 211.087 357.156 214.614 369.024 214.614Z" fill="#E1B155"/>
<ellipse cx="369.024" cy="202.869" rx="21.49" ry="7.87965" fill="#FECE72"/>
<path d="M368.374 205.353V204.873C368.063 204.851 367.763 204.8 367.472 204.719C367.182 204.634 366.926 204.52 366.703 204.377C366.48 204.23 366.315 204.052 366.207 203.843L367.158 203.633C367.239 203.795 367.388 203.94 367.604 204.069C367.827 204.197 368.083 204.28 368.374 204.317V203.093L368.343 203.082C367.803 202.972 367.358 202.829 367.007 202.652C366.656 202.472 366.48 202.243 366.48 201.964C366.48 201.798 366.554 201.642 366.703 201.495C366.858 201.348 367.077 201.227 367.361 201.132C367.645 201.032 367.982 200.974 368.374 200.955V200.481H369.184V200.966C369.535 200.996 369.829 201.053 370.065 201.137C370.308 201.218 370.497 201.312 370.632 201.418C370.774 201.525 370.872 201.626 370.926 201.721L369.994 201.942C369.94 201.861 369.845 201.78 369.71 201.699C369.582 201.618 369.407 201.558 369.184 201.517V202.675C369.548 202.755 369.872 202.845 370.156 202.945C370.44 203.04 370.662 203.156 370.824 203.292C370.993 203.424 371.078 203.589 371.078 203.788C371.078 204.004 370.986 204.188 370.804 204.339C370.629 204.489 370.396 204.609 370.105 204.697C369.822 204.785 369.515 204.842 369.184 204.868V205.353H368.374ZM367.523 201.964C367.523 202.081 367.594 202.18 367.736 202.261C367.884 202.338 368.097 202.414 368.374 202.487V201.495C368.124 201.525 367.918 201.582 367.756 201.666C367.601 201.751 367.523 201.85 367.523 201.964ZM370.024 203.793C370.024 203.668 369.95 203.567 369.802 203.49C369.66 203.413 369.454 203.339 369.184 203.27V204.311C369.427 204.278 369.626 204.217 369.781 204.129C369.943 204.041 370.024 203.929 370.024 203.793Z" fill="#AA7A1E"/>
<path d="M369.024 208.614C380.893 208.614 390.514 205.087 390.514 200.735V197.87H347.534V200.735C347.534 205.087 357.156 208.614 369.024 208.614Z" fill="#E1B155"/>
<ellipse cx="369.024" cy="196.869" rx="21.49" ry="7.87965" fill="#FECE72"/>
<path d="M368.374 199.353V198.873C368.063 198.851 367.763 198.8 367.472 198.719C367.182 198.634 366.926 198.52 366.703 198.377C366.48 198.23 366.315 198.052 366.207 197.843L367.158 197.633C367.239 197.795 367.388 197.94 367.604 198.069C367.827 198.197 368.083 198.28 368.374 198.317V197.093L368.343 197.082C367.803 196.972 367.358 196.829 367.007 196.652C366.656 196.472 366.48 196.243 366.48 195.964C366.48 195.798 366.554 195.642 366.703 195.495C366.858 195.348 367.077 195.227 367.361 195.132C367.645 195.032 367.982 194.974 368.374 194.955V194.481H369.184V194.966C369.535 194.996 369.829 195.053 370.065 195.137C370.308 195.218 370.497 195.312 370.632 195.418C370.774 195.525 370.872 195.626 370.926 195.721L369.994 195.942C369.94 195.861 369.845 195.78 369.71 195.699C369.582 195.618 369.407 195.558 369.184 195.517V196.675C369.548 196.755 369.872 196.845 370.156 196.945C370.44 197.04 370.662 197.156 370.824 197.292C370.993 197.424 371.078 197.589 371.078 197.788C371.078 198.004 370.986 198.188 370.804 198.339C370.629 198.489 370.396 198.609 370.105 198.697C369.822 198.785 369.515 198.842 369.184 198.868V199.353H368.374ZM367.523 195.964C367.523 196.081 367.594 196.18 367.736 196.261C367.884 196.338 368.097 196.414 368.374 196.487V195.495C368.124 195.525 367.918 195.582 367.756 195.666C367.601 195.751 367.523 195.85 367.523 195.964ZM370.024 197.793C370.024 197.668 369.95 197.567 369.802 197.49C369.66 197.413 369.454 197.339 369.184 197.27V198.311C369.427 198.278 369.626 198.217 369.781 198.129C369.943 198.041 370.024 197.929 370.024 197.793Z" fill="#AA7A1E"/>
<path d="M369.024 202.614C380.893 202.614 390.514 199.087 390.514 194.735V191.87H347.534V194.735C347.534 199.087 357.156 202.614 369.024 202.614Z" fill="#E1B155"/>
<ellipse cx="369.024" cy="190.869" rx="21.49" ry="7.87965" fill="#FECE72"/>
<path d="M368.374 193.353V192.873C368.063 192.851 367.763 192.8 367.472 192.719C367.182 192.634 366.926 192.52 366.703 192.377C366.48 192.23 366.315 192.052 366.207 191.843L367.158 191.633C367.239 191.795 367.388 191.94 367.604 192.069C367.827 192.197 368.083 192.28 368.374 192.317V191.093L368.343 191.082C367.803 190.972 367.358 190.829 367.007 190.652C366.656 190.472 366.48 190.243 366.48 189.964C366.48 189.798 366.554 189.642 366.703 189.495C366.858 189.348 367.077 189.227 367.361 189.132C367.645 189.032 367.982 188.974 368.374 188.955V188.481H369.184V188.966C369.535 188.996 369.829 189.053 370.065 189.137C370.308 189.218 370.497 189.312 370.632 189.418C370.774 189.525 370.872 189.626 370.926 189.721L369.994 189.942C369.94 189.861 369.845 189.78 369.71 189.699C369.582 189.618 369.407 189.558 369.184 189.517V190.675C369.548 190.755 369.872 190.845 370.156 190.945C370.44 191.04 370.662 191.156 370.824 191.292C370.993 191.424 371.078 191.589 371.078 191.788C371.078 192.004 370.986 192.188 370.804 192.339C370.629 192.489 370.396 192.609 370.105 192.697C369.822 192.785 369.515 192.842 369.184 192.868V193.353H368.374ZM367.523 189.964C367.523 190.081 367.594 190.18 367.736 190.261C367.884 190.338 368.097 190.414 368.374 190.487V189.495C368.124 189.525 367.918 189.582 367.756 189.666C367.601 189.751 367.523 189.85 367.523 189.964ZM370.024 191.793C370.024 191.668 369.95 191.567 369.802 191.49C369.66 191.413 369.454 191.339 369.184 191.27V192.311C369.427 192.278 369.626 192.217 369.781 192.129C369.943 192.041 370.024 191.929 370.024 191.793Z" fill="#AA7A1E"/>
<path d="M369.024 196.614C380.893 196.614 390.514 193.087 390.514 188.735V185.87H347.534V188.735C347.534 193.087 357.156 196.614 369.024 196.614Z" fill="#E1B155"/>
<ellipse cx="369.024" cy="184.869" rx="21.49" ry="7.87965" fill="#FECE72"/>
<path d="M368.374 187.353V186.873C368.063 186.851 367.763 186.8 367.472 186.719C367.182 186.634 366.926 186.52 366.703 186.377C366.48 186.23 366.315 186.052 366.207 185.843L367.158 185.633C367.239 185.795 367.388 185.94 367.604 186.069C367.827 186.197 368.083 186.28 368.374 186.317V185.093L368.343 185.082C367.803 184.972 367.358 184.829 367.007 184.652C366.656 184.472 366.48 184.243 366.48 183.964C366.48 183.798 366.554 183.642 366.703 183.495C366.858 183.348 367.077 183.227 367.361 183.132C367.645 183.032 367.982 182.974 368.374 182.955V182.481H369.184V182.966C369.535 182.996 369.829 183.053 370.065 183.137C370.308 183.218 370.497 183.312 370.632 183.418C370.774 183.525 370.872 183.626 370.926 183.721L369.994 183.942C369.94 183.861 369.845 183.78 369.71 183.699C369.582 183.618 369.407 183.558 369.184 183.517V184.675C369.548 184.755 369.872 184.845 370.156 184.945C370.44 185.04 370.662 185.156 370.824 185.292C370.993 185.424 371.078 185.589 371.078 185.788C371.078 186.004 370.986 186.188 370.804 186.339C370.629 186.489 370.396 186.609 370.105 186.697C369.822 186.785 369.515 186.842 369.184 186.868V187.353H368.374ZM367.523 183.964C367.523 184.081 367.594 184.18 367.736 184.261C367.884 184.338 368.097 184.414 368.374 184.487V183.495C368.124 183.525 367.918 183.582 367.756 183.666C367.601 183.751 367.523 183.85 367.523 183.964ZM370.024 185.793C370.024 185.668 369.95 185.567 369.802 185.49C369.66 185.413 369.454 185.339 369.184 185.27V186.311C369.427 186.278 369.626 186.217 369.781 186.129C369.943 186.041 370.024 185.929 370.024 185.793Z" fill="#AA7A1E"/>
<path d="M386.837 184.869C386.837 185.417 386.518 186.057 385.671 186.75C384.83 187.439 383.564 188.094 381.928 188.661C378.664 189.791 374.102 190.504 369.024 190.504C363.947 190.504 359.384 189.791 356.12 188.661C354.484 188.094 353.218 187.439 352.377 186.75C351.53 186.057 351.211 185.417 351.211 184.869C351.211 184.321 351.53 183.681 352.377 182.988C353.218 182.3 354.484 181.644 356.12 181.078C359.384 179.948 363.947 179.234 369.024 179.234C374.102 179.234 378.664 179.948 381.928 181.078C383.564 181.644 384.83 182.3 385.671 182.988C386.518 183.681 386.837 184.321 386.837 184.869Z" stroke="#E1B155" stroke-width="1.62369"/>
</g>
</g>
<defs>
<filter id="filter0_d_1461_10788" x="111.534" y="28" width="271.703" height="195.659" filterUnits="userSpaceOnUse" color-interpolation-filters="sRGB">
<feFlood flood-opacity="0" result="BackgroundImageFix"/>
<feColorMatrix in="SourceAlpha" type="matrix" values="0 0 0 0 0 0 0 0 0 0 0 0 0 0 0 0 0 0 127 0" result="hardAlpha"/>
<feOffset dy="4"/>
<feGaussianBlur stdDeviation="8"/>
<feComposite in2="hardAlpha" operator="out"/>
<feColorMatrix type="matrix" values="0 0 0 0 0 0 0 0 0 0 0 0 0 0 0 0 0 0 0.15 0"/>
<feBlend mode="normal" in2="BackgroundImageFix" result="effect1_dropShadow_1461_10788"/>
<feBlend mode="normal" in="SourceGraphic" in2="effect1_dropShadow_1461_10788" result="shape"/>
</filter>
<clipPath id="clip0_1461_10788">
<rect width="508" height="264" fill="white"/>
</clipPath>
</defs>
</svg>
