<svg width="473" height="146" viewBox="0 0 473 146" fill="none" xmlns="http://www.w3.org/2000/svg">
<g clip-path="url(#clip0_1505_4395)">
<path d="M27.8435 310.264C31.0864 313.606 34.5072 316.686 38.0835 319.483C72.4453 346.428 100.835 346.385 140.138 341.467C166.709 338.143 182.232 325.497 218.458 327.486C254.683 329.475 263.964 338.682 308.307 335.733C343.409 333.398 385.996 335.187 417.204 318.98C446.086 303.98 466.663 287.534 472.647 217.567C478.631 147.6 444.5 53.5001 386.946 45.2472C321.802 35.9062 333.864 69.9989 280 56C226.136 42.0011 187.433 -10.0884 123.717 17.5794C60 45.2472 79.4973 103.091 42.7651 147.6C22.1739 172.551 9.5933 183.68 2.52398 217.567C-3.61571 246.997 9.59402 291.409 27.8435 310.264Z" fill="#B8E6CA"/>
<g filter="url(#filter0_d_1505_4395)">
<rect x="135.534" y="26" width="192.487" height="131.422" rx="10.5133" fill="white"/>
<mask id="mask0_1505_4395" style="mask-type:alpha" maskUnits="userSpaceOnUse" x="135" y="26" width="194" height="132">
<rect x="135.534" y="26" width="192.487" height="131.422" rx="10.5133" fill="white"/>
</mask>
<g mask="url(#mask0_1505_4395)">
<path opacity="0.2" d="M346.851 155.796C346.851 157.066 346.767 161.351 346.475 161.818C346.183 162.286 346.099 162.621 344.083 163.826C340.014 166.039 333.999 167.44 327.289 167.44C315.031 167.44 299.03 163.043 299.03 157.277C299.03 155.543 298.643 149.089 300.235 147.649C303.933 144.304 318.164 143.233 326.735 143.233C338.993 143.233 346.851 150.03 346.851 155.796Z" fill="#B8BDB9"/>
</g>
<rect x="145.974" y="52.4998" width="58.6205" height="56.2114" rx="3.9425" fill="#DCE8FF"/>
<path d="M145.974 56.4423C145.974 54.2649 147.739 52.4998 149.916 52.4998H200.652C202.829 52.4998 204.594 54.2649 204.594 56.4423V84.6206H145.974V56.4423Z" fill="#BED4FF"/>
<rect x="145.974" y="119.15" width="58.6205" height="24.0906" rx="3.9425" fill="#EBEEF0"/>
<circle cx="158.019" cy="64.5449" r="4.0151" fill="#7F9CD4"/>
<path d="M167.149 69.9796L159.625 78.9992H190.943L179.555 65.3479L171.42 75.0989L167.149 69.9796Z" fill="#7F9CD4"/>
<rect x="165.246" y="98.2717" width="19.2725" height="5.62114" rx="2.81057" fill="#7F9CD4"/>
<path fill-rule="evenodd" clip-rule="evenodd" d="M190.943 91.8477C190.943 92.7347 190.224 93.4538 189.337 93.4538H161.231C160.344 93.4538 159.625 92.7347 159.625 91.8477C159.625 90.9607 160.344 90.2417 161.231 90.2417H189.337C190.224 90.2417 190.943 90.9607 190.943 91.8477Z" fill="#BED4FF"/>
<path d="M135.534 36.5636C135.534 30.7573 140.241 26.0503 146.048 26.0503H317.507C323.314 26.0503 328.021 30.7573 328.021 36.5636V41.9802H135.534V36.5636Z" fill="#EBEEF0"/>
<rect x="143.499" y="31.3601" width="5.30997" height="5.30997" rx="2.65499" fill="#CBD0D3"/>
<rect x="151.464" y="31.3601" width="5.30997" height="5.30997" rx="2.65499" fill="#CBD0D3"/>
<rect x="219.851" y="52.4998" width="93.9534" height="39.348" rx="4.16859" fill="#EBEEF0"/>
<rect x="219.851" y="99.8779" width="69.0597" height="8.83322" rx="4.41661" fill="#EBEEF0"/>
<rect x="219.851" y="119.15" width="75.4839" height="4.0151" rx="2.00755" fill="#EBEEF0"/>
<rect x="219.851" y="129.59" width="87.5292" height="4.0151" rx="2.00755" fill="#EBEEF0"/>
<rect x="219.851" y="139.226" width="64.2416" height="4.0151" rx="2.00755" fill="#EBEEF0"/>
</g>
<path opacity="0.2" fill-rule="evenodd" clip-rule="evenodd" d="M368.918 136.876C369.21 136.408 369.294 132.123 369.294 130.853C369.294 125.088 361.99 121.618 349.732 121.618C337.474 121.618 327.537 126.292 327.537 132.058C327.537 137.823 337.474 142.497 349.732 142.497C356.442 142.497 362.456 141.097 366.526 138.883C368.373 137.779 368.598 137.405 368.848 136.991C368.871 136.953 368.894 136.915 368.918 136.876Z" fill="#144A29"/>
<path d="M352.743 140.598C362.273 140.598 370 137.765 370 134.27V131.969H335.486V134.27C335.486 137.765 343.212 140.598 352.743 140.598Z" fill="#E1B155"/>
<ellipse cx="352.743" cy="131.166" rx="17.2569" ry="6.32752" fill="#FECE72"/>
<path d="M352.22 133.16V132.775C351.971 132.757 351.73 132.716 351.496 132.651C351.263 132.583 351.057 132.492 350.878 132.377C350.7 132.259 350.567 132.116 350.48 131.948L351.244 131.78C351.309 131.909 351.429 132.026 351.602 132.129C351.781 132.232 351.987 132.299 352.22 132.328V131.346L352.196 131.337C351.762 131.249 351.404 131.134 351.122 130.992C350.841 130.847 350.7 130.663 350.7 130.439C350.7 130.306 350.759 130.181 350.878 130.063C351.003 129.945 351.179 129.847 351.407 129.771C351.635 129.691 351.906 129.644 352.22 129.629V129.249H352.871V129.638C353.153 129.662 353.389 129.707 353.578 129.775C353.773 129.84 353.925 129.915 354.034 130.001C354.148 130.086 354.226 130.167 354.27 130.244L353.521 130.421C353.478 130.356 353.402 130.291 353.294 130.226C353.191 130.162 353.05 130.113 352.871 130.08V131.01C353.164 131.075 353.424 131.147 353.652 131.226C353.879 131.303 354.058 131.396 354.188 131.505C354.324 131.611 354.392 131.744 354.392 131.903C354.392 132.077 354.318 132.225 354.172 132.346C354.031 132.467 353.844 132.563 353.611 132.634C353.383 132.704 353.136 132.75 352.871 132.771V133.16H352.22ZM351.537 130.439C351.537 130.533 351.594 130.613 351.708 130.678C351.827 130.74 351.998 130.8 352.22 130.859V130.063C352.02 130.086 351.854 130.132 351.724 130.2C351.6 130.268 351.537 130.347 351.537 130.439ZM353.546 131.908C353.546 131.808 353.486 131.726 353.367 131.664C353.253 131.603 353.088 131.544 352.871 131.488V132.324C353.066 132.297 353.226 132.249 353.351 132.178C353.481 132.107 353.546 132.017 353.546 131.908Z" fill="#AA7A1E"/>
<path d="M352.743 135.78C362.273 135.78 370 132.947 370 129.452V127.151H335.486V129.452C335.486 132.947 343.212 135.78 352.743 135.78Z" fill="#E1B155"/>
<ellipse cx="352.743" cy="126.348" rx="17.2569" ry="6.32752" fill="#FECE72"/>
<path d="M352.22 128.342V127.957C351.971 127.939 351.73 127.898 351.496 127.833C351.263 127.765 351.057 127.674 350.878 127.559C350.7 127.441 350.567 127.298 350.48 127.13L351.244 126.961C351.309 127.091 351.429 127.208 351.602 127.311C351.781 127.414 351.987 127.481 352.22 127.51V126.528L352.196 126.519C351.762 126.43 351.404 126.315 351.122 126.174C350.841 126.029 350.7 125.845 350.7 125.621C350.7 125.488 350.759 125.363 350.878 125.245C351.003 125.127 351.179 125.029 351.407 124.953C351.635 124.873 351.906 124.826 352.22 124.811V124.43H352.871V124.82C353.153 124.843 353.389 124.889 353.578 124.957C353.773 125.022 353.925 125.097 354.034 125.183C354.148 125.268 354.226 125.349 354.27 125.426L353.521 125.603C353.478 125.538 353.402 125.473 353.294 125.408C353.191 125.343 353.05 125.295 352.871 125.262V126.192C353.164 126.256 353.424 126.329 353.652 126.408C353.879 126.485 354.058 126.578 354.188 126.687C354.324 126.793 354.392 126.926 354.392 127.085C354.392 127.259 354.318 127.407 354.172 127.528C354.031 127.649 353.844 127.745 353.611 127.815C353.383 127.886 353.136 127.932 352.871 127.953V128.342H352.22ZM351.537 125.621C351.537 125.715 351.594 125.795 351.708 125.86C351.827 125.922 351.998 125.982 352.22 126.041V125.245C352.02 125.268 351.854 125.314 351.724 125.382C351.6 125.45 351.537 125.529 351.537 125.621ZM353.546 127.09C353.546 126.989 353.486 126.908 353.367 126.846C353.253 126.784 353.088 126.725 352.871 126.669V127.506C353.066 127.479 353.226 127.43 353.351 127.36C353.481 127.289 353.546 127.199 353.546 127.09Z" fill="#AA7A1E"/>
<path d="M352.743 130.961C362.273 130.961 370 128.129 370 124.634V122.333H335.486V124.634C335.486 128.129 343.212 130.961 352.743 130.961Z" fill="#E1B155"/>
<ellipse cx="352.743" cy="121.53" rx="17.2569" ry="6.32752" fill="#FECE72"/>
<path d="M352.22 123.524V123.139C351.971 123.121 351.73 123.08 351.496 123.015C351.263 122.947 351.057 122.856 350.878 122.741C350.7 122.623 350.567 122.48 350.48 122.311L351.244 122.143C351.309 122.273 351.429 122.39 351.602 122.493C351.781 122.596 351.987 122.662 352.22 122.692V121.71L352.196 121.701C351.762 121.612 351.404 121.497 351.122 121.356C350.841 121.211 350.7 121.027 350.7 120.803C350.7 120.67 350.759 120.544 350.878 120.426C351.003 120.308 351.179 120.211 351.407 120.134C351.635 120.055 351.906 120.008 352.22 119.993V119.612H352.871V120.002C353.153 120.025 353.389 120.071 353.578 120.139C353.773 120.204 353.925 120.279 354.034 120.365C354.148 120.45 354.226 120.531 354.27 120.608L353.521 120.785C353.478 120.72 353.402 120.655 353.294 120.59C353.191 120.525 353.05 120.477 352.871 120.444V121.373C353.164 121.438 353.424 121.511 353.652 121.59C353.879 121.667 354.058 121.76 354.188 121.869C354.324 121.975 354.392 122.108 354.392 122.267C354.392 122.441 354.318 122.589 354.172 122.71C354.031 122.831 353.844 122.927 353.611 122.997C353.383 123.068 353.136 123.114 352.871 123.134V123.524H352.22ZM351.537 120.803C351.537 120.897 351.594 120.977 351.708 121.042C351.827 121.103 351.998 121.164 352.22 121.223V120.426C352.02 120.45 351.854 120.496 351.724 120.564C351.6 120.631 351.537 120.711 351.537 120.803ZM353.546 122.272C353.546 122.171 353.486 122.09 353.367 122.028C353.253 121.966 353.088 121.907 352.871 121.851V122.688C353.066 122.661 353.226 122.612 353.351 122.542C353.481 122.471 353.546 122.381 353.546 122.272Z" fill="#AA7A1E"/>
<path d="M352.743 126.143C362.273 126.143 370 123.31 370 119.816V117.515H335.486V119.816C335.486 123.31 343.212 126.143 352.743 126.143Z" fill="#E1B155"/>
<ellipse cx="352.743" cy="116.712" rx="17.2569" ry="6.32752" fill="#FECE72"/>
<path d="M352.22 118.706V118.321C351.971 118.303 351.73 118.262 351.496 118.197C351.263 118.129 351.057 118.038 350.878 117.923C350.7 117.805 350.567 117.661 350.48 117.493L351.244 117.325C351.309 117.455 351.429 117.572 351.602 117.675C351.781 117.778 351.987 117.844 352.22 117.874V116.892L352.196 116.883C351.762 116.794 351.404 116.679 351.122 116.538C350.841 116.393 350.7 116.209 350.7 115.984C350.7 115.852 350.759 115.726 350.878 115.608C351.003 115.49 351.179 115.393 351.407 115.316C351.635 115.237 351.906 115.189 352.22 115.175V114.794H352.871V115.184C353.153 115.207 353.389 115.253 353.578 115.321C353.773 115.386 353.925 115.461 354.034 115.546C354.148 115.632 354.226 115.713 354.27 115.79L353.521 115.967C353.478 115.902 353.402 115.837 353.294 115.772C353.191 115.707 353.05 115.659 352.871 115.626V116.555C353.164 116.62 353.424 116.692 353.652 116.772C353.879 116.849 354.058 116.942 354.188 117.051C354.324 117.157 354.392 117.29 354.392 117.449C354.392 117.623 354.318 117.771 354.172 117.892C354.031 118.013 353.844 118.108 353.611 118.179C353.383 118.25 353.136 118.296 352.871 118.316V118.706H352.22ZM351.537 115.984C351.537 116.079 351.594 116.159 351.708 116.223C351.827 116.285 351.998 116.346 352.22 116.405V115.608C352.02 115.632 351.854 115.678 351.724 115.746C351.6 115.813 351.537 115.893 351.537 115.984ZM353.546 117.454C353.546 117.353 353.486 117.272 353.367 117.21C353.253 117.148 353.088 117.089 352.871 117.033V117.869C353.066 117.843 353.226 117.794 353.351 117.723C353.481 117.653 353.546 117.563 353.546 117.454Z" fill="#AA7A1E"/>
<path d="M352.743 121.325C362.273 121.325 370 118.492 370 114.998V112.697H335.486V114.998C335.486 118.492 343.212 121.325 352.743 121.325Z" fill="#E1B155"/>
<ellipse cx="352.743" cy="111.894" rx="17.2569" ry="6.32752" fill="#FECE72"/>
<path d="M352.22 113.888V113.503C351.971 113.485 351.73 113.444 351.496 113.379C351.263 113.311 351.057 113.219 350.878 113.104C350.7 112.986 350.567 112.843 350.48 112.675L351.244 112.507C351.309 112.637 351.429 112.753 351.602 112.857C351.781 112.96 351.987 113.026 352.22 113.056V112.073L352.196 112.065C351.762 111.976 351.404 111.861 351.122 111.719C350.841 111.575 350.7 111.391 350.7 111.166C350.7 111.034 350.759 110.908 350.878 110.79C351.003 110.672 351.179 110.575 351.407 110.498C351.635 110.419 351.906 110.371 352.22 110.357V109.976H352.871V110.365C353.153 110.389 353.389 110.435 353.578 110.503C353.773 110.568 353.925 110.643 354.034 110.728C354.148 110.814 354.226 110.895 354.27 110.972L353.521 111.149C353.478 111.084 353.402 111.019 353.294 110.954C353.191 110.889 353.05 110.84 352.871 110.808V111.737C353.164 111.802 353.424 111.874 353.652 111.954C353.879 112.031 354.058 112.124 354.188 112.233C354.324 112.339 354.392 112.472 354.392 112.631C354.392 112.805 354.318 112.953 354.172 113.073C354.031 113.194 353.844 113.29 353.611 113.361C353.383 113.432 353.136 113.478 352.871 113.498V113.888H352.22ZM351.537 111.166C351.537 111.261 351.594 111.34 351.708 111.405C351.827 111.467 351.998 111.528 352.22 111.587V110.79C352.02 110.814 351.854 110.86 351.724 110.927C351.6 110.995 351.537 111.075 351.537 111.166ZM353.546 112.635C353.546 112.535 353.486 112.454 353.367 112.392C353.253 112.33 353.088 112.271 352.871 112.215V113.051C353.066 113.025 353.226 112.976 353.351 112.905C353.481 112.835 353.546 112.745 353.546 112.635Z" fill="#AA7A1E"/>
<path d="M352.743 116.507C362.273 116.507 370 113.674 370 110.18V107.879H335.486V110.18C335.486 113.674 343.212 116.507 352.743 116.507Z" fill="#E1B155"/>
<ellipse cx="352.743" cy="107.076" rx="17.2569" ry="6.32752" fill="#FECE72"/>
<path d="M352.22 109.07V108.685C351.971 108.667 351.73 108.626 351.496 108.561C351.263 108.493 351.057 108.401 350.878 108.286C350.7 108.168 350.567 108.025 350.48 107.857L351.244 107.689C351.309 107.819 351.429 107.935 351.602 108.039C351.781 108.142 351.987 108.208 352.22 108.238V107.255L352.196 107.246C351.762 107.158 351.404 107.043 351.122 106.901C350.841 106.757 350.7 106.572 350.7 106.348C350.7 106.215 350.759 106.09 350.878 105.972C351.003 105.854 351.179 105.757 351.407 105.68C351.635 105.6 351.906 105.553 352.22 105.538V105.158H352.871V105.547C353.153 105.571 353.389 105.617 353.578 105.685C353.773 105.749 353.925 105.825 354.034 105.91C354.148 105.996 354.226 106.077 354.27 106.154L353.521 106.331C353.478 106.266 353.402 106.201 353.294 106.136C353.191 106.071 353.05 106.022 352.871 105.99V106.919C353.164 106.984 353.424 107.056 353.652 107.136C353.879 107.213 354.058 107.305 354.188 107.415C354.324 107.521 354.392 107.654 354.392 107.813C354.392 107.987 354.318 108.134 354.172 108.255C354.031 108.376 353.844 108.472 353.611 108.543C353.383 108.614 353.136 108.659 352.871 108.68V109.07H352.22ZM351.537 106.348C351.537 106.443 351.594 106.522 351.708 106.587C351.827 106.649 351.998 106.71 352.22 106.769V105.972C352.02 105.996 351.854 106.041 351.724 106.109C351.6 106.177 351.537 106.257 351.537 106.348ZM353.546 107.817C353.546 107.717 353.486 107.636 353.367 107.574C353.253 107.512 353.088 107.453 352.871 107.397V108.233C353.066 108.207 353.226 108.158 353.351 108.087C353.481 108.016 353.546 107.926 353.546 107.817Z" fill="#AA7A1E"/>
<path d="M352.743 102.551C356.82 102.551 360.484 103.124 363.105 104.031C364.418 104.486 365.435 105.012 366.11 105.564C366.79 106.121 367.046 106.635 367.046 107.075C367.046 107.515 366.79 108.029 366.11 108.586C365.435 109.138 364.419 109.665 363.105 110.12C360.484 111.027 356.82 111.601 352.743 111.601C348.665 111.601 345.002 111.027 342.38 110.12C341.067 109.665 340.05 109.139 339.375 108.586C338.695 108.029 338.439 107.515 338.439 107.075C338.439 106.635 338.695 106.121 339.375 105.564C340.05 105.012 341.067 104.486 342.38 104.031C345.002 103.124 348.665 102.551 352.743 102.551Z" stroke="#E1B155" stroke-width="1.30385"/>
<path d="M329.455 151.037C338.986 151.037 346.712 148.204 346.712 144.709V142.408H312.198V144.709C312.198 148.204 319.924 151.037 329.455 151.037Z" fill="#E1B155"/>
<ellipse cx="329.455" cy="141.605" rx="17.2569" ry="6.32752" fill="#FECE72"/>
<path d="M328.933 143.599V143.214C328.683 143.197 328.442 143.155 328.209 143.09C327.976 143.023 327.77 142.931 327.591 142.816C327.412 142.698 327.279 142.555 327.192 142.387L327.957 142.219C328.022 142.349 328.141 142.465 328.315 142.568C328.494 142.672 328.7 142.738 328.933 142.767V141.785L328.908 141.776C328.475 141.688 328.117 141.573 327.835 141.431C327.553 141.287 327.412 141.102 327.412 140.878C327.412 140.745 327.472 140.62 327.591 140.502C327.716 140.384 327.892 140.287 328.119 140.21C328.347 140.13 328.618 140.083 328.933 140.068V139.688H329.583V140.077C329.865 140.101 330.101 140.146 330.291 140.214C330.486 140.279 330.638 140.354 330.746 140.44C330.86 140.526 330.939 140.607 330.982 140.683L330.234 140.86C330.19 140.795 330.115 140.731 330.006 140.666C329.903 140.601 329.762 140.552 329.583 140.52V141.449C329.876 141.514 330.136 141.586 330.364 141.666C330.592 141.742 330.771 141.835 330.901 141.944C331.036 142.051 331.104 142.183 331.104 142.343C331.104 142.517 331.031 142.664 330.884 142.785C330.743 142.906 330.556 143.002 330.323 143.073C330.096 143.144 329.849 143.189 329.583 143.21V143.599H328.933ZM328.25 140.878C328.25 140.972 328.306 141.052 328.42 141.117C328.54 141.179 328.71 141.239 328.933 141.298V140.502C328.732 140.526 328.567 140.571 328.437 140.639C328.312 140.707 328.25 140.787 328.25 140.878ZM330.258 142.347C330.258 142.247 330.199 142.166 330.079 142.104C329.965 142.042 329.8 141.983 329.583 141.927V142.763C329.778 142.736 329.938 142.688 330.063 142.617C330.193 142.546 330.258 142.456 330.258 142.347Z" fill="#AA7A1E"/>
<path d="M329.455 146.219C338.986 146.219 346.712 143.386 346.712 139.891V137.59H312.198V139.891C312.198 143.386 319.924 146.219 329.455 146.219Z" fill="#E1B155"/>
<ellipse cx="329.455" cy="136.787" rx="17.2569" ry="6.32752" fill="#FECE72"/>
<path d="M328.933 138.781V138.396C328.683 138.379 328.442 138.337 328.209 138.272C327.976 138.204 327.77 138.113 327.591 137.998C327.412 137.88 327.279 137.737 327.192 137.569L327.957 137.401C328.022 137.53 328.141 137.647 328.315 137.75C328.494 137.853 328.7 137.92 328.933 137.949V136.967L328.908 136.958C328.475 136.87 328.117 136.755 327.835 136.613C327.553 136.468 327.412 136.284 327.412 136.06C327.412 135.927 327.472 135.802 327.591 135.684C327.716 135.566 327.892 135.468 328.119 135.392C328.347 135.312 328.618 135.265 328.933 135.25V134.87H329.583V135.259C329.865 135.283 330.101 135.328 330.291 135.396C330.486 135.461 330.638 135.536 330.746 135.622C330.86 135.707 330.939 135.789 330.982 135.865L330.234 136.042C330.19 135.977 330.115 135.912 330.006 135.848C329.903 135.783 329.762 135.734 329.583 135.701V136.631C329.876 136.696 330.136 136.768 330.364 136.848C330.592 136.924 330.771 137.017 330.901 137.126C331.036 137.232 331.104 137.365 331.104 137.525C331.104 137.699 331.031 137.846 330.884 137.967C330.743 138.088 330.556 138.184 330.323 138.255C330.096 138.325 329.849 138.371 329.583 138.392V138.781H328.933ZM328.25 136.06C328.25 136.154 328.306 136.234 328.42 136.299C328.54 136.361 328.71 136.421 328.933 136.48V135.684C328.732 135.707 328.567 135.753 328.437 135.821C328.312 135.889 328.25 135.968 328.25 136.06ZM330.258 137.529C330.258 137.429 330.199 137.348 330.079 137.286C329.965 137.224 329.8 137.165 329.583 137.109V137.945C329.778 137.918 329.938 137.87 330.063 137.799C330.193 137.728 330.258 137.638 330.258 137.529Z" fill="#AA7A1E"/>
<path d="M329.455 141.401C338.986 141.401 346.712 138.568 346.712 135.073V132.772H312.198V135.073C312.198 138.568 319.924 141.401 329.455 141.401Z" fill="#E1B155"/>
<ellipse cx="329.455" cy="131.969" rx="17.2569" ry="6.32752" fill="#FECE72"/>
<path d="M328.933 133.963V133.578C328.683 133.56 328.442 133.519 328.209 133.454C327.976 133.386 327.77 133.295 327.591 133.18C327.412 133.062 327.279 132.919 327.192 132.751L327.957 132.583C328.022 132.712 328.141 132.829 328.315 132.932C328.494 133.035 328.7 133.102 328.933 133.131V132.149L328.908 132.14C328.475 132.052 328.117 131.936 327.835 131.795C327.553 131.65 327.412 131.466 327.412 131.242C327.412 131.109 327.472 130.984 327.591 130.866C327.716 130.748 327.892 130.65 328.119 130.574C328.347 130.494 328.618 130.447 328.933 130.432V130.052H329.583V130.441C329.865 130.464 330.101 130.51 330.291 130.578C330.486 130.643 330.638 130.718 330.746 130.804C330.86 130.889 330.939 130.97 330.982 131.047L330.234 131.224C330.19 131.159 330.115 131.094 330.006 131.029C329.903 130.965 329.762 130.916 329.583 130.883V131.813C329.876 131.877 330.136 131.95 330.364 132.029C330.592 132.106 330.771 132.199 330.901 132.308C331.036 132.414 331.104 132.547 331.104 132.706C331.104 132.88 331.031 133.028 330.884 133.149C330.743 133.27 330.556 133.366 330.323 133.437C330.096 133.507 329.849 133.553 329.583 133.574V133.963H328.933ZM328.25 131.242C328.25 131.336 328.306 131.416 328.42 131.481C328.54 131.543 328.71 131.603 328.933 131.662V130.866C328.732 130.889 328.567 130.935 328.437 131.003C328.312 131.071 328.25 131.15 328.25 131.242ZM330.258 132.711C330.258 132.611 330.199 132.529 330.079 132.467C329.965 132.406 329.8 132.347 329.583 132.29V133.127C329.778 133.1 329.938 133.052 330.063 132.981C330.193 132.91 330.258 132.82 330.258 132.711Z" fill="#AA7A1E"/>
<path d="M329.455 136.583C338.986 136.583 346.712 133.75 346.712 130.255V127.954H312.198V130.255C312.198 133.75 319.924 136.583 329.455 136.583Z" fill="#E1B155"/>
<ellipse cx="329.455" cy="127.151" rx="17.2569" ry="6.32752" fill="#FECE72"/>
<path d="M328.933 129.145V128.76C328.683 128.742 328.442 128.701 328.209 128.636C327.976 128.568 327.77 128.477 327.591 128.362C327.412 128.244 327.279 128.101 327.192 127.933L327.957 127.764C328.022 127.894 328.141 128.011 328.315 128.114C328.494 128.217 328.7 128.284 328.933 128.313V127.331L328.908 127.322C328.475 127.233 328.117 127.118 327.835 126.977C327.553 126.832 327.412 126.648 327.412 126.424C327.412 126.291 327.472 126.166 327.591 126.048C327.716 125.93 327.892 125.832 328.119 125.756C328.347 125.676 328.618 125.629 328.933 125.614V125.233H329.583V125.623C329.865 125.646 330.101 125.692 330.291 125.76C330.486 125.825 330.638 125.9 330.746 125.986C330.86 126.071 330.939 126.152 330.982 126.229L330.234 126.406C330.19 126.341 330.115 126.276 330.006 126.211C329.903 126.146 329.762 126.098 329.583 126.065V126.994C329.876 127.059 330.136 127.132 330.364 127.211C330.592 127.288 330.771 127.381 330.901 127.49C331.036 127.596 331.104 127.729 331.104 127.888C331.104 128.062 331.031 128.21 330.884 128.331C330.743 128.452 330.556 128.548 330.323 128.618C330.096 128.689 329.849 128.735 329.583 128.756V129.145H328.933ZM328.25 126.424C328.25 126.518 328.306 126.598 328.42 126.663C328.54 126.725 328.71 126.785 328.933 126.844V126.048C328.732 126.071 328.567 126.117 328.437 126.185C328.312 126.253 328.25 126.332 328.25 126.424ZM330.258 127.893C330.258 127.792 330.199 127.711 330.079 127.649C329.965 127.587 329.8 127.528 329.583 127.472V128.309C329.778 128.282 329.938 128.233 330.063 128.163C330.193 128.092 330.258 128.002 330.258 127.893Z" fill="#AA7A1E"/>
<path d="M329.455 131.764C338.986 131.764 346.712 128.931 346.712 125.437V123.136H312.198V125.437C312.198 128.931 319.924 131.764 329.455 131.764Z" fill="#E1B155"/>
<ellipse cx="329.455" cy="122.333" rx="17.2569" ry="6.32752" fill="#FECE72"/>
<path d="M328.933 124.327V123.942C328.683 123.924 328.442 123.883 328.209 123.818C327.976 123.75 327.77 123.659 327.591 123.544C327.412 123.426 327.279 123.283 327.192 123.114L327.957 122.946C328.022 123.076 328.141 123.193 328.315 123.296C328.494 123.399 328.7 123.465 328.933 123.495V122.513L328.908 122.504C328.475 122.415 328.117 122.3 327.835 122.159C327.553 122.014 327.412 121.83 327.412 121.606C327.412 121.473 327.472 121.347 327.591 121.229C327.716 121.111 327.892 121.014 328.119 120.937C328.347 120.858 328.618 120.811 328.933 120.796V120.415H329.583V120.805C329.865 120.828 330.101 120.874 330.291 120.942C330.486 121.007 330.638 121.082 330.746 121.168C330.86 121.253 330.939 121.334 330.982 121.411L330.234 121.588C330.19 121.523 330.115 121.458 330.006 121.393C329.903 121.328 329.762 121.28 329.583 121.247V122.176C329.876 122.241 330.136 122.314 330.364 122.393C330.592 122.47 330.771 122.563 330.901 122.672C331.036 122.778 331.104 122.911 331.104 123.07C331.104 123.244 331.031 123.392 330.884 123.513C330.743 123.634 330.556 123.729 330.323 123.8C330.096 123.871 329.849 123.917 329.583 123.937V124.327H328.933ZM328.25 121.606C328.25 121.7 328.306 121.78 328.42 121.845C328.54 121.906 328.71 121.967 328.933 122.026V121.229C328.732 121.253 328.567 121.299 328.437 121.367C328.312 121.434 328.25 121.514 328.25 121.606ZM330.258 123.075C330.258 122.974 330.199 122.893 330.079 122.831C329.965 122.769 329.8 122.71 329.583 122.654V123.491C329.778 123.464 329.938 123.415 330.063 123.345C330.193 123.274 330.258 123.184 330.258 123.075Z" fill="#AA7A1E"/>
<path d="M329.455 117.808C333.532 117.808 337.196 118.381 339.817 119.289C341.131 119.743 342.147 120.269 342.822 120.822C343.502 121.378 343.759 121.893 343.759 122.333C343.759 122.772 343.502 123.287 342.822 123.843C342.147 124.396 341.131 124.923 339.817 125.377C337.196 126.285 333.532 126.858 329.455 126.858C325.378 126.858 321.714 126.285 319.093 125.377C317.779 124.923 316.762 124.396 316.087 123.843C315.407 123.287 315.151 122.772 315.151 122.333C315.151 121.893 315.407 121.378 316.087 120.822C316.762 120.269 317.779 119.743 319.093 119.289C321.714 118.381 325.378 117.808 329.455 117.808Z" stroke="#E1B155" stroke-width="1.30385"/>
</g>
<defs>
<filter id="filter0_d_1505_4395" x="122.686" y="16.3638" width="218.183" height="157.119" filterUnits="userSpaceOnUse" color-interpolation-filters="sRGB">
<feFlood flood-opacity="0" result="BackgroundImageFix"/>
<feColorMatrix in="SourceAlpha" type="matrix" values="0 0 0 0 0 0 0 0 0 0 0 0 0 0 0 0 0 0 127 0" result="hardAlpha"/>
<feOffset dy="3.21208"/>
<feGaussianBlur stdDeviation="6.42416"/>
<feComposite in2="hardAlpha" operator="out"/>
<feColorMatrix type="matrix" values="0 0 0 0 0 0 0 0 0 0 0 0 0 0 0 0 0 0 0.15 0"/>
<feBlend mode="normal" in2="BackgroundImageFix" result="effect1_dropShadow_1505_4395"/>
<feBlend mode="normal" in="SourceGraphic" in2="effect1_dropShadow_1505_4395" result="shape"/>
</filter>
<clipPath id="clip0_1505_4395">
<rect width="473" height="146" fill="white"/>
</clipPath>
</defs>
</svg>
