<svg width="360" height="182" viewBox="0 0 360 182" fill="none" xmlns="http://www.w3.org/2000/svg">
<path d="M281.078 116.275C275.149 144.826 247.682 170.346 216.686 162.334C185.69 154.322 185.21 126.334 166.71 118.334C148.21 110.334 138.757 125.757 116.598 119.865C94.4392 113.974 76.9979 94.6167 77 64.7252C77.0021 34.8336 105.708 8.8341 131.208 11.3341C156.708 13.8341 165.709 31.3331 185.209 35.8336C204.709 40.3341 215.208 29.3339 236.207 32.3341C285.965 39.4431 287.007 87.7242 281.078 116.275Z" fill="#D0FBE1"/>
<g filter="url(#filter0_d_2705_17743)">
<rect x="105.71" y="33.8809" width="128" height="120.889" rx="6.98252" fill="#EBEEF0"/>
<mask id="mask0_2705_17743" style="mask-type:alpha" maskUnits="userSpaceOnUse" x="105" y="33" width="129" height="121">
<rect x="105.71" y="33.8809" width="128" height="120" rx="6.98252" fill="#DEE3E6"/>
</mask>
<g mask="url(#mask0_2705_17743)">
<rect x="113.71" y="74.7703" width="52.2667" height="70.9333" rx="3.75128" fill="white"/>
<rect x="120.201" y="103.976" width="18.0797" height="3.24507" rx="1.62254" fill="#EBEEF0"/>
<rect x="120.201" y="98.876" width="6.49014" height="3.24507" rx="1.62254" fill="#EBEEF0"/>
<rect x="120.201" y="115.592" width="6.49014" height="3.24507" rx="1.62254" fill="#EBEEF0"/>
<rect x="120.201" y="131.62" width="6.49014" height="3.24507" rx="1.62254" fill="#EBEEF0"/>
<path d="M149.406 103.28C149.406 101.616 150.755 100.267 152.419 100.267H157.055C158.719 100.267 160.068 101.616 160.068 103.28C160.068 104.944 158.719 106.293 157.055 106.293H152.419C150.755 106.293 149.406 104.944 149.406 103.28Z" fill="#EBEEF0"/>
<rect x="120.189" y="81.9316" width="12.2769" height="3.06923" rx="1.53462" fill="#EBEEF0"/>
<path d="M149.406 119.996C149.406 118.332 150.755 116.982 152.419 116.982H157.055C158.719 116.982 160.068 118.332 160.068 119.996C160.068 121.66 158.719 123.009 157.055 123.009H152.419C150.755 123.009 149.406 121.66 149.406 119.996Z" fill="#EBEEF0"/>
<path d="M149.406 136.024C149.406 134.36 150.755 133.011 152.419 133.011H157.055C158.719 133.011 160.068 134.36 160.068 136.024C160.068 137.688 158.719 139.038 157.055 139.038H152.419C150.755 139.038 149.406 137.688 149.406 136.024Z" fill="#EBEEF0"/>
<rect x="119.738" y="120.691" width="19.0068" height="3.24507" rx="1.62254" fill="#EBEEF0"/>
<rect x="119.738" y="140.129" width="19.0068" height="3.24507" rx="1.62254" fill="#EBEEF0"/>
<path d="M165.887 91.3096H114.051" stroke="#EBEEF0" stroke-width="0.682051"/>
<rect x="172.377" y="74.77" width="52.2667" height="70.9333" rx="3.75128" fill="white"/>
<rect x="179.183" y="103.976" width="18.0389" height="3.24507" rx="1.62254" fill="#EBEEF0"/>
<rect x="179.183" y="98.876" width="6.47552" height="3.24507" rx="1.62254" fill="#EBEEF0"/>
<rect x="179.183" y="115.592" width="6.47552" height="3.24507" rx="1.62254" fill="#EBEEF0"/>
<rect x="179.183" y="131.62" width="6.47552" height="3.24507" rx="1.62254" fill="#EBEEF0"/>
<path d="M208.323 103.28C208.323 101.616 209.672 100.267 211.337 100.267H215.948C217.612 100.267 218.962 101.616 218.962 103.28C218.962 104.944 217.612 106.293 215.948 106.293H211.337C209.672 106.293 208.323 104.944 208.323 103.28Z" fill="#EBEEF0"/>
<rect x="179.198" y="81.9314" width="12.298" height="3.06923" rx="1.53462" fill="#EBEEF0"/>
<path d="M224.644 91.3096H172.378" stroke="#EBEEF0" stroke-width="0.682051"/>
<path d="M208.323 119.995C208.323 118.331 209.672 116.982 211.337 116.982H215.948C217.612 116.982 218.962 118.331 218.962 119.995C218.962 121.66 217.612 123.009 215.948 123.009H211.337C209.672 123.009 208.323 121.66 208.323 119.995Z" fill="#EBEEF0"/>
<path d="M208.323 136.024C208.323 134.36 209.672 133.011 211.337 133.011H215.948C217.612 133.011 218.962 134.36 218.962 136.024C218.962 137.688 217.612 139.037 215.948 139.037H211.337C209.672 139.037 208.323 137.688 208.323 136.024Z" fill="#EBEEF0"/>
<rect x="178.721" y="120.691" width="18.964" height="3.24507" rx="1.62254" fill="#EBEEF0"/>
<rect x="178.721" y="140.129" width="18.964" height="3.24507" rx="1.62254" fill="#EBEEF0"/>
<rect width="34.6667" height="17.6" rx="2.31569" transform="matrix(1 0 0 -1 189.975 69.4365)" fill="white"/>
<rect width="10.525" height="4.21034" rx="2.10517" transform="matrix(1 0 0 -1 193.278 64.9939)" fill="#EBEEF0"/>
<rect width="27.9965" height="1.68414" rx="0.842068" transform="matrix(1 0 0 -1 193.278 57.6257)" fill="#EBEEF0"/>
<rect width="34.7324" height="18.9465" rx="2.31569" transform="matrix(1 0 0 -1 151.808 70.874)" fill="white"/>
<rect width="22.1025" height="1.68414" rx="0.842068" transform="matrix(1 0 0 -1 155.176 67.5061)" fill="#EBEEF0"/>
<rect width="10.525" height="4.21034" rx="2.10517" transform="matrix(1 0 0 -1 155.176 63.927)" fill="#EBEEF0"/>
<rect width="27.9965" height="1.68414" rx="0.842068" transform="matrix(1 0 0 -1 155.176 56.5588)" fill="#EBEEF0"/>
<rect width="34.6667" height="17.6" rx="2.31569" transform="matrix(1 0 0 -1 113.71 69.437)" fill="white"/>
<path d="M117.078 62.8892C117.078 64.0519 118.02 64.9944 119.183 64.9944H125.498C126.66 64.9944 127.603 64.0519 127.603 62.8892C127.603 61.7266 126.66 60.784 125.498 60.784H119.183C118.02 60.784 117.078 61.7266 117.078 62.8892Z" fill="#EBEEF0"/>
<rect width="27.9965" height="1.68414" rx="0.842068" transform="matrix(1 0 0 -1 117.078 57.6262)" fill="#EBEEF0"/>
</g>
<path d="M105.71 40.7186C105.71 36.8623 108.836 33.7361 112.692 33.7361H226.569C230.425 33.7361 233.551 36.8623 233.551 40.7186V44.3161H105.71V40.7186Z" fill="white"/>
<rect x="111" y="37.2627" width="3.52667" height="3.52667" rx="1.76333" fill="#F3F5F7"/>
<rect x="116.29" y="37.2627" width="3.52667" height="3.52667" rx="1.76333" fill="#F3F5F7"/>
<rect x="121.623" y="37.2627" width="3.52667" height="3.52667" rx="1.76333" fill="#F3F5F7"/>
</g>
<circle cx="169.175" cy="94.4133" r="21.8661" fill="#EBEEF0"/>
<path d="M168.878 83.5371C174.865 83.5371 179.718 88.3901 179.718 94.3766C179.718 100.363 174.865 105.216 168.878 105.216C162.892 105.216 158.039 100.363 158.039 94.3766C158.039 93.2299 158.217 92.1247 158.547 91.0873" stroke="#93C9A8" stroke-width="3.12374" stroke-linecap="round"/>
<path d="M154.519 91.7681L159.035 89.2424L162.036 93.548" stroke="#93C9A8" stroke-width="3.12374" stroke-linecap="round" stroke-linejoin="round"/>
<defs>
<filter id="filter0_d_2705_17743" x="97.1764" y="27.3361" width="145.067" height="138.1" filterUnits="userSpaceOnUse" color-interpolation-filters="sRGB">
<feFlood flood-opacity="0" result="BackgroundImageFix"/>
<feColorMatrix in="SourceAlpha" type="matrix" values="0 0 0 0 0 0 0 0 0 0 0 0 0 0 0 0 0 0 127 0" result="hardAlpha"/>
<feOffset dy="2.13333"/>
<feGaussianBlur stdDeviation="4.26667"/>
<feComposite in2="hardAlpha" operator="out"/>
<feColorMatrix type="matrix" values="0 0 0 0 0 0 0 0 0 0 0 0 0 0 0 0 0 0 0.15 0"/>
<feBlend mode="normal" in2="BackgroundImageFix" result="effect1_dropShadow_2705_17743"/>
<feBlend mode="normal" in="SourceGraphic" in2="effect1_dropShadow_2705_17743" result="shape"/>
</filter>
</defs>
</svg>
