<svg width="419" height="140" viewBox="0 0 419 140" fill="none" xmlns="http://www.w3.org/2000/svg">
<g clip-path="url(#clip0_1505_5078)">
<g clip-path="url(#clip1_1505_5078)">
<path d="M67.9995 170.5C67.9995 129.978 50.4999 120.5 49.9999 82.5001C49.4999 44.5002 75.9999 21.0001 96.9999 16.5001C118 12.0001 120.5 15.1978 148.5 16.5001C176.5 17.8024 188 -0.999909 228 2.00011C268 5.00013 273.5 21.0001 297 27.5C320.874 34.1033 330.464 28.8215 345.5 49.0001C364.501 74.5001 342.625 100.848 353.499 146.5C368.27 208.5 76.5009 210.5 67.9995 170.5Z" fill="#B8E6CA"/>
<g filter="url(#filter0_d_1505_5078)">
<rect x="167.539" y="18" width="86.6765" height="172.078" rx="12.7465" fill="white"/>
<circle cx="102.523" cy="104.986" r="16.5232" fill="#2F9F9F"/>
<path d="M105.846 100.551C105.414 100.071 104.118 99.1113 102.391 99.1113C100.232 99.1113 98.936 100.551 98.936 101.99C98.936 105.95 105.846 103.695 105.846 107.748C105.846 109.188 104.55 110.628 102.391 110.628C100.663 110.628 99.3679 109.668 98.936 109.188" stroke="white" stroke-width="1.27465" stroke-linecap="round"/>
<path d="M102.392 96.2322V113.507" stroke="white" stroke-width="1.27465" stroke-linecap="round"/>
<circle cx="38.5" cy="70.9631" r="22.5" fill="#2F9F9F"/>
<path d="M43.0231 64.9231C42.4351 64.2697 40.6709 62.9629 38.3186 62.9629C35.3782 62.9629 33.614 64.9231 33.614 66.8834C33.614 72.2749 43.0231 69.205 43.0231 74.7243C43.0231 76.6845 41.2589 78.6448 38.3186 78.6448C35.9663 78.6448 34.2021 77.338 33.614 76.6845" stroke="white" stroke-width="1.27465" stroke-linecap="round"/>
<path d="M38.3188 59.0425V82.5653" stroke="white" stroke-width="1.27465" stroke-linecap="round"/>
<circle cx="292.048" cy="37.9453" r="11.144" fill="#2F9F9F"/>
<path d="M294.289 34.9535C293.998 34.6299 293.124 33.9827 291.959 33.9827C290.503 33.9827 289.629 34.9535 289.629 35.9244C289.629 38.5948 294.289 37.0743 294.289 39.808C294.289 40.7789 293.416 41.7497 291.959 41.7497C290.794 41.7497 289.92 41.1025 289.629 40.7789" stroke="white" stroke-width="0.955991" stroke-linecap="round"/>
<path d="M291.96 32.041V43.6916" stroke="white" stroke-width="0.955991" stroke-linecap="round"/>
<circle cx="344.659" cy="109.963" r="13.7118" fill="#2F9F9F"/>
<path d="M347.416 106.282C347.058 105.884 345.983 105.088 344.549 105.088C342.758 105.088 341.682 106.282 341.682 107.477C341.682 110.762 347.416 108.892 347.416 112.255C347.416 113.45 346.341 114.644 344.549 114.644C343.116 114.644 342.041 113.848 341.682 113.45" stroke="white" stroke-width="1.27465" stroke-linecap="round"/>
<path d="M344.549 102.698V117.034" stroke="white" stroke-width="1.27465" stroke-linecap="round"/>
<circle cx="390.288" cy="50.7514" r="19.2882" fill="#2F9F9F"/>
<path d="M394.166 45.573C393.662 45.0129 392.15 43.8926 390.133 43.8926C387.612 43.8926 386.1 45.573 386.1 47.2534C386.1 51.8753 394.166 49.2437 394.166 53.9751C394.166 55.6555 392.654 57.336 390.133 57.336C388.117 57.336 386.604 56.2157 386.1 55.6555" stroke="white" stroke-width="1.27465" stroke-linecap="round"/>
<path d="M390.131 40.532V60.6971" stroke="white" stroke-width="1.27465" stroke-linecap="round"/>
<rect x="177.796" y="29.5015" width="66.5122" height="11.7374" rx="2.54931" fill="#F3F5F7"/>
<rect x="177.796" y="61.3601" width="66.5122" height="72.6604" rx="2.54931" fill="#F3F5F7"/>
<rect x="177.796" y="138.404" width="66.5122" height="4.47141" rx="2.2357" fill="#F3F5F7"/>
<rect x="190.094" y="44.8281" width="41.9194" height="6.70711" rx="3.35356" fill="#F3F5F7"/>
<rect x="177.796" y="45.3872" width="8.38389" height="1.11785" rx="0.558926" fill="#DEE3E6"/>
<rect x="177.796" y="47.6228" width="8.38389" height="1.11785" rx="0.558926" fill="#DEE3E6"/>
<rect x="177.796" y="49.8586" width="8.38389" height="1.11785" rx="0.558926" fill="#DEE3E6"/>
</g>
<g filter="url(#filter1_d_1505_5078)">
<rect x="144" y="64.4631" width="134" height="63" rx="5.09862" fill="white"/>
<rect x="174.936" y="86.6196" width="71.3807" height="3.18664" rx="1.59332" fill="#F3F5F7"/>
<rect x="187.044" y="92.3555" width="47.7995" height="3.18664" rx="1.59332" fill="#F3F5F7"/>
<rect x="175.826" y="101.916" width="68.8313" height="12.7465" rx="6.37327" fill="#6FD3D3"/>
</g>
<path d="M210.661 46.8994C220.07 46.8994 227.639 54.7119 227.639 64.2764C227.639 73.8409 220.07 81.6543 210.661 81.6543C201.253 81.6542 193.685 73.8408 193.685 64.2764C193.685 54.712 201.253 46.8996 210.661 46.8994Z" fill="#6FD3D3" stroke="white" stroke-width="2.725"/>
<path fill-rule="evenodd" clip-rule="evenodd" d="M210.727 58.1293C210.673 58.1148 210.618 58.1011 210.562 58.0884V57.6604C210.562 57.4056 210.461 57.1916 210.261 57.0183C210.071 56.8349 209.837 56.7432 209.558 56.7432C209.279 56.7432 209.039 56.8349 208.839 57.0183C208.649 57.1916 208.554 57.4056 208.554 57.6604V58.0884C207.662 58.2922 206.937 58.7254 206.379 59.3878C205.822 60.04 205.543 60.7891 205.543 61.635V65.9153H204.204V67.1383H214.912V65.9153H213.573V62.2773C211.902 62.1784 210.578 60.792 210.578 59.0963C210.578 58.7592 210.63 58.4343 210.727 58.1293ZM209.558 68.9727C209.19 68.9727 208.872 68.8555 208.604 68.6211C208.348 68.3765 208.22 68.0861 208.22 67.7498H210.896C210.896 68.0861 210.763 68.3765 210.495 68.6211C210.238 68.8555 209.926 68.9727 209.558 68.9727Z" fill="white"/>
<path fill-rule="evenodd" clip-rule="evenodd" d="M217.032 58.459L212.571 58.459L212.571 57.1843L217.032 57.1843L217.032 58.459Z" fill="white"/>
<path fill-rule="evenodd" clip-rule="evenodd" d="M214.078 60.0524L214.078 55.5911L215.353 55.5911L215.353 60.0524L214.078 60.0524Z" fill="white"/>
</g>
</g>
<defs>
<filter id="filter0_d_1505_5078" x="5.80276" y="10.3521" width="413.971" height="192.473" filterUnits="userSpaceOnUse" color-interpolation-filters="sRGB">
<feFlood flood-opacity="0" result="BackgroundImageFix"/>
<feColorMatrix in="SourceAlpha" type="matrix" values="0 0 0 0 0 0 0 0 0 0 0 0 0 0 0 0 0 0 127 0" result="hardAlpha"/>
<feOffset dy="2.54931"/>
<feGaussianBlur stdDeviation="5.09862"/>
<feComposite in2="hardAlpha" operator="out"/>
<feColorMatrix type="matrix" values="0 0 0 0 0 0 0 0 0 0 0 0 0 0 0 0 0 0 0.15 0"/>
<feBlend mode="normal" in2="BackgroundImageFix" result="effect1_dropShadow_1505_5078"/>
<feBlend mode="normal" in="SourceGraphic" in2="effect1_dropShadow_1505_5078" result="shape"/>
</filter>
<filter id="filter1_d_1505_5078" x="133.803" y="59.3645" width="154.394" height="83.3945" filterUnits="userSpaceOnUse" color-interpolation-filters="sRGB">
<feFlood flood-opacity="0" result="BackgroundImageFix"/>
<feColorMatrix in="SourceAlpha" type="matrix" values="0 0 0 0 0 0 0 0 0 0 0 0 0 0 0 0 0 0 127 0" result="hardAlpha"/>
<feOffset dy="5.09862"/>
<feGaussianBlur stdDeviation="5.09862"/>
<feComposite in2="hardAlpha" operator="out"/>
<feColorMatrix type="matrix" values="0 0 0 0 0 0 0 0 0 0 0 0 0 0 0 0 0 0 0.15 0"/>
<feBlend mode="normal" in2="BackgroundImageFix" result="effect1_dropShadow_1505_5078"/>
<feBlend mode="normal" in="SourceGraphic" in2="effect1_dropShadow_1505_5078" result="shape"/>
</filter>
<clipPath id="clip0_1505_5078">
<rect width="419" height="140" fill="white"/>
</clipPath>
<clipPath id="clip1_1505_5078">
<rect width="553" height="140" fill="white" transform="translate(-67)"/>
</clipPath>
</defs>
</svg>
