<svg width="457" height="146" viewBox="0 0 457 146" fill="none" xmlns="http://www.w3.org/2000/svg">
<g clip-path="url(#clip0_1505_4933)">
<g clip-path="url(#clip1_1505_4933)">
<path d="M35.9792 159.764C31.018 101.758 44.6896 66.5796 82.199 40.3813C128.359 8.14081 175.5 43.3813 206 43.3813C236.5 43.3813 249.5 29.5001 270.5 16.5001C291.5 3.50009 312.407 -3.00028 335.5 3.50009C358.593 10.0005 376.882 28.426 383.5 53.0001C388.539 71.714 392.466 94.6186 410.5 107.5C438.5 127.5 463.5 138 457.5 164.5L35.9792 159.764Z" fill="#B8E6CA"/>
<g filter="url(#filter0_d_1505_4933)">
<path fill-rule="evenodd" clip-rule="evenodd" d="M323.208 75.834C305.685 73.1579 292.26 58.0217 292.26 39.75C292.26 38.0038 292.383 36.2863 292.62 34.6055H146.225C140.578 34.6055 136 39.1834 136 44.8305V152.198C136 157.846 140.578 162.423 146.225 162.423H312.983C318.63 162.423 323.208 157.846 323.208 152.198V75.834Z" fill="white"/>
<path fill-rule="evenodd" clip-rule="evenodd" d="M292.62 34.6055H146.225C140.578 34.6055 136 39.1834 136 44.8305V50.0986H293.748C292.78 46.8177 292.26 43.3446 292.26 39.75C292.26 38.0038 292.383 36.2863 292.62 34.6055Z" fill="#EBEEF0"/>
<rect x="143.746" y="39.7695" width="5.16436" height="5.16436" rx="2.58218" fill="#CBD0D3"/>
<rect x="151.493" y="39.7695" width="5.16436" height="5.16436" rx="2.58218" fill="#CBD0D3"/>
<rect x="146.4" y="60.6067" width="18.5722" height="18.5722" rx="3.83438" fill="#EBEEF0"/>
<rect x="146.4" y="89.5793" width="18.5722" height="18.5722" rx="3.83438" fill="#EBEEF0"/>
<rect x="146.4" y="118.552" width="18.5722" height="18.5722" rx="3.83438" fill="#EBEEF0"/>
<rect x="170.916" y="62.0923" width="30.4585" height="7.4289" rx="3.71445" fill="#EBEEF0"/>
<rect x="170.916" y="91.0649" width="30.4585" height="7.4289" rx="3.71445" fill="#EBEEF0"/>
<rect x="170.916" y="120.038" width="30.4585" height="7.4289" rx="3.71445" fill="#EBEEF0"/>
<rect x="170.916" y="73.2356" width="65.3743" height="4.45734" rx="2.22867" fill="#EBEEF0"/>
<rect x="170.916" y="102.208" width="65.3743" height="4.45734" rx="2.22867" fill="#EBEEF0"/>
<rect x="170.916" y="131.181" width="65.3743" height="4.45734" rx="2.22867" fill="#EBEEF0"/>
<path fill-rule="evenodd" clip-rule="evenodd" d="M312.808 72.5911C307.176 69.8498 302.356 65.7028 298.802 60.6067H276.003C273.764 60.6067 271.949 62.4218 271.949 64.661V139.756C271.949 141.995 273.764 143.81 276.003 143.81H308.753C310.992 143.81 312.808 141.995 312.808 139.756V72.5911Z" fill="#EBEEF0"/>
<circle cx="328.765" cy="39.7499" r="31.342" fill="white"/>
<path d="M329.284 21.4773C329.284 21.4773 320.296 25.6116 313.106 27.0496C313.106 49.6982 325.329 57.787 329.284 57.787C333.238 57.787 345.641 47.9007 344.922 27.0496C337.552 25.4318 329.284 21.4773 329.284 21.4773Z" fill="#8E68CB"/>
<path d="M329.284 21.4773C329.284 21.4773 320.296 25.6116 313.106 27.0496C313.106 49.6982 325.329 57.787 329.284 57.787C333.238 57.787 345.641 47.9007 344.922 27.0496C337.552 25.4318 329.284 21.4773 329.284 21.4773Z" fill="#A983E6"/>
<path d="M329.284 21.4773C329.284 21.4773 320.296 25.6116 313.106 27.0496C313.106 49.6982 325.329 57.787 329.284 57.787V21.4773Z" fill="#8E68CB"/>
<circle cx="329.463" cy="38.9133" r="7.54953" fill="#462083"/>
<circle opacity="0.5" cx="329.316" cy="38.9838" r="9.63673" stroke="#6E48AB" stroke-width="1.47492"/>
<mask id="mask0_1505_4933" style="mask-type:alpha" maskUnits="userSpaceOnUse" x="321" y="31" width="17" height="16">
<circle cx="329.463" cy="38.9133" r="7.54953" fill="#D9D9D9"/>
</mask>
<g mask="url(#mask0_1505_4933)">
<circle cx="329.464" cy="36.0375" r="3.23551" fill="white"/>
<ellipse cx="329.463" cy="45.744" rx="7.19003" ry="5.75202" fill="white"/>
</g>
</g>
<g filter="url(#filter1_d_1505_4933)">
<rect x="166.872" y="86.4243" width="125.466" height="44.4359" rx="4.49713" fill="#8E68CB"/>
<rect x="200.852" y="95.1372" width="57.5053" height="3.48517" rx="1.74259" fill="white"/>
<rect x="191.268" y="102.979" width="76.6737" height="3.48517" rx="1.74259" fill="white"/>
<rect x="231.347" y="113.434" width="27.0101" height="9.58422" rx="4.79211" fill="white"/>
<rect x="201.589" y="114.172" width="25.5352" height="8.1093" rx="4.05465" stroke="white" stroke-width="1.47492"/>
</g>
</g>
</g>
<defs>
<filter id="filter0_d_1505_4933" x="124.201" y="-0.441535" width="247.705" height="177.614" filterUnits="userSpaceOnUse" color-interpolation-filters="sRGB">
<feFlood flood-opacity="0" result="BackgroundImageFix"/>
<feColorMatrix in="SourceAlpha" type="matrix" values="0 0 0 0 0 0 0 0 0 0 0 0 0 0 0 0 0 0 127 0" result="hardAlpha"/>
<feOffset dy="2.94983"/>
<feGaussianBlur stdDeviation="5.89966"/>
<feComposite in2="hardAlpha" operator="out"/>
<feColorMatrix type="matrix" values="0 0 0 0 0 0 0 0 0 0 0 0 0 0 0 0 0 0 0.15 0"/>
<feBlend mode="normal" in2="BackgroundImageFix" result="effect1_dropShadow_1505_4933"/>
<feBlend mode="normal" in="SourceGraphic" in2="effect1_dropShadow_1505_4933" result="shape"/>
</filter>
<filter id="filter1_d_1505_4933" x="155.072" y="80.5247" width="149.065" height="68.0347" filterUnits="userSpaceOnUse" color-interpolation-filters="sRGB">
<feFlood flood-opacity="0" result="BackgroundImageFix"/>
<feColorMatrix in="SourceAlpha" type="matrix" values="0 0 0 0 0 0 0 0 0 0 0 0 0 0 0 0 0 0 127 0" result="hardAlpha"/>
<feOffset dy="5.89966"/>
<feGaussianBlur stdDeviation="5.89966"/>
<feComposite in2="hardAlpha" operator="out"/>
<feColorMatrix type="matrix" values="0 0 0 0 0 0 0 0 0 0 0 0 0 0 0 0 0 0 0.25 0"/>
<feBlend mode="normal" in2="BackgroundImageFix" result="effect1_dropShadow_1505_4933"/>
<feBlend mode="normal" in="SourceGraphic" in2="effect1_dropShadow_1505_4933" result="shape"/>
</filter>
<clipPath id="clip0_1505_4933">
<rect width="457" height="146" fill="white"/>
</clipPath>
<clipPath id="clip1_1505_4933">
<rect width="553" height="158" fill="white" transform="translate(-48)"/>
</clipPath>
</defs>
</svg>
