<svg width="365" height="366" viewBox="0 0 365 366" fill="none" xmlns="http://www.w3.org/2000/svg">
<g clip-path="url(#clip0_2617_16225)">
<path d="M395.798 229.776C413.38 279.873 394.526 345.48 338.659 362.112C282.792 378.743 247.547 330.084 223.065 327.742C198.583 325.4 166.139 350.715 126.046 362.349C85.9538 373.984 40.9924 355.764 12.48 313.568C-16.0325 271.372 7.52122 189.701 50.6981 176.063C93.8751 162.426 102.563 186.006 145.576 175.891C188.59 165.777 184.146 134.996 223.469 122.59C311.228 94.9028 378.216 179.679 395.798 229.776Z" fill="#D0FBE1"/>
<g filter="url(#filter0_d_2617_16225)">
<rect x="73.8264" y="138" width="203" height="189" rx="11.037" fill="#EBEEF0"/>
<mask id="mask0_2617_16225" style="mask-type:alpha" maskUnits="userSpaceOnUse" x="74" y="137" width="202" height="190">
<rect x="74" y="137" width="202" height="190" rx="11.037" fill="#DEE3E6"/>
</mask>
<g mask="url(#mask0_2617_16225)">
<rect x="86.8237" y="202.257" width="82" height="137" rx="5.92948" fill="white"/>
<rect x="96.9084" y="248.421" width="28.5777" height="5.12934" rx="2.56467" fill="#EBEEF0"/>
<rect x="96.9084" y="240.361" width="10.2587" height="5.12934" rx="2.56467" fill="#EBEEF0"/>
<rect x="96.9084" y="266.782" width="10.2587" height="5.12934" rx="2.56467" fill="#EBEEF0"/>
<rect x="96.9084" y="292.117" width="10.2587" height="5.12934" rx="2.56467" fill="#EBEEF0"/>
<path d="M143.073 247.322C143.073 244.691 145.205 242.559 147.835 242.559H155.163C157.794 242.559 159.926 244.691 159.926 247.322V247.322C159.926 249.952 157.794 252.085 155.163 252.085H147.835C145.205 252.085 143.073 249.952 143.073 247.322V247.322Z" fill="#EBEEF0"/>
<rect x="96.8918" y="213.577" width="19.4056" height="4.85139" rx="2.4257" fill="#EBEEF0"/>
<path d="M143.073 273.743C143.073 271.113 145.205 268.98 147.835 268.98H155.163C157.794 268.98 159.926 271.113 159.926 273.743V273.743C159.926 276.374 157.794 278.506 155.163 278.506H147.835C145.205 278.506 143.073 276.374 143.073 273.743V273.743Z" fill="#EBEEF0"/>
<path d="M143.073 299.078C143.073 296.448 145.205 294.315 147.835 294.315H155.163C157.794 294.315 159.926 296.448 159.926 299.078V299.078C159.926 301.709 157.794 303.841 155.163 303.841H147.835C145.205 303.841 143.073 301.709 143.073 299.078V299.078Z" fill="#EBEEF0"/>
<rect x="96.1755" y="274.843" width="30.0433" height="5.12934" rx="2.56467" fill="#EBEEF0"/>
<rect x="96.1755" y="305.568" width="30.0433" height="5.12934" rx="2.56467" fill="#EBEEF0"/>
<path d="M169.124 228.4H87.1891" stroke="#EBEEF0" stroke-width="1.07809"/>
<rect x="178.824" y="202.257" width="83" height="137" rx="5.92948" fill="white"/>
<rect x="190.14" y="248.421" width="28.5133" height="5.12934" rx="2.56467" fill="#EBEEF0"/>
<rect x="190.14" y="240.361" width="10.2356" height="5.12934" rx="2.56467" fill="#EBEEF0"/>
<rect x="190.14" y="266.782" width="10.2356" height="5.12934" rx="2.56467" fill="#EBEEF0"/>
<rect x="190.14" y="292.117" width="10.2356" height="5.12934" rx="2.56467" fill="#EBEEF0"/>
<path d="M236.2 247.322C236.2 244.691 238.332 242.559 240.963 242.559H248.252C250.883 242.559 253.015 244.691 253.015 247.322V247.322C253.015 249.952 250.883 252.085 248.252 252.085H240.963C238.332 252.085 236.2 249.952 236.2 247.322V247.322Z" fill="#EBEEF0"/>
<rect x="190.164" y="213.577" width="19.439" height="4.85139" rx="2.4257" fill="#EBEEF0"/>
<path d="M261.998 228.401H179.382" stroke="#EBEEF0" stroke-width="1.07809"/>
<path d="M236.2 273.743C236.2 271.113 238.332 268.98 240.963 268.98H248.252C250.883 268.98 253.015 271.113 253.015 273.743V273.743C253.015 276.374 250.883 278.506 248.252 278.506H240.963C238.332 278.506 236.2 276.374 236.2 273.743V273.743Z" fill="#EBEEF0"/>
<path d="M236.2 299.078C236.2 296.448 238.332 294.315 240.963 294.315H248.252C250.883 294.315 253.015 296.448 253.015 299.078V299.078C253.015 301.709 250.883 303.841 248.252 303.841H240.963C238.332 303.841 236.2 301.709 236.2 299.078V299.078Z" fill="#EBEEF0"/>
<rect x="189.409" y="274.843" width="29.9755" height="5.12934" rx="2.56467" fill="#EBEEF0"/>
<rect x="189.409" y="305.568" width="29.9755" height="5.12934" rx="2.56467" fill="#EBEEF0"/>
<rect width="55" height="30" rx="3.6603" transform="matrix(1 0 0 -1 206.823 196.007)" fill="white"/>
<rect width="16.6364" height="6.6551" rx="3.32755" transform="matrix(1 0 0 -1 212.421 186.804)" fill="#EBEEF0"/>
<rect width="44.2527" height="2.66204" rx="1.33102" transform="matrix(1 0 0 -1 212.421 175.158)" fill="#EBEEF0"/>
<rect width="54.9" height="29.9479" rx="3.6603" transform="matrix(1 0 0 -1 146.873 196.099)" fill="white"/>
<rect width="34.9364" height="2.66204" rx="1.33102" transform="matrix(1 0 0 -1 152.197 190.775)" fill="#EBEEF0"/>
<rect width="16.6364" height="6.6551" rx="3.32755" transform="matrix(1 0 0 -1 152.197 185.118)" fill="#EBEEF0"/>
<rect width="44.2527" height="2.66204" rx="1.33102" transform="matrix(1 0 0 -1 152.197 173.471)" fill="#EBEEF0"/>
<rect width="55" height="30" rx="3.6603" transform="matrix(1 0 0 -1 86.8232 196.007)" fill="white"/>
<path d="M91.9724 183.477C91.9724 185.314 93.4622 186.804 95.3 186.804H105.281C107.119 186.804 108.609 185.314 108.609 183.477V183.477C108.609 181.639 107.119 180.149 105.281 180.149H95.3C93.4622 180.149 91.9724 181.639 91.9724 183.477V183.477Z" fill="#EBEEF0"/>
<rect width="44.2527" height="2.66204" rx="1.33102" transform="matrix(1 0 0 -1 91.9724 175.158)" fill="#EBEEF0"/>
</g>
<path d="M73.8264 148.876C73.8264 142.78 78.7678 137.839 84.8634 137.839H264.863C270.959 137.839 275.9 142.78 275.9 148.876V154.562H73.8264V148.876Z" fill="white"/>
<rect x="82.3669" y="142.971" width="5.57444" height="5.57444" rx="2.78722" fill="#F3F5F7"/>
<rect x="90.7288" y="142.971" width="5.57444" height="5.57444" rx="2.78722" fill="#F3F5F7"/>
<rect x="99.1589" y="142.971" width="5.57444" height="5.57444" rx="2.78722" fill="#F3F5F7"/>
</g>
<path d="M270.533 143.668C267.039 139.906 266.107 126.272 266.107 126.272C266.107 126.272 265.408 139.906 261.914 143.668C258.419 147.429 248.402 148.134 248.402 148.134C248.402 148.134 259.584 149.544 262.147 153.541C264.709 157.537 266.107 170.231 266.107 170.231C266.107 170.231 267.039 156.362 270.533 152.835C274.027 149.309 284.044 148.134 284.044 148.134C284.044 148.134 274.027 147.429 270.533 143.668Z" fill="#FECE72"/>
<path d="M237.006 162.191C233.978 158.938 233.17 147.147 233.17 147.147C233.17 147.147 232.564 158.938 229.536 162.191C226.508 165.444 217.826 166.054 217.826 166.054C217.826 166.054 227.517 167.274 229.738 170.73C231.959 174.186 233.17 185.165 233.17 185.165C233.17 185.165 233.978 173.17 237.006 170.12C240.035 167.071 248.716 166.054 248.716 166.054C248.716 166.054 240.035 165.444 237.006 162.191Z" fill="#FECE72"/>
<path d="M291.831 186.721C289.851 184.587 289.323 176.848 289.323 176.848C289.323 176.848 288.927 184.587 286.946 186.721C284.966 188.856 279.29 189.256 279.29 189.256C279.29 189.256 285.626 190.057 287.079 192.325C288.531 194.593 289.323 201.798 289.323 201.798C289.323 201.798 289.851 193.926 291.831 191.925C293.811 189.924 299.487 189.256 299.487 189.256C299.487 189.256 293.811 188.856 291.831 186.721Z" fill="#FECE72"/>
<path d="M252.432 109.522C250.908 107.896 250.501 102 250.501 102C250.501 102 250.196 107.896 248.671 109.522C247.146 111.149 242.775 111.454 242.775 111.454C242.775 111.454 247.655 112.064 248.773 113.792C249.891 115.52 250.501 121.009 250.501 121.009C250.501 121.009 250.908 115.012 252.432 113.487C253.957 111.962 258.328 111.454 258.328 111.454C258.328 111.454 253.957 111.149 252.432 109.522Z" fill="#FECE72"/>
</g>
<defs>
<filter id="filter0_d_2617_16225" x="60.3382" y="127.722" width="229.976" height="216.138" filterUnits="userSpaceOnUse" color-interpolation-filters="sRGB">
<feFlood flood-opacity="0" result="BackgroundImageFix"/>
<feColorMatrix in="SourceAlpha" type="matrix" values="0 0 0 0 0 0 0 0 0 0 0 0 0 0 0 0 0 0 127 0" result="hardAlpha"/>
<feOffset dy="3.37206"/>
<feGaussianBlur stdDeviation="6.74413"/>
<feComposite in2="hardAlpha" operator="out"/>
<feColorMatrix type="matrix" values="0 0 0 0 0 0 0 0 0 0 0 0 0 0 0 0 0 0 0.15 0"/>
<feBlend mode="normal" in2="BackgroundImageFix" result="effect1_dropShadow_2617_16225"/>
<feBlend mode="normal" in="SourceGraphic" in2="effect1_dropShadow_2617_16225" result="shape"/>
</filter>
<clipPath id="clip0_2617_16225">
<rect width="365" height="366" fill="white"/>
</clipPath>
</defs>
</svg>
