<svg width="414" height="140" viewBox="0 0 414 140" fill="none" xmlns="http://www.w3.org/2000/svg">
<g clip-path="url(#clip0_1505_5192)">
<path d="M410.262 126.987C414.224 172.915 402.335 193.219 372.263 248.115C342.191 303.011 384.482 367.882 337.971 429.694C282.639 503.228 89.29 509.229 5.87238 478.613C-77.5452 447.998 -99.0561 384.715 -93.0603 326.764C-84.923 248.115 -32.5121 253.113 5.87238 184.057C44.2569 115 -12 76.5001 54.5 30C121 -16.5 170.194 41.7866 236.603 37.1222C274.917 34.4312 312.547 25.7533 346.557 39.0786C380.938 52.5489 407.157 90.4545 410.262 126.987Z" fill="#B8E6CA"/>
<rect x="171.086" y="28.0813" width="92.8667" height="6.24314" rx="3.12157" fill="#F3F5F7"/>
<g filter="url(#filter0_d_1505_5192)">
<rect x="166.526" y="6" width="101.986" height="165.81" rx="13.1595" fill="white"/>
<rect x="178.37" y="17.1855" width="78.2991" height="13.8175" rx="2.6319" fill="#F3F5F7"/>
<rect x="178.37" y="54.6902" width="78.2991" height="85.5369" rx="2.6319" fill="#F3F5F7"/>
<rect x="192.845" y="37.5828" width="49.3482" height="7.89571" rx="3.94786" fill="#F3F5F7"/>
<rect x="178.37" y="38.2407" width="9.86964" height="1.31595" rx="0.657976" fill="#DEE3E6"/>
<rect x="178.37" y="40.8726" width="9.86964" height="1.31595" rx="0.657976" fill="#DEE3E6"/>
<rect x="178.37" y="43.5046" width="9.86964" height="1.31595" rx="0.657976" fill="#DEE3E6"/>
<circle cx="342.302" cy="69.5451" r="14.0471" fill="#6380B8"/>
<circle cx="341.192" cy="68.0906" r="3.7788" stroke="white" stroke-width="1.61173"/>
<path d="M343.808 71.2881L346.984 75.0392" stroke="white" stroke-width="1.61173" stroke-linecap="round" stroke-linejoin="round"/>
<circle cx="359.47" cy="108.565" r="10.9255" fill="#6380B8"/>
<circle cx="358.607" cy="107.433" r="2.93907" stroke="white" stroke-width="1.61173"/>
<path d="M360.642 109.92L363.112 112.838" stroke="white" stroke-width="1.61173" stroke-linecap="round" stroke-linejoin="round"/>
<circle cx="86.9949" cy="92.5552" r="19.5098" fill="#6380B8"/>
<circle cx="85.4527" cy="90.5352" r="5.24834" stroke="white" stroke-width="1.61173"/>
<path d="M89.0859 94.9761L93.498 100.186" stroke="white" stroke-width="1.61173" stroke-linecap="round" stroke-linejoin="round"/>
<circle cx="378.98" cy="37.549" r="17.1686" fill="#6380B8"/>
<circle cx="377.623" cy="35.7714" r="4.61854" stroke="white" stroke-width="1.61173"/>
<path d="M380.821 39.6794L384.704 44.2642" stroke="white" stroke-width="1.61173" stroke-linecap="round" stroke-linejoin="round"/>
</g>
<g filter="url(#filter1_d_1505_5192)">
<path d="M135.969 53.0539C135.969 49.6059 138.764 46.8108 142.212 46.8108H206.984C210.432 46.8108 213.227 49.6059 213.227 53.0539V81.9284H135.969V53.0539Z" fill="#9BB8F0"/>
<path d="M135.969 87.001H213.227V120.948C213.227 124.396 210.432 127.191 206.984 127.191H142.212C138.764 127.191 135.969 124.396 135.969 120.948V87.001Z" fill="white"/>
<rect x="135.969" y="81.9285" width="77.2588" height="14.8275" fill="#F3F5F7"/>
<rect x="142.992" y="86.6108" width="48.3843" height="5.46274" rx="2.73137" fill="#DEE3E6"/>
<rect x="142.992" y="105.34" width="42.1412" height="3.90196" rx="1.95098" fill="#EBEEF0"/>
<rect x="142.992" y="112.364" width="28.0941" height="3.90196" rx="1.95098" fill="#EBEEF0"/>
<circle cx="199.961" cy="110.803" r="6.24314" fill="#EBEEF0"/>
<path d="M199.069 108.127L201.744 110.803L199.069 113.478" stroke="white" stroke-width="1.78375" stroke-linecap="round" stroke-linejoin="round"/>
</g>
<g filter="url(#filter2_d_1505_5192)">
<path d="M221.812 53.0539C221.812 49.6059 224.607 46.8108 228.055 46.8108H292.827C296.275 46.8108 299.07 49.6059 299.07 53.0539V81.9284H221.812V53.0539Z" fill="#9BB8F0"/>
<path d="M221.812 87.001H299.07V120.948C299.07 124.396 296.275 127.191 292.827 127.191H228.055C224.607 127.191 221.812 124.396 221.812 120.948V87.001Z" fill="white"/>
<rect x="221.812" y="81.9285" width="77.2588" height="14.8275" fill="#F3F5F7"/>
<rect x="228.835" y="86.6108" width="48.3843" height="5.46274" rx="2.73137" fill="#DEE3E6"/>
<rect x="228.835" y="105.34" width="42.1412" height="3.90196" rx="1.95098" fill="#EBEEF0"/>
<rect x="228.835" y="112.364" width="28.0941" height="3.90196" rx="1.95098" fill="#EBEEF0"/>
<circle cx="285.804" cy="110.803" r="6.24314" fill="#EBEEF0"/>
<path d="M284.912 108.127L287.588 110.803L284.912 113.478" stroke="white" stroke-width="1.78375" stroke-linecap="round" stroke-linejoin="round"/>
</g>
</g>
<defs>
<filter id="filter0_d_1505_5192" x="54.9988" y="-3.36471" width="353.636" height="190.783" filterUnits="userSpaceOnUse" color-interpolation-filters="sRGB">
<feFlood flood-opacity="0" result="BackgroundImageFix"/>
<feColorMatrix in="SourceAlpha" type="matrix" values="0 0 0 0 0 0 0 0 0 0 0 0 0 0 0 0 0 0 127 0" result="hardAlpha"/>
<feOffset dy="3.12157"/>
<feGaussianBlur stdDeviation="6.24314"/>
<feComposite in2="hardAlpha" operator="out"/>
<feColorMatrix type="matrix" values="0 0 0 0 0 0 0 0 0 0 0 0 0 0 0 0 0 0 0.15 0"/>
<feBlend mode="normal" in2="BackgroundImageFix" result="effect1_dropShadow_1505_5192"/>
<feBlend mode="normal" in="SourceGraphic" in2="effect1_dropShadow_1505_5192" result="shape"/>
</filter>
<filter id="filter1_d_1505_5192" x="123.482" y="40.5677" width="102.231" height="105.353" filterUnits="userSpaceOnUse" color-interpolation-filters="sRGB">
<feFlood flood-opacity="0" result="BackgroundImageFix"/>
<feColorMatrix in="SourceAlpha" type="matrix" values="0 0 0 0 0 0 0 0 0 0 0 0 0 0 0 0 0 0 127 0" result="hardAlpha"/>
<feOffset dy="6.24314"/>
<feGaussianBlur stdDeviation="6.24314"/>
<feComposite in2="hardAlpha" operator="out"/>
<feColorMatrix type="matrix" values="0 0 0 0 0 0 0 0 0 0 0 0 0 0 0 0 0 0 0.15 0"/>
<feBlend mode="normal" in2="BackgroundImageFix" result="effect1_dropShadow_1505_5192"/>
<feBlend mode="normal" in="SourceGraphic" in2="effect1_dropShadow_1505_5192" result="shape"/>
</filter>
<filter id="filter2_d_1505_5192" x="209.325" y="40.5677" width="102.231" height="105.353" filterUnits="userSpaceOnUse" color-interpolation-filters="sRGB">
<feFlood flood-opacity="0" result="BackgroundImageFix"/>
<feColorMatrix in="SourceAlpha" type="matrix" values="0 0 0 0 0 0 0 0 0 0 0 0 0 0 0 0 0 0 127 0" result="hardAlpha"/>
<feOffset dy="6.24314"/>
<feGaussianBlur stdDeviation="6.24314"/>
<feComposite in2="hardAlpha" operator="out"/>
<feColorMatrix type="matrix" values="0 0 0 0 0 0 0 0 0 0 0 0 0 0 0 0 0 0 0.15 0"/>
<feBlend mode="normal" in2="BackgroundImageFix" result="effect1_dropShadow_1505_5192"/>
<feBlend mode="normal" in="SourceGraphic" in2="effect1_dropShadow_1505_5192" result="shape"/>
</filter>
<clipPath id="clip0_1505_5192">
<rect width="414" height="140" fill="white"/>
</clipPath>
</defs>
</svg>
