<svg width="385" height="145" viewBox="0 0 385 145" fill="none" xmlns="http://www.w3.org/2000/svg">
<g clip-path="url(#clip0_1505_4259)">
<path d="M357.374 40.479C311.375 -10.8227 249.277 -3.50264 220.424 9.44189C182.781 26.3293 183.129 55.1697 162.848 67.153C142.566 79.1362 131.949 77.8929 100.126 79.0979C68.303 80.3029 17.3997 96.3398 3.62285 147.366C-10.1539 198.392 16.5402 243.592 63.6878 259.033C110.835 274.474 131.031 244.521 172.453 235.805C213.874 227.088 229.248 246.015 268.4 240.785C355.78 229.113 427.563 118.76 357.374 40.479Z" fill="#B8E6CA"/>
<g filter="url(#filter0_d_1505_4259)">
<rect x="72.0215" y="30.0261" width="190.985" height="130.397" rx="10.4313" fill="white"/>
<rect x="82.376" y="56.3694" width="57.9542" height="93.517" rx="3.91175" fill="#BED4FF"/>
<circle cx="98.1812" cy="72.1751" r="7.90285" fill="#7F9CD4"/>
<path d="M99.0369 86.9144L87.6445 99.0979H135.062L117.819 80.658L105.503 93.8294L99.0369 86.9144Z" fill="#7F9CD4"/>
<rect x="100.816" y="134.08" width="21.0743" height="10.5371" rx="5.26856" fill="#7F9CD4"/>
<path fill-rule="evenodd" clip-rule="evenodd" d="M128.401 119.722C128.401 120.733 127.582 121.552 126.571 121.552H95.8178C94.8069 121.552 93.9873 120.733 93.9873 119.722C93.9873 118.711 94.8069 117.891 95.8178 117.891H126.571C127.582 117.891 128.401 118.711 128.401 119.722Z" fill="#7F9CD4"/>
<path fill-rule="evenodd" clip-rule="evenodd" d="M128.401 126.311C128.401 127.322 127.582 128.142 126.571 128.142H95.8178C94.8069 128.142 93.9873 127.322 93.9873 126.311C93.9873 125.301 94.8069 124.481 95.8178 124.481H126.571C127.582 124.481 128.401 125.301 128.401 126.311Z" fill="#7F9CD4"/>
<path d="M72.0215 40.4575C72.0215 34.6964 76.6918 30.0261 82.4528 30.0261H252.576C258.337 30.0261 263.007 34.6964 263.007 40.4575V45.8318H72.0215V40.4575Z" fill="#EBEEF0"/>
<rect x="79.9238" y="35.2947" width="5.26856" height="5.26856" rx="2.63428" fill="#CBD0D3"/>
<rect x="87.8271" y="35.2947" width="5.26856" height="5.26856" rx="2.63428" fill="#CBD0D3"/>
<rect x="156.01" y="56.3694" width="92.8585" height="31.6114" rx="7.32208" fill="#EBEEF0"/>
<rect x="156.226" y="96.657" width="68.0953" height="8.05429" rx="4.02714" fill="#EBEEF0"/>
<rect x="156.01" y="112.557" width="80.3456" height="4.13608" rx="2.06804" fill="#EBEEF0"/>
<rect x="156.01" y="122.528" width="68.4913" height="4.13608" rx="2.06804" fill="#EBEEF0"/>
<rect x="156.01" y="132.499" width="92.8585" height="4.13608" rx="2.06804" fill="#EBEEF0"/>
</g>
<g filter="url(#filter1_d_1505_4259)">
<circle cx="241.107" cy="35.0973" r="18.9831" fill="#C59539"/>
<path d="M244.925 30.0012C244.429 29.45 242.94 28.3474 240.956 28.3474C238.475 28.3474 236.986 30.0012 236.986 31.6551C236.986 36.2038 244.925 33.6139 244.925 38.2704C244.925 39.9243 243.436 41.5781 240.956 41.5781C238.971 41.5781 237.482 40.4755 236.986 39.9243" stroke="#FFE4B1" stroke-width="1.46442" stroke-linecap="round"/>
<path d="M240.955 25.0398V44.8858" stroke="#FFE4B1" stroke-width="1.46442" stroke-linecap="round"/>
</g>
<g filter="url(#filter2_d_1505_4259)">
<circle cx="200.836" cy="133.945" r="15.322" fill="#C59539"/>
<path d="M203.917 129.832C203.517 129.387 202.315 128.497 200.713 128.497C198.711 128.497 197.51 129.832 197.51 131.167C197.51 134.839 203.917 132.748 203.917 136.507C203.917 137.841 202.716 139.176 200.713 139.176C199.112 139.176 197.91 138.286 197.51 137.841" stroke="#FFE4B1" stroke-width="1.46442" stroke-linecap="round"/>
<path d="M200.713 125.828V141.846" stroke="#FFE4B1" stroke-width="1.46442" stroke-linecap="round"/>
</g>
<g filter="url(#filter3_d_1505_4259)">
<circle cx="169.405" cy="106.908" r="10.9831" fill="#C59539"/>
<path d="M171.614 103.959C171.327 103.64 170.466 103.002 169.318 103.002C167.883 103.002 167.021 103.959 167.021 104.916C167.021 107.548 171.614 106.049 171.614 108.744C171.614 109.701 170.753 110.657 169.318 110.657C168.17 110.657 167.309 110.019 167.021 109.701" stroke="#FFE4B1" stroke-width="1.25521" stroke-linecap="round"/>
<path d="M169.318 101.089V112.571" stroke="#FFE4B1" stroke-width="1.25521" stroke-linecap="round"/>
</g>
<g filter="url(#filter4_d_1505_4259)">
<circle cx="285.288" cy="71.8225" r="10.9831" fill="#C59539"/>
<path d="M287.497 68.8739C287.21 68.5549 286.349 67.917 285.201 67.917C283.765 67.917 282.904 68.8739 282.904 69.8307C282.904 72.4625 287.497 70.964 287.497 73.6582C287.497 74.6151 286.636 75.5719 285.201 75.5719C284.053 75.5719 283.191 74.934 282.904 74.6151" stroke="#FFE4B1" stroke-width="1.25521" stroke-linecap="round"/>
<path d="M285.201 66.0034V77.4858" stroke="#FFE4B1" stroke-width="1.25521" stroke-linecap="round"/>
</g>
</g>
<defs>
<filter id="filter0_d_1505_4259" x="60.3062" y="21.2396" width="214.416" height="153.828" filterUnits="userSpaceOnUse" color-interpolation-filters="sRGB">
<feFlood flood-opacity="0" result="BackgroundImageFix"/>
<feColorMatrix in="SourceAlpha" type="matrix" values="0 0 0 0 0 0 0 0 0 0 0 0 0 0 0 0 0 0 127 0" result="hardAlpha"/>
<feOffset dy="2.92883"/>
<feGaussianBlur stdDeviation="5.85766"/>
<feComposite in2="hardAlpha" operator="out"/>
<feColorMatrix type="matrix" values="0 0 0 0 0 0 0 0 0 0 0 0 0 0 0 0 0 0 0.15 0"/>
<feBlend mode="normal" in2="BackgroundImageFix" result="effect1_dropShadow_1505_4259"/>
<feBlend mode="normal" in="SourceGraphic" in2="effect1_dropShadow_1505_4259" result="shape"/>
</filter>
<filter id="filter1_d_1505_4259" x="210.409" y="7.32777" width="61.3965" height="61.3967" filterUnits="userSpaceOnUse" color-interpolation-filters="sRGB">
<feFlood flood-opacity="0" result="BackgroundImageFix"/>
<feColorMatrix in="SourceAlpha" type="matrix" values="0 0 0 0 0 0 0 0 0 0 0 0 0 0 0 0 0 0 127 0" result="hardAlpha"/>
<feOffset dy="2.92883"/>
<feGaussianBlur stdDeviation="5.85766"/>
<feComposite in2="hardAlpha" operator="out"/>
<feColorMatrix type="matrix" values="0 0 0 0 0 0 0 0 0 0 0 0 0 0 0 0 0 0 0.15 0"/>
<feBlend mode="normal" in2="BackgroundImageFix" result="effect1_dropShadow_1505_4259"/>
<feBlend mode="normal" in="SourceGraphic" in2="effect1_dropShadow_1505_4259" result="shape"/>
</filter>
<filter id="filter2_d_1505_4259" x="176.058" y="111.531" width="49.5554" height="49.5559" filterUnits="userSpaceOnUse" color-interpolation-filters="sRGB">
<feFlood flood-opacity="0" result="BackgroundImageFix"/>
<feColorMatrix in="SourceAlpha" type="matrix" values="0 0 0 0 0 0 0 0 0 0 0 0 0 0 0 0 0 0 127 0" result="hardAlpha"/>
<feOffset dy="2.36398"/>
<feGaussianBlur stdDeviation="4.72796"/>
<feComposite in2="hardAlpha" operator="out"/>
<feColorMatrix type="matrix" values="0 0 0 0 0 0 0 0 0 0 0 0 0 0 0 0 0 0 0.15 0"/>
<feBlend mode="normal" in2="BackgroundImageFix" result="effect1_dropShadow_1505_4259"/>
<feBlend mode="normal" in="SourceGraphic" in2="effect1_dropShadow_1505_4259" result="shape"/>
</filter>
<filter id="filter3_d_1505_4259" x="151.644" y="90.8412" width="35.5222" height="35.5227" filterUnits="userSpaceOnUse" color-interpolation-filters="sRGB">
<feFlood flood-opacity="0" result="BackgroundImageFix"/>
<feColorMatrix in="SourceAlpha" type="matrix" values="0 0 0 0 0 0 0 0 0 0 0 0 0 0 0 0 0 0 127 0" result="hardAlpha"/>
<feOffset dy="1.69455"/>
<feGaussianBlur stdDeviation="3.38909"/>
<feComposite in2="hardAlpha" operator="out"/>
<feColorMatrix type="matrix" values="0 0 0 0 0 0 0 0 0 0 0 0 0 0 0 0 0 0 0.15 0"/>
<feBlend mode="normal" in2="BackgroundImageFix" result="effect1_dropShadow_1505_4259"/>
<feBlend mode="normal" in="SourceGraphic" in2="effect1_dropShadow_1505_4259" result="shape"/>
</filter>
<filter id="filter4_d_1505_4259" x="267.526" y="55.7557" width="35.5222" height="35.5227" filterUnits="userSpaceOnUse" color-interpolation-filters="sRGB">
<feFlood flood-opacity="0" result="BackgroundImageFix"/>
<feColorMatrix in="SourceAlpha" type="matrix" values="0 0 0 0 0 0 0 0 0 0 0 0 0 0 0 0 0 0 127 0" result="hardAlpha"/>
<feOffset dy="1.69455"/>
<feGaussianBlur stdDeviation="3.38909"/>
<feComposite in2="hardAlpha" operator="out"/>
<feColorMatrix type="matrix" values="0 0 0 0 0 0 0 0 0 0 0 0 0 0 0 0 0 0 0.15 0"/>
<feBlend mode="normal" in2="BackgroundImageFix" result="effect1_dropShadow_1505_4259"/>
<feBlend mode="normal" in="SourceGraphic" in2="effect1_dropShadow_1505_4259" result="shape"/>
</filter>
<clipPath id="clip0_1505_4259">
<rect width="385" height="145" fill="white"/>
</clipPath>
</defs>
</svg>
