<svg width="512" height="510" viewBox="0 0 512 510" fill="none" xmlns="http://www.w3.org/2000/svg">
<path d="M477.903 159.447C481.657 202.951 470.391 222.184 441.891 274.184C413.391 326.184 453.471 387.633 409.391 446.184C356.951 515.84 173.709 521.524 94.6518 492.523C15.5946 463.523 -4.79182 403.578 0.890568 348.684C8.60254 274.184 74.3473 250.016 94.6518 213.505C124.8 159.294 80.5681 103.272 138.927 59.7992C204.572 10.8994 250.384 78.7405 313.322 74.3222C349.633 71.7731 385.295 63.553 417.528 76.1754C450.112 88.935 474.96 124.841 477.903 159.447Z" fill="#B8E6CA"/>
<rect x="193.603" y="226.496" width="119" height="8" rx="4" fill="#F3F5F7"/>
<g filter="url(#filter0_d_1461_11838)">
<rect x="175.603" y="160.496" width="155" height="252" rx="20" fill="white"/>
<rect x="193.603" y="177.496" width="119" height="21" rx="4" fill="#F3F5F7"/>
<rect x="193.603" y="234.496" width="119" height="130" rx="4" fill="#F3F5F7"/>
<rect x="193.603" y="372.496" width="119" height="8" rx="4" fill="#F3F5F7"/>
<rect x="215.603" y="208.496" width="75" height="12" rx="6" fill="#F3F5F7"/>
<rect x="193.603" y="209.496" width="15" height="2" rx="1" fill="#DEE3E6"/>
<rect x="193.603" y="213.496" width="15" height="2" rx="1" fill="#DEE3E6"/>
<rect x="193.603" y="217.496" width="15" height="2" rx="1" fill="#DEE3E6"/>
<circle cx="367.848" cy="160.742" r="18" fill="#6380B8"/>
<circle cx="366.425" cy="158.878" r="4.84218" stroke="white" stroke-width="2.06528"/>
<path d="M369.777 162.975L373.848 167.782" stroke="white" stroke-width="2.06528" stroke-linecap="round" stroke-linejoin="round"/>
<circle cx="389.848" cy="210.742" r="14" fill="#6380B8"/>
<circle cx="388.741" cy="209.292" r="3.76614" stroke="white" stroke-width="2.06528"/>
<path d="M391.348 212.479L394.514 216.217" stroke="white" stroke-width="2.06528" stroke-linecap="round" stroke-linejoin="round"/>
<circle cx="85.8477" cy="334.742" r="25" fill="#6380B8"/>
<circle cx="83.8715" cy="332.153" r="6.72526" stroke="white" stroke-width="2.06528"/>
<path d="M88.5273 337.844L94.181 344.52" stroke="white" stroke-width="2.06528" stroke-linecap="round" stroke-linejoin="round"/>
<circle cx="414.848" cy="119.742" r="22" fill="#6380B8"/>
<circle cx="413.109" cy="117.464" r="5.91823" stroke="white" stroke-width="2.06528"/>
<path d="M417.206 122.472L422.181 128.347" stroke="white" stroke-width="2.06528" stroke-linecap="round" stroke-linejoin="round"/>
</g>
<g filter="url(#filter1_d_1461_11838)">
<path d="M148.603 258.496C148.603 254.078 152.184 250.496 156.603 250.496H239.603C244.021 250.496 247.603 254.078 247.603 258.496V295.496H148.603V258.496Z" fill="#9BB8F0"/>
<path d="M148.603 301.996H247.603V345.496C247.603 349.915 244.021 353.496 239.603 353.496H156.603C152.184 353.496 148.603 349.915 148.603 345.496V301.996Z" fill="white"/>
<rect x="148.603" y="295.496" width="99" height="19" fill="#F3F5F7"/>
<rect x="157.603" y="301.496" width="62" height="7" rx="3.5" fill="#DEE3E6"/>
<rect x="157.603" y="325.496" width="54" height="5" rx="2.5" fill="#EBEEF0"/>
<rect x="157.603" y="334.496" width="36" height="5" rx="2.5" fill="#EBEEF0"/>
<circle cx="230.603" cy="332.496" r="8" fill="#EBEEF0"/>
<path d="M229.46 329.068L232.888 332.496L229.46 335.925" stroke="white" stroke-width="2.28571" stroke-linecap="round" stroke-linejoin="round"/>
</g>
<g filter="url(#filter2_d_1461_11838)">
<path d="M258.603 258.496C258.603 254.078 262.184 250.496 266.603 250.496H349.603C354.021 250.496 357.603 254.078 357.603 258.496V295.496H258.603V258.496Z" fill="#9BB8F0"/>
<path d="M258.603 301.996H357.603V345.496C357.603 349.915 354.021 353.496 349.603 353.496H266.603C262.184 353.496 258.603 349.915 258.603 345.496V301.996Z" fill="white"/>
<rect x="258.603" y="295.496" width="99" height="19" fill="#F3F5F7"/>
<rect x="267.603" y="301.496" width="62" height="7" rx="3.5" fill="#DEE3E6"/>
<rect x="267.603" y="325.496" width="54" height="5" rx="2.5" fill="#EBEEF0"/>
<rect x="267.603" y="334.496" width="36" height="5" rx="2.5" fill="#EBEEF0"/>
<circle cx="340.603" cy="332.496" r="8" fill="#EBEEF0"/>
<path d="M339.46 329.068L342.888 332.496L339.46 335.925" stroke="white" stroke-width="2.28571" stroke-linecap="round" stroke-linejoin="round"/>
</g>
<defs>
<filter id="filter0_d_1461_11838" x="44.8477" y="85.7417" width="408" height="346.755" filterUnits="userSpaceOnUse" color-interpolation-filters="sRGB">
<feFlood flood-opacity="0" result="BackgroundImageFix"/>
<feColorMatrix in="SourceAlpha" type="matrix" values="0 0 0 0 0 0 0 0 0 0 0 0 0 0 0 0 0 0 127 0" result="hardAlpha"/>
<feOffset dy="4"/>
<feGaussianBlur stdDeviation="8"/>
<feComposite in2="hardAlpha" operator="out"/>
<feColorMatrix type="matrix" values="0 0 0 0 0 0 0 0 0 0 0 0 0 0 0 0 0 0 0.15 0"/>
<feBlend mode="normal" in2="BackgroundImageFix" result="effect1_dropShadow_1461_11838"/>
<feBlend mode="normal" in="SourceGraphic" in2="effect1_dropShadow_1461_11838" result="shape"/>
</filter>
<filter id="filter1_d_1461_11838" x="132.603" y="242.496" width="131" height="135" filterUnits="userSpaceOnUse" color-interpolation-filters="sRGB">
<feFlood flood-opacity="0" result="BackgroundImageFix"/>
<feColorMatrix in="SourceAlpha" type="matrix" values="0 0 0 0 0 0 0 0 0 0 0 0 0 0 0 0 0 0 127 0" result="hardAlpha"/>
<feOffset dy="8"/>
<feGaussianBlur stdDeviation="8"/>
<feComposite in2="hardAlpha" operator="out"/>
<feColorMatrix type="matrix" values="0 0 0 0 0 0 0 0 0 0 0 0 0 0 0 0 0 0 0.15 0"/>
<feBlend mode="normal" in2="BackgroundImageFix" result="effect1_dropShadow_1461_11838"/>
<feBlend mode="normal" in="SourceGraphic" in2="effect1_dropShadow_1461_11838" result="shape"/>
</filter>
<filter id="filter2_d_1461_11838" x="242.603" y="242.496" width="131" height="135" filterUnits="userSpaceOnUse" color-interpolation-filters="sRGB">
<feFlood flood-opacity="0" result="BackgroundImageFix"/>
<feColorMatrix in="SourceAlpha" type="matrix" values="0 0 0 0 0 0 0 0 0 0 0 0 0 0 0 0 0 0 127 0" result="hardAlpha"/>
<feOffset dy="8"/>
<feGaussianBlur stdDeviation="8"/>
<feComposite in2="hardAlpha" operator="out"/>
<feColorMatrix type="matrix" values="0 0 0 0 0 0 0 0 0 0 0 0 0 0 0 0 0 0 0.15 0"/>
<feBlend mode="normal" in2="BackgroundImageFix" result="effect1_dropShadow_1461_11838"/>
<feBlend mode="normal" in="SourceGraphic" in2="effect1_dropShadow_1461_11838" result="shape"/>
</filter>
</defs>
</svg>
