<svg width="485" height="258" viewBox="0 0 485 258" fill="none" xmlns="http://www.w3.org/2000/svg">
<g clip-path="url(#clip0_1461_11383)">
<path d="M433.345 308.505C402.872 339.914 362.777 344.929 321.051 339.708C249.779 330.793 252.258 265.5 202.72 231C171.609 209.333 119.742 255.804 65.7203 235.5C5.29147 212.788 -32.7796 130.003 39.2203 67.5C93.7035 20.2034 131.05 51.9794 172.72 49C214.391 46.0206 229.483 35.7439 248.258 18.6292C270.162 -1.33884 308.72 -3.9118 337.472 4.57538C366.81 13.2355 387.691 33.8558 395.674 63.4971C401.751 86.07 399.101 128.832 415.258 150.129C437.258 179.129 452.708 187.742 459.777 221.629C465.917 251.06 451.595 289.65 433.345 308.505Z" fill="#B8E6CA"/>
<g filter="url(#filter0_d_1461_11383)">
<path d="M117.22 45.7639C117.22 38.1623 123.383 32 130.984 32H298.456C306.058 32 312.22 38.1623 312.22 45.7639V262.236C312.22 269.838 306.058 276 298.456 276H130.984C123.383 276 117.22 269.838 117.22 262.236V45.7639Z" fill="white"/>
</g>
<path d="M47.9118 87.6811C64.7299 87.6811 78.2845 73.6765 78.2845 56.5C78.2845 39.3235 64.7299 25.3189 47.9118 25.3189C31.0937 25.3189 17.5392 39.3235 17.5392 56.5C17.5392 73.6765 31.0937 87.6811 47.9118 87.6811Z" fill="#895A00" stroke="white" stroke-width="3.36212"/>
<mask id="mask0_1461_11383" style="mask-type:alpha" maskUnits="userSpaceOnUse" x="19" y="27" width="58" height="59">
<ellipse cx="47.9118" cy="56.5" rx="28.6916" ry="29.5" fill="#D9D9D9"/>
</mask>
<g mask="url(#mask0_1461_11383)">
<path d="M59.9505 50.809C59.9505 57.1749 54.7899 62.3356 48.424 62.3356C42.0581 62.3356 36.8975 57.1749 36.8975 50.809C36.8975 44.4431 42.0581 39.2825 48.424 39.2825C54.7899 39.2825 59.9505 44.4431 59.9505 50.809Z" fill="#FECE72"/>
<ellipse cx="48.4241" cy="84.8677" rx="24.4939" ry="20.1472" fill="#FECE72"/>
</g>
<path d="M402.307 162.667C425.906 162.667 444.926 143.015 444.926 118.913C444.926 94.8104 425.906 75.1589 402.307 75.1589C378.708 75.1589 359.687 94.8104 359.687 118.913C359.687 143.015 378.708 162.667 402.307 162.667Z" fill="#895A00" stroke="white" stroke-width="4.71779"/>
<mask id="mask1_1461_11383" style="mask-type:alpha" maskUnits="userSpaceOnUse" x="362" y="77" width="81" height="84">
<ellipse cx="402.481" cy="118.913" rx="40.2606" ry="41.3949" fill="#D9D9D9"/>
</mask>
<g mask="url(#mask1_1461_11383)">
<path fill-rule="evenodd" clip-rule="evenodd" d="M387.142 113.637C385.914 114.822 385.22 116.456 385.22 118.163V158.556C385.22 162.031 388.037 164.847 391.511 164.847H413.527C417.001 164.847 419.817 162.031 419.817 158.556V118.163C419.817 116.456 419.123 114.822 417.895 113.637L404.703 100.906C403.484 99.7296 401.553 99.7296 400.335 100.906L387.142 113.637ZM402.519 128.677C405.124 128.677 407.237 126.565 407.237 123.959C407.237 121.354 405.124 119.242 402.519 119.242C399.913 119.242 397.801 121.354 397.801 123.959C397.801 126.565 399.913 128.677 402.519 128.677Z" fill="#FECE72"/>
</g>
<path d="M132.583 63.061C132.583 60.8519 134.374 59.061 136.583 59.061H293.583C295.792 59.061 297.583 60.8519 297.583 63.061V101.061C297.583 103.27 295.792 105.061 293.583 105.061H136.583C134.374 105.061 132.583 103.27 132.583 101.061V63.061Z" fill="#FFE4B1"/>
<rect x="132.22" y="115" width="165" height="8" rx="4" fill="#FFE4B1"/>
<rect x="224.22" y="209" width="73" height="8" rx="4" fill="#FFE4B1"/>
<rect opacity="0.6" x="224.22" y="225" width="73" height="8" rx="4" fill="#FFE4B1"/>
<rect opacity="0.25" x="224.22" y="241" width="73" height="8" rx="4" fill="#FFE4B1"/>
<rect opacity="0.6" x="132.22" y="130" width="165" height="8" rx="4" fill="#FFE4B1"/>
<rect opacity="0.25" x="132.22" y="145" width="75" height="8" rx="4" fill="#FFE4B1"/>
<rect opacity="0.25" x="132.22" y="158" width="75" height="8" rx="4" fill="#FFE4B1"/>
<rect x="224.22" y="146" width="73" height="50" rx="4" fill="#FFE4B1"/>
<circle cx="240.22" cy="167" r="5" fill="#E1B155"/>
<path d="M251.59 173.768L242.22 185H281.22L267.038 168L256.909 180.143L251.59 173.768Z" fill="#E1B155"/>
<rect x="132.22" y="177" width="73" height="99" rx="4" fill="#FFE4B1"/>
<path d="M321.129 241.145C336.136 241.145 348.23 228.649 348.23 213.323C348.23 197.996 336.136 185.5 321.129 185.5C306.122 185.5 294.028 197.996 294.028 213.323C294.028 228.649 306.122 241.145 321.129 241.145Z" fill="#895A00" stroke="white" stroke-width="3"/>
<mask id="mask2_1461_11383" style="mask-type:alpha" maskUnits="userSpaceOnUse" x="295" y="187" width="52" height="53">
<path d="M346.23 213.323C346.23 227.597 334.979 239.145 321.129 239.145C307.279 239.145 296.028 227.597 296.028 213.323C296.028 199.048 307.279 187.5 321.129 187.5C334.979 187.5 346.23 199.048 346.23 213.323Z" fill="#D9D9D9" stroke="black"/>
</mask>
<g mask="url(#mask2_1461_11383)">
<path d="M302.885 223.808L316.22 240H330.22C335.02 240 336.22 236 336.22 234V220C336.22 219.097 335.371 217.64 334.033 217C333.195 216.599 332.164 216.939 331.03 216.632C330.208 216.41 330.22 215.87 328.72 215.577C327.501 215.338 326.623 215.708 325.72 215.577C324.771 215.439 324.811 214.667 323.22 214.5C321.413 214.311 321.027 215.05 320.22 215V204C320.22 203 319.62 201 317.22 201C314.82 201 314.22 203 314.22 204V225.5C312.22 224.5 307.02 221 306.22 221C305.582 221 304.263 221.637 303.079 222.403C302.601 222.712 302.523 223.368 302.885 223.808Z" fill="#FECE72"/>
</g>
</g>
<defs>
<filter id="filter0_d_1461_11383" x="101.22" y="20" width="227" height="276" filterUnits="userSpaceOnUse" color-interpolation-filters="sRGB">
<feFlood flood-opacity="0" result="BackgroundImageFix"/>
<feColorMatrix in="SourceAlpha" type="matrix" values="0 0 0 0 0 0 0 0 0 0 0 0 0 0 0 0 0 0 127 0" result="hardAlpha"/>
<feOffset dy="4"/>
<feGaussianBlur stdDeviation="8"/>
<feComposite in2="hardAlpha" operator="out"/>
<feColorMatrix type="matrix" values="0 0 0 0 0 0 0 0 0 0 0 0 0 0 0 0 0 0 0.15 0"/>
<feBlend mode="normal" in2="BackgroundImageFix" result="effect1_dropShadow_1461_11383"/>
<feBlend mode="normal" in="SourceGraphic" in2="effect1_dropShadow_1461_11383" result="shape"/>
</filter>
<clipPath id="clip0_1461_11383">
<rect width="485" height="258" fill="white"/>
</clipPath>
</defs>
</svg>
