<svg width="427" height="297" viewBox="0 0 427 297" fill="none" xmlns="http://www.w3.org/2000/svg">
<g clip-path="url(#clip0_1496_3878)">
<path d="M490.068 -139.048C412.455 -202.587 324.78 -178.182 286.173 -153.111C235.806 -120.403 242.745 -78.9838 216.253 -57.2109C189.76 -35.438 174.211 -34.8548 128.712 -26.0118C83.2133 -17.1687 13.5842 17.2777 5.16446 93.7739C-3.25524 170.27 45.2302 229.343 116.487 241.027C187.744 252.711 210.101 205.103 267.728 183.307C325.354 161.511 351.692 185.31 406.833 169.038C529.898 132.723 608.496 -42.0946 490.068 -139.048Z" fill="#B8E6CA"/>
<g filter="url(#filter0_d_1496_3878)">
<rect x="92.6025" y="73.4963" width="260.835" height="178.087" rx="14.2464" fill="white"/>
<rect x="106.744" y="109.474" width="79.15" height="127.719" rx="5.34241" fill="#BED4FF"/>
<circle cx="128.33" cy="131.061" r="10.7932" fill="#7F9CD4"/>
<path d="M129.498 151.191L113.939 167.83H178.699L155.15 142.646L138.329 160.635L129.498 151.191Z" fill="#7F9CD4"/>
<rect x="131.929" y="215.607" width="28.7818" height="14.3909" rx="7.19545" fill="#7F9CD4"/>
<path fill-rule="evenodd" clip-rule="evenodd" d="M169.603 195.996C169.603 197.377 168.483 198.496 167.103 198.496H125.103C123.722 198.496 122.603 197.377 122.603 195.996C122.603 194.616 123.722 193.496 125.103 193.496H167.103C168.483 193.496 169.603 194.616 169.603 195.996Z" fill="#7F9CD4"/>
<path fill-rule="evenodd" clip-rule="evenodd" d="M169.603 204.996C169.603 206.377 168.483 207.496 167.103 207.496H125.103C123.722 207.496 122.603 206.377 122.603 204.996C122.603 203.616 123.722 202.496 125.103 202.496H167.103C168.483 202.496 169.603 203.616 169.603 204.996Z" fill="#7F9CD4"/>
<path d="M92.6025 87.7427C92.6025 79.8747 98.9809 73.4963 106.849 73.4963H339.191C347.059 73.4963 353.438 79.8747 353.438 87.7428V95.0827H92.6025V87.7427Z" fill="#EBEEF0"/>
<rect x="103.396" y="80.6917" width="7.19545" height="7.19545" rx="3.59773" fill="#CBD0D3"/>
<rect x="114.189" y="80.6917" width="7.19545" height="7.19545" rx="3.59773" fill="#CBD0D3"/>
<rect x="207.308" y="109.474" width="126.82" height="43.1727" rx="10" fill="#EBEEF0"/>
<rect x="207.603" y="164.496" width="93" height="11" rx="5.5" fill="#EBEEF0"/>
<rect x="207.308" y="186.211" width="109.731" height="5.64878" rx="2.82439" fill="#EBEEF0"/>
<rect x="207.308" y="199.829" width="93.5409" height="5.64878" rx="2.82439" fill="#EBEEF0"/>
<rect x="207.308" y="213.447" width="126.82" height="5.64878" rx="2.82439" fill="#EBEEF0"/>
</g>
<g filter="url(#filter1_d_1496_3878)">
<circle cx="323.528" cy="80.4221" r="25.9258" fill="#C59539"/>
<path d="M328.742 73.4622C328.065 72.7093 326.032 71.2035 323.321 71.2035C319.933 71.2035 317.9 73.4622 317.9 75.7209C317.9 81.9333 328.742 78.396 328.742 84.7557C328.742 87.0144 326.709 89.2731 323.321 89.2731C320.611 89.2731 318.578 87.7673 317.9 87.0144" stroke="#FFE4B1" stroke-width="2" stroke-linecap="round"/>
<path d="M323.321 66.6863V93.7906" stroke="#FFE4B1" stroke-width="2" stroke-linecap="round"/>
</g>
<g filter="url(#filter2_d_1496_3878)">
<circle cx="268.528" cy="215.422" r="20.9258" fill="#C59539"/>
<path d="M272.737 209.804C272.19 209.197 270.549 207.981 268.362 207.981C265.627 207.981 263.986 209.804 263.986 211.627C263.986 216.642 272.737 213.787 272.737 218.92C272.737 220.743 271.096 222.566 268.362 222.566C266.174 222.566 264.533 221.351 263.986 220.743" stroke="#FFE4B1" stroke-width="2" stroke-linecap="round"/>
<path d="M268.361 204.335V226.212" stroke="#FFE4B1" stroke-width="2" stroke-linecap="round"/>
</g>
<g filter="url(#filter3_d_1496_3878)">
<circle cx="225.603" cy="178.496" r="15" fill="#C59539"/>
<path d="M228.619 174.469C228.227 174.034 227.051 173.162 225.483 173.162C223.523 173.162 222.347 174.469 222.347 175.776C222.347 179.37 228.619 177.324 228.619 181.003C228.619 182.31 227.443 183.617 225.483 183.617C223.915 183.617 222.739 182.746 222.347 182.31" stroke="#FFE4B1" stroke-width="1.71429" stroke-linecap="round"/>
<path d="M225.483 170.549V186.231" stroke="#FFE4B1" stroke-width="1.71429" stroke-linecap="round"/>
</g>
<g filter="url(#filter4_d_1496_3878)">
<circle cx="372.603" cy="30.4963" r="15" fill="#C59539"/>
<path d="M375.619 26.4693C375.227 26.0337 374.051 25.1625 372.483 25.1625C370.523 25.1625 369.347 26.4693 369.347 27.7761C369.347 31.3705 375.619 29.3239 375.619 33.0034C375.619 34.3102 374.443 35.6171 372.483 35.6171C370.915 35.6171 369.739 34.7458 369.347 34.3102" stroke="#FFE4B1" stroke-width="1.71429" stroke-linecap="round"/>
<path d="M372.483 22.549V38.2308" stroke="#FFE4B1" stroke-width="1.71429" stroke-linecap="round"/>
</g>
</g>
<defs>
<filter id="filter0_d_1496_3878" x="76.6025" y="61.4963" width="292.835" height="210.087" filterUnits="userSpaceOnUse" color-interpolation-filters="sRGB">
<feFlood flood-opacity="0" result="BackgroundImageFix"/>
<feColorMatrix in="SourceAlpha" type="matrix" values="0 0 0 0 0 0 0 0 0 0 0 0 0 0 0 0 0 0 127 0" result="hardAlpha"/>
<feOffset dy="4"/>
<feGaussianBlur stdDeviation="8"/>
<feComposite in2="hardAlpha" operator="out"/>
<feColorMatrix type="matrix" values="0 0 0 0 0 0 0 0 0 0 0 0 0 0 0 0 0 0 0.15 0"/>
<feBlend mode="normal" in2="BackgroundImageFix" result="effect1_dropShadow_1496_3878"/>
<feBlend mode="normal" in="SourceGraphic" in2="effect1_dropShadow_1496_3878" result="shape"/>
</filter>
<filter id="filter1_d_1496_3878" x="281.603" y="42.4963" width="83.8516" height="83.8516" filterUnits="userSpaceOnUse" color-interpolation-filters="sRGB">
<feFlood flood-opacity="0" result="BackgroundImageFix"/>
<feColorMatrix in="SourceAlpha" type="matrix" values="0 0 0 0 0 0 0 0 0 0 0 0 0 0 0 0 0 0 127 0" result="hardAlpha"/>
<feOffset dy="4"/>
<feGaussianBlur stdDeviation="8"/>
<feComposite in2="hardAlpha" operator="out"/>
<feColorMatrix type="matrix" values="0 0 0 0 0 0 0 0 0 0 0 0 0 0 0 0 0 0 0.15 0"/>
<feBlend mode="normal" in2="BackgroundImageFix" result="effect1_dropShadow_1496_3878"/>
<feBlend mode="normal" in="SourceGraphic" in2="effect1_dropShadow_1496_3878" result="shape"/>
</filter>
<filter id="filter2_d_1496_3878" x="234.688" y="184.811" width="67.6801" height="67.6801" filterUnits="userSpaceOnUse" color-interpolation-filters="sRGB">
<feFlood flood-opacity="0" result="BackgroundImageFix"/>
<feColorMatrix in="SourceAlpha" type="matrix" values="0 0 0 0 0 0 0 0 0 0 0 0 0 0 0 0 0 0 127 0" result="hardAlpha"/>
<feOffset dy="3.22857"/>
<feGaussianBlur stdDeviation="6.45713"/>
<feComposite in2="hardAlpha" operator="out"/>
<feColorMatrix type="matrix" values="0 0 0 0 0 0 0 0 0 0 0 0 0 0 0 0 0 0 0.15 0"/>
<feBlend mode="normal" in2="BackgroundImageFix" result="effect1_dropShadow_1496_3878"/>
<feBlend mode="normal" in="SourceGraphic" in2="effect1_dropShadow_1496_3878" result="shape"/>
</filter>
<filter id="filter3_d_1496_3878" x="201.345" y="156.553" width="48.5144" height="48.5144" filterUnits="userSpaceOnUse" color-interpolation-filters="sRGB">
<feFlood flood-opacity="0" result="BackgroundImageFix"/>
<feColorMatrix in="SourceAlpha" type="matrix" values="0 0 0 0 0 0 0 0 0 0 0 0 0 0 0 0 0 0 127 0" result="hardAlpha"/>
<feOffset dy="2.3143"/>
<feGaussianBlur stdDeviation="4.6286"/>
<feComposite in2="hardAlpha" operator="out"/>
<feColorMatrix type="matrix" values="0 0 0 0 0 0 0 0 0 0 0 0 0 0 0 0 0 0 0.15 0"/>
<feBlend mode="normal" in2="BackgroundImageFix" result="effect1_dropShadow_1496_3878"/>
<feBlend mode="normal" in="SourceGraphic" in2="effect1_dropShadow_1496_3878" result="shape"/>
</filter>
<filter id="filter4_d_1496_3878" x="348.345" y="8.55344" width="48.5144" height="48.5144" filterUnits="userSpaceOnUse" color-interpolation-filters="sRGB">
<feFlood flood-opacity="0" result="BackgroundImageFix"/>
<feColorMatrix in="SourceAlpha" type="matrix" values="0 0 0 0 0 0 0 0 0 0 0 0 0 0 0 0 0 0 127 0" result="hardAlpha"/>
<feOffset dy="2.3143"/>
<feGaussianBlur stdDeviation="4.6286"/>
<feComposite in2="hardAlpha" operator="out"/>
<feColorMatrix type="matrix" values="0 0 0 0 0 0 0 0 0 0 0 0 0 0 0 0 0 0 0.15 0"/>
<feBlend mode="normal" in2="BackgroundImageFix" result="effect1_dropShadow_1496_3878"/>
<feBlend mode="normal" in="SourceGraphic" in2="effect1_dropShadow_1496_3878" result="shape"/>
</filter>
<clipPath id="clip0_1496_3878">
<rect width="427" height="297" fill="white"/>
</clipPath>
</defs>
</svg>
