<svg width="508" height="267" viewBox="0 0 508 267" fill="none" xmlns="http://www.w3.org/2000/svg">
<g clip-path="url(#clip0_1461_10576)">
<path d="M533.989 216.243C508.281 269.978 439.587 270.556 401.442 262.371C351.678 251.693 318.647 212.634 275.2 210.16C231.754 207.685 207.532 230.288 160.714 235.937C113.895 241.585 56.4747 236.45 26.6922 178.425C-3.09028 120.401 17.4493 58.9763 70.339 28.1923C123.229 -2.59178 155.317 28.3483 207.532 28.1923C259.747 28.0363 280.854 -18.5909 329.431 -22.3701C353.544 -24.246 377.842 -19.286 401.961 -2.59177C425.816 13.9196 429.312 44.1389 488.699 72.2556C548.086 100.372 559.697 162.508 533.989 216.243Z" fill="#B8E6CA"/>
<g filter="url(#filter0_d_1461_10576)">
<rect x="267" y="58.876" width="136.122" height="74.2484" rx="9.0748" fill="white"/>
</g>
<rect x="280.2" y="72.0751" width="20.6246" height="6.59986" rx="3.29993" fill="#EBEEF0"/>
<rect x="280.2" y="86.1003" width="41.2491" height="16.4996" rx="8.24982" fill="#FFDED3"/>
<rect x="280.2" y="114.974" width="109.723" height="6.59986" rx="3.29993" fill="#EBEEF0"/>
<path d="M287.622 91.8752L293.062 97.3147M293.062 97.3147L293.122 93.0236M293.062 97.3147L288.771 97.3751" stroke="white" stroke-width="1.23747" stroke-linecap="round" stroke-linejoin="round"/>
<rect x="298.35" y="91.8752" width="16.4996" height="4.94989" rx="1.64996" fill="white"/>
<g filter="url(#filter1_d_1461_10576)">
<rect x="117" y="145" width="136.122" height="74.2484" rx="9.0748" fill="white"/>
</g>
<rect x="130" y="158" width="54" height="7" rx="3.29993" fill="#EBEEF0"/>
<rect x="130.2" y="172.224" width="41.2491" height="16.4996" rx="8.24982" fill="#FFDED3"/>
<rect x="130.2" y="201.098" width="109.723" height="6.59986" rx="3.29993" fill="#EBEEF0"/>
<path d="M137.622 177.999L143.062 183.439M143.062 183.439L143.122 179.148M143.062 183.439L138.771 183.499" stroke="white" stroke-width="1.23747" stroke-linecap="round" stroke-linejoin="round"/>
<rect x="148.35" y="177.999" width="16.4996" height="4.94989" rx="1.64996" fill="white"/>
<g filter="url(#filter2_d_1461_10576)">
<rect x="117" y="58.876" width="136.122" height="74.2484" rx="9.0748" fill="white"/>
</g>
<rect x="130.199" y="72.0751" width="86.6231" height="6.59986" rx="3.29993" fill="#EBEEF0"/>
<rect x="130.199" y="86.1003" width="41.2491" height="16.4996" rx="8.24982" fill="#B8E6CA"/>
<rect x="130.199" y="114.974" width="109.723" height="6.59986" rx="3.29993" fill="#EBEEF0"/>
<path d="M137.625 97.3751L143.064 91.9357M143.064 91.9357L138.773 91.8752M143.064 91.9357L143.125 96.2268" stroke="white" stroke-width="1.23747" stroke-linecap="round" stroke-linejoin="round"/>
<rect x="148.35" y="91.8752" width="16.4996" height="4.94989" rx="1.64996" fill="white"/>
<g filter="url(#filter3_d_1461_10576)">
<rect x="267" y="145" width="136.122" height="74.2484" rx="9.0748" fill="white"/>
</g>
<rect x="280.199" y="158.199" width="52.7989" height="6.59986" rx="3.29993" fill="#EBEEF0"/>
<path d="M280.199 180.474C280.199 175.918 283.893 172.224 288.449 172.224H313.199C317.755 172.224 321.448 175.918 321.448 180.474C321.448 185.03 317.755 188.724 313.199 188.724H288.449C283.893 188.724 280.199 185.03 280.199 180.474Z" fill="#B8E6CA"/>
<rect x="280.199" y="201.098" width="109.723" height="6.59986" rx="3.29993" fill="#EBEEF0"/>
<path d="M287.624 183.499L293.063 178.06M293.063 178.06L288.772 177.999M293.063 178.06L293.124 182.351" stroke="white" stroke-width="1.23747" stroke-linecap="round" stroke-linejoin="round"/>
<rect x="298.35" y="177.999" width="16.4996" height="4.94989" rx="1.64996" fill="white"/>
</g>
<defs>
<filter id="filter0_d_1461_10576" x="253.8" y="48.9762" width="162.522" height="100.648" filterUnits="userSpaceOnUse" color-interpolation-filters="sRGB">
<feFlood flood-opacity="0" result="BackgroundImageFix"/>
<feColorMatrix in="SourceAlpha" type="matrix" values="0 0 0 0 0 0 0 0 0 0 0 0 0 0 0 0 0 0 127 0" result="hardAlpha"/>
<feOffset dy="3.29993"/>
<feGaussianBlur stdDeviation="6.59986"/>
<feComposite in2="hardAlpha" operator="out"/>
<feColorMatrix type="matrix" values="0 0 0 0 0 0 0 0 0 0 0 0 0 0 0 0 0 0 0.15 0"/>
<feBlend mode="normal" in2="BackgroundImageFix" result="effect1_dropShadow_1461_10576"/>
<feBlend mode="normal" in="SourceGraphic" in2="effect1_dropShadow_1461_10576" result="shape"/>
</filter>
<filter id="filter1_d_1461_10576" x="103.8" y="135.1" width="162.522" height="100.648" filterUnits="userSpaceOnUse" color-interpolation-filters="sRGB">
<feFlood flood-opacity="0" result="BackgroundImageFix"/>
<feColorMatrix in="SourceAlpha" type="matrix" values="0 0 0 0 0 0 0 0 0 0 0 0 0 0 0 0 0 0 127 0" result="hardAlpha"/>
<feOffset dy="3.29993"/>
<feGaussianBlur stdDeviation="6.59986"/>
<feComposite in2="hardAlpha" operator="out"/>
<feColorMatrix type="matrix" values="0 0 0 0 0 0 0 0 0 0 0 0 0 0 0 0 0 0 0.15 0"/>
<feBlend mode="normal" in2="BackgroundImageFix" result="effect1_dropShadow_1461_10576"/>
<feBlend mode="normal" in="SourceGraphic" in2="effect1_dropShadow_1461_10576" result="shape"/>
</filter>
<filter id="filter2_d_1461_10576" x="103.8" y="48.9762" width="162.522" height="100.648" filterUnits="userSpaceOnUse" color-interpolation-filters="sRGB">
<feFlood flood-opacity="0" result="BackgroundImageFix"/>
<feColorMatrix in="SourceAlpha" type="matrix" values="0 0 0 0 0 0 0 0 0 0 0 0 0 0 0 0 0 0 127 0" result="hardAlpha"/>
<feOffset dy="3.29993"/>
<feGaussianBlur stdDeviation="6.59986"/>
<feComposite in2="hardAlpha" operator="out"/>
<feColorMatrix type="matrix" values="0 0 0 0 0 0 0 0 0 0 0 0 0 0 0 0 0 0 0.15 0"/>
<feBlend mode="normal" in2="BackgroundImageFix" result="effect1_dropShadow_1461_10576"/>
<feBlend mode="normal" in="SourceGraphic" in2="effect1_dropShadow_1461_10576" result="shape"/>
</filter>
<filter id="filter3_d_1461_10576" x="253.8" y="135.1" width="162.522" height="100.648" filterUnits="userSpaceOnUse" color-interpolation-filters="sRGB">
<feFlood flood-opacity="0" result="BackgroundImageFix"/>
<feColorMatrix in="SourceAlpha" type="matrix" values="0 0 0 0 0 0 0 0 0 0 0 0 0 0 0 0 0 0 127 0" result="hardAlpha"/>
<feOffset dy="3.29993"/>
<feGaussianBlur stdDeviation="6.59986"/>
<feComposite in2="hardAlpha" operator="out"/>
<feColorMatrix type="matrix" values="0 0 0 0 0 0 0 0 0 0 0 0 0 0 0 0 0 0 0.15 0"/>
<feBlend mode="normal" in2="BackgroundImageFix" result="effect1_dropShadow_1461_10576"/>
<feBlend mode="normal" in="SourceGraphic" in2="effect1_dropShadow_1461_10576" result="shape"/>
</filter>
<clipPath id="clip0_1461_10576">
<rect width="508" height="267" fill="white"/>
</clipPath>
</defs>
</svg>
