<svg width="400" height="182" viewBox="0 0 269 182" fill="none" xmlns="http://www.w3.org/2000/svg">
<path d="M221.092 116.275C215.163 144.826 187.696 170.346 156.7 162.334C125.704 154.322 125.225 126.334 106.725 118.334C88.2248 110.334 78.771 125.757 56.6123 119.865C34.4536 113.974 17.0123 94.6167 17.0144 64.7252C17.0165 34.8336 45.7228 8.8341 71.2228 11.3341C96.7228 13.8341 105.723 31.3331 125.223 35.8336C144.723 40.3341 155.223 29.3339 176.222 32.3341C225.979 39.4431 227.022 87.7242 221.092 116.275Z" fill="#D0FBE1"/>
<g filter="url(#filter0_d_2705_17609)">
<rect x="45.7241" y="33.8807" width="128" height="120.889" rx="6.98252" fill="#EBEEF0"/>
<mask id="mask0_2705_17609" style="mask-type:alpha" maskUnits="userSpaceOnUse" x="45" y="33" width="129" height="121">
<rect x="45.7241" y="33.8807" width="128" height="120" rx="6.98252" fill="#DEE3E6"/>
</mask>
<g mask="url(#mask0_2705_17609)">
<rect x="53.7241" y="74.7699" width="52.2667" height="70.9333" rx="3.75128" fill="white"/>
<rect x="60.2156" y="103.975" width="18.0797" height="3.24507" rx="1.62254" fill="#EBEEF0"/>
<rect x="60.2156" y="98.8756" width="6.49014" height="3.24507" rx="1.62254" fill="#EBEEF0"/>
<rect x="60.2156" y="115.591" width="6.49014" height="3.24507" rx="1.62254" fill="#EBEEF0"/>
<rect x="60.2156" y="131.62" width="6.49014" height="3.24507" rx="1.62254" fill="#EBEEF0"/>
<path d="M89.4204 103.28C89.4204 101.615 90.7695 100.266 92.4337 100.266H97.0695C98.7337 100.266 100.083 101.615 100.083 103.28C100.083 104.944 98.7337 106.293 97.0695 106.293H92.4337C90.7695 106.293 89.4204 104.944 89.4204 103.28Z" fill="#EBEEF0"/>
<rect x="60.2034" y="81.9312" width="12.2769" height="3.06923" rx="1.53462" fill="#EBEEF0"/>
<path d="M89.4204 119.995C89.4204 118.331 90.7695 116.982 92.4337 116.982H97.0695C98.7337 116.982 100.083 118.331 100.083 119.995C100.083 121.659 98.7337 123.008 97.0695 123.008H92.4337C90.7695 123.008 89.4204 121.659 89.4204 119.995Z" fill="#EBEEF0"/>
<path d="M89.4204 136.024C89.4204 134.36 90.7695 133.011 92.4337 133.011H97.0695C98.7337 133.011 100.083 134.36 100.083 136.024C100.083 137.688 98.7337 139.037 97.0695 139.037H92.4337C90.7695 139.037 89.4204 137.688 89.4204 136.024Z" fill="#EBEEF0"/>
<rect x="59.752" y="120.691" width="19.0068" height="3.24507" rx="1.62254" fill="#EBEEF0"/>
<rect x="59.752" y="140.129" width="19.0068" height="3.24507" rx="1.62254" fill="#EBEEF0"/>
<path d="M105.901 91.3092H54.0655" stroke="#EBEEF0" stroke-width="0.682051"/>
<rect x="112.391" y="74.7698" width="52.2667" height="70.9333" rx="3.75128" fill="white"/>
<rect x="119.197" y="103.975" width="18.0389" height="3.24507" rx="1.62254" fill="#EBEEF0"/>
<rect x="119.197" y="98.8756" width="6.47552" height="3.24507" rx="1.62254" fill="#EBEEF0"/>
<rect x="119.197" y="115.591" width="6.47552" height="3.24507" rx="1.62254" fill="#EBEEF0"/>
<rect x="119.197" y="131.62" width="6.47552" height="3.24507" rx="1.62254" fill="#EBEEF0"/>
<path d="M148.338 103.28C148.338 101.615 149.687 100.266 151.351 100.266H155.963C157.627 100.266 158.976 101.615 158.976 103.28C158.976 104.944 157.627 106.293 155.963 106.293H151.351C149.687 106.293 148.338 104.944 148.338 103.28Z" fill="#EBEEF0"/>
<rect x="119.213" y="81.9312" width="12.298" height="3.06923" rx="1.53462" fill="#EBEEF0"/>
<path d="M164.659 91.3092H112.392" stroke="#EBEEF0" stroke-width="0.682051"/>
<path d="M148.338 119.995C148.338 118.331 149.687 116.982 151.351 116.982H155.963C157.627 116.982 158.976 118.331 158.976 119.995C158.976 121.659 157.627 123.008 155.963 123.008H151.351C149.687 123.008 148.338 121.659 148.338 119.995Z" fill="#EBEEF0"/>
<path d="M148.338 136.024C148.338 134.36 149.687 133.011 151.351 133.011H155.963C157.627 133.011 158.976 134.36 158.976 136.024C158.976 137.688 157.627 139.037 155.963 139.037H151.351C149.687 139.037 148.338 137.688 148.338 136.024Z" fill="#EBEEF0"/>
<rect x="118.735" y="120.691" width="18.964" height="3.24507" rx="1.62254" fill="#EBEEF0"/>
<rect x="118.735" y="140.129" width="18.964" height="3.24507" rx="1.62254" fill="#EBEEF0"/>
<rect width="34.6667" height="17.6" rx="2.31569" transform="matrix(1 0 0 -1 129.99 69.4362)" fill="white"/>
<rect width="10.525" height="4.21034" rx="2.10517" transform="matrix(1 0 0 -1 133.292 64.9935)" fill="#EBEEF0"/>
<rect width="27.9965" height="1.68414" rx="0.842068" transform="matrix(1 0 0 -1 133.292 57.6255)" fill="#EBEEF0"/>
<rect width="34.7324" height="18.9465" rx="2.31569" transform="matrix(1 0 0 -1 91.8225 70.8737)" fill="white"/>
<rect width="22.1025" height="1.68414" rx="0.842068" transform="matrix(1 0 0 -1 95.1907 67.5056)" fill="#EBEEF0"/>
<rect width="10.525" height="4.21034" rx="2.10517" transform="matrix(1 0 0 -1 95.1907 63.9266)" fill="#EBEEF0"/>
<rect width="27.9965" height="1.68414" rx="0.842068" transform="matrix(1 0 0 -1 95.1907 56.5586)" fill="#EBEEF0"/>
<rect width="34.6667" height="17.6" rx="2.31569" transform="matrix(1 0 0 -1 53.7241 69.4366)" fill="white"/>
<path d="M57.0923 62.8887C57.0923 64.0514 58.0348 64.9939 59.1975 64.9939H65.5121C66.6748 64.9939 67.6173 64.0514 67.6173 62.8887C67.6173 61.7261 66.6748 60.7836 65.5121 60.7836H59.1975C58.0348 60.7836 57.0923 61.7261 57.0923 62.8887Z" fill="#EBEEF0"/>
<rect width="27.9965" height="1.68414" rx="0.842068" transform="matrix(1 0 0 -1 57.0923 57.6259)" fill="#EBEEF0"/>
</g>
<path d="M45.7241 40.7186C45.7241 36.8623 48.8503 33.7361 52.7066 33.7361H166.583C170.44 33.7361 173.566 36.8623 173.566 40.7186V44.3161H45.7241V40.7186Z" fill="white"/>
<rect x="51.0142" y="37.2627" width="3.52667" height="3.52667" rx="1.76333" fill="#F3F5F7"/>
<rect x="56.304" y="37.2627" width="3.52667" height="3.52667" rx="1.76333" fill="#F3F5F7"/>
<rect x="61.6375" y="37.2627" width="3.52667" height="3.52667" rx="1.76333" fill="#F3F5F7"/>
</g>
<circle cx="109.19" cy="94.4133" r="21.8661" fill="#EBEEF0"/>
<path d="M108.892 83.5371C114.879 83.5371 119.732 88.3901 119.732 94.3766C119.732 100.363 114.879 105.216 108.892 105.216C102.906 105.216 98.053 100.363 98.053 94.3766C98.053 93.2299 98.231 92.1247 98.561 91.0873" stroke="#93C9A8" stroke-width="3.12374" stroke-linecap="round"/>
<path d="M94.5336 91.7681L99.0492 89.2424L102.05 93.548" stroke="#93C9A8" stroke-width="3.12374" stroke-linecap="round" stroke-linejoin="round"/>
<defs>
<filter id="filter0_d_2705_17609" x="37.1908" y="27.3361" width="145.067" height="138.1" filterUnits="userSpaceOnUse" color-interpolation-filters="sRGB">
<feFlood flood-opacity="0" result="BackgroundImageFix"/>
<feColorMatrix in="SourceAlpha" type="matrix" values="0 0 0 0 0 0 0 0 0 0 0 0 0 0 0 0 0 0 127 0" result="hardAlpha"/>
<feOffset dy="2.13333"/>
<feGaussianBlur stdDeviation="4.26667"/>
<feComposite in2="hardAlpha" operator="out"/>
<feColorMatrix type="matrix" values="0 0 0 0 0 0 0 0 0 0 0 0 0 0 0 0 0 0 0.15 0"/>
<feBlend mode="normal" in2="BackgroundImageFix" result="effect1_dropShadow_2705_17609"/>
<feBlend mode="normal" in="SourceGraphic" in2="effect1_dropShadow_2705_17609" result="shape"/>
</filter>
</defs>
</svg>
