<svg width="301" height="234" viewBox="0 0 301 234" fill="none" xmlns="http://www.w3.org/2000/svg">
<path d="M13.1302 170.668C29.3719 189.99 55.476 195.11 71.8649 189.991C93.2458 183.312 106.672 162.967 125.502 160.544C144.333 158.121 155.406 168.706 175.897 170.233C196.389 171.76 221.232 167.63 232.791 137.935C244.349 108.239 233.948 78.2321 210.214 64.3615C186.481 50.4908 173.271 66.7694 150.564 68.1237C127.858 69.4779 118.023 45.8528 101.023 44.3528C84.0234 42.8528 74.5234 45.853 64.5234 58.8529C54.5234 71.8528 60.3713 85.7641 29.5235 99.853C-1.32419 113.942 -3.11149 151.345 13.1302 170.668Z" fill="#FFE4B1"/>
<g filter="url(#filter0_d_2705_17597)">
<rect x="56.5234" y="57.9199" width="128" height="128.533" rx="6.98252" fill="#EBEEF0"/>
<mask id="mask0_2705_17597" style="mask-type:alpha" maskUnits="userSpaceOnUse" x="56" y="57" width="129" height="132">
<rect x="56.5234" y="57.9199" width="128" height="130.133" rx="6.98252" fill="#DEE3E6"/>
</mask>
<g mask="url(#mask0_2705_17597)">
<rect x="65.0571" y="117.653" width="110.4" height="30.9333" rx="3.75128" fill="#F3F5F7"/>
<rect x="65.0569" y="103.253" width="110.4" height="30.9333" rx="3.75128" fill="#F3F5F7"/>
<rect x="65.0571" y="156.053" width="110.4" height="30.9333" rx="3.75128" fill="#F3F5F7"/>
<rect width="32" height="18.9465" rx="2.31569" transform="matrix(1 0 0 -1 143.457 95.625)" fill="#F3F5F7"/>
<rect width="32" height="18.9465" rx="2.31569" transform="matrix(1 0 0 -1 103.99 95.6259)" fill="#F3F5F7"/>
<rect width="32" height="18.9465" rx="2.31569" transform="matrix(1 0 0 -1 64.5234 95.6259)" fill="#F3F5F7"/>
</g>
<path d="M56.5234 64.9356C56.5234 61.0792 59.6496 57.953 63.506 57.953H177.383C181.239 57.953 184.365 61.0792 184.365 64.9356V68.533H56.5234V64.9356Z" fill="white"/>
<rect x="61.813" y="61.4796" width="3.52667" height="3.52667" rx="1.76333" fill="#F3F5F7"/>
<rect x="67.1038" y="61.4796" width="3.52667" height="3.52667" rx="1.76333" fill="#F3F5F7"/>
<rect x="72.437" y="61.4796" width="3.52667" height="3.52667" rx="1.76333" fill="#F3F5F7"/>
</g>
<circle cx="120.523" cy="120.853" r="17.3793" fill="#4E3300" stroke="white" stroke-width="2.75862"/>
<circle cx="1.65517" cy="1.65517" r="1.65517" transform="matrix(1 0 0 -1 118.868 116.991)" fill="#FFE4B1"/>
<rect width="3.31034" height="9.37931" rx="1.65517" transform="matrix(1 0 0 -1 118.868 128.577)" fill="#FFE4B1"/>
<defs>
<filter id="filter0_d_2705_17597" x="47.9901" y="51.5199" width="145.067" height="146.133" filterUnits="userSpaceOnUse" color-interpolation-filters="sRGB">
<feFlood flood-opacity="0" result="BackgroundImageFix"/>
<feColorMatrix in="SourceAlpha" type="matrix" values="0 0 0 0 0 0 0 0 0 0 0 0 0 0 0 0 0 0 127 0" result="hardAlpha"/>
<feOffset dy="2.13333"/>
<feGaussianBlur stdDeviation="4.26667"/>
<feComposite in2="hardAlpha" operator="out"/>
<feColorMatrix type="matrix" values="0 0 0 0 0 0 0 0 0 0 0 0 0 0 0 0 0 0 0.15 0"/>
<feBlend mode="normal" in2="BackgroundImageFix" result="effect1_dropShadow_2705_17597"/>
<feBlend mode="normal" in="SourceGraphic" in2="effect1_dropShadow_2705_17597" result="shape"/>
</filter>
</defs>
</svg>
