<svg width="461" height="146" viewBox="0 0 461 146" fill="none" xmlns="http://www.w3.org/2000/svg">
<g clip-path="url(#clip0_1505_4754)">
<path d="M443.345 308.505C412.872 339.914 372.777 344.929 331.051 339.708C259.779 330.793 262.258 265.5 212.72 231C181.609 209.333 129.742 255.804 75.7203 235.5C15.2915 212.788 -22.7796 130.003 49.2203 67.5C103.703 20.2034 141.05 51.9794 182.72 49C224.391 46.0206 239.483 35.7439 258.258 18.6292C280.162 -1.33884 318.72 -3.9118 347.472 4.57538C376.81 13.2355 397.691 33.8558 405.674 63.4971C411.751 86.07 409.101 128.832 425.258 150.129C447.258 179.129 462.708 187.742 469.777 221.629C475.917 251.06 461.595 289.65 443.345 308.505Z" fill="#B8E6CA"/>
<g filter="url(#filter0_d_1505_4754)">
<path d="M157.829 40.9445C157.829 35.2953 162.409 30.7158 168.058 30.7158H292.515C298.165 30.7158 302.744 35.2953 302.744 40.9445V201.817C302.744 207.466 298.165 212.045 292.515 212.045H168.058C162.409 212.045 157.829 207.466 157.829 201.817V40.9445Z" fill="white"/>
</g>
<path d="M56.3223 25.751C68.8206 25.751 78.8935 36.1582 78.8936 48.9229C78.8936 61.6876 68.8207 72.0957 56.3223 72.0957C43.8238 72.0957 33.751 61.6876 33.751 48.9229C33.7511 36.1582 43.8239 25.751 56.3223 25.751Z" fill="#895A00" stroke="white" stroke-width="2.49857"/>
<mask id="mask0_1505_4754" style="mask-type:alpha" maskUnits="userSpaceOnUse" x="35" y="27" width="43" height="44">
<ellipse cx="56.3223" cy="48.923" rx="21.3223" ry="21.923" fill="#D9D9D9"/>
</mask>
<g mask="url(#mask0_1505_4754)">
<path d="M65.269 44.6937C65.269 49.4245 61.4338 53.2597 56.703 53.2597C51.9721 53.2597 48.137 49.4245 48.137 44.6937C48.137 39.9628 51.9721 36.1277 56.703 36.1277C61.4338 36.1277 65.269 39.9628 65.269 44.6937Z" fill="#FECE72"/>
<ellipse cx="56.703" cy="70.0045" rx="18.2027" ry="14.9725" fill="#FECE72"/>
</g>
<path d="M399.692 42.7896C417.23 42.7896 431.365 57.3935 431.365 75.3052C431.365 93.2169 417.23 107.821 399.692 107.821C382.154 107.821 368.02 93.2169 368.02 75.3052C368.02 57.3935 382.154 42.7896 399.692 42.7896Z" fill="#895A00" stroke="white" stroke-width="3.50604"/>
<mask id="mask1_1505_4754" style="mask-type:alpha" maskUnits="userSpaceOnUse" x="369" y="44" width="61" height="63">
<ellipse cx="399.822" cy="75.3053" rx="29.9198" ry="30.7628" fill="#D9D9D9"/>
</mask>
<g mask="url(#mask1_1505_4754)">
<path fill-rule="evenodd" clip-rule="evenodd" d="M388.423 71.3843C387.51 72.2653 386.994 73.4795 386.994 74.7482V104.767C386.994 107.349 389.087 109.442 391.669 109.442H408.031C410.612 109.442 412.705 107.349 412.705 104.767V74.7482C412.705 73.4795 412.19 72.2653 411.277 71.3843L401.473 61.9233C400.567 61.0493 399.132 61.0493 398.227 61.9233L388.423 71.3843ZM399.85 82.5618C401.786 82.5618 403.356 80.9921 403.356 79.0558C403.356 77.1195 401.786 75.5498 399.85 75.5498C397.914 75.5498 396.344 77.1195 396.344 79.0558C396.344 80.9921 397.914 82.5618 399.85 82.5618Z" fill="#FECE72"/>
</g>
<path d="M169.246 53.7988C169.246 52.1571 170.577 50.8262 172.219 50.8262H288.894C290.536 50.8262 291.866 52.1571 291.866 53.7988V82.0386C291.866 83.6804 290.536 85.0112 288.894 85.0112H172.219C170.577 85.0112 169.246 83.6804 169.246 82.0386V53.7988Z" fill="#FFE4B1"/>
<rect x="168.976" y="92.3975" width="122.62" height="5.94523" rx="2.97262" fill="#FFE4B1"/>
<rect opacity="0.6" x="168.976" y="103.545" width="122.62" height="5.94523" rx="2.97262" fill="#FFE4B1"/>
<rect opacity="0.25" x="168.976" y="114.692" width="55.7365" height="5.94523" rx="2.97262" fill="#FFE4B1"/>
<rect opacity="0.25" x="168.976" y="124.353" width="55.7365" height="5.94523" rx="2.97262" fill="#FFE4B1"/>
<rect x="237.346" y="115.435" width="54.2502" height="37.1577" rx="2.97262" fill="#FFE4B1"/>
<circle cx="249.237" cy="131.041" r="3.71577" fill="#E1B155"/>
<path d="M257.687 136.071L250.723 144.418H279.706L269.167 131.784L261.639 140.808L257.687 136.071Z" fill="#E1B155"/>
<rect x="168.976" y="138.473" width="54.2502" height="73.5722" rx="2.97262" fill="#FFE4B1"/>
<path d="M99.3643 94.7905C110.516 94.7905 119.505 104.077 119.505 115.466C119.505 126.856 110.517 136.143 99.3643 136.143C88.2121 136.143 79.2246 126.856 79.2246 115.466C79.2248 104.077 88.2122 94.7907 99.3643 94.7905Z" fill="#895A00" stroke="white" stroke-width="2.22946"/>
<mask id="mask2_1505_4754" style="mask-type:alpha" maskUnits="userSpaceOnUse" x="80" y="95" width="39" height="41">
<path d="M99.3643 96.2759C109.657 96.2759 118.018 104.858 118.019 115.466C118.019 126.075 109.657 134.657 99.3643 134.657C89.0717 134.657 80.71 126.074 80.71 115.466C80.7101 104.858 89.0718 96.2761 99.3643 96.2759Z" fill="#D9D9D9" stroke="black" stroke-width="0.743154"/>
</mask>
<g mask="url(#mask2_1505_4754)">
<path d="M85.8069 123.259L95.7167 135.292H106.121C109.688 135.292 110.58 132.319 110.58 130.833V120.429C110.58 119.758 109.949 118.675 108.954 118.199C108.331 117.901 107.566 118.154 106.723 117.926C106.111 117.761 106.121 117.36 105.006 117.142C104.1 116.964 103.448 117.239 102.777 117.142C102.071 117.039 102.101 116.465 100.919 116.341C99.5759 116.201 99.2891 116.75 98.6893 116.713V108.538C98.6893 107.795 98.2434 106.309 96.4598 106.309C94.6762 106.309 94.2303 107.795 94.2303 108.538V124.516C92.744 123.773 88.8796 121.172 88.2851 121.172C87.8106 121.172 86.8309 121.645 85.9509 122.214C85.5952 122.445 85.5376 122.932 85.8069 123.259Z" fill="#FECE72"/>
</g>
</g>
<defs>
<filter id="filter0_d_1505_4754" x="145.939" y="21.798" width="168.696" height="205.111" filterUnits="userSpaceOnUse" color-interpolation-filters="sRGB">
<feFlood flood-opacity="0" result="BackgroundImageFix"/>
<feColorMatrix in="SourceAlpha" type="matrix" values="0 0 0 0 0 0 0 0 0 0 0 0 0 0 0 0 0 0 127 0" result="hardAlpha"/>
<feOffset dy="2.97262"/>
<feGaussianBlur stdDeviation="5.94523"/>
<feComposite in2="hardAlpha" operator="out"/>
<feColorMatrix type="matrix" values="0 0 0 0 0 0 0 0 0 0 0 0 0 0 0 0 0 0 0.15 0"/>
<feBlend mode="normal" in2="BackgroundImageFix" result="effect1_dropShadow_1505_4754"/>
<feBlend mode="normal" in="SourceGraphic" in2="effect1_dropShadow_1505_4754" result="shape"/>
</filter>
<clipPath id="clip0_1505_4754">
<rect width="461" height="146" fill="white"/>
</clipPath>
</defs>
</svg>
