<svg width="473" height="350" viewBox="0 0 473 350" fill="none" xmlns="http://www.w3.org/2000/svg">
<path d="M431.798 213.776C449.38 263.873 430.526 329.48 374.659 346.112C318.792 362.743 283.547 314.084 259.065 311.742C234.583 309.4 202.139 334.715 162.046 346.349C121.954 357.984 76.9924 339.764 48.48 297.568C19.9675 255.372 43.5212 173.701 86.6981 160.063C129.875 146.426 138.563 170.006 181.576 159.891C224.59 149.777 220.146 118.996 259.469 106.59C347.228 78.9028 414.216 163.679 431.798 213.776Z" fill="#D0FBE1"/>
<g filter="url(#filter0_d_5028_15075)">
<rect x="110.006" y="121.344" width="202.324" height="203.167" rx="11.037" fill="#EBEEF0"/>
<mask id="mask0_5028_15075" style="mask-type:alpha" maskUnits="userSpaceOnUse" x="110" y="121" width="203" height="207">
<rect x="110.006" y="121.344" width="202.324" height="205.696" rx="11.037" fill="#DEE3E6"/>
</mask>
<g mask="url(#mask0_5028_15075)">
<rect x="122.65" y="186.257" width="82.6155" height="112.121" rx="5.92948" fill="white"/>
<rect x="132.908" y="232.421" width="28.5777" height="5.12934" rx="2.56467" fill="#EBEEF0"/>
<rect x="132.908" y="224.36" width="10.2587" height="5.12934" rx="2.56467" fill="#EBEEF0"/>
<rect x="132.908" y="250.782" width="10.2587" height="5.12934" rx="2.56467" fill="#EBEEF0"/>
<rect x="132.908" y="276.117" width="10.2587" height="5.12934" rx="2.56467" fill="#EBEEF0"/>
<path d="M179.072 231.322C179.072 228.691 181.205 226.559 183.835 226.559H191.163C193.793 226.559 195.926 228.691 195.926 231.322C195.926 233.952 193.793 236.085 191.163 236.085H183.835C181.205 236.085 179.072 233.952 179.072 231.322Z" fill="#EBEEF0"/>
<rect x="132.893" y="197.577" width="19.4056" height="4.85139" rx="2.4257" fill="#EBEEF0"/>
<path d="M179.072 257.743C179.072 255.113 181.205 252.98 183.835 252.98H191.163C193.793 252.98 195.926 255.113 195.926 257.743C195.926 260.374 193.793 262.506 191.163 262.506H183.835C181.205 262.506 179.072 260.374 179.072 257.743Z" fill="#EBEEF0"/>
<path d="M179.072 283.078C179.072 280.448 181.205 278.315 183.835 278.315H191.163C193.793 278.315 195.926 280.448 195.926 283.078C195.926 285.709 193.793 287.841 191.163 287.841H183.835C181.205 287.841 179.072 285.709 179.072 283.078Z" fill="#EBEEF0"/>
<rect x="132.176" y="258.842" width="30.0433" height="5.12934" rx="2.56467" fill="#EBEEF0"/>
<rect x="132.176" y="289.568" width="30.0433" height="5.12934" rx="2.56467" fill="#EBEEF0"/>
<path d="M205.123 212.4H123.188" stroke="#EBEEF0" stroke-width="1.07809"/>
<rect x="215.381" y="186.257" width="82.6155" height="112.121" rx="5.92948" fill="white"/>
<rect x="226.141" y="232.421" width="28.5133" height="5.12934" rx="2.56467" fill="#EBEEF0"/>
<rect x="226.141" y="224.36" width="10.2356" height="5.12934" rx="2.56467" fill="#EBEEF0"/>
<rect x="226.141" y="250.782" width="10.2356" height="5.12934" rx="2.56467" fill="#EBEEF0"/>
<rect x="226.141" y="276.117" width="10.2356" height="5.12934" rx="2.56467" fill="#EBEEF0"/>
<path d="M272.199 231.322C272.199 228.691 274.332 226.559 276.962 226.559H284.252C286.882 226.559 289.015 228.691 289.015 231.322C289.015 233.952 286.882 236.085 284.252 236.085H276.962C274.332 236.085 272.199 233.952 272.199 231.322Z" fill="#EBEEF0"/>
<rect x="226.164" y="197.577" width="19.439" height="4.85139" rx="2.4257" fill="#EBEEF0"/>
<path d="M297.998 212.4H215.382" stroke="#EBEEF0" stroke-width="1.07809"/>
<path d="M272.199 257.743C272.199 255.113 274.332 252.98 276.962 252.98H284.252C286.882 252.98 289.015 255.113 289.015 257.743C289.015 260.374 286.882 262.506 284.252 262.506H276.962C274.332 262.506 272.199 260.374 272.199 257.743Z" fill="#EBEEF0"/>
<path d="M272.199 283.078C272.199 280.448 274.332 278.315 276.962 278.315H284.252C286.882 278.315 289.015 280.448 289.015 283.078C289.015 285.709 286.882 287.841 284.252 287.841H276.962C274.332 287.841 272.199 285.709 272.199 283.078Z" fill="#EBEEF0"/>
<rect x="225.408" y="258.842" width="29.9755" height="5.12934" rx="2.56467" fill="#EBEEF0"/>
<rect x="225.408" y="289.568" width="29.9755" height="5.12934" rx="2.56467" fill="#EBEEF0"/>
<rect width="54.796" height="27.8195" rx="3.6603" transform="matrix(1 0 0 -1 243.201 177.827)" fill="white"/>
<rect width="16.6364" height="6.6551" rx="3.32755" transform="matrix(1 0 0 -1 248.42 170.804)" fill="#EBEEF0"/>
<rect width="44.2527" height="2.66204" rx="1.33102" transform="matrix(1 0 0 -1 248.42 159.158)" fill="#EBEEF0"/>
<rect width="54.9" height="29.9479" rx="3.6603" transform="matrix(1 0 0 -1 182.873 180.099)" fill="white"/>
<rect width="34.9364" height="2.66204" rx="1.33102" transform="matrix(1 0 0 -1 188.197 174.775)" fill="#EBEEF0"/>
<rect width="16.6364" height="6.6551" rx="3.32755" transform="matrix(1 0 0 -1 188.197 169.118)" fill="#EBEEF0"/>
<rect width="44.2527" height="2.66204" rx="1.33102" transform="matrix(1 0 0 -1 188.197 157.472)" fill="#EBEEF0"/>
<rect width="54.796" height="27.8195" rx="3.6603" transform="matrix(1 0 0 -1 122.65 177.827)" fill="white"/>
<path d="M127.973 167.477C127.973 169.314 129.462 170.804 131.3 170.804H141.281C143.119 170.804 144.609 169.314 144.609 167.477C144.609 165.639 143.119 164.149 141.281 164.149H131.3C129.462 164.149 127.973 165.639 127.973 167.477Z" fill="#EBEEF0"/>
<rect width="44.2527" height="2.66204" rx="1.33102" transform="matrix(1 0 0 -1 127.973 159.158)" fill="#EBEEF0"/>
</g>
<path d="M109.826 132.876C109.826 126.78 114.768 121.839 120.863 121.839H300.863C306.958 121.839 311.9 126.78 311.9 132.876V138.562H109.826V132.876Z" fill="white"/>
<rect x="118.367" y="126.971" width="5.57444" height="5.57444" rx="2.78722" fill="#F3F5F7"/>
<rect x="126.729" y="126.971" width="5.57444" height="5.57444" rx="2.78722" fill="#F3F5F7"/>
<rect x="135.158" y="126.971" width="5.57444" height="5.57444" rx="2.78722" fill="#F3F5F7"/>
</g>
<path d="M306.533 127.668C303.039 123.906 302.107 110.272 302.107 110.272C302.107 110.272 301.408 123.906 297.914 127.668C294.419 131.429 284.402 132.134 284.402 132.134C284.402 132.134 295.584 133.544 298.147 137.541C300.709 141.537 302.107 154.231 302.107 154.231C302.107 154.231 303.039 140.362 306.533 136.835C310.027 133.309 320.044 132.134 320.044 132.134C320.044 132.134 310.027 131.429 306.533 127.668Z" fill="#FECE72"/>
<path d="M273.006 146.191C269.978 142.938 269.17 131.147 269.17 131.147C269.17 131.147 268.564 142.938 265.536 146.191C262.508 149.444 253.826 150.054 253.826 150.054C253.826 150.054 263.517 151.274 265.738 154.73C267.959 158.186 269.17 169.165 269.17 169.165C269.17 169.165 269.978 157.17 273.006 154.12C276.035 151.071 284.716 150.054 284.716 150.054C284.716 150.054 276.035 149.444 273.006 146.191Z" fill="#FECE72"/>
<path d="M327.832 170.722C325.852 168.587 325.324 160.848 325.324 160.848C325.324 160.848 324.928 168.587 322.947 170.722C320.967 172.856 315.291 173.257 315.291 173.257C315.291 173.257 321.627 174.057 323.079 176.325C324.532 178.593 325.324 185.798 325.324 185.798C325.324 185.798 325.852 177.926 327.832 175.925C329.812 173.924 335.488 173.257 335.488 173.257C335.488 173.257 329.812 172.856 327.832 170.722Z" fill="#FECE72"/>
<path d="M288.432 93.5223C286.908 91.8959 286.501 86 286.501 86C286.501 86 286.196 91.8959 284.671 93.5223C283.146 95.1488 278.775 95.4537 278.775 95.4537C278.775 95.4537 283.655 96.0637 284.773 97.7918C285.891 99.5199 286.501 105.009 286.501 105.009C286.501 105.009 286.908 99.0116 288.432 97.4868C289.957 95.962 294.328 95.4537 294.328 95.4537C294.328 95.4537 289.957 95.1488 288.432 93.5223Z" fill="#FECE72"/>
<defs>
<filter id="filter0_d_5028_15075" x="96.3379" y="111.228" width="229.48" height="230.143" filterUnits="userSpaceOnUse" color-interpolation-filters="sRGB">
<feFlood flood-opacity="0" result="BackgroundImageFix"/>
<feColorMatrix in="SourceAlpha" type="matrix" values="0 0 0 0 0 0 0 0 0 0 0 0 0 0 0 0 0 0 127 0" result="hardAlpha"/>
<feOffset dy="3.37206"/>
<feGaussianBlur stdDeviation="6.74413"/>
<feComposite in2="hardAlpha" operator="out"/>
<feColorMatrix type="matrix" values="0 0 0 0 0 0 0 0 0 0 0 0 0 0 0 0 0 0 0.15 0"/>
<feBlend mode="normal" in2="BackgroundImageFix" result="effect1_dropShadow_5028_15075"/>
<feBlend mode="normal" in="SourceGraphic" in2="effect1_dropShadow_5028_15075" result="shape"/>
</filter>
</defs>
</svg>
