<svg width="365" height="162" viewBox="0 0 365 162" fill="none" xmlns="http://www.w3.org/2000/svg">
<path d="M395.798 127.776C413.38 177.873 394.526 243.48 338.659 260.112C282.792 276.743 247.547 228.084 223.065 225.742C198.583 223.4 166.139 248.715 126.046 260.349C85.9538 271.984 40.9924 253.764 12.48 211.568C-16.0325 169.372 7.52122 87.7006 50.6981 74.0632C93.8751 60.4258 102.563 84.006 145.576 73.8914C188.59 63.7767 184.146 32.9962 223.469 20.5903C311.228 -7.09719 378.216 77.679 395.798 127.776Z" fill="#D0FBE1"/>
<g filter="url(#filter0_d_4201_35555)">
<rect x="74.0059" y="35.3443" width="202.324" height="203.167" rx="11.037" fill="#EBEEF0"/>
<mask id="mask0_4201_35555" style="mask-type:alpha" maskUnits="userSpaceOnUse" x="74" y="35" width="203" height="207">
<rect x="74.0059" y="35.3443" width="202.324" height="205.696" rx="11.037" fill="#DEE3E6"/>
</mask>
<g mask="url(#mask0_4201_35555)">
<rect x="86.6504" y="100.257" width="82.6155" height="112.121" rx="5.92948" fill="white"/>
<rect x="96.9082" y="146.421" width="28.5777" height="5.12934" rx="2.56467" fill="#EBEEF0"/>
<rect x="96.9082" y="138.36" width="10.2587" height="5.12934" rx="2.56467" fill="#EBEEF0"/>
<path d="M143.072 145.322C143.072 142.691 145.205 140.559 147.835 140.559H155.163C157.793 140.559 159.926 142.691 159.926 145.322C159.926 147.952 157.793 150.085 155.163 150.085H147.835C145.205 150.085 143.072 147.952 143.072 145.322Z" fill="#EBEEF0"/>
<rect x="96.8926" y="111.577" width="19.4056" height="4.85139" rx="2.4257" fill="#EBEEF0"/>
<path d="M169.123 126.4L87.1884 126.4" stroke="#EBEEF0" stroke-width="1.07809"/>
<rect x="179.381" y="100.257" width="82.6155" height="112.121" rx="5.92948" fill="white"/>
<rect x="190.141" y="146.421" width="28.5133" height="5.12934" rx="2.56467" fill="#EBEEF0"/>
<rect x="190.141" y="138.36" width="10.2356" height="5.12934" rx="2.56467" fill="#EBEEF0"/>
<path d="M236.199 145.322C236.199 142.691 238.332 140.559 240.962 140.559H248.252C250.882 140.559 253.015 142.691 253.015 145.322C253.015 147.952 250.882 150.085 248.252 150.085H240.962C238.332 150.085 236.199 147.952 236.199 145.322Z" fill="#EBEEF0"/>
<rect x="190.164" y="111.577" width="19.439" height="4.85139" rx="2.4257" fill="#EBEEF0"/>
<path d="M261.998 126.4L179.382 126.4" stroke="#EBEEF0" stroke-width="1.07809"/>
<rect width="54.796" height="27.8195" rx="3.6603" transform="matrix(1 0 0 -1 207.201 91.8267)" fill="white"/>
<rect width="16.6364" height="6.6551" rx="3.32755" transform="matrix(1 0 0 -1 212.42 84.8043)" fill="#EBEEF0"/>
<rect width="44.2527" height="2.66204" rx="1.33102" transform="matrix(1 0 0 -1 212.42 73.1577)" fill="#EBEEF0"/>
<rect width="54.9" height="29.9479" rx="3.6603" transform="matrix(1 0 0 -1 146.873 94.0988)" fill="white"/>
<rect width="34.9364" height="2.66204" rx="1.33102" transform="matrix(1 0 0 -1 152.197 88.7748)" fill="#EBEEF0"/>
<rect width="16.6364" height="6.6551" rx="3.32755" transform="matrix(1 0 0 -1 152.197 83.1179)" fill="#EBEEF0"/>
<rect width="44.2527" height="2.66204" rx="1.33102" transform="matrix(1 0 0 -1 152.197 71.4715)" fill="#EBEEF0"/>
<rect width="54.796" height="27.8195" rx="3.6603" transform="matrix(1 0 0 -1 86.6504 91.8267)" fill="white"/>
<path d="M91.9727 81.4767C91.9727 83.3145 93.4624 84.8043 95.3002 84.8043H105.281C107.119 84.8043 108.609 83.3145 108.609 81.4767C108.609 79.639 107.119 78.1492 105.281 78.1492H95.3002C93.4625 78.1492 91.9727 79.639 91.9727 81.4767Z" fill="#EBEEF0"/>
<rect width="44.2527" height="2.66204" rx="1.33102" transform="matrix(1 0 0 -1 91.9727 73.1577)" fill="#EBEEF0"/>
</g>
<path d="M73.8262 46.8756C73.8262 40.7801 78.7676 35.8387 84.8631 35.8387H264.863C270.958 35.8387 275.9 40.7801 275.9 46.8756V52.562H73.8262V46.8756Z" fill="white"/>
<rect x="82.3672" y="40.9713" width="5.57444" height="5.57444" rx="2.78722" fill="#F3F5F7"/>
<rect x="90.7285" y="40.9713" width="5.57444" height="5.57444" rx="2.78722" fill="#F3F5F7"/>
<rect x="99.1582" y="40.9713" width="5.57444" height="5.57444" rx="2.78722" fill="#F3F5F7"/>
</g>
<path d="M270.533 41.6676C267.039 37.9065 266.107 24.2722 266.107 24.2722C266.107 24.2722 265.408 37.9065 261.914 41.6676C258.419 45.4288 248.402 46.134 248.402 46.134C248.402 46.134 259.584 47.5445 262.147 51.5407C264.709 55.5369 266.107 68.2309 266.107 68.2309C266.107 68.2309 267.039 54.3616 270.533 50.8355C274.027 47.3094 284.044 46.134 284.044 46.134C284.044 46.134 274.027 45.4288 270.533 41.6676Z" fill="#FECE72"/>
<path d="M237.006 60.1914C233.978 56.9385 233.17 45.1467 233.17 45.1467C233.17 45.1467 232.564 56.9385 229.536 60.1914C226.508 63.4443 217.826 64.0542 217.826 64.0542C217.826 64.0542 227.517 65.274 229.738 68.7302C231.959 72.1864 233.17 83.165 233.17 83.165C233.17 83.165 233.978 71.1699 237.006 68.1203C240.035 65.0707 248.716 64.0542 248.716 64.0542C248.716 64.0542 240.035 63.4443 237.006 60.1914Z" fill="#FECE72"/>
<path d="M291.832 84.7215C289.852 82.5868 289.324 74.8485 289.324 74.8485C289.324 74.8485 288.928 82.5868 286.947 84.7215C284.967 86.8563 279.291 87.2565 279.291 87.2565C279.291 87.2565 285.627 88.057 287.079 90.3252C288.532 92.5933 289.324 99.798 289.324 99.798C289.324 99.798 289.852 91.9262 291.832 89.9249C293.812 87.9236 299.488 87.2565 299.488 87.2565C299.488 87.2565 293.812 86.8563 291.832 84.7215Z" fill="#FECE72"/>
<path d="M252.432 7.52233C250.908 5.89588 250.501 0 250.501 0C250.501 0 250.196 5.89588 248.671 7.52233C247.146 9.14878 242.775 9.45374 242.775 9.45374C242.775 9.45374 247.655 10.0637 248.773 11.7918C249.891 13.5199 250.501 19.0091 250.501 19.0091C250.501 19.0091 250.908 13.0116 252.432 11.4868C253.957 9.96201 258.328 9.45374 258.328 9.45374C258.328 9.45374 253.957 9.14878 252.432 7.52233Z" fill="#FECE72"/>
<defs>
<filter id="filter0_d_4201_35555" x="60.3379" y="25.2281" width="229.48" height="230.143" filterUnits="userSpaceOnUse" color-interpolation-filters="sRGB">
<feFlood flood-opacity="0" result="BackgroundImageFix"/>
<feColorMatrix in="SourceAlpha" type="matrix" values="0 0 0 0 0 0 0 0 0 0 0 0 0 0 0 0 0 0 127 0" result="hardAlpha"/>
<feOffset dy="3.37206"/>
<feGaussianBlur stdDeviation="6.74413"/>
<feComposite in2="hardAlpha" operator="out"/>
<feColorMatrix type="matrix" values="0 0 0 0 0 0 0 0 0 0 0 0 0 0 0 0 0 0 0.15 0"/>
<feBlend mode="normal" in2="BackgroundImageFix" result="effect1_dropShadow_4201_35555"/>
<feBlend mode="normal" in="SourceGraphic" in2="effect1_dropShadow_4201_35555" result="shape"/>
</filter>
</defs>
</svg>
