<?xml version="1.0" encoding="UTF-8" standalone="no"?>
<svg
   width="485"
   height="272"
   viewBox="0 -16 485 344"
   fill="none"
   version="1.1"
   id="svg2019"
   sodipodi:docname="consent-mode-setup1.svg"
   inkscape:version="1.1.2 (0a00cf5339, 2022-02-04)"
   xmlns:inkscape="http://www.inkscape.org/namespaces/inkscape"
   xmlns:sodipodi="http://sodipodi.sourceforge.net/DTD/sodipodi-0.dtd"
   xmlns="http://www.w3.org/2000/svg"
   xmlns:svg="http://www.w3.org/2000/svg">
  <sodipodi:namedview
     id="namedview2021"
     pagecolor="#ffffff"
     bordercolor="#666666"
     borderopacity="1.0"
     inkscape:pageshadow="2"
     inkscape:pageopacity="0.0"
     inkscape:pagecheckerboard="0"
     showgrid="false"
     viewbox-height="344"
     viewbox-y="-16"
     inkscape:zoom="2.1773196"
     inkscape:cx="242.5"
     inkscape:cy="136.17661"
     inkscape:window-width="3440"
     inkscape:window-height="1376"
     inkscape:window-x="1920"
     inkscape:window-y="27"
     inkscape:window-maximized="1"
     inkscape:current-layer="svg2019" />
  <path
     d="m 457.125,293.876 c -3.243,3.343 -6.663,6.423 -10.24,9.22 -34.362,26.944 -62.751,26.901 -102.055,21.983 -26.57,-3.323 -42.093,-15.97 -78.319,-13.981 -36.226,1.989 -45.507,11.196 -89.85,8.247 C 141.56,317.011 98.9723,318.799 67.7651,302.592 38.8831,287.593 7.27127,257.447 1.28711,187.48 -4.69705,117.513 11.7937,75.08 57.0376,43.4796 112.716,4.59105 166.697,39.959 208.367,36.9796 250.038,34.0003 253.263,21.115 272.038,4.00026 c 21.904,-19.96806 63.565,-24.71066 89.214,-14.05386 27.786,6.05386 50.219,29.2804 58.202,58.9218 6.077,22.5728 3.427,65.3348 19.584,86.6318 22,29 37.449,37.613 44.519,71.5 6.139,29.431 -8.182,68.021 -26.432,86.876 z"
     fill="#b8e6ca"
     id="path1918" />
  <g
     filter="url(#filter0_d_162_2908)"
     id="g1969">
    <path
       fill-rule="evenodd"
       clip-rule="evenodd"
       d="M 303.594,56.9319 H 105.081 c -7.6575,0 -13.8652,6.2076 -13.8652,13.8652 V 216.389 c 0,7.658 6.2077,13.865 13.8652,13.865 h 226.126 c 7.657,0 13.865,-6.207 13.865,-13.865 V 112.838 c -23.762,-3.629 -41.965,-24.1536 -41.965,-48.93 0,-2.3679 0.166,-4.697 0.487,-6.9761 z"
       fill="#ffffff"
       id="path1920" />
    <path
       fill-rule="evenodd"
       clip-rule="evenodd"
       d="M 303.594,56.9319 H 105.081 c -7.6575,0 -13.8652,6.2076 -13.8652,13.8652 v 7.1435 H 305.124 c -1.313,-4.4488 -2.017,-9.1584 -2.017,-14.0326 0,-2.3679 0.166,-4.697 0.487,-6.9761 z"
       fill="#ebeef0"
       id="path1922" />
    <rect
       x="101.72"
       y="63.934399"
       width="7.0029302"
       height="7.0029302"
       rx="3.5014601"
       fill="#cbd0d3"
       id="rect1924" />
    <rect
       x="112.224"
       y="63.934399"
       width="7.0029302"
       height="7.0029302"
       rx="3.5014601"
       fill="#cbd0d3"
       id="rect1926" />
    <rect
       x="105.318"
       y="92.189697"
       width="25.184099"
       height="25.184099"
       rx="5.19946"
       fill="#ebeef0"
       id="rect1928" />
    <rect
       x="105.318"
       y="131.47701"
       width="25.184099"
       height="25.184099"
       rx="5.19946"
       fill="#ebeef0"
       id="rect1930" />
    <rect
       x="105.318"
       y="170.76401"
       width="25.184099"
       height="25.184099"
       rx="5.19946"
       fill="#ebeef0"
       id="rect1932" />
    <rect
       x="138.562"
       y="94.2043"
       width="41.301998"
       height="10.0737"
       rx="5.0368299"
       fill="#ebeef0"
       id="rect1934" />
    <rect
       x="138.562"
       y="133.492"
       width="41.301998"
       height="10.0737"
       rx="5.0368299"
       fill="#ebeef0"
       id="rect1936" />
    <rect
       x="138.562"
       y="172.77901"
       width="41.301998"
       height="10.0737"
       rx="5.0368299"
       fill="#ebeef0"
       id="rect1938" />
    <rect
       x="138.562"
       y="109.315"
       width="88.648201"
       height="6.0441899"
       rx="3.0221"
       fill="#ebeef0"
       id="rect1940" />
    <rect
       x="138.562"
       y="148.60201"
       width="88.648201"
       height="6.0441899"
       rx="3.0221"
       fill="#ebeef0"
       id="rect1942" />
    <rect
       x="138.562"
       y="187.88901"
       width="88.648201"
       height="6.0441899"
       rx="3.0221"
       fill="#ebeef0"
       id="rect1944" />
    <path
       fill-rule="evenodd"
       clip-rule="evenodd"
       d="m 330.969,108.441 c -7.636,-3.718 -14.173,-9.3409 -18.992,-16.2513 h -30.916 c -3.036,0 -5.498,2.4614 -5.498,5.4977 V 199.517 c 0,3.036 2.462,5.498 5.498,5.498 h 44.41 c 3.036,0 5.498,-2.462 5.498,-5.498 z"
       fill="#ebeef0"
       id="path1946" />
    <circle
       cx="352.60599"
       cy="63.908001"
       r="42.5"
       fill="#ffffff"
       id="circle1948" />
    <path
       d="m 353.31,39.1301 c 0,0 -12.187,5.6061 -21.937,7.5561 0,30.7117 16.575,41.6802 21.937,41.6802 5.362,0 22.181,-13.4059 21.206,-41.6802 -9.994,-2.1937 -21.206,-7.5561 -21.206,-7.5561 z"
       fill="#8e68cb"
       id="path1950" />
    <path
       d="m 353.31,39.1301 c 0,0 -12.187,5.6061 -21.937,7.5561 0,30.7117 16.575,41.6802 21.937,41.6802 5.362,0 22.181,-13.4059 21.206,-41.6802 -9.994,-2.1937 -21.206,-7.5561 -21.206,-7.5561 z"
       fill="#a983e6"
       id="path1952" />
    <path
       d="m 353.31,39.1301 c 0,0 -12.187,5.6061 -21.937,7.5561 0,30.7117 16.575,41.6802 21.937,41.6802 z"
       fill="#8e68cb"
       id="path1954" />
    <circle
       cx="353.55301"
       cy="62.773399"
       r="10.2372"
       fill="#462083"
       id="circle1956" />
    <circle
       opacity="0.5"
       cx="353.354"
       cy="62.868999"
       r="13.0675"
       stroke="#6e48ab"
       stroke-width="2"
       id="circle1958" />
    <mask
       id="mask0_162_2908"
       maskUnits="userSpaceOnUse"
       x="343"
       y="52"
       width="21"
       height="22">
      <circle
         cx="353.55301"
         cy="62.773399"
         r="10.2372"
         fill="#d9d9d9"
         id="circle1960" />
    </mask>
    <g
       mask="url(#mask0_162_2908)"
       id="g1967">
      <circle
         cx="353.55399"
         cy="58.8736"
         r="4.3873901"
         fill="#ffffff"
         id="circle1963" />
      <ellipse
         cx="353.55301"
         cy="72.035599"
         rx="9.7497501"
         ry="7.7997999"
         fill="#ffffff"
         id="ellipse1965" />
    </g>
  </g>
  <g
     filter="url(#filter1_d_162_2908)"
     id="g1981">
    <rect
       x="133.078"
       y="190.93201"
       width="170.133"
       height="60.255501"
       rx="6.0981498"
       fill="#8e68cb"
       id="rect1971" />
    <rect
       x="179.15601"
       y="202.746"
       width="77.977798"
       height="4.7259202"
       rx="2.3629601"
       fill="#ffffff"
       id="rect1973" />
    <rect
       x="166.16"
       y="213.38"
       width="103.97"
       height="4.7259202"
       rx="2.3629601"
       fill="#ffffff"
       id="rect1975" />
    <rect
       x="220.507"
       y="227.55701"
       width="36.6259"
       height="12.9963"
       rx="6.4981499"
       fill="#ffffff"
       id="rect1977" />
    <rect
       x="180.15601"
       y="228.55701"
       width="34.6259"
       height="10.9963"
       rx="5.4981499"
       stroke="#ffffff"
       stroke-width="2"
       id="rect1979" />
  </g>
  <defs
     id="defs2017">
    <filter
       id="filter0_d_162_2908"
       x="75.215797"
       y="9.4079704"
       width="335.89099"
       height="240.84599"
       filterUnits="userSpaceOnUse"
       color-interpolation-filters="sRGB">
      <feFlood
         flood-opacity="0"
         result="BackgroundImageFix"
         id="feFlood1983" />
      <feColorMatrix
         in="SourceAlpha"
         type="matrix"
         values="0 0 0 0 0 0 0 0 0 0 0 0 0 0 0 0 0 0 127 0"
         result="hardAlpha"
         id="feColorMatrix1985" />
      <feOffset
         dy="4"
         id="feOffset1987" />
      <feGaussianBlur
         stdDeviation="8"
         id="feGaussianBlur1989" />
      <feComposite
         in2="hardAlpha"
         operator="out"
         id="feComposite1991" />
      <feColorMatrix
         type="matrix"
         values="0 0 0 0 0 0 0 0 0 0 0 0 0 0 0 0 0 0 0.15 0"
         id="feColorMatrix1993" />
      <feBlend
         mode="normal"
         in2="BackgroundImageFix"
         result="effect1_dropShadow_162_2908"
         id="feBlend1995" />
      <feBlend
         mode="normal"
         in="SourceGraphic"
         in2="effect1_dropShadow_162_2908"
         result="shape"
         id="feBlend1997" />
    </filter>
    <filter
       id="filter1_d_162_2908"
       x="117.078"
       y="182.93201"
       width="202.133"
       height="92.2556"
       filterUnits="userSpaceOnUse"
       color-interpolation-filters="sRGB">
      <feFlood
         flood-opacity="0"
         result="BackgroundImageFix"
         id="feFlood2000" />
      <feColorMatrix
         in="SourceAlpha"
         type="matrix"
         values="0 0 0 0 0 0 0 0 0 0 0 0 0 0 0 0 0 0 127 0"
         result="hardAlpha"
         id="feColorMatrix2002" />
      <feOffset
         dy="8"
         id="feOffset2004" />
      <feGaussianBlur
         stdDeviation="8"
         id="feGaussianBlur2006" />
      <feComposite
         in2="hardAlpha"
         operator="out"
         id="feComposite2008" />
      <feColorMatrix
         type="matrix"
         values="0 0 0 0 0 0 0 0 0 0 0 0 0 0 0 0 0 0 0.25 0"
         id="feColorMatrix2010" />
      <feBlend
         mode="normal"
         in2="BackgroundImageFix"
         result="effect1_dropShadow_162_2908"
         id="feBlend2012" />
      <feBlend
         mode="normal"
         in="SourceGraphic"
         in2="effect1_dropShadow_162_2908"
         result="shape"
         id="feBlend2014" />
    </filter>
  </defs>
</svg>
