<svg width="553" height="146" viewBox="0 0 553 146" fill="none" xmlns="http://www.w3.org/2000/svg">
<g clip-path="url(#clip0_630_6357)">
<path d="M83.9792 159.764C79.018 101.758 92.6896 66.5794 130.199 40.3812C176.359 8.14069 223.5 43.3812 254 43.3812C284.5 43.3812 297.5 29.5 318.5 16.5C339.5 3.49997 360.407 -3.0004 383.5 3.49997C406.593 10.0003 424.882 28.4259 431.5 53C436.539 71.7139 440.466 94.6185 458.5 107.5C486.5 127.5 511.5 138 505.5 164.5L83.9792 159.764Z" fill="#B8E6CA"/>
<g filter="url(#filter0_d_630_6357)">
<path fill-rule="evenodd" clip-rule="evenodd" d="M371.208 75.8339C353.685 73.1578 340.26 58.0215 340.26 39.7499C340.26 38.0037 340.383 36.2861 340.62 34.6053H194.225C188.578 34.6053 184 39.1833 184 44.8304V152.198C184 157.845 188.578 162.423 194.225 162.423H360.983C366.63 162.423 371.208 157.845 371.208 152.198V75.8339Z" fill="white"/>
<path fill-rule="evenodd" clip-rule="evenodd" d="M340.62 34.6053H194.225C188.578 34.6053 184 39.1832 184 44.8304V50.0984H341.748C340.78 46.8176 340.26 43.3444 340.26 39.7499C340.26 38.0037 340.383 36.2861 340.62 34.6053Z" fill="#EBEEF0"/>
<rect x="191.746" y="39.7694" width="5.16436" height="5.16436" rx="2.58218" fill="#CBD0D3"/>
<rect x="199.493" y="39.7694" width="5.16436" height="5.16436" rx="2.58218" fill="#CBD0D3"/>
<rect x="194.4" y="60.6064" width="18.5722" height="18.5722" rx="3.83438" fill="#EBEEF0"/>
<rect x="194.4" y="89.5792" width="18.5722" height="18.5722" rx="3.83438" fill="#EBEEF0"/>
<rect x="194.4" y="118.552" width="18.5722" height="18.5722" rx="3.83438" fill="#EBEEF0"/>
<rect x="218.916" y="62.0922" width="30.4585" height="7.4289" rx="3.71445" fill="#EBEEF0"/>
<rect x="218.916" y="91.0648" width="30.4585" height="7.4289" rx="3.71445" fill="#EBEEF0"/>
<rect x="218.916" y="120.038" width="30.4585" height="7.4289" rx="3.71445" fill="#EBEEF0"/>
<rect x="218.916" y="73.2355" width="65.3743" height="4.45734" rx="2.22867" fill="#EBEEF0"/>
<rect x="218.916" y="102.208" width="65.3743" height="4.45734" rx="2.22867" fill="#EBEEF0"/>
<rect x="218.916" y="131.181" width="65.3743" height="4.45734" rx="2.22867" fill="#EBEEF0"/>
<path fill-rule="evenodd" clip-rule="evenodd" d="M360.808 72.5908C355.176 69.8496 350.356 65.7026 346.802 60.6064L324.003 60.6064C321.764 60.6064 319.949 62.4216 319.949 64.6607V139.756C319.949 141.995 321.764 143.81 324.003 143.81H356.753C358.992 143.81 360.808 141.995 360.808 139.756V72.5908Z" fill="#EBEEF0"/>
<circle cx="376.764" cy="39.7499" r="31.342" fill="white"/>
<path d="M377.284 21.4773C377.284 21.4773 368.296 25.6116 361.106 27.0496C361.106 49.6982 373.329 57.787 377.284 57.787C381.238 57.787 393.641 47.9007 392.922 27.0496C385.552 25.4318 377.284 21.4773 377.284 21.4773Z" fill="#8E68CB"/>
<path d="M377.284 21.4773C377.284 21.4773 368.296 25.6116 361.106 27.0496C361.106 49.6982 373.329 57.787 377.284 57.787C381.238 57.787 393.641 47.9007 392.922 27.0496C385.552 25.4318 377.284 21.4773 377.284 21.4773Z" fill="#A983E6"/>
<path d="M377.284 21.4773C377.284 21.4773 368.296 25.6116 361.106 27.0496C361.106 49.6982 373.329 57.787 377.284 57.787V21.4773Z" fill="#8E68CB"/>
<circle cx="377.463" cy="38.9132" r="7.54953" fill="#462083"/>
<circle opacity="0.5" cx="377.316" cy="38.9837" r="9.63673" stroke="#6E48AB" stroke-width="1.47492"/>
<mask id="mask0_630_6357" style="mask-type:alpha" maskUnits="userSpaceOnUse" x="369" y="31" width="17" height="16">
<circle cx="377.463" cy="38.9132" r="7.54953" fill="#D9D9D9"/>
</mask>
<g mask="url(#mask0_630_6357)">
<circle cx="377.464" cy="36.0373" r="3.23551" fill="white"/>
<ellipse cx="377.463" cy="45.7436" rx="7.19003" ry="5.75202" fill="white"/>
</g>
</g>
<g filter="url(#filter1_d_630_6357)">
<rect x="214.872" y="86.4244" width="125.466" height="44.4359" rx="4.49713" fill="#8E68CB"/>
<rect x="248.852" y="95.1373" width="57.5053" height="3.48517" rx="1.74259" fill="white"/>
<rect x="239.268" y="102.979" width="76.6737" height="3.48517" rx="1.74259" fill="white"/>
<rect x="279.347" y="113.434" width="27.0101" height="9.58422" rx="4.79211" fill="white"/>
<rect x="249.59" y="114.172" width="25.5352" height="8.1093" rx="4.05465" stroke="white" stroke-width="1.47492"/>
</g>
</g>
<defs>
<filter id="filter0_d_630_6357" x="172.201" y="-0.441535" width="247.705" height="177.614" filterUnits="userSpaceOnUse" color-interpolation-filters="sRGB">
<feFlood flood-opacity="0" result="BackgroundImageFix"/>
<feColorMatrix in="SourceAlpha" type="matrix" values="0 0 0 0 0 0 0 0 0 0 0 0 0 0 0 0 0 0 127 0" result="hardAlpha"/>
<feOffset dy="2.94983"/>
<feGaussianBlur stdDeviation="5.89966"/>
<feComposite in2="hardAlpha" operator="out"/>
<feColorMatrix type="matrix" values="0 0 0 0 0 0 0 0 0 0 0 0 0 0 0 0 0 0 0.15 0"/>
<feBlend mode="normal" in2="BackgroundImageFix" result="effect1_dropShadow_630_6357"/>
<feBlend mode="normal" in="SourceGraphic" in2="effect1_dropShadow_630_6357" result="shape"/>
</filter>
<filter id="filter1_d_630_6357" x="203.072" y="80.5248" width="149.065" height="68.0346" filterUnits="userSpaceOnUse" color-interpolation-filters="sRGB">
<feFlood flood-opacity="0" result="BackgroundImageFix"/>
<feColorMatrix in="SourceAlpha" type="matrix" values="0 0 0 0 0 0 0 0 0 0 0 0 0 0 0 0 0 0 127 0" result="hardAlpha"/>
<feOffset dy="5.89966"/>
<feGaussianBlur stdDeviation="5.89966"/>
<feComposite in2="hardAlpha" operator="out"/>
<feColorMatrix type="matrix" values="0 0 0 0 0 0 0 0 0 0 0 0 0 0 0 0 0 0 0.25 0"/>
<feBlend mode="normal" in2="BackgroundImageFix" result="effect1_dropShadow_630_6357"/>
<feBlend mode="normal" in="SourceGraphic" in2="effect1_dropShadow_630_6357" result="shape"/>
</filter>
<clipPath id="clip0_630_6357">
<rect width="553" height="158" fill="white"/>
</clipPath>
</defs>
</svg>
