<svg width="100" height="54" viewBox="0 0 100 54" fill="none" xmlns="http://www.w3.org/2000/svg">
<path d="M63.9317 13.3234C66.2918 10.0799 69.5655 7.61954 73.3281 6.26149L75.6635 12.8477C73.2179 13.7304 71.09 15.3296 69.5559 17.4379L63.9317 13.3234Z" fill="#C6C6C6"/>
<path d="M63.8379 36.8348C61.4413 33.5046 60.1295 29.509 60.0815 25.3932C60.0336 21.2774 61.2517 17.2419 63.5698 13.8374L69.3207 17.772C67.8139 19.985 67.0221 22.608 67.0533 25.2833C67.0844 27.9586 67.9371 30.5557 69.4949 32.7203L63.8379 36.8348Z" fill="#F1F1F1"/>
<path d="M91.646 41.2588C87.4474 44.3129 82.2364 45.6115 77.116 44.8797C71.9956 44.1479 67.3678 41.4432 64.2122 37.3381L69.7382 33.0474C71.7893 35.7158 74.7974 37.4738 78.1257 37.9495C81.4539 38.4252 84.8411 37.5811 87.5702 35.5959L91.646 41.2588Z" fill="#959595"/>
<path d="M80.0806 5.0791C84.234 5.0791 88.2783 6.38248 91.6478 8.80693C95.0173 11.2314 97.5435 14.6556 98.8731 18.6008C100.203 22.5459 100.269 26.8145 99.0632 30.8096C97.8572 34.8047 95.4391 38.3264 92.1471 40.8822L87.8959 35.3511C90.0357 33.6899 91.6075 31.4007 92.3914 28.8039C93.1752 26.2071 93.1321 23.4325 92.2678 20.8682C91.4036 18.3039 89.7615 16.0781 87.5713 14.5022C85.3812 12.9263 82.7524 12.0791 80.0527 12.0791L80.0806 5.0791Z" fill="#C7C7C7"/>
<circle cx="72.5" cy="51.7988" r="1.5" fill="#959595"/>
<circle cx="77.5" cy="51.7988" r="1.5" fill="#C7C7C7"/>
<circle cx="82.5" cy="51.7988" r="1.5" fill="#DEDEDE"/>
<circle cx="87.5" cy="51.7988" r="1.5" fill="#F1F1F1"/>
<line x1="0.210075" y1="39.5468" x2="49.7899" y2="39.5468" stroke="#ECE9F1" stroke-width="0.420151" stroke-linecap="round"/>
<line x1="0.210075" y1="27.5458" x2="49.7899" y2="27.5458" stroke="#ECE9F1" stroke-width="0.420151" stroke-linecap="round"/>
<line x1="0.210075" y1="15.5468" x2="49.7899" y2="15.5468" stroke="#ECE9F1" stroke-width="0.420151" stroke-linecap="round"/>
<path opacity="0.08" d="M22.7956 42.0445C19.1012 40.9401 17.4828 37.9767 13.9835 37.5539C10.3644 37.1166 7.55449 48.2929 0 49.3622V51.7573H50V37.3078V31.2458C47.9908 30.8292 46.1011 15.911 41.7417 17.0154C37.3823 18.1199 34.1738 34.923 30.701 29.5114C27.2282 24.0998 26.4901 43.1489 22.7956 42.0445Z" fill="url(#paint0_linear_435_1677)"/>
<path d="M2.3883 1.57831L0.762368 6.05469H0.097826L1.97001 1.14315H2.39842L2.3883 1.57831ZM3.75112 6.05469L2.12181 1.57831L2.11169 1.14315H2.5401L4.41903 6.05469H3.75112ZM3.66679 4.23647V4.76946H0.90742V4.23647H3.66679ZM5.66041 0.873285V6.05469H5.03298V0.873285H5.66041ZM7.34032 0.873285V6.05469H6.71288V0.873285H7.34032ZM12.289 5.21136V2.40477H12.9164V6.05469H12.3193L12.289 5.21136ZM12.407 4.44225L12.6668 4.4355C12.6668 4.67838 12.6409 4.90326 12.5892 5.11016C12.5397 5.31481 12.4588 5.49247 12.3463 5.64314C12.2339 5.79382 12.0866 5.91188 11.9044 5.99734C11.7222 6.08055 11.5007 6.12215 11.2399 6.12215C11.0622 6.12215 10.8992 6.09629 10.7507 6.04457C10.6046 5.99284 10.4786 5.91301 10.3729 5.80506C10.2672 5.69712 10.1851 5.55656 10.1267 5.3834C10.0705 5.21024 10.0423 5.00222 10.0423 4.75934V2.40477H10.6664V4.76608C10.6664 4.93025 10.6844 5.06631 10.7204 5.17425C10.7586 5.27995 10.8092 5.36428 10.8722 5.42725C10.9374 5.48797 11.0094 5.5307 11.0881 5.55544C11.169 5.58018 11.2522 5.59254 11.3377 5.59254C11.6031 5.59254 11.8133 5.54194 11.9685 5.44075C12.1237 5.3373 12.235 5.19899 12.3025 5.02583C12.3722 4.85042 12.407 4.65589 12.407 4.44225ZM15.9929 5.08655C15.9929 4.99659 15.9726 4.91338 15.9321 4.83692C15.8939 4.75821 15.8141 4.68737 15.6926 4.6244C15.5734 4.55919 15.3935 4.50297 15.1529 4.45574C14.9505 4.41301 14.7672 4.36241 14.6031 4.30394C14.4411 4.24547 14.3028 4.17463 14.1881 4.09142C14.0757 4.00821 13.9891 3.91039 13.9284 3.79794C13.8677 3.6855 13.8373 3.55394 13.8373 3.40327C13.8373 3.25934 13.8688 3.12328 13.9318 2.9951C13.997 2.86691 14.0881 2.75334 14.205 2.65439C14.3242 2.55544 14.467 2.47786 14.6334 2.42163C14.7998 2.36541 14.9854 2.3373 15.19 2.3373C15.4824 2.3373 15.732 2.38903 15.9389 2.49247C16.1458 2.59592 16.3043 2.73423 16.4145 2.90739C16.5247 3.0783 16.5798 3.26833 16.5798 3.47748H15.9558C15.9558 3.37628 15.9254 3.27845 15.8647 3.184C15.8062 3.0873 15.7196 3.00747 15.6049 2.9445C15.4925 2.88153 15.3542 2.85004 15.19 2.85004C15.0168 2.85004 14.8763 2.87703 14.7683 2.931C14.6626 2.98273 14.5851 3.04907 14.5356 3.13003C14.4884 3.21099 14.4647 3.29645 14.4647 3.3864C14.4647 3.45387 14.476 3.51459 14.4985 3.56856C14.5232 3.62028 14.5659 3.66863 14.6267 3.71361C14.6874 3.75634 14.7728 3.79682 14.883 3.83505C14.9932 3.87328 15.1338 3.91151 15.3047 3.94974C15.6038 4.01721 15.8501 4.09817 16.0435 4.19262C16.2369 4.28707 16.3808 4.40289 16.4752 4.54007C16.5697 4.67725 16.6169 4.84367 16.6169 5.03932C16.6169 5.19899 16.5832 5.34517 16.5157 5.47785C16.4505 5.61054 16.3549 5.72523 16.229 5.82193C16.1053 5.91638 15.9569 5.99059 15.7837 6.04457C15.6128 6.09629 15.4205 6.12215 15.2069 6.12215C14.8853 6.12215 14.6132 6.06481 14.3905 5.95011C14.1679 5.83542 13.9992 5.687 13.8845 5.50484C13.7698 5.32268 13.7125 5.1304 13.7125 4.928H14.3399C14.3489 5.09892 14.3984 5.23497 14.4884 5.33617C14.5783 5.43512 14.6885 5.50596 14.8189 5.54869C14.9494 5.58917 15.0787 5.60941 15.2069 5.60941C15.3778 5.60941 15.5206 5.58692 15.6353 5.54194C15.7522 5.49697 15.8411 5.43512 15.9018 5.35641C15.9625 5.2777 15.9929 5.18775 15.9929 5.08655ZM18.9512 6.12215C18.6971 6.12215 18.4666 6.07943 18.2597 5.99397C18.0551 5.90626 17.8785 5.7837 17.7301 5.62628C17.5839 5.46886 17.4715 5.2822 17.3928 5.06631C17.3141 4.85042 17.2747 4.61428 17.2747 4.35791V4.21623C17.2747 3.91938 17.3186 3.65514 17.4063 3.42351C17.494 3.18962 17.6132 2.99172 17.7638 2.8298C17.9145 2.66789 18.0854 2.54532 18.2766 2.46211C18.4677 2.37891 18.6656 2.3373 18.8703 2.3373C19.1312 2.3373 19.356 2.38228 19.545 2.47223C19.7361 2.56219 19.8924 2.68813 20.0138 2.85004C20.1353 3.00971 20.2252 3.19862 20.2837 3.41676C20.3422 3.63265 20.3714 3.86878 20.3714 4.12515V4.40514H17.6458V3.89577H19.7473V3.84854C19.7384 3.68662 19.7046 3.5292 19.6462 3.37628C19.5899 3.22336 19.5 3.09742 19.3763 2.99847C19.2526 2.89952 19.0839 2.85004 18.8703 2.85004C18.7286 2.85004 18.5982 2.8804 18.479 2.94112C18.3598 2.99959 18.2575 3.0873 18.172 3.20424C18.0866 3.32118 18.0202 3.46399 17.973 3.63265C17.9258 3.80132 17.9021 3.99584 17.9021 4.21623V4.35791C17.9021 4.53108 17.9258 4.69412 17.973 4.84704C18.0225 4.99772 18.0933 5.1304 18.1855 5.24509C18.28 5.35979 18.3935 5.44974 18.5262 5.51496C18.6611 5.58018 18.8141 5.61278 18.985 5.61278C19.2054 5.61278 19.392 5.56781 19.545 5.47785C19.6979 5.3879 19.8317 5.26758 19.9464 5.11691L20.3242 5.41713C20.2455 5.53632 20.1454 5.64989 20.024 5.75784C19.9025 5.86578 19.753 5.95349 19.5753 6.02095C19.3999 6.08842 19.1919 6.12215 18.9512 6.12215ZM21.7241 2.97823V6.05469H21.1V2.40477H21.7072L21.7241 2.97823ZM22.8643 2.38453L22.8609 2.96474C22.8092 2.95349 22.7597 2.94675 22.7125 2.9445C22.6675 2.94 22.6158 2.93775 22.5573 2.93775C22.4134 2.93775 22.2863 2.96024 22.1761 3.00522C22.0659 3.05019 21.9726 3.11316 21.8961 3.19412C21.8197 3.27508 21.759 3.37178 21.714 3.48423C21.6713 3.59442 21.6431 3.71586 21.6297 3.84854L21.4542 3.94974C21.4542 3.72935 21.4756 3.52246 21.5183 3.32905C21.5633 3.13565 21.6319 2.96474 21.7241 2.81631C21.8163 2.66564 21.9333 2.5487 22.0749 2.46549C22.2189 2.38003 22.3898 2.3373 22.5877 2.3373C22.6327 2.3373 22.6844 2.34292 22.7428 2.35417C22.8013 2.36316 22.8418 2.37328 22.8643 2.38453ZM25.5663 5.08655C25.5663 4.99659 25.5461 4.91338 25.5056 4.83692C25.4674 4.75821 25.3875 4.68737 25.2661 4.6244C25.1469 4.55919 24.967 4.50297 24.7264 4.45574C24.524 4.41301 24.3407 4.36241 24.1765 4.30394C24.0146 4.24547 23.8763 4.17463 23.7616 4.09142C23.6491 4.00821 23.5626 3.91039 23.5018 3.79794C23.4411 3.6855 23.4108 3.55394 23.4108 3.40327C23.4108 3.25934 23.4422 3.12328 23.5052 2.9951C23.5704 2.86691 23.6615 2.75334 23.7785 2.65439C23.8976 2.55544 24.0404 2.47786 24.2069 2.42163C24.3733 2.36541 24.5588 2.3373 24.7635 2.3373C25.0558 2.3373 25.3054 2.38903 25.5123 2.49247C25.7192 2.59592 25.8778 2.73423 25.988 2.90739C26.0982 3.0783 26.1533 3.26833 26.1533 3.47748H25.5292C25.5292 3.37628 25.4988 3.27845 25.4381 3.184C25.3797 3.0873 25.2931 3.00747 25.1784 2.9445C25.0659 2.88153 24.9276 2.85004 24.7635 2.85004C24.5903 2.85004 24.4497 2.87703 24.3418 2.931C24.2361 2.98273 24.1585 3.04907 24.109 3.13003C24.0618 3.21099 24.0382 3.29645 24.0382 3.3864C24.0382 3.45387 24.0494 3.51459 24.0719 3.56856C24.0967 3.62028 24.1394 3.66863 24.2001 3.71361C24.2608 3.75634 24.3463 3.79682 24.4565 3.83505C24.5667 3.87328 24.7072 3.91151 24.8782 3.94974C25.1773 4.01721 25.4235 4.09817 25.6169 4.19262C25.8103 4.28707 25.9542 4.40289 26.0487 4.54007C26.1431 4.67725 26.1904 4.84367 26.1904 5.03932C26.1904 5.19899 26.1566 5.34517 26.0892 5.47785C26.024 5.61054 25.9284 5.72523 25.8024 5.82193C25.6788 5.91638 25.5303 5.99059 25.3572 6.04457C25.1862 6.09629 24.994 6.12215 24.7803 6.12215C24.4587 6.12215 24.1866 6.06481 23.964 5.95011C23.7413 5.83542 23.5727 5.687 23.458 5.50484C23.3433 5.32268 23.286 5.1304 23.286 4.928H23.9134C23.9224 5.09892 23.9719 5.23497 24.0618 5.33617C24.1518 5.43512 24.262 5.50596 24.3924 5.54869C24.5228 5.58917 24.6521 5.60941 24.7803 5.60941C24.9512 5.60941 25.094 5.58692 25.2087 5.54194C25.3257 5.49697 25.4145 5.43512 25.4752 5.35641C25.5359 5.2777 25.5663 5.18775 25.5663 5.08655Z" fill="#B8B8B8"/>
<defs>
<linearGradient id="paint0_linear_435_1677" x1="17.0479" y1="16.957" x2="17.0479" y2="58.2326" gradientUnits="userSpaceOnUse">
<stop stop-color="#4F4F4F"/>
<stop offset="1" stop-color="#4F4F4F" stop-opacity="0"/>
</linearGradient>
</defs>
</svg>
