<svg width="116" height="59" viewBox="0 0 116 59" fill="none" xmlns="http://www.w3.org/2000/svg">
<path d="M86.6606 6.10123C88.6753 5.44484 90.7714 5.07782 92.8863 5.0111L93.1013 12.8822C91.7266 12.9256 90.3642 13.1641 89.0546 13.5908L86.6606 6.10123Z" fill="#DEDEDE"/>
<path d="M75.4227 14.2748C78.0778 10.6259 81.7607 7.85799 85.9936 6.33018L88.621 13.7396C85.8696 14.7327 83.4757 16.5319 81.7499 18.9036L75.4227 14.2748Z" fill="#C6C6C6"/>
<path d="M75.3171 40.7252C72.6209 36.9787 71.1452 32.4837 71.0912 27.8534C71.0373 23.2231 72.4077 18.6832 75.0156 14.8531L81.4853 19.2795C79.7902 21.7691 78.8994 24.72 78.9344 27.7297C78.9695 30.7394 79.9288 33.6612 81.6813 36.0964L75.3171 40.7252Z" fill="#F1F1F1"/>
<path d="M106.601 45.7022C101.878 49.138 96.0154 50.599 90.255 49.7757C84.4946 48.9524 79.2883 45.9096 75.7383 41.2914L81.955 36.4644C84.2625 39.4662 87.6466 41.4441 91.3909 41.9792C95.1352 42.5143 98.9458 41.5647 102.016 39.3314L106.601 45.7022Z" fill="#959595"/>
<path d="M93.5902 5C98.2628 5 102.813 6.4663 106.603 9.19381C110.394 11.9213 113.236 15.7736 114.732 20.2119C116.228 24.6501 116.302 29.4523 114.946 33.9468C113.589 38.4413 110.869 42.4032 107.165 45.2785L102.382 39.056C104.79 37.1871 106.558 34.6118 107.44 31.6904C108.322 28.769 108.273 25.6476 107.301 22.7627C106.329 19.8778 104.481 17.3739 102.017 15.601C99.5533 13.8281 96.5959 12.875 93.5588 12.875L93.5902 5Z" fill="#C7C7C7"/>
<circle cx="83.5" cy="56.8994" r="1.5" fill="#959595"/>
<circle cx="90.5" cy="56.8994" r="1.5" fill="#C7C7C7"/>
<circle cx="97.5" cy="56.8994" r="1.5" fill="#DEDEDE"/>
<circle cx="104.5" cy="56.8994" r="1.5" fill="#F1F1F1"/>
<line x1="0.468284" y1="58.5307" x2="55.5317" y2="58.5307" stroke="#ECE9F1" stroke-width="0.936568" stroke-linecap="round"/>
<line x1="0.234142" y1="44.7649" x2="55.7658" y2="44.7649" stroke="#ECE9F1" stroke-width="0.468284" stroke-linecap="round"/>
<line x1="0.234142" y1="30.7649" x2="55.7658" y2="30.7649" stroke="#ECE9F1" stroke-width="0.468284" stroke-linecap="round"/>
<line x1="0.234142" y1="16.7659" x2="55.7658" y2="16.7659" stroke="#ECE9F1" stroke-width="0.468284" stroke-linecap="round"/>
<path opacity="0.08" d="M25.5311 47.6679C21.3934 46.3795 19.5807 42.9221 15.6616 42.4289C11.6081 41.9187 8.46103 54.9576 0 56.2052V58.9994H56V42.1418V35.0695C53.7497 34.5835 51.6333 17.1791 46.7507 18.4676C41.8681 19.756 38.2746 39.3596 34.3851 33.046C30.4956 26.7325 29.6689 48.9564 25.5311 47.6679Z" fill="url(#paint0_linear_435_1677)"/>
<path d="M2.76562 1.11621L0.882812 6.2998H0.113281L2.28125 0.612305H2.77734L2.76562 1.11621ZM4.34375 6.2998L2.45703 1.11621L2.44531 0.612305H2.94141L5.11719 6.2998H4.34375ZM4.24609 4.19434V4.81152H1.05078V4.19434H4.24609ZM6.55469 0.299805V6.2998H5.82812V0.299805H6.55469ZM8.5 0.299805V6.2998H7.77344V0.299805H8.5ZM14.2305 5.32324V2.07324H14.957V6.2998H14.2656L14.2305 5.32324ZM14.3672 4.43262L14.668 4.4248C14.668 4.70605 14.638 4.96647 14.5781 5.20605C14.5208 5.44303 14.4271 5.64876 14.2969 5.82324C14.1667 5.99772 13.9961 6.13444 13.7852 6.2334C13.5742 6.32975 13.3177 6.37793 13.0156 6.37793C12.8099 6.37793 12.6211 6.34798 12.4492 6.28809C12.2799 6.22819 12.1341 6.13574 12.0117 6.01074C11.8893 5.88574 11.7943 5.72298 11.7266 5.52246C11.6615 5.32194 11.6289 5.08105 11.6289 4.7998V2.07324H12.3516V4.80762C12.3516 4.99772 12.3724 5.15527 12.4141 5.28027C12.4583 5.40267 12.5169 5.50033 12.5898 5.57324C12.6654 5.64355 12.7487 5.69303 12.8398 5.72168C12.9336 5.75033 13.0299 5.76465 13.1289 5.76465C13.4362 5.76465 13.6797 5.70605 13.8594 5.58887C14.0391 5.46908 14.168 5.30892 14.2461 5.1084C14.3268 4.90527 14.3672 4.68001 14.3672 4.43262ZM18.5195 5.17871C18.5195 5.07454 18.4961 4.97819 18.4492 4.88965C18.4049 4.7985 18.3125 4.71647 18.1719 4.64355C18.0339 4.56803 17.8255 4.50293 17.5469 4.44824C17.3125 4.39876 17.1003 4.34017 16.9102 4.27246C16.7227 4.20475 16.5625 4.12272 16.4297 4.02637C16.2995 3.93001 16.1992 3.81673 16.1289 3.68652C16.0586 3.55632 16.0234 3.40397 16.0234 3.22949C16.0234 3.06283 16.0599 2.90527 16.1328 2.75684C16.2083 2.6084 16.3138 2.47689 16.4492 2.3623C16.5872 2.24772 16.7526 2.15788 16.9453 2.09277C17.138 2.02767 17.3529 1.99512 17.5898 1.99512C17.9284 1.99512 18.2174 2.05501 18.457 2.1748C18.6966 2.2946 18.8802 2.45475 19.0078 2.65527C19.1354 2.85319 19.1992 3.07324 19.1992 3.31543H18.4766C18.4766 3.19824 18.4414 3.08496 18.3711 2.97559C18.3034 2.86361 18.2031 2.77116 18.0703 2.69824C17.9401 2.62533 17.7799 2.58887 17.5898 2.58887C17.3893 2.58887 17.2266 2.62012 17.1016 2.68262C16.9792 2.74251 16.8893 2.81934 16.832 2.91309C16.7773 3.00684 16.75 3.10579 16.75 3.20996C16.75 3.28809 16.763 3.3584 16.7891 3.4209C16.8177 3.48079 16.8672 3.53678 16.9375 3.58887C17.0078 3.63835 17.1068 3.68522 17.2344 3.72949C17.362 3.77376 17.5247 3.81803 17.7227 3.8623C18.069 3.94043 18.3542 4.03418 18.5781 4.14355C18.8021 4.25293 18.9688 4.38704 19.0781 4.5459C19.1875 4.70475 19.2422 4.89746 19.2422 5.12402C19.2422 5.30892 19.2031 5.47819 19.125 5.63184C19.0495 5.78548 18.9388 5.91829 18.793 6.03027C18.6497 6.13965 18.4779 6.22559 18.2773 6.28809C18.0794 6.34798 17.8568 6.37793 17.6094 6.37793C17.237 6.37793 16.9219 6.31152 16.6641 6.17871C16.4062 6.0459 16.2109 5.87402 16.0781 5.66309C15.9453 5.45215 15.8789 5.22949 15.8789 4.99512H16.6055C16.6159 5.19303 16.6732 5.35059 16.7773 5.46777C16.8815 5.58236 17.0091 5.66439 17.1602 5.71387C17.3112 5.76074 17.4609 5.78418 17.6094 5.78418C17.8073 5.78418 17.9727 5.75814 18.1055 5.70605C18.2409 5.65397 18.3438 5.58236 18.4141 5.49121C18.4844 5.40007 18.5195 5.2959 18.5195 5.17871ZM21.9453 6.37793C21.651 6.37793 21.3841 6.32845 21.1445 6.22949C20.9076 6.12793 20.7031 5.986 20.5312 5.80371C20.362 5.62142 20.2318 5.40527 20.1406 5.15527C20.0495 4.90527 20.0039 4.63184 20.0039 4.33496V4.1709C20.0039 3.82715 20.0547 3.52116 20.1562 3.25293C20.2578 2.9821 20.3958 2.75293 20.5703 2.56543C20.7448 2.37793 20.9427 2.236 21.1641 2.13965C21.3854 2.04329 21.6146 1.99512 21.8516 1.99512C22.1536 1.99512 22.4141 2.0472 22.6328 2.15137C22.8542 2.25553 23.0352 2.40137 23.1758 2.58887C23.3164 2.77376 23.4206 2.99251 23.4883 3.24512C23.556 3.49512 23.5898 3.76855 23.5898 4.06543V4.38965H20.4336V3.7998H22.8672V3.74512C22.8568 3.55762 22.8177 3.37533 22.75 3.19824C22.6849 3.02116 22.5807 2.87533 22.4375 2.76074C22.2943 2.64616 22.099 2.58887 21.8516 2.58887C21.6875 2.58887 21.5365 2.62402 21.3984 2.69434C21.2604 2.76204 21.1419 2.86361 21.043 2.99902C20.944 3.13444 20.8672 3.2998 20.8125 3.49512C20.7578 3.69043 20.7305 3.91569 20.7305 4.1709V4.33496C20.7305 4.53548 20.7578 4.72428 20.8125 4.90137C20.8698 5.07585 20.9518 5.22949 21.0586 5.3623C21.168 5.49512 21.2995 5.59928 21.4531 5.6748C21.6094 5.75033 21.7865 5.78809 21.9844 5.78809C22.2396 5.78809 22.4557 5.736 22.6328 5.63184C22.8099 5.52767 22.9648 5.38835 23.0977 5.21387L23.5352 5.56152C23.444 5.69954 23.3281 5.83105 23.1875 5.95605C23.0469 6.08105 22.8737 6.18262 22.668 6.26074C22.4648 6.33887 22.224 6.37793 21.9453 6.37793ZM25.1562 2.7373V6.2998H24.4336V2.07324H25.1367L25.1562 2.7373ZM26.4766 2.0498L26.4727 2.72168C26.4128 2.70866 26.3555 2.70085 26.3008 2.69824C26.2487 2.69303 26.1888 2.69043 26.1211 2.69043C25.9544 2.69043 25.8073 2.71647 25.6797 2.76855C25.5521 2.82064 25.444 2.89355 25.3555 2.9873C25.2669 3.08105 25.1966 3.19303 25.1445 3.32324C25.0951 3.45085 25.0625 3.59147 25.0469 3.74512L24.8438 3.8623C24.8438 3.6071 24.8685 3.36751 24.918 3.14355C24.9701 2.9196 25.0495 2.72168 25.1562 2.5498C25.263 2.37533 25.3984 2.23991 25.5625 2.14355C25.7292 2.0446 25.9271 1.99512 26.1562 1.99512C26.2083 1.99512 26.2682 2.00163 26.3359 2.01465C26.4036 2.02507 26.4505 2.03678 26.4766 2.0498ZM29.6055 5.17871C29.6055 5.07454 29.582 4.97819 29.5352 4.88965C29.4909 4.7985 29.3984 4.71647 29.2578 4.64355C29.1198 4.56803 28.9115 4.50293 28.6328 4.44824C28.3984 4.39876 28.1862 4.34017 27.9961 4.27246C27.8086 4.20475 27.6484 4.12272 27.5156 4.02637C27.3854 3.93001 27.2852 3.81673 27.2148 3.68652C27.1445 3.55632 27.1094 3.40397 27.1094 3.22949C27.1094 3.06283 27.1458 2.90527 27.2188 2.75684C27.2943 2.6084 27.3997 2.47689 27.5352 2.3623C27.6732 2.24772 27.8385 2.15788 28.0312 2.09277C28.224 2.02767 28.4388 1.99512 28.6758 1.99512C29.0143 1.99512 29.3034 2.05501 29.543 2.1748C29.7826 2.2946 29.9661 2.45475 30.0938 2.65527C30.2214 2.85319 30.2852 3.07324 30.2852 3.31543H29.5625C29.5625 3.19824 29.5273 3.08496 29.457 2.97559C29.3893 2.86361 29.2891 2.77116 29.1562 2.69824C29.026 2.62533 28.8659 2.58887 28.6758 2.58887C28.4753 2.58887 28.3125 2.62012 28.1875 2.68262C28.0651 2.74251 27.9753 2.81934 27.918 2.91309C27.8633 3.00684 27.8359 3.10579 27.8359 3.20996C27.8359 3.28809 27.849 3.3584 27.875 3.4209C27.9036 3.48079 27.9531 3.53678 28.0234 3.58887C28.0938 3.63835 28.1927 3.68522 28.3203 3.72949C28.4479 3.77376 28.6107 3.81803 28.8086 3.8623C29.1549 3.94043 29.4401 4.03418 29.6641 4.14355C29.888 4.25293 30.0547 4.38704 30.1641 4.5459C30.2734 4.70475 30.3281 4.89746 30.3281 5.12402C30.3281 5.30892 30.2891 5.47819 30.2109 5.63184C30.1354 5.78548 30.0247 5.91829 29.8789 6.03027C29.7357 6.13965 29.5638 6.22559 29.3633 6.28809C29.1654 6.34798 28.9427 6.37793 28.6953 6.37793C28.3229 6.37793 28.0078 6.31152 27.75 6.17871C27.4922 6.0459 27.2969 5.87402 27.1641 5.66309C27.0312 5.45215 26.9648 5.22949 26.9648 4.99512H27.6914C27.7018 5.19303 27.7591 5.35059 27.8633 5.46777C27.9674 5.58236 28.0951 5.66439 28.2461 5.71387C28.3971 5.76074 28.5469 5.78418 28.6953 5.78418C28.8932 5.78418 29.0586 5.75814 29.1914 5.70605C29.3268 5.65397 29.4297 5.58236 29.5 5.49121C29.5703 5.40007 29.6055 5.2959 29.6055 5.17871Z" fill="#B8B8B8"/>
<defs>
<linearGradient id="paint0_linear_435_1677" x1="19.0936" y1="18.3994" x2="19.0936" y2="66.5539" gradientUnits="userSpaceOnUse">
<stop stop-color="#4F4F4F"/>
<stop offset="1" stop-color="#4F4F4F" stop-opacity="0"/>
</linearGradient>
</defs>
</svg>
