<svg width="117" height="70" viewBox="0 0 117 70" fill="none" xmlns="http://www.w3.org/2000/svg">
<path d="M96.9102 4.8125L98.25 0.3125H99.5547L97.5742 6H96.7148L96.9102 4.8125ZM95.6758 0.3125L97.0117 4.8125L97.2148 6H96.3477L94.3789 0.3125H95.6758ZM101.203 1.77344V6H100.074V1.77344H101.203ZM100.004 0.671875C100.004 0.507812 100.061 0.372396 100.176 0.265625C100.29 0.158854 100.444 0.105469 100.637 0.105469C100.827 0.105469 100.979 0.158854 101.094 0.265625C101.211 0.372396 101.27 0.507812 101.27 0.671875C101.27 0.835938 101.211 0.971354 101.094 1.07812C100.979 1.1849 100.827 1.23828 100.637 1.23828C100.444 1.23828 100.29 1.1849 100.176 1.07812C100.061 0.971354 100.004 0.835938 100.004 0.671875ZM104.078 6.07812C103.75 6.07812 103.456 6.02604 103.195 5.92188C102.935 5.8151 102.714 5.66797 102.531 5.48047C102.352 5.29297 102.214 5.07552 102.117 4.82812C102.021 4.57812 101.973 4.3125 101.973 4.03125V3.875C101.973 3.55469 102.018 3.26172 102.109 2.99609C102.201 2.73047 102.331 2.5 102.5 2.30469C102.672 2.10938 102.88 1.95964 103.125 1.85547C103.37 1.7487 103.646 1.69531 103.953 1.69531C104.253 1.69531 104.518 1.74479 104.75 1.84375C104.982 1.94271 105.176 2.08333 105.332 2.26562C105.491 2.44792 105.611 2.66667 105.691 2.92188C105.772 3.17448 105.812 3.45573 105.812 3.76562V4.23438H102.453V3.48438H104.707V3.39844C104.707 3.24219 104.678 3.10286 104.621 2.98047C104.566 2.85547 104.483 2.75651 104.371 2.68359C104.259 2.61068 104.116 2.57422 103.941 2.57422C103.793 2.57422 103.665 2.60677 103.559 2.67188C103.452 2.73698 103.365 2.82812 103.297 2.94531C103.232 3.0625 103.182 3.20052 103.148 3.35938C103.117 3.51562 103.102 3.6875 103.102 3.875V4.03125C103.102 4.20052 103.125 4.35677 103.172 4.5C103.221 4.64323 103.29 4.76693 103.379 4.87109C103.47 4.97526 103.579 5.05599 103.707 5.11328C103.837 5.17057 103.984 5.19922 104.148 5.19922C104.352 5.19922 104.54 5.16016 104.715 5.08203C104.892 5.0013 105.044 4.88021 105.172 4.71875L105.719 5.3125C105.63 5.4401 105.509 5.5625 105.355 5.67969C105.204 5.79688 105.022 5.89323 104.809 5.96875C104.595 6.04167 104.352 6.07812 104.078 6.07812ZM107.66 4.90625L108.539 1.77344H109.254L109.023 3.00391L108.145 6H107.547L107.66 4.90625ZM107.215 1.77344L107.844 4.90234L107.902 6H107.199L106.129 1.77344H107.215ZM110.059 4.85156L110.672 1.77344H111.762L110.691 6H109.992L110.059 4.85156ZM109.352 1.77344L110.227 4.88281L110.348 6H109.746L108.867 3.00781L108.645 1.77344H109.352ZM114.613 4.83203C114.613 4.7513 114.59 4.67839 114.543 4.61328C114.496 4.54818 114.409 4.48828 114.281 4.43359C114.156 4.3763 113.975 4.32422 113.738 4.27734C113.525 4.23047 113.326 4.17188 113.141 4.10156C112.958 4.02865 112.799 3.94141 112.664 3.83984C112.531 3.73828 112.427 3.61849 112.352 3.48047C112.276 3.33984 112.238 3.17969 112.238 3C112.238 2.82292 112.276 2.65625 112.352 2.5C112.43 2.34375 112.54 2.20573 112.684 2.08594C112.829 1.96354 113.007 1.86849 113.215 1.80078C113.426 1.73047 113.663 1.69531 113.926 1.69531C114.293 1.69531 114.608 1.75391 114.871 1.87109C115.137 1.98828 115.34 2.14974 115.48 2.35547C115.624 2.55859 115.695 2.79036 115.695 3.05078H114.57C114.57 2.94141 114.547 2.84375 114.5 2.75781C114.456 2.66927 114.385 2.60026 114.289 2.55078C114.195 2.4987 114.073 2.47266 113.922 2.47266C113.797 2.47266 113.689 2.49479 113.598 2.53906C113.507 2.58073 113.436 2.63802 113.387 2.71094C113.34 2.78125 113.316 2.85938 113.316 2.94531C113.316 3.01042 113.329 3.06901 113.355 3.12109C113.384 3.17057 113.43 3.21615 113.492 3.25781C113.555 3.29948 113.635 3.33854 113.734 3.375C113.836 3.40885 113.961 3.4401 114.109 3.46875C114.414 3.53125 114.686 3.61328 114.926 3.71484C115.165 3.8138 115.355 3.94922 115.496 4.12109C115.637 4.29036 115.707 4.51302 115.707 4.78906C115.707 4.97656 115.665 5.14844 115.582 5.30469C115.499 5.46094 115.379 5.59766 115.223 5.71484C115.066 5.82943 114.879 5.91927 114.66 5.98438C114.444 6.04688 114.201 6.07812 113.93 6.07812C113.536 6.07812 113.203 6.00781 112.93 5.86719C112.659 5.72656 112.453 5.54818 112.312 5.33203C112.174 5.11328 112.105 4.88932 112.105 4.66016H113.172C113.177 4.8138 113.216 4.9375 113.289 5.03125C113.365 5.125 113.46 5.19271 113.574 5.23438C113.691 5.27604 113.818 5.29688 113.953 5.29688C114.099 5.29688 114.22 5.27734 114.316 5.23828C114.413 5.19661 114.486 5.14193 114.535 5.07422C114.587 5.00391 114.613 4.92318 114.613 4.83203Z" fill="#C7C7C7"/>
<rect x="103" y="18.5996" width="13.3" height="4.2" rx="2.1" fill="#C7C7C7"/>
<rect x="107" y="33" width="9.1" height="4.2" rx="2.1" fill="#C7C7C7"/>
<rect x="107" y="47" width="9.1" height="4.2" rx="2.1" fill="#C7C7C7"/>
<rect x="110" y="61" width="5.6" height="4.2" rx="2.1" fill="#C7C7C7"/>
<path d="M2.84766 17.9814V23.7002H2.125V18.8838L0.667969 19.415V18.7627L2.73438 17.9814H2.84766ZM4.19922 37.1064V37.7002H0.476562V37.1807L2.33984 35.1064C2.56901 34.8512 2.74609 34.6351 2.87109 34.458C2.9987 34.2783 3.08724 34.1182 3.13672 33.9775C3.1888 33.8343 3.21484 33.6885 3.21484 33.54C3.21484 33.3525 3.17578 33.1833 3.09766 33.0322C3.02214 32.8786 2.91016 32.7562 2.76172 32.665C2.61328 32.5739 2.43359 32.5283 2.22266 32.5283C1.97005 32.5283 1.75911 32.5778 1.58984 32.6768C1.42318 32.7731 1.29818 32.9085 1.21484 33.083C1.13151 33.2575 1.08984 33.458 1.08984 33.6846H0.367188C0.367188 33.3643 0.4375 33.0713 0.578125 32.8057C0.71875 32.54 0.927083 32.3291 1.20312 32.1729C1.47917 32.014 1.81901 31.9346 2.22266 31.9346C2.58203 31.9346 2.88932 31.9984 3.14453 32.126C3.39974 32.251 3.59505 32.4281 3.73047 32.6572C3.86849 32.8838 3.9375 33.1494 3.9375 33.4541C3.9375 33.6208 3.90885 33.79 3.85156 33.9619C3.79688 34.1312 3.72005 34.3005 3.62109 34.4697C3.52474 34.639 3.41146 34.8057 3.28125 34.9697C3.15365 35.1338 3.01693 35.2952 2.87109 35.4541L1.34766 37.1064H4.19922ZM1.52734 48.501H2.04297C2.29557 48.501 2.50391 48.4593 2.66797 48.376C2.83464 48.29 2.95833 48.1742 3.03906 48.0283C3.1224 47.8799 3.16406 47.7132 3.16406 47.5283C3.16406 47.3096 3.1276 47.126 3.05469 46.9775C2.98177 46.8291 2.8724 46.7171 2.72656 46.6416C2.58073 46.5661 2.39583 46.5283 2.17188 46.5283C1.96875 46.5283 1.78906 46.5687 1.63281 46.6494C1.47917 46.7275 1.35807 46.8395 1.26953 46.9854C1.18359 47.1312 1.14062 47.3031 1.14062 47.501H0.417969C0.417969 47.2119 0.490885 46.9489 0.636719 46.7119C0.782552 46.4749 0.986979 46.2861 1.25 46.1455C1.51562 46.0049 1.82292 45.9346 2.17188 45.9346C2.51562 45.9346 2.81641 45.9958 3.07422 46.1182C3.33203 46.238 3.53255 46.4176 3.67578 46.6572C3.81901 46.8942 3.89062 47.1898 3.89062 47.5439C3.89062 47.6872 3.85677 47.8408 3.78906 48.0049C3.72396 48.1663 3.62109 48.3174 3.48047 48.458C3.34245 48.5986 3.16276 48.7145 2.94141 48.8057C2.72005 48.8942 2.45443 48.9385 2.14453 48.9385H1.52734V48.501ZM1.52734 49.0947V48.6611H2.14453C2.50651 48.6611 2.80599 48.7041 3.04297 48.79C3.27995 48.876 3.46615 48.9906 3.60156 49.1338C3.73958 49.277 3.83594 49.4346 3.89062 49.6064C3.94792 49.7757 3.97656 49.945 3.97656 50.1143C3.97656 50.3799 3.93099 50.6156 3.83984 50.8213C3.7513 51.027 3.625 51.2015 3.46094 51.3447C3.29948 51.488 3.10938 51.596 2.89062 51.6689C2.67188 51.7419 2.43359 51.7783 2.17578 51.7783C1.92839 51.7783 1.69531 51.7432 1.47656 51.6729C1.26042 51.6025 1.06901 51.501 0.902344 51.3682C0.735677 51.2327 0.605469 51.0674 0.511719 50.8721C0.417969 50.6742 0.371094 50.4489 0.371094 50.1963H1.09375C1.09375 50.3942 1.13672 50.5674 1.22266 50.7158C1.3112 50.8643 1.4362 50.9801 1.59766 51.0635C1.76172 51.1442 1.95443 51.1846 2.17578 51.1846C2.39714 51.1846 2.58724 51.1468 2.74609 51.0713C2.90755 50.9932 3.03125 50.876 3.11719 50.7197C3.20573 50.5635 3.25 50.3669 3.25 50.1299C3.25 49.8929 3.20052 49.6989 3.10156 49.5479C3.0026 49.3942 2.86198 49.2809 2.67969 49.208C2.5 49.1325 2.28776 49.0947 2.04297 49.0947H1.52734ZM4.31641 63.7861V64.3799H0.207031V63.9541L2.75391 60.0127H3.34375L2.71094 61.1533L1.02734 63.7861H4.31641ZM3.52344 60.0127V65.7002H2.80078V60.0127H3.52344Z" fill="#C7C7C7"/>
<rect x="9.7998" y="18.5996" width="48.3" height="4.2" rx="2.1" fill="#C7C7C7"/>
<rect x="9.7998" y="33" width="72.8" height="4.2" rx="2.1" fill="#C7C7C7"/>
<rect x="9.7998" y="47" width="42" height="4.2" rx="2.1" fill="#C7C7C7"/>
<rect x="9.7998" y="61" width="55.3" height="4.2" rx="2.1" fill="#C7C7C7"/>
</svg>
