<svg width="348" height="163" viewBox="0 0 348 163" fill="none" xmlns="http://www.w3.org/2000/svg">
<g clip-path="url(#clip0_623_10575)">
<path d="M0 16C0 7.16344 7.16344 0 16 0H332C340.837 0 348 7.16344 348 16V163H0V16Z" fill="#B8E6CA"/>
<g filter="url(#filter0_d_623_10575)">
<path d="M75.3516 82.7741C75.3516 79.7283 77.0149 76.9256 79.6885 75.4666L167.619 27.4819C171.596 25.3117 176.403 25.3117 180.38 27.4819L268.311 75.4666C270.985 76.9256 272.648 79.7283 272.648 82.7741V177.175C272.648 181.773 268.921 185.5 264.323 185.5H83.6763C79.0787 185.5 75.3516 181.773 75.3516 177.175V82.7741Z" fill="#EBEEF0"/>
</g>
<g filter="url(#filter1_d_623_10575)">
<rect x="66.4668" y="-1.39255" width="88" height="57" rx="9.0748" transform="rotate(-38.6496 66.4668 -1.39255)" fill="white"/>
</g>
<rect x="84.4629" y="0.296783" width="61" height="6.76271" rx="3.29993" transform="rotate(-38.6496 84.4629 0.296783)" fill="#EBEEF0"/>
<rect x="93.2012" y="10.9046" width="41.2491" height="15.9403" rx="7.97017" transform="rotate(-38.6496 93.2012 10.9046)" fill="#B8E6CA"/>
<path d="M105.805 14.774L106.771 7.27269M106.771 7.27269L103.383 9.90713M106.771 7.27269L109.407 10.4726" stroke="white" stroke-width="1.23747" stroke-linecap="round" stroke-linejoin="round"/>
<rect x="110.861" y="3.92621" width="16.4996" height="4.7821" rx="1.64996" transform="rotate(-38.6496 110.861 3.92621)" fill="white"/>
<g filter="url(#filter2_d_623_10575)">
<rect x="171.227" y="1.98294" width="87" height="57" rx="9.0748" transform="rotate(5.072 171.227 1.98294)" fill="white"/>
</g>
<rect x="183.025" y="16.0813" width="52" height="7" rx="3.29993" transform="rotate(5.072 183.025 16.0813)" fill="#EBEEF0"/>
<rect x="181.969" y="30.2677" width="41.2491" height="16.4996" rx="8.24982" transform="rotate(5.072 181.969 30.2677)" fill="#FFDED3"/>
<path d="M188.852 36.6762L193.789 42.5753M193.789 42.5753L194.229 38.3063M193.789 42.5753L189.509 42.2561" stroke="white" stroke-width="1.23747" stroke-linecap="round" stroke-linejoin="round"/>
<rect x="199.535" y="37.6246" width="16.4996" height="4.94989" rx="1.64996" transform="rotate(5.072 199.535 37.6246)" fill="white"/>
<g filter="url(#filter3_d_623_10575)">
<rect x="168.918" y="77.0781" width="87" height="57" rx="9.0748" transform="rotate(21.428 168.918 77.0781)" fill="white"/>
</g>
<rect x="176.383" y="94.1872" width="20.6246" height="6.59986" rx="3.29993" transform="rotate(21.428 176.383 94.1872)" fill="#EBEEF0"/>
<rect x="171.26" y="107.243" width="41.2491" height="16.4996" rx="8.24982" transform="rotate(21.428 171.26 107.243)" fill="#FFDED3"/>
<path d="M176.06 115.331L179.136 122.381M179.136 122.381L180.76 118.409M179.136 122.381L175.12 120.87" stroke="white" stroke-width="1.23747" stroke-linecap="round" stroke-linejoin="round"/>
<rect x="186.045" y="119.249" width="16.4996" height="4.94989" rx="1.64996" transform="rotate(21.428 186.045 119.249)" fill="white"/>
<g filter="url(#filter4_d_623_10575)">
<rect x="101.674" y="57.5651" width="88" height="57" rx="9.0748" transform="rotate(-9.32483 101.674 57.5651)" fill="white"/>
</g>
<rect x="116.609" y="68.2869" width="41" height="7" rx="3.29993" transform="rotate(-9.32483 116.609 68.2869)" fill="#EBEEF0"/>
<rect x="119.109" y="82.291" width="41.2491" height="16.4996" rx="8.24982" transform="rotate(-9.32483 119.109 82.291)" fill="#B8E6CA"/>
<path d="M128.264 92.2137L132.75 85.9648M132.75 85.9648L128.506 86.6004M132.75 85.9648L133.505 90.1894" stroke="white" stroke-width="1.23747" stroke-linecap="round" stroke-linejoin="round"/>
<rect x="137.955" y="85.0487" width="16.4996" height="4.94989" rx="1.64996" transform="rotate(-9.32483 137.955 85.0487)" fill="white"/>
<g filter="url(#filter5_d_623_10575)">
<path d="M75.3516 82.6471C75.3516 80.6792 77.5217 79.4844 79.1846 80.5368L169.548 137.729C172.266 139.449 175.733 139.449 178.452 137.729L268.815 80.5368C270.478 79.4844 272.648 80.6792 272.648 82.6471V177.175C272.648 181.773 268.921 185.5 264.323 185.5H83.6763C79.0787 185.5 75.3516 181.773 75.3516 177.175V82.6471Z" fill="white"/>
</g>
<path d="M78.6816 183.003L143.615 120.567" stroke="#EBEEF0" stroke-opacity="0.75" stroke-width="2.49742"/>
<path d="M269.318 183.003L204.385 120.567" stroke="#EBEEF0" stroke-opacity="0.75" stroke-width="2.49742"/>
</g>
<defs>
<filter id="filter0_d_623_10575" x="59.3516" y="17.8542" width="229.297" height="191.646" filterUnits="userSpaceOnUse" color-interpolation-filters="sRGB">
<feFlood flood-opacity="0" result="BackgroundImageFix"/>
<feColorMatrix in="SourceAlpha" type="matrix" values="0 0 0 0 0 0 0 0 0 0 0 0 0 0 0 0 0 0 127 0" result="hardAlpha"/>
<feOffset dy="8"/>
<feGaussianBlur stdDeviation="8"/>
<feComposite in2="hardAlpha" operator="out"/>
<feColorMatrix type="matrix" values="0 0 0 0 0.193775 0 0 0 0 0.34389 0 0 0 0 0.252153 0 0 0 0.2 0"/>
<feBlend mode="normal" in2="BackgroundImageFix" result="effect1_dropShadow_623_10575"/>
<feBlend mode="normal" in="SourceGraphic" in2="effect1_dropShadow_623_10575" result="shape"/>
</filter>
<filter id="filter1_d_623_10575" x="56.9468" y="-62.5735" width="123.366" height="118.517" filterUnits="userSpaceOnUse" color-interpolation-filters="sRGB">
<feFlood flood-opacity="0" result="BackgroundImageFix"/>
<feColorMatrix in="SourceAlpha" type="matrix" values="0 0 0 0 0 0 0 0 0 0 0 0 0 0 0 0 0 0 127 0" result="hardAlpha"/>
<feOffset dy="3.29993"/>
<feGaussianBlur stdDeviation="6.59986"/>
<feComposite in2="hardAlpha" operator="out"/>
<feColorMatrix type="matrix" values="0 0 0 0 0 0 0 0 0 0 0 0 0 0 0 0 0 0 0.15 0"/>
<feBlend mode="normal" in2="BackgroundImageFix" result="effect1_dropShadow_623_10575"/>
<feBlend mode="normal" in="SourceGraphic" in2="effect1_dropShadow_623_10575" result="shape"/>
</filter>
<filter id="filter2_d_623_10575" x="153.753" y="-7.15067" width="116.565" height="89.3353" filterUnits="userSpaceOnUse" color-interpolation-filters="sRGB">
<feFlood flood-opacity="0" result="BackgroundImageFix"/>
<feColorMatrix in="SourceAlpha" type="matrix" values="0 0 0 0 0 0 0 0 0 0 0 0 0 0 0 0 0 0 127 0" result="hardAlpha"/>
<feOffset dy="3.29993"/>
<feGaussianBlur stdDeviation="6.59986"/>
<feComposite in2="hardAlpha" operator="out"/>
<feColorMatrix type="matrix" values="0 0 0 0 0 0 0 0 0 0 0 0 0 0 0 0 0 0 0.15 0"/>
<feBlend mode="normal" in2="BackgroundImageFix" result="effect1_dropShadow_623_10575"/>
<feBlend mode="normal" in="SourceGraphic" in2="effect1_dropShadow_623_10575" result="shape"/>
</filter>
<filter id="filter3_d_623_10575" x="137.58" y="69.8639" width="122.839" height="105.872" filterUnits="userSpaceOnUse" color-interpolation-filters="sRGB">
<feFlood flood-opacity="0" result="BackgroundImageFix"/>
<feColorMatrix in="SourceAlpha" type="matrix" values="0 0 0 0 0 0 0 0 0 0 0 0 0 0 0 0 0 0 127 0" result="hardAlpha"/>
<feOffset dy="3.29993"/>
<feGaussianBlur stdDeviation="6.59986"/>
<feComposite in2="hardAlpha" operator="out"/>
<feColorMatrix type="matrix" values="0 0 0 0 0 0 0 0 0 0 0 0 0 0 0 0 0 0 0.15 0"/>
<feBlend mode="normal" in2="BackgroundImageFix" result="effect1_dropShadow_623_10575"/>
<feBlend mode="normal" in="SourceGraphic" in2="effect1_dropShadow_623_10575" result="shape"/>
</filter>
<filter id="filter4_d_623_10575" x="89.8237" y="34.7556" width="119.774" height="94.2068" filterUnits="userSpaceOnUse" color-interpolation-filters="sRGB">
<feFlood flood-opacity="0" result="BackgroundImageFix"/>
<feColorMatrix in="SourceAlpha" type="matrix" values="0 0 0 0 0 0 0 0 0 0 0 0 0 0 0 0 0 0 127 0" result="hardAlpha"/>
<feOffset dy="3.29993"/>
<feGaussianBlur stdDeviation="6.59986"/>
<feComposite in2="hardAlpha" operator="out"/>
<feColorMatrix type="matrix" values="0 0 0 0 0 0 0 0 0 0 0 0 0 0 0 0 0 0 0.15 0"/>
<feBlend mode="normal" in2="BackgroundImageFix" result="effect1_dropShadow_623_10575"/>
<feBlend mode="normal" in="SourceGraphic" in2="effect1_dropShadow_623_10575" result="shape"/>
</filter>
<filter id="filter5_d_623_10575" x="62.032" y="63.4961" width="223.936" height="131.994" filterUnits="userSpaceOnUse" color-interpolation-filters="sRGB">
<feFlood flood-opacity="0" result="BackgroundImageFix"/>
<feColorMatrix in="SourceAlpha" type="matrix" values="0 0 0 0 0 0 0 0 0 0 0 0 0 0 0 0 0 0 127 0" result="hardAlpha"/>
<feOffset dy="-3.3299"/>
<feGaussianBlur stdDeviation="6.65979"/>
<feComposite in2="hardAlpha" operator="out"/>
<feColorMatrix type="matrix" values="0 0 0 0 0 0 0 0 0 0 0 0 0 0 0 0 0 0 0.05 0"/>
<feBlend mode="normal" in2="BackgroundImageFix" result="effect1_dropShadow_623_10575"/>
<feBlend mode="normal" in="SourceGraphic" in2="effect1_dropShadow_623_10575" result="shape"/>
</filter>
<clipPath id="clip0_623_10575">
<path d="M0 16C0 7.16344 7.16344 0 16 0H332C340.837 0 348 7.16344 348 16V163H0V16Z" fill="white"/>
</clipPath>
</defs>
</svg>
