<svg width="343" height="140" viewBox="0 0 343 140" fill="none" xmlns="http://www.w3.org/2000/svg">
<path d="M300.089 187.289C281.589 206.356 257.248 209.401 231.917 206.232C188.649 200.819 190.154 161.181 160.081 140.236C141.193 127.083 109.706 155.294 76.91 142.968C40.2246 129.18 17.1122 78.9227 60.8223 40.9782C93.8981 12.2651 116.571 31.5558 141.868 29.7471C167.165 27.9384 176.328 21.6996 187.726 11.3095C201.024 -0.812788 224.431 -2.37479 241.886 2.77764C259.697 8.03503 272.374 20.5533 277.22 38.5481C280.909 52.2517 279.3 78.2118 289.109 91.1411C302.465 108.747 311.844 113.975 316.135 134.547C319.863 152.414 311.168 175.842 300.089 187.289Z" fill="#B8E6CA"/>
<g filter="url(#filter0_d_712_3088)">
<path d="M108.176 27.7825C108.176 23.1677 111.917 19.4266 116.532 19.4266H218.201C222.816 19.4266 226.557 23.1677 226.557 27.7825V159.199C226.557 163.814 222.816 167.555 218.201 167.555H116.532C111.917 167.555 108.176 163.814 108.176 159.199V27.7825Z" fill="white"/>
</g>
<path d="M66.0999 53.2297C76.3099 53.2297 84.5386 44.7277 84.5386 34.3002C84.5386 23.8726 76.3099 15.3706 66.0999 15.3706C55.8899 15.3706 47.6611 23.8726 47.6611 34.3002C47.6611 44.7277 55.8899 53.2297 66.0999 53.2297Z" fill="#895A00" stroke="white" stroke-width="2.04109"/>
<mask id="mask0_712_3088" style="mask-type:alpha" maskUnits="userSpaceOnUse" x="48" y="16" width="36" height="37">
<ellipse cx="66.0999" cy="34.3002" rx="17.4182" ry="17.909" fill="#D9D9D9"/>
</mask>
<g mask="url(#mask0_712_3088)">
<path d="M73.4073 30.8452C73.4073 34.7099 70.2743 37.8428 66.4097 37.8428C62.545 37.8428 59.4121 34.7099 59.4121 30.8452C59.4121 26.9806 62.545 23.8477 66.4097 23.8477C70.2743 23.8477 73.4073 26.9806 73.4073 30.8452Z" fill="#FECE72"/>
<ellipse cx="66.4109" cy="51.5218" rx="14.8699" ry="12.2311" fill="#FECE72"/>
</g>
<path d="M281.246 98.7522C295.573 98.7522 307.12 86.8222 307.12 72.19C307.12 57.5579 295.573 45.6278 281.246 45.6278C266.919 45.6278 255.373 57.5579 255.373 72.19C255.373 86.8222 266.919 98.7522 281.246 98.7522Z" fill="#895A00" stroke="white" stroke-width="2.86409"/>
<mask id="mask1_712_3088" style="mask-type:alpha" maskUnits="userSpaceOnUse" x="256" y="47" width="50" height="51">
<ellipse cx="281.352" cy="72.19" rx="24.4416" ry="25.1302" fill="#D9D9D9"/>
</mask>
<g mask="url(#mask1_712_3088)">
<path fill-rule="evenodd" clip-rule="evenodd" d="M272.04 68.9869C271.294 69.7066 270.873 70.6985 270.873 71.7348V96.2571C270.873 98.3662 272.583 100.076 274.692 100.076H288.058C290.167 100.076 291.876 98.3662 291.876 96.2571V71.7348C291.876 70.6985 291.455 69.7066 290.709 68.9869L282.701 61.2582C281.961 60.5442 280.789 60.5442 280.049 61.2582L272.04 68.9869ZM281.374 78.1179C282.956 78.1179 284.238 76.8356 284.238 75.2538C284.238 73.672 282.956 72.3897 281.374 72.3897C279.793 72.3897 278.51 73.672 278.51 75.2538C278.51 76.8356 279.793 78.1179 281.374 78.1179Z" fill="#FECE72"/>
</g>
<path d="M117.502 38.2833C117.502 36.9422 118.589 35.855 119.93 35.855H215.243C216.584 35.855 217.671 36.9422 217.671 38.2833V61.3525C217.671 62.6936 216.584 63.7809 215.243 63.7809H119.93C118.589 63.7809 117.502 62.6936 117.502 61.3525V38.2833Z" fill="#FFE4B1"/>
<rect x="117.281" y="69.8146" width="100.169" height="4.85667" rx="2.42834" fill="#FFE4B1"/>
<rect x="173.133" y="126.88" width="44.3171" height="4.85667" rx="2.42834" fill="#FFE4B1"/>
<rect opacity="0.6" x="173.133" y="136.594" width="44.3171" height="4.85667" rx="2.42834" fill="#FFE4B1"/>
<rect opacity="0.6" x="117.281" y="78.9209" width="100.169" height="4.85667" rx="2.42834" fill="#FFE4B1"/>
<rect opacity="0.25" x="117.281" y="88.0272" width="45.5313" height="4.85667" rx="2.42834" fill="#FFE4B1"/>
<rect opacity="0.25" x="117.281" y="95.9193" width="45.5313" height="4.85667" rx="2.42834" fill="#FFE4B1"/>
<rect x="173.133" y="88.6342" width="44.3171" height="30.3542" rx="2.42834" fill="#FFE4B1"/>
<circle cx="182.846" cy="101.383" r="3.03542" fill="#E1B155"/>
<path d="M189.749 105.492L184.061 112.31H207.737L199.127 101.99L192.978 109.362L189.749 105.492Z" fill="#E1B155"/>
<rect x="117.281" y="107.454" width="44.3171" height="60.1013" rx="2.42834" fill="#FFE4B1"/>
<path d="M231.964 146.395C241.074 146.395 248.417 138.809 248.417 129.505C248.417 120.2 241.074 112.614 231.964 112.614C222.854 112.614 215.511 120.2 215.511 129.505C215.511 138.809 222.854 146.395 231.964 146.395Z" fill="#895A00" stroke="white" stroke-width="1.82125"/>
<mask id="mask2_712_3088" style="mask-type:alpha" maskUnits="userSpaceOnUse" x="216" y="113" width="32" height="33">
<path d="M247.203 129.505C247.203 138.171 240.372 145.181 231.964 145.181C223.556 145.181 216.725 138.171 216.725 129.505C216.725 120.839 223.556 113.828 231.964 113.828C240.372 113.828 247.203 120.839 247.203 129.505Z" fill="#D9D9D9" stroke="black" stroke-width="0.607084"/>
</mask>
<g mask="url(#mask2_712_3088)">
<path d="M220.89 135.87L228.986 145.7H237.485C240.399 145.7 241.127 143.272 241.127 142.058V133.558C241.127 133.01 240.612 132.126 239.799 131.737C239.29 131.494 238.665 131.7 237.976 131.514C237.477 131.379 237.485 131.051 236.574 130.873C235.834 130.728 235.301 130.953 234.753 130.873C234.177 130.789 234.201 130.321 233.235 130.22C232.138 130.104 231.904 130.554 231.414 130.523V123.845C231.414 123.238 231.05 122.024 229.593 122.024C228.136 122.024 227.771 123.238 227.771 123.845V136.897C226.557 136.29 223.4 134.166 222.915 134.166C222.527 134.166 221.727 134.552 221.008 135.017C220.717 135.205 220.67 135.603 220.89 135.87Z" fill="#FECE72"/>
</g>
<defs>
<filter id="filter0_d_712_3088" x="98.4624" y="12.1416" width="137.808" height="167.555" filterUnits="userSpaceOnUse" color-interpolation-filters="sRGB">
<feFlood flood-opacity="0" result="BackgroundImageFix"/>
<feColorMatrix in="SourceAlpha" type="matrix" values="0 0 0 0 0 0 0 0 0 0 0 0 0 0 0 0 0 0 127 0" result="hardAlpha"/>
<feOffset dy="2.42834"/>
<feGaussianBlur stdDeviation="4.85667"/>
<feComposite in2="hardAlpha" operator="out"/>
<feColorMatrix type="matrix" values="0 0 0 0 0 0 0 0 0 0 0 0 0 0 0 0 0 0 0.15 0"/>
<feBlend mode="normal" in2="BackgroundImageFix" result="effect1_dropShadow_712_3088"/>
<feBlend mode="normal" in="SourceGraphic" in2="effect1_dropShadow_712_3088" result="shape"/>
</filter>
</defs>
</svg>
