<svg width="553" height="140" viewBox="0 0 553 140" fill="none" xmlns="http://www.w3.org/2000/svg">
<path d="M451.956 266.532C425.66 293.635 391.061 297.963 355.055 293.457C293.553 285.765 295.692 229.422 252.945 199.651C226.099 180.954 181.342 221.055 134.725 203.534C82.5803 183.936 49.7281 112.499 111.858 58.5638C158.873 17.7506 191.1 45.1707 227.058 42.5998C263.016 40.0288 276.039 31.1609 292.241 16.3923C311.142 -0.838536 344.415 -3.05879 369.225 4.26496C394.541 11.7379 412.56 29.5316 419.449 55.1096C424.693 74.5881 422.406 111.488 436.348 129.866C455.332 154.891 468.664 162.323 474.764 191.565C480.062 216.961 467.704 250.261 451.956 266.532Z" fill="#B8E6CA"/>
<g filter="url(#filter0_d_712_3365)">
<path d="M208.164 28.7825C208.164 24.1677 211.905 20.4267 216.52 20.4267H318.19C322.804 20.4267 326.545 24.1677 326.545 28.7825V160.199C326.545 164.814 322.804 168.555 318.19 168.555H216.52C211.905 168.555 208.164 164.814 208.164 160.199V28.7825Z" fill="white"/>
</g>
<path d="M166.088 54.2297C176.298 54.2297 184.527 45.7278 184.527 35.3002C184.527 24.8726 176.298 16.3707 166.088 16.3707C155.878 16.3707 147.649 24.8726 147.649 35.3002C147.649 45.7278 155.878 54.2297 166.088 54.2297Z" fill="#895A00" stroke="white" stroke-width="2.04109"/>
<mask id="mask0_712_3365" style="mask-type:alpha" maskUnits="userSpaceOnUse" x="148" y="17" width="36" height="37">
<ellipse cx="166.088" cy="35.3002" rx="17.4182" ry="17.909" fill="#D9D9D9"/>
</mask>
<g mask="url(#mask0_712_3365)">
<path d="M173.396 31.8453C173.396 35.71 170.263 38.8429 166.398 38.8429C162.533 38.8429 159.4 35.71 159.4 31.8453C159.4 27.9806 162.533 24.8477 166.398 24.8477C170.263 24.8477 173.396 27.9806 173.396 31.8453Z" fill="#FECE72"/>
<ellipse cx="166.399" cy="52.5218" rx="14.8699" ry="12.2311" fill="#FECE72"/>
</g>
<path d="M381.235 99.7523C395.561 99.7523 407.108 87.8222 407.108 73.1901C407.108 58.5579 395.561 46.6278 381.235 46.6278C366.908 46.6278 355.361 58.5579 355.361 73.1901C355.361 87.8222 366.908 99.7523 381.235 99.7523Z" fill="#895A00" stroke="white" stroke-width="2.86409"/>
<mask id="mask1_712_3365" style="mask-type:alpha" maskUnits="userSpaceOnUse" x="356" y="48" width="50" height="51">
<ellipse cx="381.34" cy="73.1901" rx="24.4416" ry="25.1302" fill="#D9D9D9"/>
</mask>
<g mask="url(#mask1_712_3365)">
<path fill-rule="evenodd" clip-rule="evenodd" d="M372.028 69.987C371.283 70.7067 370.861 71.6985 370.861 72.7349V97.2572C370.861 99.3662 372.571 101.076 374.68 101.076H388.046C390.155 101.076 391.865 99.3662 391.865 97.2572V72.7349C391.865 71.6985 391.443 70.7067 390.698 69.987L382.689 62.2582C381.949 61.5443 380.777 61.5443 380.037 62.2582L372.028 69.987ZM381.363 79.118C382.944 79.118 384.227 77.8357 384.227 76.2539C384.227 74.6721 382.944 73.3898 381.363 73.3898C379.781 73.3898 378.498 74.6721 378.498 76.2539C378.498 77.8357 379.781 79.118 381.363 79.118Z" fill="#FECE72"/>
</g>
<path d="M217.49 39.2834C217.49 37.9422 218.577 36.855 219.919 36.855H315.231C316.572 36.855 317.659 37.9422 317.659 39.2834V62.3526C317.659 63.6937 316.572 64.7809 315.231 64.7809H219.919C218.577 64.7809 217.49 63.6937 217.49 62.3526V39.2834Z" fill="#FFE4B1"/>
<rect x="217.27" y="70.8147" width="100.169" height="4.85667" rx="2.42834" fill="#FFE4B1"/>
<rect x="273.121" y="127.881" width="44.3171" height="4.85667" rx="2.42834" fill="#FFE4B1"/>
<rect opacity="0.6" x="273.121" y="137.594" width="44.3171" height="4.85667" rx="2.42834" fill="#FFE4B1"/>
<rect opacity="0.6" x="217.27" y="79.921" width="100.169" height="4.85667" rx="2.42834" fill="#FFE4B1"/>
<rect opacity="0.25" x="217.27" y="89.0272" width="45.5313" height="4.85667" rx="2.42834" fill="#FFE4B1"/>
<rect opacity="0.25" x="217.27" y="96.9193" width="45.5313" height="4.85667" rx="2.42834" fill="#FFE4B1"/>
<rect x="273.121" y="89.6343" width="44.3171" height="30.3542" rx="2.42834" fill="#FFE4B1"/>
<circle cx="282.834" cy="102.383" r="3.03542" fill="#E1B155"/>
<path d="M289.737 106.492L284.049 113.311H307.725L299.116 102.99L292.966 110.362L289.737 106.492Z" fill="#E1B155"/>
<rect x="217.27" y="108.454" width="44.3171" height="60.1013" rx="2.42834" fill="#FFE4B1"/>
<path d="M331.952 147.396C341.063 147.396 348.405 139.809 348.405 130.505C348.405 121.2 341.063 113.614 331.952 113.614C322.842 113.614 315.5 121.2 315.5 130.505C315.5 139.809 322.842 147.396 331.952 147.396Z" fill="#895A00" stroke="white" stroke-width="1.82125"/>
<mask id="mask2_712_3365" style="mask-type:alpha" maskUnits="userSpaceOnUse" x="316" y="114" width="32" height="33">
<path d="M347.191 130.505C347.191 139.171 340.361 146.181 331.952 146.181C323.544 146.181 316.714 139.171 316.714 130.505C316.714 121.839 323.544 114.828 331.952 114.828C340.361 114.828 347.191 121.839 347.191 130.505Z" fill="#D9D9D9" stroke="black" stroke-width="0.607084"/>
</mask>
<g mask="url(#mask2_712_3365)">
<path d="M320.878 136.87L328.974 146.7H337.473C340.387 146.7 341.115 144.272 341.115 143.058V134.559C341.115 134.011 340.6 133.126 339.788 132.737C339.279 132.494 338.653 132.7 337.965 132.514C337.465 132.379 337.473 132.051 336.562 131.873C335.822 131.728 335.289 131.953 334.741 131.873C334.165 131.789 334.189 131.321 333.223 131.22C332.126 131.105 331.892 131.554 331.402 131.523V124.845C331.402 124.238 331.038 123.024 329.581 123.024C328.124 123.024 327.76 124.238 327.76 124.845V137.898C326.545 137.29 323.389 135.166 322.903 135.166C322.515 135.166 321.715 135.552 320.996 136.017C320.706 136.205 320.658 136.603 320.878 136.87Z" fill="#FECE72"/>
</g>
<defs>
<filter id="filter0_d_712_3365" x="198.451" y="13.1417" width="137.808" height="167.555" filterUnits="userSpaceOnUse" color-interpolation-filters="sRGB">
<feFlood flood-opacity="0" result="BackgroundImageFix"/>
<feColorMatrix in="SourceAlpha" type="matrix" values="0 0 0 0 0 0 0 0 0 0 0 0 0 0 0 0 0 0 127 0" result="hardAlpha"/>
<feOffset dy="2.42834"/>
<feGaussianBlur stdDeviation="4.85667"/>
<feComposite in2="hardAlpha" operator="out"/>
<feColorMatrix type="matrix" values="0 0 0 0 0 0 0 0 0 0 0 0 0 0 0 0 0 0 0.15 0"/>
<feBlend mode="normal" in2="BackgroundImageFix" result="effect1_dropShadow_712_3365"/>
<feBlend mode="normal" in="SourceGraphic" in2="effect1_dropShadow_712_3365" result="shape"/>
</filter>
</defs>
</svg>
