<svg width="462" height="258" viewBox="0 0 462 258" fill="none" xmlns="http://www.w3.org/2000/svg">
<path d="M434.125 308.505C403.652 339.914 363.557 344.929 321.83 339.708C250.558 330.793 253.038 265.5 203.5 231C172.389 209.333 120.522 255.804 66.5 235.5C6.07117 212.788 -31.9999 130.003 40 67.5C94.4832 20.2034 131.83 51.9794 173.5 49C215.17 46.0206 230.263 35.7439 249.038 18.6292C270.942 -1.33884 309.5 -3.9118 338.252 4.57538C367.59 13.2355 388.471 33.8558 396.454 63.4971C402.531 86.07 399.881 128.832 416.037 150.129C438.037 179.129 453.487 187.742 460.557 221.629C466.696 251.06 452.375 289.65 434.125 308.505Z" fill="#B8E6CA"/>
<g filter="url(#filter0_d_34_998)">
<path d="M118 45.7639C118 38.1623 124.162 32 131.764 32H299.236C306.838 32 313 38.1623 313 45.7639V262.236C313 269.838 306.838 276 299.236 276H131.764C124.162 276 118 269.838 118 262.236V45.7639Z" fill="white"/>
</g>
<path d="M48.6916 87.6811C65.5097 87.6811 79.0643 73.6765 79.0643 56.5C79.0643 39.3235 65.5097 25.3189 48.6916 25.3189C31.8735 25.3189 18.3189 39.3235 18.3189 56.5C18.3189 73.6765 31.8735 87.6811 48.6916 87.6811Z" fill="#895A00" stroke="white" stroke-width="3.36212"/>
<mask id="mask0_34_998" style="mask-type:alpha" maskUnits="userSpaceOnUse" x="20" y="27" width="58" height="59">
<ellipse cx="48.6916" cy="56.5" rx="28.6916" ry="29.5" fill="#D9D9D9"/>
</mask>
<g mask="url(#mask0_34_998)">
<path d="M60.7305 50.809C60.7305 57.1749 55.5699 62.3355 49.2039 62.3355C42.838 62.3355 37.6774 57.1749 37.6774 50.809C37.6774 44.443 42.838 39.2824 49.2039 39.2824C55.5699 39.2824 60.7305 44.443 60.7305 50.809Z" fill="#FECE72"/>
<ellipse cx="49.2039" cy="84.8677" rx="24.4939" ry="20.1472" fill="#FECE72"/>
</g>
<path d="M403.087 162.667C426.686 162.667 445.706 143.015 445.706 118.913C445.706 94.8104 426.686 75.1589 403.087 75.1589C379.487 75.1589 360.467 94.8104 360.467 118.913C360.467 143.015 379.487 162.667 403.087 162.667Z" fill="#895A00" stroke="white" stroke-width="4.71779"/>
<mask id="mask1_34_998" style="mask-type:alpha" maskUnits="userSpaceOnUse" x="363" y="77" width="81" height="84">
<ellipse cx="403.261" cy="118.913" rx="40.2606" ry="41.3949" fill="#D9D9D9"/>
</mask>
<g mask="url(#mask1_34_998)">
<path fill-rule="evenodd" clip-rule="evenodd" d="M387.922 113.637C386.694 114.822 386 116.456 386 118.163V158.556C386 162.031 388.816 164.847 392.29 164.847H414.307C417.781 164.847 420.597 162.031 420.597 158.556V118.163C420.597 116.456 419.903 114.822 418.675 113.637L405.483 100.906C404.264 99.7296 402.333 99.7296 401.114 100.906L387.922 113.637ZM403.299 128.677C405.904 128.677 408.016 126.565 408.016 123.959C408.016 121.354 405.904 119.242 403.299 119.242C400.693 119.242 398.581 121.354 398.581 123.959C398.581 126.565 400.693 128.677 403.299 128.677Z" fill="#FECE72"/>
</g>
<path d="M133.363 63.061C133.363 60.8519 135.154 59.061 137.363 59.061H294.363C296.572 59.061 298.363 60.8519 298.363 63.061V101.061C298.363 103.27 296.572 105.061 294.363 105.061H137.363C135.154 105.061 133.363 103.27 133.363 101.061V63.061Z" fill="#FFE4B1"/>
<rect x="133" y="115" width="165" height="8" rx="4" fill="#FFE4B1"/>
<rect x="225" y="209" width="73" height="8" rx="4" fill="#FFE4B1"/>
<rect opacity="0.6" x="225" y="225" width="73" height="8" rx="4" fill="#FFE4B1"/>
<rect opacity="0.25" x="225" y="241" width="73" height="8" rx="4" fill="#FFE4B1"/>
<rect opacity="0.6" x="133" y="130" width="165" height="8" rx="4" fill="#FFE4B1"/>
<rect opacity="0.25" x="133" y="145" width="75" height="8" rx="4" fill="#FFE4B1"/>
<rect opacity="0.25" x="133" y="158" width="75" height="8" rx="4" fill="#FFE4B1"/>
<rect x="225" y="146" width="73" height="50" rx="4" fill="#FFE4B1"/>
<circle cx="241" cy="167" r="5" fill="#E1B155"/>
<path d="M252.37 173.768L243 185H282L267.818 168L257.688 180.143L252.37 173.768Z" fill="#E1B155"/>
<rect x="133" y="177" width="73" height="99" rx="4" fill="#FFE4B1"/>
<path d="M321.909 241.145C336.915 241.145 349.01 228.649 349.01 213.323C349.01 197.996 336.915 185.5 321.909 185.5C306.902 185.5 294.807 197.996 294.807 213.323C294.807 228.649 306.902 241.145 321.909 241.145Z" fill="#895A00" stroke="white" stroke-width="3"/>
<mask id="mask2_34_998" style="mask-type:alpha" maskUnits="userSpaceOnUse" x="296" y="187" width="52" height="53">
<path d="M347.01 213.323C347.01 227.597 335.759 239.145 321.909 239.145C308.059 239.145 296.807 227.597 296.807 213.323C296.807 199.048 308.059 187.5 321.909 187.5C335.759 187.5 347.01 199.048 347.01 213.323Z" fill="#D9D9D9" stroke="black"/>
</mask>
<g mask="url(#mask2_34_998)">
<path d="M303.665 223.808L317 240H331C335.8 240 337 236 337 234V220C337 219.097 336.151 217.64 334.813 217C333.974 216.599 332.944 216.939 331.81 216.632C330.987 216.41 331 215.87 329.5 215.577C328.281 215.338 327.403 215.708 326.5 215.577C325.551 215.439 325.591 214.667 324 214.5C322.193 214.311 321.807 215.05 321 215V204C321 203 320.4 201 318 201C315.6 201 315 203 315 204V225.5C313 224.5 307.8 221 307 221C306.361 221 305.043 221.637 303.859 222.403C303.38 222.712 303.303 223.368 303.665 223.808Z" fill="#FECE72"/>
</g>
<defs>
<filter id="filter0_d_34_998" x="102" y="20" width="227" height="276" filterUnits="userSpaceOnUse" color-interpolation-filters="sRGB">
<feFlood flood-opacity="0" result="BackgroundImageFix"/>
<feColorMatrix in="SourceAlpha" type="matrix" values="0 0 0 0 0 0 0 0 0 0 0 0 0 0 0 0 0 0 127 0" result="hardAlpha"/>
<feOffset dy="4"/>
<feGaussianBlur stdDeviation="8"/>
<feComposite in2="hardAlpha" operator="out"/>
<feColorMatrix type="matrix" values="0 0 0 0 0 0 0 0 0 0 0 0 0 0 0 0 0 0 0.15 0"/>
<feBlend mode="normal" in2="BackgroundImageFix" result="effect1_dropShadow_34_998"/>
<feBlend mode="normal" in="SourceGraphic" in2="effect1_dropShadow_34_998" result="shape"/>
</filter>
</defs>
</svg>
