<svg width="247" height="166" viewBox="0 0 247 166" fill="none" xmlns="http://www.w3.org/2000/svg">
<path d="M221.369 108.941C215.44 137.492 187.973 163.012 156.977 155C125.981 146.988 125.501 119 107.001 111C88.5013 103 79.0475 118.423 56.8888 112.531C34.7301 106.64 17.2888 87.2826 17.2909 57.391C17.293 27.4995 45.9994 1.49998 71.4993 3.99998C96.9993 6.49997 106 23.999 125.5 28.4995C145 33 155.499 21.9998 176.498 25C226.255 32.1089 227.298 80.39 221.369 108.941Z" fill="#D0FBE1"/>
<g filter="url(#filter0_d_1842_48652)">
<rect x="46.0007" y="26.5465" width="128" height="120.889" rx="6.98252" fill="#EBEEF0"/>
<mask id="mask0_1842_48652" style="mask-type:alpha" maskUnits="userSpaceOnUse" x="46" y="26" width="129" height="121">
<rect x="46.0007" y="26.5465" width="128" height="120" rx="6.98252" fill="#DEE3E6"/>
</mask>
<g mask="url(#mask0_1842_48652)">
<rect x="54.0007" y="67.4358" width="52.2667" height="70.9333" rx="3.75128" fill="white"/>
<rect x="60.4919" y="96.6414" width="18.0797" height="3.24507" rx="1.62254" fill="#EBEEF0"/>
<rect x="60.4919" y="91.5415" width="6.49014" height="3.24507" rx="1.62254" fill="#EBEEF0"/>
<rect x="60.4919" y="108.257" width="6.49014" height="3.24507" rx="1.62254" fill="#EBEEF0"/>
<rect x="60.4919" y="124.285" width="6.49014" height="3.24507" rx="1.62254" fill="#EBEEF0"/>
<path d="M89.697 95.9454C89.697 94.2812 91.0461 92.9321 92.7103 92.9321H97.3461C99.0103 92.9321 100.359 94.2812 100.359 95.9454C100.359 97.6096 99.0103 98.9587 97.3461 98.9587H92.7103C91.0461 98.9587 89.697 97.6096 89.697 95.9454Z" fill="#EBEEF0"/>
<rect x="60.48" y="74.597" width="12.2769" height="3.06923" rx="1.53462" fill="#EBEEF0"/>
<path d="M89.697 112.661C89.697 110.997 91.0461 109.648 92.7103 109.648H97.3461C99.0103 109.648 100.359 110.997 100.359 112.661C100.359 114.325 99.0103 115.674 97.3461 115.674H92.7103C91.0461 115.674 89.697 114.325 89.697 112.661Z" fill="#EBEEF0"/>
<path d="M89.697 128.69C89.697 127.026 91.0461 125.677 92.7103 125.677H97.3461C99.0103 125.677 100.359 127.026 100.359 128.69C100.359 130.354 99.0103 131.703 97.3461 131.703H92.7103C91.0461 131.703 89.697 130.354 89.697 128.69Z" fill="#EBEEF0"/>
<rect x="60.0286" y="113.357" width="19.0068" height="3.24507" rx="1.62254" fill="#EBEEF0"/>
<rect x="60.0286" y="132.795" width="19.0068" height="3.24507" rx="1.62254" fill="#EBEEF0"/>
<path d="M106.178 83.9751H54.3418" stroke="#EBEEF0" stroke-width="0.682051"/>
<rect x="112.668" y="67.4355" width="52.2667" height="70.9333" rx="3.75128" fill="white"/>
<rect x="119.474" y="96.6412" width="18.0389" height="3.24507" rx="1.62254" fill="#EBEEF0"/>
<rect x="119.474" y="91.5415" width="6.47552" height="3.24507" rx="1.62254" fill="#EBEEF0"/>
<rect x="119.474" y="108.257" width="6.47552" height="3.24507" rx="1.62254" fill="#EBEEF0"/>
<rect x="119.474" y="124.285" width="6.47552" height="3.24507" rx="1.62254" fill="#EBEEF0"/>
<path d="M148.614 95.9454C148.614 94.2812 149.963 92.9321 151.628 92.9321H156.239C157.904 92.9321 159.253 94.2812 159.253 95.9454C159.253 97.6096 157.904 98.9587 156.239 98.9587H151.628C149.963 98.9587 148.614 97.6096 148.614 95.9454Z" fill="#EBEEF0"/>
<rect x="119.489" y="74.597" width="12.298" height="3.06923" rx="1.53462" fill="#EBEEF0"/>
<path d="M164.936 83.9751H112.669" stroke="#EBEEF0" stroke-width="0.682051"/>
<path d="M148.614 112.661C148.614 110.997 149.963 109.648 151.628 109.648H156.239C157.904 109.648 159.253 110.997 159.253 112.661C159.253 114.325 157.904 115.674 156.239 115.674H151.628C149.963 115.674 148.614 114.325 148.614 112.661Z" fill="#EBEEF0"/>
<path d="M148.614 128.69C148.614 127.025 149.963 125.676 151.628 125.676H156.239C157.904 125.676 159.253 127.025 159.253 128.69C159.253 130.354 157.904 131.703 156.239 131.703H151.628C149.963 131.703 148.614 130.354 148.614 128.69Z" fill="#EBEEF0"/>
<rect x="119.012" y="113.357" width="18.964" height="3.24507" rx="1.62254" fill="#EBEEF0"/>
<rect x="119.012" y="132.795" width="18.964" height="3.24507" rx="1.62254" fill="#EBEEF0"/>
<rect width="34.6667" height="17.6" rx="2.31569" transform="matrix(1 0 0 -1 130.267 62.1019)" fill="white"/>
<rect width="10.525" height="4.21034" rx="2.10517" transform="matrix(1 0 0 -1 133.569 57.6593)" fill="#EBEEF0"/>
<rect width="27.9965" height="1.68414" rx="0.842068" transform="matrix(1 0 0 -1 133.569 50.2911)" fill="#EBEEF0"/>
<rect width="34.7324" height="18.9465" rx="2.31569" transform="matrix(1 0 0 -1 92.0991 63.5394)" fill="white"/>
<rect width="22.1025" height="1.68414" rx="0.842068" transform="matrix(1 0 0 -1 95.4673 60.1714)" fill="#EBEEF0"/>
<rect width="10.525" height="4.21034" rx="2.10517" transform="matrix(1 0 0 -1 95.4673 56.5924)" fill="#EBEEF0"/>
<rect width="27.9965" height="1.68414" rx="0.842068" transform="matrix(1 0 0 -1 95.4673 49.2244)" fill="#EBEEF0"/>
<rect width="34.6667" height="17.6" rx="2.31569" transform="matrix(1 0 0 -1 54.0007 62.1024)" fill="white"/>
<path d="M57.3689 55.5545C57.3689 56.7172 58.3114 57.6597 59.4741 57.6597H65.7887C66.9514 57.6597 67.8939 56.7172 67.8939 55.5545C67.8939 54.3918 66.9514 53.4493 65.7887 53.4493H59.4741C58.3114 53.4493 57.3689 54.3918 57.3689 55.5545Z" fill="#EBEEF0"/>
<rect width="27.9965" height="1.68414" rx="0.842068" transform="matrix(1 0 0 -1 57.3689 50.2916)" fill="#EBEEF0"/>
</g>
<path d="M46.0007 33.3844C46.0007 29.528 49.1269 26.4019 52.9833 26.4019H166.86C170.716 26.4019 173.842 29.528 173.842 33.3844V36.9819H46.0007V33.3844Z" fill="white"/>
<rect x="51.2908" y="29.9285" width="3.52667" height="3.52667" rx="1.76333" fill="#F3F5F7"/>
<rect x="56.5806" y="29.9285" width="3.52667" height="3.52667" rx="1.76333" fill="#F3F5F7"/>
<rect x="61.9138" y="29.9285" width="3.52667" height="3.52667" rx="1.76333" fill="#F3F5F7"/>
</g>
<circle cx="109.466" cy="87.0792" r="21.8661" fill="#EBEEF0"/>
<path d="M109.169 76.203C115.156 76.203 120.009 81.056 120.009 87.0425C120.009 93.0289 115.156 97.8819 109.169 97.8819C103.183 97.8819 98.3296 93.0289 98.3296 87.0425C98.3296 85.8958 98.5077 84.7906 98.8376 83.7532" stroke="#93C9A8" stroke-width="3.12374" stroke-linecap="round"/>
<path d="M94.8103 84.434L99.3259 81.9083L102.327 86.2139" stroke="#93C9A8" stroke-width="3.12374" stroke-linecap="round" stroke-linejoin="round"/>
<defs>
<filter id="filter0_d_1842_48652" x="37.4674" y="20.0019" width="145.067" height="138.1" filterUnits="userSpaceOnUse" color-interpolation-filters="sRGB">
<feFlood flood-opacity="0" result="BackgroundImageFix"/>
<feColorMatrix in="SourceAlpha" type="matrix" values="0 0 0 0 0 0 0 0 0 0 0 0 0 0 0 0 0 0 127 0" result="hardAlpha"/>
<feOffset dy="2.13333"/>
<feGaussianBlur stdDeviation="4.26667"/>
<feComposite in2="hardAlpha" operator="out"/>
<feColorMatrix type="matrix" values="0 0 0 0 0 0 0 0 0 0 0 0 0 0 0 0 0 0 0.15 0"/>
<feBlend mode="normal" in2="BackgroundImageFix" result="effect1_dropShadow_1842_48652"/>
<feBlend mode="normal" in="SourceGraphic" in2="effect1_dropShadow_1842_48652" result="shape"/>
</filter>
</defs>
</svg>
