<svg width="100%" height="100%" viewBox="0 0 120 144" fill="none" xmlns="http://www.w3.org/2000/svg">
<g filter="url(#filter0_d_4865_84062)">
<rect y="0.5625" width="116.954" height="63.7932" rx="7.79694" fill="white"/>
<rect x="0.354407" y="0.916907" width="116.245" height="63.0844" rx="7.44254" stroke="#EBEEF0" stroke-width="0.708813"/>
</g>
<rect x="9.34082" y="11.9033" width="17.7203" height="5.6705" rx="2.83525" fill="#EBEEF0"/>
<rect x="9.34082" y="22.9541" width="35.4407" height="14.1763" rx="7.08813" fill="#FFDED3"/>
<rect x="9.34082" y="48.7627" width="94.2721" height="5.6705" rx="2.83525" fill="#EBEEF0"/>
<path d="M15.7179 27.915L20.3914 32.5885M20.3914 32.5885L20.4434 28.9017M20.3914 32.5885L16.7046 32.6405" stroke="white" stroke-width="1.06322" stroke-linecap="round" stroke-linejoin="round"/>
<rect x="24.9346" y="27.915" width="14.1763" height="4.25288" rx="1.41763" fill="white"/>
<g filter="url(#filter1_d_4865_84062)">
<rect y="76.1846" width="116.954" height="63.7932" rx="7.79694" fill="white"/>
<rect x="0.354407" y="76.539" width="116.245" height="63.0844" rx="7.44254" stroke="#EBEEF0" stroke-width="0.708813"/>
</g>
<rect x="9.34082" y="87.5254" width="74.4254" height="5.6705" rx="2.83525" fill="#EBEEF0"/>
<rect x="9.34082" y="98.5762" width="35.4407" height="14.1763" rx="7.08813" fill="#B8E6CA"/>
<rect x="9.34082" y="124.384" width="94.2721" height="5.6705" rx="2.83525" fill="#EBEEF0"/>
<path d="M15.7197 108.263L20.3932 103.589M20.3932 103.589L16.7064 103.537M20.3932 103.589L20.4451 107.276" stroke="white" stroke-width="1.06322" stroke-linecap="round" stroke-linejoin="round"/>
<rect x="24.9346" y="103.537" width="14.1763" height="4.25288" rx="1.41763" fill="white"/>
<defs>
<filter id="filter0_d_4865_84062" x="0" y="0.5625" width="119.789" height="67.337" filterUnits="userSpaceOnUse" color-interpolation-filters="sRGB">
<feFlood flood-opacity="0" result="BackgroundImageFix"/>
<feColorMatrix in="SourceAlpha" type="matrix" values="0 0 0 0 0 0 0 0 0 0 0 0 0 0 0 0 0 0 127 0" result="hardAlpha"/>
<feOffset dx="2.83525" dy="3.54407"/>
<feComposite in2="hardAlpha" operator="out"/>
<feColorMatrix type="matrix" values="0 0 0 0 0.921569 0 0 0 0 0.933333 0 0 0 0 0.941176 0 0 0 1 0"/>
<feBlend mode="normal" in2="BackgroundImageFix" result="effect1_dropShadow_4865_84062"/>
<feBlend mode="normal" in="SourceGraphic" in2="effect1_dropShadow_4865_84062" result="shape"/>
</filter>
<filter id="filter1_d_4865_84062" x="0" y="76.1846" width="119.789" height="67.337" filterUnits="userSpaceOnUse" color-interpolation-filters="sRGB">
<feFlood flood-opacity="0" result="BackgroundImageFix"/>
<feColorMatrix in="SourceAlpha" type="matrix" values="0 0 0 0 0 0 0 0 0 0 0 0 0 0 0 0 0 0 127 0" result="hardAlpha"/>
<feOffset dx="2.83525" dy="3.54407"/>
<feComposite in2="hardAlpha" operator="out"/>
<feColorMatrix type="matrix" values="0 0 0 0 0.921569 0 0 0 0 0.933333 0 0 0 0 0.941176 0 0 0 1 0"/>
<feBlend mode="normal" in2="BackgroundImageFix" result="effect1_dropShadow_4865_84062"/>
<feBlend mode="normal" in="SourceGraphic" in2="effect1_dropShadow_4865_84062" result="shape"/>
</filter>
</defs>
</svg>
