<svg width="314" height="85" viewBox="0 0 314 85" fill="none" xmlns="http://www.w3.org/2000/svg">
<g filter="url(#filter0_d_1819_49877)">
<rect x="162.691" width="148.309" height="80.896" rx="11" fill="white"/>
<rect x="163.191" y="0.5" width="147.309" height="79.896" rx="10.5" stroke="#EBEEF0"/>
</g>
<rect x="177.072" y="14.3818" width="22.4711" height="7.19075" rx="3.59538" fill="#EBEEF0"/>
<rect x="177.072" y="29.6621" width="44.9422" height="17.9769" rx="8.98844" fill="#FFC2AE"/>
<rect x="177.072" y="61.1211" width="119.546" height="7.19075" rx="3.59538" fill="#EBEEF0"/>
<path d="M185.16 35.9541L191.086 41.8805M191.086 41.8805L191.152 37.2052M191.086 41.8805L186.411 41.9464" stroke="white" stroke-width="1.5" stroke-linecap="round" stroke-linejoin="round"/>
<rect x="196.848" y="35.9541" width="17.9769" height="5.39306" rx="2" fill="white"/>
<g filter="url(#filter1_d_1819_49877)">
<rect width="148.309" height="80.896" rx="11" fill="white"/>
<rect x="0.5" y="0.5" width="147.309" height="79.896" rx="10.5" stroke="#EBEEF0"/>
</g>
<rect x="14.3809" y="14.3818" width="94.3786" height="7.19075" rx="3.59538" fill="#EBEEF0"/>
<rect x="14.3809" y="29.6621" width="44.9422" height="17.9769" rx="8.98844" fill="#B8E6CA"/>
<rect x="14.3809" y="61.1211" width="119.546" height="7.19075" rx="3.59538" fill="#EBEEF0"/>
<path d="M22.4707 41.9464L28.3971 36.02M28.3971 36.02L23.7218 35.9541M28.3971 36.02L28.463 40.6953" stroke="white" stroke-width="1.5" stroke-linecap="round" stroke-linejoin="round"/>
<rect x="34.1562" y="35.9541" width="17.9769" height="5.39306" rx="2" fill="white"/>
<defs>
<filter id="filter0_d_1819_49877" x="162.691" y="0" width="151.309" height="84.8955" filterUnits="userSpaceOnUse" color-interpolation-filters="sRGB">
<feFlood flood-opacity="0" result="BackgroundImageFix"/>
<feColorMatrix in="SourceAlpha" type="matrix" values="0 0 0 0 0 0 0 0 0 0 0 0 0 0 0 0 0 0 127 0" result="hardAlpha"/>
<feOffset dx="3" dy="4"/>
<feComposite in2="hardAlpha" operator="out"/>
<feColorMatrix type="matrix" values="0 0 0 0 0.921569 0 0 0 0 0.933333 0 0 0 0 0.941176 0 0 0 1 0"/>
<feBlend mode="normal" in2="BackgroundImageFix" result="effect1_dropShadow_1819_49877"/>
<feBlend mode="normal" in="SourceGraphic" in2="effect1_dropShadow_1819_49877" result="shape"/>
</filter>
<filter id="filter1_d_1819_49877" x="0" y="0" width="151.309" height="84.8955" filterUnits="userSpaceOnUse" color-interpolation-filters="sRGB">
<feFlood flood-opacity="0" result="BackgroundImageFix"/>
<feColorMatrix in="SourceAlpha" type="matrix" values="0 0 0 0 0 0 0 0 0 0 0 0 0 0 0 0 0 0 127 0" result="hardAlpha"/>
<feOffset dx="3" dy="4"/>
<feComposite in2="hardAlpha" operator="out"/>
<feColorMatrix type="matrix" values="0 0 0 0 0.921569 0 0 0 0 0.933333 0 0 0 0 0.941176 0 0 0 1 0"/>
<feBlend mode="normal" in2="BackgroundImageFix" result="effect1_dropShadow_1819_49877"/>
<feBlend mode="normal" in="SourceGraphic" in2="effect1_dropShadow_1819_49877" result="shape"/>
</filter>
</defs>
</svg>
