<svg width="13" height="24" viewBox="0 0 13 24" fill="none" xmlns="http://www.w3.org/2000/svg">
<path id="Flat 125" fill-rule="evenodd" clip-rule="evenodd" d="M7.18601 9.59766C7.76804 9.97035 7.95051 10.7426 7.60557 11.3406L7.58284 11.3785L4.916 15.6632L8.53227 15.6633C9.57884 15.6633 10.1727 16.8695 9.56005 17.716L9.53589 17.7484L5.11063 23.5029C4.67829 24.0652 3.87847 24.1654 3.32419 23.7269C2.7817 23.2977 2.67547 22.5114 3.07652 21.9511L3.1034 21.9149L5.92509 18.2453L2.60731 18.2454C1.61874 18.2454 1.01273 17.1553 1.50967 16.3006L1.53102 16.2652L5.43026 10.0002C5.80551 9.39724 6.59159 9.21703 7.18601 9.59766ZM12.2449 3.77431L12.2586 3.78285L12.2659 3.78744C12.8602 4.16414 13.0413 4.94865 12.6722 5.54776L11.3104 7.75838C10.9449 8.35167 10.1676 8.53633 9.57432 8.17084L9.56066 8.16229L9.55342 8.15771C8.95907 7.781 8.77797 6.99649 9.14705 6.39738L10.5089 4.18677C10.8744 3.59347 11.6517 3.40881 12.2449 3.77431ZM0.61214 3.77431C1.20543 3.40881 1.98268 3.59347 2.34818 4.18677L3.71004 6.39738C4.07912 6.99649 3.89802 7.781 3.30367 8.15771L3.29643 8.16229L3.28277 8.17084C2.68947 8.53633 1.91222 8.35167 1.54672 7.75838L0.18487 5.54776C-0.184214 4.94865 -0.00311526 4.16414 0.591234 3.78744L0.598473 3.78285L0.61214 3.77431ZM6.42306 0C7.11224 0 7.67348 0.555572 7.69523 1.24925L7.69588 1.29104V5.75544C7.69588 6.46846 7.12602 7.04648 6.42306 7.04648C5.73389 7.04648 5.17264 6.49091 5.1509 5.79722L5.15025 5.75544V1.29104C5.15025 0.578018 5.72011 0 6.42306 0Z" fill="url(#paint0_linear)"/>
<defs>
<linearGradient id="paint0_linear" x1="7.75681" y1="-1.9527" x2="0.354812" y2="23.0412" gradientUnits="userSpaceOnUse">
<stop stop-color="#FAA900"/>
<stop offset="1" stop-color="#F57F00"/>
</linearGradient>
</defs>
</svg>
