<svg fill="none" xmlns="http://www.w3.org/2000/svg" viewBox="0 0 500 166"><path d="M87.23 5.26h2.355l4.32 7.2h.12l-.12-2.07V5.26h2.01V16h-2.13l-4.56-7.605h-.12l.12 2.07V16H87.23V5.26Zm14.448 10.98c-.76 0-1.445-.175-2.055-.525-.61-.35-1.09-.83-1.44-1.44-.34-.62-.51-1.315-.51-2.085 0-.73.17-1.405.51-2.025.34-.63.81-1.13 1.41-1.5.6-.37 1.27-.555 2.01-.555.79 0 1.47.17 2.04.51.57.34 1 .805 1.29 1.395.3.59.45 1.245.45 1.965 0 .23-.015.45-.045.66h-5.745c.1.61.34 1.075.72 1.395.39.31.855.465 1.395.465.45 0 .835-.095 1.155-.285.33-.2.59-.465.78-.795l1.59.78c-.78 1.36-1.965 2.04-3.555 2.04Zm1.815-4.995c-.02-.24-.11-.475-.27-.705a1.669 1.669 0 0 0-.645-.585c-.27-.16-.59-.24-.96-.24-.47 0-.875.14-1.215.42-.33.27-.57.64-.72 1.11h3.81Zm2.402-2.895h2.205l1.32 4.965h.105l1.53-4.965h2.01l1.53 4.965h.105l1.32-4.965h2.175L115.75 16h-2.115l-1.56-4.95h-.105L110.425 16h-2.1l-2.43-7.65Z" fill="#2A76E5"/><path d="m48.652 93-2.405-9.308h1.573l1.391 6.019.156.819h.078l.195-.819 1.755-6.019h1.43l1.703 6.019.195.806h.078l.143-.806 1.404-6.019h1.56L55.542 93h-1.495l-1.69-6.162-.208-.897h-.078l-.208.897L50.108 93h-1.456Zm10.446 0V82.912h1.391v3.146l-.078 1.027h.078c.174-.32.451-.59.832-.806a2.533 2.533 0 0 1 1.274-.325c.546 0 .997.108 1.352.325.364.217.642.52.832.91.191.39.286.845.286 1.365V93h-1.39v-4.264c0-.32-.061-.59-.183-.806a1.12 1.12 0 0 0-.494-.507 1.573 1.573 0 0 0-.78-.182c-.338 0-.637.091-.897.273-.26.173-.463.412-.61.715a2.208 2.208 0 0 0-.222 1.001V93H59.1Zm9.812.208c-.477 0-.893-.087-1.248-.26a2.063 2.063 0 0 1-.832-.754c-.19-.32-.286-.702-.286-1.144 0-.46.117-.845.35-1.157.235-.32.551-.563.95-.728a3.406 3.406 0 0 1 1.313-.247c.243 0 .472.013.689.039.216.017.429.048.637.091a8 8 0 0 1 .624.13v-.65c0-.425-.147-.763-.442-1.014-.295-.26-.685-.39-1.17-.39-.39 0-.724.095-1.001.286-.269.182-.455.45-.56.806L66.7 87.93c.087-.425.264-.784.533-1.079a2.63 2.63 0 0 1 1-.663 3.464 3.464 0 0 1 1.275-.234c.962 0 1.694.23 2.197.689.502.46.754 1.118.754 1.976V93h-1.352v-.793h-.078c-.13.173-.295.338-.494.494-.2.147-.433.269-.702.364a2.754 2.754 0 0 1-.923.143Zm.312-1.144c.381 0 .71-.078.988-.234.277-.165.494-.381.65-.65a1.75 1.75 0 0 0 .247-.91 4.462 4.462 0 0 0-.858-.221 4.86 4.86 0 0 0-.871-.078c-.46 0-.815.091-1.066.273-.243.182-.364.45-.364.806 0 .303.117.55.35.741.243.182.551.273.924.273Zm4.4-5.902h4.056v1.222h-4.056v-1.222Zm1.105 4.914V84.29h1.391v6.539c0 .312.07.55.208.715.139.165.351.247.637.247.156 0 .29-.017.403-.052.113-.043.225-.1.338-.169v1.352c-.139.052-.29.095-.455.13a2.608 2.608 0 0 1-.559.052c-.598 0-1.075-.178-1.43-.533-.355-.364-.533-.862-.533-1.495ZM82.51 93V82.912h1.39v3.146l-.077 1.027h.078c.173-.32.45-.59.832-.806a2.533 2.533 0 0 1 1.274-.325c.546 0 .996.108 1.352.325.364.217.64.52.832.91.19.39.286.845.286 1.365V93h-1.391v-4.264c0-.32-.061-.59-.182-.806a1.12 1.12 0 0 0-.494-.507 1.573 1.573 0 0 0-.78-.182c-.338 0-.637.091-.897.273-.26.173-.464.412-.611.715a2.207 2.207 0 0 0-.221 1.001V93h-1.391Zm10.745.208c-.684 0-1.278-.152-1.78-.455a3.171 3.171 0 0 1-1.17-1.287c-.27-.546-.404-1.174-.404-1.885 0-.72.135-1.348.403-1.885.278-.546.668-.97 1.17-1.274.503-.312 1.097-.468 1.781-.468.694 0 1.287.156 1.781.468.503.303.889.728 1.157 1.274.278.537.417 1.166.417 1.885 0 .71-.14 1.339-.416 1.885a3.083 3.083 0 0 1-1.157 1.287c-.495.303-1.088.455-1.782.455Zm0-1.287c.39 0 .733-.091 1.027-.273.295-.182.525-.446.69-.793.164-.355.246-.78.246-1.274 0-.503-.082-.927-.246-1.274a1.822 1.822 0 0 0-.69-.793 1.89 1.89 0 0 0-1.014-.273c-.39 0-.732.091-1.026.273a1.905 1.905 0 0 0-.703.793c-.164.347-.246.771-.246 1.274s.082.927.246 1.274c.174.347.408.611.703.793.303.182.64.273 1.013.273Zm7.121 1.287c-.771 0-1.365-.23-1.781-.689-.407-.468-.611-1.105-.611-1.911v-4.446h1.39v4.264c0 .511.127.888.378 1.131.26.243.594.364 1.001.364.347 0 .641-.082.884-.247.243-.173.429-.403.559-.689.139-.286.208-.598.208-.936v-3.887h1.391V93h-1.313v-.871h-.078a1.825 1.825 0 0 1-.481.559c-.199.165-.433.29-.702.377-.26.095-.542.143-.845.143Zm7.683 0a3.655 3.655 0 0 1-1.417-.26 2.53 2.53 0 0 1-1.014-.741 2.409 2.409 0 0 1-.481-1.131l1.339-.221c.069.33.238.598.507.806.268.208.624.312 1.066.312.372 0 .693-.074.962-.221.277-.156.416-.381.416-.676a.726.726 0 0 0-.156-.468 1.103 1.103 0 0 0-.455-.338 2.417 2.417 0 0 0-.715-.208l-.819-.156a3.245 3.245 0 0 1-1.014-.351 1.837 1.837 0 0 1-.689-.65 1.777 1.777 0 0 1-.247-.949c0-.399.117-.75.351-1.053.234-.303.546-.537.936-.702a3.402 3.402 0 0 1 1.313-.247c.476 0 .901.07 1.274.208.372.13.68.334.923.611.242.269.398.62.468 1.053l-1.261.195c-.087-.33-.256-.559-.507-.689a1.776 1.776 0 0 0-.871-.208c-.364 0-.663.074-.897.221-.234.147-.351.338-.351.572a.69.69 0 0 0 .273.559c.182.139.472.251.871.338l.949.195c.641.13 1.135.355 1.482.676.355.32.533.771.533 1.352 0 .442-.126.828-.377 1.157a2.43 2.43 0 0 1-.988.754 3.62 3.62 0 0 1-1.404.26Zm7.055 0c-.658 0-1.235-.152-1.729-.455a3.148 3.148 0 0 1-1.131-1.287c-.26-.546-.39-1.17-.39-1.872 0-.728.139-1.365.416-1.911a3.15 3.15 0 0 1 1.144-1.274c.494-.303 1.058-.455 1.69-.455.694 0 1.27.13 1.729.39.468.26.819.633 1.053 1.118.243.485.364 1.066.364 1.742 0 .121-.004.243-.013.364 0 .113-.008.217-.026.312h-5.564v-1.053h4.225a2.448 2.448 0 0 0-.143-.702 1.466 1.466 0 0 0-.338-.533 1.452 1.452 0 0 0-.546-.338 2.066 2.066 0 0 0-.728-.117c-.372 0-.706.095-1.001.286-.286.182-.511.455-.676.819-.156.364-.234.819-.234 1.365 0 .511.083.94.247 1.287.165.347.395.611.689.793.295.182.633.273 1.014.273.477 0 .845-.104 1.105-.312.269-.217.464-.485.585-.806l1.222.325a2.886 2.886 0 0 1-.988 1.469c-.485.381-1.144.572-1.976.572Zm7.97 2.6v-9.646h1.313v.897h.078c.121-.2.281-.381.481-.546.208-.165.45-.299.728-.403.277-.104.576-.156.897-.156.598 0 1.126.147 1.586.442.459.286.819.702 1.079 1.248.26.537.39 1.183.39 1.937 0 .745-.135 1.391-.403 1.937-.26.546-.62.966-1.079 1.261-.451.286-.975.429-1.573.429-.52 0-.962-.104-1.326-.312-.356-.217-.616-.468-.78-.754h-.078l.078.962v2.704h-1.391Zm3.237-3.887c.372 0 .702-.087.988-.26.294-.173.524-.433.689-.78.164-.355.247-.789.247-1.3 0-.52-.083-.953-.247-1.3a1.745 1.745 0 0 0-.689-.78 1.87 1.87 0 0 0-.988-.26 1.91 1.91 0 0 0-.988.26 1.845 1.845 0 0 0-.689.78c-.165.347-.247.78-.247 1.3 0 .511.082.945.247 1.3.173.347.403.607.689.78.294.173.624.26.988.26ZM130.992 93V82.912h1.404V93h-1.404Zm5.317.208c-.476 0-.892-.087-1.248-.26a2.07 2.07 0 0 1-.832-.754c-.19-.32-.286-.702-.286-1.144 0-.46.117-.845.351-1.157.234-.32.551-.563.949-.728a3.41 3.41 0 0 1 1.313-.247c.243 0 .473.013.689.039.217.017.429.048.637.091a8 8 0 0 1 .624.13v-.65c0-.425-.147-.763-.442-1.014-.294-.26-.684-.39-1.17-.39-.39 0-.723.095-1.001.286-.268.182-.455.45-.559.806l-1.235-.286c.087-.425.265-.784.533-1.079a2.636 2.636 0 0 1 1.001-.663 3.469 3.469 0 0 1 1.274-.234c.962 0 1.695.23 2.197.689.503.46.754 1.118.754 1.976V93h-1.352v-.793h-.078c-.13.173-.294.338-.494.494a2.67 2.67 0 0 1-.702.364 2.75 2.75 0 0 1-.923.143Zm.312-1.144c.382 0 .711-.078.988-.234.278-.165.494-.381.65-.65.165-.277.247-.58.247-.91a4.462 4.462 0 0 0-.858-.221 4.856 4.856 0 0 0-.871-.078c-.459 0-.814.091-1.066.273-.242.182-.364.45-.364.806 0 .303.117.55.351.741.243.182.551.273.923.273Zm5.06.936v-6.838h1.313v.871h.078c.182-.32.451-.58.806-.78.364-.2.772-.299 1.222-.299.78 0 1.374.23 1.781.689.416.46.624 1.096.624 1.911V93h-1.404v-4.264c0-.511-.13-.888-.39-1.131-.251-.243-.58-.364-.988-.364a1.52 1.52 0 0 0-.884.26c-.242.165-.433.39-.572.676-.13.277-.195.59-.195.936V93h-1.391Zm6.793-6.838h4.056v1.222h-4.056v-1.222Zm1.105 4.914V84.29h1.391v6.539c0 .312.069.55.208.715.138.165.351.247.637.247.156 0 .29-.017.403-.052.112-.043.225-.1.338-.169v1.352a3.177 3.177 0 0 1-.455.13 2.612 2.612 0 0 1-.559.052c-.598 0-1.075-.178-1.43-.533-.356-.364-.533-.862-.533-1.495Zm7.013 2.132a3.655 3.655 0 0 1-1.417-.26 2.53 2.53 0 0 1-1.014-.741 2.419 2.419 0 0 1-.481-1.131l1.339-.221c.069.33.238.598.507.806.269.208.624.312 1.066.312.373 0 .693-.074.962-.221.277-.156.416-.381.416-.676a.726.726 0 0 0-.156-.468 1.103 1.103 0 0 0-.455-.338 2.417 2.417 0 0 0-.715-.208l-.819-.156a3.263 3.263 0 0 1-1.014-.351 1.844 1.844 0 0 1-.689-.65 1.777 1.777 0 0 1-.247-.949c0-.399.117-.75.351-1.053.234-.303.546-.537.936-.702a3.406 3.406 0 0 1 1.313-.247c.477 0 .901.07 1.274.208.373.13.68.334.923.611.243.269.399.62.468 1.053l-1.261.195c-.087-.33-.256-.559-.507-.689a1.773 1.773 0 0 0-.871-.208c-.364 0-.663.074-.897.221-.234.147-.351.338-.351.572a.69.69 0 0 0 .273.559c.182.139.472.251.871.338l.949.195c.641.13 1.135.355 1.482.676.355.32.533.771.533 1.352 0 .442-.126.828-.377 1.157a2.43 2.43 0 0 1-.988.754 3.62 3.62 0 0 1-1.404.26Zm9.551 0c-.476 0-.892-.087-1.248-.26a2.07 2.07 0 0 1-.832-.754c-.19-.32-.286-.702-.286-1.144 0-.46.117-.845.351-1.157.234-.32.551-.563.949-.728a3.41 3.41 0 0 1 1.313-.247c.243 0 .473.013.689.039.217.017.429.048.637.091a8 8 0 0 1 .624.13v-.65c0-.425-.147-.763-.442-1.014-.294-.26-.684-.39-1.17-.39-.39 0-.723.095-1.001.286-.268.182-.455.45-.559.806l-1.235-.286c.087-.425.265-.784.533-1.079a2.636 2.636 0 0 1 1.001-.663 3.469 3.469 0 0 1 1.274-.234c.962 0 1.695.23 2.197.689.503.46.754 1.118.754 1.976V93h-1.352v-.793h-.078c-.13.173-.294.338-.494.494a2.67 2.67 0 0 1-.702.364 2.75 2.75 0 0 1-.923.143Zm.312-1.144c.382 0 .711-.078.988-.234.278-.165.494-.381.65-.65.165-.277.247-.58.247-.91a4.462 4.462 0 0 0-.858-.221 4.856 4.856 0 0 0-.871-.078c-.459 0-.814.091-1.066.273-.242.182-.364.45-.364.806 0 .303.117.55.351.741.243.182.551.273.923.273Zm5.06.936v-6.838h1.313v.923h.078a1.885 1.885 0 0 1 .988-.975c.234-.095.486-.143.754-.143.165 0 .299.009.403.026.104.017.195.039.273.065v1.417a1.453 1.453 0 0 0-.403-.13 2.09 2.09 0 0 0-.481-.052c-.294 0-.559.078-.793.234a1.695 1.695 0 0 0-.546.65c-.13.277-.195.59-.195.936V93h-1.391Zm7.659.208c-.659 0-1.235-.152-1.729-.455a3.148 3.148 0 0 1-1.131-1.287c-.26-.546-.39-1.17-.39-1.872 0-.728.139-1.365.416-1.911.277-.546.659-.97 1.144-1.274.494-.303 1.057-.455 1.69-.455.693 0 1.27.13 1.729.39.468.26.819.633 1.053 1.118.243.485.364 1.066.364 1.742 0 .121-.004.243-.013.364 0 .113-.009.217-.026.312h-5.564v-1.053h4.225a2.448 2.448 0 0 0-.143-.702 1.48 1.48 0 0 0-.338-.533 1.452 1.452 0 0 0-.546-.338 2.07 2.07 0 0 0-.728-.117c-.373 0-.706.095-1.001.286-.286.182-.511.455-.676.819-.156.364-.234.819-.234 1.365 0 .511.082.94.247 1.287.165.347.394.611.689.793.295.182.633.273 1.014.273.477 0 .845-.104 1.105-.312.269-.217.464-.485.585-.806l1.222.325a2.892 2.892 0 0 1-.988 1.469c-.485.381-1.144.572-1.976.572Zm7.436-7.046h4.056v1.222h-4.056v-1.222Zm1.105 4.914V84.29h1.391v6.539c0 .312.07.55.208.715.139.165.351.247.637.247.156 0 .291-.017.403-.052.113-.043.226-.1.338-.169v1.352c-.138.052-.29.095-.455.13a2.606 2.606 0 0 1-.559.052c-.598 0-1.074-.178-1.43-.533-.355-.364-.533-.862-.533-1.495ZM192.171 93v-6.838h1.313v.923h.078a1.85 1.85 0 0 1 .39-.572c.173-.173.372-.308.598-.403.234-.095.485-.143.754-.143.164 0 .299.009.403.026.104.017.195.039.273.065v1.417a1.475 1.475 0 0 0-.403-.13 2.103 2.103 0 0 0-.481-.052c-.295 0-.559.078-.793.234a1.678 1.678 0 0 0-.546.65c-.13.277-.195.59-.195.936V93h-1.391Zm7.658.208c-.658 0-1.235-.152-1.729-.455a3.148 3.148 0 0 1-1.131-1.287c-.26-.546-.39-1.17-.39-1.872 0-.728.139-1.365.416-1.911a3.15 3.15 0 0 1 1.144-1.274c.494-.303 1.058-.455 1.69-.455.694 0 1.27.13 1.729.39.468.26.819.633 1.053 1.118.243.485.364 1.066.364 1.742 0 .121-.004.243-.013.364 0 .113-.008.217-.026.312h-5.564v-1.053h4.225a2.448 2.448 0 0 0-.143-.702 1.466 1.466 0 0 0-.338-.533 1.452 1.452 0 0 0-.546-.338 2.066 2.066 0 0 0-.728-.117c-.372 0-.706.095-1.001.286-.286.182-.511.455-.676.819-.156.364-.234.819-.234 1.365 0 .511.083.94.247 1.287.165.347.395.611.689.793.295.182.633.273 1.014.273.477 0 .845-.104 1.105-.312.269-.217.464-.485.585-.806l1.222.325a2.886 2.886 0 0 1-.988 1.469c-.485.381-1.144.572-1.976.572Zm4.643-.208v-6.838h1.313v.871h.078c.182-.32.451-.58.806-.78.364-.2.772-.299 1.222-.299.78 0 1.374.23 1.781.689.416.46.624 1.096.624 1.911V93h-1.404v-4.264c0-.511-.13-.888-.39-1.131-.251-.243-.58-.364-.988-.364a1.52 1.52 0 0 0-.884.26c-.242.165-.433.39-.572.676-.13.277-.195.59-.195.936V93h-1.391Zm10.295.208c-.598 0-1.127-.147-1.586-.442-.46-.295-.819-.71-1.079-1.248-.252-.546-.377-1.192-.377-1.937 0-.754.13-1.4.39-1.937.26-.537.619-.953 1.079-1.248a2.847 2.847 0 0 1 1.573-.442c.346 0 .654.052.923.156.277.095.515.225.715.39.199.156.355.334.468.533h.078l-.078-.975v-3.146h1.391V93h-1.313v-.884h-.078c-.122.19-.282.373-.481.546-.2.165-.438.295-.715.39a2.506 2.506 0 0 1-.91.156Zm.26-1.287c.372 0 .702-.087.988-.26.294-.182.524-.446.689-.793.164-.347.247-.776.247-1.287 0-.52-.083-.949-.247-1.287a1.745 1.745 0 0 0-.689-.78 1.802 1.802 0 0 0-.988-.273c-.373 0-.707.091-1.001.273a1.762 1.762 0 0 0-.676.78c-.156.338-.234.767-.234 1.287 0 .511.078.94.234 1.287.164.347.39.611.676.793.294.173.628.26 1.001.26ZM220.164 93v-6.838h1.391V93h-1.391Zm.702-8.255a.947.947 0 0 1-.676-.273.946.946 0 0 1-.273-.676c0-.269.091-.494.273-.676a.947.947 0 0 1 .676-.273c.26 0 .481.091.663.273a.896.896 0 0 1 .286.676c0 .26-.095.485-.286.676a.903.903 0 0 1-.663.273ZM223.452 93v-6.838h1.313v.871h.078c.182-.32.451-.58.806-.78.364-.2.771-.299 1.222-.299.78 0 1.374.23 1.781.689.416.46.624 1.096.624 1.911V93h-1.404v-4.264c0-.511-.13-.888-.39-1.131-.251-.243-.581-.364-.988-.364-.338 0-.633.087-.884.26-.243.165-.433.39-.572.676-.13.277-.195.59-.195.936V93h-1.391Zm10.387 3.016c-.555 0-1.045-.095-1.469-.286a2.62 2.62 0 0 1-1.027-.754 2.546 2.546 0 0 1-.52-1.066l1.352-.312c.104.338.294.615.572.832.277.225.641.338 1.092.338.615 0 1.079-.186 1.391-.559.312-.373.468-.888.468-1.547v-.78h-.078a2.466 2.466 0 0 1-.845.793c-.33.182-.754.273-1.274.273s-1.001-.134-1.443-.403c-.434-.277-.785-.676-1.053-1.196-.269-.52-.403-1.153-.403-1.898 0-.745.134-1.378.403-1.898.268-.52.624-.914 1.066-1.183.45-.277.94-.416 1.469-.416.476 0 .892.091 1.248.273.355.182.632.433.832.754h.078v-.819h1.326v6.474c0 .728-.13 1.343-.39 1.846-.26.511-.629.893-1.105 1.144-.477.26-1.04.39-1.69.39Zm.013-4.342c.338 0 .645-.082.923-.247a1.74 1.74 0 0 0 .663-.741c.173-.33.26-.741.26-1.235 0-.494-.087-.906-.26-1.235a1.74 1.74 0 0 0-.663-.741 1.775 1.775 0 0 0-.923-.247c-.338 0-.65.082-.936.247a1.812 1.812 0 0 0-.676.741c-.165.33-.247.741-.247 1.235 0 .494.082.906.247 1.235.173.33.398.576.676.741.286.165.598.247.936.247ZM242.178 93v-6.838h1.391V93h-1.391Zm.702-8.255a.945.945 0 0 1-.676-.273.946.946 0 0 1-.273-.676c0-.269.091-.494.273-.676a.945.945 0 0 1 .676-.273c.26 0 .481.091.663.273a.9.9 0 0 1 .286.676c0 .26-.096.485-.286.676a.903.903 0 0 1-.663.273ZM245.466 93v-6.838h1.313v.871h.078c.182-.32.45-.58.806-.78.364-.2.771-.299 1.222-.299.78 0 1.373.23 1.781.689.416.46.624 1.096.624 1.911V93h-1.404v-4.264c0-.511-.13-.888-.39-1.131-.252-.243-.581-.364-.988-.364-.338 0-.633.087-.884.26-.243.165-.434.39-.572.676-.13.277-.195.59-.195.936V93h-1.391Zm10.786 0v-1.352c.303-.234.589-.46.858-.676.269-.217.52-.425.754-.624.234-.2.451-.39.65-.572.208-.19.399-.373.572-.546a4.92 4.92 0 0 0 .455-.52c.217-.26.394-.516.533-.767.139-.26.238-.52.299-.78a3.28 3.28 0 0 0 .104-.819c0-.338-.061-.62-.182-.845a1.253 1.253 0 0 0-.52-.52c-.217-.121-.481-.182-.793-.182-.295 0-.55.06-.767.182-.217.121-.39.299-.52.533a2.2 2.2 0 0 0-.26.806l-1.326-.13c.026-.373.108-.724.247-1.053.139-.33.329-.615.572-.858a2.77 2.77 0 0 1 .884-.572 3.001 3.001 0 0 1 1.183-.221c.607 0 1.122.108 1.547.325.433.217.763.529.988.936.234.407.351.897.351 1.469 0 .407-.052.802-.156 1.183a4.638 4.638 0 0 1-.455 1.092c-.191.347-.42.68-.689 1.001a7.27 7.27 0 0 1-.416.481c-.147.147-.303.299-.468.455a12.92 12.92 0 0 1-.494.442c-.165.139-.338.282-.52.429-.182.139-.364.273-.546.403l.026.039h3.887V93h-5.798Zm10.825.208c-.598 0-1.127-.121-1.586-.364a3.36 3.36 0 0 1-1.144-1.014 4.826 4.826 0 0 1-.715-1.534 7.71 7.71 0 0 1-.234-1.95c0-.702.078-1.348.234-1.937a4.811 4.811 0 0 1 .715-1.547 3.36 3.36 0 0 1 1.144-1.014c.459-.243.984-.364 1.573-.364s1.114.121 1.573.364c.459.243.845.58 1.157 1.014.312.433.546.949.702 1.547.165.59.247 1.235.247 1.937s-.082 1.352-.247 1.95c-.156.59-.39 1.1-.702 1.534a3.329 3.329 0 0 1-1.157 1.014c-.451.243-.971.364-1.56.364Zm-.013-1.313c.503 0 .919-.143 1.248-.429.338-.295.594-.706.767-1.235.173-.537.26-1.166.26-1.885 0-.728-.087-1.356-.26-1.885-.173-.529-.429-.936-.767-1.222-.329-.295-.745-.442-1.248-.442-.494 0-.91.147-1.248.442-.338.286-.594.693-.767 1.222-.165.529-.247 1.157-.247 1.885 0 .72.082 1.348.247 1.885.173.529.429.94.767 1.235.338.286.754.429 1.248.429ZM272.058 93v-1.352c.303-.234.589-.46.858-.676.268-.217.52-.425.754-.624a19.12 19.12 0 0 0 1.222-1.118 4.92 4.92 0 0 0 .455-.52c.216-.26.394-.516.533-.767.138-.26.238-.52.299-.78a3.28 3.28 0 0 0 .104-.819c0-.338-.061-.62-.182-.845a1.259 1.259 0 0 0-.52-.52c-.217-.121-.481-.182-.793-.182-.295 0-.551.06-.767.182-.217.121-.39.299-.52.533a2.2 2.2 0 0 0-.26.806l-1.326-.13c.026-.373.108-.724.247-1.053.138-.33.329-.615.572-.858a2.77 2.77 0 0 1 .884-.572 2.998 2.998 0 0 1 1.183-.221c.606 0 1.122.108 1.547.325.433.217.762.529.988.936.234.407.351.897.351 1.469 0 .407-.052.802-.156 1.183a4.638 4.638 0 0 1-.455 1.092 6.31 6.31 0 0 1-.689 1.001 7.27 7.27 0 0 1-.416.481c-.148.147-.304.299-.468.455a12.92 12.92 0 0 1-.494.442c-.165.139-.338.282-.52.429-.182.139-.364.273-.546.403l.026.039h3.887V93h-5.798Zm9.008 0v-7.475l-2.028 1.482v-1.534l2.431-1.781h.988V93h-1.391Zm5.244-3.094v-.429c0-.303.035-.563.104-.78.07-.225.187-.438.351-.637.174-.208.408-.429.702-.663.191-.156.347-.299.468-.429a1.417 1.417 0 0 0 .39-1.001c0-.347-.117-.624-.351-.832-.225-.217-.55-.325-.975-.325-.251 0-.476.048-.676.143-.19.095-.346.234-.468.416a1.561 1.561 0 0 0-.247.624l-1.287-.169c.044-.442.178-.836.403-1.183a2.42 2.42 0 0 1 .923-.845c.39-.208.845-.312 1.365-.312.564 0 1.045.1 1.443.299.408.19.72.468.936.832.217.355.325.776.325 1.261 0 .364-.056.685-.169.962a2.8 2.8 0 0 1-.442.728 4.04 4.04 0 0 1-.585.572 3.13 3.13 0 0 0-.481.455 1.416 1.416 0 0 0-.247.442 2.121 2.121 0 0 0-.065.559v.312h-1.417Zm.702 3.172a.955.955 0 0 1-.975-.975.955.955 0 0 1 .975-.975c.269 0 .494.095.676.286.191.19.286.42.286.689a.938.938 0 0 1-.286.689.896.896 0 0 1-.676.286Z" fill="#45494C"/><path d="M199.47 16.24c-.94 0-1.77-.265-2.49-.795-.72-.53-1.225-1.28-1.515-2.25l1.905-.75c.15.57.405 1.025.765 1.365.36.34.81.51 1.35.51.45 0 .835-.11 1.155-.33.32-.23.48-.545.48-.945 0-.4-.155-.725-.465-.975-.3-.26-.84-.535-1.62-.825l-.66-.24a4.602 4.602 0 0 1-1.77-1.095c-.49-.5-.735-1.125-.735-1.875 0-.56.145-1.07.435-1.53.29-.46.7-.82 1.23-1.08.53-.27 1.13-.405 1.8-.405.97 0 1.735.23 2.295.69.56.45.945.98 1.155 1.59L201 8.05a1.723 1.723 0 0 0-.585-.825c-.27-.23-.62-.345-1.05-.345-.44 0-.805.105-1.095.315-.28.2-.42.465-.42.795 0 .32.135.595.405.825.27.22.715.435 1.335.645l.675.225c.93.32 1.64.745 2.13 1.275.5.52.75 1.205.75 2.055 0 .7-.18 1.295-.54 1.785-.36.48-.825.84-1.395 1.08-.56.24-1.14.36-1.74.36Zm7.663 0c-.81 0-1.475-.235-1.995-.705-.52-.48-.78-1.105-.78-1.875 0-.51.135-.96.405-1.35.27-.39.64-.69 1.11-.9.47-.21.99-.315 1.56-.315.79 0 1.465.115 2.025.345v-.33c0-.42-.16-.76-.48-1.02-.31-.26-.73-.39-1.26-.39-.36 0-.71.085-1.05.255-.33.16-.605.375-.825.645l-1.26-.99c.37-.48.835-.85 1.395-1.11.56-.26 1.17-.39 1.83-.39 1.17 0 2.06.27 2.67.81.61.54.915 1.33.915 2.37V16h-1.935v-.78h-.12c-.23.3-.535.545-.915.735-.37.19-.8.285-1.29.285Zm.465-1.53c.57 0 1.02-.18 1.35-.54.34-.37.51-.8.51-1.29a3.725 3.725 0 0 0-1.605-.36c-1.02 0-1.53.38-1.53 1.14 0 .31.11.565.33.765.22.19.535.285.945.285Zm4.602-6.36h2.235l1.935 4.98h.12l1.965-4.98h2.205L217.39 16h-1.95l-3.24-7.65Zm12.892 7.89c-.76 0-1.445-.175-2.055-.525-.61-.35-1.09-.83-1.44-1.44-.34-.62-.51-1.315-.51-2.085 0-.73.17-1.405.51-2.025.34-.63.81-1.13 1.41-1.5.6-.37 1.27-.555 2.01-.555.79 0 1.47.17 2.04.51.57.34 1 .805 1.29 1.395.3.59.45 1.245.45 1.965 0 .23-.015.45-.045.66h-5.745c.1.61.34 1.075.72 1.395.39.31.855.465 1.395.465.45 0 .835-.095 1.155-.285.33-.2.59-.465.78-.795l1.59.78c-.78 1.36-1.965 2.04-3.555 2.04Zm1.815-4.995c-.02-.24-.11-.475-.27-.705a1.669 1.669 0 0 0-.645-.585c-.27-.16-.59-.24-.96-.24-.47 0-.875.14-1.215.42-.33.27-.57.64-.72 1.11h3.81Zm6.762 4.995c-.69 0-1.32-.17-1.89-.51a3.785 3.785 0 0 1-1.335-1.44c-.32-.62-.48-1.325-.48-2.115 0-.78.16-1.48.48-2.1.33-.62.775-1.1 1.335-1.44.57-.35 1.2-.525 1.89-.525.52 0 .98.115 1.38.345.4.22.705.495.915.825h.12l-.12-1.08V5.26h1.95V16h-1.83v-.915h-.12c-.2.33-.505.605-.915.825-.4.22-.86.33-1.38.33Zm.33-1.815c.37 0 .715-.095 1.035-.285.32-.19.575-.455.765-.795.19-.34.285-.73.285-1.17 0-.44-.095-.83-.285-1.17a1.98 1.98 0 0 0-.765-.78 1.992 1.992 0 0 0-2.055 0c-.32.18-.575.44-.765.78-.19.34-.285.73-.285 1.17 0 .44.095.83.285 1.17.19.34.445.605.765.795.32.19.66.285 1.02.285ZM335.23 5.26h3.63c1.12 0 2.095.225 2.925.675.83.45 1.47 1.08 1.92 1.89.45.81.675 1.745.675 2.805s-.225 1.995-.675 2.805c-.45.81-1.09 1.44-1.92 1.89-.83.45-1.805.675-2.925.675h-3.63V5.26Zm3.54 8.82c1.16 0 2.045-.305 2.655-.915.61-.62.915-1.465.915-2.535s-.305-1.91-.915-2.52c-.61-.62-1.495-.93-2.655-.93h-1.515v6.9h1.515Zm6.971-5.73h1.845v1.02h.12c.19-.36.485-.655.885-.885.4-.24.84-.36 1.32-.36.35 0 .67.055.96.165v1.965c-.27-.1-.5-.17-.69-.21a2.18 2.18 0 0 0-.585-.075c-.58 0-1.04.21-1.38.63-.34.42-.51.95-.51 1.59V16h-1.965V8.35Zm8.507 7.89c-.81 0-1.475-.235-1.995-.705-.52-.48-.78-1.105-.78-1.875 0-.51.135-.96.405-1.35.27-.39.64-.69 1.11-.9.47-.21.99-.315 1.56-.315.79 0 1.465.115 2.025.345v-.33c0-.42-.16-.76-.48-1.02-.31-.26-.73-.39-1.26-.39-.36 0-.71.085-1.05.255-.33.16-.605.375-.825.645l-1.26-.99c.37-.48.835-.85 1.395-1.11.56-.26 1.17-.39 1.83-.39 1.17 0 2.06.27 2.67.81.61.54.915 1.33.915 2.37V16h-1.935v-.78h-.12c-.23.3-.535.545-.915.735-.37.19-.8.285-1.29.285Zm.465-1.53c.57 0 1.02-.18 1.35-.54.34-.37.51-.8.51-1.29a3.725 3.725 0 0 0-1.605-.36c-1.02 0-1.53.38-1.53 1.14 0 .31.11.565.33.765.22.19.535.285.945.285Zm13.812 1.41c-.38 0-.73-.055-1.05-.165-.32-.11-.585-.27-.795-.48-.46-.46-.69-1.1-.69-1.92V10.03h-3.03V16h-1.965v-5.97h-1.365V8.35h1.365v-.42c0-.87.26-1.55.78-2.04.52-.5 1.2-.75 2.04-.75.34 0 .62.03.84.09v1.89a6.458 6.458 0 0 1-.255-.075c-.13-.04-.285-.06-.465-.06a.927.927 0 0 0-.705.285c-.18.19-.27.45-.27.78v.3h3.03V6.19h1.965v2.16h1.86v1.68h-1.86v3.165c0 .39.085.67.255.84.14.16.38.24.72.24.19 0 .345-.025.465-.075.13-.05.295-.135.495-.255v1.92c-.43.17-.885.255-1.365.255Zm5.981.12c-.93 0-1.685-.19-2.265-.57-.57-.38-.97-.875-1.2-1.485l1.755-.765c.16.36.385.635.675.825.3.18.645.27 1.035.27.36 0 .66-.055.9-.165.24-.12.36-.31.36-.57 0-.25-.11-.435-.33-.555-.22-.13-.55-.245-.99-.345l-.9-.195c-.62-.15-1.135-.42-1.545-.81-.41-.4-.615-.895-.615-1.485 0-.44.13-.835.39-1.185.27-.35.63-.62 1.08-.81a3.93 3.93 0 0 1 1.515-.285c1.58 0 2.635.555 3.165 1.665l-1.68.735c-.3-.54-.78-.81-1.44-.81-.34 0-.61.065-.81.195-.2.12-.3.275-.3.465 0 .36.34.63 1.02.81l1.125.27c.76.19 1.33.48 1.71.87.39.39.585.87.585 1.44 0 .49-.145.925-.435 1.305-.28.37-.67.66-1.17.87a4.11 4.11 0 0 1-1.635.315Z" fill="#757575"/><path fill="#2A76E5" d="M47 29h109v3H47z"/><path fill="#E9F0FE" d="M47 56h117v16H47z"/><path d="M52.891 68v-7.876h1.21v3.278h3.685v-3.278h1.199V68h-1.199v-3.454h-3.685V68h-1.21Zm11.474.176c-.587 0-1.13-.106-1.628-.319a4.02 4.02 0 0 1-2.145-2.189 4.177 4.177 0 0 1-.308-1.606c0-.572.102-1.107.308-1.606a4.02 4.02 0 0 1 2.145-2.189 4.106 4.106 0 0 1 1.628-.319c.579 0 1.114.106 1.606.319.498.213.93.506 1.298.88.374.374.66.81.858 1.309.205.499.308 1.034.308 1.606 0 .572-.103 1.107-.308 1.606a3.828 3.828 0 0 1-.858 1.309c-.367.374-.8.667-1.298.88a3.999 3.999 0 0 1-1.606.319Zm0-1.144c.528 0 1.008-.125 1.44-.374.433-.25.778-.598 1.035-1.045.256-.447.385-.964.385-1.551s-.129-1.104-.385-1.551a2.774 2.774 0 0 0-1.034-1.045 2.834 2.834 0 0 0-1.441-.374c-.528 0-1.009.125-1.441.374-.433.25-.778.598-1.034 1.045-.257.447-.385.964-.385 1.551s.128 1.104.385 1.551c.256.447.6.796 1.034 1.045.432.25.913.374 1.44.374Zm5.489.968v-7.876h1.628l2.299 5.995h.066l2.31-5.995h1.628V68h-1.188v-4.455l.066-1.397h-.066L74.297 68h-.956l-2.3-5.852h-.065l.066 1.397V68h-1.188Zm9.733 0v-7.876h4.774v1.144h-3.564v2.222h3.212v1.144h-3.212v2.222h3.564V68h-4.774Zm7.847 0 2.97-7.876h1.375L94.76 68h-1.33l-.727-2.024h-3.212L88.765 68h-1.33Zm3.333-5.555-.869 2.409h2.398l-.869-2.409-.297-.902h-.066l-.297.902ZM95.841 68v-7.876h1.43l3.564 5.786h.066l-.066-1.518v-4.268h1.199V68h-1.254l-3.74-6.083h-.066l.066 1.518V68h-1.199Zm7.993 0v-7.876h2.519c.829 0 1.54.169 2.134.506.601.33 1.063.792 1.386 1.386.33.594.495 1.276.495 2.046 0 .777-.165 1.463-.495 2.057a3.504 3.504 0 0 1-1.386 1.386c-.594.33-1.305.495-2.134.495h-2.519Zm1.21-1.144h1.276c.895 0 1.588-.25 2.079-.748.499-.499.748-1.18.748-2.046 0-.865-.249-1.547-.748-2.046-.491-.499-1.184-.748-2.079-.748h-1.276v5.588Zm13.047 1.32a4.152 4.152 0 0 1-1.595-.308 4.198 4.198 0 0 1-1.32-.858 4.27 4.27 0 0 1-.891-1.309 4.199 4.199 0 0 1-.319-1.639c0-.587.107-1.13.319-1.628.22-.506.517-.942.891-1.309a4.106 4.106 0 0 1 2.915-1.177c.602 0 1.155.106 1.661.319.514.213.943.51 1.287.891l-.836.836a2.533 2.533 0 0 0-.924-.671 2.935 2.935 0 0 0-1.188-.231c-.513 0-.99.125-1.43.374-.44.242-.795.587-1.067 1.034-.271.44-.407.96-.407 1.562 0 .601.136 1.126.407 1.573.272.44.627.785 1.067 1.034.448.242.928.363 1.441.363.499 0 .91-.077 1.232-.231.323-.161.587-.345.792-.55.352-.352.572-.832.66-1.441h-2.706v-1.067h3.828c.022.088.037.187.044.297.015.11.022.224.022.341 0 .47-.073.935-.22 1.397a3.073 3.073 0 0 1-.748 1.221 3.521 3.521 0 0 1-1.254.869c-.491.205-1.045.308-1.661.308Zm4.333-.176 2.97-7.876h1.375L129.75 68h-1.331l-.726-2.024h-3.212L123.755 68h-1.331Zm3.333-5.555-.869 2.409h2.398l-.869-2.409-.297-.902h-.066l-.297.902ZM130.831 68v-7.876h2.761c.484 0 .917.103 1.298.308.382.205.682.491.902.858.228.36.341.774.341 1.243 0 .36-.08.693-.242 1.001-.161.3-.377.557-.649.77a2.74 2.74 0 0 1-.902.451l-.011.055 2.167 3.124V68h-1.397l-2.101-3.091h-.957V68h-1.21Zm1.21-4.202h1.518c.374 0 .693-.117.957-.352.264-.242.396-.55.396-.924 0-.213-.051-.414-.154-.605a1.16 1.16 0 0 0-.451-.473 1.257 1.257 0 0 0-.704-.187h-1.562v2.541ZM137.567 68v-7.876h2.519c.829 0 1.54.169 2.134.506.601.33 1.063.792 1.386 1.386.33.594.495 1.276.495 2.046 0 .777-.165 1.463-.495 2.057a3.504 3.504 0 0 1-1.386 1.386c-.594.33-1.305.495-2.134.495h-2.519Zm1.21-1.144h1.276c.895 0 1.588-.25 2.079-.748.499-.499.748-1.18.748-2.046 0-.865-.249-1.547-.748-2.046-.491-.499-1.184-.748-2.079-.748h-1.276v5.588ZM145.506 68v-7.876h4.774v1.144h-3.564v2.222h3.212v1.144h-3.212v2.222h3.564V68h-4.774Zm6.317 0v-7.876h1.43l3.564 5.786h.066l-.066-1.518v-4.268h1.199V68h-1.254l-3.74-6.083h-.066l.066 1.518V68h-1.199Z" fill="#212121"/><path fill="#E9F0FE" d="M47 124h117v16H47z"/><path d="M52.891 136v-7.876h1.21v3.278h3.685v-3.278h1.199V136h-1.199v-3.454h-3.685V136h-1.21Zm11.474.176a4.1 4.1 0 0 1-1.628-.319 4.025 4.025 0 0 1-2.145-2.189 4.178 4.178 0 0 1-.308-1.606c0-.572.102-1.107.308-1.606a4.025 4.025 0 0 1 2.145-2.189 4.1 4.1 0 0 1 1.628-.319c.579 0 1.114.106 1.606.319.498.213.93.506 1.298.88.374.374.66.81.858 1.309.205.499.308 1.034.308 1.606 0 .572-.103 1.107-.308 1.606a3.826 3.826 0 0 1-.858 1.309c-.367.374-.8.667-1.298.88a3.994 3.994 0 0 1-1.606.319Zm0-1.144c.528 0 1.008-.125 1.44-.374a2.774 2.774 0 0 0 1.035-1.045c.256-.447.385-.964.385-1.551s-.129-1.104-.385-1.551a2.774 2.774 0 0 0-1.034-1.045 2.837 2.837 0 0 0-1.441-.374c-.528 0-1.009.125-1.441.374a2.774 2.774 0 0 0-1.034 1.045c-.257.447-.385.964-.385 1.551s.128 1.104.385 1.551c.256.447.6.796 1.034 1.045.432.249.913.374 1.44.374Zm5.489.968v-7.876h1.628l2.299 5.995h.066l2.31-5.995h1.628V136h-1.188v-4.455l.066-1.397h-.066l-2.3 5.852h-.956l-2.3-5.852h-.065l.066 1.397V136h-1.188Zm9.733 0v-7.876h4.774v1.144h-3.564v2.222h3.212v1.144h-3.212v2.222h3.564V136h-4.774Zm7.847 0 2.97-7.876h1.375L94.76 136h-1.33l-.727-2.024h-3.212L88.765 136h-1.33Zm3.333-5.555-.869 2.409h2.398l-.869-2.409-.297-.902h-.066l-.297.902ZM95.841 136v-7.876h1.43l3.564 5.786h.066l-.066-1.518v-4.268h1.199V136h-1.254l-3.74-6.083h-.066l.066 1.518V136h-1.199Zm7.993 0v-7.876h2.519c.829 0 1.54.169 2.134.506.601.33 1.063.792 1.386 1.386.33.594.495 1.276.495 2.046 0 .777-.165 1.463-.495 2.057a3.5 3.5 0 0 1-1.386 1.386c-.594.33-1.305.495-2.134.495h-2.519Zm1.21-1.144h1.276c.895 0 1.588-.249 2.079-.748.499-.499.748-1.181.748-2.046 0-.865-.249-1.547-.748-2.046-.491-.499-1.184-.748-2.079-.748h-1.276v5.588Zm13.047 1.32a4.158 4.158 0 0 1-2.915-1.166 4.266 4.266 0 0 1-.891-1.309 4.198 4.198 0 0 1-.319-1.639c0-.587.107-1.129.319-1.628.22-.506.517-.942.891-1.309a4.1 4.1 0 0 1 1.32-.869 4.158 4.158 0 0 1 1.595-.308c.602 0 1.155.106 1.661.319.514.213.943.51 1.287.891l-.836.836a2.537 2.537 0 0 0-.924-.671 2.935 2.935 0 0 0-1.188-.231c-.513 0-.99.125-1.43.374-.44.242-.795.587-1.067 1.034-.271.44-.407.961-.407 1.562 0 .601.136 1.126.407 1.573.272.44.627.785 1.067 1.034.448.242.928.363 1.441.363.499 0 .91-.077 1.232-.231.323-.161.587-.345.792-.55.352-.352.572-.832.66-1.441h-2.706v-1.067h3.828c.022.088.037.187.044.297.015.11.022.224.022.341 0 .469-.073.935-.22 1.397a3.068 3.068 0 0 1-.748 1.221 3.517 3.517 0 0 1-1.254.869c-.491.205-1.045.308-1.661.308Zm4.333-.176 2.97-7.876h1.375L129.75 136h-1.331l-.726-2.024h-3.212l-.726 2.024h-1.331Zm3.333-5.555-.869 2.409h2.398l-.869-2.409-.297-.902h-.066l-.297.902Zm5.074 5.555v-7.876h2.761c.484 0 .917.103 1.298.308.382.205.682.491.902.858.228.359.341.774.341 1.243 0 .359-.08.693-.242 1.001a2.414 2.414 0 0 1-.649.77 2.74 2.74 0 0 1-.902.451l-.011.055 2.167 3.124V136h-1.397l-2.101-3.091h-.957V136h-1.21Zm1.21-4.202h1.518c.374 0 .693-.117.957-.352.264-.242.396-.55.396-.924 0-.213-.051-.414-.154-.605a1.159 1.159 0 0 0-.451-.473c-.19-.125-.425-.187-.704-.187h-1.562v2.541Zm5.526 4.202v-7.876h2.519c.829 0 1.54.169 2.134.506.601.33 1.063.792 1.386 1.386.33.594.495 1.276.495 2.046 0 .777-.165 1.463-.495 2.057a3.5 3.5 0 0 1-1.386 1.386c-.594.33-1.305.495-2.134.495h-2.519Zm1.21-1.144h1.276c.895 0 1.588-.249 2.079-.748.499-.499.748-1.181.748-2.046 0-.865-.249-1.547-.748-2.046-.491-.499-1.184-.748-2.079-.748h-1.276v5.588Zm6.729 1.144v-7.876h4.774v1.144h-3.564v2.222h3.212v1.144h-3.212v2.222h3.564V136h-4.774Zm6.317 0v-7.876h1.43l3.564 5.786h.066l-.066-1.518v-4.268h1.199V136h-1.254l-3.74-6.083h-.066l.066 1.518V136h-1.199Z" fill="#212121"/><path d="M0 112h500" stroke="#000" stroke-opacity=".1"/><path d="m46.221 159 3.367-9.308h1.625l3.38 9.308h-1.56l-2.262-6.565-.325-1.066h-.078l-.338 1.066L47.768 159h-1.547Zm4.186-2.392v-1.326H52.5l.468 1.326h-2.561Zm-2.561 0 .468-1.326h2.093v1.326h-2.561ZM55.76 159v-6.838h1.313v.923h.078a1.864 1.864 0 0 1 1.741-1.118c.165 0 .3.009.403.026.105.017.195.039.273.065v1.417a1.453 1.453 0 0 0-.402-.13 2.08 2.08 0 0 0-.481-.052c-.295 0-.56.078-.794.234a1.692 1.692 0 0 0-.545.65c-.13.277-.195.589-.195.936V159h-1.392Zm7.658.208c-.659 0-1.235-.152-1.729-.455a3.143 3.143 0 0 1-1.13-1.287c-.26-.546-.39-1.17-.39-1.872 0-.728.138-1.365.415-1.911a3.14 3.14 0 0 1 1.144-1.274c.494-.303 1.057-.455 1.69-.455.693 0 1.27.13 1.73.39.467.26.818.633 1.052 1.118.243.485.364 1.066.364 1.742 0 .121-.004.243-.013.364 0 .113-.009.217-.026.312h-5.564v-1.053h4.225a2.462 2.462 0 0 0-.143-.702 1.473 1.473 0 0 0-.338-.533 1.462 1.462 0 0 0-.546-.338 2.07 2.07 0 0 0-.728-.117 1.8 1.8 0 0 0-1 .286c-.287.182-.512.455-.677.819-.156.364-.234.819-.234 1.365 0 .511.082.94.247 1.287.165.347.394.611.69.793a1.89 1.89 0 0 0 1.013.273c.477 0 .845-.104 1.105-.312.269-.217.464-.485.585-.806l1.222.325a2.894 2.894 0 0 1-.988 1.469c-.485.381-1.144.572-1.976.572Zm7.97-.208v-6.838H72.7v.858h.078c.12-.208.277-.39.468-.546.19-.165.407-.29.65-.377a2.12 2.12 0 0 1 .78-.143c.459 0 .844.104 1.156.312.321.199.555.468.703.806.199-.329.472-.598.819-.806.355-.208.784-.312 1.286-.312.711 0 1.244.217 1.6.65.364.425.546 1.005.546 1.742V159h-1.379v-4.433c0-.451-.103-.784-.311-1.001-.2-.225-.486-.338-.858-.338a1.31 1.31 0 0 0-.755.221 1.47 1.47 0 0 0-.506.611 2.01 2.01 0 0 0-.182.884V159H75.39v-4.42c0-.459-.104-.797-.312-1.014-.207-.225-.502-.338-.883-.338-.278 0-.525.074-.742.221a1.51 1.51 0 0 0-.493.611c-.122.26-.183.559-.183.897V159h-1.39Zm14.198.208c-.684 0-1.278-.152-1.78-.455a3.173 3.173 0 0 1-1.17-1.287c-.27-.546-.403-1.174-.403-1.885 0-.719.134-1.348.402-1.885a3.082 3.082 0 0 1 1.17-1.274c.503-.312 1.097-.468 1.781-.468.694 0 1.288.156 1.782.468.502.303.888.728 1.157 1.274.277.537.415 1.166.415 1.885 0 .711-.138 1.339-.415 1.885a3.082 3.082 0 0 1-1.157 1.287c-.494.303-1.088.455-1.781.455Zm0-1.287c.39 0 .733-.091 1.028-.273a1.82 1.82 0 0 0 .688-.793c.165-.355.247-.78.247-1.274 0-.503-.082-.927-.247-1.274a1.82 1.82 0 0 0-.689-.793 1.89 1.89 0 0 0-1.013-.273c-.39 0-.733.091-1.027.273a1.904 1.904 0 0 0-.702.793c-.165.347-.247.771-.247 1.274s.082.927.247 1.274c.173.347.407.611.702.793.303.182.64.273 1.014.273ZM90.305 159v-6.838h1.313v.871h.078c.181-.321.45-.581.806-.78a2.505 2.505 0 0 1 1.221-.299c.78 0 1.374.23 1.782.689.415.459.623 1.096.623 1.911V159h-1.403v-4.264c0-.511-.13-.888-.39-1.131-.252-.243-.581-.364-.989-.364a1.52 1.52 0 0 0-.883.26c-.243.165-.434.39-.573.676-.13.277-.194.589-.194.936V159h-1.391Zm10.022.208c-.528 0-1-.087-1.417-.26a2.524 2.524 0 0 1-1.014-.741 2.421 2.421 0 0 1-.48-1.131l1.338-.221c.07.329.239.598.507.806.269.208.624.312 1.066.312.373 0 .694-.074.962-.221.278-.156.416-.381.416-.676a.726.726 0 0 0-.156-.468 1.097 1.097 0 0 0-.455-.338 2.408 2.408 0 0 0-.715-.208l-.819-.156a3.242 3.242 0 0 1-1.014-.351 1.844 1.844 0 0 1-.689-.65 1.78 1.78 0 0 1-.247-.949c0-.399.117-.75.351-1.053.234-.303.546-.537.936-.702a3.4 3.4 0 0 1 1.313-.247c.477 0 .902.069 1.274.208.373.13.681.334.923.611.243.269.399.62.468 1.053l-1.261.195c-.086-.329-.255-.559-.507-.689a1.767 1.767 0 0 0-.871-.208c-.364 0-.663.074-.897.221-.234.147-.35.338-.35.572a.69.69 0 0 0 .272.559c.182.139.473.251.871.338l.949.195c.642.13 1.136.355 1.482.676.356.321.533.771.533 1.352 0 .442-.125.828-.377 1.157a2.421 2.421 0 0 1-.988.754c-.416.173-.884.26-1.404.26Zm3.549-7.046h4.056v1.222h-4.056v-1.222Zm1.105 4.914v-6.786h1.391v6.539c0 .312.069.55.208.715.139.165.351.247.637.247.156 0 .29-.017.403-.052.113-.043.225-.1.338-.169v1.352c-.139.052-.29.095-.455.13a2.587 2.587 0 0 1-.559.052c-.598 0-1.075-.178-1.43-.533-.355-.364-.533-.862-.533-1.495Zm7.036 2.132c-.659 0-1.235-.152-1.729-.455a3.134 3.134 0 0 1-1.131-1.287c-.26-.546-.39-1.17-.39-1.872 0-.728.138-1.365.416-1.911a3.133 3.133 0 0 1 1.144-1.274c.494-.303 1.057-.455 1.69-.455.693 0 1.269.13 1.729.39.468.26.819.633 1.053 1.118.242.485.364 1.066.364 1.742 0 .121-.005.243-.013.364 0 .113-.009.217-.026.312h-5.564v-1.053h4.225a2.482 2.482 0 0 0-.143-.702 1.477 1.477 0 0 0-.338-.533 1.472 1.472 0 0 0-.546-.338 2.07 2.07 0 0 0-.728-.117c-.373 0-.707.095-1.001.286-.286.182-.512.455-.676.819-.156.364-.234.819-.234 1.365 0 .511.082.94.247 1.287.164.347.394.611.689.793.294.182.632.273 1.014.273.476 0 .845-.104 1.105-.312.268-.217.463-.485.585-.806l1.222.325a2.9 2.9 0 0 1-.988 1.469c-.486.381-1.144.572-1.976.572Zm4.643-.208v-6.838h1.313v.923h.078a1.867 1.867 0 0 1 .988-.975c.234-.095.485-.143.754-.143.165 0 .299.009.403.026.104.017.195.039.273.065v1.417a1.454 1.454 0 0 0-.403-.13 2.08 2.08 0 0 0-.481-.052c-.295 0-.559.078-.793.234a1.697 1.697 0 0 0-.546.65c-.13.277-.195.589-.195.936V159h-1.391Zm7.057.208c-.477 0-.893-.087-1.248-.26a2.055 2.055 0 0 1-.832-.754c-.191-.321-.286-.702-.286-1.144 0-.459.117-.845.351-1.157.234-.321.55-.563.949-.728a3.397 3.397 0 0 1 1.313-.247c.242 0 .472.013.689.039.216.017.429.048.637.091.208.035.416.078.624.13v-.65c0-.425-.148-.763-.442-1.014-.295-.26-.685-.39-1.17-.39-.39 0-.724.095-1.001.286-.269.182-.455.451-.559.806l-1.235-.286c.086-.425.264-.784.533-1.079a2.621 2.621 0 0 1 1.001-.663 3.46 3.46 0 0 1 1.274-.234c.962 0 1.694.23 2.197.689.502.459.754 1.118.754 1.976V159h-1.352v-.793h-.078c-.13.173-.295.338-.494.494-.2.147-.434.269-.702.364a2.765 2.765 0 0 1-.923.143Zm.312-1.144c.381 0 .71-.078.988-.234a1.8 1.8 0 0 0 .65-.65c.164-.277.247-.581.247-.91a4.44 4.44 0 0 0-.858-.221 4.865 4.865 0 0 0-.871-.078c-.46 0-.815.091-1.066.273-.243.182-.364.451-.364.806 0 .303.117.55.351.741.242.182.55.273.923.273Zm11.233 1.144c-.659 0-1.235-.152-1.729-.455a3.148 3.148 0 0 1-1.131-1.287c-.26-.546-.39-1.17-.39-1.872 0-.728.139-1.365.416-1.911a3.14 3.14 0 0 1 1.144-1.274c.494-.303 1.057-.455 1.69-.455.693 0 1.27.13 1.729.39.468.26.819.633 1.053 1.118.243.485.364 1.066.364 1.742 0 .121-.004.243-.013.364 0 .113-.009.217-.026.312h-5.564v-1.053h4.225a2.448 2.448 0 0 0-.143-.702 1.477 1.477 0 0 0-.338-.533 1.456 1.456 0 0 0-.546-.338 2.07 2.07 0 0 0-.728-.117 1.8 1.8 0 0 0-1.001.286c-.286.182-.511.455-.676.819-.156.364-.234.819-.234 1.365 0 .511.082.94.247 1.287.165.347.394.611.689.793.295.182.633.273 1.014.273.477 0 .845-.104 1.105-.312.269-.217.464-.485.585-.806l1.222.325a2.893 2.893 0 0 1-.988 1.469c-.485.381-1.144.572-1.976.572Zm6.787 0c-.477 0-.893-.087-1.248-.26a2.055 2.055 0 0 1-.832-.754c-.191-.321-.286-.702-.286-1.144 0-.459.117-.845.351-1.157.234-.321.55-.563.949-.728a3.397 3.397 0 0 1 1.313-.247c.242 0 .472.013.689.039.216.017.429.048.637.091.208.035.416.078.624.13v-.65c0-.425-.148-.763-.442-1.014-.295-.26-.685-.39-1.17-.39-.39 0-.724.095-1.001.286-.269.182-.455.451-.559.806l-1.235-.286c.086-.425.264-.784.533-1.079a2.621 2.621 0 0 1 1.001-.663 3.46 3.46 0 0 1 1.274-.234c.962 0 1.694.23 2.197.689.502.459.754 1.118.754 1.976V159h-1.352v-.793h-.078c-.13.173-.295.338-.494.494-.2.147-.434.269-.702.364a2.765 2.765 0 0 1-.923.143Zm.312-1.144c.381 0 .71-.078.988-.234a1.8 1.8 0 0 0 .65-.65c.164-.277.247-.581.247-.91a4.44 4.44 0 0 0-.858-.221 4.865 4.865 0 0 0-.871-.078c-.46 0-.815.091-1.066.273-.243.182-.364.451-.364.806 0 .303.117.55.351.741.242.182.55.273.923.273Zm7.427 1.144a3.664 3.664 0 0 1-1.417-.26 2.524 2.524 0 0 1-1.014-.741 2.432 2.432 0 0 1-.481-1.131l1.339-.221c.07.329.239.598.507.806.269.208.624.312 1.066.312.373 0 .694-.074.962-.221.278-.156.416-.381.416-.676a.726.726 0 0 0-.156-.468 1.097 1.097 0 0 0-.455-.338 2.408 2.408 0 0 0-.715-.208l-.819-.156a3.248 3.248 0 0 1-1.014-.351 1.852 1.852 0 0 1-.689-.65 1.787 1.787 0 0 1-.247-.949c0-.399.117-.75.351-1.053.234-.303.546-.537.936-.702a3.404 3.404 0 0 1 1.313-.247c.477 0 .902.069 1.274.208.373.13.681.334.923.611.243.269.399.62.468 1.053l-1.261.195c-.086-.329-.255-.559-.507-.689a1.767 1.767 0 0 0-.871-.208c-.364 0-.663.074-.897.221-.234.147-.351.338-.351.572a.69.69 0 0 0 .273.559c.182.139.473.251.871.338l.949.195c.642.13 1.136.355 1.482.676.356.321.533.771.533 1.352 0 .442-.125.828-.377 1.157a2.421 2.421 0 0 1-.988.754c-.416.173-.884.26-1.404.26Zm4.652 2.665c-.199 0-.39-.017-.572-.052a2.26 2.26 0 0 1-.481-.143v-1.326c.087.043.213.095.377.156.174.069.369.104.585.104.182 0 .343-.035.481-.104a1.07 1.07 0 0 0 .403-.351c.13-.156.256-.377.377-.663l.793-1.898.234-.611 1.846-4.823h1.521l-3.198 7.8c-.182.459-.385.828-.611 1.105-.225.286-.481.49-.767.611-.277.13-.606.195-.988.195Zm1.729-2.34-3.016-7.371h1.56l1.872 4.823h.728l-1.144 2.548Zm7.756-7.371h4.056v1.222h-4.056v-1.222Zm1.105 4.914v-6.786h1.391v6.539c0 .312.069.55.208.715.138.165.351.247.637.247.156 0 .29-.017.403-.052.112-.043.225-.1.338-.169v1.352a3.217 3.217 0 0 1-.455.13 2.593 2.593 0 0 1-.559.052c-.598 0-1.075-.178-1.43-.533-.356-.364-.533-.862-.533-1.495Zm7.14 2.132c-.685 0-1.279-.152-1.781-.455a3.167 3.167 0 0 1-1.17-1.287c-.269-.546-.403-1.174-.403-1.885 0-.719.134-1.348.403-1.885a3.076 3.076 0 0 1 1.17-1.274c.502-.312 1.096-.468 1.781-.468.693 0 1.287.156 1.781.468.502.303.888.728 1.157 1.274.277.537.416 1.166.416 1.885 0 .711-.139 1.339-.416 1.885a3.09 3.09 0 0 1-1.157 1.287c-.494.303-1.088.455-1.781.455Zm0-1.287c.39 0 .732-.091 1.027-.273.294-.182.524-.446.689-.793.164-.355.247-.78.247-1.274 0-.503-.083-.927-.247-1.274a1.826 1.826 0 0 0-.689-.793 1.891 1.891 0 0 0-1.014-.273c-.39 0-.733.091-1.027.273a1.899 1.899 0 0 0-.702.793c-.165.347-.247.771-.247 1.274s.082.927.247 1.274c.173.347.407.611.702.793.303.182.641.273 1.014.273Zm11.03 1.287c-.65 0-1.222-.147-1.716-.442a3.133 3.133 0 0 1-1.144-1.274c-.269-.546-.403-1.183-.403-1.911 0-.737.138-1.374.416-1.911a3.111 3.111 0 0 1 1.17-1.261c.502-.303 1.079-.455 1.729-.455.814 0 1.486.204 2.015.611.528.407.849.966.962 1.677l-1.352.221a1.496 1.496 0 0 0-.559-.884c-.278-.225-.642-.338-1.092-.338-.356 0-.676.091-.962.273a1.84 1.84 0 0 0-.689.78c-.165.347-.247.776-.247 1.287 0 .503.082.932.247 1.287.164.347.39.611.676.793.286.173.611.26.975.26.433 0 .784-.108 1.053-.325.277-.217.481-.537.611-.962l1.313.312a3.046 3.046 0 0 1-1.001 1.638c-.503.416-1.17.624-2.002.624Zm6.507 0c-.477 0-.893-.087-1.248-.26a2.055 2.055 0 0 1-.832-.754c-.191-.321-.286-.702-.286-1.144 0-.459.117-.845.351-1.157.234-.321.55-.563.949-.728a3.397 3.397 0 0 1 1.313-.247c.242 0 .472.013.689.039.216.017.429.048.637.091.208.035.416.078.624.13v-.65c0-.425-.148-.763-.442-1.014-.295-.26-.685-.39-1.17-.39-.39 0-.724.095-1.001.286-.269.182-.455.451-.559.806l-1.235-.286c.086-.425.264-.784.533-1.079a2.621 2.621 0 0 1 1.001-.663 3.46 3.46 0 0 1 1.274-.234c.962 0 1.694.23 2.197.689.502.459.754 1.118.754 1.976V159h-1.352v-.793h-.078c-.13.173-.295.338-.494.494-.2.147-.434.269-.702.364a2.765 2.765 0 0 1-.923.143Zm.312-1.144c.381 0 .71-.078.988-.234a1.8 1.8 0 0 0 .65-.65c.164-.277.247-.581.247-.91a4.44 4.44 0 0 0-.858-.221 4.865 4.865 0 0 0-.871-.078c-.46 0-.815.091-1.066.273-.243.182-.364.451-.364.806 0 .303.117.55.351.741.242.182.55.273.923.273Zm5.06.936v-6.838h1.313v.923h.078a1.867 1.867 0 0 1 .988-.975c.234-.095.485-.143.754-.143.165 0 .299.009.403.026.104.017.195.039.273.065v1.417a1.454 1.454 0 0 0-.403-.13 2.08 2.08 0 0 0-.481-.052c-.295 0-.559.078-.793.234a1.697 1.697 0 0 0-.546.65c-.13.277-.195.589-.195.936V159h-1.391Zm7.658.208c-.658 0-1.235-.152-1.729-.455a3.148 3.148 0 0 1-1.131-1.287c-.26-.546-.39-1.17-.39-1.872 0-.728.139-1.365.416-1.911a3.147 3.147 0 0 1 1.144-1.274c.494-.303 1.058-.455 1.69-.455.694 0 1.27.13 1.729.39.468.26.819.633 1.053 1.118.243.485.364 1.066.364 1.742 0 .121-.004.243-.013.364 0 .113-.008.217-.026.312h-5.564v-1.053h4.225a2.448 2.448 0 0 0-.143-.702 1.463 1.463 0 0 0-.338-.533 1.456 1.456 0 0 0-.546-.338 2.066 2.066 0 0 0-.728-.117c-.372 0-.706.095-1.001.286-.286.182-.511.455-.676.819-.156.364-.234.819-.234 1.365 0 .511.083.94.247 1.287.165.347.395.611.689.793.295.182.633.273 1.014.273.477 0 .845-.104 1.105-.312.269-.217.464-.485.585-.806l1.222.325a2.887 2.887 0 0 1-.988 1.469c-.485.381-1.144.572-1.976.572Zm7.144-5.824v-1.222h4.147v1.222h-4.147Zm1.17 5.616v-8.073c0-.477.091-.88.273-1.209.191-.329.455-.581.793-.754.338-.173.715-.26 1.131-.26.217 0 .407.013.572.039.173.026.316.061.429.104v1.352a2.161 2.161 0 0 0-.377-.13 1.545 1.545 0 0 0-.481-.065.961.961 0 0 0-.689.26c-.173.173-.26.425-.26.754V159h-1.391Zm6.999.208c-.684 0-1.278-.152-1.781-.455a3.18 3.18 0 0 1-1.17-1.287c-.268-.546-.403-1.174-.403-1.885 0-.719.135-1.348.403-1.885a3.09 3.09 0 0 1 1.17-1.274c.503-.312 1.097-.468 1.781-.468.694 0 1.287.156 1.781.468a2.99 2.99 0 0 1 1.157 1.274c.278.537.416 1.166.416 1.885 0 .711-.138 1.339-.416 1.885a3.076 3.076 0 0 1-1.157 1.287c-.494.303-1.087.455-1.781.455Zm0-1.287c.39 0 .733-.091 1.027-.273.295-.182.525-.446.689-.793.165-.355.247-.78.247-1.274 0-.503-.082-.927-.247-1.274a1.814 1.814 0 0 0-.689-.793 1.887 1.887 0 0 0-1.014-.273c-.39 0-.732.091-1.027.273a1.912 1.912 0 0 0-.702.793c-.164.347-.247.771-.247 1.274s.083.927.247 1.274c.174.347.408.611.702.793.304.182.642.273 1.014.273Zm4.717 1.079v-6.838h1.313v.923h.078a1.885 1.885 0 0 1 .988-.975c.234-.095.486-.143.754-.143.165 0 .299.009.403.026.104.017.195.039.273.065v1.417a1.444 1.444 0 0 0-.403-.13 2.074 2.074 0 0 0-.481-.052c-.294 0-.559.078-.793.234a1.697 1.697 0 0 0-.546.65c-.13.277-.195.589-.195.936V159h-1.391Zm6.999-3.094v-.429c0-.303.035-.563.104-.78.07-.225.187-.438.351-.637.174-.208.408-.429.702-.663.191-.156.347-.299.468-.429a1.418 1.418 0 0 0 .39-1.001c0-.347-.117-.624-.351-.832-.225-.217-.55-.325-.975-.325-.251 0-.476.048-.676.143-.19.095-.346.234-.468.416a1.558 1.558 0 0 0-.247.624l-1.287-.169c.044-.442.178-.836.403-1.183.226-.355.533-.637.923-.845.39-.208.845-.312 1.365-.312.564 0 1.045.1 1.443.299.408.191.72.468.936.832.217.355.325.776.325 1.261 0 .364-.056.685-.169.962a2.8 2.8 0 0 1-.442.728 4.04 4.04 0 0 1-.585.572 3.144 3.144 0 0 0-.481.455 1.42 1.42 0 0 0-.247.442 2.12 2.12 0 0 0-.065.559v.312h-1.417Zm.702 3.172a.954.954 0 0 1-.975-.975.954.954 0 0 1 .975-.975c.269 0 .494.095.676.286.191.191.286.42.286.689a.938.938 0 0 1-.286.689.895.895 0 0 1-.676.286Z" fill="#45494C"/></svg>