<?xml version="1.0" encoding="UTF-8"?>
<svg width="43px" height="44px" viewBox="0 0 43 44" version="1.1" xmlns="http://www.w3.org/2000/svg" xmlns:xlink="http://www.w3.org/1999/xlink">
    <!-- Generator: Sketch 52.4 (67378) - http://www.bohemiancoding.com/sketch -->
    <title>Google__G__Logo</title>
    <desc>Created with Sketch.</desc>
    <g id="Page-1" stroke="none" stroke-width="1" fill="none" fill-rule="evenodd">
        <g id="Google__G__Logo">
            <path d="M2.25253805,12.2519409 L9.65186195,17.9102474 C9.228777,19.1952969 9,20.5700374 9,22 C9,23.4299626 9.228777,24.8047031 9.65186195,26.0897526 L2.25253805,31.7480591 C0.809393905,28.8140208 0,25.5061199 0,22 C0,18.4938801 0.809393905,15.1859792 2.25253805,12.2519409 Z" id="Combined-Shape" fill="#FBBC05"></path>
            <path d="M9.65186195,17.9102474 L2.25253805,12.2519409 C5.83100163,4.97661119 13.3061199,0 22,0 C27.6,0 32.6,2.1 36.5,5.5 L30.1,11.9 C27.9,10.1 25.1,9 22,9 C16.2299626,9 11.3590507,12.7249484 9.65186195,17.9102474 Z" id="Combined-Shape" fill="#EA4335"></path>
            <path d="M2.24956066,31.7420035 L9.64586796,26.0715012 C11.3476258,31.2663086 16.223195,35 22,35 C28.1,35 32.7,31.9 33.8,26.5 L22,26.5 L22,18 L42.5,18 C42.8,19.3 43,20.7 43,22 C43,36 33,44 22,44 C13.3037079,44 5.82685413,39.0206271 2.24956066,31.7420035 Z" id="Combined-Shape" fill="#34A853"></path>
            <path d="M36.3394527,38.5208666 L29.3149064,33.0825082 C31.6117078,31.6329963 33.209743,29.3976252 33.8,26.5 L22,26.5 L22,18 L42.5,18 C42.8,19.3 43,20.7 43,22 C43,29.170479 40.3767465,34.7670059 36.3394527,38.5208666 Z" id="Combined-Shape" fill="#4285F4"></path>
        </g>
    </g>
</svg>