<svg width="300" height="300" viewBox="0 0 300 300" fill="none" xmlns="http://www.w3.org/2000/svg">
    <circle cx="150" cy="150" r="100" fill="#D2E3FC"/>
    <path d="M154.32,135.43c-10.56,8.65-20.59,16.68-30.15,23.63-5.07,3.7-14.21-1.31-15.28-8.16-1.86-12.85-3-26.17-3.63-39.8-12.15-7.93-24.13-15.53-35.44-22.35-6.11-3.63-4.22-12.48,3-15.39,13.28-5.23,26.64-10.44,40-15.38,4.23-13.83,8.45-27.77,12.11-41.4,2-7.39,10.41-8.93,14.89-2.73,8.25,11.45,17.13,23,26,34.42,14.22-.1,28.56,0,42.84.22,7.73.18,12.64,7.79,8.2,13.35-8.15,10.38-16.67,21.73-25.21,33.45,4.25,13,7.89,25.84,10.7,38.51,1.43,6.79-5.34,14.71-11.39,13C179.47,143.74,167.25,139.77,154.32,135.43Z" fill="#FBBC04"/>
    <path d="M205.44,73.7c10.67,26.59,20.64,47.74,16.58,76.8-4.67,33.43-33.31,70.54-68.1,75.46-17.34,2.45-35.57-2.42-47.85-15-12-12.26-18.78-29.18-21.81-45.85-3.25-17.94-2.2-36.87,3.91-54.11a77.26,77.26,0,0,1,4.71-10.76" fill="none" stroke="#4285F4" stroke-linecap="square" stroke-linejoin="round" stroke-width="6px"/>
    <g clip-path="url(#clip0)">
        <path d="M151.73,225.81,144,246.63a35.18,35.18,0,0,0,.07,24.7l6.51,12.51h-8.34" fill="none" stroke="#1967D2" stroke-linejoin="round" stroke-width="6px"/>
        <line x1="151.73" y1="225.81" x2="146.13" y2="240.85" fill="none" stroke="#185ABC" stroke-linejoin="round" stroke-width="6px"/>
        <polyline points="164.04 231.67 164.04 283.84 171.8 283.84" fill="none" stroke="#1967D2" stroke-linejoin="round" stroke-width="6px"/>
        <line x1="164.04" y1="221.67" x2="164.04" y2="241.77" fill="none" stroke="#185ABC" stroke-linejoin="round" stroke-width="6px"/>
    </g>
    <path d="M161.08,235.06a36.17,36.17,0,0,0,26.08-44L117.07,209A36.17,36.17,0,0,0,161.08,235.06Z" fill="#1A73E8"/>
    <path d="M142.64,217.51c5.53,7.83,16.11,10.61,24.45,1.64" fill="none" stroke="#FFF" stroke-miterlimit="10" stroke-width="3px"/>
    <path d="M145.07,215.59c-2.58.66-2.41,3.54-5.51,4.88" fill="none" stroke="#FFF" stroke-miterlimit="10" stroke-width="3px"/>
    <line x1="101.3" y1="47.04" x2="75.8" y2="22.68" fill="none" stroke="#FEEFC3" stroke-linecap="round" stroke-linejoin="round" stroke-width="6px"/>
    <line x1="60.45" y1="68.72" x2="26.08" y2="61.81" fill="none" stroke="#FEEFC3" stroke-linecap="round" stroke-linejoin="round" stroke-width="6px"/>
    <line x1="208.28" y1="22.68" x2="189.42" y2="40.55" fill="none" stroke="#FEEFC3" stroke-linecap="round" stroke-linejoin="round" stroke-width="6px"/>
    <line x1="265.17" y1="73.7" x2="232.81" y2="76.72" fill="none" stroke="#FEEFC3" stroke-linecap="round" stroke-linejoin="round" stroke-width="6px"/>
    <line x1="66.15" y1="109.02" x2="17.14" y2="124.38" fill="none" stroke="#FEEFC3" stroke-linecap="round" stroke-linejoin="round" stroke-width="6px"/>
    <defs>
        <clipPath id="clip0">
            <circle cx="150" cy="150" r="100" fill="none"/>
        </clipPath>
    </defs>
</svg>