<svg width="211" height="109" viewBox="0 0 211 109" fill="none" xmlns="http://www.w3.org/2000/svg">
<path d="M2.67451 72.3093C4.02515 75.5342 5.94816 78.4945 8.35281 81.0505C17.8042 91.0051 31.7689 91.8488 44.5764 89.3582C57.5439 86.8195 69.7695 81.4364 80.3516 73.6059C86.4411 69.0931 92.4562 63.4927 100.519 63.2431C103.546 63.1502 106.677 63.9842 108.964 65.9523C113.717 70.0162 113.632 76.9654 117.341 81.782C122.273 88.1874 129.367 90.171 137.105 90.9102C158.967 92.9963 185.007 86.1516 200.044 69.4975C213.47 54.6296 215.082 30.9721 198.83 17.4181C191.405 11.2256 181.224 8.38863 171.614 9.8342C164.269 10.9392 156.813 14.3006 149.21 15.2353C140.256 16.3383 134.72 12.5763 127.476 8.19511C114.852 0.580204 98.1638 -2.34578 83.8741 2.07222C70.1953 6.30058 60.3503 17.8458 47.0396 22.9179C35.5381 27.303 21.9513 26.6354 11.9575 33.7781C0.132987 42.2271 -2.83931 59.2856 2.67451 72.3093Z" fill="#B8E6CA"/>
<g style="mix-blend-mode:multiply" opacity="0.1">
<path d="M108.273 109C162.885 109 207.156 107.265 207.156 105.126C207.156 102.986 162.885 101.251 108.273 101.251C53.6619 101.251 9.39062 102.986 9.39062 105.126C9.39062 107.265 53.6619 109 108.273 109Z" fill="#161B18"/>
</g>
<path d="M108.273 109C162.885 109 207.156 107.265 207.156 105.126C207.156 102.986 162.885 101.251 108.273 101.251C53.6619 101.251 9.39062 102.986 9.39062 105.126C9.39062 107.265 53.6619 109 108.273 109Z" fill="#CBD0D3"/>
<path d="M134.765 53.2251C133.7 70.1521 127.829 85.3374 131.753 104.418H127.285" stroke="#161B18" stroke-width="1.47201" stroke-linecap="round" stroke-linejoin="round"/>
<path d="M139.814 104.418H135.344L143.244 53.2251" stroke="#161B18" stroke-width="1.47201" stroke-linecap="round" stroke-linejoin="round"/>
<path d="M120.504 36.6514C116.69 38.3801 109.369 42.2311 109.369 50.0493" stroke="black" stroke-width="1.46754" stroke-linecap="round"/>
<path d="M147.266 35.7871C150.759 37.5742 158.326 43.4645 159.243 49.0116" stroke="black" stroke-width="1.46754" stroke-linecap="round"/>
<path d="M151.555 75.9518L148.453 76.2344L129.527 77.9528L118.464 78.9552L117.415 54.2198L115.59 11.1738L150.118 9.91211L150.815 41.9702L150.909 46.2856L151.551 75.8512L151.555 75.9518Z" fill="#77AD8C"/>
<path d="M148.453 76.2343L150.233 76.0718L151.556 75.9518L150.117 9.91016L148.134 10.0011L149.415 73.2005L124.439 75.3284L125.301 56.1772L117.457 55.1042L118.317 75.5416L118.424 78.007L118.465 78.9533L129.528 77.9509L148.455 76.2324L148.453 76.2343Z" fill="#5C9271"/>
<path d="M135.891 70.7522C135.923 71.6679 135.499 50.5552 135.262 43.7083C128.634 40.7005 121.465 40.1491 114.592 42.4801L115.22 69.523C122.094 67.1929 129.263 67.7444 135.891 70.7522Z" fill="#CBD0D3"/>
<path d="M135.926 70.7517C135.936 71.6679 135.379 50.5583 135.297 43.7079C141.778 40.4023 148.914 39.5259 155.889 41.5424L156.518 68.5853C149.543 66.5698 142.407 67.4461 135.926 70.7517Z" fill="#EBEEF0"/>
<path fill-rule="evenodd" clip-rule="evenodd" d="M133.233 60.7961C133.15 56.8886 133.031 51.4978 132.9 45.8352L133.096 45.8307C133.228 51.4935 133.346 56.8844 133.43 60.792C133.472 62.7459 133.505 64.3289 133.526 65.3896C133.537 65.92 133.544 66.3199 133.549 66.5703C133.551 66.6954 133.553 66.7835 133.553 66.8318C133.554 66.8544 133.554 66.8715 133.553 66.8783C133.553 66.8791 133.553 66.8806 133.553 66.8816C133.553 66.8831 133.553 66.8871 133.552 66.8898C133.551 66.8973 133.515 66.9532 133.459 66.9731C133.4 66.9565 133.36 66.9014 133.359 66.8939C133.358 66.8912 133.358 66.8871 133.357 66.8857C133.357 66.8847 133.357 66.8832 133.357 66.8824C133.357 66.8813 133.357 66.8803 133.357 66.8794L133.357 66.8783C133.357 66.874 133.356 66.8672 133.356 66.8588L133.357 66.8588C133.357 66.8524 133.357 66.8443 133.357 66.8342C133.356 66.7865 133.355 66.6989 133.353 66.5738C133.348 66.3236 133.34 65.9239 133.33 65.3935C133.308 64.3328 133.275 62.7499 133.233 60.7961ZM133.359 66.8587C133.366 66.8444 133.401 66.797 133.452 66.779C133.502 66.7933 133.539 66.8361 133.549 66.8524L133.359 66.8587ZM133.553 66.8694C133.553 66.8694 133.553 66.869 133.553 66.8678C133.553 66.8688 133.553 66.8693 133.553 66.8694Z" fill="#CBD0D3"/>
<path fill-rule="evenodd" clip-rule="evenodd" d="M130.917 60.0069C130.833 56.0946 130.714 50.7169 130.583 45.096L130.78 45.0916C130.91 50.7125 131.029 56.0903 131.114 60.0028C131.156 61.959 131.19 63.549 131.212 64.6198C131.223 65.1552 131.231 65.5609 131.236 65.8177C131.238 65.9461 131.24 66.0374 131.24 66.0892C131.241 66.1144 131.241 66.1317 131.241 66.1389C131.241 66.1399 131.241 66.1414 131.241 66.143C131.241 66.1439 131.241 66.146 131.241 66.1473C131.24 66.1499 131.239 66.1602 131.237 66.1679C131.183 66.229 131.067 66.2025 131.048 66.1651C131.046 66.1599 131.045 66.1526 131.045 66.1505C131.045 66.1478 131.044 66.1454 131.044 66.1446L131.044 66.1446C131.044 66.1407 131.044 66.1345 131.044 66.1273L131.044 66.1272C131.044 66.1197 131.044 66.108 131.044 66.092C131.043 66.0407 131.042 65.9497 131.039 65.8213C131.034 65.5647 131.026 65.1591 131.015 64.6237C130.993 63.553 130.96 61.9631 130.917 60.0069ZM131.046 66.1272L131.239 66.1209C131.238 66.119 131.238 66.1171 131.238 66.1154C131.218 66.0781 131.103 66.0516 131.048 66.1126C131.047 66.1173 131.046 66.123 131.046 66.1272Z" fill="#CBD0D3"/>
<path fill-rule="evenodd" clip-rule="evenodd" d="M128.613 59.4011C128.527 55.4784 128.407 50.1163 128.278 44.5668L128.475 44.5624C128.604 50.1119 128.724 55.4742 128.809 59.3969C128.852 61.3583 128.887 62.9598 128.909 64.045C128.921 64.5875 128.929 65.0011 128.934 65.266C128.937 65.3984 128.938 65.4938 128.939 65.5496C128.94 65.5772 128.94 65.5959 128.94 65.6046L128.94 65.6046C128.94 65.6062 128.94 65.6096 128.94 65.6126C128.94 65.6139 128.94 65.6171 128.939 65.6193C128.939 65.6254 128.904 65.6842 128.845 65.706C128.784 65.6873 128.746 65.6296 128.745 65.6235C128.744 65.6213 128.744 65.618 128.744 65.6168C128.743 65.6123 128.743 65.6053 128.743 65.6001L128.743 65.6001L128.744 65.6C128.744 65.5915 128.743 65.5758 128.743 65.5526C128.742 65.4972 128.74 65.4021 128.738 65.2697C128.733 65.0049 128.724 64.5915 128.713 64.049C128.69 62.9639 128.656 61.3624 128.613 59.4011ZM128.744 65.6L128.939 65.5934C128.935 65.5847 128.898 65.5299 128.839 65.5118C128.78 65.5335 128.745 65.5922 128.744 65.5982C128.744 65.5988 128.744 65.5994 128.744 65.6Z" fill="#CBD0D3"/>
<path fill-rule="evenodd" clip-rule="evenodd" d="M126.303 58.9765C126.216 55.0392 126.096 49.6931 125.969 44.233L126.165 44.2285C126.292 49.6887 126.413 55.0349 126.5 58.9723C126.543 60.941 126.579 62.5575 126.602 63.66C126.614 64.2113 126.623 64.6341 126.628 64.9081C126.631 65.0451 126.633 65.145 126.634 65.2053C126.635 65.2353 126.635 65.2558 126.635 65.2662C126.635 65.2688 126.635 65.2712 126.635 65.2731C126.635 65.2738 126.635 65.2757 126.635 65.2777C126.635 65.2791 126.635 65.2837 126.634 65.287C126.629 65.3069 126.525 65.3706 126.443 65.3039C126.441 65.296 126.439 65.2857 126.439 65.2834C126.439 65.2823 126.439 65.2806 126.439 65.2798C126.439 65.2792 126.439 65.2786 126.439 65.278C126.439 65.2773 126.439 65.2767 126.439 65.2763C126.439 65.2743 126.438 65.2718 126.438 65.2689L126.439 65.2689L126.439 65.2679C126.439 65.2585 126.438 65.2388 126.438 65.2087C126.437 65.1487 126.435 65.049 126.432 64.912C126.426 64.6381 126.418 64.2154 126.406 63.6641C126.382 62.5617 126.347 60.9452 126.303 58.9765ZM126.439 65.2689L126.634 65.2623C126.634 65.2584 126.632 65.2507 126.63 65.2443C126.549 65.1777 126.444 65.2414 126.44 65.2612C126.439 65.2638 126.439 65.2671 126.439 65.2689ZM126.635 65.2674L126.635 65.2671C126.635 65.2677 126.635 65.2679 126.635 65.2674Z" fill="#CBD0D3"/>
<path fill-rule="evenodd" clip-rule="evenodd" d="M124.002 58.7305C123.914 54.7718 123.793 49.4378 123.668 44.0773L123.864 44.0728C123.989 49.4335 124.11 54.7675 124.198 58.7262C124.243 60.7056 124.279 62.3412 124.303 63.4644C124.316 64.026 124.325 64.4595 124.331 64.7438C124.334 64.886 124.336 64.991 124.337 65.056C124.338 65.0884 124.338 65.1112 124.339 65.1236L124.339 65.1243C124.339 65.1288 124.339 65.1351 124.339 65.1387C124.338 65.1404 124.338 65.1477 124.337 65.1534C124.257 65.2315 124.147 65.1672 124.143 65.1492C124.143 65.1466 124.142 65.1431 124.142 65.142L124.142 65.1398C124.142 65.138 124.142 65.1357 124.142 65.1335L124.338 65.127C124.338 65.1256 124.338 65.1237 124.338 65.1222C124.333 65.1042 124.224 65.04 124.144 65.118C124.143 65.1236 124.142 65.1308 124.142 65.1323C124.142 65.1329 124.142 65.1334 124.142 65.1334C124.142 65.1334 124.142 65.1315 124.142 65.1263C124.142 65.1144 124.142 65.0922 124.141 65.0597C124.14 64.9948 124.138 64.89 124.135 64.7479C124.129 64.4636 124.119 64.0301 124.107 63.4685C124.082 62.3454 124.046 60.7099 124.002 58.7305Z" fill="#CBD0D3"/>
<path fill-rule="evenodd" clip-rule="evenodd" d="M121.709 58.6977C121.619 54.7278 121.498 49.417 121.376 44.1574L121.572 44.153C121.695 49.4126 121.816 54.7235 121.905 58.6934C121.95 60.6783 121.987 62.3281 122.012 63.4685C122.025 64.0387 122.034 64.4816 122.041 64.7754C122.044 64.9224 122.046 65.0321 122.047 65.1018C122.048 65.1366 122.049 65.1616 122.049 65.1763C122.049 65.1833 122.049 65.1888 122.049 65.1919C122.049 65.1921 122.049 65.1945 122.049 65.1971C122.049 65.1999 122.042 65.2296 122.028 65.2535C121.927 65.2873 121.854 65.2072 121.853 65.2026C121.853 65.2012 121.853 65.1991 121.853 65.1983L121.853 65.1965L121.852 65.1935L122.049 65.1864C122.049 65.1855 122.049 65.1843 122.048 65.1831C122.048 65.1786 121.974 65.0986 121.874 65.1324C121.86 65.1563 121.853 65.1859 121.853 65.1885C121.853 65.1908 121.853 65.1924 121.853 65.1917C121.853 65.1906 121.853 65.1869 121.852 65.1794C121.852 65.1651 121.852 65.1404 121.851 65.1056C121.85 65.036 121.847 64.9264 121.844 64.7795C121.838 64.4858 121.828 64.0429 121.816 63.4727C121.79 62.3323 121.754 60.6826 121.709 58.6977Z" fill="#CBD0D3"/>
<path fill-rule="evenodd" clip-rule="evenodd" d="M119.414 58.8545C119.323 54.8685 119.202 49.5749 119.082 44.4149L119.278 44.4104C119.398 49.5704 119.52 54.8641 119.611 58.8501C119.656 60.8431 119.694 62.5092 119.72 63.6683C119.733 64.2478 119.743 64.7006 119.75 65.0041C119.753 65.1558 119.756 65.2703 119.758 65.3446C119.758 65.3817 119.759 65.4089 119.759 65.4257L119.76 65.4432L119.76 65.4434C119.76 65.4443 119.76 65.4469 119.76 65.4488C119.76 65.4528 119.662 65.5448 119.564 65.458C119.564 65.4554 119.563 65.4522 119.563 65.4515L119.563 65.4492L119.76 65.4434C119.76 65.4428 119.759 65.4398 119.759 65.4373C119.661 65.3505 119.563 65.4425 119.563 65.4464C119.563 65.4473 119.563 65.4481 119.563 65.4481L119.563 65.4466L119.563 65.4296C119.563 65.413 119.562 65.3859 119.561 65.3488C119.56 65.2745 119.557 65.1601 119.554 65.0084C119.547 64.7049 119.537 64.2521 119.524 63.6726C119.498 62.5136 119.46 60.8475 119.414 58.8545Z" fill="#CBD0D3"/>
<path fill-rule="evenodd" clip-rule="evenodd" d="M116.797 44.873L116.993 44.8686L117.482 65.9024C117.479 65.9024 117.476 65.9025 117.472 65.9026C117.446 65.9032 117.372 65.9049 117.296 65.9066C117.293 65.9067 117.289 65.9068 117.286 65.9068L116.797 44.873Z" fill="#CBD0D3"/>
<path fill-rule="evenodd" clip-rule="evenodd" d="M133.317 67.2208C128.164 65.3593 122.754 64.9828 117.467 66.2812C117.257 66.3328 117.044 66.2058 116.992 65.9974C116.94 65.7891 117.068 65.5784 117.279 65.5268C122.726 64.1888 128.295 64.5795 133.585 66.4905C133.788 66.5639 133.893 66.787 133.819 66.9887C133.745 67.1903 133.52 67.2942 133.317 67.2208Z" fill="#B8BDB9"/>
<path fill-rule="evenodd" clip-rule="evenodd" d="M133.267 64.2221C128.108 62.355 122.693 61.9767 117.401 63.2762C117.191 63.3278 116.978 63.2007 116.926 62.9924C116.874 62.7841 117.002 62.5734 117.212 62.5218C122.666 61.1827 128.239 61.5752 133.535 63.492C133.739 63.5656 133.843 63.7887 133.769 63.9903C133.695 64.1919 133.47 64.2957 133.267 64.2221Z" fill="#B8BDB9"/>
<path fill-rule="evenodd" clip-rule="evenodd" d="M133.204 61.2166C128.042 59.3504 122.628 58.9722 117.338 60.2707C117.128 60.3223 116.916 60.1952 116.863 59.9868C116.811 59.7785 116.94 59.5678 117.15 59.5162C122.6 58.1782 128.173 58.5707 133.473 60.4864C133.676 60.5599 133.781 60.7829 133.707 60.9846C133.633 61.1862 133.408 61.2901 133.204 61.2166Z" fill="#B8BDB9"/>
<path fill-rule="evenodd" clip-rule="evenodd" d="M133.134 58.2117C127.971 56.3456 122.558 55.9673 117.268 57.2658C117.058 57.3174 116.845 57.1903 116.793 56.982C116.741 56.7736 116.869 56.5629 117.079 56.5113C122.53 55.1733 128.103 55.5659 133.402 57.4815C133.606 57.555 133.711 57.778 133.636 57.9797C133.562 58.1813 133.337 58.2852 133.134 58.2117Z" fill="#B8BDB9"/>
<path fill-rule="evenodd" clip-rule="evenodd" d="M133.071 55.213C127.908 53.3412 122.487 52.9611 117.19 54.2627C116.98 54.3143 116.767 54.1873 116.715 53.9789C116.663 53.7706 116.791 53.5599 117.001 53.5083C122.46 52.1671 128.039 52.5615 133.34 54.483C133.544 54.5567 133.648 54.7799 133.574 54.9814C133.5 55.183 133.275 55.2867 133.071 55.213Z" fill="#B8BDB9"/>
<path fill-rule="evenodd" clip-rule="evenodd" d="M133.001 52.2084C127.837 50.3375 122.417 49.9565 117.119 51.2581C116.909 51.3097 116.697 51.1826 116.645 50.9743C116.593 50.766 116.721 50.5553 116.931 50.5036C122.389 49.1625 127.969 49.5578 133.27 51.4784C133.473 51.552 133.578 51.7752 133.504 51.9768C133.429 52.1783 133.204 52.2821 133.001 52.2084Z" fill="#B8BDB9"/>
<path d="M116.886 44.8706C122.264 43.5492 127.764 43.9364 132.996 45.8331L133.05 48.8319C127.823 46.9409 122.329 46.5555 116.956 47.8748L116.886 44.8706Z" fill="#B8BDB9"/>
<path fill-rule="evenodd" clip-rule="evenodd" d="M117.284 45.1755L117.335 47.3862C122.453 46.225 127.666 46.5799 132.647 48.2791L132.608 46.1086C127.619 44.35 122.398 43.9822 117.284 45.1755ZM116.79 44.4941C122.249 43.1529 127.828 43.5473 133.129 45.4689L133.382 45.5604L133.451 49.3917L132.915 49.1977C127.756 47.3315 122.341 46.9532 117.049 48.2528L116.574 48.3694L116.485 44.569L116.79 44.4941Z" fill="#B8BDB9"/>
<path fill-rule="evenodd" clip-rule="evenodd" d="M137.87 60.6916C137.771 56.7843 137.639 51.3937 137.508 45.731L137.704 45.7265C137.836 51.3891 137.968 56.7796 138.066 60.6868C138.115 62.6404 138.156 64.2232 138.184 65.2837C138.198 65.8139 138.209 66.2136 138.216 66.4637C138.219 66.5889 138.222 66.6764 138.224 66.7241C138.224 66.7341 138.224 66.7423 138.224 66.7487L138.225 66.7486C138.226 66.757 138.226 66.7638 138.226 66.7681C138.226 66.7693 138.226 66.7707 138.225 66.7722L138.225 66.7734C138.225 66.7741 138.225 66.7749 138.225 66.7755C138.225 66.777 138.225 66.7811 138.225 66.7838C138.223 66.7914 138.186 66.8482 138.128 66.8675C138.071 66.8501 138.032 66.7959 138.031 66.7885C138.03 66.7858 138.03 66.7818 138.029 66.7803C138.029 66.7794 138.029 66.7778 138.029 66.7771C138.029 66.7703 138.028 66.7531 138.027 66.7306C138.026 66.6823 138.023 66.5943 138.019 66.4692C138.012 66.2188 138.001 65.819 137.987 65.2887C137.959 64.2281 137.919 62.6453 137.87 60.6916ZM138.222 66.7487C138.214 66.7347 138.178 66.689 138.126 66.6732C138.076 66.6899 138.042 66.7342 138.033 66.751L138.222 66.7487ZM138.029 66.7666C138.029 66.7677 138.029 66.7682 138.029 66.7681C138.029 66.7681 138.029 66.7675 138.029 66.7666Z" fill="#EBEEF0"/>
<path fill-rule="evenodd" clip-rule="evenodd" d="M140.148 59.7979C140.05 55.8857 139.92 50.5082 139.789 44.8872L139.985 44.8827C140.116 50.5036 140.247 55.881 140.344 59.7931C140.393 61.7492 140.433 63.3389 140.461 64.4095C140.474 64.9448 140.485 65.3503 140.492 65.6069C140.496 65.7353 140.498 65.8262 140.5 65.8775C140.501 65.8935 140.501 65.9051 140.501 65.9127L140.502 65.9127C140.502 65.9199 140.502 65.9262 140.502 65.93C140.502 65.9307 140.502 65.9332 140.502 65.936C140.502 65.938 140.501 65.9453 140.5 65.9506C140.482 65.9887 140.368 66.0206 140.311 65.9619C140.309 65.9543 140.307 65.9441 140.306 65.9416C140.306 65.9403 140.306 65.9382 140.306 65.9373C140.306 65.9357 140.306 65.9342 140.306 65.9332C140.305 65.9261 140.305 65.9088 140.304 65.8836C140.302 65.8318 140.299 65.7405 140.296 65.6122C140.289 65.3554 140.278 64.9498 140.264 64.4144C140.237 63.3437 140.196 61.754 140.148 59.7979ZM140.5 65.9127C140.499 65.9086 140.498 65.9031 140.497 65.8985C140.44 65.8398 140.325 65.8717 140.308 65.9098C140.307 65.9115 140.307 65.9134 140.307 65.9152L140.5 65.9127Z" fill="#EBEEF0"/>
<path fill-rule="evenodd" clip-rule="evenodd" d="M142.426 59.0875C142.329 55.165 142.199 49.803 142.07 44.2534L142.267 44.249C142.396 49.7984 142.525 55.1603 142.622 59.0828C142.67 61.044 142.711 62.6453 142.738 63.7303C142.752 64.2728 142.763 64.6861 142.77 64.9508C142.774 65.0832 142.776 65.1783 142.778 65.2337C142.779 65.2569 142.779 65.2725 142.78 65.2811L142.78 65.2811L142.78 65.2811C142.78 65.2863 142.78 65.2934 142.78 65.2979C142.78 65.2991 142.78 65.3024 142.78 65.3045C142.779 65.3107 142.744 65.3701 142.684 65.3915C142.624 65.3725 142.586 65.3153 142.585 65.3092C142.585 65.307 142.584 65.3038 142.584 65.3026C142.584 65.2995 142.584 65.2961 142.584 65.2946L142.584 65.2945C142.583 65.2859 142.583 65.2671 142.582 65.2396C142.58 65.1838 142.577 65.0884 142.574 64.956C142.567 64.6912 142.556 64.2777 142.542 63.7352C142.514 62.6501 142.474 61.0487 142.426 59.0875ZM142.779 65.2811C142.779 65.2805 142.779 65.2798 142.779 65.2793C142.778 65.2734 142.74 65.2163 142.68 65.1972C142.622 65.218 142.587 65.2744 142.585 65.2833L142.779 65.2811Z" fill="#EBEEF0"/>
<path fill-rule="evenodd" clip-rule="evenodd" d="M144.711 58.5588C144.615 54.6216 144.486 49.2756 144.359 43.8154L144.556 43.811C144.683 49.2711 144.811 54.617 144.907 58.5541C144.955 60.5227 144.995 62.1391 145.022 63.2415C145.036 63.7927 145.047 64.2153 145.054 64.4892C145.058 64.6262 145.061 64.7259 145.062 64.7858C145.063 64.816 145.064 64.8356 145.064 64.845L145.064 64.8461L145.065 64.8461C145.065 64.8489 145.065 64.8514 145.065 64.8534C145.065 64.8539 145.065 64.8545 145.065 64.8551C145.065 64.8557 145.065 64.8563 145.065 64.857C145.065 64.8577 145.064 64.8595 145.064 64.8606C145.064 64.8629 145.063 64.8732 145.061 64.8813C144.983 64.9515 144.875 64.8927 144.87 64.873C144.869 64.8697 144.869 64.8652 144.868 64.8637C144.868 64.8617 144.868 64.8599 144.868 64.8592C144.868 64.8573 144.868 64.8548 144.868 64.8523C144.867 64.8419 144.867 64.8213 144.866 64.7914C144.864 64.7311 144.862 64.6312 144.858 64.4942C144.851 64.2202 144.84 63.7975 144.826 63.2463C144.798 62.1439 144.759 60.5274 144.711 58.5588ZM145.064 64.8461C145.064 64.8443 145.063 64.8409 145.063 64.8384C145.057 64.8188 144.95 64.76 144.872 64.8302C144.87 64.8366 144.869 64.8444 144.868 64.8484L145.064 64.8461ZM144.868 64.8535C144.868 64.854 144.868 64.8538 144.868 64.8532L144.868 64.8535Z" fill="#EBEEF0"/>
<path fill-rule="evenodd" clip-rule="evenodd" d="M137.979 66.3912C143.174 64.2421 148.719 63.599 154.223 64.6882C154.436 64.7302 154.573 64.9349 154.531 65.1453C154.489 65.3558 154.282 65.4924 154.07 65.4504C148.728 64.3933 143.342 65.0151 138.281 67.1086C138.081 67.1912 137.852 67.0976 137.768 66.8995C137.685 66.7014 137.779 66.4739 137.979 66.3912Z" fill="#CBD0D3"/>
<path fill-rule="evenodd" clip-rule="evenodd" d="M137.889 63.3931C143.09 61.2379 148.64 60.5928 154.15 61.6828C154.362 61.7248 154.5 61.9295 154.458 62.1399C154.415 62.3504 154.209 62.487 153.997 62.445C148.649 61.3871 143.258 62.0109 138.191 64.1103C137.992 64.193 137.762 64.0996 137.679 63.9015C137.595 63.7035 137.689 63.4759 137.889 63.3931Z" fill="#CBD0D3"/>
<path fill-rule="evenodd" clip-rule="evenodd" d="M137.823 60.3885C143.023 58.2344 148.572 57.5892 154.079 58.6783C154.291 58.7203 154.429 58.925 154.386 59.1355C154.344 59.3459 154.138 59.4825 153.926 59.4406C148.581 58.3836 143.191 59.0073 138.125 61.1057C137.925 61.1884 137.696 61.095 137.612 60.8969C137.529 60.6989 137.623 60.4713 137.823 60.3885Z" fill="#CBD0D3"/>
<path fill-rule="evenodd" clip-rule="evenodd" d="M137.749 57.3832C142.949 55.229 148.497 54.5838 154.005 55.673C154.217 55.7149 154.355 55.9196 154.312 56.1301C154.27 56.3406 154.064 56.4772 153.851 56.4352C148.507 55.3782 143.116 56.0019 138.051 58.1003C137.851 58.1831 137.622 58.0896 137.538 57.8915C137.455 57.6935 137.549 57.4659 137.749 57.3832Z" fill="#CBD0D3"/>
<path fill-rule="evenodd" clip-rule="evenodd" d="M137.663 54.385C142.869 52.2248 148.424 51.5775 153.939 52.6694C154.152 52.7114 154.289 52.9161 154.247 53.1266C154.205 53.3371 153.998 53.4736 153.786 53.4316C148.434 52.3719 143.036 52.9977 137.965 55.102C137.766 55.1849 137.536 55.0915 137.452 54.8935C137.369 54.6955 137.463 54.4679 137.663 54.385Z" fill="#CBD0D3"/>
<path fill-rule="evenodd" clip-rule="evenodd" d="M137.596 51.3799C142.802 49.2207 148.358 48.5724 153.873 49.6643C154.085 49.7063 154.223 49.911 154.181 50.1215C154.138 50.332 153.932 50.4685 153.719 50.4265C148.367 49.3668 142.97 49.9936 137.899 52.0969C137.699 52.1797 137.469 52.0864 137.386 51.8883C137.302 51.6903 137.397 51.4627 137.596 51.3799Z" fill="#CBD0D3"/>
<path fill-rule="evenodd" clip-rule="evenodd" d="M137.542 48.3682C142.743 46.2141 148.293 45.5689 153.802 46.6589C154.015 46.7009 154.152 46.9056 154.11 47.1161C154.068 47.3266 153.861 47.4631 153.649 47.4211C148.303 46.3632 142.91 46.987 137.844 49.0855C137.644 49.1682 137.414 49.0747 137.331 48.8766C137.248 48.6786 137.342 48.451 137.542 48.3682Z" fill="#CBD0D3"/>
<path fill-rule="evenodd" clip-rule="evenodd" d="M137.456 45.3699C142.662 43.2097 148.217 42.5624 153.732 43.6543C153.944 43.6963 154.082 43.901 154.04 44.1115C153.998 44.3219 153.791 44.4585 153.579 44.4165C148.226 43.3568 142.829 43.9826 137.758 46.0869C137.559 46.1697 137.329 46.0764 137.245 45.8784C137.162 45.6804 137.256 45.4527 137.456 45.3699Z" fill="#CBD0D3"/>
<path d="M137.608 45.7287C142.747 43.5964 148.226 42.9608 153.657 44.0357L153.867 53.0503C148.433 51.9745 142.957 52.6111 137.818 54.7433L137.608 45.7287Z" fill="#CBD0D3"/>
<path fill-rule="evenodd" clip-rule="evenodd" d="M138.005 45.9859L138.195 54.1703C143.096 52.2421 148.292 51.6494 153.462 52.5784L153.271 44.3575C148.109 43.3984 142.907 44.0023 138.005 45.9859ZM137.455 45.3699C142.661 43.2097 148.22 42.5634 153.732 43.6543C153.912 43.69 154.043 43.8446 154.047 44.0265L154.257 53.0412C154.26 53.1591 154.208 53.2719 154.117 53.3477C154.026 53.4236 153.905 53.4543 153.788 53.4312C148.436 52.3715 143.039 52.9973 137.968 55.1016C137.848 55.1512 137.712 55.139 137.603 55.069C137.494 54.9991 137.428 54.8804 137.425 54.752L137.215 45.7373C137.211 45.5775 137.307 45.4317 137.455 45.3699Z" fill="#CBD0D3"/>
<path d="M159.24 49.0112C160.001 53.6144 155.123 56.517 151.754 55.4448" stroke="black" stroke-width="1.46754" stroke-linecap="round"/>
<path d="M109.37 50.0498C109.371 54.6001 114.529 57.8807 118.208 56.2761" stroke="black" stroke-width="1.46754" stroke-linecap="round"/>
<path d="M31.7574 63.3262L26.5823 77.0659C26.3839 77.5923 26.2057 78.1231 26.0477 78.6585C24.3619 84.377 25.1294 90.5308 27.9098 95.8139L32.5876 104.412H28.1154" stroke="#161B18" stroke-width="1.47201" stroke-linecap="round" stroke-linejoin="round"/>
<path d="M39.9883 67.1963L40.7558 104.417" stroke="#161B18" stroke-width="1.47201" stroke-miterlimit="10" stroke-linecap="round"/>
<path d="M31.7571 63.3262C30.8943 64.9946 30.2048 66.7452 29.6992 68.5511" stroke="#1967D2" stroke-width="2.74774" stroke-linejoin="round"/>
<path d="M47.8008 52.6421C52.5375 54.8031 57.5104 57.1715 58.5656 63.8791" stroke="black" stroke-width="1.46754" stroke-linecap="round"/>
<path d="M13.7812 61.7183C11.2237 65.3372 6.79478 70.9427 8.74196 76.4382" stroke="black" stroke-width="1.46754" stroke-linecap="round"/>
<path d="M1.53516 51.3145L54.3394 35.3164C54.3394 35.3164 59.4459 64.731 32.2998 70.2656C32.29 70.2656 13.7376 74.4514 1.53516 51.3145Z" fill="#70B2F5"/>
<path d="M1.53516 51.3145L54.3394 35.3164C54.3394 35.3164 59.4459 64.731 32.2998 70.2656C32.29 70.2656 13.7376 74.4514 1.53516 51.3145Z" fill="#77AD8C"/>
<path d="M33.8564 67.5568C33.8564 67.5568 16.3535 71.5026 4.16284 50.5195L1.53516 51.3149C13.7376 74.4518 32.29 70.266 32.29 70.266C42.6186 68.1606 48.2754 62.5969 51.3221 56.5128C48.0247 61.4881 42.6264 65.7687 33.8564 67.5568Z" fill="#5C9271"/>
<path d="M45.2202 104.418H40.75" stroke="#161B18" stroke-width="1.47201" stroke-linecap="round" stroke-linejoin="round"/>
<path d="M38.0953 85.8018C38.2672 86.6632 34.6014 66.753 33.3188 60.3111C26.5829 58.4665 19.7152 59.0275 13.5727 62.271L18.349 87.7607C24.4917 84.5182 31.3594 83.9572 38.0953 85.8018Z" fill="#CBD0D3"/>
<path d="M38.129 85.7956C38.2806 86.6608 34.4892 66.7736 33.3525 60.3049C38.9734 56.1987 45.5889 54.2919 52.4993 55.1462L57.2755 80.636C50.3653 79.7825 43.7498 81.6893 38.129 85.7956Z" fill="#EBEEF0"/>
<path fill-rule="evenodd" clip-rule="evenodd" d="M34.0424 76.7843C33.3592 73.1 32.4134 68.0178 31.4133 62.6805L31.5979 62.6467C32.5981 67.9842 33.5439 73.0665 34.2271 76.7508C34.5687 78.593 34.8446 80.0856 35.0289 81.086C35.121 81.5861 35.1902 81.9633 35.2332 82.1995C35.2547 82.3175 35.2696 82.4006 35.2777 82.4463C35.2814 82.4675 35.2842 82.4838 35.2851 82.4902C35.2852 82.4909 35.2853 82.4924 35.2854 82.4933C35.2856 82.4947 35.2858 82.4986 35.2859 82.5012C35.2857 82.5085 35.2603 82.5668 35.2103 82.5942C35.1524 82.5872 35.1064 82.5412 35.1036 82.5343C35.1028 82.5318 35.1016 82.5281 35.1012 82.5267C35.101 82.5258 35.1006 82.5244 35.1004 82.5236C35.1002 82.5227 35.1 82.5217 35.0998 82.5209L35.0995 82.5198C35.0986 82.5157 35.0973 82.5094 35.0958 82.5015L35.0967 82.5013C35.0957 82.4953 35.0944 82.4876 35.0927 82.4781C35.0847 82.433 35.0698 82.3504 35.0483 82.2324C35.0054 81.9963 34.9362 81.6193 34.8441 81.1192C34.6599 80.119 34.384 78.6264 34.0424 76.7843ZM35.0989 82.5009C35.1034 82.4863 35.1285 82.4363 35.1737 82.4115C35.2235 82.4175 35.2645 82.4525 35.2767 82.4664L35.0989 82.5009ZM35.2834 82.4818C35.2834 82.4819 35.2833 82.4814 35.283 82.4804C35.2833 82.4812 35.2834 82.4818 35.2834 82.4818Z" fill="#CBD0D3"/>
<path fill-rule="evenodd" clip-rule="evenodd" d="M31.7306 76.3865C31.0457 72.6978 30.1015 67.6281 29.1088 62.3301L29.2935 62.2963C30.2862 67.5944 31.2304 72.6642 31.9153 76.353C32.2577 78.1973 32.5353 79.6964 32.7217 80.7062C32.8149 81.2111 32.8853 81.5937 32.9296 81.8359C32.9517 81.957 32.9674 82.0432 32.9761 82.092C32.9804 82.1159 32.9832 82.1322 32.9843 82.139C32.9844 82.1399 32.9846 82.1414 32.9848 82.1429C32.9849 82.1438 32.9852 82.1457 32.9853 82.147C32.9855 82.1495 32.9855 82.1595 32.9849 82.167C32.9433 82.233 32.8301 82.2253 32.8059 82.1929C32.8039 82.1882 32.8017 82.1815 32.8011 82.1795C32.8004 82.177 32.7999 82.1747 32.7997 82.174L32.7997 82.1739C32.7989 82.1704 32.7977 82.1645 32.7964 82.1577L32.7971 82.1576C32.7958 82.1504 32.7939 82.1394 32.7912 82.1243C32.7825 82.0758 32.767 81.99 32.7448 81.8689C32.7005 81.6268 32.6301 81.2444 32.537 80.7395C32.3506 79.7298 32.073 78.2308 31.7306 76.3865ZM32.798 82.1574L32.9794 82.1223C32.9788 82.1206 32.9781 82.1188 32.9774 82.1173C32.9533 82.0849 32.8401 82.0773 32.7986 82.1431C32.7982 82.1478 32.798 82.1533 32.798 82.1574Z" fill="#CBD0D3"/>
<path fill-rule="evenodd" clip-rule="evenodd" d="M29.4535 76.1623C28.7659 72.464 27.8235 67.4091 26.8434 62.1784L27.028 62.1446C28.0082 67.3754 28.9506 72.4304 29.6382 76.1287C29.982 77.9779 30.2621 79.4878 30.4514 80.5111C30.546 81.0227 30.6179 81.4126 30.6638 81.6624C30.6867 81.7873 30.7031 81.8773 30.7125 81.93C30.7172 81.956 30.7203 81.9737 30.7217 81.9819L30.7217 81.9819C30.7219 81.9834 30.7225 81.9866 30.7228 81.9896C30.7229 81.9907 30.7232 81.9938 30.7233 81.9959C30.7235 82.0018 30.6997 82.0627 30.6473 82.0922C30.587 82.0837 30.5422 82.0348 30.5402 82.0292C30.5395 82.0272 30.5387 82.0242 30.5384 82.0231C30.5373 82.0189 30.536 82.0122 30.535 82.0073L30.535 82.0073L30.5356 82.0072C30.5342 81.9991 30.5316 81.9843 30.5276 81.9624C30.5182 81.9101 30.5019 81.8204 30.479 81.6955C30.4332 81.4459 30.3613 81.056 30.2666 80.5444C30.0774 79.5213 29.7973 78.0114 29.4535 76.1623ZM30.5359 82.0071L30.7186 81.9715C30.7142 81.9638 30.6703 81.9176 30.6118 81.9093C30.5594 81.9388 30.5357 81.9996 30.5358 82.0054C30.5358 82.0059 30.5359 82.0065 30.5359 82.0071Z" fill="#CBD0D3"/>
<path fill-rule="evenodd" clip-rule="evenodd" d="M27.2044 76.1095C26.5131 72.3976 25.5726 67.358 24.6083 62.2115L24.793 62.1777C25.7573 67.3243 26.6978 72.364 27.389 76.0759C27.7347 77.9319 28.018 79.4559 28.2108 80.4954C28.3072 81.0152 28.381 81.4138 28.4286 81.6723C28.4524 81.8014 28.4697 81.8957 28.4801 81.9525C28.4852 81.9808 28.4887 82.0002 28.4904 82.01C28.4908 82.0124 28.4912 82.0147 28.4915 82.0166C28.4916 82.0172 28.4918 82.019 28.4921 82.0209C28.4922 82.0223 28.4926 82.0267 28.4927 82.0298C28.4912 82.0494 28.4025 82.1254 28.3152 82.0746C28.3119 82.0674 28.3086 82.0579 28.308 82.0558C28.3077 82.0548 28.3073 82.0532 28.3072 82.0525C28.307 82.0519 28.3069 82.0513 28.3068 82.0508C28.3067 82.0501 28.3065 82.0496 28.3064 82.0491C28.3061 82.0473 28.3056 82.0449 28.305 82.0422L28.3054 82.0422L28.3052 82.0412C28.3037 82.0323 28.3004 82.0137 28.2952 81.9853C28.2849 81.9287 28.2677 81.8347 28.2439 81.7055C28.1962 81.4472 28.1225 81.0486 28.0261 80.5289C27.8333 79.4894 27.55 77.9655 27.2044 76.1095ZM28.3055 82.0421L28.489 82.0065C28.4877 82.0029 28.4851 81.9958 28.4825 81.99C28.3952 81.9393 28.3065 82.0152 28.305 82.0348C28.3051 82.0372 28.3054 82.0404 28.3055 82.0421ZM28.4903 82.0112L28.4902 82.0109C28.4903 82.0115 28.4904 82.0117 28.4903 82.0112Z" fill="#CBD0D3"/>
<path fill-rule="evenodd" clip-rule="evenodd" d="M24.9909 76.224C24.2951 72.4921 23.3561 67.4641 22.4093 62.4114L22.5939 62.3776C23.5407 67.4303 24.4798 72.4584 25.1756 76.1904C25.5235 78.0563 25.8106 79.5983 26.0074 80.6572C26.1059 81.1867 26.1817 81.5954 26.2314 81.8635C26.2562 81.9976 26.2744 82.0965 26.2857 82.1579C26.2913 82.1885 26.2952 82.2099 26.2973 82.2217L26.2974 82.2223C26.2982 82.2265 26.2992 82.2325 26.2997 82.2359C26.2999 82.2375 26.3004 82.2445 26.3004 82.2501C26.237 82.336 26.1237 82.2917 26.1168 82.2753C26.1161 82.2729 26.1152 82.2696 26.115 82.2686L26.1145 82.2665C26.1142 82.2648 26.1137 82.2627 26.1133 82.2606L26.2975 82.225C26.2971 82.2236 26.2966 82.2219 26.2962 82.2204C26.2893 82.2041 26.1761 82.1598 26.1127 82.2457C26.1127 82.2511 26.1132 82.258 26.1134 82.2594C26.1135 82.26 26.1135 82.2604 26.1135 82.2604C26.1135 82.2604 26.1132 82.2587 26.1123 82.2538C26.1103 82.2426 26.1065 82.2216 26.1009 82.191C26.0897 82.1298 26.0715 82.031 26.0466 81.8969C25.997 81.6289 25.9212 81.2202 25.8228 80.6907C25.6259 79.6318 25.3388 78.09 24.9909 76.224Z" fill="#CBD0D3"/>
<path fill-rule="evenodd" clip-rule="evenodd" d="M22.8133 76.5397C22.1149 72.7974 21.1792 67.7912 20.2503 62.8337L20.4349 62.7999C21.3639 67.7575 22.2995 72.7637 22.998 76.5061C23.3472 78.3772 23.6372 79.9324 23.8373 81.0075C23.9374 81.5451 24.0151 81.9627 24.0664 82.2397C24.0921 82.3782 24.1113 82.4817 24.1233 82.5474C24.1294 82.5803 24.1337 82.6038 24.1362 82.6177C24.1374 82.6243 24.1383 82.6296 24.1388 82.6324C24.1388 82.6327 24.1392 82.6349 24.1395 82.6373C24.1398 82.64 24.1377 82.6692 24.1281 82.694C24.0388 82.741 23.9567 82.6764 23.9555 82.6721C23.9551 82.6708 23.9546 82.6688 23.9545 82.6681L23.9541 82.6663L23.9535 82.6636L24.1377 82.6273C24.1375 82.6264 24.1372 82.6253 24.1369 82.6242C24.1357 82.6201 24.0536 82.5554 23.9644 82.6025C23.9547 82.6273 23.9527 82.6563 23.9529 82.6588C23.9532 82.661 23.9535 82.6625 23.9534 82.6618C23.9532 82.6608 23.9526 82.6573 23.9513 82.6502C23.9489 82.6367 23.9446 82.6135 23.9386 82.5806C23.9265 82.515 23.9074 82.4117 23.8817 82.2732C23.8304 81.9962 23.7527 81.5787 23.6527 81.0411C23.4525 79.966 23.1626 78.4109 22.8133 76.5397Z" fill="#CBD0D3"/>
<path fill-rule="evenodd" clip-rule="evenodd" d="M20.6676 77.0343C19.9653 73.2769 19.032 68.2871 18.1207 63.4235L18.3053 63.3897C19.2167 68.2533 20.15 73.2432 20.8522 77.0006C21.2034 78.8793 21.4967 80.4498 21.7007 81.5424C21.8027 82.0887 21.8823 82.5156 21.9356 82.8017C21.9623 82.9447 21.9824 83.0526 21.9954 83.1227C22.0019 83.1577 22.0067 83.1833 22.0096 83.1991L22.0127 83.2157L22.0127 83.2159C22.0128 83.2167 22.0133 83.2191 22.0136 83.2209C22.0141 83.2247 21.9363 83.3265 21.8301 83.2591C21.8295 83.2567 21.8288 83.2537 21.8287 83.253L21.8282 83.2509L22.0126 83.2158C22.0125 83.2153 22.0119 83.2125 22.0113 83.2101C21.9051 83.1428 21.8273 83.2446 21.8278 83.2483C21.828 83.2491 21.8281 83.2498 21.8281 83.2498L21.8278 83.2484L21.8249 83.2324C21.822 83.2167 21.8172 83.1912 21.8107 83.1562C21.7977 83.0862 21.7776 82.9783 21.751 82.8353C21.6976 82.5492 21.618 82.1224 21.516 81.5761C21.312 80.4835 21.0187 78.913 20.6676 77.0343Z" fill="#CBD0D3"/>
<path fill-rule="evenodd" clip-rule="evenodd" d="M16.0234 64.2017L16.2081 64.1679L19.923 83.9936C19.9198 83.9942 19.9167 83.9948 19.9135 83.9953C19.8888 83.9999 19.8193 84.0126 19.7478 84.0257C19.7446 84.0263 19.7415 84.0268 19.7383 84.0274L16.0234 64.2017Z" fill="#CBD0D3"/>
<path fill-rule="evenodd" clip-rule="evenodd" d="M35.1119 82.8502C29.9491 81.8673 24.7729 82.3281 19.9717 84.355C19.781 84.4356 19.5603 84.3475 19.4788 84.1582C19.3973 83.969 19.4859 83.7503 19.6767 83.6697C24.6238 81.5812 29.9526 81.1097 35.2527 82.1188C35.4565 82.1576 35.5902 82.3528 35.5513 82.5548C35.5124 82.7567 35.3157 82.889 35.1119 82.8502Z" fill="#B8BDB9"/>
<path fill-rule="evenodd" clip-rule="evenodd" d="M34.6012 80.0206C29.4319 79.0332 24.2508 79.4931 19.4444 81.5219C19.2536 81.6025 19.0329 81.5143 18.9514 81.3251C18.87 81.1358 18.9586 80.9171 19.1494 80.8366C24.1019 78.7461 29.4358 78.2757 34.7425 79.2893C34.9462 79.3282 35.0798 79.5234 35.0408 79.7254C35.0018 79.9273 34.805 80.0595 34.6012 80.0206Z" fill="#B8BDB9"/>
<path fill-rule="evenodd" clip-rule="evenodd" d="M34.0778 77.187C28.9048 76.2012 23.7246 76.6609 18.9208 78.6883C18.73 78.7688 18.5093 78.6807 18.4279 78.4914C18.3464 78.3022 18.435 78.0835 18.6258 78.003C23.5758 75.9139 28.9087 75.4436 34.2188 76.4556C34.4225 76.4944 34.5562 76.6896 34.5172 76.8916C34.4783 77.0936 34.2816 77.2258 34.0778 77.187Z" fill="#B8BDB9"/>
<path fill-rule="evenodd" clip-rule="evenodd" d="M33.5466 74.3545C28.3736 73.3686 23.1933 73.8284 18.3895 75.8558C18.1987 75.9363 17.978 75.8482 17.8966 75.6589C17.8152 75.4697 17.9038 75.251 18.0946 75.1704C23.0445 73.0814 28.3774 72.6111 33.6875 73.6231C33.8913 73.6619 34.0249 73.8571 33.986 74.0591C33.9471 74.261 33.7503 74.3933 33.5466 74.3545Z" fill="#B8BDB9"/>
<path fill-rule="evenodd" clip-rule="evenodd" d="M33.023 71.5269C27.8483 70.5359 22.6614 70.9949 17.8508 73.0264C17.66 73.107 17.4393 73.0189 17.3578 72.8296C17.2763 72.6404 17.3649 72.4217 17.5557 72.3411C22.5126 70.2479 27.8524 69.7783 33.1647 70.7957C33.3684 70.8347 33.5018 71.03 33.4627 71.2319C33.4236 71.4339 33.2267 71.5659 33.023 71.5269Z" fill="#B8BDB9"/>
<path fill-rule="evenodd" clip-rule="evenodd" d="M32.4918 68.6947C27.3171 67.7045 22.13 68.1627 17.3195 70.1941C17.1287 70.2747 16.908 70.1866 16.8265 69.9974C16.745 69.8082 16.8336 69.5894 17.0244 69.5089C21.9813 67.4156 27.3213 66.947 32.6333 67.9634C32.837 68.0024 32.9705 68.1977 32.9314 68.3996C32.8924 68.6016 32.6955 68.7337 32.4918 68.6947Z" fill="#B8BDB9"/>
<path d="M16.109 64.1869C20.9927 62.1246 26.2561 61.6603 31.4996 62.6644L32.0144 65.4933C26.7765 64.4938 21.519 64.9589 16.6396 67.0186L16.109 64.1869Z" fill="#B8BDB9"/>
<path fill-rule="evenodd" clip-rule="evenodd" d="M16.5379 64.4143L16.9283 66.4979C21.5907 64.6265 26.5778 64.1748 31.5528 65.0302L31.1802 62.9826C26.1887 62.0723 21.1917 62.5129 16.5379 64.4143ZM15.9658 63.8441C20.9226 61.7508 26.2625 61.2813 31.5747 62.2986L31.8278 62.3471L32.4855 65.9614L31.9481 65.8588C26.779 64.8724 21.5978 65.3322 16.7914 67.3611L16.3602 67.5431L15.689 63.9609L15.9658 63.8441Z" fill="#B8BDB9"/>
<path fill-rule="evenodd" clip-rule="evenodd" d="M38.4094 75.9851C37.7124 72.3033 36.754 67.2233 35.7539 61.8857L35.9386 61.8519C36.9387 67.1893 37.897 72.2692 38.594 75.9509C38.9425 77.7918 39.2257 79.283 39.4161 80.2821C39.5113 80.7817 39.5834 81.1582 39.6288 81.3938C39.6515 81.5116 39.6675 81.594 39.6764 81.6389C39.6783 81.6484 39.6798 81.656 39.681 81.662L39.682 81.6618C39.6834 81.6698 39.6845 81.6761 39.6851 81.6803C39.6853 81.6813 39.6855 81.6827 39.6857 81.6841L39.6858 81.6853C39.6859 81.686 39.686 81.6867 39.686 81.6873C39.6862 81.6887 39.6865 81.6926 39.6865 81.6952C39.6864 81.7026 39.6602 81.7619 39.6086 81.7889C39.552 81.7811 39.5071 81.7356 39.5044 81.7289C39.5035 81.7264 39.5023 81.7227 39.5019 81.7213C39.5017 81.7204 39.5013 81.719 39.5011 81.7183C39.4996 81.712 39.4963 81.6958 39.4921 81.6746C39.4831 81.6292 39.467 81.5463 39.4443 81.4285C39.3988 81.1927 39.3268 80.8161 39.2316 80.3165C39.0411 79.3173 38.7579 77.8259 38.4094 75.9851ZM39.6789 81.6624C39.6694 81.6503 39.6278 81.6125 39.5766 81.6054C39.5323 81.6287 39.5067 81.6758 39.5003 81.6931L39.6789 81.6624ZM39.4995 81.7084C39.4997 81.7095 39.4997 81.7099 39.4997 81.7099C39.4997 81.7098 39.4996 81.7093 39.4995 81.7084Z" fill="#EBEEF0"/>
<path fill-rule="evenodd" clip-rule="evenodd" d="M40.4259 74.7957C39.7291 71.1091 38.774 66.0413 37.7812 60.7432L37.9659 60.7094C38.9586 66.0074 39.9137 71.0751 40.6105 74.7616C40.959 76.6048 41.2428 78.1027 41.4346 79.1114C41.5304 79.6158 41.6033 79.9978 41.6496 80.2395C41.6728 80.3604 41.6893 80.4461 41.6988 80.4944C41.7018 80.5094 41.7039 80.5204 41.7054 80.5275L41.7061 80.5274C41.7073 80.5342 41.7083 80.5401 41.7088 80.5437C41.7089 80.5444 41.7093 80.5467 41.7096 80.5494C41.7097 80.5514 41.71 80.5584 41.7099 80.5635C41.6992 80.6022 41.5962 80.6497 41.5334 80.6026C41.53 80.5958 41.5265 80.5865 41.5258 80.5842C41.5254 80.583 41.5249 80.5811 41.5247 80.5802C41.5244 80.5787 41.524 80.5773 41.5238 80.5764C41.5223 80.5697 41.5191 80.5534 41.5144 80.5297C41.5049 80.481 41.4883 80.395 41.4651 80.2741C41.4187 80.0322 41.3459 79.6501 41.25 79.1457C41.0583 78.1369 40.7744 76.6389 40.4259 74.7957ZM41.7044 80.5277C41.7029 80.5239 41.7008 80.5189 41.6988 80.5148C41.636 80.4678 41.5331 80.5152 41.5223 80.5539C41.5223 80.5555 41.5223 80.5573 41.5223 80.5591L41.7044 80.5277Z" fill="#EBEEF0"/>
<path fill-rule="evenodd" clip-rule="evenodd" d="M42.4735 73.7798C41.7755 70.0835 40.8239 65.0302 39.8438 59.7993L40.0284 59.7655C41.0085 64.9963 41.9602 70.0495 42.6581 73.7458C43.0071 75.594 43.2927 77.1029 43.4867 78.1252C43.5837 78.6363 43.6578 79.0257 43.7055 79.2751C43.7294 79.3998 43.7466 79.4893 43.7568 79.5415C43.761 79.5633 43.764 79.5781 43.7656 79.5861L43.7662 79.586L43.7662 79.586C43.767 79.5909 43.7682 79.5976 43.7687 79.6019C43.7689 79.603 43.7692 79.6062 43.7693 79.6083C43.7694 79.6142 43.7453 79.6757 43.6921 79.705C43.6325 79.696 43.5882 79.6476 43.5862 79.642C43.5856 79.64 43.5847 79.637 43.5844 79.6359C43.5837 79.633 43.583 79.6299 43.5827 79.6284L43.5827 79.6283C43.5809 79.6202 43.5774 79.6026 43.5724 79.5766C43.5621 79.5241 43.5449 79.4343 43.521 79.3096C43.4733 79.0601 43.3991 78.6705 43.3021 78.1594C43.1081 77.137 42.8225 75.628 42.4735 73.7798ZM43.7653 79.5862C43.7651 79.5856 43.7649 79.585 43.7647 79.5845C43.7628 79.5791 43.7186 79.5307 43.6589 79.5217C43.6073 79.5501 43.5831 79.6088 43.5818 79.6175L43.7653 79.5862Z" fill="#EBEEF0"/>
<path fill-rule="evenodd" clip-rule="evenodd" d="M44.5532 72.9344C43.8537 69.224 42.9058 64.1857 41.9414 59.0391L42.1261 59.0053C43.0904 64.1518 44.0383 69.1901 44.7378 72.9004C45.0876 74.7556 45.3753 76.2788 45.5719 77.3176C45.6702 77.8369 45.7457 78.2352 45.7948 78.4932C45.8194 78.6223 45.8374 78.7162 45.8483 78.7727C45.8537 78.801 45.8574 78.8195 45.8591 78.8283L45.8594 78.8294L45.8597 78.8293C45.8602 78.832 45.8606 78.8343 45.8609 78.8362C45.861 78.8367 45.8611 78.8372 45.8612 78.8379C45.8613 78.8384 45.8613 78.839 45.8614 78.8396C45.8615 78.8403 45.8617 78.842 45.8619 78.843C45.8621 78.8452 45.8624 78.8552 45.8619 78.8631C45.7988 78.9414 45.6885 78.9019 45.6799 78.8841C45.6789 78.8811 45.6777 78.8769 45.6774 78.8755C45.6769 78.8737 45.6765 78.8719 45.6764 78.8713C45.676 78.8695 45.6755 78.8672 45.675 78.8648C45.673 78.855 45.6693 78.8357 45.6638 78.8075C45.6529 78.7507 45.6349 78.6566 45.6103 78.5276C45.5611 78.2694 45.4856 77.8711 45.3873 77.3517C45.1907 76.3129 44.903 74.7896 44.5532 72.9344ZM45.8592 78.8294C45.8587 78.8277 45.8578 78.8246 45.857 78.8223C45.8485 78.8046 45.7382 78.7651 45.6751 78.8433C45.6747 78.8496 45.6749 78.8572 45.675 78.861L45.8592 78.8294ZM45.6755 78.8659C45.6756 78.8664 45.6756 78.8662 45.6755 78.8656L45.6755 78.8659Z" fill="#EBEEF0"/>
<path fill-rule="evenodd" clip-rule="evenodd" d="M39.3975 81.3602C43.9805 78.5423 49.1268 77.0965 54.5025 77.2957C54.7098 77.3034 54.8718 77.4762 54.8643 77.6817C54.8568 77.8872 54.6827 78.0476 54.4754 78.0399C49.2582 77.8466 44.2583 79.2483 39.794 81.9933C39.6178 82.1016 39.3862 82.0477 39.2767 81.8729C39.1672 81.6981 39.2213 81.4685 39.3975 81.3602Z" fill="#CBD0D3"/>
<path fill-rule="evenodd" clip-rule="evenodd" d="M38.8477 78.5375C43.4353 75.713 48.5859 74.2645 53.9674 74.4636C54.1747 74.4713 54.3367 74.6441 54.3292 74.8496C54.3217 75.0551 54.1476 75.2155 53.9403 75.2078C48.7175 75.0146 43.7134 76.419 39.2446 79.1703C39.0685 79.2788 38.8368 79.225 38.7272 79.0503C38.6176 78.8755 38.6716 78.646 38.8477 78.5375Z" fill="#CBD0D3"/>
<path fill-rule="evenodd" clip-rule="evenodd" d="M38.3164 75.7048C42.9031 72.8814 48.0528 71.4331 53.4314 71.6318C53.6387 71.6394 53.8007 71.8122 53.7932 72.0178C53.7858 72.2233 53.6116 72.3837 53.4043 72.376C48.1845 72.1832 43.1812 73.5874 38.7132 76.3377C38.5371 76.4461 38.3054 76.3924 38.1958 76.2176C38.0863 76.0428 38.1402 75.8133 38.3164 75.7048Z" fill="#CBD0D3"/>
<path fill-rule="evenodd" clip-rule="evenodd" d="M37.789 72.8728C42.3758 70.0494 47.5255 68.6011 52.904 68.7997C53.1114 68.8074 53.2734 68.9802 53.2659 69.1857C53.2584 69.3913 53.0843 69.5517 52.877 69.544C47.6571 69.3512 42.6539 70.7554 38.1859 73.5057C38.0097 73.6141 37.7781 73.5603 37.6685 73.3856C37.5589 73.2108 37.6129 72.9812 37.789 72.8728Z" fill="#CBD0D3"/>
<path fill-rule="evenodd" clip-rule="evenodd" d="M37.2431 70.0491C41.8344 67.2191 46.9903 65.7677 52.3769 65.9678C52.5842 65.9755 52.7462 66.1484 52.7386 66.3539C52.7311 66.5594 52.557 66.7198 52.3496 66.7121C47.122 66.5179 42.1127 67.925 37.6403 70.6818C37.4642 70.7903 37.2325 70.7367 37.1228 70.562C37.0132 70.3873 37.067 70.1577 37.2431 70.0491Z" fill="#CBD0D3"/>
<path fill-rule="evenodd" clip-rule="evenodd" d="M36.7118 67.2164C41.3032 64.3873 46.4589 62.935 51.8456 63.1351C52.0529 63.1428 52.2149 63.3156 52.2073 63.5212C52.1998 63.7267 52.0257 63.887 51.8183 63.8793C46.5908 63.6852 41.5816 65.0932 37.1089 67.8491C36.9328 67.9576 36.7012 67.9039 36.5915 67.7292C36.4819 67.5545 36.5357 67.3249 36.7118 67.2164Z" fill="#CBD0D3"/>
<path fill-rule="evenodd" clip-rule="evenodd" d="M36.1953 64.3755C40.7829 61.5519 45.9345 60.1032 51.3151 60.3025C51.5224 60.3102 51.6844 60.483 51.6769 60.6885C51.6694 60.8941 51.4952 61.0544 51.2879 61.0468C46.0661 60.8534 41.061 62.2579 36.592 65.0084C36.4159 65.1168 36.1843 65.063 36.0747 64.8882C35.9651 64.7135 36.0191 64.4839 36.1953 64.3755Z" fill="#CBD0D3"/>
<path fill-rule="evenodd" clip-rule="evenodd" d="M35.6493 61.5521C40.2406 58.7221 45.3965 57.2707 50.7831 57.4708C50.9904 57.4785 51.1524 57.6513 51.1449 57.8568C51.1374 58.0624 50.9632 58.2227 50.7559 58.215C45.5283 58.0208 40.519 59.428 36.0465 62.1847C35.8704 62.2932 35.6388 62.2396 35.5291 62.0649C35.4194 61.8902 35.4732 61.6606 35.6493 61.5521Z" fill="#CBD0D3"/>
<path d="M35.8512 61.8682C40.3831 59.0748 45.4686 57.646 50.7728 57.8427L52.3649 66.3396C47.0578 66.1425 41.9753 67.5717 37.4433 70.3651L35.8512 61.8682Z" fill="#CBD0D3"/>
<path fill-rule="evenodd" clip-rule="evenodd" d="M36.268 62.0514L37.7135 69.7658C42.0517 67.2015 46.8759 65.856 51.9112 65.954L50.4592 58.2052C45.4273 58.0775 40.599 59.4345 36.268 62.0514ZM35.653 61.5517C40.2444 58.7217 45.4032 57.2707 50.7868 57.4704C50.9626 57.4769 51.1104 57.6034 51.1425 57.7749L52.7347 66.2718C52.7555 66.383 52.7243 66.4974 52.6498 66.5829C52.5753 66.6685 52.4657 66.7158 52.3517 66.7115C47.1241 66.5173 42.1149 67.9245 37.6424 70.6812C37.537 70.7462 37.4059 70.7553 37.2923 70.7055C37.1787 70.6557 37.0971 70.5535 37.0745 70.4325L35.4823 61.9356C35.4541 61.7849 35.5218 61.6325 35.653 61.5517Z" fill="#CBD0D3"/>
<path d="M58.5653 63.8789C59.4409 69.4451 53.8286 72.955 49.9531 71.6584" stroke="black" stroke-width="1.46754" stroke-linecap="round"/>
<path d="M8.73839 76.438C10.3542 80.9983 16.361 82.8957 22.3896 76.438" stroke="black" stroke-width="1.46754" stroke-linecap="round"/>
<path d="M160.68 68.3555C161.614 75.0318 162.211 82.7648 160.68 89.3521" stroke="#161B18" stroke-width="1.47201" stroke-miterlimit="10" stroke-linecap="round"/>
<path d="M171.536 72.5684L167.755 104.417H163.285" stroke="#161B18" stroke-width="1.47201" stroke-miterlimit="10" stroke-linecap="round"/>
<path d="M187.455 104.418H182.984C183.621 94.2386 184.801 79.748 184.801 79.748" stroke="#161B18" stroke-width="1.47201" stroke-linecap="round" stroke-linejoin="round"/>
<path d="M199.766 66.9043C202.116 70.5486 206.161 79.9206 204.147 84.5945" stroke="black" stroke-width="1.46754" stroke-linecap="round"/>
<path d="M161.004 59.9897C157.348 62.7243 151.154 68.326 151.1 75.1165" stroke="black" stroke-width="1.46754" stroke-linecap="round"/>
<path d="M161.004 59.9897C157.348 62.7243 151.154 68.326 151.1 75.1165C151.055 80.7514 155.45 85.9213 163.201 82.0316" stroke="black" stroke-width="1.46754" stroke-linecap="round"/>
<path d="M188.416 36.6902C193.74 38.6254 198.342 42.2229 200.866 47.3743C206.452 58.7763 201.061 74.5519 189.486 80.0884C178.987 85.1198 164.987 81.2398 158.656 71.5562C152.326 61.8726 154.499 47.6742 163.448 40.2703C170.148 34.7318 180.154 33.6965 188.416 36.6902Z" fill="#77AD8C"/>
<path d="M200.868 47.3742C199.856 45.3231 198.493 43.4604 196.838 41.8687C197.476 42.7541 198.038 43.6907 198.518 44.6688C204.105 56.0709 198.714 71.8464 187.138 77.383C178.057 81.7332 166.36 79.411 159.27 72.4444C165.854 81.4739 179.314 84.9611 189.488 80.0922C201.056 74.5518 206.454 58.7763 200.868 47.3742Z" fill="#5C9271"/>
<path d="M182.034 67.7803C179.244 71.49 174.047 72.7053 170.09 68.2854" stroke="#161B18" stroke-width="1.10499" stroke-miterlimit="10" stroke-linecap="round"/>
<path d="M175.979 96.185C175.89 97.1307 178.282 75.3669 178.956 68.2959C172.543 64.336 165.246 62.8309 157.866 64.3283L154.89 92.2164C162.27 90.72 169.567 92.225 175.979 96.185Z" fill="#CBD0D3"/>
<path d="M176.015 96.1885C175.903 97.1319 178.157 75.3538 178.991 68.2995C186.098 65.7487 193.552 65.7813 200.454 68.7673L197.478 96.6554C190.576 93.6704 183.122 93.6378 176.015 96.1885Z" fill="#EBEEF0"/>
<path fill-rule="evenodd" clip-rule="evenodd" d="M174.58 85.6005C175.017 81.5717 175.617 76.0131 176.24 70.1734L176.443 70.1945C175.82 76.0344 175.22 81.5931 174.782 85.622C174.563 87.6364 174.385 89.2684 174.265 90.3619C174.205 90.9087 174.159 91.3209 174.13 91.5789C174.116 91.7079 174.106 91.7986 174.1 91.8484C174.097 91.8716 174.095 91.8893 174.094 91.8962C174.094 91.897 174.093 91.8986 174.093 91.8996C174.093 91.9011 174.092 91.9052 174.091 91.9079C174.089 91.9154 174.044 91.9682 173.984 91.9814C173.926 91.9565 173.892 91.8947 173.891 91.8868C173.891 91.884 173.891 91.8797 173.891 91.8781C173.891 91.8771 173.891 91.8755 173.891 91.8747C173.891 91.8737 173.892 91.8726 173.892 91.8717L173.892 91.8705C173.892 91.866 173.893 91.859 173.894 91.8504L173.895 91.8505C173.895 91.844 173.896 91.8355 173.898 91.8252C173.903 91.776 173.914 91.6858 173.928 91.5568C173.957 91.299 174.002 90.8869 174.063 90.3402C174.183 89.2468 174.361 87.6149 174.58 85.6005ZM173.897 91.8507C173.906 91.8369 173.948 91.7927 174.003 91.7808C174.053 91.8022 174.084 91.8509 174.093 91.869L173.897 91.8507ZM174.095 91.887C174.095 91.8871 174.095 91.8866 174.095 91.8854C174.095 91.8864 174.095 91.887 174.095 91.887Z" fill="#CBD0D3"/>
<path fill-rule="evenodd" clip-rule="evenodd" d="M172.305 84.4862C172.743 80.4523 173.34 74.9071 173.959 69.1105L174.162 69.1316C173.543 74.9284 172.945 80.4736 172.508 84.5076C172.289 86.5246 172.111 88.1638 171.99 89.2677C171.93 89.8197 171.884 90.2379 171.854 90.5026C171.839 90.6349 171.829 90.7291 171.823 90.7824C171.82 90.8084 171.818 90.8262 171.817 90.8336C171.816 90.8346 171.816 90.8361 171.816 90.8378C171.816 90.8387 171.815 90.8408 171.815 90.8422C171.814 90.8448 171.811 90.8552 171.808 90.8629C171.745 90.9186 171.629 90.8762 171.614 90.8353C171.614 90.8297 171.613 90.8221 171.613 90.8199C171.614 90.817 171.614 90.8145 171.614 90.8137L171.614 90.8137C171.614 90.8097 171.615 90.8033 171.615 90.7958L171.616 90.7959C171.617 90.7881 171.618 90.7761 171.62 90.7596C171.626 90.7067 171.637 90.613 171.652 90.4807C171.681 90.2161 171.727 89.798 171.787 89.2461C171.908 88.1422 172.087 86.5031 172.305 84.4862ZM171.617 90.796L171.817 90.8148C171.817 90.8128 171.816 90.8108 171.816 90.809C171.801 90.7681 171.686 90.7257 171.622 90.7814C171.62 90.7861 171.618 90.7918 171.617 90.796Z" fill="#CBD0D3"/>
<path fill-rule="evenodd" clip-rule="evenodd" d="M170.011 83.5613C170.448 79.5166 171.044 73.9874 171.654 68.2644L171.857 68.2855C171.246 74.0086 170.651 79.5379 170.213 83.5827C169.995 85.605 169.816 87.2563 169.694 88.375C169.633 88.9344 169.586 89.3607 169.556 89.6337C169.541 89.7702 169.53 89.8685 169.523 89.9261C169.52 89.9545 169.517 89.9738 169.516 89.9827L169.516 89.9827C169.516 89.9844 169.516 89.9878 169.515 89.991C169.515 89.9922 169.514 89.9955 169.514 89.9977C169.512 90.0039 169.468 90.0599 169.405 90.0745C169.345 90.0473 169.313 89.983 169.313 89.9765C169.313 89.9743 169.313 89.9709 169.313 89.9696C169.313 89.965 169.314 89.9577 169.314 89.9523L169.314 89.9523L169.315 89.9523C169.316 89.9435 169.318 89.9274 169.321 89.9035C169.327 89.8464 169.338 89.7484 169.353 89.6119C169.383 89.339 169.43 88.9128 169.491 88.3535C169.613 87.2348 169.792 85.5836 170.011 83.5613ZM169.315 89.9524L169.516 89.971C169.514 89.9616 169.483 89.9004 169.425 89.874C169.361 89.8886 169.317 89.9445 169.316 89.9505C169.316 89.9511 169.315 89.9517 169.315 89.9524Z" fill="#CBD0D3"/>
<path fill-rule="evenodd" clip-rule="evenodd" d="M167.698 82.8229C168.136 78.763 168.728 73.2502 169.329 67.6193L169.531 67.6404C168.93 73.2714 168.338 78.7843 167.9 82.8443C167.681 84.8743 167.501 86.541 167.378 87.6778C167.316 88.2461 167.268 88.682 167.237 88.9645C167.222 89.1058 167.211 89.2088 167.204 89.2709C167.2 89.3018 167.198 89.323 167.196 89.3337C167.196 89.3363 167.196 89.3388 167.195 89.3408C167.195 89.3415 167.195 89.3434 167.195 89.3454C167.195 89.3469 167.194 89.3516 167.193 89.3549C167.185 89.3748 167.069 89.4266 166.994 89.3474C166.993 89.3389 166.992 89.3281 166.993 89.3257C166.993 89.3245 166.993 89.3228 166.993 89.322C166.993 89.3213 166.993 89.3207 166.993 89.3201C166.993 89.3194 166.993 89.3188 166.993 89.3183C166.993 89.3162 166.993 89.3136 166.994 89.3107L166.994 89.3107L166.994 89.3096C166.995 89.3 166.998 89.2797 167.001 89.2487C167.008 89.1869 167.019 89.0841 167.035 88.9429C167.066 88.6605 167.113 88.2247 167.175 87.6563C167.299 86.5196 167.479 84.8529 167.698 82.8229ZM166.994 89.3108L167.196 89.3295C167.196 89.3255 167.195 89.3173 167.194 89.3105C167.12 89.2314 167.004 89.2831 166.996 89.3029C166.995 89.3055 166.995 89.3089 166.994 89.3108ZM167.196 89.3349L167.196 89.3345C167.196 89.3352 167.196 89.3354 167.196 89.3349Z" fill="#CBD0D3"/>
<path fill-rule="evenodd" clip-rule="evenodd" d="M165.365 82.2686C165.805 78.1865 166.395 72.6862 166.985 67.1579L167.187 67.179C166.598 72.7074 166.007 78.2078 165.568 82.2899C165.348 84.3309 165.166 86.0174 165.041 87.1756C164.978 87.7546 164.93 88.2016 164.898 88.4948C164.882 88.6414 164.87 88.7495 164.863 88.8166C164.859 88.85 164.856 88.8734 164.855 88.8863L164.855 88.887C164.854 88.8916 164.854 88.8981 164.853 88.9018C164.853 88.9035 164.851 88.9109 164.849 88.9167C164.757 88.9865 164.653 88.9061 164.651 88.887C164.651 88.8843 164.651 88.8806 164.651 88.8795L164.651 88.8772C164.651 88.8753 164.651 88.873 164.652 88.8707L164.854 88.8897C164.854 88.8883 164.854 88.8863 164.854 88.8847C164.852 88.8656 164.748 88.7852 164.656 88.855C164.654 88.8607 164.652 88.868 164.652 88.8695C164.652 88.8702 164.652 88.8706 164.652 88.8706C164.652 88.8706 164.652 88.8687 164.653 88.8634C164.654 88.8511 164.657 88.8282 164.66 88.7947C164.668 88.7278 164.68 88.6198 164.696 88.4732C164.728 88.1801 164.776 87.7332 164.839 87.1542C164.964 85.9961 165.146 84.3096 165.365 82.2686Z" fill="#CBD0D3"/>
<path fill-rule="evenodd" clip-rule="evenodd" d="M163.009 81.9342C163.449 77.8406 164.036 72.3639 164.615 66.9398L164.817 66.961C164.238 72.3851 163.651 77.8618 163.212 81.9555C162.992 84.0023 162.809 85.7035 162.682 86.8794C162.618 87.4674 162.569 87.924 162.536 88.227C162.52 88.3785 162.507 88.4916 162.499 88.5634C162.495 88.5993 162.493 88.6251 162.491 88.6402C162.49 88.6475 162.489 88.6532 162.489 88.6563C162.489 88.6565 162.489 88.659 162.488 88.6616C162.488 88.6645 162.476 88.6941 162.459 88.7169C162.351 88.7385 162.286 88.6465 162.286 88.6417C162.286 88.6402 162.286 88.638 162.286 88.6372L162.286 88.6353L162.287 88.6323L162.489 88.6506C162.489 88.6497 162.49 88.6485 162.49 88.6472C162.49 88.6425 162.424 88.5505 162.317 88.5722C162.299 88.595 162.288 88.6245 162.287 88.6272C162.287 88.6294 162.287 88.6312 162.287 88.6304C162.287 88.6293 162.288 88.6254 162.288 88.6177C162.29 88.603 162.293 88.5776 162.297 88.5417C162.305 88.47 162.317 88.357 162.334 88.2055C162.367 87.9026 162.416 87.446 162.479 86.8581C162.606 85.6822 162.789 83.9811 163.009 81.9342Z" fill="#CBD0D3"/>
<path fill-rule="evenodd" clip-rule="evenodd" d="M160.626 81.7955C161.067 77.685 161.651 72.2261 162.219 66.9047L162.422 66.9258C161.854 72.2472 161.269 77.7062 160.829 81.8167C160.609 83.8719 160.424 85.59 160.296 86.7852C160.232 87.3828 160.181 87.8497 160.148 88.1626C160.131 88.3191 160.118 88.4371 160.11 88.5137C160.106 88.552 160.103 88.58 160.101 88.5973L160.099 88.6154L160.099 88.6157C160.099 88.6166 160.098 88.6192 160.098 88.6212C160.098 88.6253 159.985 88.7072 159.896 88.605C159.896 88.6023 159.896 88.599 159.896 88.5982L159.896 88.5959L160.099 88.6156C160.099 88.6151 160.099 88.6119 160.099 88.6093C160.01 88.5072 159.897 88.589 159.897 88.593C159.896 88.594 159.896 88.5947 159.896 88.5947L159.897 88.5932L159.898 88.5757C159.9 88.5585 159.903 88.5306 159.907 88.4924C159.916 88.4158 159.928 88.2978 159.945 88.1414C159.979 87.8284 160.029 87.3616 160.093 86.764C160.222 85.5688 160.406 83.8507 160.626 81.7955Z" fill="#CBD0D3"/>
<path fill-rule="evenodd" clip-rule="evenodd" d="M159.809 67.0767L160.011 67.0978L157.696 88.7894C157.693 88.7891 157.689 88.7887 157.686 88.7884C157.659 88.7856 157.583 88.7776 157.504 88.7694C157.501 88.7691 157.497 88.7687 157.494 88.7684L159.809 67.0767Z" fill="#CBD0D3"/>
<path fill-rule="evenodd" clip-rule="evenodd" d="M173.801 92.2168C168.752 89.6285 163.241 88.5336 157.63 89.1769C157.408 89.2025 157.206 89.044 157.18 88.823C157.155 88.602 157.315 88.4021 157.538 88.3765C163.318 87.7136 168.992 88.8439 174.175 91.501C174.374 91.6031 174.452 91.8462 174.349 92.0438C174.246 92.2415 174.001 92.3189 173.801 92.2168Z" fill="#B8BDB9"/>
<path fill-rule="evenodd" clip-rule="evenodd" d="M174.149 89.1262C169.095 86.5314 163.579 85.4339 157.962 86.0776C157.74 86.1032 157.538 85.9447 157.512 85.7237C157.487 85.5027 157.647 85.3028 157.87 85.2772C163.657 84.614 169.335 85.7469 174.524 88.4106C174.723 88.5129 174.8 88.756 174.697 88.9536C174.594 89.1512 174.349 89.2285 174.149 89.1262Z" fill="#B8BDB9"/>
<path fill-rule="evenodd" clip-rule="evenodd" d="M174.49 86.0284C169.431 83.4341 163.915 82.3368 158.302 82.9798C158.079 83.0053 157.878 82.8469 157.852 82.6258C157.827 82.4048 157.987 82.2049 158.21 82.1794C163.993 81.5168 169.671 82.6496 174.863 85.3127C175.063 85.4149 175.14 85.6579 175.037 85.8556C174.934 86.0532 174.689 86.1306 174.49 86.0284Z" fill="#B8BDB9"/>
<path fill-rule="evenodd" clip-rule="evenodd" d="M174.822 82.9298C169.763 80.3355 164.247 79.2381 158.634 79.8812C158.411 79.9067 158.21 79.7482 158.184 79.5272C158.159 79.3062 158.319 79.1063 158.542 79.0807C164.325 78.4182 170.003 79.551 175.195 82.2141C175.395 82.3162 175.472 82.5593 175.369 82.757C175.266 82.9546 175.021 83.032 174.822 82.9298Z" fill="#B8BDB9"/>
<path fill-rule="evenodd" clip-rule="evenodd" d="M175.157 79.838C170.098 77.2378 164.576 76.1377 158.955 76.7829C158.732 76.8085 158.53 76.65 158.505 76.429C158.479 76.208 158.639 76.0081 158.862 75.9825C164.654 75.3177 170.338 76.4533 175.531 79.1227C175.731 79.225 175.808 79.4682 175.705 79.6657C175.601 79.8633 175.356 79.9404 175.157 79.838Z" fill="#B8BDB9"/>
<path fill-rule="evenodd" clip-rule="evenodd" d="M175.485 76.7387C170.426 74.1394 164.904 73.0384 159.283 73.6835C159.06 73.7091 158.858 73.5507 158.833 73.3296C158.807 73.1086 158.967 72.9087 159.19 72.8831C164.982 72.2183 170.666 73.3549 175.86 76.0233C176.059 76.1256 176.136 76.3687 176.033 76.5663C175.93 76.7639 175.684 76.841 175.485 76.7387Z" fill="#B8BDB9"/>
<path d="M159.902 67.0859C165.609 66.4309 171.212 67.5487 176.338 70.1836L175.992 73.274C170.871 70.6457 165.273 69.5305 159.572 70.184L159.902 67.0859Z" fill="#B8BDB9"/>
<path fill-rule="evenodd" clip-rule="evenodd" d="M160.27 67.4513L160.027 69.731C165.444 69.2068 170.757 70.2538 175.651 72.6526L175.902 70.4158C171.008 67.9549 165.688 66.8935 160.27 67.4513ZM159.854 66.6861C165.646 66.0213 171.33 67.1569 176.524 69.8263L176.771 69.9534L176.329 73.9019L175.803 73.6322C170.749 71.0384 165.232 69.9409 159.616 70.5846L159.112 70.6424L159.531 66.7232L159.854 66.6861Z" fill="#B8BDB9"/>
<path fill-rule="evenodd" clip-rule="evenodd" d="M179.36 86.0994C179.783 82.0689 180.369 76.5088 180.992 70.6689L181.195 70.6901C180.572 76.5298 179.985 82.0898 179.563 86.1201C179.352 88.1353 179.181 89.7681 179.068 90.8622C179.011 91.4093 178.969 91.8216 178.943 92.0798C178.93 92.2089 178.921 92.2992 178.916 92.3485C178.915 92.3589 178.914 92.3673 178.914 92.3739L178.915 92.374C178.914 92.3826 178.913 92.3896 178.912 92.3941C178.912 92.3952 178.912 92.3967 178.911 92.3982L178.911 92.3995C178.911 92.4002 178.911 92.401 178.911 92.4016C178.911 92.4031 178.91 92.4073 178.909 92.41C178.906 92.4176 178.861 92.4712 178.799 92.4835C178.742 92.4581 178.71 92.3973 178.709 92.3895C178.709 92.3867 178.709 92.3825 178.709 92.3809C178.709 92.3799 178.709 92.3783 178.709 92.3775C178.709 92.3705 178.711 92.3528 178.713 92.3295C178.718 92.2796 178.727 92.1888 178.74 92.0597C178.766 91.8013 178.809 91.3888 178.865 90.8417C178.979 89.7475 179.149 88.1146 179.36 86.0994ZM178.911 92.3736C178.905 92.3582 178.874 92.3064 178.823 92.2834C178.769 92.2941 178.728 92.3352 178.716 92.3511L178.911 92.3736ZM178.71 92.3667C178.71 92.3679 178.71 92.3684 178.71 92.3684C178.71 92.3683 178.71 92.3677 178.71 92.3667Z" fill="#EBEEF0"/>
<path fill-rule="evenodd" clip-rule="evenodd" d="M181.821 85.4782C182.245 81.4429 182.831 75.8964 183.449 70.0996L183.652 70.1207C183.033 75.9174 182.447 81.4637 182.023 85.499C181.811 87.5167 181.64 89.1565 181.525 90.261C181.467 90.8132 181.424 91.2316 181.397 91.4964C181.383 91.6288 181.374 91.7227 181.368 91.7756C181.367 91.7922 181.366 91.8042 181.365 91.812L181.366 91.8121C181.365 91.8195 181.364 91.8259 181.363 91.8299C181.363 91.8306 181.363 91.8331 181.362 91.836C181.362 91.8381 181.36 91.8454 181.358 91.8507C181.335 91.8876 181.213 91.9055 181.163 91.8376C181.161 91.8295 181.161 91.8188 181.161 91.8162C181.161 91.8148 181.161 91.8127 181.161 91.8117C181.161 91.8101 181.161 91.8085 181.161 91.8075C181.162 91.8001 181.163 91.7822 181.166 91.7562C181.171 91.7028 181.181 91.6085 181.194 91.4761C181.221 91.2111 181.265 90.7927 181.322 90.2404C181.437 89.1358 181.609 87.4959 181.821 85.4782ZM181.364 91.8119C181.364 91.8075 181.363 91.8017 181.362 91.7968C181.311 91.729 181.19 91.7468 181.166 91.7837C181.166 91.7853 181.165 91.7872 181.165 91.7891L181.364 91.8119Z" fill="#EBEEF0"/>
<path fill-rule="evenodd" clip-rule="evenodd" d="M184.261 85.0465C184.687 81.0006 185.272 75.4702 185.883 69.7471L186.085 69.7682C185.475 75.4912 184.89 81.0215 184.464 85.0673C184.251 87.0903 184.077 88.7421 183.961 89.8613C183.902 90.4209 183.858 90.8474 183.83 91.1205C183.816 91.257 183.806 91.3551 183.8 91.4123C183.798 91.4363 183.796 91.4525 183.795 91.4613L183.796 91.4614L183.796 91.4614C183.795 91.4667 183.795 91.474 183.794 91.4786C183.794 91.4799 183.793 91.4832 183.792 91.4854C183.791 91.4916 183.746 91.5481 183.682 91.5623C183.623 91.5348 183.592 91.4711 183.591 91.4647C183.591 91.4625 183.591 91.4591 183.592 91.4578C183.592 91.4546 183.592 91.4511 183.592 91.4495L183.592 91.4495C183.593 91.4405 183.595 91.4212 183.597 91.3927C183.603 91.3351 183.613 91.2367 183.627 91.1001C183.655 90.8269 183.7 90.4003 183.758 89.8406C183.875 88.7213 184.048 87.0695 184.261 85.0465ZM183.795 91.4613C183.795 91.4606 183.795 91.4599 183.795 91.4594C183.795 91.4531 183.764 91.3895 183.705 91.3621C183.642 91.3759 183.599 91.4293 183.595 91.438L183.795 91.4613Z" fill="#EBEEF0"/>
<path fill-rule="evenodd" clip-rule="evenodd" d="M186.679 84.8014C187.108 80.7404 187.692 75.2267 188.293 69.5957L188.495 69.6168C187.895 75.2477 187.31 80.7614 186.882 84.8222C186.667 86.8527 186.492 88.5199 186.373 89.657C186.313 90.2256 186.267 90.6616 186.238 90.9442C186.223 91.0855 186.213 91.1883 186.207 91.2502C186.203 91.2813 186.201 91.3016 186.2 91.3113L186.2 91.3124L186.201 91.3124C186.2 91.3153 186.2 91.3179 186.2 91.32C186.2 91.3205 186.2 91.3211 186.2 91.3218C186.2 91.3224 186.199 91.323 186.199 91.3237C186.199 91.3244 186.199 91.3262 186.199 91.3273C186.198 91.3297 186.196 91.3402 186.193 91.3482C186.103 91.4102 186 91.3356 185.997 91.3146C185.997 91.3112 185.997 91.3064 185.997 91.3049C185.997 91.3028 185.997 91.301 185.997 91.3002C185.997 91.2982 185.997 91.2957 185.998 91.2931C185.999 91.2824 186.001 91.2611 186.004 91.2302C186.01 91.1681 186.021 91.065 186.035 90.9236C186.065 90.6409 186.11 90.2049 186.17 89.6363C186.289 88.4991 186.465 86.8318 186.679 84.8014ZM186.2 91.3124C186.2 91.3105 186.2 91.307 186.2 91.3044C186.197 91.2834 186.094 91.2089 186.005 91.2709C186.002 91.2773 186 91.2852 185.999 91.2891L186.2 91.3124ZM185.998 91.2944C185.998 91.2949 185.998 91.2947 185.998 91.2941L185.998 91.2944Z" fill="#EBEEF0"/>
<path fill-rule="evenodd" clip-rule="evenodd" d="M178.707 91.9734C184.337 90.4434 190.124 90.5077 195.638 92.3478C195.85 92.4188 195.965 92.6473 195.893 92.8581C195.821 93.069 195.591 93.1824 195.378 93.1115C190.027 91.3257 184.405 91.2601 178.921 92.7505C178.705 92.8093 178.482 92.6831 178.422 92.4685C178.363 92.2539 178.491 92.0323 178.707 91.9734Z" fill="#CBD0D3"/>
<path fill-rule="evenodd" clip-rule="evenodd" d="M179.019 88.8793C184.655 87.3439 190.448 87.4066 195.967 89.2484C196.18 89.3193 196.294 89.5478 196.223 89.7587C196.151 89.9696 195.92 90.083 195.708 90.0121C190.351 88.2246 184.724 88.1606 179.233 89.6562C179.017 89.7152 178.793 89.5891 178.734 89.3745C178.675 89.16 178.802 88.9383 179.019 88.8793Z" fill="#CBD0D3"/>
<path fill-rule="evenodd" clip-rule="evenodd" d="M179.351 85.7805C184.986 84.2459 190.778 84.3086 196.294 86.149C196.507 86.22 196.621 86.4484 196.55 86.6593C196.478 86.8702 196.247 86.9837 196.035 86.9127C190.681 85.1266 185.055 85.0626 179.565 86.5574C179.349 86.6164 179.126 86.4902 179.066 86.2756C179.007 86.0611 179.134 85.8394 179.351 85.7805Z" fill="#CBD0D3"/>
<path fill-rule="evenodd" clip-rule="evenodd" d="M179.683 82.6818C185.318 81.1473 191.11 81.21 196.626 83.0504C196.839 83.1213 196.953 83.3498 196.882 83.5607C196.81 83.7716 196.579 83.885 196.367 83.8141C191.013 82.028 185.387 81.964 179.898 83.4588C179.681 83.5177 179.458 83.3916 179.398 83.177C179.339 82.9625 179.466 82.7408 179.683 82.6818Z" fill="#CBD0D3"/>
<path fill-rule="evenodd" clip-rule="evenodd" d="M179.994 79.5877C185.637 78.0477 191.436 78.1091 196.96 79.9534C197.173 80.0244 197.287 80.2529 197.215 80.4637C197.143 80.6746 196.913 80.788 196.7 80.717C191.339 78.9271 185.706 78.8644 180.21 80.3645C179.993 80.4236 179.77 80.2975 179.71 80.083C179.651 79.8685 179.778 79.6467 179.994 79.5877Z" fill="#CBD0D3"/>
<path fill-rule="evenodd" clip-rule="evenodd" d="M180.323 76.4888C185.965 74.9498 191.764 75.0102 197.288 76.8545C197.501 76.9255 197.615 77.154 197.543 77.3649C197.472 77.5757 197.241 77.6891 197.028 77.6181C191.667 75.8283 186.034 75.7665 180.538 77.2656C180.321 77.3247 180.098 77.1986 180.038 76.9841C179.979 76.7695 180.106 76.5478 180.323 76.4888Z" fill="#CBD0D3"/>
<path fill-rule="evenodd" clip-rule="evenodd" d="M180.671 73.3852C186.308 71.8508 192.101 71.9136 197.62 73.7553C197.832 73.8262 197.947 74.0547 197.875 74.2656C197.803 74.4765 197.573 74.5899 197.36 74.5189C192.004 72.7316 186.376 72.6674 180.886 74.1621C180.669 74.2211 180.446 74.0949 180.387 73.8803C180.327 73.6658 180.455 73.4441 180.671 73.3852Z" fill="#CBD0D3"/>
<path fill-rule="evenodd" clip-rule="evenodd" d="M180.987 70.2913C186.629 68.7513 192.428 68.8127 197.952 70.657C198.165 70.728 198.279 70.9565 198.207 71.1674C198.136 71.3782 197.905 71.4916 197.693 71.4206C192.331 69.6307 186.698 69.568 181.202 71.0681C180.985 71.1272 180.762 71.0011 180.702 70.7866C180.643 70.5721 180.77 70.3503 180.987 70.2913Z" fill="#CBD0D3"/>
<path d="M181.096 70.6793C186.665 69.1593 192.384 69.2227 197.824 71.0385L196.832 80.3348C191.389 78.5177 185.673 78.4556 180.104 79.9757L181.096 70.6793Z" fill="#CBD0D3"/>
<path fill-rule="evenodd" clip-rule="evenodd" d="M181.469 70.9965L180.568 79.4367C185.865 78.0954 191.287 78.1658 196.479 79.7975L197.384 71.3197C192.205 69.6581 186.775 69.5984 181.469 70.9965ZM180.987 70.2913C186.629 68.7513 192.431 68.814 197.952 70.657C198.132 70.7172 198.246 70.8934 198.226 71.081L197.234 80.3773C197.221 80.499 197.153 80.6082 197.05 80.6742C196.946 80.7403 196.817 80.7561 196.7 80.717C191.339 78.9271 185.706 78.8644 180.21 80.3645C180.08 80.3999 179.941 80.3695 179.839 80.2833C179.737 80.1972 179.684 80.0664 179.698 79.934L180.69 70.6376C180.708 70.4727 180.825 70.3353 180.987 70.2913Z" fill="#CBD0D3"/>
<path d="M204.146 84.5949C202.475 88.4735 196.395 87.3359 193.792 84.2983" stroke="black" stroke-width="1.46754" stroke-linecap="round"/>
<path d="M151.096 75.1164C151.051 80.7513 155.445 85.9212 163.196 82.0315" stroke="black" stroke-width="1.46754" stroke-linecap="round"/>
<path d="M91.4286 81.6177C90.7002 89.8189 90.9724 97.5829 93.4043 104.414H97.8745" stroke="#161B18" stroke-width="1.47201" stroke-linecap="round" stroke-linejoin="round"/>
<path d="M80.2265 81.2383C79.4668 89.4163 79.9818 97.2035 82.3804 104.416H77.9023" stroke="#161B18" stroke-width="1.47201" stroke-linecap="round" stroke-linejoin="round"/>
<path d="M118.418 79.0063C125.738 82.8962 128.618 87.451 127.891 91.341" stroke="black" stroke-width="1.46754" stroke-linecap="round"/>
<path d="M60.7188 71.2266C53.2099 74.5402 49.0923 77.6002 49.0923 84.6246" stroke="black" stroke-width="1.46754" stroke-linecap="round"/>
<path d="M57.8405 49.7627L54.4609 83.7482L122.802 90.0511L124.245 57.2402L57.8405 49.7627Z" fill="#77AD8C"/>
<path d="M57.4763 82.2678L60.1138 50.0181L57.8405 49.7627L54.4609 83.7482L122.802 90.0511L122.929 87.1754L57.4763 82.2678Z" fill="#5C9271"/>
<path d="M80.625 72.7485C84.4569 77.4704 91.9816 79.4849 98.0926 74.645" stroke="#161B18" stroke-width="1.10499" stroke-miterlimit="10" stroke-linecap="round"/>
<path d="M86.7404 98.2362C86.6395 99.1808 89.2899 77.4463 90.0478 70.3836C83.683 66.3494 76.4041 64.7598 69.007 66.1714L65.6997 94.0229C73.0966 92.6123 80.3756 94.202 86.7404 98.2362Z" fill="#CBD0D3"/>
<path d="M86.7762 98.2403C86.6531 99.1824 89.1663 77.4319 90.0836 70.3877C97.2206 67.9197 104.674 68.0388 111.539 71.1048L108.232 98.9563C101.367 95.8914 93.9131 95.7722 86.7762 98.2403Z" fill="#EBEEF0"/>
<path fill-rule="evenodd" clip-rule="evenodd" d="M85.4666 87.6368C85.952 83.6133 86.6182 78.0621 87.3107 72.2299L87.5129 72.2534C86.8204 78.0857 86.1542 83.637 85.6688 87.6606C85.426 89.6724 85.2284 91.3022 85.0953 92.3943C85.0287 92.9403 84.9783 93.3519 84.9463 93.6096C84.9303 93.7384 84.919 93.829 84.9125 93.8787C84.9095 93.9019 84.9072 93.9196 84.9059 93.9265C84.9058 93.9273 84.9055 93.9288 84.9053 93.9298C84.905 93.9313 84.904 93.9354 84.9032 93.9381C84.9007 93.9456 84.8555 93.9978 84.7948 94.0103C84.7371 93.9848 84.7044 93.9227 84.7037 93.9147C84.7036 93.9118 84.7036 93.9076 84.7036 93.906C84.7037 93.905 84.7038 93.9034 84.7038 93.9026C84.7039 93.9016 84.704 93.9005 84.704 93.8996L84.7041 93.8984C84.7045 93.8939 84.7053 93.887 84.7062 93.8783L84.7072 93.8784C84.7081 93.8719 84.7092 93.8635 84.7106 93.8531C84.7169 93.804 84.7282 93.714 84.7442 93.5852C84.7761 93.3276 84.8266 92.9162 84.8931 92.3702C85.0263 91.2783 85.2238 89.6485 85.4666 87.6368ZM84.7096 93.8787C84.719 93.865 84.7612 93.8213 84.816 93.81C84.8657 93.8319 84.8969 93.881 84.905 93.8992L84.7096 93.8787ZM84.9069 93.9173C84.9069 93.9173 84.9069 93.9168 84.907 93.9156C84.907 93.9166 84.9069 93.9172 84.9069 93.9173Z" fill="#CBD0D3"/>
<path fill-rule="evenodd" clip-rule="evenodd" d="M83.2047 86.4961C83.6898 82.4675 84.3536 76.9297 85.041 71.1406L85.2433 71.1641C84.5558 76.9533 83.892 82.4912 83.4068 86.5199C83.1643 88.5342 82.9663 90.1713 82.8324 91.2737C82.7654 91.825 82.7144 92.2426 82.6819 92.507C82.6656 92.6391 82.6539 92.7331 82.6471 92.7864C82.6438 92.8123 82.6415 92.8301 82.6403 92.8375C82.6402 92.8385 82.64 92.84 82.6397 92.8417C82.6395 92.8426 82.6391 92.8447 82.6388 92.846C82.6382 92.8487 82.635 92.859 82.6319 92.8666C82.5675 92.9216 82.4527 92.8779 82.4381 92.8368C82.4376 92.8313 82.4374 92.8236 82.4375 92.8214C82.4375 92.8186 82.4377 92.8161 82.4378 92.8153L82.4378 92.8152C82.4381 92.8112 82.4388 92.8048 82.4396 92.7974L82.4404 92.7975C82.4414 92.7897 82.443 92.7777 82.4451 92.7612C82.4518 92.7084 82.4635 92.6148 82.4797 92.4826C82.5123 92.2184 82.5632 91.8009 82.6302 91.2497C82.7641 90.1474 82.9621 88.5104 83.2047 86.4961ZM82.4415 92.7976L82.6407 92.8187C82.6406 92.8167 82.6405 92.8146 82.6403 92.8128C82.6258 92.7718 82.511 92.7281 82.4466 92.783C82.4447 92.7877 82.4428 92.7933 82.4415 92.7976Z" fill="#CBD0D3"/>
<path fill-rule="evenodd" clip-rule="evenodd" d="M80.9268 85.544C81.4123 81.5046 82.0731 75.9827 82.7518 70.2671L82.9541 70.2905C82.2753 76.0063 81.6145 81.5283 81.129 85.5677C80.8863 87.5874 80.6875 89.2364 80.5521 90.3537C80.4845 90.9124 80.4327 91.3381 80.3993 91.6108C80.3826 91.7471 80.3704 91.8452 80.3632 91.9027C80.3596 91.931 80.3571 91.9503 80.3558 91.9592L80.3558 91.9593C80.3556 91.9609 80.3551 91.9644 80.3545 91.9675C80.3543 91.9687 80.3535 91.9721 80.353 91.9742C80.3512 91.9804 80.3069 92.0358 80.243 92.0497C80.1833 92.0218 80.1527 91.9572 80.1525 91.9507C80.1525 91.9485 80.1525 91.9451 80.1526 91.9438C80.1529 91.9391 80.1536 91.9319 80.1542 91.9265L80.1542 91.9265L80.1548 91.9265C80.156 91.9177 80.1581 91.9016 80.1611 91.8777C80.1683 91.8207 80.1804 91.7228 80.1971 91.5866C80.2305 91.314 80.2823 90.8884 80.35 90.3298C80.4853 89.2126 80.6841 87.5636 80.9268 85.544ZM80.1552 91.9266L80.356 91.9475C80.3539 91.9381 80.3235 91.8765 80.2655 91.8495C80.2017 91.8634 80.1574 91.9187 80.1556 91.9247C80.1555 91.9253 80.1554 91.9259 80.1552 91.9266Z" fill="#CBD0D3"/>
<path fill-rule="evenodd" clip-rule="evenodd" d="M78.6186 84.7788C79.1047 80.7243 79.7626 75.2187 80.4304 69.5951L80.6326 69.6186C79.9648 75.2422 79.3069 80.7479 78.8208 84.8025C78.5778 86.8299 78.3777 88.4944 78.2408 89.6297C78.1723 90.1973 78.1196 90.6326 78.0853 90.9147C78.0681 91.0558 78.0555 91.1586 78.0478 91.2206C78.044 91.2515 78.0413 91.2727 78.0399 91.2833C78.0395 91.286 78.0392 91.2884 78.0389 91.2904C78.0388 91.2912 78.0385 91.293 78.0381 91.2951C78.0378 91.2966 78.0368 91.3012 78.0359 91.3045C78.028 91.3243 77.9115 91.3748 77.8375 91.2947C77.8364 91.2862 77.836 91.2754 77.8361 91.273C77.8362 91.2719 77.8363 91.2701 77.8363 91.2693C77.8364 91.2686 77.8364 91.268 77.8365 91.2674C77.8366 91.2667 77.8366 91.2661 77.8367 91.2656C77.8369 91.2635 77.8371 91.261 77.8374 91.258L77.8378 91.2581L77.838 91.257C77.8393 91.2474 77.8418 91.2271 77.8457 91.1961C77.8534 91.1344 77.866 91.0317 77.8831 90.8907C77.9175 90.6087 77.9701 90.1734 78.0386 89.6059C78.1755 88.4707 78.3756 86.8061 78.6186 84.7788ZM77.838 91.2581L78.0396 91.2792C78.0395 91.2751 78.039 91.2669 78.0382 91.2602C77.9642 91.1802 77.8478 91.2306 77.8398 91.2503C77.8392 91.2529 77.8384 91.2562 77.838 91.2581ZM78.0394 91.2846L78.0394 91.2842C78.0394 91.2848 78.0393 91.2851 78.0394 91.2846Z" fill="#CBD0D3"/>
<path fill-rule="evenodd" clip-rule="evenodd" d="M76.2952 84.1978C76.7831 80.1211 77.4387 74.6279 78.0943 69.1069L78.2965 69.1303C77.6409 74.6514 76.9853 80.1446 76.4974 84.2214C76.2535 86.2598 76.0516 87.944 75.9125 89.1006C75.843 89.6789 75.7893 90.1253 75.7538 90.4181C75.7361 90.5645 75.723 90.6725 75.7148 90.7395C75.7107 90.7729 75.7078 90.7963 75.7061 90.8091L75.706 90.8098C75.7054 90.8144 75.7046 90.8209 75.704 90.8246C75.7037 90.8263 75.7019 90.8337 75.7002 90.8394C75.6066 90.9082 75.5036 90.8266 75.5018 90.8074C75.5018 90.8048 75.502 90.8011 75.5021 90.7999L75.5023 90.7976C75.5024 90.7958 75.5027 90.7934 75.5029 90.7912L75.7053 90.8125C75.7053 90.8111 75.7054 90.8091 75.7054 90.8075C75.7036 90.7884 75.6006 90.7068 75.5071 90.7755C75.5054 90.7812 75.5037 90.7885 75.5034 90.7899C75.5033 90.7906 75.5032 90.7911 75.5032 90.7911C75.5032 90.791 75.5034 90.7892 75.5041 90.7838C75.5057 90.7716 75.5085 90.7487 75.5126 90.7152C75.5208 90.6485 75.5339 90.5406 75.5517 90.3942C75.5871 90.1015 75.6408 89.6552 75.7104 89.0769C75.8494 87.9204 76.0513 86.2361 76.2952 84.1978Z" fill="#CBD0D3"/>
<path fill-rule="evenodd" clip-rule="evenodd" d="M73.9403 83.8362C74.4288 79.7479 75.0808 74.2784 75.7241 68.8614L75.9263 68.8848C75.283 74.3019 74.631 79.7714 74.1425 83.8598C73.8983 85.904 73.695 87.6028 73.5542 88.7772C73.4838 89.3644 73.4289 89.8205 73.3924 90.1231C73.3742 90.2743 73.3605 90.3873 73.3517 90.459C73.3474 90.4949 73.3442 90.5206 73.3423 90.5357C73.3414 90.543 73.3406 90.5487 73.3402 90.5518C73.3402 90.552 73.3398 90.5544 73.3393 90.5571C73.3387 90.5599 73.3272 90.5894 73.3091 90.612C73.2015 90.6324 73.1374 90.5396 73.1375 90.5348C73.1375 90.5334 73.1377 90.5312 73.1377 90.5303L73.1379 90.5284L73.1382 90.5254L73.3407 90.5461C73.3408 90.5452 73.3409 90.5439 73.3409 90.5426C73.341 90.538 73.2769 90.4453 73.1692 90.4657C73.1512 90.4882 73.1397 90.5176 73.1391 90.5203C73.1387 90.5226 73.1385 90.5243 73.1386 90.5235C73.1387 90.5224 73.1393 90.5186 73.1402 90.5109C73.1421 90.4962 73.1452 90.4708 73.1496 90.4349C73.1583 90.3633 73.172 90.2505 73.1902 90.0992C73.2267 89.7967 73.2815 89.3407 73.352 88.7535C73.4928 87.5792 73.6961 85.8804 73.9403 83.8362Z" fill="#CBD0D3"/>
<path fill-rule="evenodd" clip-rule="evenodd" d="M71.5626 83.6697C72.052 79.5646 72.7012 74.1128 73.3323 68.7983L73.5345 68.8218C72.9034 74.1363 72.2543 79.5881 71.7649 83.6932C71.5202 85.7458 71.3154 87.4616 71.1729 88.6553C71.1016 89.2521 71.0458 89.7184 71.0084 90.0309C70.9897 90.1872 70.9756 90.305 70.9664 90.3815C70.9618 90.4198 70.9584 90.4477 70.9564 90.465L70.9541 90.4831L70.9541 90.4833C70.954 90.4842 70.9537 90.4869 70.9534 90.4888C70.9527 90.4929 70.8392 90.5735 70.751 90.4703C70.7511 90.4676 70.7514 90.4643 70.7514 90.4635L70.7517 90.4612L70.9541 90.4833C70.9541 90.4827 70.9544 90.4796 70.9545 90.477C70.8663 90.3738 70.7528 90.4544 70.7521 90.4583C70.752 90.4593 70.7519 90.46 70.7519 90.46L70.7521 90.4585L70.7542 90.4411C70.7563 90.4239 70.7596 90.396 70.7642 90.3578C70.7734 90.2813 70.7875 90.1635 70.8062 90.0073C70.8436 89.6947 70.8994 89.2285 70.9706 88.6317C71.1132 87.438 71.3179 85.7222 71.5626 83.6697Z" fill="#CBD0D3"/>
<path fill-rule="evenodd" clip-rule="evenodd" d="M70.918 68.9419L71.1202 68.9654L68.5477 90.6288C68.5443 90.6284 68.5408 90.628 68.5374 90.6276C68.5103 90.6245 68.4341 90.6157 68.3558 90.6065C68.3524 90.6061 68.3489 90.6057 68.3455 90.6053L70.918 68.9419Z" fill="#CBD0D3"/>
<path fill-rule="evenodd" clip-rule="evenodd" d="M84.6133 94.2431C79.5956 91.5964 74.0971 90.4375 68.4798 91.0157C68.2566 91.0386 68.057 90.8779 68.034 90.6566C68.011 90.4352 68.1733 90.2372 68.3965 90.2142C74.1846 89.6185 79.8442 90.8147 84.9954 93.5317C85.1934 93.6362 85.2684 93.8801 85.1629 94.0766C85.0574 94.273 84.8113 94.3476 84.6133 94.2431Z" fill="#B8BDB9"/>
<path fill-rule="evenodd" clip-rule="evenodd" d="M84.9966 91.1572C79.9736 88.5038 74.4704 87.3424 68.847 87.9208C68.6237 87.9438 68.4242 87.783 68.4012 87.5617C68.3782 87.3404 68.5405 87.1423 68.7637 87.1194C74.558 86.5234 80.2226 87.7221 85.3791 90.446C85.5771 90.5506 85.6519 90.7945 85.5463 90.9909C85.4407 91.1873 85.1946 91.2617 84.9966 91.1572Z" fill="#B8BDB9"/>
<path fill-rule="evenodd" clip-rule="evenodd" d="M85.3718 88.0633C80.3445 85.4104 74.8422 84.2491 69.222 84.8269C68.9988 84.8498 68.7992 84.689 68.7763 84.4677C68.7533 84.2464 68.9156 84.0484 69.1388 84.0254C74.93 83.4301 80.5935 84.6287 85.754 87.352C85.9521 87.4565 86.027 87.7004 85.9215 87.8968C85.8159 88.0933 85.5698 88.1678 85.3718 88.0633Z" fill="#B8BDB9"/>
<path fill-rule="evenodd" clip-rule="evenodd" d="M85.739 84.9686C80.7117 82.3157 75.2094 81.1544 69.5892 81.7321C69.366 81.7551 69.1664 81.5943 69.1434 81.373C69.1205 81.1517 69.2828 80.9537 69.506 80.9307C75.2972 80.3353 80.9607 81.534 86.1212 84.2572C86.3192 84.3617 86.3942 84.6057 86.2887 84.8021C86.1831 84.9985 85.937 85.0731 85.739 84.9686Z" fill="#B8BDB9"/>
<path fill-rule="evenodd" clip-rule="evenodd" d="M86.1134 81.8804C81.086 79.2216 75.5771 78.0575 69.9485 78.6373C69.7253 78.6603 69.5257 78.4995 69.5027 78.2782C69.4796 78.0569 69.6419 77.8589 69.8651 77.8359C75.6649 77.2384 81.3353 78.4399 86.4963 81.1694C86.6942 81.2741 86.769 81.5181 86.6633 81.7145C86.5575 81.9108 86.3114 81.9851 86.1134 81.8804Z" fill="#B8BDB9"/>
<path fill-rule="evenodd" clip-rule="evenodd" d="M86.4768 78.786C81.4492 76.1281 75.9403 74.963 70.3118 75.5428C70.0886 75.5658 69.889 75.405 69.866 75.1837C69.843 74.9624 70.0052 74.7644 70.2285 74.7414C76.0282 74.1439 81.6985 75.3465 86.8596 78.0749C87.0575 78.1796 87.1323 78.4236 87.0266 78.6199C86.9209 78.8163 86.6748 78.8906 86.4768 78.786Z" fill="#B8BDB9"/>
<path d="M71.0117 68.9532C76.7258 68.3646 82.3155 69.5474 87.4097 72.2415L87.0269 75.3277C81.937 72.6401 76.3531 71.46 70.6443 72.0473L71.0117 68.9532Z" fill="#B8BDB9"/>
<path fill-rule="evenodd" clip-rule="evenodd" d="M71.3774 69.3222L71.1071 71.5989C76.5307 71.1376 81.8307 72.2462 86.6957 74.7018L86.9728 72.468C82.1086 69.9504 76.8019 68.8273 71.3774 69.3222ZM70.9705 68.5522C76.7703 67.9547 82.4407 69.1562 87.6017 71.8857L87.8476 72.0158L87.3584 75.9588L86.8362 75.683C81.8131 73.0307 76.3098 71.8692 70.6864 72.4477L70.182 72.4995L70.6468 68.5855L70.9705 68.5522Z" fill="#B8BDB9"/>
<path fill-rule="evenodd" clip-rule="evenodd" d="M90.2432 88.1913C90.7135 84.166 91.366 78.613 92.0586 72.7808L92.2608 72.8042C91.5683 78.6363 90.9158 84.1892 90.4455 88.2144C90.2104 90.227 90.0207 91.8577 89.8944 92.9504C89.8313 93.4968 89.784 93.9086 89.7547 94.1664C89.7401 94.2954 89.73 94.3856 89.7247 94.4348C89.7235 94.4452 89.7226 94.4536 89.722 94.4602L89.723 94.4603C89.7219 94.4689 89.721 94.4759 89.7203 94.4803C89.7201 94.4815 89.7199 94.483 89.7196 94.4845L89.7194 94.4858C89.7193 94.4865 89.7191 94.4873 89.719 94.4879C89.7187 94.4894 89.7177 94.4935 89.7169 94.4963C89.7144 94.5039 89.668 94.5569 89.6059 94.5685C89.5498 94.5424 89.518 94.4813 89.5173 94.4734C89.5172 94.4706 89.5172 94.4664 89.5172 94.4649C89.5173 94.4639 89.5174 94.4623 89.5174 94.4615C89.5178 94.4545 89.5197 94.4367 89.5222 94.4135C89.5276 94.3637 89.5377 94.2729 89.5524 94.144C89.5817 93.886 89.629 93.474 89.6921 92.9276C89.8185 91.8347 90.0081 90.2039 90.2432 88.1913ZM89.7196 94.4599C89.7137 94.4444 89.6829 94.3922 89.6322 94.3687C89.5787 94.3787 89.5369 94.4193 89.5247 94.4352L89.7196 94.4599ZM89.5189 94.4507C89.5187 94.4519 89.5186 94.4524 89.5186 94.4523C89.5186 94.4522 89.5187 94.4516 89.5189 94.4507Z" fill="#EBEEF0"/>
<path fill-rule="evenodd" clip-rule="evenodd" d="M92.712 87.598C93.1841 83.5678 93.836 78.0285 94.5234 72.2393L94.7257 72.2627C94.0382 78.0518 93.3863 83.591 92.9143 87.6211C92.6783 89.6362 92.4872 91.2739 92.3592 92.377C92.2952 92.9285 92.2469 93.3464 92.2166 93.6108C92.2015 93.7431 92.1909 93.8368 92.185 93.8897C92.1832 93.9063 92.1819 93.9182 92.1811 93.9261L92.1819 93.9262C92.1809 93.9336 92.1801 93.94 92.1794 93.9439C92.1793 93.9446 92.1789 93.9472 92.1784 93.95C92.1779 93.9521 92.1759 93.9595 92.1741 93.9647C92.1505 94.0014 92.0284 94.0178 91.9786 93.9493C91.9773 93.9413 91.9767 93.9305 91.9767 93.9279C91.9768 93.9265 91.9768 93.9244 91.9769 93.9234C91.977 93.9218 91.9771 93.9202 91.9772 93.9192C91.9778 93.9118 91.9797 93.894 91.9826 93.868C91.9885 93.8146 91.9992 93.7205 92.0143 93.5882C92.0446 93.3236 92.0929 92.9056 92.1569 92.3541C92.285 91.2509 92.476 89.6131 92.712 87.598ZM92.18 93.9259C92.1797 93.9216 92.1792 93.9157 92.1785 93.9108C92.1286 93.8424 92.0066 93.8589 91.983 93.8954C91.9824 93.8971 91.9818 93.899 91.9812 93.9009L92.18 93.9259Z" fill="#EBEEF0"/>
<path fill-rule="evenodd" clip-rule="evenodd" d="M95.1535 87.1947C95.6276 83.154 96.2783 77.6307 96.957 71.915L97.1593 71.9385C96.4805 77.6541 95.8298 83.1772 95.3558 87.2178C95.1187 89.2382 94.9259 90.8879 94.7958 92.0057C94.7307 92.5646 94.6814 92.9905 94.65 93.2632C94.6344 93.3996 94.6232 93.4976 94.6169 93.5548C94.6142 93.5787 94.6125 93.5948 94.6116 93.6037L94.6122 93.6037L94.6122 93.6038C94.6115 93.6091 94.6105 93.6164 94.6097 93.621C94.6094 93.6222 94.6087 93.6255 94.6082 93.6277C94.6064 93.6339 94.5615 93.6899 94.4969 93.7033C94.438 93.6752 94.4079 93.6111 94.4076 93.6047C94.4076 93.6025 94.4077 93.5991 94.4077 93.5978C94.4079 93.5946 94.4082 93.5911 94.4084 93.5895L94.4084 93.5895C94.4092 93.5805 94.4113 93.5612 94.4145 93.5328C94.4209 93.4752 94.4321 93.3769 94.4477 93.2405C94.4791 92.9676 94.5284 92.5416 94.5935 91.9827C94.7236 90.8648 94.9165 89.215 95.1535 87.1947ZM94.6112 93.6036C94.6112 93.6029 94.6112 93.6023 94.6112 93.6017C94.6109 93.5955 94.5808 93.5315 94.5219 93.5034C94.4592 93.5164 94.4151 93.5694 94.411 93.5781L94.6112 93.6036Z" fill="#EBEEF0"/>
<path fill-rule="evenodd" clip-rule="evenodd" d="M97.5765 86.9779C98.0535 82.9222 98.7033 77.4157 99.3711 71.792L99.5733 71.8154C98.9055 77.439 98.2557 82.9455 97.7788 87.0012C97.5403 89.029 97.345 90.6941 97.2122 91.8298C97.1459 92.3976 97.0951 92.833 97.0625 93.1152C97.0461 93.2564 97.0343 93.3591 97.0273 93.4209C97.0238 93.452 97.0215 93.4722 97.0205 93.4819L97.0204 93.483L97.0208 93.4831C97.0205 93.486 97.0201 93.4885 97.0198 93.4906C97.0197 93.4911 97.0197 93.4917 97.0196 93.4924C97.0195 93.493 97.0194 93.4936 97.0193 93.4943C97.0191 93.495 97.0188 93.4968 97.0186 93.4979C97.0181 93.5003 97.0152 93.5107 97.0122 93.5187C96.9214 93.5797 96.82 93.5039 96.8169 93.4829C96.8168 93.4795 96.8169 93.4747 96.8169 93.4732C96.8171 93.4711 96.8172 93.4692 96.8173 93.4685C96.8175 93.4665 96.8177 93.464 96.818 93.4614C96.8191 93.4506 96.8215 93.4294 96.825 93.3985C96.832 93.3365 96.8438 93.2335 96.8602 93.0924C96.8928 92.81 96.9436 92.3745 97.01 91.8067C97.1427 90.6709 97.338 89.0058 97.5765 86.9779ZM97.0203 93.483C97.0203 93.4811 97.0204 93.4776 97.0203 93.475C97.0172 93.454 96.9158 93.3783 96.8251 93.4392C96.8226 93.4456 96.8203 93.4535 96.8193 93.4574L97.0203 93.483ZM96.8182 93.4626C96.8181 93.4632 96.8181 93.4629 96.8182 93.4623L96.8182 93.4626Z" fill="#EBEEF0"/>
<path fill-rule="evenodd" clip-rule="evenodd" d="M89.5223 94.0568C95.17 92.5922 100.956 92.7237 106.447 94.6277C106.659 94.7012 106.771 94.931 106.696 95.141C106.622 95.351 106.39 95.4618 106.179 95.3883C100.849 93.5405 95.2288 93.4097 89.7274 94.8363C89.5102 94.8926 89.2883 94.7637 89.2317 94.5485C89.1751 94.3332 89.3052 94.1131 89.5223 94.0568Z" fill="#CBD0D3"/>
<path fill-rule="evenodd" clip-rule="evenodd" d="M89.865 90.9665C95.5196 89.4967 101.311 89.6267 106.808 91.5324C107.02 91.6058 107.132 91.8356 107.057 92.0457C106.983 92.2557 106.751 92.3665 106.54 92.293C101.204 90.4435 95.5786 90.3141 90.0705 91.7459C89.8534 91.8023 89.6314 91.6736 89.5747 91.4584C89.5179 91.2432 89.6479 91.023 89.865 90.9665Z" fill="#CBD0D3"/>
<path fill-rule="evenodd" clip-rule="evenodd" d="M90.2363 87.8716C95.8896 86.4026 101.68 86.5325 107.174 88.4369C107.386 88.5103 107.498 88.7401 107.423 88.9501C107.349 89.1602 107.117 89.2709 106.906 89.1975C101.573 87.3494 95.9487 87.22 90.4417 88.651C90.2246 88.7074 90.0026 88.5787 89.9459 88.3634C89.8891 88.1482 90.0191 87.928 90.2363 87.8716Z" fill="#CBD0D3"/>
<path fill-rule="evenodd" clip-rule="evenodd" d="M90.6034 84.7764C96.2568 83.3074 102.047 83.4373 107.542 85.3417C107.753 85.4151 107.865 85.6449 107.791 85.8549C107.716 86.065 107.485 86.1757 107.273 86.1023C101.941 84.2541 96.3159 84.1248 90.8089 85.5558C90.5918 85.6122 90.3698 85.4834 90.313 85.2682C90.2563 85.053 90.3863 84.8328 90.6034 84.7764Z" fill="#CBD0D3"/>
<path fill-rule="evenodd" clip-rule="evenodd" d="M90.954 81.6871C96.6142 80.2127 102.412 80.3415 107.914 82.2498C108.126 82.3233 108.237 82.5531 108.163 82.7631C108.089 82.9731 107.857 83.0838 107.645 83.0104C102.306 81.1583 96.6736 81.0302 91.1599 82.4664C90.9428 82.5229 90.7208 82.3943 90.6639 82.1791C90.6071 81.9639 90.7369 81.7436 90.954 81.6871Z" fill="#CBD0D3"/>
<path fill-rule="evenodd" clip-rule="evenodd" d="M91.3174 78.5921C96.9774 77.1188 102.775 77.2465 108.278 79.1549C108.489 79.2283 108.601 79.4581 108.527 79.6681C108.452 79.8781 108.22 79.9889 108.009 79.9154C102.669 78.0634 97.0368 77.9362 91.5232 79.3714C91.3061 79.4279 91.084 79.2993 91.0272 79.0841C90.9704 78.8689 91.1003 78.6486 91.3174 78.5921Z" fill="#CBD0D3"/>
<path fill-rule="evenodd" clip-rule="evenodd" d="M91.7051 75.4919C97.3594 74.0231 103.152 74.1532 108.648 76.0589C108.86 76.1323 108.971 76.3621 108.897 76.5721C108.823 76.7821 108.591 76.8929 108.379 76.8194C103.045 74.9701 97.4185 74.8405 91.9104 76.2713C91.6933 76.3277 91.4713 76.199 91.4146 75.9837C91.3579 75.7685 91.4879 75.5483 91.7051 75.4919Z" fill="#CBD0D3"/>
<path fill-rule="evenodd" clip-rule="evenodd" d="M92.0556 72.4024C97.7158 70.9281 103.514 71.0568 109.016 72.9652C109.228 73.0386 109.339 73.2684 109.265 73.4784C109.191 73.6885 108.959 73.7992 108.747 73.7257C103.407 71.8737 97.7752 71.7455 92.2615 73.1817C92.0444 73.2382 91.8223 73.1096 91.7655 72.8944C91.7086 72.6792 91.8385 72.4589 92.0556 72.4024Z" fill="#CBD0D3"/>
<path d="M92.1579 72.7919C97.7449 71.3366 103.463 71.4664 108.881 73.3453L107.778 82.6295C102.357 80.7493 96.6424 80.6208 91.0555 82.0761L92.1579 72.7919Z" fill="#CBD0D3"/>
<path fill-rule="evenodd" clip-rule="evenodd" d="M92.5294 73.1132L91.5285 81.5424C96.8412 80.2626 102.262 80.396 107.434 82.0879L108.439 73.6212C103.28 71.8996 97.8517 71.7768 92.5294 73.1132ZM92.0555 72.4024C97.7158 70.9281 103.516 71.0582 109.016 72.9652C109.195 73.0274 109.307 73.2049 109.285 73.3923L108.182 82.6765C108.168 82.7979 108.099 82.9064 107.994 82.9712C107.889 83.0361 107.761 83.0503 107.644 83.01C102.305 81.1579 96.6726 81.0297 91.1589 82.4659C91.029 82.4998 90.8907 82.4678 90.7893 82.3804C90.688 82.2931 90.6368 82.1617 90.6525 82.0295L91.755 72.7453C91.7745 72.5806 91.8938 72.4446 92.0555 72.4024Z" fill="#CBD0D3"/>
<path d="M127.892 91.3405C126.563 98.4547 114.974 100.183 103.636 91.3404" stroke="black" stroke-width="1.46754" stroke-linecap="round"/>
<path d="M49.0877 84.6246C49.0877 90.6753 58.2695 95.706 73.6327 88.0823" stroke="black" stroke-width="1.46754" stroke-linecap="round"/>
</svg>
