<?xml version="1.0" encoding="utf-8"?>
<svg width="159px" height="157px" viewBox="0 0 159 157" version="1.1" xmlns="http://www.w3.org/2000/svg" xmlns:xlink="http://www.w3.org/1999/xlink">
    <g fill-rule="nonzero" fill="none">
        <g transform="translate(0 57)">
            <path d="M102 21c-.15-11.83-9.95-21-22-21H22C10.6.53 1 9.53 1 21s9.6 21.47 21 22h37v35c0 12.23 10.12 22 22 22 11.87 0 21-9.77 21-22V21z" fill="#B366F6"/>
            <circle fill="#8430CE" cx="21.5" cy="21.5" r="21.5"/>
        </g>
        <path d="M159 21c-.15-11.83-9.95-21-22-21H79C67.6.53 58 9.53 58 21s9.6 21.47 21 22h37v35c0 12.23 10.12 22 22 22 11.87 0 21-9.77 21-22V21z" fill="#C58AF8"/>
    </g>
</svg>
