<svg width="348" height="163" viewBox="0 0 348 163" fill="none" xmlns="http://www.w3.org/2000/svg">
<g clip-path="url(#clip0_192_4045)">
<path d="M0 16C0 7.16344 7.16344 0 16 0H332C340.837 0 348 7.16344 348 16V163H0V16Z" fill="#B8E6CA"/>
<g filter="url(#filter0_d_192_4045)">
<rect x="101.5" y="79" width="195" height="172" rx="13.7639" fill="white"/>
</g>
<rect x="218" y="108" width="64" height="38" rx="5.16145" fill="#EBEEF0"/>
<g filter="url(#filter1_d_192_4045)">
<rect x="81.5" y="56" width="195" height="172" rx="13.7639" fill="white"/>
</g>
<rect x="97" y="85" width="165" height="96" rx="5.16145" fill="#EBEEF0"/>
<rect x="96" y="148" width="59" height="55" rx="5.45745" fill="#EBEEF0"/>
<rect x="167" y="148" width="54" height="10" rx="5" fill="#EBEEF0"/>
<g filter="url(#filter2_d_192_4045)">
<rect x="61.5" y="30" width="195" height="172" rx="13.7639" fill="white"/>
</g>
<rect x="76.5" y="50" width="165" height="51" rx="5.16145" fill="#6FD3D3"/>
<rect x="147.5" y="113" width="54" height="14" rx="7" fill="#EBEEF0"/>
<rect x="147.5" y="135" width="94" height="5" rx="2.5" fill="#EBEEF0"/>
<rect x="76.5" y="135" width="59" height="5" rx="2.5" fill="#EBEEF0"/>
<rect x="76.5" y="124" width="59" height="5" rx="2.5" fill="#EBEEF0"/>
<rect x="76.5" y="146" width="59" height="5" rx="2.5" fill="#EBEEF0"/>
<rect x="76.5" y="113" width="59" height="5" rx="2.5" fill="#EBEEF0"/>
<rect x="147.5" y="146" width="94" height="5" rx="2.5" fill="#EBEEF0"/>
</g>
<defs>
<filter id="filter0_d_192_4045" x="91.5" y="73" width="215" height="192" filterUnits="userSpaceOnUse" color-interpolation-filters="sRGB">
<feFlood flood-opacity="0" result="BackgroundImageFix"/>
<feColorMatrix in="SourceAlpha" type="matrix" values="0 0 0 0 0 0 0 0 0 0 0 0 0 0 0 0 0 0 127 0" result="hardAlpha"/>
<feOffset dy="4"/>
<feGaussianBlur stdDeviation="5"/>
<feComposite in2="hardAlpha" operator="out"/>
<feColorMatrix type="matrix" values="0 0 0 0 0 0 0 0 0 0 0 0 0 0 0 0 0 0 0.15 0"/>
<feBlend mode="normal" in2="BackgroundImageFix" result="effect1_dropShadow_192_4045"/>
<feBlend mode="normal" in="SourceGraphic" in2="effect1_dropShadow_192_4045" result="shape"/>
</filter>
<filter id="filter1_d_192_4045" x="65.5" y="44" width="227" height="204" filterUnits="userSpaceOnUse" color-interpolation-filters="sRGB">
<feFlood flood-opacity="0" result="BackgroundImageFix"/>
<feColorMatrix in="SourceAlpha" type="matrix" values="0 0 0 0 0 0 0 0 0 0 0 0 0 0 0 0 0 0 127 0" result="hardAlpha"/>
<feOffset dy="4"/>
<feGaussianBlur stdDeviation="8"/>
<feComposite in2="hardAlpha" operator="out"/>
<feColorMatrix type="matrix" values="0 0 0 0 0 0 0 0 0 0 0 0 0 0 0 0 0 0 0.15 0"/>
<feBlend mode="normal" in2="BackgroundImageFix" result="effect1_dropShadow_192_4045"/>
<feBlend mode="normal" in="SourceGraphic" in2="effect1_dropShadow_192_4045" result="shape"/>
</filter>
<filter id="filter2_d_192_4045" x="45.5" y="18" width="227" height="204" filterUnits="userSpaceOnUse" color-interpolation-filters="sRGB">
<feFlood flood-opacity="0" result="BackgroundImageFix"/>
<feColorMatrix in="SourceAlpha" type="matrix" values="0 0 0 0 0 0 0 0 0 0 0 0 0 0 0 0 0 0 127 0" result="hardAlpha"/>
<feOffset dy="4"/>
<feGaussianBlur stdDeviation="8"/>
<feComposite in2="hardAlpha" operator="out"/>
<feColorMatrix type="matrix" values="0 0 0 0 0 0 0 0 0 0 0 0 0 0 0 0 0 0 0.15 0"/>
<feBlend mode="normal" in2="BackgroundImageFix" result="effect1_dropShadow_192_4045"/>
<feBlend mode="normal" in="SourceGraphic" in2="effect1_dropShadow_192_4045" result="shape"/>
</filter>
<clipPath id="clip0_192_4045">
<path d="M0 16C0 7.16344 7.16344 0 16 0H332C340.837 0 348 7.16344 348 16V163H0V16Z" fill="white"/>
</clipPath>
</defs>
</svg>
