<svg width="553" height="140" viewBox="0 0 553 140" fill="none" xmlns="http://www.w3.org/2000/svg">
<g clip-path="url(#clip0_545_5344)">
<path d="M134.999 170.5C134.999 129.978 117.499 120.5 116.999 82.5C116.499 44.5 142.999 21 163.999 16.5C184.999 12 187.499 15.1977 215.499 16.5C243.499 17.8023 254.999 -1.00003 294.999 1.99999C334.999 5.00001 340.499 21 363.999 27.4999C387.873 34.1032 397.463 28.8214 412.499 49C431.5 74.5 409.624 100.848 420.499 146.5C435.269 208.5 143.5 210.5 134.999 170.5Z" fill="#B8E6CA"/>
<g filter="url(#filter0_d_545_5344)">
<rect x="234.539" y="17.5369" width="86.6765" height="172.078" rx="12.7465" fill="white"/>
<circle cx="169.523" cy="104.523" r="16.5232" fill="#2F9F9F"/>
<path d="M172.845 100.088C172.413 99.6078 171.118 98.6481 169.39 98.6481C167.231 98.6481 165.936 100.088 165.936 101.527C165.936 105.486 172.845 103.232 172.845 107.285C172.845 108.725 171.55 110.164 169.39 110.164C167.663 110.164 166.367 109.205 165.936 108.725" stroke="white" stroke-width="1.27465" stroke-linecap="round"/>
<path d="M169.391 95.769V113.043" stroke="white" stroke-width="1.27465" stroke-linecap="round"/>
<circle cx="105.5" cy="70.5" r="22.5" fill="#2F9F9F"/>
<path d="M110.022 64.46C109.434 63.8066 107.67 62.4998 105.318 62.4998C102.377 62.4998 100.613 64.46 100.613 66.4202C100.613 71.8117 110.022 68.7419 110.022 74.2612C110.022 76.2214 108.258 78.1816 105.318 78.1816C102.966 78.1816 101.201 76.8748 100.613 76.2214" stroke="white" stroke-width="1.27465" stroke-linecap="round"/>
<path d="M105.318 58.5793V82.1022" stroke="white" stroke-width="1.27465" stroke-linecap="round"/>
<circle cx="359.048" cy="37.4823" r="11.144" fill="#2F9F9F"/>
<path d="M361.289 34.4904C360.998 34.1668 360.124 33.5195 358.959 33.5195C357.503 33.5195 356.629 34.4904 356.629 35.4613C356.629 38.1317 361.289 36.6112 361.289 39.3448C361.289 40.3157 360.415 41.2866 358.959 41.2866C357.794 41.2866 356.92 40.6393 356.629 40.3157" stroke="white" stroke-width="0.955991" stroke-linecap="round"/>
<path d="M358.959 31.5779V43.2285" stroke="white" stroke-width="0.955991" stroke-linecap="round"/>
<circle cx="411.659" cy="109.5" r="13.7118" fill="#2F9F9F"/>
<path d="M414.416 105.819C414.057 105.421 412.982 104.624 411.549 104.624C409.757 104.624 408.682 105.819 408.682 107.014C408.682 110.299 414.416 108.428 414.416 111.792C414.416 112.987 413.341 114.181 411.549 114.181C410.115 114.181 409.04 113.385 408.682 112.987" stroke="white" stroke-width="1.27465" stroke-linecap="round"/>
<path d="M411.547 102.235V116.57" stroke="white" stroke-width="1.27465" stroke-linecap="round"/>
<circle cx="457.288" cy="50.2882" r="19.2882" fill="#2F9F9F"/>
<path d="M461.166 45.11C460.662 44.5498 459.149 43.4296 457.133 43.4296C454.612 43.4296 453.1 45.11 453.1 46.7904C453.1 51.4123 461.166 48.7807 461.166 53.5121C461.166 55.1925 459.653 56.8729 457.133 56.8729C455.116 56.8729 453.604 55.7527 453.1 55.1925" stroke="white" stroke-width="1.27465" stroke-linecap="round"/>
<path d="M457.131 40.069V60.234" stroke="white" stroke-width="1.27465" stroke-linecap="round"/>
<rect x="244.795" y="29.0385" width="66.5122" height="11.7374" rx="2.54931" fill="#F3F5F7"/>
<rect x="244.795" y="60.8972" width="66.5122" height="72.6604" rx="2.54931" fill="#F3F5F7"/>
<rect x="244.795" y="137.941" width="66.5122" height="4.47141" rx="2.2357" fill="#F3F5F7"/>
<rect x="257.094" y="44.3651" width="41.9194" height="6.70711" rx="3.35356" fill="#F3F5F7"/>
<rect x="244.795" y="44.9242" width="8.38389" height="1.11785" rx="0.558926" fill="#DEE3E6"/>
<rect x="244.795" y="47.1599" width="8.38389" height="1.11785" rx="0.558926" fill="#DEE3E6"/>
<rect x="244.795" y="49.3956" width="8.38389" height="1.11785" rx="0.558926" fill="#DEE3E6"/>
</g>
<g filter="url(#filter1_d_545_5344)">
<rect x="211" y="64" width="134" height="63" rx="5.09862" fill="white"/>
<rect x="241.936" y="86.1565" width="71.3807" height="3.18664" rx="1.59332" fill="#F3F5F7"/>
<rect x="254.043" y="91.8923" width="47.7995" height="3.18664" rx="1.59332" fill="#F3F5F7"/>
<rect x="242.826" y="101.452" width="68.8313" height="12.7465" rx="6.37327" fill="#6FD3D3"/>
</g>
<path d="M277.661 81.1909C287.07 81.1909 294.638 73.378 294.638 63.8135C294.638 54.2489 287.07 46.4361 277.661 46.4361C268.253 46.4361 260.684 54.2489 260.684 63.8135C260.684 73.378 268.253 81.1909 277.661 81.1909Z" fill="#6FD3D3" stroke="white" stroke-width="2.725"/>
<path fill-rule="evenodd" clip-rule="evenodd" d="M277.728 57.6662C277.673 57.6516 277.618 57.638 277.562 57.6253V57.1972C277.562 56.9425 277.462 56.7284 277.261 56.5552C277.072 56.3718 276.837 56.28 276.559 56.28C276.28 56.28 276.04 56.3718 275.839 56.5552C275.65 56.7284 275.555 56.9425 275.555 57.1972V57.6253C274.663 57.8291 273.938 58.2622 273.38 58.9247C272.822 59.5769 272.543 60.326 272.543 61.1719V65.4522H271.205V66.6751H281.912V65.4522H280.574V61.8141C278.903 61.7153 277.578 60.3289 277.578 58.6331C277.578 58.296 277.631 57.9711 277.728 57.6662ZM276.559 68.5096C276.191 68.5096 275.873 68.3924 275.605 68.158C275.349 67.9134 275.22 67.6229 275.22 67.2866H277.897C277.897 67.6229 277.763 67.9134 277.495 68.158C277.239 68.3924 276.927 68.5096 276.559 68.5096Z" fill="white"/>
<path fill-rule="evenodd" clip-rule="evenodd" d="M284.032 57.9957L279.57 57.9957L279.57 56.7211L284.032 56.7211L284.032 57.9957Z" fill="white"/>
<path fill-rule="evenodd" clip-rule="evenodd" d="M281.077 59.5891L281.077 55.1278L282.352 55.1278L282.352 59.5891L281.077 59.5891Z" fill="white"/>
</g>
<defs>
<filter id="filter0_d_545_5344" x="72.8028" y="9.88894" width="413.971" height="192.473" filterUnits="userSpaceOnUse" color-interpolation-filters="sRGB">
<feFlood flood-opacity="0" result="BackgroundImageFix"/>
<feColorMatrix in="SourceAlpha" type="matrix" values="0 0 0 0 0 0 0 0 0 0 0 0 0 0 0 0 0 0 127 0" result="hardAlpha"/>
<feOffset dy="2.54931"/>
<feGaussianBlur stdDeviation="5.09862"/>
<feComposite in2="hardAlpha" operator="out"/>
<feColorMatrix type="matrix" values="0 0 0 0 0 0 0 0 0 0 0 0 0 0 0 0 0 0 0.15 0"/>
<feBlend mode="normal" in2="BackgroundImageFix" result="effect1_dropShadow_545_5344"/>
<feBlend mode="normal" in="SourceGraphic" in2="effect1_dropShadow_545_5344" result="shape"/>
</filter>
<filter id="filter1_d_545_5344" x="200.803" y="58.9014" width="154.394" height="83.3945" filterUnits="userSpaceOnUse" color-interpolation-filters="sRGB">
<feFlood flood-opacity="0" result="BackgroundImageFix"/>
<feColorMatrix in="SourceAlpha" type="matrix" values="0 0 0 0 0 0 0 0 0 0 0 0 0 0 0 0 0 0 127 0" result="hardAlpha"/>
<feOffset dy="5.09862"/>
<feGaussianBlur stdDeviation="5.09862"/>
<feComposite in2="hardAlpha" operator="out"/>
<feColorMatrix type="matrix" values="0 0 0 0 0 0 0 0 0 0 0 0 0 0 0 0 0 0 0.15 0"/>
<feBlend mode="normal" in2="BackgroundImageFix" result="effect1_dropShadow_545_5344"/>
<feBlend mode="normal" in="SourceGraphic" in2="effect1_dropShadow_545_5344" result="shape"/>
</filter>
<clipPath id="clip0_545_5344">
<rect width="553" height="140" fill="white"/>
</clipPath>
</defs>
</svg>
