<svg width="32" height="32" viewBox="0 0 32 32" fill="none" xmlns="http://www.w3.org/2000/svg">
<path d="M7.081 26.527L2.361 31.248C2.18613 31.4222 1.94934 31.52 1.7025 31.52C1.45565 31.52 1.21887 31.4222 1.044 31.248L0.751997 30.956C0.578081 30.7812 0.480453 30.5446 0.480453 30.298C0.480453 30.0514 0.578081 29.8148 0.751997 29.64L5.472 24.919C5.64691 24.7445 5.88391 24.6465 6.131 24.6465C6.37809 24.6465 6.61508 24.7445 6.79 24.919L7.081 25.21C7.16762 25.2964 7.23635 25.399 7.28325 25.512C7.33014 25.625 7.35428 25.7462 7.35428 25.8685C7.35428 25.9908 7.33014 26.112 7.28325 26.225C7.23635 26.338 7.16762 26.4406 7.081 26.527Z" fill="#FBBC04"/>
<path d="M19.75 28.5H25.792C26.5854 28.5001 27.3711 28.3439 28.1042 28.0403C28.8372 27.7367 29.5033 27.2917 30.0643 26.7306C30.6253 26.1695 31.0702 25.5033 31.3737 24.7702C31.6772 24.0371 31.8333 23.2514 31.833 22.458V6.20799C31.8331 5.41464 31.677 4.62903 31.3734 3.89605C31.0699 3.16306 30.6249 2.49705 30.0639 1.93607C29.5029 1.37508 28.8369 0.930111 28.1039 0.626569C27.371 0.323027 26.5854 0.166861 25.792 0.166993C24.9986 0.16673 24.2129 0.322798 23.4797 0.626282C22.7466 0.929765 22.0805 1.37472 21.5194 1.93571C20.9583 2.49671 20.5133 3.16276 20.2097 3.89582C19.9061 4.62887 19.7499 5.41456 19.75 6.20799V28.5Z" fill="#4285F4"/>
<path d="M9.74999 28.5C10.5435 28.5003 11.3293 28.3442 12.0625 28.0406C12.7956 27.7371 13.4618 27.292 14.0229 26.7309C14.584 26.1698 15.0291 25.5036 15.3326 24.7705C15.6362 24.0373 15.7923 23.2515 15.792 22.458C15.7921 21.6646 15.6359 20.8789 15.3323 20.1458C15.0287 19.4128 14.5837 18.7467 14.0226 18.1857C13.4615 17.6247 12.7953 17.1798 12.0622 16.8763C11.3291 16.5728 10.5434 16.4167 9.74999 16.417C8.95656 16.4167 8.17084 16.5728 7.43774 16.8763C6.70464 17.1798 6.03851 17.6247 5.47742 18.1857C4.91633 18.7467 4.47127 19.4128 4.16766 20.1458C3.86406 20.8789 3.70786 21.6646 3.70799 22.458C3.70773 23.2515 3.86383 24.0373 4.16738 24.7705C4.47092 25.5036 4.91596 26.1698 5.47707 26.7309C6.03817 27.292 6.70434 27.7371 7.43751 28.0406C8.17068 28.3442 8.95647 28.5003 9.74999 28.5Z" fill="#FBBC04"/>
<path d="M23.97 28.5H18.083C17.2896 28.5001 16.5039 28.3439 15.7708 28.0403C15.0378 27.7367 14.3717 27.2917 13.8107 26.7306C13.2497 26.1695 12.8048 25.5034 12.5013 24.7703C12.1978 24.0371 12.0417 23.2514 12.042 22.458V14.542C12.0417 13.7486 12.1978 12.9629 12.5013 12.2297C12.8048 11.4966 13.2497 10.8305 13.8107 10.2694C14.3717 9.70834 15.0378 9.26328 15.7708 8.95967C16.5039 8.65607 17.2896 8.49987 18.083 8.5C18.8765 8.49974 19.6623 8.65584 20.3955 8.95939C21.1286 9.26293 21.7948 9.70797 22.3559 10.2691C22.917 10.8302 23.3621 11.4963 23.6656 12.2295C23.9692 12.9627 24.1253 13.7485 24.125 14.542V28.346C24.125 28.3868 24.1088 28.426 24.0799 28.4549C24.051 28.4838 24.0118 28.5 23.971 28.5H23.97Z" fill="#34A853"/>
<path d="M24.125 28.346V14.542C24.1249 13.2304 23.698 11.9544 22.9087 10.9068C22.1195 9.85918 21.0107 9.09687 19.75 8.73499V28.5H23.97C23.9903 28.5001 24.0104 28.4962 24.0292 28.4886C24.048 28.4809 24.0651 28.4695 24.0795 28.4552C24.0939 28.4409 24.1054 28.4239 24.1132 28.4052C24.121 28.3864 24.125 28.3663 24.125 28.346Z" fill="#1967D2"/>
<path d="M15.792 22.575C15.7922 21.3763 15.4357 20.2046 14.7679 19.2092C14.1001 18.2137 13.1512 17.4395 12.042 16.985V22.575C12.042 24.295 12.762 25.848 13.917 26.948C14.5101 26.3846 14.9822 25.7063 15.3045 24.9544C15.6269 24.2026 15.7927 23.393 15.792 22.575Z" fill="#EA4335"/>
</svg>
