<svg width="40" height="40" viewBox="0 0 40 40" fill="none" xmlns="http://www.w3.org/2000/svg">
<g clip-path="url(#clip0_27_1152)">
<path d="M8.86484 24.1725L7.4725 29.3703L2.38352 29.4779C0.862656 26.6571 0 23.4297 0 20C0 16.6835 0.806563 13.556 2.23625 10.8022H2.23734L6.76797 11.6328L8.75266 16.1362C8.33727 17.3472 8.11086 18.6472 8.11086 20C8.11102 21.4681 8.37695 22.8747 8.86484 24.1725Z" fill="#FBBB00"/>
<path d="M39.6503 16.2637C39.88 17.4735 39.9998 18.723 39.9998 19.9999C39.9998 21.4318 39.8492 22.8285 39.5624 24.1758C38.5888 28.7604 36.0448 32.7637 32.5207 35.5967L32.5196 35.5956L26.813 35.3044L26.0054 30.2626C28.3438 28.8912 30.1713 26.745 31.134 24.1758H20.4395V16.2637H31.29H39.6503Z" fill="#518EF8"/>
<path d="M32.52 35.5957L32.5211 35.5968C29.0937 38.3517 24.7398 40.0001 20.0003 40.0001C12.3838 40.0001 5.76184 35.743 2.38379 29.4781L8.86512 24.1727C10.5541 28.6803 14.9025 31.8892 20.0003 31.8892C22.1914 31.8892 24.2443 31.2968 26.0057 30.2627L32.52 35.5957Z" fill="#28B446"/>
<path d="M32.766 4.60437L26.2869 9.90875C24.4638 8.76922 22.3088 8.11094 20.0001 8.11094C14.7869 8.11094 10.3572 11.467 8.75281 16.1362L2.23742 10.8022H2.23633C5.56492 4.38461 12.2704 0 20.0001 0C24.8528 0 29.3023 1.72859 32.766 4.60437Z" fill="#F14336"/>
</g>
<defs>
<clipPath id="clip0_27_1152">
<rect width="40" height="40" fill="white"/>
</clipPath>
</defs>
</svg>
