<svg width="327" height="173" viewBox="0 0 327 173" fill="none" xmlns="http://www.w3.org/2000/svg">
<g clip-path="url(#clip0_112_2626)">
<path d="M297.192 142.431C269.197 188.88 220.114 192.365 195.9 186.604C164.311 179.088 160.327 156.733 142.882 150.453C125.437 144.173 117.412 146.698 92.6341 150.453C67.856 154.208 26.1409 149.303 7.96749 111.871C-10.206 74.4395 3.76539 35.5526 37.936 16.6676C72.1065 -2.21749 92.1349 17.9716 125.441 18.6123C158.747 19.2529 167.841 2.35145 198.878 0.629556C268.148 -3.21337 339.91 71.5558 297.192 142.431Z" fill="#B8E6CA"/>
<g filter="url(#filter0_d_112_2626)">
<path d="M84.001 45.465C84.001 40.0692 88.3751 35.6951 93.7709 35.6951H212.646C218.042 35.6951 222.416 40.0692 222.416 45.465V148.015C222.416 153.41 218.042 157.784 212.646 157.784H93.7709C88.3751 157.784 84.001 153.41 84.001 148.015V45.465Z" fill="white"/>
</g>
<path d="M94.6484 57.6996C94.6484 56.1315 95.9196 54.8603 97.4877 54.8603H208.93C210.498 54.8603 211.769 56.1315 211.769 57.6996V84.6728C211.769 86.2409 210.498 87.5121 208.93 87.5121H97.4877C95.9196 87.5121 94.6484 86.2409 94.6484 84.6728V57.6996Z" fill="#BED4FF"/>
<path d="M94.6484 132.231C94.6484 130.663 95.9196 129.392 97.4877 129.392H208.93C210.498 129.392 211.769 130.663 211.769 132.231V135.78C211.769 137.348 210.498 138.619 208.93 138.619H97.4877C95.9196 138.619 94.6484 137.348 94.6484 135.78V132.231Z" fill="#BED4FF"/>
<rect x="145.046" y="94.6103" width="38.3304" height="9.9375" rx="4.96875" fill="#BED4FF"/>
<rect x="145.046" y="110.226" width="66.7232" height="3.54911" rx="1.77455" fill="#BED4FF"/>
<rect x="94.6484" y="110.226" width="41.8795" height="3.54911" rx="1.77455" fill="#BED4FF"/>
<rect x="94.6484" y="102.418" width="41.8795" height="3.54911" rx="1.77455" fill="#BED4FF"/>
<rect x="94.6484" y="118.034" width="41.8795" height="3.54911" rx="1.77455" fill="#BED4FF"/>
<rect x="94.6484" y="94.6103" width="41.8795" height="3.54911" rx="1.77455" fill="#BED4FF"/>
<rect x="145.046" y="118.034" width="66.7232" height="3.54911" rx="1.77455" fill="#BED4FF"/>
<g filter="url(#filter1_d_112_2626)">
<path d="M219.951 16.8137C215.825 18.6138 206.843 22.3403 198.308 24.5997C195.831 25.2553 194.007 27.4611 194.111 30.021C195.608 66.8171 215.627 82.5265 222.273 82.5265C228.912 82.5265 249.189 63.9155 249.626 29.7868C249.658 27.3317 247.902 25.2491 245.535 24.5964C237.017 22.2475 228.54 18.6284 224.582 16.8451C223.11 16.1817 221.431 16.1681 219.951 16.8137Z" fill="#3C7251"/>
<mask id="mask0_112_2626" style="mask-type:alpha" maskUnits="userSpaceOnUse" x="194" y="16" width="56" height="67">
<path d="M220.035 16.8137C215.909 18.6138 206.927 22.3403 198.392 24.5997C195.915 25.2553 194.091 27.4612 194.195 30.021C195.692 66.8171 215.711 82.5265 222.357 82.5265C228.996 82.5265 249.273 63.9155 249.71 29.7868C249.742 27.3317 247.986 25.2491 245.619 24.5964C237.101 22.2475 228.624 18.6284 224.666 16.8451C223.194 16.1817 221.515 16.1681 220.035 16.8137Z" fill="#5C9271"/>
</mask>
<g mask="url(#mask0_112_2626)">
<path d="M222.264 15.7768C222.264 15.7768 209.918 21.5331 198.388 24.5969C195.913 25.2545 194.091 27.4596 194.195 30.0181C195.686 66.8163 215.64 82.5265 222.264 82.5265V15.7768Z" fill="#265C3B"/>
</g>
<ellipse cx="222.157" cy="44.0316" rx="11.0043" ry="11.0043" fill="#D0FBE1"/>
<circle opacity="0.5" cx="221.942" cy="44.1344" r="14.008" stroke="#B8E6CA" stroke-width="2.2272"/>
<mask id="mask1_112_2626" style="mask-type:alpha" maskUnits="userSpaceOnUse" x="211" y="33" width="23" height="23">
<ellipse cx="222.157" cy="44.0316" rx="11.0043" ry="11.0043" fill="#D0FBE1"/>
</mask>
<g mask="url(#mask1_112_2626)">
<path d="M226.498 40.414C226.498 42.7887 224.519 44.7138 222.077 44.7138C219.636 44.7138 217.656 42.7887 217.656 40.414C217.656 38.0394 219.636 36.1143 222.077 36.1143C224.519 36.1143 226.498 38.0394 226.498 40.414Z" fill="#77AD8C"/>
<ellipse cx="222.077" cy="53.1189" rx="9.39435" ry="7.51548" fill="#77AD8C"/>
</g>
</g>
</g>
<defs>
<filter id="filter0_d_112_2626" x="72.6438" y="27.1773" width="161.129" height="144.804" filterUnits="userSpaceOnUse" color-interpolation-filters="sRGB">
<feFlood flood-opacity="0" result="BackgroundImageFix"/>
<feColorMatrix in="SourceAlpha" type="matrix" values="0 0 0 0 0 0 0 0 0 0 0 0 0 0 0 0 0 0 127 0" result="hardAlpha"/>
<feOffset dy="2.83929"/>
<feGaussianBlur stdDeviation="5.67857"/>
<feComposite in2="hardAlpha" operator="out"/>
<feColorMatrix type="matrix" values="0 0 0 0 0 0 0 0 0 0 0 0 0 0 0 0 0 0 0.15 0"/>
<feBlend mode="normal" in2="BackgroundImageFix" result="effect1_dropShadow_112_2626"/>
<feBlend mode="normal" in="SourceGraphic" in2="effect1_dropShadow_112_2626" result="shape"/>
</filter>
<filter id="filter1_d_112_2626" x="185.495" y="12.0319" width="72.7452" height="83.4139" filterUnits="userSpaceOnUse" color-interpolation-filters="sRGB">
<feFlood flood-opacity="0" result="BackgroundImageFix"/>
<feColorMatrix in="SourceAlpha" type="matrix" values="0 0 0 0 0 0 0 0 0 0 0 0 0 0 0 0 0 0 127 0" result="hardAlpha"/>
<feOffset dy="4.30643"/>
<feGaussianBlur stdDeviation="4.30643"/>
<feComposite in2="hardAlpha" operator="out"/>
<feColorMatrix type="matrix" values="0 0 0 0 0.0460389 0 0 0 0 0.348203 0 0 0 0 0.163547 0 0 0 0.25 0"/>
<feBlend mode="normal" in2="BackgroundImageFix" result="effect1_dropShadow_112_2626"/>
<feBlend mode="normal" in="SourceGraphic" in2="effect1_dropShadow_112_2626" result="shape"/>
</filter>
<clipPath id="clip0_112_2626">
<rect width="332" height="173" fill="white"/>
</clipPath>
</defs>
</svg>
