<svg width="491" height="179" viewBox="0 0 491 179" fill="none" xmlns="http://www.w3.org/2000/svg">
<mask id="mask0_4811_26525" style="mask-type:alpha" maskUnits="userSpaceOnUse" x="0" y="-1" width="491" height="180">
<rect y="-1" width="491" height="180" fill="url(#paint0_linear_4811_26525)"/>
</mask>
<g mask="url(#mask0_4811_26525)">
<path opacity="0.15" d="M298.136 -96.5565C320.451 -86.3952 332.619 -64.8841 345.686 -46.1242C357.819 -28.7044 351.217 -1.9078 353.953 19.1222C357.021 42.7081 367.437 64.2218 359.319 89.8576C354.086 101.35 347.41 111.729 339.602 120.878C317.543 146.728 289.951 135.267 256.88 138.846C234.15 141.306 213.197 170.395 162.233 152.598C111.269 134.801 107.227 67.6591 126.641 27.2119C146.055 -13.2353 110.461 -31.841 142.819 -79.5686C175.177 -127.296 255.1 -116.153 298.136 -96.5565Z" fill="#93C9A8"/>
<g filter="url(#filter0_d_4811_26525)">
<path fill-rule="evenodd" clip-rule="evenodd" d="M319.125 51.0205C325.866 51.0205 331.331 56.4849 331.331 63.2256V191.34C331.331 198.081 325.866 203.545 319.125 203.545H170.615C163.875 203.545 158.41 198.081 158.41 191.34V63.2256C158.41 56.485 163.875 51.0207 170.615 51.0205H319.125Z" fill="white"/>
</g>
<path fill-rule="evenodd" clip-rule="evenodd" d="M314.481 74.4385C316.44 74.4386 318.028 76.0265 318.028 77.9854V111.683C318.028 113.642 316.44 115.23 314.481 115.23H175.258C173.299 115.23 171.711 113.642 171.711 111.683V77.9854C171.711 76.0265 173.299 74.4386 175.258 74.4385H314.481Z" fill="#EBEEF0"/>
<rect x="234.672" y="124.623" width="47.8857" height="12.4148" rx="6.2074" fill="#EBEEF0"/>
<rect x="234.672" y="144.132" width="83.3566" height="4.43386" rx="2.21693" fill="#EBEEF0"/>
<rect x="171.711" y="144.132" width="52.3195" height="4.43386" rx="2.21693" fill="#EBEEF0"/>
<rect x="171.711" y="134.377" width="52.3195" height="4.43386" rx="2.21693" fill="#EBEEF0"/>
<rect x="171.711" y="153.886" width="52.3195" height="4.43386" rx="2.21693" fill="#EBEEF0"/>
<rect x="171.711" y="124.623" width="52.3195" height="4.43386" rx="2.21693" fill="#EBEEF0"/>
<rect x="234.672" y="153.886" width="83.3566" height="4.43386" rx="2.21693" fill="#EBEEF0"/>
<g filter="url(#filter1_d_4811_26525)">
<circle cx="329.826" cy="55.7342" r="23.1736" fill="#BED4FF"/>
<path d="M330.142 59.0276C330.799 59.0276 331.362 58.7935 331.83 58.3252C332.297 57.8578 332.531 57.2956 332.531 56.6386C332.531 55.9816 332.297 55.419 331.83 54.9508C331.362 54.4833 330.799 54.2496 330.142 54.2496C329.485 54.2496 328.923 54.4833 328.455 54.9508C327.987 55.419 327.753 55.9816 327.753 56.6386C327.753 57.2956 327.987 57.8578 328.455 58.3252C328.923 58.7935 329.485 59.0276 330.142 59.0276ZM336.831 65.0001L332.561 60.7298C332.222 60.9488 331.849 61.118 331.442 61.2374C331.033 61.3569 330.6 61.4166 330.142 61.4166C328.828 61.4166 327.703 60.9488 326.768 60.0131C325.832 59.0774 325.364 57.9526 325.364 56.6386C325.364 55.3246 325.832 54.1998 326.768 53.2641C327.703 52.3284 328.828 51.8606 330.142 51.8606C331.456 51.8606 332.581 52.3284 333.516 53.2641C334.452 54.1998 334.92 55.3246 334.92 56.6386C334.92 57.0965 334.86 57.5245 334.741 57.9227C334.621 58.3209 334.452 58.6892 334.233 59.0276L337.309 62.1035V51.5321L332.591 45.888H322.975V65.0001H336.831ZM322.975 67.3892C322.318 67.3892 321.756 67.1554 321.288 66.688C320.82 66.2197 320.586 65.6571 320.586 65.0001V45.888C320.586 45.2311 320.82 44.6684 321.288 44.2002C321.756 43.7327 322.318 43.499 322.975 43.499H333.726L339.698 50.6661V65.0001C339.698 65.6571 339.464 66.2197 338.997 66.688C338.529 67.1554 337.966 67.3892 337.309 67.3892H322.975Z" fill="#446199"/>
<circle cx="198.763" cy="121.37" r="12.1533" fill="#BED4FF"/>
<circle cx="198.764" cy="121.37" r="5.96616" stroke="#446199" stroke-width="1.32581"/>
<path d="M200.658 123.264L196.87 119.476" stroke="#446199" stroke-width="1.32581" stroke-linecap="round"/>
<path d="M196.869 123.264L200.657 119.476" stroke="#446199" stroke-width="1.32581" stroke-linecap="round"/>
<circle cx="162.989" cy="85.0126" r="21.9892" fill="#BED4FF"/>
<path d="M158.033 96.0965C157.484 96.0965 157.014 95.9013 156.624 95.5107C156.233 95.1195 156.037 94.6494 156.037 94.1005C156.037 93.5515 156.233 93.0815 156.624 92.6902C157.014 92.2997 157.484 92.1044 158.033 92.1044C158.582 92.1044 159.052 92.2997 159.442 92.6902C159.834 93.0815 160.029 93.5515 160.029 94.1005C160.029 94.6494 159.834 95.1195 159.442 95.5107C159.052 95.9013 158.582 96.0965 158.033 96.0965ZM168.014 96.0965C167.465 96.0965 166.995 95.9013 166.604 95.5107C166.213 95.1195 166.017 94.6494 166.017 94.1005C166.017 93.5515 166.213 93.0815 166.604 92.6902C166.995 92.2997 167.465 92.1044 168.014 92.1044C168.562 92.1044 169.033 92.2997 169.424 92.6902C169.814 93.0815 170.01 93.5515 170.01 94.1005C170.01 94.6494 169.814 95.1195 169.424 95.5107C169.033 95.9013 168.562 96.0965 168.014 96.0965ZM157.185 80.1279L159.58 85.1181H166.566L169.311 80.1279H157.185ZM156.237 78.1318H170.958C171.407 78.1318 171.715 78.2982 171.881 78.6308C172.047 78.9635 172.039 79.3128 171.856 79.6788L168.313 86.0662C168.13 86.3989 167.889 86.6567 167.589 86.8397C167.29 87.0227 166.949 87.1142 166.566 87.1142H159.131L158.033 89.1103H170.01V91.1063H158.033C157.285 91.1063 156.719 90.7777 156.336 90.1203C155.954 89.4636 155.937 88.8109 156.287 88.1621L157.634 85.7169L154.041 78.1318H152.045V76.1357H155.289L156.237 78.1318Z" fill="#446199"/>
</g>
</g>
<defs>
<filter id="filter0_d_4811_26525" x="144.222" y="40.3792" width="201.299" height="180.901" filterUnits="userSpaceOnUse" color-interpolation-filters="sRGB">
<feFlood flood-opacity="0" result="BackgroundImageFix"/>
<feColorMatrix in="SourceAlpha" type="matrix" values="0 0 0 0 0 0 0 0 0 0 0 0 0 0 0 0 0 0 127 0" result="hardAlpha"/>
<feOffset dy="3.54709"/>
<feGaussianBlur stdDeviation="7.09418"/>
<feComposite in2="hardAlpha" operator="out"/>
<feColorMatrix type="matrix" values="0 0 0 0 0 0 0 0 0 0 0 0 0 0 0 0 0 0 0.15 0"/>
<feBlend mode="normal" in2="BackgroundImageFix" result="effect1_dropShadow_4811_26525"/>
<feBlend mode="normal" in="SourceGraphic" in2="effect1_dropShadow_4811_26525" result="shape"/>
</filter>
<filter id="filter1_d_4811_26525" x="126.812" y="21.9193" width="240.377" height="129.34" filterUnits="userSpaceOnUse" color-interpolation-filters="sRGB">
<feFlood flood-opacity="0" result="BackgroundImageFix"/>
<feColorMatrix in="SourceAlpha" type="matrix" values="0 0 0 0 0 0 0 0 0 0 0 0 0 0 0 0 0 0 127 0" result="hardAlpha"/>
<feOffset dy="3.54709"/>
<feGaussianBlur stdDeviation="7.09418"/>
<feComposite in2="hardAlpha" operator="out"/>
<feColorMatrix type="matrix" values="0 0 0 0 0 0 0 0 0 0 0 0 0 0 0 0 0 0 0.15 0"/>
<feBlend mode="normal" in2="BackgroundImageFix" result="effect1_dropShadow_4811_26525"/>
<feBlend mode="normal" in="SourceGraphic" in2="effect1_dropShadow_4811_26525" result="shape"/>
</filter>
<linearGradient id="paint0_linear_4811_26525" x1="245.5" y1="-1" x2="245.5" y2="179" gradientUnits="userSpaceOnUse">
<stop offset="0.7"/>
<stop offset="0.95" stop-opacity="0"/>
</linearGradient>
</defs>
</svg>
