<svg width="491" height="179" viewBox="0 0 491 179" fill="none" xmlns="http://www.w3.org/2000/svg">
<mask id="mask0_4811_26843" style="mask-type:alpha" maskUnits="userSpaceOnUse" x="0" y="-1" width="491" height="180">
<rect y="-1" width="491" height="180" fill="url(#paint0_linear_4811_26843)"/>
</mask>
<g mask="url(#mask0_4811_26843)">
<path opacity="0.15" d="M298.136 -96.5565C320.451 -86.3952 332.619 -64.8841 345.686 -46.1242C357.819 -28.7044 351.217 -1.9078 353.953 19.1222C357.021 42.7081 367.437 64.2218 359.319 89.8576C354.086 101.35 347.41 111.729 339.602 120.878C317.543 146.728 289.951 135.267 256.88 138.846C234.15 141.306 213.197 170.395 162.233 152.598C111.269 134.801 107.227 67.6591 126.641 27.2119C146.055 -13.2353 110.461 -31.841 142.819 -79.5686C175.177 -127.296 255.1 -116.153 298.136 -96.5565Z" fill="#93C9A8"/>
<g filter="url(#filter0_d_4811_26843)">
<path fill-rule="evenodd" clip-rule="evenodd" d="M319.125 51.0215C325.866 51.0215 331.331 56.4859 331.331 63.2266V191.341C331.331 198.082 325.866 203.546 319.125 203.546H170.615C163.875 203.546 158.41 198.082 158.41 191.341V63.2266C158.41 56.486 163.875 51.0217 170.615 51.0215H319.125Z" fill="white"/>
</g>
<path fill-rule="evenodd" clip-rule="evenodd" d="M314.481 74.4395C316.44 74.4396 318.028 76.0275 318.028 77.9863V111.684C318.028 113.643 316.44 115.231 314.481 115.231H175.258C173.299 115.231 171.711 113.643 171.711 111.684V77.9863C171.711 76.0275 173.299 74.4396 175.258 74.4395H314.481Z" fill="#EBEEF0"/>
<rect x="234.672" y="124.624" width="47.8857" height="12.4148" rx="6.2074" fill="#EBEEF0"/>
<rect x="234.672" y="144.133" width="83.3566" height="4.43386" rx="2.21693" fill="#EBEEF0"/>
<rect x="171.711" y="144.133" width="52.3195" height="4.43386" rx="2.21693" fill="#EBEEF0"/>
<rect x="171.711" y="134.378" width="52.3195" height="4.43386" rx="2.21693" fill="#EBEEF0"/>
<rect x="171.711" y="153.887" width="52.3195" height="4.43386" rx="2.21693" fill="#EBEEF0"/>
<rect x="171.711" y="124.624" width="52.3195" height="4.43386" rx="2.21693" fill="#EBEEF0"/>
<rect x="234.672" y="153.887" width="83.3566" height="4.43386" rx="2.21693" fill="#EBEEF0"/>
<g filter="url(#filter1_d_4811_26843)">
<circle cx="329.826" cy="55.7352" r="23.1736" fill="#BED4FF"/>
<path d="M330.142 59.0286C330.799 59.0286 331.362 58.7945 331.83 58.3262C332.297 57.8588 332.531 57.2965 332.531 56.6396C332.531 55.9826 332.297 55.42 331.83 54.9517C331.362 54.4843 330.799 54.2506 330.142 54.2506C329.485 54.2506 328.923 54.4843 328.455 54.9517C327.987 55.42 327.753 55.9826 327.753 56.6396C327.753 57.2965 327.987 57.8588 328.455 58.3262C328.923 58.7945 329.485 59.0286 330.142 59.0286ZM336.831 65.0011L332.561 60.7308C332.222 60.9497 331.849 61.119 331.442 61.2384C331.033 61.3579 330.6 61.4176 330.142 61.4176C328.828 61.4176 327.703 60.9497 326.768 60.0141C325.832 59.0784 325.364 57.9535 325.364 56.6396C325.364 55.3256 325.832 54.2008 326.768 53.2651C327.703 52.3294 328.828 51.8615 330.142 51.8615C331.456 51.8615 332.581 52.3294 333.516 53.2651C334.452 54.2008 334.92 55.3256 334.92 56.6396C334.92 57.0975 334.86 57.5255 334.741 57.9237C334.621 58.3218 334.452 58.6901 334.233 59.0286L337.309 62.1044V51.5331L332.591 45.889H322.975V65.0011H336.831ZM322.975 67.3901C322.318 67.3901 321.756 67.1564 321.288 66.689C320.82 66.2207 320.586 65.6581 320.586 65.0011V45.889C320.586 45.232 320.82 44.6694 321.288 44.2012C321.756 43.7337 322.318 43.5 322.975 43.5H333.726L339.698 50.667V65.0011C339.698 65.6581 339.464 66.2207 338.997 66.689C338.529 67.1564 337.966 67.3901 337.309 67.3901H322.975Z" fill="#446199"/>
<circle cx="198.763" cy="121.371" r="12.1533" fill="#BED4FF"/>
<circle cx="198.764" cy="121.371" r="5.96616" stroke="#446199" stroke-width="1.32581"/>
<path d="M200.658 123.265L196.87 119.477" stroke="#446199" stroke-width="1.32581" stroke-linecap="round"/>
<path d="M196.869 123.265L200.657 119.477" stroke="#446199" stroke-width="1.32581" stroke-linecap="round"/>
<circle cx="162.989" cy="85.0136" r="21.9892" fill="#BED4FF"/>
<path d="M153.349 89.2769L160.412 98H167.824C170.365 98 171 95.8462 171 94.7692V87.2308C171 86.7447 170.551 85.9602 169.842 85.6154C169.398 85.3994 168.853 85.5825 168.252 85.4174C167.817 85.2977 167.824 85.0071 167.029 84.849C166.384 84.7204 165.919 84.9197 165.441 84.849C164.939 84.7746 164.96 84.3591 164.118 84.2692C163.161 84.1672 162.957 84.5656 162.529 84.5385V78.6154C162.529 78.0769 162.212 77 160.941 77C159.671 77 159.353 78.0769 159.353 78.6154V90.1923C158.294 89.6538 155.541 87.7692 155.118 87.7692C154.779 87.7692 154.08 88.1132 153.452 88.5262C153.199 88.693 153.158 89.0411 153.349 89.2769Z" stroke="#446199" stroke-width="2"/>
<path fill-rule="evenodd" clip-rule="evenodd" d="M161 72C164.314 72 167 74.6863 167 78C167 79.7766 166.227 81.3721 165 82.4707V78C165 75.7909 163.209 74 161 74C158.791 74 157 75.7909 157 78V82.4707C155.773 81.3721 155 79.7766 155 78C155 74.6863 157.686 72 161 72Z" fill="#446199"/>
</g>
</g>
<defs>
<filter id="filter0_d_4811_26843" x="144.222" y="40.3802" width="201.299" height="180.901" filterUnits="userSpaceOnUse" color-interpolation-filters="sRGB">
<feFlood flood-opacity="0" result="BackgroundImageFix"/>
<feColorMatrix in="SourceAlpha" type="matrix" values="0 0 0 0 0 0 0 0 0 0 0 0 0 0 0 0 0 0 127 0" result="hardAlpha"/>
<feOffset dy="3.54709"/>
<feGaussianBlur stdDeviation="7.09418"/>
<feComposite in2="hardAlpha" operator="out"/>
<feColorMatrix type="matrix" values="0 0 0 0 0 0 0 0 0 0 0 0 0 0 0 0 0 0 0.15 0"/>
<feBlend mode="normal" in2="BackgroundImageFix" result="effect1_dropShadow_4811_26843"/>
<feBlend mode="normal" in="SourceGraphic" in2="effect1_dropShadow_4811_26843" result="shape"/>
</filter>
<filter id="filter1_d_4811_26843" x="126.812" y="21.9203" width="240.377" height="129.34" filterUnits="userSpaceOnUse" color-interpolation-filters="sRGB">
<feFlood flood-opacity="0" result="BackgroundImageFix"/>
<feColorMatrix in="SourceAlpha" type="matrix" values="0 0 0 0 0 0 0 0 0 0 0 0 0 0 0 0 0 0 127 0" result="hardAlpha"/>
<feOffset dy="3.54709"/>
<feGaussianBlur stdDeviation="7.09418"/>
<feComposite in2="hardAlpha" operator="out"/>
<feColorMatrix type="matrix" values="0 0 0 0 0 0 0 0 0 0 0 0 0 0 0 0 0 0 0.15 0"/>
<feBlend mode="normal" in2="BackgroundImageFix" result="effect1_dropShadow_4811_26843"/>
<feBlend mode="normal" in="SourceGraphic" in2="effect1_dropShadow_4811_26843" result="shape"/>
</filter>
<linearGradient id="paint0_linear_4811_26843" x1="245.5" y1="-1" x2="245.5" y2="179" gradientUnits="userSpaceOnUse">
<stop offset="0.7"/>
<stop offset="0.95" stop-opacity="0"/>
</linearGradient>
</defs>
</svg>
