<svg width="491" height="179" viewBox="0 0 491 179" fill="none" xmlns="http://www.w3.org/2000/svg">
<mask id="mask0_4821_56934" style="mask-type:alpha" maskUnits="userSpaceOnUse" x="0" y="-1" width="491" height="180">
<rect y="-1" width="491" height="180" fill="url(#paint0_linear_4821_56934)"/>
</mask>
<g mask="url(#mask0_4821_56934)">
<path opacity="0.15" d="M298.136 -96.5574C320.451 -86.3962 332.619 -64.8851 345.686 -46.1252C357.819 -28.7053 351.217 -1.90878 353.953 19.1212C357.021 42.7071 367.437 64.2208 359.319 89.8566C354.086 101.349 347.41 111.728 339.602 120.877C317.543 146.727 289.951 135.266 256.88 138.845C234.15 141.305 213.197 170.394 162.233 152.597C111.269 134.8 107.227 67.6582 126.641 27.211C146.055 -13.2362 110.461 -31.8419 142.819 -79.5696C175.177 -127.297 255.1 -116.154 298.136 -96.5574Z" fill="#93C9A8"/>
<g filter="url(#filter0_d_4821_56934)">
<path fill-rule="evenodd" clip-rule="evenodd" d="M319.125 51.0215C325.866 51.0215 331.331 56.4859 331.331 63.2266V191.341C331.331 198.082 325.866 203.546 319.125 203.546H170.615C163.875 203.546 158.41 198.082 158.41 191.341V63.2266C158.41 56.486 163.875 51.0217 170.615 51.0215H319.125Z" fill="white"/>
</g>
<path fill-rule="evenodd" clip-rule="evenodd" d="M314.481 74.4395C316.44 74.4396 318.028 76.0275 318.028 77.9863V111.684C318.028 113.643 316.44 115.231 314.481 115.231H175.258C173.299 115.231 171.711 113.643 171.711 111.684V77.9863C171.711 76.0275 173.299 74.4396 175.258 74.4395H314.481Z" fill="#EBEEF0"/>
<rect x="234.672" y="124.624" width="47.8857" height="12.4148" rx="6.2074" fill="#EBEEF0"/>
<rect x="234.672" y="144.133" width="83.3566" height="4.43386" rx="2.21693" fill="#EBEEF0"/>
<rect x="171.711" y="144.133" width="52.3195" height="4.43386" rx="2.21693" fill="#EBEEF0"/>
<rect x="171.711" y="134.378" width="52.3195" height="4.43386" rx="2.21693" fill="#EBEEF0"/>
<rect x="171.711" y="153.887" width="52.3195" height="4.43386" rx="2.21693" fill="#EBEEF0"/>
<rect x="171.711" y="124.624" width="52.3195" height="4.43386" rx="2.21693" fill="#EBEEF0"/>
<rect x="234.672" y="153.887" width="83.3566" height="4.43386" rx="2.21693" fill="#EBEEF0"/>
<g filter="url(#filter1_d_4821_56934)">
<circle cx="198.763" cy="121.371" r="12.1533" fill="#BED4FF"/>
<circle cx="198.764" cy="121.371" r="5.96616" stroke="#446199" stroke-width="1.32581"/>
<path d="M200.658 123.265L196.87 119.477" stroke="#446199" stroke-width="1.32581" stroke-linecap="round"/>
<path d="M196.869 123.265L200.657 119.477" stroke="#446199" stroke-width="1.32581" stroke-linecap="round"/>
<circle cx="162.989" cy="85.0136" r="21.9892" fill="#BED4FF"/>
<path d="M158.033 96.0975C157.484 96.0975 157.014 95.9022 156.624 95.5117C156.233 95.1204 156.037 94.6504 156.037 94.1014C156.037 93.5525 156.233 93.0824 156.624 92.6912C157.014 92.3006 157.484 92.1054 158.033 92.1054C158.582 92.1054 159.052 92.3006 159.442 92.6912C159.834 93.0824 160.029 93.5525 160.029 94.1014C160.029 94.6504 159.834 95.1204 159.442 95.5117C159.052 95.9022 158.582 96.0975 158.033 96.0975ZM168.014 96.0975C167.465 96.0975 166.995 95.9022 166.604 95.5117C166.213 95.1204 166.017 94.6504 166.017 94.1014C166.017 93.5525 166.213 93.0824 166.604 92.6912C166.995 92.3006 167.465 92.1054 168.014 92.1054C168.562 92.1054 169.033 92.3006 169.424 92.6912C169.814 93.0824 170.01 93.5525 170.01 94.1014C170.01 94.6504 169.814 95.1204 169.424 95.5117C169.033 95.9022 168.562 96.0975 168.014 96.0975ZM157.185 80.1289L159.58 85.1191H166.566L169.311 80.1289H157.185ZM156.237 78.1328H170.958C171.407 78.1328 171.715 78.2991 171.881 78.6318C172.047 78.9645 172.039 79.3138 171.856 79.6798L168.313 86.0672C168.13 86.3999 167.889 86.6577 167.589 86.8407C167.29 87.0237 166.949 87.1152 166.566 87.1152H159.131L158.033 89.1112H170.01V91.1073H158.033C157.285 91.1073 156.719 90.7786 156.336 90.1213C155.954 89.4645 155.937 88.8118 156.287 88.1631L157.634 85.7179L154.041 78.1328H152.045V76.1367H155.289L156.237 78.1328Z" fill="#446199"/>
<circle cx="330.047" cy="56.0698" r="22.9536" fill="#BED4FF"/>
<path d="M319.983 60.5195L327.356 69.6252H335.093C337.745 69.6252 338.409 67.3768 338.409 66.2527V58.3836C338.409 57.8762 337.94 57.0572 337.2 56.6974C336.737 56.4719 336.167 56.6631 335.54 56.4907C335.086 56.3657 335.093 56.0624 334.264 55.8973C333.59 55.7632 333.105 55.9712 332.606 55.8973C332.081 55.8197 332.103 55.3859 331.224 55.2922C330.226 55.1857 330.013 55.6016 329.567 55.5732V49.3903C329.567 48.8283 329.235 47.7041 327.909 47.7041C326.582 47.7041 326.251 48.8283 326.251 49.3903V61.475C325.145 60.9129 322.272 58.9457 321.83 58.9457C321.476 58.9457 320.746 59.3047 320.091 59.7358C319.827 59.91 319.784 60.2733 319.983 60.5195Z" stroke="#446199" stroke-width="2.08772"/>
<path fill-rule="evenodd" clip-rule="evenodd" d="M327.969 42.4854C331.428 42.4856 334.231 45.2902 334.231 48.749C334.231 50.6044 333.424 52.2702 332.142 53.417V48.835C332.142 48.8064 332.144 48.7777 332.144 48.749C332.143 46.4432 330.275 44.5735 327.969 44.5732C325.663 44.5734 323.793 46.4432 323.793 48.749H323.791V53.4131C322.512 52.2664 321.705 50.6022 321.705 48.749C321.705 45.2902 324.51 42.4855 327.969 42.4854Z" fill="#446199"/>
</g>
</g>
<defs>
<filter id="filter0_d_4821_56934" x="144.222" y="40.3802" width="201.299" height="180.901" filterUnits="userSpaceOnUse" color-interpolation-filters="sRGB">
<feFlood flood-opacity="0" result="BackgroundImageFix"/>
<feColorMatrix in="SourceAlpha" type="matrix" values="0 0 0 0 0 0 0 0 0 0 0 0 0 0 0 0 0 0 127 0" result="hardAlpha"/>
<feOffset dy="3.54709"/>
<feGaussianBlur stdDeviation="7.09418"/>
<feComposite in2="hardAlpha" operator="out"/>
<feColorMatrix type="matrix" values="0 0 0 0 0 0 0 0 0 0 0 0 0 0 0 0 0 0 0.15 0"/>
<feBlend mode="normal" in2="BackgroundImageFix" result="effect1_dropShadow_4821_56934"/>
<feBlend mode="normal" in="SourceGraphic" in2="effect1_dropShadow_4821_56934" result="shape"/>
</filter>
<filter id="filter1_d_4821_56934" x="126.812" y="22.4749" width="240.377" height="128.785" filterUnits="userSpaceOnUse" color-interpolation-filters="sRGB">
<feFlood flood-opacity="0" result="BackgroundImageFix"/>
<feColorMatrix in="SourceAlpha" type="matrix" values="0 0 0 0 0 0 0 0 0 0 0 0 0 0 0 0 0 0 127 0" result="hardAlpha"/>
<feOffset dy="3.54709"/>
<feGaussianBlur stdDeviation="7.09418"/>
<feComposite in2="hardAlpha" operator="out"/>
<feColorMatrix type="matrix" values="0 0 0 0 0 0 0 0 0 0 0 0 0 0 0 0 0 0 0.15 0"/>
<feBlend mode="normal" in2="BackgroundImageFix" result="effect1_dropShadow_4821_56934"/>
<feBlend mode="normal" in="SourceGraphic" in2="effect1_dropShadow_4821_56934" result="shape"/>
</filter>
<linearGradient id="paint0_linear_4821_56934" x1="245.5" y1="-1" x2="245.5" y2="179" gradientUnits="userSpaceOnUse">
<stop offset="0.7"/>
<stop offset="0.95" stop-opacity="0"/>
</linearGradient>
</defs>
</svg>
