<svg width="32" height="32" viewBox="0 0 32 32" fill="none" xmlns="http://www.w3.org/2000/svg">
<rect width="32" height="32" rx="8.53333" fill="white"/>
<path d="M24.3736 22.933C24.3736 24.2326 23.3187 25.3296 22.0191 25.3296C21.9388 25.3296 21.8165 25.3296 21.7362 25.3296C20.5169 25.1653 19.6225 24.0721 19.6645 22.8527V8.7177C19.6225 7.49837 20.5169 6.4434 21.7362 6.24082C23.0358 6.07645 24.2131 7.01293 24.3775 8.31253C24.3775 8.3928 24.3775 8.51511 24.3775 8.59538V22.933H24.3736Z" fill="#F9AB00"/>
<path d="M9.46706 20.6202C10.7667 20.6202 11.8216 21.6752 11.8216 22.9748C11.8216 24.2744 10.7667 25.3293 9.46706 25.3293C8.16747 25.3293 7.1125 24.2744 7.1125 22.9748C7.07045 21.6752 8.16747 20.6202 9.46706 20.6202ZM15.6822 13.4304C14.3826 13.5106 13.3659 14.6076 13.3659 15.9072V22.2829C13.3659 23.9877 14.138 25.0465 15.235 25.2873C16.5346 25.5319 17.7539 24.7178 18.0368 23.4182C18.0788 23.2538 18.0788 23.0933 18.0788 22.9289V15.8193C18.0788 14.5197 17.0238 13.4227 15.7242 13.4227H15.6822V13.4304Z" fill="#E37400"/>
</svg>
