<svg width="409" height="166" viewBox="0 0 409 166" fill="none" xmlns="http://www.w3.org/2000/svg">
<path d="M381.232 66.362C397.19 111.899 380.078 171.535 329.372 186.652C278.667 201.77 246.678 157.54 224.458 155.411C202.237 153.283 172.79 176.293 136.401 186.868C100.013 197.444 59.2054 180.882 33.327 142.527C7.44866 104.172 28.8264 29.9344 68.0144 17.5383C107.202 5.14219 115.088 26.5761 154.127 17.3821C193.167 8.18809 189.134 -19.7908 224.824 -31.0674C304.476 -56.2347 365.274 20.825 381.232 66.362Z" fill="#D0FBE1"/>
<g filter="url(#filter0_d_2354_33183)">
<rect x="96.1792" y="27.5056" width="202.324" height="203.167" rx="11.037" fill="#EBEEF0"/>
<mask id="mask0_2354_33183" style="mask-type:alpha" maskUnits="userSpaceOnUse" x="96" y="27" width="203" height="207">
<rect x="96.1787" y="27.5056" width="202.324" height="205.696" rx="11.037" fill="#DEE3E6"/>
</mask>
<g mask="url(#mask0_2354_33183)">
<rect x="108.823" y="92.4182" width="82.6155" height="112.121" rx="5.92948" fill="white"/>
<rect x="119.082" y="138.582" width="28.5777" height="5.12934" rx="2.56467" fill="#EBEEF0"/>
<rect x="119.082" y="130.522" width="10.2587" height="5.12934" rx="2.56467" fill="#EBEEF0"/>
<rect x="119.082" y="156.943" width="10.2587" height="5.12934" rx="2.56467" fill="#EBEEF0"/>
<path d="M165.246 137.483C165.246 134.853 167.379 132.72 170.009 132.72H177.337C179.967 132.72 182.1 134.853 182.1 137.483C182.1 140.114 179.967 142.246 177.337 142.246H170.009C167.379 142.246 165.246 140.114 165.246 137.483Z" fill="#EBEEF0"/>
<rect x="119.065" y="103.738" width="19.4056" height="4.85139" rx="2.4257" fill="#EBEEF0"/>
<path d="M165.246 163.905C165.246 161.274 167.379 159.142 170.009 159.142H177.337C179.967 159.142 182.1 161.274 182.1 163.905C182.1 166.535 179.967 168.668 177.337 168.668H170.009C167.379 168.668 165.246 166.535 165.246 163.905Z" fill="#EBEEF0"/>
<rect x="118.349" y="165.004" width="30.0433" height="5.12934" rx="2.56467" fill="#EBEEF0"/>
<path d="M191.297 118.562L109.363 118.562" stroke="#EBEEF0" stroke-width="1.07809"/>
<rect x="201.555" y="92.4182" width="82.6155" height="112.121" rx="5.92948" fill="white"/>
<rect x="212.314" y="138.582" width="28.5133" height="5.12934" rx="2.56467" fill="#EBEEF0"/>
<rect x="212.314" y="130.522" width="10.2356" height="5.12934" rx="2.56467" fill="#EBEEF0"/>
<rect x="212.314" y="156.943" width="10.2356" height="5.12934" rx="2.56467" fill="#EBEEF0"/>
<path d="M258.373 137.483C258.373 134.853 260.505 132.72 263.136 132.72H270.426C273.056 132.72 275.189 134.853 275.189 137.483C275.189 140.114 273.056 142.246 270.426 142.246H263.136C260.505 142.246 258.373 140.114 258.373 137.483Z" fill="#EBEEF0"/>
<rect x="212.337" y="103.738" width="19.439" height="4.85139" rx="2.4257" fill="#EBEEF0"/>
<path d="M284.171 118.562L201.555 118.562" stroke="#EBEEF0" stroke-width="1.07809"/>
<path d="M258.373 163.905C258.373 161.274 260.505 159.142 263.136 159.142H270.426C273.056 159.142 275.189 161.274 275.189 163.905C275.189 166.535 273.056 168.668 270.426 168.668H263.136C260.505 168.668 258.373 166.535 258.373 163.905Z" fill="#EBEEF0"/>
<rect x="211.583" y="165.004" width="29.9755" height="5.12934" rx="2.56467" fill="#EBEEF0"/>
<rect width="54.796" height="27.8195" rx="3.6603" transform="matrix(1 0 0 -1 229.375 83.988)" fill="white"/>
<rect width="16.6364" height="6.6551" rx="3.32755" transform="matrix(1 0 0 -1 234.594 76.9656)" fill="#EBEEF0"/>
<rect width="44.2527" height="2.66204" rx="1.33102" transform="matrix(1 0 0 -1 234.594 65.3191)" fill="#EBEEF0"/>
<rect width="54.9" height="29.9479" rx="3.6603" transform="matrix(1 0 0 -1 169.047 86.2603)" fill="white"/>
<rect width="34.9364" height="2.66204" rx="1.33102" transform="matrix(1 0 0 -1 174.371 80.9363)" fill="#EBEEF0"/>
<rect width="16.6364" height="6.6551" rx="3.32755" transform="matrix(1 0 0 -1 174.371 75.2793)" fill="#EBEEF0"/>
<rect width="44.2527" height="2.66204" rx="1.33102" transform="matrix(1 0 0 -1 174.371 63.6328)" fill="#EBEEF0"/>
<rect width="54.796" height="27.8195" rx="3.6603" transform="matrix(1 0 0 -1 108.823 83.988)" fill="white"/>
<path d="M114.146 73.638C114.146 75.4758 115.636 76.9656 117.474 76.9656H127.455C129.293 76.9656 130.782 75.4758 130.782 73.638C130.782 71.8003 129.293 70.3105 127.455 70.3105H117.474C115.636 70.3105 114.146 71.8003 114.146 73.638Z" fill="#EBEEF0"/>
<rect width="44.2527" height="2.66204" rx="1.33102" transform="matrix(1 0 0 -1 114.146 65.3191)" fill="#EBEEF0"/>
</g>
<path d="M96 39.037C96 32.9414 100.941 28 107.037 28H287.037C293.132 28 298.074 32.9414 298.074 39.037V44.7233H96V39.037Z" fill="white"/>
<rect x="104.541" y="33.1326" width="5.57444" height="5.57444" rx="2.78722" fill="#F3F5F7"/>
<rect x="112.902" y="33.1326" width="5.57444" height="5.57444" rx="2.78722" fill="#F3F5F7"/>
<rect x="121.333" y="33.1326" width="5.57444" height="5.57444" rx="2.78722" fill="#F3F5F7"/>
</g>
<path d="M292.707 49.829C289.213 46.0678 288.281 32.4336 288.281 32.4336C288.281 32.4336 287.582 46.0678 284.088 49.829C280.593 53.5902 270.576 54.2954 270.576 54.2954C270.576 54.2954 281.758 55.7058 284.321 59.702C286.883 63.6983 288.281 76.3922 288.281 76.3922C288.281 76.3922 289.213 62.5229 292.707 58.9968C296.201 55.4707 306.218 54.2954 306.218 54.2954C306.218 54.2954 296.201 53.5902 292.707 49.829Z" fill="#FECE72"/>
<path d="M259.18 68.3528C256.152 65.0999 255.344 53.3081 255.344 53.3081C255.344 53.3081 254.738 65.0999 251.71 68.3528C248.681 71.6057 240 72.2156 240 72.2156C240 72.2156 249.691 73.4354 251.912 76.8916C254.133 80.3478 255.344 91.3264 255.344 91.3264C255.344 91.3264 256.152 79.3313 259.18 76.2817C262.208 73.2321 270.89 72.2156 270.89 72.2156C270.89 72.2156 262.208 71.6057 259.18 68.3528Z" fill="#FECE72"/>
<path d="M314.005 92.8828C312.024 90.7481 311.496 83.0098 311.496 83.0098C311.496 83.0098 311.1 90.7481 309.12 92.8828C307.14 95.0175 301.464 95.4178 301.464 95.4178C301.464 95.4178 307.8 96.2183 309.252 98.4865C310.704 100.755 311.496 107.959 311.496 107.959C311.496 107.959 312.024 100.087 314.005 98.0862C315.985 96.0849 321.661 95.4178 321.661 95.4178C321.661 95.4178 315.985 95.0175 314.005 92.8828Z" fill="#FECE72"/>
<path d="M274.606 15.6837C273.081 14.0573 272.675 8.16138 272.675 8.16138C272.675 8.16138 272.37 14.0573 270.845 15.6837C269.32 17.3102 264.949 17.6151 264.949 17.6151C264.949 17.6151 269.829 18.225 270.947 19.9531C272.065 21.6812 272.675 27.1705 272.675 27.1705C272.675 27.1705 273.081 21.173 274.606 19.6482C276.131 18.1234 280.502 17.6151 280.502 17.6151C280.502 17.6151 276.131 17.3102 274.606 15.6837Z" fill="#FECE72"/>
<defs>
<filter id="filter0_d_2354_33183" x="82.5117" y="17.3894" width="229.479" height="230.143" filterUnits="userSpaceOnUse" color-interpolation-filters="sRGB">
<feFlood flood-opacity="0" result="BackgroundImageFix"/>
<feColorMatrix in="SourceAlpha" type="matrix" values="0 0 0 0 0 0 0 0 0 0 0 0 0 0 0 0 0 0 127 0" result="hardAlpha"/>
<feOffset dy="3.37206"/>
<feGaussianBlur stdDeviation="6.74413"/>
<feComposite in2="hardAlpha" operator="out"/>
<feColorMatrix type="matrix" values="0 0 0 0 0 0 0 0 0 0 0 0 0 0 0 0 0 0 0.15 0"/>
<feBlend mode="normal" in2="BackgroundImageFix" result="effect1_dropShadow_2354_33183"/>
<feBlend mode="normal" in="SourceGraphic" in2="effect1_dropShadow_2354_33183" result="shape"/>
</filter>
</defs>
</svg>
