<svg height="40" viewBox="0 0 40 40" width="40" xmlns="http://www.w3.org/2000/svg">
	<g fill="none" transform="translate(.421875 .421875)">
		<path d="m16.4893444 22.0764463 20.5084731-.0577704-.0272327 9.6675897-20.5084731.0577703z" fill="#8ab4f8" transform="matrix(.70710678 -.70710678 .70710678 .70710678 -11.178964 26.774306)" />
		<path d="m22.9092135 8.49627119-6.818427-6.85694916-14.46067414 14.54237287c-1.88207865 1.8927119-1.88207865 4.9620339 0 6.8547458l14.46067414 14.5423729 6.816236-6.8547458-11.0514607-11.1138983z" fill="#4285f4" />
		<ellipse cx="19.5" cy="34.152542" fill="#1967d2" rx="4.820225" ry="4.847458" />
		<path d="m37.3698876 16.1816949-14.4606741-14.54237287c-1.8820787-1.89271186-4.9341573-1.89271186-6.816236 0-1.8820786 1.89271187-1.8820786 4.9620339 0 6.85474577l14.4606742 14.5423729c1.8820786 1.8927118 4.9341573 1.8927118 6.8162359 0 1.8820787-1.8927119 1.8820787-4.9598305 0-6.8547458z" fill="#8ab4f8" />
	</g>
</svg>