<svg width="49" height="49" viewBox="0 0 49 49" fill="none" xmlns="http://www.w3.org/2000/svg">
  <path
    d="M25.4644 44.2072C36.3653 44.2072 45.2022 35.3703 45.2022 24.4694C45.2022 13.5685 36.3653 4.73157 25.4644 4.73157C14.5635 4.73157 5.72656 13.5685 5.72656 24.4694C5.72656 35.3703 14.5635 44.2072 25.4644 44.2072Z"
    fill="#C489F8" />
  <path
    d="M43.2735 24.4081C43.2735 35.3106 34.4382 44.1459 23.5357 44.1459C19.8913 44.1459 16.4919 43.1659 13.5519 41.4356L8.11598 44.1C7.01348 44.6359 5.80379 43.61 6.14066 42.4462L7.88629 36.4284C5.3291 33.1056 3.79785 28.9253 3.79785 24.4081C3.79785 13.5056 12.6332 4.67029 23.5357 4.67029C34.4382 4.67029 43.2735 13.5056 43.2735 24.4081V24.4081Z"
    fill="white" />
  <path
    d="M43.2881 24.4694C43.2881 35.3719 34.4528 44.2072 23.5503 44.2072C19.9059 44.2072 16.5066 43.2272 13.5666 41.4969L8.13063 44.1613C7.02813 44.6972 5.81844 43.6713 6.15531 42.5075L7.90094 36.4897C5.34375 33.1669 3.8125 28.9866 3.8125 24.4694C3.8125 13.5669 12.6478 4.73157 23.5503 4.73157C34.4528 4.73157 43.2881 13.5669 43.2881 24.4694V24.4694Z"
    fill="#FABB05" />
  <path
    d="M45.2023 24.4694C45.2023 35.3719 36.367 44.2072 25.4645 44.2072C25.143 44.2072 24.8214 44.2072 24.5152 44.1766C24.3161 44.1766 24.117 44.1613 23.918 44.1459C34.652 43.9469 43.2883 35.1881 43.2883 24.4081C43.2883 23.6119 43.2423 22.8309 43.1505 22.05V21.8969C43.1505 21.8969 43.1198 21.7591 43.1045 21.6825C41.803 12.4031 34.0395 5.20625 24.5152 4.74688C24.7142 4.74688 24.898 4.73157 25.097 4.73157C25.2195 4.73157 25.342 4.73157 25.4645 4.73157C36.367 4.73157 45.2023 13.5669 45.2023 24.4694V24.4694Z"
    fill="#E27402" />
  <path opacity="0.3"
    d="M40.4094 14.2253C36.9028 8.75876 30.7625 5.12969 23.78 5.12969C12.8775 5.12969 4.04221 13.965 4.04221 24.8675C4.04221 28.6191 5.08346 32.1256 6.90565 35.1116C4.94565 32.0491 3.81252 28.4047 3.81252 24.4847C3.79721 13.5822 12.6478 4.73157 23.5503 4.73157C30.7013 4.73157 36.9488 8.52907 40.4247 14.21L40.4094 14.2253Z"
    fill="white" />
  <path
    d="M31.8343 25.8781L30.8237 26.8887L24.0249 33.6874C23.7646 33.9478 23.3359 33.9478 23.0755 33.6874L16.2768 26.8887L15.2662 25.8781C13.2602 23.8721 13.2602 20.6106 15.2662 18.6046C16.2768 17.594 17.5937 17.104 18.9105 17.104C20.2274 17.104 21.5443 17.6093 22.5549 18.6046L23.5502 19.5999H23.5655L24.5609 18.6046C25.5562 17.594 26.8884 17.104 28.1899 17.104C29.4915 17.104 30.8237 17.6093 31.8343 18.6046C33.8402 20.6106 33.8402 23.8721 31.8343 25.8781V25.8781Z"
    fill="white" />
  <path
    d="M31.8196 25.8781L30.809 26.8887L24.0103 33.6874C23.75 33.9478 23.3212 33.9478 23.0609 33.6874L16.2621 26.8887L15.2515 25.8781C13.2456 23.8721 13.2456 20.6106 15.2515 18.6046C16.2621 17.594 17.579 17.104 18.8959 17.104C20.2128 17.104 21.5296 17.6093 22.5403 18.6046L23.5356 19.5999H23.5509L24.5462 18.6046C25.5415 17.594 26.8737 17.104 28.1753 17.104C29.4768 17.104 30.809 17.6093 31.8196 18.6046C33.8256 20.6106 33.8256 23.8721 31.8196 25.8781V25.8781Z"
    fill="white" />
  <path
    d="M31.8198 25.8781L30.8092 26.8887L24.0105 33.6875C23.7502 33.9478 23.3214 33.9478 23.0611 33.6875L22.8008 33.4272C23.0611 33.6722 23.4745 33.6722 23.7348 33.4272L30.5336 26.6284L31.5442 25.6178C33.5042 23.6578 33.5502 20.4881 31.6667 18.4822C31.7127 18.5281 31.7586 18.5741 31.8045 18.62C33.8105 20.6259 33.8105 23.8875 31.8045 25.8934L31.8198 25.8781Z"
    fill="#E88500" />
</svg>