<svg width="41" height="41" fill="none" xmlns="http://www.w3.org/2000/svg">
  <path fill="#E5E5E5" d="M0 0h41v41H0z"/>
  <g clip-path="url(#a)">
    <rect x="-48" y="-527" width="1180" height="1719" rx="32" fill="#EBEEF0"/>
    <g clip-path="url(#b)" fill="#fff">
      <mask id="c">
        <path d="M-24-17h1132v1133a16 16 0 0 1-16 16H-8a16 16 0 0 1-16-16V-17Z"/>
      </mask>
      <path d="M-24-17h1132v1133a16 16 0 0 1-16 16H-8a16 16 0 0 1-16-16V-17Z"/>
    </g>
    <path d="M-24-17h1132H-24Zm1132 1133a17 17 0 0 1-17 17H-7a17 17 0 0 1-17-17c0 8.3 7.2 15 16 15h1100c8.8 0 16-6.7 16-15Zm-1132 16V-17v1149ZM1108-17v1149V-17Z" fill="#EBEEF0" mask="url(#c)"/>
    <path fill-rule="evenodd" clip-rule="evenodd" d="M30.8 1c6.7 0 10 5.6 10 12.5 0 7-6.6 14.9-9 17.2a280.6 280.6 0 0 1-11.3 9.4 280.7 280.7 0 0 1-11.2-9.4C6.8 28.4.1 20.4.1 13.5.1 6.6 3.5 1 10.2 1a12 12 0 0 1 8.9 3.4c.5.5.9.7 1.4.7h.2c.4 0 .8-.2 1.2-.7A12 12 0 0 1 31 1Z" fill="#0C58D0"/>
    <path d="M21.8 9.8V13h3.8v2.5h-8.4s-.3.2-.4.6v2.2c0 .3 0 .4.3.4h6.7a3 3 0 0 1 3 3.2V24c0 1.5-1 3-2.9 3.2h-2.1V30h-2.5v-2.8h-3.7v-2.5h8c.4 0 .7-.3.7-.6V22c0-.6 0-.8-.5-1h-6.6c-1.8 0-2.9-1.1-2.9-3v-1.9c0-1.7 1.3-3 2.7-3.2h2.3v-3h2.5Z" fill="#D2E1FA"/>
  </g>
  <defs>
    <clipPath id="a">
      <rect x="-48" y="-527" width="1180" height="1719" rx="32" fill="#fff"/>
    </clipPath>
    <clipPath id="b">
      <path d="M-24-17h1132v1133a16 16 0 0 1-16 16H-8a16 16 0 0 1-16-16V-17Z" fill="#fff"/>
    </clipPath>
  </defs>
</svg>
