<svg width="41" height="41" viewBox="0 0 41 41" fill="none" xmlns="http://www.w3.org/2000/svg">
  <path fill-rule="evenodd" clip-rule="evenodd"
    d="M30.8124 0.944458C37.4859 0.944458 40.8909 6.63489 40.8909 13.5414C40.8909 20.4479 34.2184 28.3741 31.723 30.7353C30.1255 32.2469 26.5875 35.2474 21.157 39.7481C21.0625 39.8264 20.731 40.0956 20.525 40.1196C20.5213 40.1211 20.5165 40.1209 20.5117 40.1206L20.4968 40.1213C20.2923 40.0958 19.9604 39.8265 19.8658 39.7481C14.4354 35.2474 10.8973 32.2469 9.29981 30.7353C6.80438 28.3741 0.131836 20.4479 0.131836 13.5414C0.131836 6.63489 3.53697 0.944458 10.2104 0.944458C13.8368 0.944458 16.7919 2.07082 19.0756 4.32356C19.5936 4.83453 19.9666 4.96801 20.526 4.96801L20.5102 4.9667L20.6769 4.96273C21.1409 4.93369 21.4868 4.77776 21.9472 4.32356C24.231 2.07082 27.186 0.944458 30.8124 0.944458Z"
    fill="#0C58D0" />
  <path
    d="M21.8076 9.82764L21.8062 12.938L25.5853 12.9381V15.4122H17.2459C17.1064 15.4122 16.8697 15.6381 16.8127 15.9518L16.8001 16.0912L16.7979 17.9167L16.7861 18.1925C16.7818 18.5378 16.8499 18.5926 17.1405 18.6002L23.7882 18.605C25.6371 18.7492 26.7251 19.9538 26.8162 21.8302L26.8224 22.0902V23.9546C26.8224 25.5175 25.7347 27.0589 23.9313 27.1846L23.692 27.1929L21.8062 27.1918L21.8076 29.9877H19.3335L19.3321 27.1918L15.5631 27.1929V24.7187H23.692C24.0365 24.7187 24.2871 24.4306 24.3385 24.086L24.3483 23.9546V22.0902C24.3483 21.3743 24.213 21.1538 23.809 21.0893L23.692 21.0754H17.2459C15.381 21.0754 14.3009 19.887 14.3176 18.0821L14.326 17.8432V16.0912C14.326 14.4326 15.5859 13.0621 17.0457 12.946L17.2459 12.9381L19.3321 12.938L19.3335 9.82764H21.8076Z"
    fill="#D2E1FA" />
</svg>