<svg viewBox="0 0 168 195" fill="none" xmlns="http://www.w3.org/2000/svg">
<path d="M84 140C114.928 140 140 114.928 140 84C140 53.0721 114.928 28 84 28C53.0721 28 28 53.0721 28 84C28 114.928 53.0721 140 84 140Z" fill="#FAD2CF"/>
<path d="M76.4457 72.968C76.4457 72.968 51.6433 155.59 68.9585 161.213L53.9561 170.346" stroke="#C5221F" stroke-width="5.1912" stroke-linejoin="round"/>
<path d="M76.4456 72.968C76.4456 72.968 71.736 88.648 67.8552 106.814" stroke="#B31412" stroke-width="5.1912" stroke-linejoin="round"/>
<path d="M89.0288 81.8943V181.871H105.56" stroke="#C5221F" stroke-width="5.1912" stroke-linejoin="round"/>
<path d="M89.0288 81.8943V108.494" stroke="#B31412" stroke-width="5.1912" stroke-linejoin="round"/>
<path d="M123.833 43.2487C127.058 50.8367 129.035 57.8871 134.87 62.2887C141.03 66.9367 148.036 65.9287 153.502 60.6087L153.367 60.7599C166.673 47.8407 157.192 20.0031 143.791 10.5447" stroke="#E94235" stroke-width="5.1912" stroke-linejoin="round"/>
<path d="M50.2319 60.8047C50.2319 60.8047 28.6159 75.0903 19.2191 83.4959" stroke="#EE675C" stroke-width="5.1912" stroke-linejoin="round"/>
<path d="M50.2321 60.8047C50.2321 60.8047 42.2129 66.1079 33.8185 72.1503" stroke="#E94235" stroke-width="5.1912" stroke-linejoin="round"/>
<path d="M83.9999 103.913C109.191 103.913 129.612 83.4923 129.612 58.3015C129.612 33.1106 109.191 12.6895 83.9999 12.6895C58.8091 12.6895 38.3879 33.1106 38.3879 58.3015C38.3879 83.4923 58.8091 103.913 83.9999 103.913Z" fill="#D93025"/>
<path d="M87.5615 54.8801C77.2967 60.7153 64.0415 58.2793 59.4215 43.9097" stroke="white" stroke-width="3.7072" stroke-miterlimit="10"/>
<path d="M62.5464 40.936C59.5224 42.224 58.1112 43.8032 56.3864 47.5776" stroke="white" stroke-width="3.7072" stroke-miterlimit="10"/>
<path d="M119.504 155.036L125.356 148.389L133.134 152.633L123.127 95.8774L109.497 98.2798L119.504 155.036Z" fill="#1967D2"/>
<path d="M109.497 98.2799L111.44 109.2C112.313 108.96 113.163 108.64 113.977 108.242C114.463 108 114.969 107.799 115.489 107.643C116.024 107.791 116.544 107.992 117.04 108.242C118.32 108.926 119.735 109.321 121.184 109.401C121.767 109.402 122.347 109.314 122.903 109.138C123.781 108.844 124.575 108.345 125.221 107.682L123.144 95.8831L109.497 98.2799Z" fill="#185ABC"/>
<path d="M110.505 155.036L104.653 148.389L96.8745 152.633L106.887 95.8774L120.512 98.2798L110.505 155.036Z" fill="#1A73E8"/>
<path d="M106.887 95.8774L104.966 106.741C105.728 107.852 106.825 108.69 108.097 109.133C108.653 109.308 109.233 109.397 109.816 109.396C111.265 109.316 112.68 108.92 113.96 108.237C114.446 107.994 114.952 107.794 115.472 107.637C116.007 107.786 116.527 107.986 117.023 108.237C117.527 108.466 118.07 108.707 118.636 108.909L120.512 98.2686L106.887 95.8774Z" fill="#1967D2"/>
<path d="M136.08 86.3801C136.08 88.4577 133.157 90.0481 132.546 91.9241C131.936 93.8001 133.325 96.8689 132.143 98.4873C130.962 100.106 127.663 99.7025 126.028 100.895C124.393 102.088 123.788 105.342 121.845 105.974C119.902 106.607 117.561 104.294 115.483 104.294C113.406 104.294 111.003 106.534 109.116 105.974C107.229 105.414 106.551 102.054 104.933 100.895C103.314 99.7361 100.005 100.122 98.8177 98.4873C97.6305 96.8521 99.0417 93.8673 98.4145 91.9241C97.7873 89.9809 94.8809 88.4577 94.8809 86.3801C94.8809 84.3025 97.8041 82.7065 98.4145 80.8305C99.0249 78.9545 97.6361 75.8857 98.8177 74.2673C99.9993 72.6489 103.298 73.0521 104.933 71.8593C106.568 70.6665 107.173 67.4129 109.116 66.7801C111.059 66.1473 113.4 68.4601 115.483 68.4601C117.566 68.4601 119.963 66.2201 121.845 66.7801C123.726 67.3401 124.41 70.7001 126.028 71.8593C127.646 73.0185 130.956 72.6321 132.143 74.2673C133.33 75.9025 131.919 78.8873 132.546 80.8305C133.174 82.7737 136.08 84.2969 136.08 86.3801Z" fill="#4285F4"/>
<path d="M115.494 99.3496C122.657 99.3496 128.464 93.5429 128.464 86.38C128.464 79.2171 122.657 73.4104 115.494 73.4104C108.332 73.4104 102.525 79.2171 102.525 86.38C102.525 93.5429 108.332 99.3496 115.494 99.3496Z" fill="#1A73E8"/>
<path d="M115.494 91.6383L110.27 94.3823C110.151 94.4443 110.017 94.472 109.883 94.4623C109.75 94.4526 109.621 94.406 109.513 94.3275C109.404 94.2491 109.319 94.1419 109.268 94.0181C109.217 93.8943 109.201 93.7586 109.222 93.6263L110.219 87.8079L105.997 83.6919C105.9 83.598 105.832 83.479 105.8 83.3484C105.767 83.2177 105.772 83.0806 105.813 82.9525C105.855 82.8244 105.931 82.7105 106.034 82.6234C106.136 82.5364 106.261 82.4797 106.394 82.4599L112.235 81.6143L114.845 76.3223C114.905 76.2019 114.997 76.1007 115.111 76.0299C115.225 75.9591 115.357 75.9216 115.492 75.9216C115.626 75.9216 115.758 75.9591 115.872 76.0299C115.986 76.1007 116.079 76.2019 116.138 76.3223L118.748 81.6143L124.589 82.4599C124.722 82.4797 124.847 82.5364 124.95 82.6234C125.052 82.7105 125.129 82.8244 125.17 82.9525C125.211 83.0806 125.216 83.2177 125.184 83.3484C125.151 83.479 125.083 83.598 124.986 83.6919L120.764 87.8079L121.761 93.6263C121.782 93.7586 121.766 93.8943 121.715 94.0181C121.664 94.1419 121.579 94.2491 121.471 94.3275C121.362 94.406 121.234 94.4526 121.1 94.4623C120.966 94.472 120.832 94.4443 120.714 94.3823L115.494 91.6383Z" fill="#8AB4F8"/>
<path d="M19.2191 83.4958C5.7063 95.5806 12.5383 115.097 31.8415 112.056C51.4415 108.993 82.4039 83.5854 82.4039 83.5854" stroke="#EE675C" stroke-width="5.1912" stroke-linejoin="round"/>
</svg>
