<svg width="570" height="336" viewBox="0 0 570 336" fill="none" xmlns="http://www.w3.org/2000/svg">
    <path d="M294.5,39.35H539.19a0,0,0,0,1,0,0V290.47a7.5,7.5,0,0,1-7.5,7.5H302a7.5,7.5,0,0,1-7.5-7.5V39.35A0,0,0,0,1,294.5,39.35Z" fill="#F1F3F4"/>
    <rect x="314.5" y="68.28" width="45.25" height="45.25" fill="#FFF" stroke="#DADCE0" stroke-miterlimit="10" stroke-width="1.5px"/>
    <rect x="314.5" y="146.04" width="45.25" height="45.25" fill="#FFF" stroke="#DADCE0" stroke-miterlimit="10" stroke-width="1.5px"/>
    <path d="M313.38,145.1c14.28,17.62,17.8,21.42,32.08,39" fill="none" stroke="#9AA0A6" stroke-linejoin="round" stroke-width="5px"/>
    <rect x="314.5" y="223.79" width="45.25" height="45.25" fill="#FFF" stroke="#DADCE0" stroke-miterlimit="10" stroke-width="1.5px"/>
    <ellipse cx="149.01" cy="322.24" rx="72.28" ry="7.51" fill="#F1F3F4"/>
    <path d="M302,10H531.69a7.5,7.5,0,0,1,7.5,7.5V39.35a0,0,0,0,1,0,0H294.5a0,0,0,0,1,0,0V17.5A7.5,7.5,0,0,1,302,10Z" fill="#80868B"/>
    <circle cx="314.91" cy="24.68" r="5.32" fill="#FFF"/>
    <circle cx="336.18" cy="24.68" r="5.32" fill="#FFF"/>
    <path d="M232.78,231.28c42.24.91,55.06-20.59,39.78-70.34" fill="none" stroke="#34A853" stroke-linejoin="round" stroke-width="8.03px"/>
    <path d="M158.93,241.76c-2.23,25.53-1.22,59.63,6.93,80.6H184" fill="none" stroke="#188038" stroke-linejoin="round" stroke-width="8.03px"/>
    <path d="M126.69,241.76c-2.29,25-.62,58.69,6.93,80.6H116.8" fill="none" stroke="#188038" stroke-linejoin="round" stroke-width="8.03px"/>
    <path d="M158.93,241.76a244.31,244.31,0,0,0-1,26.13" fill="none" stroke="#137333" stroke-linejoin="round" stroke-width="8.03px"/>
    <path d="M126.69,241.76c-.57,6.24-.9,17.52-1,23.59" fill="none" stroke="#137333" stroke-linejoin="round" stroke-width="8.03px"/>
    <path d="M36.83,277.33c-9.72-9.09-13.91-26.06-8.22-38.36,4.92-10.64,20.49-22.29,31.69-23.47" fill="none" stroke="#34A853" stroke-linejoin="round" stroke-width="8.03px"/>
    <polygon points="151.1 160.94 244.95 167.81 238.08 261.66 144.23 254.79 50.38 247.92 57.25 154.07 151.1 160.94" fill="#1E8E3E"/>
    <path d="M181.25,219.25c-18.11,15.64-48.49,18.13-68.47-5" fill="none" stroke="#FFF" stroke-miterlimit="10" stroke-width="5.74px"/>
    <line x1="380.07" y1="90.91" x2="519.19" y2="90.91" fill="none" stroke="#DADCE0" stroke-linejoin="round" stroke-width="20px"/>
    <line x1="380.07" y1="168.66" x2="519.19" y2="168.66" fill="none" stroke="#DADCE0" stroke-linejoin="round" stroke-width="20px"/>
    <line x1="380.07" y1="246.42" x2="519.19" y2="246.42" fill="none" stroke="#DADCE0" stroke-linejoin="round" stroke-width="20px"/>
    <rect x="161.27" y="128.62" width="170.37" height="21.84" transform="translate(413.72 368.08) rotate(-155.72)" fill="#FBBC04"/>
    <polygon points="328.59 164.62 353.76 187.56 319.61 184.53 328.59 164.62" fill="#DADCE0"/>
    <polygon points="344.35 186.72 353.76 187.56 346.84 181.27 344.35 186.72" fill="#5F6368"/>
    <path d="M164.22,114.43l.09,0h0L175,119.3l9-19.91L173.3,94.55h0l-.09,0a10.92,10.92,0,0,0-9,19.91Z" fill="#EE675C"/>
    <rect x="176.49" y="98.18" width="5" height="21.85" transform="translate(297.28 282.16) rotate(-155.72)" fill="#DADCE0"/>
    <line x1="318.21" y1="172.07" x2="188.06" y2="113.36" fill="none" stroke="#F29900" stroke-linecap="round" stroke-miterlimit="10" stroke-width="4px"/>
    <path d="M307.33,65.64a267,267,0,0,0,64.05,58" fill="none" stroke="#9AA0A6" stroke-linejoin="round" stroke-width="5px"/>
    <path d="M312.39,117.93l40.77-54.45" fill="none" stroke="#9AA0A6" stroke-linejoin="round" stroke-width="5px"/>
</svg>