<svg viewBox="0 0 398 280" fill="none" xmlns="http://www.w3.org/2000/svg"><path d="M357.758 250.137H101.493V60.904h260.113v185.384a3.849 3.849 0 0 1-3.848 3.849Z" fill="#F1F3F4"/><path d="M31.5 60.908h69.997v189.234H35.349a3.849 3.849 0 0 1-3.849-3.849V60.908Z" fill="#5F6368"/><path fill-rule="evenodd" clip-rule="evenodd" d="M119.339 7.235a12.14 12.14 0 0 1 1.813 6.392l-1.283-.001h1.283v.001c0 .285-.01.569-.029.852l-.96-.338-.427 1.21 1.267.196c.056-.354.095-.71.12-1.068l5.497 1.94a8.564 8.564 0 0 1 5.215 10.925l-1.21-.427-1.209-.428v.001a6 6 0 0 0-3.653-7.652l-7.459-2.632.164-1.053a9.884 9.884 0 0 0 .118-1.527v-.001a9.56 9.56 0 0 0-1.43-5.041l2.183-1.35Zm2.425 22.906-.427 1.21.428-1.21h-.001Zm0 0a6 6 0 0 0 7.652-3.651l1.209.427 1.21.429a8.567 8.567 0 0 1-10.925 5.215L91.611 22.184l.857-2.419 29.296 10.376Z" fill="#FBBC04"/><path fill-rule="evenodd" clip-rule="evenodd" d="M84.252 8.566a9.53 9.53 0 0 0-1.434 5.039v.003c0 .508.04 1.015.122 1.516l.173 1.059-7.464 2.636a5.995 5.995 0 0 0-3.656 7.668l-1.209.431 1.21-.428a5.999 5.999 0 0 0 7.652 3.652l29.296-10.376.857 2.419L80.5 32.562a8.565 8.565 0 0 1-10.924-5.214 8.56 8.56 0 0 1 5.221-10.949l5.485-1.937c-.02-.285-.03-.57-.03-.856v-.001l1.284.001-1.283.002v-.002a12.095 12.095 0 0 1 1.82-6.393l2.18 1.353Z" fill="#FBBC04"/><path d="M85.738 0v46.35a22.272 22.272 0 0 0 29.934 0V0H85.738Z" fill="#F9AB00"/><path fill-rule="evenodd" clip-rule="evenodd" d="M106.634 26.66c-4.462 2.815-8.852 2.28-11.968-.222l1.286-1.6c2.406 1.93 5.836 2.452 9.586.085l1.096 1.736Z" fill="#fff"/><path fill-rule="evenodd" clip-rule="evenodd" d="M84.43 12.376c.69.158 1.12.847.962 1.537l-4.3 18.717a1.319 1.319 0 0 0 1.284 1.615m2.053-21.87a1.283 1.283 0 0 0-1.538.964l1.538-.963Zm-1.538.964-4.3 18.714 4.3-18.714Zm-4.3 18.715v-.001Zm0 0a3.886 3.886 0 1 0 7.67.872V25.64a1.283 1.283 0 0 0-2.566 0v7.287a1.318 1.318 0 0 1-1.319 1.32" fill="#3C4043"/><path fill-rule="evenodd" clip-rule="evenodd" d="M116.979 12.376a1.283 1.283 0 0 1 1.539.961l4.321 18.716a3.881 3.881 0 0 1-3.785 4.758 3.883 3.883 0 0 1-3.885-3.885V25.64a1.283 1.283 0 1 1 2.566 0v7.287a1.32 1.32 0 0 0 1.319 1.32m0 0a1.321 1.321 0 0 0 1.285-1.616l-4.321-18.715c-.16-.69.271-1.38.961-1.54" fill="#202124"/><path d="M115.338 13.625c0-5.373-6.43-9.581-14.64-9.581-8.211 0-14.636 4.213-14.636 9.58h29.276Z" fill="#3C4043"/><path d="M92.425 21.905a8.282 8.282 0 0 0 8.282-8.283 8.282 8.282 0 1 0-16.565 0 8.283 8.283 0 0 0 8.283 8.283Z" fill="#8AB4F8"/><path fill-rule="evenodd" clip-rule="evenodd" d="M92.425 6.624a7 7 0 1 0 0 14 7 7 0 0 0 0-14Zm-9.566 7a9.566 9.566 0 0 1 9.566-9.566c5.283 0 9.566 4.283 9.566 9.566 0 5.282-4.283 9.565-9.566 9.565a9.566 9.566 0 0 1-9.566-9.566Z" fill="#202124"/><path d="M108.99 21.905a8.283 8.283 0 1 0 0-16.567 8.283 8.283 0 0 0 0 16.567Z" fill="#8AB4F8"/><path fill-rule="evenodd" clip-rule="evenodd" d="M108.991 6.624a7 7 0 1 0 0 14 7 7 0 0 0 0-14Zm-9.566 7c0-5.283 4.283-9.566 9.566-9.566s9.565 4.283 9.565 9.566c0 5.282-4.282 9.565-9.565 9.565-5.283 0-9.566-4.283-9.566-9.566Z" fill="#202124"/><path fill-rule="evenodd" clip-rule="evenodd" d="M92.445 9.236a4.392 4.392 0 0 0-4.393 4.388h-1.026a5.42 5.42 0 0 1 5.419-5.414v1.026ZM108.99 9.236a4.395 4.395 0 0 0-4.393 4.388h-1.026a5.417 5.417 0 0 1 5.419-5.414v1.026Z" fill="#D0E2FC"/><path fill-rule="evenodd" clip-rule="evenodd" d="M93.066 77.73H39.988V72.6h53.078v5.131Z" fill="#639AF8"/><path fill-rule="evenodd" clip-rule="evenodd" d="M93.066 95.556H39.988v-5.132h53.078v5.132ZM93.066 113.386H39.988v-5.131h53.078v5.131ZM93.066 131.214H39.988v-5.132h53.078v5.132Z" fill="#80858A"/><path d="M35.35 44.416h322.412a3.85 3.85 0 0 1 3.849 3.848V60.91H31.501V48.285a3.847 3.847 0 0 1 3.848-3.87Z" fill="#3C4043"/><path d="M114.61 74.35c0-.324-.029-.647-.088-.965h-4.315v1.77h2.478a2.132 2.132 0 0 1-.924 1.427v1.15h1.478a4.483 4.483 0 0 0 1.371-3.382Z" fill="#3E81F6"/><path d="M111.772 76.58a2.784 2.784 0 0 1-3.488-.385 2.79 2.79 0 0 1-.659-1.067h-1.539v1.18a4.585 4.585 0 0 0 4.105 2.535 4.38 4.38 0 0 0 3.043-1.113l-1.462-1.15Z" fill="#2DA84F"/><path d="M107.482 74.246c0-.299.049-.595.143-.878v-1.185h-1.539a4.612 4.612 0 0 0 0 4.105l1.539-1.18a2.837 2.837 0 0 1-.143-.862Z" fill="#FCBC00"/><path d="M110.206 71.469a2.525 2.525 0 0 1 1.766.688l1.308-1.314a4.397 4.397 0 0 0-3.079-1.196 4.587 4.587 0 0 0-4.105 2.53l1.539 1.186a2.749 2.749 0 0 1 2.571-1.894Z" fill="#EB402D"/><path d="M42.975 55.648a2.987 2.987 0 1 0 0-5.974 2.987 2.987 0 0 0 0 5.974ZM54.922 55.648a2.987 2.987 0 1 0 0-5.974 2.987 2.987 0 0 0 0 5.974ZM66.87 55.648a2.987 2.987 0 1 0 0-5.974 2.987 2.987 0 0 0 0 5.974Z" fill="#fff"/><path d="m105.991 75.162-4.492-4.492-4.493 4.492 4.493 4.493 4.492-4.493Z" fill="#F1F3F4"/><path d="M225.394 87.245h-107.11v67.226h107.11V87.245Z" fill="#fff"/><path fill-rule="evenodd" clip-rule="evenodd" d="M213.036 107.626h-79.891V97.362h79.891v10.264ZM202.275 126.728h-69.13v-10.264h69.13v10.264ZM186.346 146.543h-53.201v-10.264h53.201v10.264Z" fill="#E7E9EC"/><path d="M344.826 87.245H237.715v67.226h107.111V87.245Z" fill="#fff"/><path d="M74.187 280c20.486 0 37.092-1.725 37.092-3.854 0-2.128-16.606-3.854-37.092-3.854-20.485 0-37.092 1.726-37.092 3.854 0 2.129 16.607 3.854 37.092 3.854Z" fill="#F1F3F4"/><path fill-rule="evenodd" clip-rule="evenodd" d="M312.629 54.763c2.286.74 4.947.381 7.318-.968l1.015 1.785c-2.791 1.587-6.047 2.081-8.966 1.136-2.95-.956-5.42-3.34-6.667-7.232l1.955-.626c1.068 3.334 3.091 5.175 5.345 5.905Z" fill="#fff"/><path fill-rule="evenodd" clip-rule="evenodd" d="M306.584 47.852c.884.047 1.659.3 2.485.725l-.938 1.826c-.642-.33-1.134-.474-1.655-.501-.544-.03-1.194.064-2.163.323l-.53-1.983c1.048-.28 1.94-.436 2.801-.39Z" fill="#fff"/><path fill-rule="evenodd" clip-rule="evenodd" d="m281.545 27.907.243 1.023c.7 2.945 1.41 5.798 2.586 8.418 1.164 2.595 2.874 4.915 5.156 6.346 2.284 1.432 5.162 1.851 7.463.85l1.024 2.352c-3.24 1.41-7.013.752-9.851-1.028-2.84-1.782-4.834-4.573-6.133-7.47-1.139-2.538-1.863-5.238-2.496-7.852l-7.573.27-.091-2.564 9.672-.345ZM294.678 23.44l.243 1.023c.699 2.949 1.41 5.793 2.586 8.42 1.164 2.599 2.874 4.918 5.155 6.349 2.283 1.432 5.162 1.847 7.466.849l1.02 2.354c-3.238 1.403-7.01.752-9.849-1.03-2.84-1.78-4.835-4.573-6.134-7.474-1.139-2.543-1.863-5.235-2.496-7.852l-7.572.27-.092-2.564 9.673-.345Z" fill="#C5221F"/><path fill-rule="evenodd" clip-rule="evenodd" d="M248.148 97.601h4.105v44.082h83.002v4.105h-87.107V97.601Z" fill="#E7E9EC"/><path d="M317.853 64.668c12.666 0 22.933-10.267 22.933-22.933S330.519 18.8 317.853 18.8s-22.934 10.268-22.934 22.934 10.268 22.933 22.934 22.933Z" fill="#D93025"/><path fill-rule="evenodd" clip-rule="evenodd" d="M311.83 51.34c2.281.74 4.934.38 7.307-.97l1.014 1.785c-2.789 1.586-6.038 2.083-8.954 1.139-2.947-.955-5.415-3.337-6.677-7.226l1.952-.634c1.083 3.337 3.107 5.178 5.358 5.907Z" fill="#fff"/><path fill-rule="evenodd" clip-rule="evenodd" d="M305.773 44.424c.884.047 1.661.302 2.488.73l-.944 1.823c-.64-.332-1.131-.475-1.652-.503-.544-.029-1.194.065-2.165.322l-.525-1.985c1.046-.277 1.938-.432 2.798-.387Z" fill="#fff"/><path fill-rule="evenodd" clip-rule="evenodd" d="M319.709 102.472c7.531-11.92 10.7-28.343 8.132-42.188l2.522-.468c2.687 14.483-.61 31.56-8.485 44.026l-2.169-1.37Z" fill="#D93025"/><path fill-rule="evenodd" clip-rule="evenodd" d="M297.648 117.474c3.936-7.731 9.27-16.845 20.308-16.845 6.889 0 11.512 4.768 14.266 8.997 1.403 2.154 2.408 4.293 3.061 5.885.327.8.57 1.469.732 1.944a24.745 24.745 0 0 1 .232.717l.014.045.004.014.002.007c0 .001 0 .002-1.972.572l-1.971.572-.001-.002-.007-.024-.015-.049-.02-.063c-.032-.103-.082-.26-.152-.464a30.225 30.225 0 0 0-.645-1.711c-.587-1.432-1.479-3.325-2.702-5.203-2.499-3.836-6.046-7.132-10.826-7.132-8.263 0-12.579 6.609-16.65 14.603-.392.769-.782 1.553-1.174 2.34-1.544 3.099-3.111 6.246-4.87 8.726-2.23 3.144-5.152 5.778-9.333 5.778-3.211 0-5.678-.646-7.723-1.676-2.012-1.012-3.517-2.351-4.798-3.525l-.266-.244c-1.205-1.106-2.188-2.008-3.384-2.694-1.212-.695-2.689-1.185-4.823-1.185-1.27 0-2.659.682-4.147 2.127-1.472 1.429-2.829 3.405-3.998 5.488-1.16 2.066-2.086 4.148-2.724 5.721a52.117 52.117 0 0 0-.908 2.407l-.044.131-.011.031-.002.006-1.95-.639-1.951-.639.002-.006.004-.012.015-.044.054-.159c.046-.137.115-.333.204-.581a58.52 58.52 0 0 1 .782-2.037c.679-1.675 1.678-3.924 2.949-6.189 1.262-2.248 2.845-4.604 4.718-6.423 1.857-1.803 4.219-3.287 7.007-3.287 2.848 0 5.029.675 6.865 1.729 1.614.925 2.924 2.131 4.066 3.182l.315.29c1.264 1.157 2.409 2.15 3.871 2.885 1.427.719 3.255 1.238 5.877 1.238 2.182 0 4.032-1.296 5.985-4.048 1.556-2.194 2.933-4.957 4.459-8.016.412-.826.835-1.674 1.275-2.538Z" fill="#E7E9EC"/><path fill-rule="evenodd" clip-rule="evenodd" d="M302.748 110.621c-9.086-16.362-9.222-37.328-.347-53.806l2.259 1.217c-8.46 15.708-8.33 35.746.331 51.344l-2.243 1.245Z" fill="#D93025"/><path fill-rule="evenodd" clip-rule="evenodd" d="M49.792 239.931c-2.575-.265-4.53-1.209-6.084-2.629l6.084 2.629Zm-6.084-2.629c-1.575-1.439-2.794-3.417-3.786-5.821l3.786 5.821Zm-3.786-5.821-2.372.978 2.372-.978Zm-2.372.978c1.077 2.61 2.478 4.957 4.427 6.737l-4.427-6.737Zm4.427 6.737c1.97 1.799 4.443 2.967 7.554 3.287l-7.554-3.287Zm7.816.735c3.095.316 6.85-.569 8.764-2.743l1.926 1.695c-2.674 3.04-7.417 3.961-10.952 3.6" fill="#4285F4"/><path fill-rule="evenodd" clip-rule="evenodd" d="m70.674 235.279 2.405.894-5.085 13.671a21.812 21.812 0 0 0 .017 15.251l5.21 10.017h-7.59v-2.566h3.363l-3.33-6.403-.026-.071a24.374 24.374 0 0 1-.049-17.122l5.085-13.671Z" fill="#1967D2"/><path fill-rule="evenodd" clip-rule="evenodd" d="m66.749 245.824 3.926-10.545 2.404.895-3.925 10.545-2.405-.895Z" fill="#185ABC"/><path fill-rule="evenodd" clip-rule="evenodd" d="M78.682 239.576h2.566v32.971h3.807v2.566h-6.373v-35.537Z" fill="#1967D2"/><path fill-rule="evenodd" clip-rule="evenodd" d="M78.682 243.671v-4.095h2.566v4.095h-2.566Z" fill="#185ABC"/><path fill-rule="evenodd" clip-rule="evenodd" d="M123.654 199.8a44.213 44.213 0 0 1-31.383 23.942l-.482-2.521a41.642 41.642 0 0 0 29.562-22.552l2.303 1.131Z" fill="#4285F4"/><path fill-rule="evenodd" clip-rule="evenodd" d="M128.988 149.77V92.992h4.106v56.778h-4.106Z" fill="#E7E9EC"/><path d="M27.012 229.683c-3.233 2.643-6.31 5.096-9.265 7.221-1.544 1.129-4.354-.4-4.683-2.494-.566-3.926-.921-7.995-1.112-12.162a365.303 365.303 0 0 0-10.86-6.826c-1.821-1.134-1.265-3.818.927-4.726 4.076-1.601 8.168-3.192 12.255-4.701 1.296-4.223 2.573-8.488 3.71-12.65.608-2.257 3.191-2.73 4.56-.831 2.527 3.495 5.255 7.026 7.967 10.515 4.36-.031 8.75 0 13.13.067 2.367.056 3.87 2.376 2.51 4.074a373.058 373.058 0 0 0-7.72 10.223c1.303 3.967 2.415 7.893 3.28 11.767.437 2.053-1.637 4.495-3.49 3.987-3.5-.928-7.247-2.14-11.21-3.464Z" fill="#F9AB00"/><path d="M344.825 165.928H118.284v66.738h226.541v-66.738Z" fill="#fff"/><path fill-rule="evenodd" clip-rule="evenodd" d="M147.858 182.147c-6.991 0-12.66 5.668-12.66 12.66s5.669 12.66 12.66 12.66c6.992 0 12.66-5.668 12.66-12.66s-5.668-12.66-12.66-12.66Zm-16.765 12.66c0-9.259 7.506-16.765 16.765-16.765 9.26 0 16.766 7.506 16.766 16.765 0 9.26-7.506 16.766-16.766 16.766-9.259 0-16.765-7.506-16.765-16.766ZM162.761 220.552h-29.805v-4.105h29.805v4.105ZM218.522 220.552h-29.805v-4.105h29.805v4.105ZM203.62 182.147c-6.992 0-12.66 5.668-12.66 12.66s5.668 12.66 12.66 12.66 12.66-5.668 12.66-12.66-5.668-12.66-12.66-12.66Zm-16.766 12.66c0-9.259 7.507-16.765 16.766-16.765 9.259 0 16.765 7.506 16.765 16.765 0 9.26-7.506 16.766-16.765 16.766s-16.766-7.506-16.766-16.766ZM274.284 220.552h-29.805v-4.105h29.805v4.105ZM259.382 182.147c-6.992 0-12.66 5.668-12.66 12.66s5.668 12.66 12.66 12.66 12.66-5.668 12.66-12.66-5.668-12.66-12.66-12.66Zm-16.766 12.66c0-9.259 7.506-16.765 16.766-16.765 9.259 0 16.765 7.506 16.765 16.765 0 9.26-7.506 16.766-16.765 16.766-9.26 0-16.766-7.506-16.766-16.766Z" fill="#F0F2F3"/><path fill-rule="evenodd" clip-rule="evenodd" d="M147.867 182.147a12.658 12.658 0 0 0-12.527 10.776 12.656 12.656 0 1 0 24.725-1.448 12.656 12.656 0 0 0-5.134-7.164l2.296-3.404a16.76 16.76 0 1 1-9.357-2.865l-.003 4.105ZM203.619 182.147a12.654 12.654 0 1 0 8.39 3.184l2.722-3.073a16.757 16.757 0 0 1 3.226 21.217 16.764 16.764 0 0 1-8.877 7.172 16.765 16.765 0 0 1-20.064-7.614 16.758 16.758 0 0 1 3.873-21.109 16.763 16.763 0 0 1 10.731-3.882l-.001 4.105ZM259.385 182.147a12.681 12.681 0 1 0 2.049.164l.657-4.053a16.783 16.783 0 0 1 13.979 18.582 16.786 16.786 0 1 1-16.692-18.798l.007 4.105Z" fill="#D9DBDF"/><path d="M360.265 277.44c20.619 0 37.333-1.726 37.333-3.854 0-2.129-16.714-3.854-37.333-3.854s-37.333 1.725-37.333 3.854c0 2.128 16.714 3.854 37.333 3.854Z" fill="#F1F3F4"/><path fill-rule="evenodd" clip-rule="evenodd" d="M368.44 274.877c-3.725-9.645-4.194-20.648-3.16-32.153l2.556.23c-.988 10.992-.552 21.25 2.69 30.178h7.199v2.565h-8.088c-.53 0-1.006-.326-1.197-.82ZM353.45 273.133c-2.955-9.536-3.569-19.756-2.589-30.41l2.555.235c-1.015 11.035-.267 21.456 3.015 31.043a1.282 1.282 0 0 1-1.214 1.698h-7.497v-2.566h5.73Z" fill="#148E3A"/><path fill-rule="evenodd" clip-rule="evenodd" d="M364.824 251.252c.042-2.823.203-5.646.457-8.525l2.556.225c-.25 2.828-.407 5.588-.447 8.338l-2.566-.038ZM350.45 253.719a97.088 97.088 0 0 1 .411-10.999l2.555.241a94.514 94.514 0 0 0-.4 10.708l-2.566.05Z" fill="#0D8034"/><path d="m355.371 215.214-34.619 3.285 3.285 34.618 34.618-3.284 34.619-3.284-3.284-34.619-34.619 3.284Z" fill="#1E8E3E"/><path fill-rule="evenodd" clip-rule="evenodd" d="M369.015 230.76c-4.262 5.173-10.96 4.737-14.975 1.418l1.226-1.483c3.334 2.756 8.788 3.06 12.264-1.159l1.485 1.224Z" fill="#fff"/><path fill-rule="evenodd" clip-rule="evenodd" d="M328.231 204.378c5.679 8.162 23.612 20.419 62.34 16.852l.235 2.555c-39.275 3.618-58.291-8.758-64.681-17.941l2.106-1.466ZM309.013 218.496a19.03 19.03 0 0 0 15.577 13.611l-.367 2.539a21.592 21.592 0 0 1-17.677-15.446l2.467-.704Z" fill="#34A853"/><path fill-rule="evenodd" clip-rule="evenodd" d="M317.868 229.814a17.951 17.951 0 0 0 6.705 2.29l-.334 2.544a20.518 20.518 0 0 1-7.663-2.617l1.292-2.217Z" fill="#1E8E3E"/><path fill-rule="evenodd" clip-rule="evenodd" d="M312.465 192.451c-6.992 0-12.66 5.668-12.66 12.66s5.668 12.66 12.66 12.66c6.991 0 12.66-5.668 12.66-12.66s-5.669-12.66-12.66-12.66Zm-16.766 12.66c0-9.26 7.506-16.766 16.766-16.766 9.259 0 16.765 7.506 16.765 16.766 0 9.259-7.506 16.765-16.765 16.765-9.26 0-16.766-7.506-16.766-16.765Z" fill="#F0F2F3"/><path fill-rule="evenodd" clip-rule="evenodd" d="M312.464 192.454a12.66 12.66 0 0 0-8.079 2.916 12.66 12.66 0 0 0-2.983 15.881 12.651 12.651 0 0 0 15.056 5.867 12.655 12.655 0 0 0 4.572-21.326l2.779-3.022a16.758 16.758 0 0 1 2.88 21.206 16.755 16.755 0 0 1-8.937 7.038 16.754 16.754 0 0 1-11.371-.288 16.763 16.763 0 0 1-4.617-28.515 16.758 16.758 0 0 1 10.7-3.862v4.105Z" fill="#D9DBDF"/><path d="M78.538 240.807a23.669 23.669 0 0 1-30.98-12.691l43.67-18.289a23.665 23.665 0 0 1-12.69 30.98Z" fill="#1A73E8"/><path fill-rule="evenodd" clip-rule="evenodd" d="m86.154 223.843-.068 1.599c-.166 3.926-2.048 7.594-5.4 9.468l-1.001-1.791c2.174-1.216 3.644-3.458 4.158-6.114l-15.149 6.194-.777-1.9 18.237-7.456Z" fill="#fff"/></svg>