<svg fill="none" xmlns="http://www.w3.org/2000/svg" viewBox="0 0 174 167"><path d="M158.121 0H0v87.697h158.121V0Z" fill="#F1F3F4"/><path d="M40.314 67.99c13.594 0 24.614-11.007 24.614-24.586 0-13.58-11.02-24.587-24.614-24.587-13.593 0-24.613 11.008-24.613 24.587S26.72 67.99 40.314 67.99Z" stroke="#fff" stroke-width="8" stroke-miterlimit="10"/><path d="M54.075 23.024c6.546 4.417 10.853 11.903 10.853 20.386 0 13.58-11.019 24.588-24.614 24.588S15.701 56.984 15.701 43.404c0-13.58 11.018-24.58 24.613-24.58" stroke="#D9DBDF" stroke-width="8" stroke-miterlimit="10"/><path d="M115.103 68.029c13.594 0 24.613-11.008 24.613-24.587 0-13.58-11.019-24.587-24.613-24.587S90.489 29.863 90.489 43.442s11.02 24.587 24.614 24.587Z" stroke="#fff" stroke-width="8" stroke-miterlimit="10"/><path d="M119.085 19.179c11.7 1.9 20.631 12.043 20.631 24.263 0 13.58-11.018 24.587-24.613 24.587-13.595 0-24.614-11.007-24.614-24.587s11.019-24.587 24.614-24.587" stroke="#D9DBDF" stroke-width="8" stroke-miterlimit="10"/><path d="M115.332 167c32.405 0 58.674-2.726 58.674-6.088s-26.269-6.088-58.674-6.088-58.674 2.726-58.674 6.088S82.928 167 115.332 167Z" fill="#F1F3F4"/><path d="M125.237 111.026c-1.584 18.042-.865 35.066 4.899 49.886h12.787M102.424 111.026c-1.622 17.635-.439 34.406 4.898 49.886H95.426" stroke="#148E3A" stroke-width="6" stroke-miterlimit="10" stroke-linejoin="round"/><path d="M125.237 111.026c-.394 4.512-.649 8.954-.712 13.32M102.424 111.026c-.534 5.815-.763 11.534-.642 17.146" stroke="#0D8034" stroke-width="6" stroke-miterlimit="10" stroke-linejoin="round"/><path d="m107.539 67.374-54.756 5.192 5.191 54.697 54.762-5.186 54.756-5.192-5.198-54.696-54.755 5.185Z" fill="#1E8E3E"/><path d="M106.406 93.01c5.815 4.798 15.402 5.376 21.541-2.04" stroke="#fff" stroke-width="5" stroke-miterlimit="10"/><path d="M163.427 77.631c-65.246 6.006-90.973-8.801-101.07-23.297M58.903 95.787c-12.959-1.652-26.248-17.412-29.626-30.014" stroke="#34A853" stroke-width="6" stroke-miterlimit="10"/><path d="M58.903 95.787c-3.88-.496-7.793-2.256-11.457-4.817" stroke="#148E3A" stroke-width="6" stroke-miterlimit="10" stroke-linejoin="round"/></svg>