<svg width="491" height="200" viewBox="0 0 491 200" fill="none" xmlns="http://www.w3.org/2000/svg">
<path d="M0 16C0 7.16344 7.16344 0 16 0H475C483.837 0 491 7.16344 491 16V200H0V16Z" fill="url(#paint0_linear_1578_41791)"/>
<g clip-path="url(#clip0_1578_41791)">
<path opacity="0.15" d="M374.585 60.5326C374.585 85.052 372.497 103.964 360.873 123.63C350.078 141.891 330.429 140.738 312.475 151.942C292.34 164.509 269.725 189.153 243.106 192.389C230.515 192.389 218.337 190.614 206.808 187.3C174.235 177.937 151.126 156.288 134.212 127.674C122.588 108.008 117.273 72.918 117.273 48.3985C117.273 10.6648 127.432 -11.2328 152.765 -35.2678C185.608 -66.4288 204.281 -59.1897 243.106 -59.1897C268.568 -59.1897 292.34 -66.0938 312.475 -53.5275C349.764 -30.2565 374.585 13.2453 374.585 60.5326Z" fill="#93C9A8"/>
<path opacity="0.15" d="M298.136 -66.5565C320.451 -56.3952 332.619 -34.8841 345.686 -16.1242C357.819 1.29565 351.217 28.0922 353.953 49.1222C357.021 72.7081 367.437 94.2218 359.319 119.858C354.086 131.35 347.41 141.729 339.602 150.878C317.543 176.728 289.951 165.267 256.88 168.846C234.15 171.306 213.197 200.395 162.233 182.598C111.269 164.801 107.227 97.6591 126.641 57.2119C146.055 16.7647 110.461 -1.84096 142.819 -49.5686C175.177 -97.2963 255.1 -86.1532 298.136 -66.5565Z" fill="#93C9A8"/>
<path opacity="0.15" d="M344.669 163.217C324.29 181.317 307.025 193.538 282.073 198.365C258.903 202.848 245.315 185.619 222.71 178.925C197.358 171.417 160.131 170.759 137.735 150.96C128.414 140.464 108.009 134.29 96.3366 106.219C84.6646 78.1482 116.017 -5.84777 77.3118 -56.5646C85.0514 -80.7722 143.878 -42.1246 164.258 -60.2252C195.621 -88.0808 221.342 -95.7782 260.074 -92.4048C310.29 -88.0313 318.096 -67.123 346.84 -34.7596C365.691 -13.5356 402.12 10.015 406.583 36.0761C416.592 94.5289 383.973 128.308 344.669 163.217Z" fill="#93C9A8"/>
<g filter="url(#filter0_d_1578_41791)">
<rect x="78" y="48.8701" width="335" height="124.074" rx="7.03717" fill="white"/>
</g>
<g clip-path="url(#clip1_1578_41791)">
<path d="M95.0605 101.603H279.621" stroke="#EBEEF0" stroke-width="1.55093" stroke-linecap="round"/>
<path d="M95.0605 117.845H279.621" stroke="#EBEEF0" stroke-width="1.55093" stroke-linecap="round"/>
<path d="M95.0605 134.088H279.621" stroke="#EBEEF0" stroke-width="1.55093" stroke-linecap="round"/>
<path d="M95.0605 150.331H279.621" stroke="#EBEEF0" stroke-width="1.55093" stroke-linecap="round"/>
<path d="M86.5293 133.397C96.3845 132.398 102.687 125.115 114.446 124.091C126.067 123.079 127.629 149.294 155.158 140.764C182.687 132.234 182.687 110.908 208.665 112.847C234.643 114.786 241.515 100.947 254.364 100.112C267.212 99.2765 277.868 113.475 284.272 114.01" stroke="#93C9A8" stroke-width="6.2037" stroke-linecap="round" stroke-linejoin="round"/>
</g>
<path d="M313.742 65.9307L326.15 65.9307" stroke="#CBD0D3" stroke-width="6.2037" stroke-linecap="round"/>
<path d="M99.7129 79.1143L117.549 79.1143" stroke="#CBD0D3" stroke-width="10.8565" stroke-linecap="round"/>
<path d="M98.1621 65.9307L106.692 65.9307" stroke="#EBEEF0" stroke-width="6.2037" stroke-linecap="round"/>
<path d="M337.004 65.9307L349.411 65.9307" stroke="#EBEEF0" stroke-width="6.2037" stroke-linecap="round"/>
<path d="M360.27 65.9307L372.677 65.9307" stroke="#EBEEF0" stroke-width="6.2037" stroke-linecap="round"/>
<path d="M342.82 96.1748C346.231 96.1748 349.609 96.8467 352.761 98.1523C355.913 99.4578 358.777 101.371 361.189 103.784C363.601 106.196 365.515 109.06 366.82 112.211C368.126 115.363 368.798 118.741 368.798 122.153C368.798 125.564 368.126 128.942 366.82 132.094C365.515 135.246 363.601 138.11 361.189 140.522C358.777 142.934 355.913 144.848 352.761 146.153C349.609 147.459 346.231 148.131 342.82 148.131C339.408 148.131 336.03 147.459 332.878 146.153C329.727 144.848 326.863 142.934 324.451 140.522C322.038 138.11 320.125 135.246 318.819 132.094C317.514 128.942 316.842 125.564 316.842 122.153C316.842 118.741 317.514 115.363 318.819 112.211C320.125 109.06 322.038 106.196 324.451 103.784C326.863 101.371 329.727 99.4578 332.878 98.1523C336.03 96.8467 339.408 96.1748 342.82 96.1748L342.82 96.1748Z" stroke="#3C7251" stroke-width="20.162"/>
<path d="M342.82 96.1748C349.505 96.1748 355.932 98.7519 360.766 103.37C365.599 107.988 368.466 114.292 368.771 120.97C369.075 127.648 366.794 134.186 362.4 139.225C358.007 144.264 351.841 147.415 345.183 148.023C338.526 148.631 331.891 146.65 326.657 142.49C321.423 138.331 317.995 132.315 317.084 125.692C316.173 119.069 317.851 112.35 321.767 106.933C325.684 101.515 331.538 97.8162 338.112 96.6049" stroke="#77AD8C" stroke-width="20.162"/>
<path d="M342.82 96.1748C348.278 96.1748 353.597 97.894 358.023 101.088C362.449 104.283 365.756 108.79 367.475 113.97C369.195 119.15 369.239 124.741 367.601 129.947C365.963 135.154 362.727 139.712 358.352 142.976C353.977 146.239 348.685 148.042 343.228 148.128C337.77 148.213 332.425 146.578 327.949 143.454C323.474 140.329 320.096 135.874 318.296 130.722C316.495 125.569 316.364 119.98 317.919 114.749" stroke="#B8E6CA" stroke-width="20.162"/>
<circle cx="461" cy="30" r="18" fill="#93C9A8"/>
<path d="M456 25L466 35" stroke="white" stroke-width="1.5"/>
<path d="M466 25L456 35" stroke="white" stroke-width="1.5"/>
</g>
<defs>
<filter id="filter0_d_1578_41791" x="67.7641" y="41.1932" width="355.472" height="144.546" filterUnits="userSpaceOnUse" color-interpolation-filters="sRGB">
<feFlood flood-opacity="0" result="BackgroundImageFix"/>
<feColorMatrix in="SourceAlpha" type="matrix" values="0 0 0 0 0 0 0 0 0 0 0 0 0 0 0 0 0 0 127 0" result="hardAlpha"/>
<feOffset dy="2.55897"/>
<feGaussianBlur stdDeviation="5.11795"/>
<feComposite in2="hardAlpha" operator="out"/>
<feColorMatrix type="matrix" values="0 0 0 0 0 0 0 0 0 0 0 0 0 0 0 0 0 0 0.15 0"/>
<feBlend mode="normal" in2="BackgroundImageFix" result="effect1_dropShadow_1578_41791"/>
<feBlend mode="normal" in="SourceGraphic" in2="effect1_dropShadow_1578_41791" result="shape"/>
</filter>
<linearGradient id="paint0_linear_1578_41791" x1="245.5" y1="0" x2="245.5" y2="200" gradientUnits="userSpaceOnUse">
<stop stop-color="#D0FBE1"/>
<stop offset="1" stop-color="white"/>
</linearGradient>
<clipPath id="clip0_1578_41791">
<rect width="491" height="200" fill="white"/>
</clipPath>
<clipPath id="clip1_1578_41791">
<rect width="182.234" height="68.2407" fill="white" transform="translate(95.0605 92.2969)"/>
</clipPath>
</defs>
</svg>
