<svg width="109" height="46" viewBox="0 0 109 46" fill="none" xmlns="http://www.w3.org/2000/svg">
<path fill-rule="evenodd" clip-rule="evenodd" d="M45.7176 8.47168C43.1777 8.47168 41.5238 9.29861 40.0472 12.0747L33.3136 24.7741V13.4923C33.3136 10.1255 31.7188 8.47168 28.7654 8.47168C25.8121 8.47168 24.5717 9.47581 23.095 12.311L16.7159 24.7741V13.6105C16.7159 10.0074 15.2392 8.47168 11.6361 8.47168H4.31186C1.53573 8.47168 0 9.77115 0 12.1338C0 14.4965 1.47667 15.9141 4.19373 15.9141H7.20613V30.1491C7.20613 34.1657 9.92319 36.5283 13.8216 36.5283C17.72 36.5283 19.492 34.9926 21.4412 31.3895L25.694 23.4155V30.1491C25.694 34.1066 28.2929 36.5283 32.2504 36.5283C36.2078 36.5283 37.6845 35.1698 39.929 31.3895L49.7341 14.8509C51.8605 11.2478 50.3838 8.47168 45.6585 8.47168C45.6585 8.47168 45.6585 8.47168 45.7176 8.47168Z" fill="#873EFF"/>
<path fill-rule="evenodd" clip-rule="evenodd" d="M64.1472 8.47168C56.1141 8.47168 50.0303 14.4374 50.0303 22.5295C50.0303 30.6217 56.1732 36.5283 64.1472 36.5283C72.1212 36.5283 78.2051 30.5626 78.2641 22.5295C78.2641 14.4374 72.1212 8.47168 64.1472 8.47168ZM64.1472 27.9046C61.1348 27.9046 59.0675 25.6601 59.0675 22.5295C59.0675 19.399 61.1348 17.0954 64.1472 17.0954C67.1596 17.0954 69.2269 19.399 69.2269 22.5295C69.2269 25.6601 67.2187 27.9046 64.1472 27.9046Z" fill="#873EFF"/>
<path fill-rule="evenodd" clip-rule="evenodd" d="M94.3288 8.47168C86.3548 8.47168 80.2119 14.4374 80.2119 22.5295C80.2119 30.6217 86.3548 36.5283 94.3288 36.5283C102.303 36.5283 108.446 30.5626 108.446 22.5295C108.446 14.4965 102.303 8.47168 94.3288 8.47168ZM94.3288 27.9046C91.2574 27.9046 89.3082 25.6601 89.3082 22.5295C89.3082 19.399 91.3164 17.0954 94.3288 17.0954C97.3412 17.0954 99.4086 19.399 99.4086 22.5295C99.4086 25.6601 97.4003 27.9046 94.3288 27.9046Z" fill="#873EFF"/>
</svg>
