<svg width="400" height="400" viewBox="0 0 400 400" fill="none" xmlns="http://www.w3.org/2000/svg">
    <line x1="196.35" y1="200.32" x2="23.37" y2="236.49" fill="none" stroke="#34A853" stroke-miterlimit="10" stroke-width="9.27px"/>
    <line x1="376.63" y1="162.63" x2="196.35" y2="200.32" fill="none" stroke="#34A853" stroke-miterlimit="10" stroke-width="9.27px"/>
    <ellipse cx="219.02" cy="381.74" rx="152.56" ry="8.26" fill="#F1F3F4"/>
    <line x1="200" y1="10" x2="200" y2="41.42" fill="none" stroke="#E8EAED" stroke-linecap="round" stroke-miterlimit="10" stroke-width="6px"/>
    <line x1="105" y1="35.46" x2="120.71" y2="62.66" fill="none" stroke="#E8EAED" stroke-linecap="round" stroke-miterlimit="10" stroke-width="6px"/>
    <line x1="35.46" y1="105" x2="62.66" y2="120.71" fill="none" stroke="#E8EAED" stroke-linecap="round" stroke-miterlimit="10" stroke-width="6px"/>
    <line x1="10" y1="200" x2="41.42" y2="200" fill="none" stroke="#E8EAED" stroke-linecap="round" stroke-miterlimit="10" stroke-width="6px"/>
    <line x1="35.46" y1="295" x2="62.66" y2="279.29" fill="none" stroke="#E8EAED" stroke-linecap="round" stroke-miterlimit="10" stroke-width="6px"/>
    <line x1="364.54" y1="295" x2="337.34" y2="279.29" fill="none" stroke="#E8EAED" stroke-linecap="round" stroke-miterlimit="10" stroke-width="6px"/>
    <line x1="390" y1="200" x2="358.58" y2="200" fill="none" stroke="#E8EAED" stroke-linecap="round" stroke-miterlimit="10" stroke-width="6px"/>
    <line x1="364.54" y1="105" x2="337.34" y2="120.71" fill="none" stroke="#E8EAED" stroke-linecap="round" stroke-miterlimit="10" stroke-width="6px"/>
    <line x1="295" y1="35.46" x2="279.29" y2="62.66" fill="none" stroke="#E8EAED" stroke-linecap="round" stroke-miterlimit="10" stroke-width="6px"/>
    <path d="M164.12,380H134.34l61.57-116.61,49.14,31.23a30,30,0,0,1,9.53,40.94L227.48,380H256.9" fill="none" stroke="#188038" stroke-linejoin="round" stroke-width="9.27px"/>
    <line x1="195.91" y1="263.39" x2="220.48" y2="279" fill="none" stroke="#137333" stroke-linejoin="round" stroke-width="9.27px"/>
    <line x1="181.02" y1="291.59" x2="195.91" y2="263.39" fill="none" stroke="#137333" stroke-linejoin="round" stroke-width="9.27px"/>
    <polygon points="189.07 167.12 295.45 145.26 317.31 251.64 210.93 273.5 104.55 295.36 82.69 188.97 189.07 167.12" fill="#1E8E3E"/>
    <path d="M207.38,252.54c-18.86,6-41.33,1.94-56.48-13.21" fill="none" stroke="#FFF" stroke-miterlimit="10" stroke-width="6.62px"/>
</svg>
