<svg width="400" height="400" viewBox="0 0 400 400" fill="none" xmlns="http://www.w3.org/2000/svg">
    <path d="M128.91,163c-12.56,3.66-25.8,10.57-31.82,22.81-6.35,12.93-1.46,28.49,10.19,36.65" fill="none" stroke="#EE675C" stroke-linejoin="round" stroke-width="9.27px"/>
    <path d="M271.09,163c12.56,3.66,25.8,10.57,31.82,22.81,6.35,12.93,1.46,28.49-10.19,36.65" fill="none" stroke="#EE675C" stroke-linejoin="round" stroke-width="9.27px"/>
    <ellipse cx="200" cy="381.74" rx="79.51" ry="8.26" fill="#F1F3F4"/>
    <line x1="200" y1="10" x2="200" y2="41.42" fill="none" stroke="#E8EAED" stroke-linecap="round" stroke-miterlimit="10" stroke-width="6px"/>
    <line x1="105" y1="35.46" x2="120.71" y2="62.66" fill="none" stroke="#E8EAED" stroke-linecap="round" stroke-miterlimit="10" stroke-width="6px"/>
    <line x1="35.46" y1="105" x2="62.66" y2="120.71" fill="none" stroke="#E8EAED" stroke-linecap="round" stroke-miterlimit="10" stroke-width="6px"/>
    <line x1="10" y1="200" x2="41.42" y2="200" fill="none" stroke="#E8EAED" stroke-linecap="round" stroke-miterlimit="10" stroke-width="6px"/>
    <line x1="35.46" y1="295" x2="62.66" y2="279.29" fill="none" stroke="#E8EAED" stroke-linecap="round" stroke-miterlimit="10" stroke-width="6px"/>
    <line x1="364.54" y1="295" x2="337.34" y2="279.29" fill="none" stroke="#E8EAED" stroke-linecap="round" stroke-miterlimit="10" stroke-width="6px"/>
    <line x1="390" y1="200" x2="358.58" y2="200" fill="none" stroke="#E8EAED" stroke-linecap="round" stroke-miterlimit="10" stroke-width="6px"/>
    <line x1="364.54" y1="105" x2="337.34" y2="120.71" fill="none" stroke="#E8EAED" stroke-linecap="round" stroke-miterlimit="10" stroke-width="6px"/>
    <line x1="295" y1="35.46" x2="279.29" y2="62.66" fill="none" stroke="#E8EAED" stroke-linecap="round" stroke-miterlimit="10" stroke-width="6px"/>
    <path d="M216.76,201.8s-64.53,36.51-77.35,71.84c-4.72,13,3.53,27.36,17.27,29,11.31,1.39,28.4-3.14,53.06-24.33v31.36" fill="none" stroke="#C5221F" stroke-linejoin="round" stroke-width="9.27px"/>
    <path d="M216.76,201.8S181.55,221.72,158,246.36" fill="none" stroke="#B31412" stroke-linejoin="round" stroke-width="9.27px"/>
    <polyline points="218.98 201.47 218.98 380 248.5 380" fill="none" stroke="#C5221F" stroke-linejoin="round" stroke-width="9.27px"/>
    <line x1="218.98" y1="201.47" x2="218.98" y2="248.97" fill="none" stroke="#B31412" stroke-linejoin="round" stroke-width="9.27px"/>
    <circle cx="200" cy="162.34" r="81.45" fill="#D93025"/>
    <path d="M206.36,156.18c-18.33,10.42-42,6.07-50.25-19.59" fill="none" stroke="#FFF" stroke-miterlimit="10" stroke-width="6.62px"/>
    <path d="M164.26,137.72c-5.22-2.69-9-2.82-16.17-.91" fill="none" stroke="#FFF" stroke-miterlimit="10" stroke-width="6.62px"/>
    <path d="M107.28,222.48c28.36,19.87,76.07-7.28,88.72-35.17" fill="none" stroke="#EE675C" stroke-linejoin="round" stroke-width="9.27px"/>
    <path d="M292.72,222.48c-28.36,19.87-76.07-7.28-88.72-35.17" fill="none" stroke="#EE675C" stroke-linejoin="round" stroke-width="9.27px"/>
</svg>
