<svg width="400" height="400" viewBox="0 0 400 400" fill="none" xmlns="http://www.w3.org/2000/svg">
    <ellipse cx="175.51" cy="381.74" rx="104" ry="8.26" fill="#F1F3F4"/>
    <line x1="200" y1="10" x2="200" y2="41.42" fill="none" stroke="#E8EAED" stroke-linecap="round" stroke-miterlimit="10" stroke-width="6px"/>
    <line x1="105" y1="35.46" x2="120.71" y2="62.66" fill="none" stroke="#E8EAED" stroke-linecap="round" stroke-miterlimit="10" stroke-width="6px"/>
    <line x1="35.46" y1="105" x2="62.66" y2="120.71" fill="none" stroke="#E8EAED" stroke-linecap="round" stroke-miterlimit="10" stroke-width="6px"/>
    <line x1="10" y1="200" x2="41.42" y2="200" fill="none" stroke="#E8EAED" stroke-linecap="round" stroke-miterlimit="10" stroke-width="6px"/>
    <line x1="35.46" y1="295" x2="62.66" y2="279.29" fill="none" stroke="#E8EAED" stroke-linecap="round" stroke-miterlimit="10" stroke-width="6px"/>
    <line x1="364.54" y1="295" x2="337.34" y2="279.29" fill="none" stroke="#E8EAED" stroke-linecap="round" stroke-miterlimit="10" stroke-width="6px"/>
    <line x1="390" y1="200" x2="358.58" y2="200" fill="none" stroke="#E8EAED" stroke-linecap="round" stroke-miterlimit="10" stroke-width="6px"/>
    <line x1="364.54" y1="105" x2="337.34" y2="120.71" fill="none" stroke="#E8EAED" stroke-linecap="round" stroke-miterlimit="10" stroke-width="6px"/>
    <line x1="295" y1="35.46" x2="279.29" y2="62.66" fill="none" stroke="#E8EAED" stroke-linecap="round" stroke-miterlimit="10" stroke-width="6px"/>
    <path d="M201.85,238.9l61.65,74a20,20,0,0,1,1,24.29L234.5,380h32.13" fill="none" stroke="#1967D2" stroke-linejoin="round" stroke-width="9.27px"/>
    <polyline points="214.03 222.14 114.03 380 84.43 380" fill="none" stroke="#1967D2" stroke-linejoin="round" stroke-width="9.27px"/>
    <line x1="201.85" y1="238.9" x2="248.56" y2="295" fill="none" stroke="#185ABC" stroke-linejoin="round" stroke-width="9.27px"/>
    <line x1="214.03" y1="222.14" x2="167.87" y2="295" fill="none" stroke="#185ABC" stroke-linejoin="round" stroke-width="9.27px"/>
    <path d="M129.21,229.83l-11.7-42.66A50,50,0,0,1,136,133.78L191,93A10,10,0,0,0,195,85V61.71" fill="none" stroke="#4285F4" stroke-linejoin="round" stroke-width="9.27px"/>
    <path d="M270.79,229.83l11.7-42.66A50,50,0,0,0,264,133.78L209.05,93A10,10,0,0,1,205,85V61.71" fill="none" stroke="#4285F4" stroke-linejoin="round" stroke-width="9.27px"/>
    <path d="M199.87,289.41a81.45,81.45,0,0,0,81.58-81.32l-162.9-.26A81.45,81.45,0,0,0,199.87,289.41Z" fill="#1A73E8"/>
    <path d="M172.86,256.89c13.38,16.47,37.19,21.05,54.28,0" fill="none" stroke="#FFF" stroke-miterlimit="10" stroke-width="6.66px"/>
</svg>
