<svg width="173" height="152" viewBox="0 0 173 152" xmlns="http://www.w3.org/2000/svg"><g fill="none" fill-rule="evenodd"><path d="M107.91 41.72c7.73-13.22 3.14-30.12-10.24-37.75C84.29-3.66 67.18.87 59.45 14.09c-.35.59-.66 1.2-.96 1.81l-26.1 44.66a27.172 27.172 0 00-1.6 2.75L3.67 110.1l48.45 27.16 26.98-46.4c.29-.44.57-.89.84-1.35.27-.46.52-.93.76-1.39l26.11-44.67c.38-.57.76-1.14 1.1-1.73z" fill="#FBBC04"/><path d="M52.34 137.11c-7.68 13.43-25 18.38-38.31 10.62-13.31-7.76-18.02-24.57-10.34-38s24.86-18.39 38.16-10.64c13.3 7.75 18.18 24.59 10.49 38.02z" fill="#34A853"/><path d="M158.79 51.86c-13.23-7.62-30.15-3.1-37.79 10.1l-27.66 47.8c-7.64 13.2-3.11 30.08 10.13 37.7 13.23 7.62 30.15 3.1 37.79-10.1l27.66-47.8c7.63-13.2 3.1-30.08-10.13-37.7z" fill="#4285F4"/></g></svg>