<svg width="23" height="30" viewBox="0 0 23 30" fill="none" xmlns="http://www.w3.org/2000/svg"><path d="M20 10h-1.429V7.143C18.571 3.2 15.371 0 11.43 0a7.145 7.145 0 00-7.143 7.143V10H2.857A2.866 2.866 0 000 12.857v14.286A2.866 2.866 0 002.857 30H20a2.866 2.866 0 002.857-2.857V12.857A2.866 2.866 0 0020 10zm-8.571 12.857A2.866 2.866 0 018.57 20a2.866 2.866 0 012.858-2.857A2.866 2.866 0 0114.286 20a2.866 2.866 0 01-2.857 2.857zM15.857 10H7V7.143a4.432 4.432 0 014.429-4.429 4.432 4.432 0 014.428 4.429V10z" fill="#3C4043"/></svg>