<svg width="43" height="44" viewBox="0 0 43 44" xmlns="http://www.w3.org/2000/svg"><g fill="none" fill-rule="evenodd"><path d="M2.253 12.252l7.399 5.658A13.055 13.055 0 009 22c0 1.43.229 2.805.652 4.09l-7.4 5.658A22.02 22.02 0 010 22c0-3.506.81-6.814 2.253-9.748z" fill="#FBBC05"/><path d="M9.652 17.91l-7.4-5.658A21.935 21.935 0 0122 0c5.6 0 10.6 2.1 14.5 5.5l-6.4 6.4C27.9 10.1 25.1 9 22 9c-5.77 0-10.64 3.725-12.348 8.91z" fill="#EA4335"/><path d="M2.25 31.742l7.396-5.67A12.975 12.975 0 0022 35c6.1 0 10.7-3.1 11.8-8.5H22V18h20.5c.3 1.3.5 2.7.5 4 0 14-10 22-21 22A21.935 21.935 0 012.25 31.742z" fill="#34A853"/><path d="M36.34 38.52l-7.025-5.437c2.297-1.45 3.895-3.685 4.485-6.583H22V18h20.5c.3 1.3.5 2.7.5 4 0 7.17-2.623 12.767-6.66 16.52z" fill="#4285F4"/></g></svg>