<svg xmlns="http://www.w3.org/2000/svg" width="279" height="248" viewBox="0 0 279 248"><path fill="#525252" d="M97.15 2.73c.46-.55 1.37-1.64 1.82-2.2 27-.1 53.98-.04 80.97-.02.44.5 1.32 1.5 1.75 2 .1.15.4.43.5.57.18.16.5.48.68.65.25.23.77.67 1.03.9.33.3.98.92 1.3 1.24.26.25.76.75 1 1 .25.23.7.7.96.94.25.25.74.75.98 1 .25.25.76.75 1 1 .27.26.78.76 1.03 1.02.25.25.76.75 1.02 1 .23.25.72.73.96.97l1 1c.24.24.73.73.98 1 .3.3.93.94 1.24 1.26.23.26.67.78.9 1.04.17.2.5.55.67.73.18.2.56.6.75.78.43.45 1.3 1.3 1.72 1.76.14.15.43.46.57.6.07.13.25.37.33.48.27.56.8 1.67 1.08 2.22.2 5.67-.07 11.34.06 17-7.7-.1-15.4-.1-23.08.02.26-.16.8-.47 1.07-.63-.7-6.6-.7-13.24-.58-19.87-26.28-.02-52.56-.02-78.83 0 .17 6.83-.08 13.64-.44 20.46l1.27.04c-7.8-.1-15.63-.12-23.44-.02.12-5.66-.14-11.32.03-16.98.3-.57.86-1.72 1.15-2.3.1-.1.26-.34.35-.46.15-.16.45-.47.6-.63.44-.45 1.33-1.3 1.77-1.75.2-.18.6-.56.78-.75.22-.22.65-.64.86-.85.24-.23.7-.7.94-.94.25-.24.74-.73.98-1 .25-.22.74-.72 1-.96.23-.26.72-.75.96-1 .24-.23.7-.7.94-.95.2-.23.63-.67.84-.9.32-.32.96-1 1.28-1.33l1.28-1.2c.2-.2.62-.6.83-.8.23-.22.7-.68.9-.9.26-.24.75-.73 1-.97s.72-.73.97-.97c.23-.24.7-.7.94-.94l.8-.8c.1-.14.35-.4.46-.54zm37.7 166.57c2.8-14.95 12.87-28.3 26.16-35.56.2 12.76.08 25.53-.04 38.3.03 2.54-.08 5.12.42 7.63 6.28 4 13.18 6.96 19.6 10.74 6.25-3.25 12.47-6.6 18.7-9.9 2.18-.66 1.4-3.2 1.62-4.93-.06-13.9-.1-27.82 0-41.73 10.12 4.16 17.33 12.82 23 21.85 1.95 6.62 4.35 13.27 4.08 20.3.38 16.85-9.32 33.53-24.3 41.32-1.08.74-2.8 1.17-2.66 2.8-.96 9.1-.42 18.3.17 27.4h-41c.3-9.72.8-19.43-.05-29.14-7.56-3.6-14.02-9.35-18.68-16.3-6.28-9.55-8.7-21.48-7.03-32.76z"/><path fill="#4d4d4d" d="M96.68 3.26c.12-.13.36-.4.47-.53-.1.13-.35.4-.47.53zm85.02-.76c.12.14.4.42.52.56-.13-.14-.4-.42-.53-.56zM95.9 4.06c.2-.2.6-.6.78-.8-.2.2-.6.6-.78.8zm86.32-1c.17.16.5.48.67.65-.2-.15-.5-.47-.7-.63zM94.96 5c.23-.24.7-.7.94-.94-.24.24-.7.7-.94.93zm87.94-1.3c.25.23.77.67 1.03.9-.26-.23-.78-.67-1.04-.9zM93.98 5.96c.24-.24.73-.73.98-.97-.25.22-.74.7-.98.95zm89.95-1.36c.32.3.97.92 1.3 1.24-.33-.32-.98-.94-1.3-1.25zM93 6.93c.25-.24.74-.73.98-.97l-.97.97zm92.22-1.1l1 1-1-1zm-93.12 2c.22-.22.68-.7.9-.9-.22.2-.68.68-.9.9zm94.13-1l.95.95c-.24-.24-.7-.7-.95-.94zm-94.97 1.8c.2-.2.62-.6.83-.8-.23.2-.64.6-.85.8zm95.92-.85zm-97.2 2.05l1.28-1.2-1.28 1.2zm98.18-1.06c.25.26.76.76 1 1.02-.24-.28-.75-.78-1-1.04zm-99.46 2.4c.32-.33.96-1 1.28-1.34-.32.34-.96 1-1.28 1.34zM189.17 9.8c.26.24.77.74 1.02 1-.27-.26-.78-.76-1.04-1zm-101.3 2.25c.2-.22.62-.66.83-.88-.2.22-.63.66-.84.88zM190.2 10.8c.25.25.76.75 1.02 1-.26-.25-.77-.75-1.03-1zM86.92 13c.24-.23.7-.7.94-.95-.23.24-.7.72-.94.96zm104.3-1.2c.24.25.73.73.97.97-.26-.24-.75-.72-1-.96zM85.95 14c.24-.26.73-.75.97-1-.24.25-.73.74-.97 1zm106.25-1.23zm-107.24 2.2c.25-.24.74-.74 1-.98-.26.22-.75.72-1 .96zm108.24-1.2c.24.25.73.74.98 1-.25-.26-.74-.75-1-1zm-109.22 2.2c.25-.26.74-.75.98-1-.24.25-.73.74-.98 1zm110.2-1.2c.3.3.93.95 1.24 1.27-.3-.32-.93-.96-1.24-1.28zM83.04 16.9c.24-.23.7-.7.94-.94l-.94.94zm112.38-.86c.23.26.67.78.9 1.04-.23-.26-.67-.78-.9-1.04zm-113.24 1.7c.22-.2.65-.63.86-.84-.2.2-.64.63-.86.85zm114.14-.66c.17.2.5.55.67.73-.2-.16-.5-.52-.7-.7zM81.4 18.5c.2-.18.6-.56.78-.75-.2.2-.6.57-.8.76zm115.6-.7c.18.2.56.6.75.78-.2-.2-.57-.58-.76-.77zM79.02 20.88c.15-.16.45-.47.6-.63-.15.16-.45.47-.6.63zm120.45-.55zm-120.8 1c.1-.1.26-.33.35-.45-.1.12-.26.35-.34.46zm121.37-.4c.08.13.26.37.34.48-.08-.1-.26-.33-.34-.45z" opacity=".47"/><path fill="#d8d9da" d="M40.3 40.66c12.4-.04 24.8.04 37.2-.04 7.8-.1 15.62-.1 23.43.02 25.83.02 51.66.02 77.5 0 7.68-.1 15.38-.12 23.08-.02 13.27.05 26.5.06 39.76 0C253.9 53.07 266.42 65.67 279 78.2v165.98c-1.32 1.53-2.82 3.45-5.07 3.3-8.86.12-17.72 0-26.57.04-.42-18.84-.05-37.68-.18-56.52-.1-4.3.55-8.73-.8-12.9 1.9-4.46.78-9.4 1.04-14.1-.2-15.05.4-30.14-.3-45.2-.66-11.58-.07-23.2-.3-34.8-.15-1.27.04-2.84-1-3.78-2.52-2.72-6.54-1.6-9.8-1.8-64.34.05-128.67.04-193 0-3.28.2-7.3-.97-9.8 1.8-1.05.92-.9 2.46-1.05 3.7-.24 11.63.4 23.27-.3 34.88-.26 3.07-.36 6.15-.32 9.23.15 39.83-.14 79.66.14 119.5-8.9-.26-17.78.14-26.65-.05-2.24.14-3.72-1.78-5.06-3.27V78.3c13.35-12.6 26.9-25.07 40.3-37.64zM52.6 86.8c6.7-1.8 13.87 5.82 11.3 12.38-1.67 5.15-8.2 8.87-13.24 6.06-3.68-1.78-6.6-5.98-5.97-10.17.94-3.9 3.8-7.48 7.9-8.26zm19.16 9.23c-.2-6.04 6.67-11.2 12.37-8.95 4.2 1 6.32 5.1 7.3 8.96-.83 3.42-2 7.26-5.5 8.8-5.96 4.1-14.94-1.8-14.17-8.8zm-26.43 38.3c23.17-.1 46.34.07 69.5-.05.3 26.85.12 53.72.08 80.58-23.2 0-46.4.14-69.6-.05.13-26.8.05-53.63.04-80.45zm.8 96.92c31.16-.04 62.33-.07 93.5.02 0 5.4-.08 10.82.12 16.23-2.8-.12-5.63-.16-8.44-.1-3.52.13-7.07.16-10.6-.02-1.46-.03-2.9-.03-4.37 0-23.74.25-47.48-.03-71.23.13 1.76-5.24.62-10.83 1.03-16.24z"/><path fill="#4189f8" d="M33.22 80.23c2.5-2.78 6.52-1.6 9.8-1.8 64.33.03 128.66.04 193-.02 3.26.24 7.28-.9 9.8 1.83 1.04.94.85 2.5 1 3.78.23 11.6-.36 23.23.3 34.8-71.75.1-143.5.1-215.26 0 .7-11.6.07-23.24.3-34.87.16-1.24 0-2.78 1.06-3.7m19.38 6.6c-4.1.77-6.95 4.35-7.9 8.25-.65 4.2 2.28 8.4 5.96 10.17 5.03 2.8 11.57-.9 13.24-6.06 2.57-6.58-4.6-14.2-11.3-12.4m19.16 9.23c-.77 7 8.2 12.9 14.16 8.82 3.5-1.55 4.68-5.4 5.5-8.8-.97-3.86-3.1-7.97-7.3-8.97-5.7-2.25-12.55 2.9-12.36 8.95z"/><path fill="#fff" d="M31.86 118.8c71.75.1 143.5.1 215.27 0 .68 15.06.08 30.15.3 45.2-.27 4.7.86 9.64-1.05 14.1-7.74-7.1-13.8-15.87-22.07-22.42-5.66-9.03-12.87-17.7-23-21.85-.1 13.9-.05 27.82 0 41.73-2.63-1.17-4.42-3.44-6.27-5.52-4.96-5.4-10.38-10.37-15.13-15.95-6.08-7-13.2-13.03-18.9-20.37-13.28 7.26-23.35 20.6-26.15 35.56-1.67 11.27.75 23.2 7.03 32.76 4.66 6.94 11.12 12.7 18.68 16.3.85 9.7.35 19.4.04 29.13h-20.85c-.2-5.4-.13-10.83-.12-16.24-31.17-.1-62.34-.06-93.5-.02-.4 5.4.73 11-1.04 16.26-4.48 0-8.95-.02-13.4.02-.3-39.83 0-79.66-.16-119.5-.04-3.07.06-6.15.3-9.22m13.48 15.54c0 26.82.1 53.65-.05 80.47 23.2.2 46.42.08 69.63.07.05-26.86.22-53.73-.07-80.58-23.16.1-46.33-.04-69.5.05z"/><path fill="#bdbdbd" d="M161 133.74c5.7 7.34 12.82 13.36 18.9 20.35 4.74 5.56 10.16 10.53 15.12 15.93 1.85 2.08 3.64 4.35 6.27 5.52-.24 1.72.54 4.27-1.64 4.93-6.23 3.3-12.45 6.64-18.7 9.9-6.42-3.77-13.32-6.74-19.6-10.73-.5-2.5-.4-5.1-.42-7.64.12-12.75.24-25.52.06-38.3zm63.3 21.94c8.27 6.55 14.34 15.32 22.08 22.42 1.35 4.17.7 8.6.8 12.9.13 18.84-.24 37.68.18 56.52-15.26-.04-30.5-.02-45.77 0-.6-9.13-1.15-18.32-.2-27.43-.13-1.64 1.6-2.07 2.66-2.8 15-7.8 24.7-24.47 24.3-41.33.28-7.02-2.12-13.67-4.06-20.3z"/></svg>