<svg xmlns="http://www.w3.org/2000/svg" width="24" height="24" viewBox="0 0 24 24" fill="none">
  <path d="M15.2441 10.5898C15.8489 9.56973 17.1698 9.23052 18.1934 9.83496H18.1943C19.215 10.4374 19.5534 11.7497 18.9541 12.7695L15.915 17.792L15.9111 17.7979C15.5096 18.4755 14.7937 18.8535 14.0547 18.8535C13.683 18.8535 13.3059 18.7576 12.9609 18.5537V18.5527C11.9381 17.9491 11.5997 16.633 12.2041 15.6123L12.2031 15.6113L15.2402 10.5967L15.2441 10.5898Z" stroke="#6C726E" stroke-width="1.5"/>
  <path d="M8.85352 5.63477C9.45822 4.6142 10.7789 4.27444 11.8037 4.87891C12.8264 5.48282 13.1646 6.79923 12.5605 7.81836L12.5566 7.82422L6.75684 17.8008C6.35612 18.4775 5.6401 18.8564 4.90039 18.8564C4.52789 18.8564 4.15095 18.7601 3.80664 18.5566C2.78335 17.952 2.44586 16.6357 3.0498 15.6162L3.05273 15.6104L8.85352 5.63477Z" stroke="#6C726E" stroke-width="1.5"/>
  <path d="M4.88672 14.5947C6.06776 14.595 7.02246 15.5504 7.02246 16.7256C7.02231 17.9006 6.06766 18.8552 4.88672 18.8555C3.70557 18.8555 2.75016 17.9007 2.75 16.7256C2.75 15.5503 3.70548 14.5947 4.88672 14.5947Z" fill="#6C726E" stroke="#6C726E" stroke-width="1.5"/>
</svg>
