<svg width="20" height="20" viewBox="0 0 20 20" fill="none" xmlns="http://www.w3.org/2000/svg">
<path d="M10 17.5C8.95833 17.5 7.97917 17.3056 7.0625 16.9167C6.15972 16.5139 5.36806 15.9792 4.6875 15.3125C4.02083 14.6319 3.48611 13.8403 3.08333 12.9375C2.69444 12.0208 2.5 11.0417 2.5 10C2.5 8.95833 2.69444 7.98611 3.08333 7.08333C3.48611 6.16667 4.02083 5.375 4.6875 4.70833C5.36806 4.02778 6.15972 3.49306 7.0625 3.10417C7.97917 2.70139 8.95833 2.5 10 2.5C11.1389 2.5 12.2153 2.74306 13.2292 3.22917C14.2569 3.71528 15.125 4.40278 15.8333 5.29167V3.33333H17.5V8.33333H12.5V6.66667H14.7917C14.2222 5.88889 13.5208 5.27778 12.6875 4.83333C11.8542 4.38889 10.9583 4.16667 10 4.16667C8.375 4.16667 6.99306 4.73611 5.85417 5.875C4.72917 7 4.16667 8.375 4.16667 10C4.16667 11.625 4.72917 13.0069 5.85417 14.1458C6.99306 15.2708 8.375 15.8333 10 15.8333C11.4583 15.8333 12.7292 15.3611 13.8125 14.4167C14.9097 13.4722 15.5556 12.2778 15.75 10.8333H17.4583C17.25 12.7361 16.4306 14.3264 15 15.6042C13.5833 16.8681 11.9167 17.5 10 17.5ZM12.3333 13.5L9.16667 10.3333V5.83333H10.8333V9.66667L13.5 12.3333L12.3333 13.5Z" fill="currentColor"/>
</svg>
