<svg width="20" height="20" viewBox="0 0 20 20" fill="none" xmlns="http://www.w3.org/2000/svg">
<path d="M10.0003 18.3332C9.80588 18.3332 9.63921 18.2776 9.50033 18.1665C9.36144 18.0554 9.25727 17.9096 9.18783 17.729C8.92394 16.9512 8.5906 16.2221 8.18783 15.5415C7.79894 14.8609 7.25033 14.0623 6.54199 13.1457C5.83366 12.229 5.25727 11.354 4.81283 10.5207C4.38227 9.68734 4.16699 8.68039 4.16699 7.49984C4.16699 5.87484 4.72949 4.49984 5.85449 3.37484C6.99338 2.23595 8.37533 1.6665 10.0003 1.6665C11.6253 1.6665 13.0003 2.23595 14.1253 3.37484C15.2642 4.49984 15.8337 5.87484 15.8337 7.49984C15.8337 8.76373 15.5906 9.81928 15.1045 10.6665C14.6323 11.4998 14.0837 12.3262 13.4587 13.1457C12.7087 14.1457 12.1392 14.979 11.7503 15.6457C11.3753 16.2984 11.0628 16.9929 10.8128 17.729C10.7434 17.9234 10.6323 18.0762 10.4795 18.1873C10.3406 18.2846 10.1809 18.3332 10.0003 18.3332ZM10.0003 15.354C10.2364 14.8818 10.5003 14.4165 10.792 13.9582C11.0975 13.4998 11.542 12.8887 12.1253 12.1248C12.7225 11.3471 13.2087 10.6318 13.5837 9.979C13.9725 9.31234 14.167 8.48595 14.167 7.49984C14.167 6.34706 13.7573 5.36789 12.9378 4.56234C12.1323 3.74289 11.1531 3.33317 10.0003 3.33317C8.84755 3.33317 7.86144 3.74289 7.04199 4.56234C6.23644 5.36789 5.83366 6.34706 5.83366 7.49984C5.83366 8.48595 6.02116 9.31234 6.39616 9.979C6.78505 10.6318 7.2781 11.3471 7.87533 12.1248C8.45866 12.8887 8.89616 13.4998 9.18783 13.9582C9.49338 14.4165 9.76421 14.8818 10.0003 15.354ZM10.0003 9.58317C10.5837 9.58317 11.0767 9.38178 11.4795 8.979C11.8823 8.57623 12.0837 8.08317 12.0837 7.49984C12.0837 6.9165 11.8823 6.42345 11.4795 6.02067C11.0767 5.61789 10.5837 5.4165 10.0003 5.4165C9.41699 5.4165 8.92394 5.61789 8.52116 6.02067C8.11838 6.42345 7.91699 6.9165 7.91699 7.49984C7.91699 8.08317 8.11838 8.57623 8.52116 8.979C8.92394 9.38178 9.41699 9.58317 10.0003 9.58317Z" fill="#6C726E"/>
</svg>
