<svg width="20" height="20" viewBox="0 0 20 20" fill="none" xmlns="http://www.w3.org/2000/svg">
<path d="M0.833008 16.6668V14.3335C0.833008 13.8613 0.951063 13.4307 1.18717 13.0418C1.43717 12.6391 1.76356 12.3335 2.16634 12.1252C3.02745 11.6946 3.90245 11.3752 4.79134 11.1668C5.68023 10.9446 6.58301 10.8335 7.49967 10.8335C8.41634 10.8335 9.31912 10.9446 10.208 11.1668C11.0969 11.3752 11.9719 11.6946 12.833 12.1252C13.2358 12.3335 13.5552 12.6391 13.7913 13.0418C14.0413 13.4307 14.1663 13.8613 14.1663 14.3335V16.6668H0.833008ZM15.833 16.6668V14.1668C15.833 13.5557 15.6594 12.9724 15.3122 12.4168C14.9788 11.8474 14.4997 11.3613 13.8747 10.9585C14.583 11.0418 15.2497 11.1877 15.8747 11.396C16.4997 11.5904 17.083 11.8335 17.6247 12.1252C18.1247 12.4029 18.5066 12.7154 18.7705 13.0627C19.0344 13.396 19.1663 13.7641 19.1663 14.1668V16.6668H15.833ZM7.49967 10.0002C6.58301 10.0002 5.79829 9.67377 5.14551 9.021C4.49273 8.36822 4.16634 7.5835 4.16634 6.66683C4.16634 5.75016 4.49273 4.96544 5.14551 4.31266C5.79829 3.65989 6.58301 3.3335 7.49967 3.3335C8.41634 3.3335 9.20106 3.65989 9.85384 4.31266C10.5066 4.96544 10.833 5.75016 10.833 6.66683C10.833 7.5835 10.5066 8.36822 9.85384 9.021C9.20106 9.67377 8.41634 10.0002 7.49967 10.0002ZM15.833 6.66683C15.833 7.5835 15.5066 8.36822 14.8538 9.021C14.2011 9.67377 13.4163 10.0002 12.4997 10.0002C12.3469 10.0002 12.1525 9.98627 11.9163 9.9585C11.6802 9.91683 11.4858 9.87516 11.333 9.8335C11.708 9.38905 11.9927 8.896 12.1872 8.35433C12.3955 7.81266 12.4997 7.25016 12.4997 6.66683C12.4997 6.0835 12.3955 5.521 12.1872 4.97933C11.9927 4.43766 11.708 3.94461 11.333 3.50016C11.5275 3.43072 11.7219 3.38905 11.9163 3.37516C12.1108 3.34738 12.3052 3.3335 12.4997 3.3335C13.4163 3.3335 14.2011 3.65989 14.8538 4.31266C15.5066 4.96544 15.833 5.75016 15.833 6.66683ZM2.49967 15.0002H12.4997V14.3335C12.4997 14.1807 12.458 14.0418 12.3747 13.9168C12.3052 13.7918 12.208 13.6946 12.083 13.6252C11.333 13.2502 10.5761 12.9724 9.81217 12.7918C9.04829 12.5974 8.27745 12.5002 7.49967 12.5002C6.7219 12.5002 5.95106 12.5974 5.18717 12.7918C4.42329 12.9724 3.66634 13.2502 2.91634 13.6252C2.79134 13.6946 2.68717 13.7918 2.60384 13.9168C2.5344 14.0418 2.49967 14.1807 2.49967 14.3335V15.0002ZM7.49967 8.3335C7.95801 8.3335 8.3469 8.17377 8.66634 7.85433C8.99967 7.521 9.16634 7.12516 9.16634 6.66683C9.16634 6.2085 8.99967 5.81961 8.66634 5.50016C8.3469 5.16683 7.95801 5.00016 7.49967 5.00016C7.04134 5.00016 6.64551 5.16683 6.31217 5.50016C5.99273 5.81961 5.83301 6.2085 5.83301 6.66683C5.83301 7.12516 5.99273 7.521 6.31217 7.85433C6.64551 8.17377 7.04134 8.3335 7.49967 8.3335Z" fill="currentColor"/>
</svg>
