<svg width="20" height="20" viewBox="0 0 20 20" fill="none" xmlns="http://www.w3.org/2000/svg">
<path d="M13.1253 16.6668H3.33366C2.87533 16.6668 2.47949 16.5071 2.14616 16.1877C1.82671 15.8543 1.66699 15.4585 1.66699 15.0002V5.00016C1.66699 4.54183 1.82671 4.15294 2.14616 3.8335C2.47949 3.50016 2.87533 3.3335 3.33366 3.3335H16.667C17.1253 3.3335 17.5142 3.50016 17.8337 3.8335C18.167 4.15294 18.3337 4.54183 18.3337 5.00016V15.0002C18.3337 15.4585 18.167 15.8543 17.8337 16.1877C17.5142 16.5071 17.1253 16.6668 16.667 16.6668H15.5003L11.5837 12.7502C11.292 12.9446 10.9725 13.0904 10.6253 13.1877C10.292 13.2849 9.94477 13.3335 9.58366 13.3335C8.54199 13.3335 7.6531 12.9724 6.91699 12.2502C6.19477 11.5141 5.83366 10.6252 5.83366 9.5835C5.83366 8.54183 6.19477 7.65988 6.91699 6.93766C7.6531 6.20155 8.54199 5.8335 9.58366 5.8335C10.6253 5.8335 11.5073 6.20155 12.2295 6.93766C12.9656 7.65988 13.3337 8.54183 13.3337 9.5835C13.3337 9.9585 13.285 10.3127 13.1878 10.646C13.0906 10.9793 12.9448 11.2918 12.7503 11.5835L16.167 15.0002H16.667V5.00016H3.33366V15.0002H11.4587L13.1253 16.6668ZM9.58366 11.6668C10.167 11.6668 10.66 11.4654 11.0628 11.0627C11.4656 10.6599 11.667 10.1668 11.667 9.5835C11.667 9.00016 11.4656 8.50711 11.0628 8.10433C10.66 7.70155 10.167 7.50016 9.58366 7.50016C9.00033 7.50016 8.50727 7.70155 8.10449 8.10433C7.70171 8.50711 7.50033 9.00016 7.50033 9.5835C7.50033 10.1668 7.70171 10.6599 8.10449 11.0627C8.50727 11.4654 9.00033 11.6668 9.58366 11.6668ZM3.33366 15.0002V5.00016V15.0002Z" fill="#6C726E"/>
</svg>
