<svg width="20" height="20" viewBox="0 0 20 20" fill="none" xmlns="http://www.w3.org/2000/svg">
<path d="M3.33366 16.6668C2.87533 16.6668 2.47949 16.5071 2.14616 16.1877C1.82671 15.8543 1.66699 15.4585 1.66699 15.0002V5.00016C1.66699 4.54183 1.82671 4.15294 2.14616 3.8335C2.47949 3.50016 2.87533 3.3335 3.33366 3.3335H16.667C17.1253 3.3335 17.5142 3.50016 17.8337 3.8335C18.167 4.15294 18.3337 4.54183 18.3337 5.00016V15.0002C18.3337 15.4585 18.167 15.8543 17.8337 16.1877C17.5142 16.5071 17.1253 16.6668 16.667 16.6668H3.33366ZM3.33366 15.0002H12.0837V12.0835H3.33366V15.0002ZM13.7503 15.0002H16.667V7.50016H13.7503V15.0002ZM3.33366 10.4168H12.0837V7.50016H3.33366V10.4168Z" fill="currentColor"/>
</svg>
