<svg width="20" height="20" viewBox="0 0 20 20" fill="none" xmlns="http://www.w3.org/2000/svg">
<path d="M4.16667 17.5C3.70833 17.5 3.3125 17.3403 2.97917 17.0208C2.65972 16.6875 2.5 16.2917 2.5 15.8333V4.16667C2.5 3.70833 2.65972 3.31945 2.97917 3C3.3125 2.66667 3.70833 2.5 4.16667 2.5H15.8333C16.2917 2.5 16.6806 2.66667 17 3C17.3333 3.31945 17.5 3.70833 17.5 4.16667V15.8333C17.5 16.2917 17.3333 16.6875 17 17.0208C16.6806 17.3403 16.2917 17.5 15.8333 17.5H4.16667ZM4.16667 15.8333H15.8333V5.83333H4.16667V15.8333ZM10 14.1667C8.86111 14.1667 7.84028 13.8611 6.9375 13.25C6.04861 12.625 5.40278 11.8194 5 10.8333C5.40278 9.84722 6.04861 9.04861 6.9375 8.4375C7.84028 7.8125 8.86111 7.5 10 7.5C11.1389 7.5 12.1528 7.8125 13.0417 8.4375C13.9444 9.04861 14.5972 9.84722 15 10.8333C14.5972 11.8194 13.9444 12.625 13.0417 13.25C12.1528 13.8611 11.1389 14.1667 10 14.1667ZM10 12.9167C10.7778 12.9167 11.4861 12.7361 12.125 12.375C12.7639 12 13.2639 11.4861 13.625 10.8333C13.2639 10.1806 12.7639 9.67361 12.125 9.3125C11.4861 8.9375 10.7778 8.75 10 8.75C9.22222 8.75 8.51389 8.9375 7.875 9.3125C7.23611 9.67361 6.73611 10.1806 6.375 10.8333C6.73611 11.4861 7.23611 12 7.875 12.375C8.51389 12.7361 9.22222 12.9167 10 12.9167ZM10 12.0833C9.65278 12.0833 9.35417 11.9653 9.10417 11.7292C8.86806 11.4792 8.75 11.1806 8.75 10.8333C8.75 10.4861 8.86806 10.1944 9.10417 9.95833C9.35417 9.70833 9.65278 9.58333 10 9.58333C10.3472 9.58333 10.6389 9.70833 10.875 9.95833C11.125 10.1944 11.25 10.4861 11.25 10.8333C11.25 11.1806 11.125 11.4792 10.875 11.7292C10.6389 11.9653 10.3472 12.0833 10 12.0833Z" fill="#6C726E"/>
</svg>
