<svg width="24" height="24" viewBox="0 0 24 24" fill="none" xmlns="http://www.w3.org/2000/svg">
<path fill-rule="evenodd" clip-rule="evenodd" d="M12 1C5.92487 1 1 5.92487 1 12C1 18.0751 5.92487 23 12 23C18.0751 23 23 18.0751 23 12C23 5.92487 18.0751 1 12 1ZM16.8059 9.592L17.3979 8.78606L15.7861 7.60206L15.1941 8.408L11.3039 13.704C11.1378 13.9302 10.944 14 10.7919 14C10.6399 14 10.4461 13.9302 10.28 13.704L8.80594 11.6973L8.21394 10.8914L6.60206 12.0754L7.19406 12.8813L8.66808 14.888C9.19137 15.6004 9.9708 16 10.7919 16C11.6131 16 12.3925 15.6005 12.9158 14.888L16.8059 9.592Z" fill="#265C3B"/>
</svg>
