<?xml version="1.0" encoding="UTF-8"?>
<svg width="28px" height="25px" viewBox="0 0 28 25" version="1.1" xmlns="http://www.w3.org/2000/svg" xmlns:xlink="http://www.w3.org/1999/xlink">
    <!-- Generator: Sketch 52.5 (67469) - http://www.bohemiancoding.com/sketch -->
    <title>Shape</title>
    <desc>Created with Sketch.</desc>
    <g id="Page-1" stroke="none" stroke-width="1" fill="none" fill-rule="evenodd">
        <g id="error" transform="translate(-0.166667, 0.250000)" fill="#EA4336" fill-rule="nonzero">
            <path d="M3.49916667,24.5 L24.8341667,24.5 C27.0158333,24.5 28.3758333,22.1341667 27.285,20.25 L16.6175,1.81916667 C15.5266667,-0.065 12.8066667,-0.065 11.7158333,1.81916667 L1.04833333,20.25 C-0.0425,22.1341667 1.3175,24.5 3.49916667,24.5 Z M14.1666667,14.5833333 C13.3875,14.5833333 12.75,13.9458333 12.75,13.1666667 L12.75,10.3333333 C12.75,9.55416667 13.3875,8.91666667 14.1666667,8.91666667 C14.9458333,8.91666667 15.5833333,9.55416667 15.5833333,10.3333333 L15.5833333,13.1666667 C15.5833333,13.9458333 14.9458333,14.5833333 14.1666667,14.5833333 Z M15.5833333,20.25 L12.75,20.25 L12.75,17.4166667 L15.5833333,17.4166667 L15.5833333,20.25 Z" id="Shape"></path>
        </g>
    </g>
</svg>