<svg width="24" height="24" viewBox="0 0 24 24" fill="none" xmlns="http://www.w3.org/2000/svg">
<path d="M14 2H6C4.9 2 4 2.9 4 4V20C4 21.1 4.89 22 5.99 22H18C19.1 22 20 21.1 20 20V8L14 2ZM18 20H6V4H13V9H18V20Z" fill="currentColor"/>
<path fill-rule="evenodd" clip-rule="evenodd" d="M12.0003 11.6667C9.91699 11.6667 8.13783 12.9626 7.41699 14.7917C8.13783 16.6209 9.91699 17.9167 12.0003 17.9167C14.0837 17.9167 15.8628 16.6209 16.5837 14.7917C15.8628 12.9626 14.0837 11.6667 12.0003 11.6667ZM10.5 14.8C10.5 13.9734 11.1733 13.3 12 13.3C12.8267 13.3 13.5 13.9734 13.5 14.8C13.5 15.6267 12.8267 16.3 12 16.3C11.1733 16.3 10.5 15.6267 10.5 14.8ZM10.8754 14.7918C10.8754 15.4126 11.3796 15.9168 12.0004 15.9168C12.6213 15.9168 13.1254 15.4126 13.1254 14.7918C13.1254 14.1709 12.6213 13.6668 12.0004 13.6668C11.3796 13.6668 10.8754 14.1709 10.8754 14.7918ZM8.3252 14.7917C9.0127 16.1959 10.421 17.0834 12.0002 17.0834C13.5794 17.0834 14.9877 16.1959 15.6752 14.7917C14.9877 13.3876 13.5794 12.5001 12.0002 12.5001C10.421 12.5001 9.0127 13.3876 8.3252 14.7917Z" fill="currentColor"/>
<path d="M7.41699 14.7917L7.13788 14.6818L7.09454 14.7917L7.13788 14.9017L7.41699 14.7917ZM16.5837 14.7917L16.8628 14.9017L16.9061 14.7917L16.8628 14.6818L16.5837 14.7917ZM8.3252 14.7917L8.05576 14.6598L7.99117 14.7917L8.05576 14.9236L8.3252 14.7917ZM15.6752 14.7917L15.9446 14.9236L16.0092 14.7917L15.9446 14.6598L15.6752 14.7917ZM7.6961 14.9017C8.37346 13.1829 10.0448 11.9667 12.0003 11.9667V11.3667C9.78918 11.3667 7.90219 12.7423 7.13788 14.6818L7.6961 14.9017ZM12.0003 17.6167C10.0448 17.6167 8.37346 16.4006 7.6961 14.6818L7.13788 14.9017C7.90219 16.8412 9.78918 18.2167 12.0003 18.2167V17.6167ZM16.3046 14.6818C15.6272 16.4006 13.9558 17.6167 12.0003 17.6167V18.2167C14.2115 18.2167 16.0985 16.8412 16.8628 14.9017L16.3046 14.6818ZM12.0003 11.9667C13.9558 11.9667 15.6272 13.1829 16.3046 14.9017L16.8628 14.6818C16.0985 12.7423 14.2115 11.3667 12.0003 11.3667V11.9667ZM12 13C11.0076 13 10.2 13.8077 10.2 14.8H10.8C10.8 14.1391 11.339 13.6 12 13.6V13ZM13.8 14.8C13.8 13.8077 12.9924 13 12 13V13.6C12.661 13.6 13.2 14.1391 13.2 14.8H13.8ZM12 16.6C12.9924 16.6 13.8 15.7924 13.8 14.8H13.2C13.2 15.461 12.661 16 12 16V16.6ZM10.2 14.8C10.2 15.7924 11.0076 16.6 12 16.6V16C11.339 16 10.8 15.461 10.8 14.8H10.2ZM12.0004 15.6168C11.5453 15.6168 11.1754 15.2469 11.1754 14.7918H10.5754C10.5754 15.5783 11.2139 16.2168 12.0004 16.2168V15.6168ZM12.8254 14.7918C12.8254 15.2469 12.4556 15.6168 12.0004 15.6168V16.2168C12.7869 16.2168 13.4254 15.5783 13.4254 14.7918H12.8254ZM12.0004 13.9668C12.4556 13.9668 12.8254 14.3366 12.8254 14.7918H13.4254C13.4254 14.0053 12.7869 13.3668 12.0004 13.3668V13.9668ZM11.1754 14.7918C11.1754 14.3366 11.5453 13.9668 12.0004 13.9668V13.3668C11.2139 13.3668 10.5754 14.0053 10.5754 14.7918H11.1754ZM12.0002 16.7834C10.5361 16.7834 9.23201 15.9616 8.59463 14.6598L8.05576 14.9236C8.79338 16.4302 10.306 17.3834 12.0002 17.3834V16.7834ZM15.4058 14.6598C14.7684 15.9616 13.4643 16.7834 12.0002 16.7834V17.3834C13.6944 17.3834 15.207 16.4302 15.9446 14.9236L15.4058 14.6598ZM12.0002 12.8001C13.4643 12.8001 14.7684 13.6219 15.4058 14.9236L15.9446 14.6598C15.207 13.1533 13.6944 12.2001 12.0002 12.2001V12.8001ZM8.59463 14.9236C9.23201 13.6219 10.5361 12.8001 12.0002 12.8001V12.2001C10.306 12.2001 8.79338 13.1533 8.05576 14.6598L8.59463 14.9236Z" fill="currentColor"/>
</svg>
