<svg width="16" height="16" viewBox="0 0 16 16" fill="none" xmlns="http://www.w3.org/2000/svg">
<path d="M7.33398 11.333H8.66732V7.33301H7.33398V11.333ZM8.00065 5.99967C8.18954 5.99967 8.3451 5.93856 8.46732 5.81634C8.60065 5.68301 8.66732 5.5219 8.66732 5.33301C8.66732 5.14412 8.60065 4.98856 8.46732 4.86634C8.3451 4.73301 8.18954 4.66634 8.00065 4.66634C7.81176 4.66634 7.65065 4.73301 7.51732 4.86634C7.3951 4.98856 7.33398 5.14412 7.33398 5.33301C7.33398 5.5219 7.3951 5.68301 7.51732 5.81634C7.65065 5.93856 7.81176 5.99967 8.00065 5.99967ZM8.00065 14.6663C7.07843 14.6663 6.21176 14.4941 5.40065 14.1497C4.58954 13.7941 3.88398 13.3163 3.28398 12.7163C2.68398 12.1163 2.20621 11.4108 1.85065 10.5997C1.50621 9.78856 1.33398 8.9219 1.33398 7.99967C1.33398 7.07745 1.50621 6.21078 1.85065 5.39967C2.20621 4.58856 2.68398 3.88301 3.28398 3.28301C3.88398 2.68301 4.58954 2.21078 5.40065 1.86634C6.21176 1.51079 7.07843 1.33301 8.00065 1.33301C8.92287 1.33301 9.78954 1.51079 10.6007 1.86634C11.4118 2.21078 12.1173 2.68301 12.7173 3.28301C13.3173 3.88301 13.7895 4.58856 14.134 5.39967C14.4895 6.21078 14.6673 7.07745 14.6673 7.99967C14.6673 8.9219 14.4895 9.78856 14.134 10.5997C13.7895 11.4108 13.3173 12.1163 12.7173 12.7163C12.1173 13.3163 11.4118 13.7941 10.6007 14.1497C9.78954 14.4941 8.92287 14.6663 8.00065 14.6663ZM8.00065 13.333C9.48954 13.333 10.7507 12.8163 11.784 11.783C12.8173 10.7497 13.334 9.48856 13.334 7.99967C13.334 6.51079 12.8173 5.24967 11.784 4.21634C10.7507 3.18301 9.48954 2.66634 8.00065 2.66634C6.51176 2.66634 5.25065 3.18301 4.21732 4.21634C3.18398 5.24967 2.66732 6.51079 2.66732 7.99967C2.66732 9.48856 3.18398 10.7497 4.21732 11.783C5.25065 12.8163 6.51176 13.333 8.00065 13.333Z" fill="currentColor"/>
</svg>
