<svg width="23" height="22" viewBox="0 0 23 22" fill="none" xmlns="http://www.w3.org/2000/svg">
<path fill-rule="evenodd" clip-rule="evenodd" d="M11.5 22C9.97833 22 8.54833 21.7158 7.21 21.1475C5.87167 20.5608 4.7075 19.7725 3.7175 18.7825C2.7275 17.7925 1.93917 16.6283 1.3525 15.29C0.784167 13.9517 0.5 12.5217 0.5 11C0.5 9.47833 0.784167 8.04833 1.3525 6.71C1.93917 5.37167 2.7275 4.2075 3.7175 3.2175C4.7075 2.2275 5.87167 1.44833 7.21 0.879999C8.54833 0.293333 9.97833 0 11.5 0C13.0217 0 14.4517 0.293333 15.79 0.879999C17.1283 1.44833 18.2925 2.2275 19.2825 3.2175C20.2725 4.2075 21.0517 5.37167 21.62 6.71C22.2067 8.04833 22.5 9.47833 22.5 11C22.5 12.5217 22.2067 13.9517 21.62 15.29C21.0517 16.6283 20.2725 17.7925 19.2825 18.7825C18.2925 19.7725 17.1283 20.5608 15.79 21.1475C14.4517 21.7158 13.0217 22 11.5 22ZM11.5004 7.7C11.8121 7.7 12.0687 7.59917 12.2704 7.3975C12.4904 7.1775 12.6004 6.91167 12.6004 6.6C12.6004 6.28833 12.4904 6.03167 12.2704 5.83C12.0687 5.61 11.8121 5.5 11.5004 5.5C11.1887 5.5 10.9229 5.61 10.7029 5.83C10.5012 6.03167 10.4004 6.28833 10.4004 6.6C10.4004 6.91167 10.5012 7.1775 10.7029 7.3975C10.9229 7.59917 11.1887 7.7 11.5004 7.7ZM10.4004 16.5V9.9H12.6004V16.5H10.4004Z" fill="#161B18"/>
</svg>
