<svg width="16" height="16" viewBox="0 0 16 16" fill="none" xmlns="http://www.w3.org/2000/svg">
    <path d="M7.99968 1.33277C6.68114 1.33277 5.3922 1.7238 4.29588 2.4564C3.19955 3.18901 2.34506 4.23029 1.84048 5.44857C1.3359 6.66685 1.20387 8.00741 1.46111 9.30072C1.71834 10.594 2.35328 11.782 3.28563 12.7145C4.21798 13.6469 5.40587 14.2819 6.69908 14.5391C7.99228 14.7964 9.33273 14.6644 10.5509 14.1597C11.7691 13.6551 12.8103 12.8006 13.5428 11.7041C14.2754 10.6077 14.6663 9.31866 14.6663 8.00001C14.6663 7.12446 14.4939 6.25747 14.1589 5.44857C13.8238 4.63966 13.3328 3.90467 12.7137 3.28556C12.0947 2.66645 11.3597 2.17534 10.5509 1.84028C9.74206 1.50522 8.87516 1.33277 7.99968 1.33277V1.33277ZM7.99968 13.3338C6.94484 13.3338 5.9137 13.021 5.03664 12.4349C4.15957 11.8488 3.47599 11.0158 3.07232 10.0412C2.66865 9.06654 2.56304 7.99409 2.76882 6.95944C2.97461 5.92478 3.48256 4.97439 4.22844 4.22845C4.97432 3.48251 5.92463 2.97451 6.9592 2.76871C7.99376 2.5629 9.06612 2.66853 10.0407 3.07223C11.0152 3.47593 11.8481 4.15958 12.4342 5.03671C13.0202 5.91385 13.333 6.94509 13.333 8.00001C13.333 9.41462 12.7711 10.7713 11.7709 11.7716C10.7707 12.7718 9.41417 13.3338 7.99968 13.3338V13.3338Z" fill="#1A73E8"/>
    <path d="M7.99967 5.99983C8.36786 5.99983 8.66634 5.70133 8.66634 5.33311C8.66634 4.96488 8.36786 4.66638 7.99967 4.66638C7.63148 4.66638 7.33301 4.96488 7.33301 5.33311C7.33301 5.70133 7.63148 5.99983 7.99967 5.99983Z" fill="#1A73E8"/>
    <path d="M7.99967 6.66656C7.82286 6.66656 7.65329 6.7368 7.52827 6.86184C7.40325 6.98687 7.33301 7.15645 7.33301 7.33328V10.6669C7.33301 10.8437 7.40325 11.0133 7.52827 11.1383C7.65329 11.2634 7.82286 11.3336 7.99967 11.3336C8.17649 11.3336 8.34605 11.2634 8.47108 11.1383C8.5961 11.0133 8.66634 10.8437 8.66634 10.6669V7.33328C8.66634 7.15645 8.5961 6.98687 8.47108 6.86184C8.34605 6.7368 8.17649 6.66656 7.99967 6.66656Z" fill="#1A73E8"/>
</svg>
