<svg width="20" height="21" viewBox="0 0 20 21" fill="none" xmlns="http://www.w3.org/2000/svg">
	<path d="M9.99999 18.8334C8.84721 18.8334 7.76388 18.6181 6.74999 18.1876C5.7361 17.7431 4.85416 17.1459 4.10416 16.3959C3.35416 15.6459 2.75693 14.764 2.31249 13.7501C1.88193 12.7362 1.66666 11.6529 1.66666 10.5001C1.66666 9.3473 1.88193 8.26397 2.31249 7.25008C2.75693 6.23619 3.35416 5.35425 4.10416 4.60425C4.85416 3.85425 5.7361 3.26397 6.74999 2.83341C7.76388 2.38897 8.84721 2.16675 9.99999 2.16675C11.1528 2.16675 12.2361 2.38897 13.25 2.83341C14.2639 3.26397 15.1458 3.85425 15.8958 4.60425C16.6458 5.35425 17.2361 6.23619 17.6667 7.25008C18.1111 8.26397 18.3333 9.3473 18.3333 10.5001C18.3333 11.6529 18.1111 12.7362 17.6667 13.7501C17.2361 14.764 16.6458 15.6459 15.8958 16.3959C15.1458 17.1459 14.2639 17.7431 13.25 18.1876C12.2361 18.6181 11.1528 18.8334 9.99999 18.8334Z" fill="currentColor"/>
	<path d="M9.16699 14.6668H10.8337V9.66683H9.16699V14.6668ZM10.0003 8.00016C10.2364 8.00016 10.4309 7.92377 10.5837 7.771C10.7503 7.60433 10.8337 7.40294 10.8337 7.16683C10.8337 6.93072 10.7503 6.73627 10.5837 6.5835C10.4309 6.41683 10.2364 6.3335 10.0003 6.3335C9.76421 6.3335 9.56283 6.41683 9.39616 6.5835C9.24338 6.73627 9.16699 6.93072 9.16699 7.16683C9.16699 7.40294 9.24338 7.60433 9.39616 7.771C9.56283 7.92377 9.76421 8.00016 10.0003 8.00016Z" fill="#FFF"/>
</svg>
