<svg xmlns="http://www.w3.org/2000/svg" width="20" height="20" fill="none">
  <path fill="currentColor" d="M10 18.333c-.458 0-.854-.16-1.188-.479-.319-.333-.479-.73-.479-1.188h3.334c0 .459-.167.855-.5 1.188-.32.32-.709.48-1.167.48Zm-3.333-2.5v-1.667h6.666v1.667H6.667Zm.208-2.5a6.47 6.47 0 0 1-2.292-2.292c-.555-.958-.833-2-.833-3.125 0-1.736.604-3.208 1.813-4.416C6.784 2.278 8.262 1.667 10 1.667c1.736 0 3.208.61 4.417 1.833 1.222 1.208 1.833 2.68 1.833 4.417a6.008 6.008 0 0 1-.854 3.124 6.303 6.303 0 0 1-2.271 2.292h-6.25Zm.5-1.667h5.25a4.528 4.528 0 0 0 1.438-1.645c.347-.653.52-1.355.52-2.105 0-1.277-.444-2.36-1.333-3.25-.889-.888-1.972-1.333-3.25-1.333s-2.361.445-3.25 1.333c-.889.89-1.333 1.973-1.333 3.25 0 .75.166 1.452.5 2.105a4.722 4.722 0 0 0 1.458 1.645Z"/>
</svg>
