<svg width="17" height="17" viewBox="0 0 17 17" fill="none" xmlns="http://www.w3.org/2000/svg">
<circle cx="6.3" cy="9.55098" r="6.3" fill="currentColor"/>
<circle cx="6.30156" cy="9.55059" r="4.2" fill="white"/>
<mask id="path-3-outside-1_4811_37392" maskUnits="userSpaceOnUse" x="3.55078" y="-0.449219" width="13" height="13" fill="black">
<rect fill="white" x="3.55078" y="-0.449219" width="13" height="13"/>
<path d="M11.7109 4.25391L13.585 4.18945L11.29 6.24902L10.3799 6.43066L7.91992 8.88965C8.00336 9.09379 8.05078 9.31662 8.05078 9.55078C8.05078 10.5173 7.26728 11.3008 6.30078 11.3008C5.33428 11.3008 4.55078 10.5173 4.55078 9.55078C4.55078 8.58428 5.33428 7.80078 6.30078 7.80078C6.6973 7.80078 7.06202 7.93397 7.35547 8.15625L9.65137 5.70215L9.83398 4.60938L11.834 2.55078L11.7109 4.25391Z"/>
</mask>
<path d="M11.7109 4.25391L13.585 4.18945L11.29 6.24902L10.3799 6.43066L7.91992 8.88965C8.00336 9.09379 8.05078 9.31662 8.05078 9.55078C8.05078 10.5173 7.26728 11.3008 6.30078 11.3008C5.33428 11.3008 4.55078 10.5173 4.55078 9.55078C4.55078 8.58428 5.33428 7.80078 6.30078 7.80078C6.6973 7.80078 7.06202 7.93397 7.35547 8.15625L9.65137 5.70215L9.83398 4.60938L11.834 2.55078L11.7109 4.25391Z" fill="currentColor"/>
<path d="M11.7109 4.25391L10.7563 4.18494L10.6796 5.24705L11.7438 5.21044L11.7109 4.25391ZM13.585 4.18945L14.2242 4.90177L16.1847 3.14237L13.5521 3.23292L13.585 4.18945ZM11.29 6.24902L11.4774 7.18762L11.7343 7.13634L11.9293 6.96134L11.29 6.24902ZM10.3799 6.43066L10.1926 5.49207L9.90827 5.54881L9.70324 5.75376L10.3799 6.43066ZM7.91992 8.88965L7.24328 8.21274L6.79317 8.66267L7.03397 9.25178L7.91992 8.88965ZM6.30078 11.3008V12.2579V11.3008ZM6.30078 7.80078V6.84368V7.80078ZM7.35547 8.15625L6.77756 8.91918L7.46512 9.44L8.0544 8.81012L7.35547 8.15625ZM9.65137 5.70215L10.3503 6.35602L10.5477 6.14497L10.5954 5.85991L9.65137 5.70215ZM9.83398 4.60938L9.14751 3.94244L8.93924 4.15682L8.88997 4.45162L9.83398 4.60938ZM11.834 2.55078L12.7886 2.61975L12.9779 -0.000147343L11.1475 1.88385L11.834 2.55078ZM11.7109 4.25391L11.7438 5.21044L13.6179 5.14599L13.585 4.18945L13.5521 3.23292L11.678 3.29737L11.7109 4.25391ZM13.585 4.18945L12.9457 3.47714L10.6508 5.53671L11.29 6.24902L11.9293 6.96134L14.2242 4.90177L13.585 4.18945ZM11.29 6.24902L11.1027 5.31043L10.1926 5.49207L10.3799 6.43066L10.5672 7.36926L11.4774 7.18762L11.29 6.24902ZM10.3799 6.43066L9.70324 5.75376L7.24328 8.21274L7.91992 8.88965L8.59656 9.56656L11.0565 7.10757L10.3799 6.43066ZM7.91992 8.88965L7.03397 9.25178C7.07292 9.34706 7.09368 9.44722 7.09368 9.55078H8.05078H9.00788C9.00788 9.18602 8.93381 8.84051 8.80587 8.52752L7.91992 8.88965ZM8.05078 9.55078H7.09368C7.09368 9.98869 6.73869 10.3437 6.30078 10.3437V11.3008V12.2579C7.79587 12.2579 9.00788 11.0459 9.00788 9.55078H8.05078ZM6.30078 11.3008V10.3437C5.86288 10.3437 5.50788 9.98869 5.50788 9.55078H4.55078H3.59368C3.59368 11.0459 4.80569 12.2579 6.30078 12.2579V11.3008ZM4.55078 9.55078H5.50788C5.50788 9.11288 5.86288 8.75788 6.30078 8.75788V7.80078V6.84368C4.80569 6.84368 3.59368 8.05569 3.59368 9.55078H4.55078ZM6.30078 7.80078V8.75788C6.47877 8.75788 6.64238 8.81679 6.77756 8.91918L7.35547 8.15625L7.93338 7.39332C7.48166 7.05115 6.91583 6.84368 6.30078 6.84368V7.80078ZM7.35547 8.15625L8.0544 8.81012L10.3503 6.35602L9.65137 5.70215L8.95244 5.04828L6.65654 7.50238L7.35547 8.15625ZM9.65137 5.70215L10.5954 5.85991L10.778 4.76713L9.83398 4.60938L8.88997 4.45162L8.70735 5.54439L9.65137 5.70215ZM9.83398 4.60938L10.5205 5.27631L12.5205 3.21772L11.834 2.55078L11.1475 1.88385L9.14751 3.94244L9.83398 4.60938ZM11.834 2.55078L10.8794 2.48181L10.7563 4.18494L11.7109 4.25391L12.6656 4.32288L12.7886 2.61975L11.834 2.55078Z" fill="white" mask="url(#path-3-outside-1_4811_37392)"/>
</svg>
