<svg xmlns="http://www.w3.org/2000/svg" width="20" height="20" fill="currentColor">
  <path d="M10.953 8.464h2.12c.22 0 .41-.081.573-.243a.785.785 0 0 0 .243-.574.782.782 0 0 0-.243-.573.782.782 0 0 0-.574-.244h-2.12a.785.785 0 0 0-.573.244.784.784 0 0 0-.243.573c0 .22.081.412.243.574a.787.787 0 0 0 .574.243Zm0 4.706h2.12c.22 0 .41-.082.573-.244a.782.782 0 0 0 .243-.573.785.785 0 0 0-.243-.574.784.784 0 0 0-.574-.243h-2.12c-.22 0-.41.081-.573.243a.787.787 0 0 0-.243.574c0 .22.081.411.243.573a.785.785 0 0 0 .574.244ZM6.79 9.32h1.712c.22 0 .411-.082.573-.244a.782.782 0 0 0 .244-.573V6.79a.782.782 0 0 0-.244-.573.784.784 0 0 0-.573-.243H6.79a.784.784 0 0 0-.573.243.784.784 0 0 0-.243.573v1.712c0 .22.081.411.243.573a.782.782 0 0 0 .573.244Zm0 4.704h1.712c.22 0 .411-.08.573-.242a.782.782 0 0 0 .244-.573v-1.712a.782.782 0 0 0-.244-.573.782.782 0 0 0-.573-.244H6.79a.782.782 0 0 0-.573.244.784.784 0 0 0-.243.573v1.712c0 .22.081.411.243.573a.784.784 0 0 0 .573.242ZM4.633 17c-.453 0-.839-.159-1.157-.476A1.577 1.577 0 0 1 3 15.367V4.633c0-.453.159-.839.476-1.157A1.577 1.577 0 0 1 4.633 3h10.734c.453 0 .839.159 1.157.476.317.318.476.704.476 1.157v10.734c0 .453-.159.839-.476 1.157a1.578 1.578 0 0 1-1.157.476H4.633Zm0-1.633h10.734V4.633H4.633v10.734Z"/>
</svg>
