<svg xmlns="http://www.w3.org/2000/svg" width="20" height="20" fill="currentColor">
  <path d="M8.668 12.938c.333.32.774.482 1.323.489.548.007.954-.19 1.218-.594l3.417-5.125c.139-.208.118-.402-.063-.583-.18-.18-.374-.202-.583-.063l-5.167 3.396c-.403.25-.61.642-.624 1.177-.014.535.146.97.479 1.303Zm-4.334 3.729c-.32 0-.618-.07-.895-.209a1.473 1.473 0 0 1-.646-.625 8.493 8.493 0 0 1-.834-1.989 8.207 8.207 0 0 1-.291-2.198c0-1.139.219-2.212.656-3.219a8.486 8.486 0 0 1 1.792-2.646A8.447 8.447 0 0 1 6.772 3.99a8.056 8.056 0 0 1 3.229-.657c.625 0 1.23.063 1.812.188a7.328 7.328 0 0 1 1.688.583.762.762 0 0 1 .458.604c.042.278-.041.535-.25.771a.821.821 0 0 1-.489.261.952.952 0 0 1-.573-.073 6.361 6.361 0 0 0-2.646-.584c-1.82 0-3.371.642-4.656 1.927-1.285 1.285-1.927 2.83-1.927 4.636 0 .57.083 1.135.25 1.698a7.43 7.43 0 0 0 .666 1.573h11.334a6.07 6.07 0 0 0 .687-1.615 6.768 6.768 0 0 0 .229-1.74c0-.43-.052-.87-.156-1.322a5.414 5.414 0 0 0-.469-1.282.82.82 0 0 1-.073-.583.874.874 0 0 1 .303-.479c.236-.18.486-.243.75-.188.263.056.458.216.583.48a9.51 9.51 0 0 1 .594 1.604 6.57 6.57 0 0 1 .218 1.708 8.518 8.518 0 0 1-.26 2.281 7.92 7.92 0 0 1-.844 2.052 1.451 1.451 0 0 1-.667.625c-.291.14-.59.209-.895.209H4.334Z"/>
</svg>
