<svg xmlns="http://www.w3.org/2000/svg" width="20" height="20" fill="currentColor">
  <path d="M4.94 17a1.39 1.39 0 0 1-1.02-.418 1.39 1.39 0 0 1-.418-1.022V8.226c0-.403.14-.743.418-1.022a1.388 1.388 0 0 1 1.02-.418c.403 0 .744.14 1.022.418.279.279.418.62.418 1.022v7.334c0 .403-.14.744-.418 1.022A1.39 1.39 0 0 1 4.94 17Zm5.077-.002a1.39 1.39 0 0 1-1.022-.417 1.39 1.39 0 0 1-.418-1.022l-.016-11.12c0-.402.14-.743.418-1.021A1.39 1.39 0 0 1 10.001 3c.403 0 .743.14 1.022.418.278.278.418.619.418 1.02l.015 11.12c0 .403-.14.744-.418 1.023a1.39 1.39 0 0 1-1.021.418Zm5.045.002a1.39 1.39 0 0 1-1.022-.418 1.39 1.39 0 0 1-.418-1.022v-3.62c0-.403.14-.744.418-1.022a1.39 1.39 0 0 1 1.022-.418c.402 0 .742.14 1.02.418.279.278.418.619.418 1.021v3.621c0 .403-.14.744-.418 1.022a1.388 1.388 0 0 1-1.02.418Z"/>
</svg>
