<svg xmlns="http://www.w3.org/2000/svg" width="20" height="20" fill="currentColor">
  <path d="M2.313 14.375a.836.836 0 0 1-.25-.615c0-.243.083-.447.25-.614l3.75-3.75c.5-.5 1.1-.75 1.803-.75.7 0 1.295.25 1.78.75l.958.958a.777.777 0 0 0 .574.229c.229 0 .42-.076.572-.229l3.604-3.604h-1.228a.843.843 0 0 1-.615-.26.843.843 0 0 1-.26-.615.84.84 0 0 1 .26-.615.843.843 0 0 1 .615-.26h3.333c.236 0 .44.087.614.26a.84.84 0 0 1 .26.615v3.333a.843.843 0 0 1-.26.615.843.843 0 0 1-.614.26.84.84 0 0 1-.614-.26.841.841 0 0 1-.261-.615V7.979l-3.625 3.604c-.5.5-1.101.75-1.803.75-.7 0-1.295-.25-1.78-.75l-.98-.979a.752.752 0 0 0-.552-.229.748.748 0 0 0-.551.229L3.52 14.375a.823.823 0 0 1-.603.25.824.824 0 0 1-.606-.25Z"/>
</svg>
