<svg width="22" height="22" viewBox="0 0 22 22" fill="currentColor" xmlns="http://www.w3.org/2000/svg">
<g id="Icon / 016 (S) / Edit">
<g id="Union">
<path fill-rule="evenodd" clip-rule="evenodd" d="M12.1489 7.96092L6.98342 13.1264C6.93544 13.1744 6.90273 13.2356 6.88942 13.3021L6.5385 15.0567C6.49039 15.2972 6.70246 15.5093 6.94299 15.4612L8.69758 15.1103C8.76413 15.097 8.82525 15.0642 8.87324 15.0163L14.0388 9.85073L12.1489 7.96092ZM14.4502 6.1458C14.0475 5.74307 13.3945 5.74307 12.9918 6.1458L6.49729 12.6403C6.35333 12.7843 6.2552 12.9676 6.21527 13.1673L5.86435 14.9219C5.72003 15.6435 6.35623 16.2796 7.07782 16.1353L8.83241 15.7844C9.03205 15.7445 9.21541 15.6464 9.35937 15.5024L15.8539 9.00788C16.2566 8.60515 16.2566 7.9522 15.8539 7.54947L14.4502 6.1458Z" fill="currentColor"/>
<path d="M12.1489 7.96092L12.2656 7.84425C12.2012 7.77981 12.0967 7.77981 12.0323 7.84425L12.1489 7.96092ZM6.98342 13.1264L6.86675 13.0098H6.86675L6.98342 13.1264ZM6.88942 13.3021L7.05121 13.3345L6.88942 13.3021ZM6.5385 15.0567L6.70029 15.0891L6.5385 15.0567ZM6.94299 15.4612L6.97535 15.623H6.97535L6.94299 15.4612ZM8.69758 15.1103L8.72994 15.2721H8.72994L8.69758 15.1103ZM8.87324 15.0163L8.98991 15.1329L8.98991 15.1329L8.87324 15.0163ZM14.0388 9.85073L14.1554 9.96741C14.2199 9.90297 14.2199 9.7985 14.1554 9.73406L14.0388 9.85073ZM12.9918 6.1458L13.1085 6.26247V6.26247L12.9918 6.1458ZM14.4502 6.1458L14.3335 6.26247L14.4502 6.1458ZM6.49729 12.6403L6.61396 12.757H6.61396L6.49729 12.6403ZM6.21527 13.1673L6.05347 13.1349H6.05347L6.21527 13.1673ZM5.86435 14.9219L6.02615 14.9542H6.02615L5.86435 14.9219ZM7.07782 16.1353L7.04546 15.9735H7.04546L7.07782 16.1353ZM8.83241 15.7844L8.86477 15.9462H8.86477L8.83241 15.7844ZM9.35937 15.5024L9.47604 15.6191L9.35937 15.5024ZM15.8539 9.00788L15.7372 8.89121V8.89121L15.8539 9.00788ZM15.8539 7.54947L15.9706 7.4328V7.4328L15.8539 7.54947ZM12.0323 7.84425L6.86675 13.0098L7.1001 13.2431L12.2656 8.0776L12.0323 7.84425ZM6.86675 13.0098C6.79573 13.0808 6.74732 13.1713 6.72762 13.2697L7.05121 13.3345C7.05813 13.2999 7.07514 13.2681 7.1001 13.2431L6.86675 13.0098ZM6.72762 13.2697L6.3767 15.0243L6.70029 15.0891L7.05121 13.3345L6.72762 13.2697ZM6.3767 15.0243C6.30551 15.3803 6.61936 15.6942 6.97535 15.623L6.91063 15.2994C6.78555 15.3244 6.67528 15.2141 6.70029 15.0891L6.3767 15.0243ZM6.97535 15.623L8.72994 15.2721L8.66522 14.9485L6.91063 15.2994L6.97535 15.623ZM8.72994 15.2721C8.82843 15.2524 8.91889 15.204 8.98991 15.1329L8.75656 14.8996C8.73161 14.9245 8.69983 14.9415 8.66522 14.9485L8.72994 15.2721ZM8.98991 15.1329L14.1554 9.96741L13.9221 9.73406L8.75656 14.8996L8.98991 15.1329ZM12.0323 8.0776L13.9221 9.96741L14.1554 9.73406L12.2656 7.84425L12.0323 8.0776ZM13.1085 6.26247C13.4468 5.92418 13.9952 5.92418 14.3335 6.26247L14.5669 6.02912C14.0997 5.56196 13.3423 5.56196 12.8751 6.02912L13.1085 6.26247ZM6.61396 12.757L13.1085 6.26247L12.8751 6.02912L6.38062 12.5236L6.61396 12.757ZM6.37706 13.1996C6.4106 13.0319 6.49303 12.8779 6.61396 12.757L6.38062 12.5236C6.21362 12.6906 6.09979 12.9033 6.05347 13.1349L6.37706 13.1996ZM6.02615 14.9542L6.37706 13.1996L6.05347 13.1349L5.70255 14.8895L6.02615 14.9542ZM7.04546 15.9735C6.43933 16.0948 5.90492 15.5604 6.02615 14.9542L5.70255 14.8895C5.53515 15.7265 6.27314 16.4645 7.11018 16.2971L7.04546 15.9735ZM8.80005 15.6226L7.04546 15.9735L7.11018 16.2971L8.86477 15.9462L8.80005 15.6226ZM9.2427 15.3857C9.12177 15.5066 8.96775 15.5891 8.80005 15.6226L8.86477 15.9462C9.09635 15.8999 9.30905 15.7861 9.47604 15.6191L9.2427 15.3857ZM15.7372 8.89121L9.2427 15.3857L9.47604 15.6191L15.9706 9.12455L15.7372 8.89121ZM15.7372 7.66614C16.0755 8.00444 16.0755 8.55292 15.7372 8.89121L15.9706 9.12455C16.4377 8.65739 16.4377 7.89996 15.9706 7.4328L15.7372 7.66614ZM14.3335 6.26247L15.7372 7.66614L15.9706 7.4328L14.5669 6.02912L14.3335 6.26247Z" fill="#108080"/>
</g>
</g>
</svg>
