<svg width="20" height="20" viewBox="0 0 20 20" fill="none" xmlns="http://www.w3.org/2000/svg">
<path d="M16.6663 7.49967V4.99967H14.9997V7.49967H12.4997V9.16634H14.9997V11.6663H16.6663V9.16634H19.1663V7.49967H16.6663ZM7.49967 9.99967C9.34134 9.99967 10.833 8.50801 10.833 6.66634C10.833 4.82467 9.34134 3.33301 7.49967 3.33301C5.65801 3.33301 4.16634 4.82467 4.16634 6.66634C4.16634 8.50801 5.65801 9.99967 7.49967 9.99967ZM7.49967 4.99967C8.41634 4.99967 9.16634 5.74967 9.16634 6.66634C9.16634 7.58301 8.41634 8.33301 7.49967 8.33301C6.58301 8.33301 5.83301 7.58301 5.83301 6.66634C5.83301 5.74967 6.58301 4.99967 7.49967 4.99967ZM12.8247 12.133C11.4247 11.4163 9.60801 10.833 7.49967 10.833C5.39134 10.833 3.57467 11.4163 2.17467 12.133C1.34134 12.558 0.833008 13.4163 0.833008 14.3497V16.6663H14.1663V14.3497C14.1663 13.4163 13.658 12.558 12.8247 12.133ZM12.4997 14.9997H2.49967V14.3497C2.49967 14.033 2.66634 13.7497 2.93301 13.6163C3.92467 13.108 5.52467 12.4997 7.49967 12.4997C9.47467 12.4997 11.0747 13.108 12.0663 13.6163C12.333 13.7497 12.4997 14.033 12.4997 14.3497V14.9997Z" fill="currentColor"/>
</svg>
