<svg width="24" height="24" viewBox="0 0 24 24" fill="none" xmlns="http://www.w3.org/2000/svg">
<mask id="path-1-inside-1_3657_24129" fill="white">
<path d="M12 2C16.9707 2 21.001 6.02927 21.001 11C21.001 13.2824 20.1512 15.3666 18.751 16.9531C18.2234 17.5509 17.6171 18.078 16.9492 18.5186C16.2454 18.9827 15.4726 19.3514 14.6494 19.6045C14.478 19.6572 14.3035 19.7026 14.1279 19.7451C10.5087 21.8231 5 23 5 23C5.02317 22.9826 7.68924 20.9755 8.05273 19.0889C7.70616 18.9194 7.37158 18.7295 7.05176 18.5186C6.42449 18.1049 5.85202 17.6147 5.34766 17.0615C3.88944 15.462 3.00001 13.335 3 11C3 6.02937 7.02941 2.00017 12 2Z"/>
</mask>
<path d="M12 2V0.5H11.9999L12 2ZM21.001 11L22.501 11V11H21.001ZM18.751 16.9531L19.8756 17.9457L19.8756 17.9457L18.751 16.9531ZM16.9492 18.5186L17.7751 19.7707L17.7751 19.7707L16.9492 18.5186ZM14.6494 19.6045L15.0902 21.0383L15.0903 21.0382L14.6494 19.6045ZM14.1279 19.7451L13.7745 18.2873L13.5666 18.3378L13.3811 18.4443L14.1279 19.7451ZM5 23L4.09897 21.8008L-1.34207 25.8888L5.3134 24.4669L5 23ZM8.05273 19.0889L9.52565 19.3726L9.74281 18.2455L8.7116 17.7413L8.05273 19.0889ZM7.05176 18.5186L6.22592 19.7707L6.22593 19.7708L7.05176 18.5186ZM5.34766 17.0615L4.23917 18.0721L4.23918 18.0721L5.34766 17.0615ZM3 11H1.5V11L3 11ZM12 2V3.5C16.1425 3.5 19.501 6.85791 19.501 11H21.001H22.501C22.501 5.20063 17.7989 0.5 12 0.5V2ZM21.001 11L19.501 11C19.501 12.903 18.794 14.6375 17.6263 15.9606L18.751 16.9531L19.8756 17.9457C21.5084 16.0957 22.501 13.6619 22.501 11L21.001 11ZM18.751 16.9531L17.6264 15.9605C17.1864 16.459 16.6806 16.8989 16.1233 17.2664L16.9492 18.5186L17.7751 19.7707C18.5537 19.2572 19.2604 18.6427 19.8756 17.9457L18.751 16.9531ZM16.9492 18.5186L16.1234 17.2664C15.5361 17.6537 14.8926 17.9604 14.2085 18.1707L14.6494 19.6045L15.0903 21.0382C16.0525 20.7423 16.9547 20.3118 17.7751 19.7707L16.9492 18.5186ZM14.6494 19.6045L14.2086 18.1707C14.0778 18.2109 13.9358 18.2482 13.7745 18.2873L14.1279 19.7451L14.4813 21.2029C14.6712 21.1569 14.8782 21.1034 15.0902 21.0383L14.6494 19.6045ZM14.1279 19.7451L13.3811 18.4443C11.72 19.398 9.56684 20.1727 7.77207 20.7162C6.88585 20.9845 6.10875 21.19 5.55454 21.3282C5.27775 21.3971 5.0574 21.4491 4.90781 21.4835C4.83304 21.5007 4.77602 21.5134 4.73853 21.5217C4.71979 21.5259 4.70594 21.5289 4.69721 21.5308C4.69285 21.5318 4.68976 21.5324 4.68798 21.5328C4.68709 21.533 4.68653 21.5331 4.6863 21.5332C4.68618 21.5332 4.68615 21.5332 4.6862 21.5332C4.68622 21.5332 4.68632 21.5332 4.68633 21.5332C4.68645 21.5331 4.6866 21.5331 5 23C5.3134 24.4669 5.31359 24.4669 5.31379 24.4668C5.31389 24.4668 5.31411 24.4667 5.31431 24.4667C5.31469 24.4666 5.31516 24.4665 5.31571 24.4664C5.31682 24.4662 5.31826 24.4659 5.32003 24.4655C5.32358 24.4647 5.32845 24.4637 5.33461 24.4623C5.34695 24.4596 5.36447 24.4558 5.38697 24.4508C5.43194 24.4409 5.4968 24.4263 5.57973 24.4073C5.74554 24.3692 5.98383 24.3129 6.28004 24.2391C6.87181 24.0916 7.69809 23.8731 8.64146 23.5874C10.5058 23.0229 12.9167 22.1702 14.8748 21.046L14.1279 19.7451ZM5 23L5.90103 24.1992C5.94203 24.1684 6.68443 23.6084 7.47742 22.7877C8.21163 22.0279 9.25427 20.7812 9.52565 19.3726L8.05273 19.0889L6.57982 18.8051C6.48771 19.2832 6.01557 19.9833 5.32007 20.7031C4.68337 21.362 4.08114 21.8142 4.09897 21.8008L5 23ZM8.05273 19.0889L8.7116 17.7413C8.42011 17.5988 8.14153 17.4404 7.87759 17.2664L7.05176 18.5186L6.22593 19.7708C6.60163 20.0185 6.99221 20.24 7.39386 20.4364L8.05273 19.0889ZM7.05176 18.5186L7.8776 17.2664C7.35464 16.9215 6.87703 16.5126 6.45613 16.0509L5.34766 17.0615L4.23918 18.0721C4.82701 18.7169 5.49434 19.2883 6.22592 19.7707L7.05176 18.5186ZM5.34766 17.0615L6.45614 16.0509C5.23983 14.7168 4.50001 12.9465 4.5 11L3 11L1.5 11C1.50002 13.7234 2.53905 16.2073 4.23917 18.0721L5.34766 17.0615ZM3 11H4.5C4.5 6.85785 7.8578 3.50014 12.0001 3.5L12 2L11.9999 0.5C6.20102 0.500195 1.5 5.20089 1.5 11H3Z" fill="#6C726E" mask="url(#path-1-inside-1_3657_24129)"/>
<path d="M11.7959 16C12.1205 16 12.3931 15.8961 12.6137 15.6883C12.835 15.4812 12.9456 15.2256 12.9456 14.9215C12.9456 14.6168 12.835 14.3609 12.6137 14.1537C12.3931 13.9459 12.1205 13.8421 11.7959 13.8421C11.4721 13.8421 11.1999 13.9459 10.9793 14.1537C10.758 14.3609 10.6473 14.6168 10.6473 14.9215C10.6473 15.2256 10.758 15.4812 10.9793 15.6883C11.1999 15.8961 11.4721 16 11.7959 16ZM11.9062 7.4728C12.3192 7.4728 12.6543 7.5767 12.9117 7.78449C13.1698 7.99162 13.2988 8.25419 13.2988 8.57218C13.2988 8.79392 13.2178 9.02926 13.0559 9.27822C12.894 9.52717 12.6656 9.76916 12.3708 10.0042C11.8992 10.3912 11.5566 10.7474 11.3431 11.0727C11.1295 11.3973 11.0228 11.719 11.0228 12.0376C11.0228 12.2448 11.0967 12.4174 11.2444 12.5555C11.3915 12.6942 11.5828 12.7636 11.8182 12.7636C12.0395 12.7636 12.2347 12.6942 12.4037 12.5555C12.5734 12.4174 12.6801 12.2308 12.724 11.9958C12.7685 11.7747 12.8682 11.564 13.023 11.3635C13.1772 11.1623 13.431 10.9027 13.7846 10.5847C14.2562 10.1698 14.5768 9.80003 14.7465 9.47539C14.9155 9.15009 15 8.79392 15 8.40688C15 7.68723 14.7203 7.10634 14.1611 6.6642C13.6011 6.22139 12.8643 5.99999 11.9508 5.99999C11.3321 5.99999 10.7908 6.11417 10.327 6.34255C9.86318 6.57092 9.46192 6.91315 9.12324 7.36924C9.00516 7.52127 8.97193 7.68723 9.02354 7.86715C9.07516 8.04706 9.18192 8.19908 9.34384 8.32323C9.53546 8.46198 9.75252 8.50712 9.99505 8.45866C10.2383 8.4102 10.4408 8.28207 10.6028 8.07427C10.7647 7.88109 10.9528 7.73271 11.167 7.62914C11.3805 7.52492 11.6269 7.4728 11.9062 7.4728Z" fill="#6C726E"/>
</svg>
