<svg width="30" height="30" fill="none" xmlns="http://www.w3.org/2000/svg"><path fill-rule="evenodd" clip-rule="evenodd" d="M14.985 0C6.705 0 0 6.72 0 15c0 8.28 6.705 15 14.985 15C23.28 30 30 23.28 30 15c0-8.28-6.72-15-15.015-15zM15 27C8.37 27 3 21.63 3 15S8.37 3 15 3s12 5.37 12 12-5.37 12-12 12zm7.5-15.75a2.247 2.247 0 01-2.25 2.25A2.247 2.247 0 0118 11.25 2.247 2.247 0 0120.25 9a2.247 2.247 0 012.25 2.25zM9.75 13.5A2.247 2.247 0 0012 11.25 2.247 2.247 0 009.75 9a2.247 2.247 0 00-2.25 2.25 2.247 2.247 0 002.25 2.25zm-2.415 9c1.2-3.06 4.17-5.25 7.665-5.25s6.465 2.19 7.665 5.25H7.335z" fill="currentColor"/></svg>