<svg width="20" height="20" viewBox="0 0 20 20" fill="none" xmlns="http://www.w3.org/2000/svg">
<path d="M2.50065 13.3333C2.05621 13.3333 1.66732 13.1667 1.33398 12.8333C1.00065 12.5 0.833984 12.1111 0.833984 11.6667V10C0.833984 9.90278 0.847873 9.79861 0.875651 9.6875C0.903429 9.57639 0.931207 9.47222 0.958984 9.375L3.45898 3.5C3.58398 3.22222 3.79232 2.98611 4.08398 2.79167C4.37565 2.59722 4.68121 2.5 5.00065 2.5H14.1673V13.3333L8.33398 19.1667L7.29232 18.125C7.1951 18.0278 7.11176 17.8958 7.04232 17.7292C6.98676 17.5625 6.95898 17.4028 6.95898 17.25V16.9583L7.87565 13.3333H2.50065ZM12.5007 4.16667H5.00065L2.50065 10V11.6667H10.0007L8.87565 16.25L12.5007 12.625V4.16667ZM12.5007 12.625V11.6667V10V4.16667V12.625ZM14.1673 13.3333V11.6667H16.6673V4.16667H14.1673V2.5H18.334V13.3333H14.1673Z" fill="currentColor"/>
</svg>
