<svg width="20" height="20" viewBox="0 0 20 20" fill="none" xmlns="http://www.w3.org/2000/svg">
<path d="M14.9994 17.4997H5.83268V6.66634L11.666 0.833008L12.7077 1.87467C12.8049 1.9719 12.8813 2.10384 12.9368 2.27051C13.0063 2.43717 13.041 2.5969 13.041 2.74967V3.04134L12.1243 6.66634H17.4994C17.9438 6.66634 18.3327 6.83301 18.666 7.16634C18.9993 7.49967 19.166 7.88856 19.166 8.33301V9.99967C19.166 10.0969 19.1521 10.2011 19.1243 10.3122C19.0966 10.4233 19.0688 10.5275 19.041 10.6247L16.541 16.4997C16.416 16.7775 16.2077 17.0136 15.916 17.208C15.6243 17.4025 15.3188 17.4997 14.9994 17.4997ZM7.49935 15.833H14.9994L17.4994 9.99967V8.33301H9.99935L11.1243 3.74967L7.49935 7.37467V15.833ZM7.49935 7.37467V8.33301V9.99967V15.833V7.37467ZM5.83268 6.66634V8.33301H3.33268V15.833H5.83268V17.4997H1.66602V6.66634H5.83268Z" fill="currentColor"/>
</svg>
