<svg width="16" height="10" viewBox="0 0 16 10" fill="none" xmlns="http://www.w3.org/2000/svg">
<path d="M8 1.33333C10.7564 1.33333 13.2145 2.75333 14.4145 5C13.2145 7.24667 10.7564 8.66667 8 8.66667C5.24364 8.66667 2.78545 7.24667 1.58545 5C2.78545 2.75333 5.24364 1.33333 8 1.33333ZM8 0C4.36364 0 1.25818 2.07333 0 5C1.25818 7.92667 4.36364 10 8 10C11.6364 10 14.7418 7.92667 16 5C14.7418 2.07333 11.6364 0 8 0ZM8 3.33333C9.00364 3.33333 9.81818 4.08 9.81818 5C9.81818 5.92 9.00364 6.66667 8 6.66667C6.99636 6.66667 6.18182 5.92 6.18182 5C6.18182 4.08 6.99636 3.33333 8 3.33333ZM8 2C6.19636 2 4.72727 3.34667 4.72727 5C4.72727 6.65333 6.19636 8 8 8C9.80364 8 11.2727 6.65333 11.2727 5C11.2727 3.34667 9.80364 2 8 2Z" fill="currentColor" />
</svg>
