<svg xmlns="http://www.w3.org/2000/svg" width="19" height="19" viewBox="0 0 19 19" fill="none">
  <path d="M12.907 10.5229L11.8195 9.43545C11.932 8.84795 11.7633 8.29795 11.3133 7.78545C10.8633 7.27295 10.282 7.07295 9.56953 7.18545L8.48203 6.09795C8.69453 5.99795 8.90703 5.92295 9.11953 5.87295C9.34453 5.82295 9.58203 5.79795 9.83203 5.79795C10.7695 5.79795 11.5633 6.1292 12.2133 6.7917C12.8758 7.4417 13.207 8.23545 13.207 9.17295C13.207 9.42295 13.182 9.66045 13.132 9.88545C13.082 10.098 13.007 10.3105 12.907 10.5229ZM15.307 12.8854L14.2195 11.8355C14.6945 11.4729 15.1133 11.0792 15.4758 10.6542C15.8508 10.2167 16.1695 9.72295 16.432 9.17295C15.807 7.91045 14.907 6.91045 13.732 6.17295C12.5695 5.42295 11.2695 5.04795 9.83203 5.04795C9.46953 5.04795 9.11328 5.07295 8.76328 5.12295C8.41328 5.17295 8.06953 5.24795 7.73203 5.34795L6.56953 4.18545C7.08203 3.97295 7.60703 3.8167 8.14453 3.7167C8.68203 3.6042 9.24453 3.54795 9.83203 3.54795C11.7195 3.54795 13.4008 4.07295 14.8758 5.12295C16.3508 6.16045 17.4195 7.51045 18.082 9.17295C17.7945 9.91045 17.4133 10.598 16.9383 11.2355C16.4758 11.8605 15.932 12.4104 15.307 12.8854ZM15.682 17.498L12.532 14.3854C12.0945 14.523 11.6508 14.6292 11.2008 14.7042C10.7633 14.7667 10.307 14.798 9.83203 14.798C7.94453 14.798 6.26328 14.2792 4.78828 13.2417C3.31328 12.1917 2.24453 10.8355 1.58203 9.17295C1.84453 8.51045 2.17578 7.89795 2.57578 7.33545C2.97578 6.76045 3.43203 6.24795 3.94453 5.79795L1.88203 3.69795L2.93203 2.64795L16.732 16.448L15.682 17.498ZM4.99453 6.84795C4.63203 7.17295 4.30078 7.5292 4.00078 7.9167C3.70078 8.3042 3.44453 8.72295 3.23203 9.17295C3.85703 10.4355 4.75078 11.4417 5.91328 12.1917C7.08828 12.9292 8.39453 13.298 9.83203 13.298C10.082 13.298 10.3258 13.2854 10.5633 13.2604C10.8008 13.2229 11.0445 13.1854 11.2945 13.148L10.6195 12.4355C10.482 12.473 10.3508 12.5042 10.2258 12.5292C10.1008 12.5417 9.96953 12.548 9.83203 12.548C8.89453 12.548 8.09453 12.223 7.43203 11.573C6.78203 10.9105 6.45703 10.1105 6.45703 9.17295C6.45703 9.03545 6.46328 8.9042 6.47578 8.7792C6.50078 8.6542 6.53203 8.52295 6.56953 8.38545L4.99453 6.84795Z" fill="#108080"/>
</svg>