<svg width="25" height="25" viewBox="0 0 25 25" fill="none" xmlns="http://www.w3.org/2000/svg">
<path fill-rule="evenodd" clip-rule="evenodd" d="M1.83203 12.833C1.83203 6.75788 6.7569 1.83301 12.832 1.83301C18.9072 1.83301 23.832 6.75788 23.832 12.833C23.832 18.9081 18.9072 23.833 12.832 23.833C6.7569 23.833 1.83203 18.9081 1.83203 12.833ZM13.832 6.83301V7.83301V12.833V13.833L11.832 13.833V12.833V7.83301V6.83301H13.832ZM12.832 18.833C13.6605 18.833 14.332 18.1614 14.332 17.333C14.332 16.5045 13.6605 15.833 12.832 15.833C12.0036 15.833 11.332 16.5045 11.332 17.333C11.332 18.1614 12.0036 18.833 12.832 18.833Z" fill="currentColor"/>
</svg>
