<svg xmlns="http://www.w3.org/2000/svg" xmlns:xlink="http://www.w3.org/1999/xlink"><defs><path d="M42.5 18H22v8.5h11.8C32.7 31.9 28.1 35 22 35c-7.2 0-13-5.8-13-13S14.8 9 22 9c3.1 0 5.9 1.1 8.1 2.9l6.4-6.4C32.6 2.1 27.6 0 22 0 9.8 0 0 9.8 0 22s9.8 22 22 22c11 0 21-8 21-22 0-1.3-.2-2.7-.5-4z" id="a"/></defs><symbol id="adsense" viewBox="0 0 173 152"><g fill="none" fill-rule="evenodd"><path d="M107.91 41.72c7.73-13.22 3.14-30.12-10.24-37.75C84.29-3.66 67.18.87 59.45 14.09c-.35.59-.66 1.2-.96 1.81l-26.1 44.66a27.172 27.172 0 00-1.6 2.75L3.67 110.1l48.45 27.16 26.98-46.4c.29-.44.57-.89.84-1.35.27-.46.52-.93.76-1.39l26.11-44.67c.38-.57.76-1.14 1.1-1.73z" fill="#FBBC04"/><path d="M52.34 137.11c-7.68 13.43-25 18.38-38.31 10.62-13.31-7.76-18.02-24.57-10.34-38s24.86-18.39 38.16-10.64c13.3 7.75 18.18 24.59 10.49 38.02z" fill="#34A853"/><path d="M158.79 51.86c-13.23-7.62-30.15-3.1-37.79 10.1l-27.66 47.8c-7.64 13.2-3.11 30.08 10.13 37.7 13.23 7.62 30.15 3.1 37.79-10.1l27.66-47.8c7.63-13.2 3.1-30.08-10.13-37.7z" fill="#4285F4"/></g></symbol><symbol id="analytics" viewBox="0 0 48 53"><g fill="none" fill-rule="evenodd"><path d="M48 46.376a6.629 6.629 0 01-2.18 4.952 6.466 6.466 0 01-5.11 1.625c-3.339-.495-5.789-3.433-5.708-6.848V6.891C34.925 3.475 37.379.537 40.72.045a6.469 6.469 0 015.102 1.631A6.63 6.63 0 0148 6.622v39.754z" fill="#F9AB00"/><path d="M6.5 40.002a6.489 6.489 0 014.594 1.901 6.51 6.51 0 011.906 4.6 6.51 6.51 0 01-1.906 4.596A6.489 6.489 0 016.5 53a6.489 6.489 0 01-4.594-1.9A6.51 6.51 0 010 46.501a6.51 6.51 0 011.905-4.6A6.489 6.489 0 016.5 40v.002zM24.348 20.002c-3.62.197-6.429 3.256-6.346 6.908v17.644c0 4.79 2.092 7.696 5.16 8.314a6.498 6.498 0 005.442-1.358A6.61 6.61 0 0031 46.4V26.605a6.624 6.624 0 00-1.912-4.668A6.519 6.519 0 0024.459 20l-.111.002z" fill="#E37400" fill-rule="nonzero"/></g></symbol><symbol id="arrow-angled" viewBox="0 0 7 7"><path d="M1.704 6.04l3.64-3.641V5.58a.464.464 0 00.789.329.459.459 0 00.134-.326V1.287a.459.459 0 00-.46-.46L1.512.821a.46.46 0 000 .92l3.182.006-3.641 3.64a.462.462 0 000 .653c.18.179.473.179.652 0z" fill="#FFF" fill-rule="evenodd"/></symbol><symbol id="arrow-back" viewBox="0 0 8 7"><path d="M6.722 3.96H1.573l2.25 2.25a.464.464 0 01-.325.79.459.459 0 01-.325-.135L.135 3.827a.459.459 0 010-.65L3.168.135a.46.46 0 11.65.65L1.573 3.039h5.15c.253 0 .46.207.46.46a.462.462 0 01-.46.462z" fill="#1A73E8" fill-rule="evenodd"/></symbol><symbol id="arrow-dropdown" viewBox="7 10 10 5"><path fill-rule="evenodd" opacity=".54" d="M7 10l5 5 5-5z"/></symbol><symbol id="arrow-external" viewBox="0 0 13 13"><g fill="none" fill-rule="evenodd"><path d="M11 11H2V2h3V0H2a2 2 0 00-2 2v9a2 2 0 002 2h9c1.1 0 2-.9 2-2V8h-2v3z" fill="#1A73E8" fill-rule="nonzero"/><path fill="#1A73E8" d="M7 0h6v2H7zM11 2h2v4h-2z"/><path d="M11 2L5 8" stroke="#1A73E8" stroke-width="2" stroke-linecap="square"/></g></symbol><symbol id="arrow-link" viewBox="0 0 13 13"><g fill="none" fill-rule="evenodd"><circle fill="#1A73E8" cx="6.5" cy="6.5" r="6.5"/><path d="M3.461 6.96h5.15L6.36 9.21a.464.464 0 00.325.79.459.459 0 00.325-.135l3.037-3.038a.459.459 0 000-.65L7.015 3.135a.46.46 0 00-.65.65L8.61 6.039H3.461a.462.462 0 00-.461.46c0 .254.207.462.461.462z" fill="#FFF"/></g></symbol><symbol id="arrow-negative" viewBox="0 0 10 10"><path fill-rule="evenodd" clip-rule="evenodd" d="M4.375 0v7.625l-3.5-3.5L0 5l5 5 5-5-.875-.875-3.5 3.5V0h-1.25z" fill="#EA4335"/></symbol><symbol id="arrow-positive" viewBox="0 0 10 10"><path fill-rule="evenodd" clip-rule="evenodd" d="M5.625 10V2.375l3.5 3.5L10 5 5 0 0 5l.875.875 3.5-3.5V10h1.25z" fill="#3FA65A"/></symbol><symbol id="arrow" viewBox="0 0 8 7"><path d="M.461 3.96h5.15L3.36 6.21a.464.464 0 00.325.79.459.459 0 00.325-.135l3.037-3.038a.459.459 0 000-.65L4.015.135a.46.46 0 10-.65.65L5.61 3.039H.461a.462.462 0 00-.461.46c0 .254.207.462.461.462z" fill="#FFF" fill-rule="nonzero"/></symbol><symbol id="check" viewBox="0 0 16 12"><g fill="#FFF" fill-rule="evenodd"><path d="M0 6.414L1.415 5l5.292 5.292-1.414 1.415z"/><path d="M14.146.146l1.415 1.414L5.414 11.707 4 10.292z"/></g></symbol><symbol id="chevron-down" viewBox="0 0 12 8"><path d="M10.6.6L12 2 6 8 0 2 1.4.6 6 5.2z" fill="#5B5B61" fill-rule="evenodd"/></symbol><symbol id="chevron" viewBox="0 0 8 12"><path fill-rule="evenodd" clip-rule="evenodd" d="M.6 1.4L2 0l6 6-6 6-1.4-1.4L5.2 6 .6 1.4z" fill="#5B5B61"/></symbol><symbol id="dashboard" viewBox="0 0 13 13"><path d="M0 7.222h5.778V0H0v7.222zM0 13h5.778V8.667H0V13zm7.222 0H13V5.778H7.222V13zm0-13v4.333H13V0H7.222z"/></symbol><symbol id="error" viewBox="0 0 28 25"><path d="M3.332 24.75h21.335c2.182 0 3.542-2.366 2.451-4.25L16.451 2.07C15.36.184 12.64.184 11.549 2.07L.882 20.5c-1.091 1.884.269 4.25 2.45 4.25zM14 14.833a1.42 1.42 0 01-1.417-1.416v-2.834c0-.779.638-1.416 1.417-1.416.78 0 1.417.637 1.417 1.416v2.834A1.42 1.42 0 0114 14.833zm1.417 5.667h-2.834v-2.833h2.834V20.5z" fill="#EA4336" fill-rule="nonzero"/></symbol><symbol id="exclamation" viewBox="0 0 2 12"><g fill="#FFF" fill-rule="evenodd"><path d="M0 0h2v7H0zM0 10h2v2H0z"/></g></symbol><symbol id="info" viewBox="0 0 2 11"><g fill="#FFF" fill-rule="evenodd"><path d="M0 4h2v7H0zM0 0h2v2H0z"/></g></symbol><symbol id="lock" viewBox="0 0 23 30"><path d="M20 10h-1.429V7.143C18.571 3.2 15.371 0 11.43 0a7.145 7.145 0 00-7.143 7.143V10H2.857A2.866 2.866 0 000 12.857v14.286A2.866 2.866 0 002.857 30H20a2.866 2.866 0 002.857-2.857V12.857A2.866 2.866 0 0020 10zm-8.571 12.857A2.866 2.866 0 018.57 20a2.866 2.866 0 012.858-2.857A2.866 2.866 0 0114.286 20a2.866 2.866 0 01-2.857 2.857zM15.857 10H7V7.143a4.432 4.432 0 014.429-4.429 4.432 4.432 0 014.428 4.429V10z" fill="#3C4043"/></symbol><symbol id="logo-g" viewBox="0 0 43 44"><g fill="none" fill-rule="evenodd"><path d="M2.253 12.252l7.399 5.658A13.055 13.055 0 009 22c0 1.43.229 2.805.652 4.09l-7.4 5.658A22.02 22.02 0 010 22c0-3.506.81-6.814 2.253-9.748z" fill="#FBBC05"/><path d="M9.652 17.91l-7.4-5.658A21.935 21.935 0 0122 0c5.6 0 10.6 2.1 14.5 5.5l-6.4 6.4C27.9 10.1 25.1 9 22 9c-5.77 0-10.64 3.725-12.348 8.91z" fill="#EA4335"/><path d="M2.25 31.742l7.396-5.67A12.975 12.975 0 0022 35c6.1 0 10.7-3.1 11.8-8.5H22V18h20.5c.3 1.3.5 2.7.5 4 0 14-10 22-21 22A21.935 21.935 0 012.25 31.742z" fill="#34A853"/><path d="M36.34 38.52l-7.025-5.437c2.297-1.45 3.895-3.685 4.485-6.583H22V18h20.5c.3 1.3.5 2.7.5 4 0 7.17-2.623 12.767-6.66 16.52z" fill="#4285F4"/></g></symbol><symbol id="logo-g_white" viewBox="0 0 43 44"><use fill="#FFF" xlink:href="#a" fill-rule="evenodd"/></symbol><symbol id="logo-google-cloud" viewBox="0 0 33 27"><g fill-rule="nonzero" fill="none"><path d="M20.85 7.41h1l2.85-2.85.14-1.21A12.81 12.81 0 004 9.6a1.55 1.55 0 011-.06l5.7-.94s.29-.48.44-.45a7.11 7.11 0 019.73-.74h-.02z" fill="#EA4335"/><path d="M28.76 9.6a12.84 12.84 0 00-3.87-6.24l-4 4A7.11 7.11 0 0123.5 13v.71a3.56 3.56 0 010 7.12h-7.12l-.71.72v4.27l.71.71h7.12A9.26 9.26 0 0028.76 9.6z" fill="#4285F4"/><path d="M9.25 26.49h7.12v-5.7H9.25a3.54 3.54 0 01-1.47-.32l-1 .31-2.87 2.85-.25 1a9.21 9.21 0 005.59 1.86z" fill="#34A853"/><path d="M9.25 8a9.26 9.26 0 00-5.59 16.6l4.13-4.13a3.56 3.56 0 114.71-4.71l4.13-4.13A9.25 9.25 0 009.25 8z" fill="#FBBC05"/></g></symbol><symbol id="logo-google" viewBox="0 0 75 24"><g fill="none" fill-rule="evenodd"><path d="M9.487 18.618C4.334 18.618 0 14.441 0 9.31 0 4.18 4.334 0 9.487 0c2.852 0 4.881 1.113 6.41 2.566L14.094 4.36C13 3.34 11.517 2.543 9.487 2.543c-3.763 0-6.705 3.02-6.705 6.766 0 3.747 2.942 6.767 6.705 6.767 2.44 0 3.832-.977 4.722-1.862.73-.727 1.21-1.77 1.39-3.202H9.487V8.47h8.6c.09.454.136 1 .136 1.59 0 1.907-.525 4.268-2.213 5.95-1.642 1.701-3.74 2.61-6.523 2.61" fill="#4285F4"/><path d="M28.925 12.624c0-2.157-1.546-3.633-3.337-3.633-1.791 0-3.337 1.476-3.337 3.633 0 2.134 1.546 3.633 3.337 3.633 1.79 0 3.337-1.499 3.337-3.633m2.598 0c0 3.452-2.665 5.995-5.935 5.995-3.27 0-5.934-2.543-5.934-5.995 0-3.474 2.665-5.994 5.934-5.994 3.27 0 5.935 2.52 5.935 5.994" fill="#EA4335"/><path d="M42.227 12.624c0-2.157-1.544-3.633-3.336-3.633-1.791 0-3.337 1.476-3.337 3.633 0 2.134 1.545 3.633 3.337 3.633 1.791 0 3.337-1.499 3.337-3.633m2.597 0c0 3.452-2.665 5.995-5.934 5.995-3.268 0-5.934-2.543-5.934-5.995 0-3.474 2.666-5.994 5.934-5.994 3.27 0 5.934 2.52 5.934 5.994" fill="#FBBC04"/><path d="M55.47 12.647c0-2.111-1.414-3.656-3.215-3.656-1.825 0-3.353 1.545-3.353 3.656 0 2.089 1.528 3.61 3.353 3.61 1.8 0 3.215-1.521 3.215-3.61zm2.326-5.654v10.763c0 4.428-2.622 6.244-5.724 6.244-2.92 0-4.675-1.953-5.336-3.542l2.302-.954c.41.976 1.414 2.134 3.034 2.134 1.984 0 3.216-1.225 3.216-3.519v-.863h-.091c-.593.727-1.734 1.362-3.17 1.362-3.011 0-5.771-2.61-5.771-5.971 0-3.383 2.76-6.017 5.77-6.017 1.437 0 2.578.636 3.17 1.34h.092v-.977h2.508z" fill="#4285F4"/><path fill="#34A853" d="M59.787 18.255h2.646V.636h-2.646z"/><path d="M66.516 12.443l5.383-2.225c-.297-.75-1.186-1.272-2.236-1.272-1.345 0-3.214 1.18-3.147 3.497m6.317 2.157l2.053 1.362c-.66.977-2.258 2.656-5.017 2.656-3.42 0-5.891-2.633-5.891-5.993 0-3.565 2.492-5.994 5.595-5.994 3.125 0 4.653 2.474 5.154 3.813l.273.682-8.05 3.315c.616 1.203 1.573 1.816 2.919 1.816 1.345 0 2.28-.658 2.964-1.657" fill="#EA4335"/></g></symbol><symbol id="logo-google_solid" viewBox="0 0 75 24"><g fill-rule="nonzero"><path d="M9.487 18.618C4.334 18.618 0 14.441 0 9.31 0 4.18 4.334 0 9.487 0c2.852 0 4.881 1.113 6.41 2.566L14.094 4.36C13 3.34 11.517 2.543 9.487 2.543c-3.763 0-6.705 3.02-6.705 6.766 0 3.747 2.942 6.767 6.705 6.767 2.44 0 3.832-.977 4.722-1.862.73-.727 1.21-1.77 1.39-3.202H9.487V8.47h8.6c.09.454.136 1 .136 1.59 0 1.907-.525 4.268-2.213 5.95-1.642 1.701-3.74 2.61-6.523 2.61M28.925 12.624c0-2.157-1.546-3.633-3.337-3.633-1.791 0-3.337 1.476-3.337 3.633 0 2.134 1.546 3.633 3.337 3.633 1.79 0 3.337-1.499 3.337-3.633m2.598 0c0 3.452-2.665 5.995-5.935 5.995-3.27 0-5.934-2.543-5.934-5.995 0-3.474 2.665-5.994 5.934-5.994 3.27 0 5.935 2.52 5.935 5.994M42.227 12.624c0-2.157-1.544-3.633-3.336-3.633-1.791 0-3.337 1.476-3.337 3.633 0 2.134 1.545 3.633 3.337 3.633 1.791 0 3.337-1.499 3.337-3.633m2.597 0c0 3.452-2.665 5.995-5.934 5.995-3.268 0-5.934-2.543-5.934-5.995 0-3.474 2.666-5.994 5.934-5.994 3.27 0 5.934 2.52 5.934 5.994M55.47 12.647c0-2.111-1.414-3.656-3.215-3.656-1.825 0-3.353 1.545-3.353 3.656 0 2.089 1.528 3.61 3.353 3.61 1.8 0 3.215-1.521 3.215-3.61zm2.326-5.654v10.763c0 4.428-2.622 6.244-5.724 6.244-2.92 0-4.675-1.953-5.336-3.542l2.302-.954c.41.976 1.414 2.134 3.034 2.134 1.984 0 3.216-1.225 3.216-3.519v-.863h-.091c-.593.727-1.734 1.362-3.17 1.362-3.011 0-5.771-2.61-5.771-5.971 0-3.383 2.76-6.017 5.77-6.017 1.437 0 2.578.636 3.17 1.34h.092v-.977h2.508zM59.787 18.255h2.646V.636h-2.646zM66.516 12.443l5.383-2.225c-.297-.75-1.186-1.272-2.236-1.272-1.345 0-3.214 1.18-3.147 3.497m6.317 2.157l2.053 1.362c-.66.977-2.258 2.656-5.017 2.656-3.42 0-5.891-2.633-5.891-5.993 0-3.565 2.492-5.994 5.595-5.994 3.125 0 4.653 2.474 5.154 3.813l.273.682-8.05 3.315c.616 1.203 1.573 1.816 2.919 1.816 1.345 0 2.28-.658 2.964-1.657"/></g></symbol><symbol id="logo-sitekit" viewBox="0 0 80 21"><path d="M62.09 1.664h3.038v.1L58.34 9.593l7.241 10.224v.1H62.7L56.755 11.4 53.95 14.64v5.278h-2.351V1.664h2.35v9.415h.1l8.04-9.415zM69.984 3.117c0 .454-.166.853-.487 1.175-.322.322-.71.488-1.176.488-.455 0-.854-.166-1.175-.488a1.599 1.599 0 01-.488-1.175c0-.466.166-.854.488-1.176.321-.322.71-.488 1.175-.488.455 0 .854.166 1.176.488.332.333.487.72.487 1.176zm-.476 4.313v12.498h-2.351V7.43h2.35zM77.016 20.128c-1.02 0-1.864-.31-2.54-.943-.676-.632-1.02-1.508-1.031-2.628V9.57h-2.196V7.43h2.196V3.603h2.35V7.43h3.061v2.14h-3.06v6.222c0 .831.166 1.397.488 1.696.321.3.687.444 1.097.444.189 0 .366-.022.555-.067.188-.044.344-.1.499-.166l.743 2.096c-.632.222-1.342.333-2.162.333zM2.673 18.952C1.375 18.009.488 16.678 0 14.97l2.883-1.176c.289 1.076.799 1.94 1.542 2.628.732.677 1.619 1.02 2.65 1.02.965 0 1.774-.244 2.45-.742.677-.5 1.01-1.187 1.01-2.052 0-.798-.3-1.453-.887-1.974-.588-.521-1.62-1.042-3.094-1.564l-1.22-.432C4.025 10.224 2.928 9.57 2.04 8.716 1.153 7.862.71 6.742.71 5.346c0-.966.266-1.853.787-2.673C2.018 1.852 2.75 1.209 3.693.72 4.624.244 5.678 0 6.864 0c1.708 0 3.072.41 4.081 1.242 1.02.832 1.697 1.752 2.04 2.795L10.236 5.2c-.2-.621-.576-1.164-1.142-1.63-.565-.477-1.286-.71-2.173-.71s-1.641.222-2.251.676c-.61.455-.91 1.032-.91 1.742 0 .676.278 1.22.82 1.663.544.432 1.398.854 2.563 1.253l1.22.41c1.674.577 2.96 1.342 3.88 2.274.921.931 1.376 2.184 1.376 3.748 0 1.275-.322 2.34-.976 3.193a6.01 6.01 0 01-2.495 1.919 8.014 8.014 0 01-3.116.621c-1.62 0-3.072-.466-4.358-1.408zM15.969 3.449a1.95 1.95 0 01-.588-1.43c0-.566.2-1.043.588-1.431A1.95 1.95 0 0117.399 0c.566 0 1.043.2 1.43.588.389.388.588.865.588 1.43 0 .566-.2 1.043-.587 1.43a1.95 1.95 0 01-1.43.589c-.566-.012-1.043-.2-1.431-.588zm-.067 2.595h2.994v13.883h-2.994V6.044zM25.405 19.85c-.543-.2-.986-.466-1.33-.788-.776-.776-1.176-1.84-1.176-3.182V8.683h-2.428v-2.64h2.428V2.13h2.994v3.926h3.372v2.639h-3.372v6.531c0 .743.145 1.276.433 1.575.277.366.743.543 1.42.543.31 0 .576-.044.82-.122.233-.077.488-.21.765-.399v2.917c-.599.277-1.32.41-2.173.41a5.01 5.01 0 01-1.753-.3zM33.623 19.407a6.63 6.63 0 01-2.529-2.628c-.61-1.12-.909-2.373-.909-3.77 0-1.332.3-2.551.887-3.693.588-1.132 1.409-2.04 2.462-2.706 1.053-.666 2.251-1.01 3.593-1.01 1.397 0 2.606.311 3.637.921a6.123 6.123 0 012.34 2.528c.532 1.076.799 2.274.799 3.627 0 .255-.023.576-.078.953H33.179c.111 1.287.566 2.285 1.375 2.983a4.162 4.162 0 002.817 1.043c.854 0 1.597-.189 2.218-.588a4.266 4.266 0 001.508-1.597l2.528 1.198c-.654 1.142-1.508 2.04-2.561 2.694-1.054.655-2.318.976-3.782.976-1.364.022-2.584-.288-3.66-.931zm7.23-8.051a3.332 3.332 0 00-.466-1.453c-.277-.477-.687-.887-1.242-1.208-.554-.322-1.23-.488-2.03-.488-.964 0-1.773.288-2.439.853-.665.566-1.12 1.342-1.375 2.296h7.552z" fill="#5F6368"/></symbol><symbol id="optimize" viewBox="0 0 159 157"><g fill="none"><g transform="translate(0 57)"><path d="M102 21c-.15-11.83-9.95-21-22-21H22C10.6.53 1 9.53 1 21s9.6 21.47 21 22h37v35c0 12.23 10.12 22 22 22 11.87 0 21-9.77 21-22V21z" fill="#B366F6"/><circle fill="#8430CE" cx="21.5" cy="21.5" r="21.5"/></g><path d="M159 21c-.15-11.83-9.95-21-22-21H79C67.6.53 58 9.53 58 21s9.6 21.47 21 22h37v35c0 12.23 10.12 22 22 22 11.87 0 21-9.77 21-22V21z" fill="#C58AF8"/></g></symbol><symbol id="pencil" viewBox="0 0 10 10"><path d="M0 7.917V10h2.083l6.144-6.144-2.083-2.083L0 7.917zm9.838-5.671a.553.553 0 000-.784l-1.3-1.3a.553.553 0 00-.784 0L6.738 1.18 8.82 3.262l1.017-1.016z" fill="#4285F4"/></symbol><symbol id="plus" viewBox="0 0 13 13"><g fill="#5B5B61" fill-rule="evenodd"><path d="M5 0h3v13H5z"/><path d="M13 5v3H0V5z"/></g></symbol><symbol id="search-console" viewBox="0 0 279 248"><path fill="#525252" d="M97.15 2.73c.46-.55 1.37-1.64 1.82-2.2 27-.1 53.98-.04 80.97-.02.44.5 1.32 1.5 1.75 2 .1.15.4.43.5.57.18.16.5.48.68.65.25.23.77.67 1.03.9.33.3.98.92 1.3 1.24.26.25.76.75 1 1 .25.23.7.7.96.94.25.25.74.75.98 1 .25.25.76.75 1 1 .27.26.78.76 1.03 1.02.25.25.76.75 1.02 1 .23.25.72.73.96.97l1 1c.24.24.73.73.98 1 .3.3.93.94 1.24 1.26.23.26.67.78.9 1.04.17.2.5.55.67.73.18.2.56.6.75.78.43.45 1.3 1.3 1.72 1.76.14.15.43.46.57.6.07.13.25.37.33.48.27.56.8 1.67 1.08 2.22.2 5.67-.07 11.34.06 17-7.7-.1-15.4-.1-23.08.02.26-.16.8-.47 1.07-.63-.7-6.6-.7-13.24-.58-19.87-26.28-.02-52.56-.02-78.83 0 .17 6.83-.08 13.64-.44 20.46l1.27.04c-7.8-.1-15.63-.12-23.44-.02.12-5.66-.14-11.32.03-16.98.3-.57.86-1.72 1.15-2.3.1-.1.26-.34.35-.46.15-.16.45-.47.6-.63.44-.45 1.33-1.3 1.77-1.75.2-.18.6-.56.78-.75.22-.22.65-.64.86-.85.24-.23.7-.7.94-.94.25-.24.74-.73.98-1 .25-.22.74-.72 1-.96.23-.26.72-.75.96-1 .24-.23.7-.7.94-.95.2-.23.63-.67.84-.9.32-.32.96-1 1.28-1.33l1.28-1.2c.2-.2.62-.6.83-.8.23-.22.7-.68.9-.9.26-.24.75-.73 1-.97s.72-.73.97-.97c.23-.24.7-.7.94-.94l.8-.8c.1-.14.35-.4.46-.54zm37.7 166.57c2.8-14.95 12.87-28.3 26.16-35.56.2 12.76.08 25.53-.04 38.3.03 2.54-.08 5.12.42 7.63 6.28 4 13.18 6.96 19.6 10.74 6.25-3.25 12.47-6.6 18.7-9.9 2.18-.66 1.4-3.2 1.62-4.93-.06-13.9-.1-27.82 0-41.73 10.12 4.16 17.33 12.82 23 21.85 1.95 6.62 4.35 13.27 4.08 20.3.38 16.85-9.32 33.53-24.3 41.32-1.08.74-2.8 1.17-2.66 2.8-.96 9.1-.42 18.3.17 27.4h-41c.3-9.72.8-19.43-.05-29.14-7.56-3.6-14.02-9.35-18.68-16.3-6.28-9.55-8.7-21.48-7.03-32.76z"/><path fill="#4d4d4d" d="M96.68 3.26c.12-.13.36-.4.47-.53-.1.13-.35.4-.47.53zm85.02-.76c.12.14.4.42.52.56-.13-.14-.4-.42-.53-.56zM95.9 4.06c.2-.2.6-.6.78-.8-.2.2-.6.6-.78.8zm86.32-1c.17.16.5.48.67.65-.2-.15-.5-.47-.7-.63zM94.96 5c.23-.24.7-.7.94-.94-.24.24-.7.7-.94.93zm87.94-1.3c.25.23.77.67 1.03.9-.26-.23-.78-.67-1.04-.9zM93.98 5.96c.24-.24.73-.73.98-.97-.25.22-.74.7-.98.95zm89.95-1.36c.32.3.97.92 1.3 1.24-.33-.32-.98-.94-1.3-1.25zM93 6.93c.25-.24.74-.73.98-.97l-.97.97zm92.22-1.1l1 1-1-1zm-93.12 2c.22-.22.68-.7.9-.9-.22.2-.68.68-.9.9zm94.13-1l.95.95c-.24-.24-.7-.7-.95-.94zm-94.97 1.8c.2-.2.62-.6.83-.8-.23.2-.64.6-.85.8zm95.92-.85zm-97.2 2.05l1.28-1.2-1.28 1.2zm98.18-1.06c.25.26.76.76 1 1.02-.24-.28-.75-.78-1-1.04zm-99.46 2.4c.32-.33.96-1 1.28-1.34-.32.34-.96 1-1.28 1.34zM189.17 9.8c.26.24.77.74 1.02 1-.27-.26-.78-.76-1.04-1zm-101.3 2.25c.2-.22.62-.66.83-.88-.2.22-.63.66-.84.88zM190.2 10.8c.25.25.76.75 1.02 1-.26-.25-.77-.75-1.03-1zM86.92 13c.24-.23.7-.7.94-.95-.23.24-.7.72-.94.96zm104.3-1.2c.24.25.73.73.97.97-.26-.24-.75-.72-1-.96zM85.95 14c.24-.26.73-.75.97-1-.24.25-.73.74-.97 1zm106.25-1.23zm-107.24 2.2c.25-.24.74-.74 1-.98-.26.22-.75.72-1 .96zm108.24-1.2c.24.25.73.74.98 1-.25-.26-.74-.75-1-1zm-109.22 2.2c.25-.26.74-.75.98-1-.24.25-.73.74-.98 1zm110.2-1.2c.3.3.93.95 1.24 1.27-.3-.32-.93-.96-1.24-1.28zM83.04 16.9c.24-.23.7-.7.94-.94l-.94.94zm112.38-.86c.23.26.67.78.9 1.04-.23-.26-.67-.78-.9-1.04zm-113.24 1.7c.22-.2.65-.63.86-.84-.2.2-.64.63-.86.85zm114.14-.66c.17.2.5.55.67.73-.2-.16-.5-.52-.7-.7zM81.4 18.5c.2-.18.6-.56.78-.75-.2.2-.6.57-.8.76zm115.6-.7c.18.2.56.6.75.78-.2-.2-.57-.58-.76-.77zM79.02 20.88c.15-.16.45-.47.6-.63-.15.16-.45.47-.6.63zm120.45-.55zm-120.8 1c.1-.1.26-.33.35-.45-.1.12-.26.35-.34.46zm121.37-.4c.08.13.26.37.34.48-.08-.1-.26-.33-.34-.45z" opacity=".47"/><path fill="#d8d9da" d="M40.3 40.66c12.4-.04 24.8.04 37.2-.04 7.8-.1 15.62-.1 23.43.02 25.83.02 51.66.02 77.5 0 7.68-.1 15.38-.12 23.08-.02 13.27.05 26.5.06 39.76 0C253.9 53.07 266.42 65.67 279 78.2v165.98c-1.32 1.53-2.82 3.45-5.07 3.3-8.86.12-17.72 0-26.57.04-.42-18.84-.05-37.68-.18-56.52-.1-4.3.55-8.73-.8-12.9 1.9-4.46.78-9.4 1.04-14.1-.2-15.05.4-30.14-.3-45.2-.66-11.58-.07-23.2-.3-34.8-.15-1.27.04-2.84-1-3.78-2.52-2.72-6.54-1.6-9.8-1.8-64.34.05-128.67.04-193 0-3.28.2-7.3-.97-9.8 1.8-1.05.92-.9 2.46-1.05 3.7-.24 11.63.4 23.27-.3 34.88-.26 3.07-.36 6.15-.32 9.23.15 39.83-.14 79.66.14 119.5-8.9-.26-17.78.14-26.65-.05-2.24.14-3.72-1.78-5.06-3.27V78.3c13.35-12.6 26.9-25.07 40.3-37.64zM52.6 86.8c6.7-1.8 13.87 5.82 11.3 12.38-1.67 5.15-8.2 8.87-13.24 6.06-3.68-1.78-6.6-5.98-5.97-10.17.94-3.9 3.8-7.48 7.9-8.26zm19.16 9.23c-.2-6.04 6.67-11.2 12.37-8.95 4.2 1 6.32 5.1 7.3 8.96-.83 3.42-2 7.26-5.5 8.8-5.96 4.1-14.94-1.8-14.17-8.8zm-26.43 38.3c23.17-.1 46.34.07 69.5-.05.3 26.85.12 53.72.08 80.58-23.2 0-46.4.14-69.6-.05.13-26.8.05-53.63.04-80.45zm.8 96.92c31.16-.04 62.33-.07 93.5.02 0 5.4-.08 10.82.12 16.23-2.8-.12-5.63-.16-8.44-.1-3.52.13-7.07.16-10.6-.02-1.46-.03-2.9-.03-4.37 0-23.74.25-47.48-.03-71.23.13 1.76-5.24.62-10.83 1.03-16.24z"/><path fill="#4189f8" d="M33.22 80.23c2.5-2.78 6.52-1.6 9.8-1.8 64.33.03 128.66.04 193-.02 3.26.24 7.28-.9 9.8 1.83 1.04.94.85 2.5 1 3.78.23 11.6-.36 23.23.3 34.8-71.75.1-143.5.1-215.26 0 .7-11.6.07-23.24.3-34.87.16-1.24 0-2.78 1.06-3.7m19.38 6.6c-4.1.77-6.95 4.35-7.9 8.25-.65 4.2 2.28 8.4 5.96 10.17 5.03 2.8 11.57-.9 13.24-6.06 2.57-6.58-4.6-14.2-11.3-12.4m19.16 9.23c-.77 7 8.2 12.9 14.16 8.82 3.5-1.55 4.68-5.4 5.5-8.8-.97-3.86-3.1-7.97-7.3-8.97-5.7-2.25-12.55 2.9-12.36 8.95z"/><path fill="#fff" d="M31.86 118.8c71.75.1 143.5.1 215.27 0 .68 15.06.08 30.15.3 45.2-.27 4.7.86 9.64-1.05 14.1-7.74-7.1-13.8-15.87-22.07-22.42-5.66-9.03-12.87-17.7-23-21.85-.1 13.9-.05 27.82 0 41.73-2.63-1.17-4.42-3.44-6.27-5.52-4.96-5.4-10.38-10.37-15.13-15.95-6.08-7-13.2-13.03-18.9-20.37-13.28 7.26-23.35 20.6-26.15 35.56-1.67 11.27.75 23.2 7.03 32.76 4.66 6.94 11.12 12.7 18.68 16.3.85 9.7.35 19.4.04 29.13h-20.85c-.2-5.4-.13-10.83-.12-16.24-31.17-.1-62.34-.06-93.5-.02-.4 5.4.73 11-1.04 16.26-4.48 0-8.95-.02-13.4.02-.3-39.83 0-79.66-.16-119.5-.04-3.07.06-6.15.3-9.22m13.48 15.54c0 26.82.1 53.65-.05 80.47 23.2.2 46.42.08 69.63.07.05-26.86.22-53.73-.07-80.58-23.16.1-46.33-.04-69.5.05z"/><path fill="#bdbdbd" d="M161 133.74c5.7 7.34 12.82 13.36 18.9 20.35 4.74 5.56 10.16 10.53 15.12 15.93 1.85 2.08 3.64 4.35 6.27 5.52-.24 1.72.54 4.27-1.64 4.93-6.23 3.3-12.45 6.64-18.7 9.9-6.42-3.77-13.32-6.74-19.6-10.73-.5-2.5-.4-5.1-.42-7.64.12-12.75.24-25.52.06-38.3zm63.3 21.94c8.27 6.55 14.34 15.32 22.08 22.42 1.35 4.17.7 8.6.8 12.9.13 18.84-.24 37.68.18 56.52-15.26-.04-30.5-.02-45.77 0-.6-9.13-1.15-18.32-.2-27.43-.13-1.64 1.6-2.07 2.66-2.8 15-7.8 24.7-24.47 24.3-41.33.28-7.02-2.12-13.67-4.06-20.3z"/></symbol><symbol id="settings" viewBox="0 0 13 13"><path d="M0 10.111v1.445h4.333V10.11H0zm0-8.667V2.89h7.222V1.444H0zM7.222 13v-1.444H13V10.11H7.222V8.667H5.778V13h1.444zM2.89 4.333v1.445H0v1.444h2.889v1.445h1.444V4.333H2.89zM13 7.223V5.777H5.778v1.444H13zm-4.333-2.89h1.444V2.89H13V1.444h-2.889V0H8.667v4.333z"/></symbol><symbol id="tagmanager" viewBox="0 0 40 40"><g fill="none" transform="translate(.422 .422)"><path d="M16.091 30.725l14.461-14.543 6.817 6.856L22.908 37.58z" fill="#8ab4f8"/><path d="M22.91 8.496L16.09 1.64 1.63 16.182a4.867 4.867 0 000 6.854L16.09 37.58l6.817-6.855L11.856 19.61z" fill="#4285f4"/><ellipse cx="19.5" cy="34.153" fill="#1967d2" rx="4.82" ry="4.847"/><path d="M37.37 16.182L22.91 1.639a4.801 4.801 0 00-6.817 0 4.867 4.867 0 000 6.855l14.46 14.542a4.801 4.801 0 006.817 0 4.867 4.867 0 000-6.854z" fill="#8ab4f8"/></g></symbol><symbol id="trash" viewBox="0 0 11 13"><path d="M.722 11.556c0 .794.65 1.444 1.445 1.444h5.777c.795 0 1.445-.65 1.445-1.444V2.889H.722v8.667zM10.112.722H7.582L6.861 0H3.25l-.722.722H0v1.445h10.111V.722z" fill="#EA4335"/></symbol><symbol id="warning" viewBox="0 0 22 19"><path d="M0 19h22L11 0 0 19zm12-3h-2v-2h2v2zm0-4h-2V8h2v4z" fill="#FFF" fill-rule="nonzero"/></symbol></svg>