<svg width="33" height="27" viewBox="0 0 33 27" xmlns="http://www.w3.org/2000/svg"><g fill-rule="nonzero" fill="none"><path d="M20.85 7.41h1l2.85-2.85.14-1.21A12.81 12.81 0 004 9.6a1.55 1.55 0 011-.06l5.7-.94s.29-.48.44-.45a7.11 7.11 0 019.73-.74h-.02z" fill="#EA4335"/><path d="M28.76 9.6a12.84 12.84 0 00-3.87-6.24l-4 4A7.11 7.11 0 0123.5 13v.71a3.56 3.56 0 010 7.12h-7.12l-.71.72v4.27l.71.71h7.12A9.26 9.26 0 0028.76 9.6z" fill="#4285F4"/><path d="M9.25 26.49h7.12v-5.7H9.25a3.54 3.54 0 01-1.47-.32l-1 .31-2.87 2.85-.25 1a9.21 9.21 0 005.59 1.86z" fill="#34A853"/><path d="M9.25 8a9.26 9.26 0 00-5.59 16.6l4.13-4.13a3.56 3.56 0 114.71-4.71l4.13-4.13A9.25 9.25 0 009.25 8z" fill="#FBBC05"/></g></svg>