<svg width="48" height="53" viewBox="0 0 48 53" xmlns="http://www.w3.org/2000/svg"><g fill="none" fill-rule="evenodd"><path d="M48 46.376a6.629 6.629 0 01-2.18 4.952 6.466 6.466 0 01-5.11 1.625c-3.339-.495-5.789-3.433-5.708-6.848V6.891C34.925 3.475 37.379.537 40.72.045a6.469 6.469 0 015.102 1.631A6.63 6.63 0 0148 6.622v39.754z" fill="#F9AB00"/><path d="M6.5 40.002a6.489 6.489 0 014.594 1.901 6.51 6.51 0 011.906 4.6 6.51 6.51 0 01-1.906 4.596A6.489 6.489 0 016.5 53a6.489 6.489 0 01-4.594-1.9A6.51 6.51 0 010 46.501a6.51 6.51 0 011.905-4.6A6.489 6.489 0 016.5 40v.002zM24.348 20.002c-3.62.197-6.429 3.256-6.346 6.908v17.644c0 4.79 2.092 7.696 5.16 8.314a6.498 6.498 0 005.442-1.358A6.61 6.61 0 0031 46.4V26.605a6.624 6.624 0 00-1.912-4.668A6.519 6.519 0 0024.459 20l-.111.002z" fill="#E37400" fill-rule="nonzero"/></g></svg>